%TF.GenerationSoftware,KiCad,Pcbnew,8.0.2*%
%TF.CreationDate,2025-02-13T09:09:47+01:00*%
%TF.ProjectId,Carte_main,43617274-655f-46d6-9169-6e2e6b696361,rev?*%
%TF.SameCoordinates,Original*%
%TF.FileFunction,Copper,L2,Bot*%
%TF.FilePolarity,Positive*%
%FSLAX46Y46*%
G04 Gerber Fmt 4.6, Leading zero omitted, Abs format (unit mm)*
G04 Created by KiCad (PCBNEW 8.0.2) date 2025-02-13 09:09:47*
%MOMM*%
%LPD*%
G01*
G04 APERTURE LIST*
%TA.AperFunction,ComponentPad*%
%ADD10C,1.600000*%
%TD*%
%TA.AperFunction,ComponentPad*%
%ADD11O,1.600000X1.600000*%
%TD*%
%TA.AperFunction,ComponentPad*%
%ADD12C,2.000000*%
%TD*%
%TA.AperFunction,ComponentPad*%
%ADD13R,1.700000X1.700000*%
%TD*%
%TA.AperFunction,ComponentPad*%
%ADD14O,1.700000X1.700000*%
%TD*%
%TA.AperFunction,Conductor*%
%ADD15C,0.300000*%
%TD*%
G04 APERTURE END LIST*
D10*
%TO.P,C3,1*%
%TO.N,/34*%
X130650000Y-101325000D03*
%TO.P,C3,2*%
%TO.N,Net-(J4-Pin_1)*%
X125650000Y-101325000D03*
%TD*%
%TO.P,R1,1*%
%TO.N,/39*%
X130630000Y-107225000D03*
D11*
%TO.P,R1,2*%
%TO.N,GND*%
X120470000Y-107225000D03*
%TD*%
D10*
%TO.P,C4,1*%
%TO.N,/+5V*%
X130650000Y-119325000D03*
%TO.P,C4,2*%
%TO.N,GND*%
X125650000Y-119325000D03*
%TD*%
%TO.P,R2,1*%
%TO.N,Net-(J4-Pin_4)*%
X120490000Y-104125000D03*
D11*
%TO.P,R2,2*%
%TO.N,/34*%
X130650000Y-104125000D03*
%TD*%
D12*
%TO.P,SW1,1,1*%
%TO.N,/+3.3V*%
X118325000Y-83825000D03*
X118325000Y-77325000D03*
%TO.P,SW1,2,2*%
%TO.N,Net-(J2-Pin_12)*%
X122825000Y-83825000D03*
X122825000Y-77325000D03*
%TD*%
D13*
%TO.P,J4,1,Pin_1*%
%TO.N,Net-(J4-Pin_1)*%
X129150000Y-80305000D03*
D14*
%TO.P,J4,2,Pin_2*%
%TO.N,Net-(J4-Pin_2)*%
X129150000Y-82845000D03*
%TO.P,J4,3,Pin_3*%
%TO.N,Net-(J4-Pin_3)*%
X129150000Y-85385000D03*
%TO.P,J4,4,Pin_4*%
%TO.N,Net-(J4-Pin_4)*%
X129150000Y-87925000D03*
%TO.P,J4,5,Pin_5*%
%TO.N,/+3.3V*%
X129150000Y-90465000D03*
%TD*%
D10*
%TO.P,C2,1*%
%TO.N,/35*%
X130650000Y-95725000D03*
%TO.P,C2,2*%
%TO.N,Net-(J4-Pin_1)*%
X125650000Y-95725000D03*
%TD*%
D13*
%TO.P,J1,1,Pin_1*%
%TO.N,unconnected-(J1-Pin_1-Pad1)*%
X133600000Y-78745000D03*
D14*
%TO.P,J1,2,Pin_2*%
%TO.N,/13_S2*%
X133600000Y-81285000D03*
%TO.P,J1,3,Pin_3*%
%TO.N,unconnected-(J1-Pin_3-Pad3)*%
X133600000Y-83825000D03*
%TO.P,J1,4,Pin_4*%
%TO.N,/14_S3*%
X133600000Y-86365000D03*
%TO.P,J1,5,Pin_5*%
%TO.N,unconnected-(J1-Pin_5-Pad5)*%
X133600000Y-88905000D03*
%TO.P,J1,6,Pin_6*%
%TO.N,unconnected-(J1-Pin_6-Pad6)*%
X133600000Y-91445000D03*
%TO.P,J1,7,Pin_7*%
%TO.N,unconnected-(J1-Pin_7-Pad7)*%
X133600000Y-93985000D03*
%TO.P,J1,8,Pin_8*%
%TO.N,unconnected-(J1-Pin_8-Pad8)*%
X133600000Y-96525000D03*
%TO.P,J1,9,Pin_9*%
%TO.N,unconnected-(J1-Pin_9-Pad9)*%
X133600000Y-99065000D03*
%TO.P,J1,10,Pin_10*%
%TO.N,/35*%
X133600000Y-101605000D03*
%TO.P,J1,11,Pin_11*%
%TO.N,/34*%
X133600000Y-104145000D03*
%TO.P,J1,12,Pin_12*%
%TO.N,/39*%
X133600000Y-106685000D03*
%TO.P,J1,13,Pin_13*%
%TO.N,unconnected-(J1-Pin_13-Pad13)*%
X133600000Y-109225000D03*
%TO.P,J1,14,Pin_14*%
%TO.N,unconnected-(J1-Pin_14-Pad14)*%
X133600000Y-111765000D03*
%TO.P,J1,15,Pin_15*%
%TO.N,/36*%
X133600000Y-114305000D03*
%TO.P,J1,16,Pin_16*%
%TO.N,/+3.3V*%
X133600000Y-116845000D03*
%TO.P,J1,17,Pin_17*%
%TO.N,/+5V*%
X133600000Y-119385000D03*
%TO.P,J1,18,Pin_18*%
%TO.N,GND*%
X133600000Y-121925000D03*
%TD*%
D10*
%TO.P,R5,1*%
%TO.N,GND*%
X123145000Y-74125000D03*
D11*
%TO.P,R5,2*%
%TO.N,Net-(J2-Pin_12)*%
X133305000Y-74125000D03*
%TD*%
D10*
%TO.P,R4,1*%
%TO.N,Net-(J4-Pin_2)*%
X120490000Y-114025000D03*
D11*
%TO.P,R4,2*%
%TO.N,/36*%
X130650000Y-114025000D03*
%TD*%
D10*
%TO.P,R3,1*%
%TO.N,Net-(J4-Pin_3)*%
X120470000Y-98525000D03*
D11*
%TO.P,R3,2*%
%TO.N,/35*%
X130630000Y-98525000D03*
%TD*%
D13*
%TO.P,J3,1,Pin_1*%
%TO.N,/39*%
X124625000Y-90400000D03*
D14*
%TO.P,J3,2,Pin_2*%
%TO.N,/+3.3V*%
X124625000Y-87860000D03*
%TD*%
D10*
%TO.P,C1,1*%
%TO.N,/36*%
X130650000Y-111225000D03*
%TO.P,C1,2*%
%TO.N,Net-(J4-Pin_1)*%
X125650000Y-111225000D03*
%TD*%
D13*
%TO.P,J2,1,Pin_1*%
%TO.N,/16_S0*%
X156400000Y-78745000D03*
D14*
%TO.P,J2,2,Pin_2*%
%TO.N,unconnected-(J2-Pin_2-Pad2)*%
X156400000Y-81285000D03*
%TO.P,J2,3,Pin_3*%
%TO.N,/4_S5*%
X156400000Y-83825000D03*
%TO.P,J2,4,Pin_4*%
%TO.N,unconnected-(J2-Pin_4-Pad4)*%
X156400000Y-86365000D03*
%TO.P,J2,5,Pin_5*%
%TO.N,/15_S4*%
X156400000Y-88905000D03*
%TO.P,J2,6,Pin_6*%
%TO.N,unconnected-(J2-Pin_6-Pad6)*%
X156400000Y-91445000D03*
%TO.P,J2,7,Pin_7*%
%TO.N,unconnected-(J2-Pin_7-Pad7)*%
X156400000Y-93985000D03*
%TO.P,J2,8,Pin_8*%
%TO.N,unconnected-(J2-Pin_8-Pad8)*%
X156400000Y-96525000D03*
%TO.P,J2,9,Pin_9*%
%TO.N,unconnected-(J2-Pin_9-Pad9)*%
X156400000Y-99065000D03*
%TO.P,J2,10,Pin_10*%
%TO.N,unconnected-(J2-Pin_10-Pad10)*%
X156400000Y-101605000D03*
%TO.P,J2,11,Pin_11*%
%TO.N,unconnected-(J2-Pin_11-Pad11)*%
X156400000Y-104145000D03*
%TO.P,J2,12,Pin_12*%
%TO.N,Net-(J2-Pin_12)*%
X156400000Y-106685000D03*
%TO.P,J2,13,Pin_13*%
%TO.N,unconnected-(J2-Pin_13-Pad13)*%
X156400000Y-109225000D03*
%TO.P,J2,14,Pin_14*%
%TO.N,unconnected-(J2-Pin_14-Pad14)*%
X156400000Y-111765000D03*
%TO.P,J2,15,Pin_15*%
%TO.N,unconnected-(J2-Pin_15-Pad15)*%
X156400000Y-114305000D03*
%TO.P,J2,16,Pin_16*%
%TO.N,unconnected-(J2-Pin_16-Pad16)*%
X156400000Y-116845000D03*
%TO.P,J2,17,Pin_17*%
%TO.N,unconnected-(J2-Pin_17-Pad17)*%
X156400000Y-119385000D03*
%TO.P,J2,18,Pin_18*%
%TO.N,unconnected-(J2-Pin_18-Pad18)*%
X156400000Y-121925000D03*
%TD*%
D10*
%TO.P,C5,1*%
%TO.N,/+3.3V*%
X130650000Y-116825000D03*
%TO.P,C5,2*%
%TO.N,GND*%
X125650000Y-116825000D03*
%TD*%
D15*
%TO.N,Net-(J4-Pin_1)*%
X131350000Y-82505000D02*
X131350000Y-91125000D01*
X131350000Y-91125000D02*
X126750000Y-95725000D01*
X126750000Y-95725000D02*
X125650000Y-95725000D01*
X129150000Y-80305000D02*
X131350000Y-82505000D01*
%TO.N,/+3.3V*%
X127710000Y-89025000D02*
X125790000Y-89025000D01*
X125790000Y-89025000D02*
X124625000Y-87860000D01*
X123610000Y-87860000D02*
X119575000Y-83825000D01*
X119575000Y-83825000D02*
X118325000Y-83825000D01*
X129150000Y-90465000D02*
X127710000Y-89025000D01*
X124625000Y-87860000D02*
X123610000Y-87860000D01*
%TO.N,/39*%
X124625000Y-92000000D02*
X123850000Y-92775000D01*
X127950000Y-107225000D02*
X130630000Y-107225000D01*
X124625000Y-90400000D02*
X124625000Y-92000000D01*
X123850000Y-92775000D02*
X123850000Y-103125000D01*
X123850000Y-103125000D02*
X127950000Y-107225000D01*
%TD*%
%TA.AperFunction,Conductor*%
%TO.N,GND*%
G36*
X159004418Y-72500816D02*
G01*
X159204561Y-72515130D01*
X159222063Y-72517647D01*
X159413797Y-72559355D01*
X159430755Y-72564334D01*
X159614609Y-72632909D01*
X159630701Y-72640259D01*
X159802904Y-72734288D01*
X159817784Y-72743849D01*
X159946038Y-72839860D01*
X159974867Y-72861441D01*
X159988237Y-72873027D01*
X160126972Y-73011762D01*
X160138558Y-73025132D01*
X160213283Y-73124953D01*
X160256146Y-73182210D01*
X160265711Y-73197095D01*
X160359740Y-73369298D01*
X160367090Y-73385390D01*
X160435662Y-73569236D01*
X160440646Y-73586212D01*
X160482351Y-73777931D01*
X160484869Y-73795442D01*
X160499184Y-73995580D01*
X160499500Y-74004427D01*
X160499500Y-122495572D01*
X160499184Y-122504419D01*
X160484869Y-122704557D01*
X160482351Y-122722068D01*
X160440646Y-122913787D01*
X160435662Y-122930763D01*
X160367090Y-123114609D01*
X160359740Y-123130701D01*
X160265711Y-123302904D01*
X160256146Y-123317789D01*
X160138558Y-123474867D01*
X160126972Y-123488237D01*
X159988237Y-123626972D01*
X159974867Y-123638558D01*
X159817789Y-123756146D01*
X159802904Y-123765711D01*
X159630701Y-123859740D01*
X159614609Y-123867090D01*
X159430763Y-123935662D01*
X159413787Y-123940646D01*
X159222068Y-123982351D01*
X159204557Y-123984869D01*
X159023779Y-123997799D01*
X159004417Y-123999184D01*
X158995572Y-123999500D01*
X118004428Y-123999500D01*
X117995582Y-123999184D01*
X117973622Y-123997613D01*
X117795442Y-123984869D01*
X117777931Y-123982351D01*
X117586212Y-123940646D01*
X117569236Y-123935662D01*
X117385390Y-123867090D01*
X117369298Y-123859740D01*
X117197095Y-123765711D01*
X117182210Y-123756146D01*
X117025132Y-123638558D01*
X117011762Y-123626972D01*
X116873027Y-123488237D01*
X116861441Y-123474867D01*
X116743849Y-123317784D01*
X116734288Y-123302904D01*
X116640259Y-123130701D01*
X116632909Y-123114609D01*
X116576545Y-122963493D01*
X116564334Y-122930755D01*
X116559355Y-122913797D01*
X116517647Y-122722063D01*
X116515130Y-122704556D01*
X116507854Y-122602830D01*
X116500816Y-122504418D01*
X116500500Y-122495572D01*
X116500500Y-116824997D01*
X124345034Y-116824997D01*
X124345034Y-116825002D01*
X124364858Y-117051599D01*
X124364860Y-117051610D01*
X124423730Y-117271317D01*
X124423735Y-117271331D01*
X124519863Y-117477478D01*
X124570974Y-117550472D01*
X125250000Y-116871446D01*
X125250000Y-116877661D01*
X125277259Y-116979394D01*
X125329920Y-117070606D01*
X125404394Y-117145080D01*
X125495606Y-117197741D01*
X125597339Y-117225000D01*
X125603553Y-117225000D01*
X124924526Y-117904025D01*
X124997513Y-117955132D01*
X124997517Y-117955134D01*
X125013566Y-117962618D01*
X125066005Y-118008790D01*
X125085157Y-118075984D01*
X125064941Y-118142865D01*
X125013568Y-118187381D01*
X124997518Y-118194865D01*
X124997512Y-118194868D01*
X124924526Y-118245973D01*
X124924526Y-118245974D01*
X125603553Y-118925000D01*
X125597339Y-118925000D01*
X125495606Y-118952259D01*
X125404394Y-119004920D01*
X125329920Y-119079394D01*
X125277259Y-119170606D01*
X125250000Y-119272339D01*
X125250000Y-119278552D01*
X124570974Y-118599526D01*
X124570973Y-118599526D01*
X124519868Y-118672512D01*
X124519866Y-118672516D01*
X124423734Y-118878673D01*
X124423730Y-118878682D01*
X124364860Y-119098389D01*
X124364858Y-119098400D01*
X124345034Y-119324997D01*
X124345034Y-119325002D01*
X124364858Y-119551599D01*
X124364860Y-119551610D01*
X124423730Y-119771317D01*
X124423735Y-119771331D01*
X124519863Y-119977478D01*
X124570974Y-120050472D01*
X125250000Y-119371446D01*
X125250000Y-119377661D01*
X125277259Y-119479394D01*
X125329920Y-119570606D01*
X125404394Y-119645080D01*
X125495606Y-119697741D01*
X125597339Y-119725000D01*
X125603553Y-119725000D01*
X124924526Y-120404025D01*
X124997513Y-120455132D01*
X124997521Y-120455136D01*
X125203668Y-120551264D01*
X125203682Y-120551269D01*
X125423389Y-120610139D01*
X125423400Y-120610141D01*
X125649998Y-120629966D01*
X125650002Y-120629966D01*
X125876599Y-120610141D01*
X125876610Y-120610139D01*
X126096317Y-120551269D01*
X126096331Y-120551264D01*
X126302478Y-120455136D01*
X126375471Y-120404024D01*
X125696447Y-119725000D01*
X125702661Y-119725000D01*
X125804394Y-119697741D01*
X125895606Y-119645080D01*
X125970080Y-119570606D01*
X126022741Y-119479394D01*
X126050000Y-119377661D01*
X126050000Y-119371447D01*
X126729024Y-120050471D01*
X126780136Y-119977478D01*
X126876264Y-119771331D01*
X126876269Y-119771317D01*
X126935139Y-119551610D01*
X126935141Y-119551599D01*
X126954966Y-119325002D01*
X126954966Y-119324997D01*
X126935141Y-119098400D01*
X126935139Y-119098389D01*
X126876269Y-118878682D01*
X126876264Y-118878668D01*
X126780136Y-118672521D01*
X126780132Y-118672513D01*
X126729025Y-118599526D01*
X126050000Y-119278551D01*
X126050000Y-119272339D01*
X126022741Y-119170606D01*
X125970080Y-119079394D01*
X125895606Y-119004920D01*
X125804394Y-118952259D01*
X125702661Y-118925000D01*
X125696448Y-118925000D01*
X126375472Y-118245974D01*
X126302481Y-118194865D01*
X126286435Y-118187383D01*
X126233995Y-118141211D01*
X126214842Y-118074018D01*
X126235057Y-118007137D01*
X126286435Y-117962617D01*
X126302480Y-117955135D01*
X126375471Y-117904024D01*
X125696447Y-117225000D01*
X125702661Y-117225000D01*
X125804394Y-117197741D01*
X125895606Y-117145080D01*
X125970080Y-117070606D01*
X126022741Y-116979394D01*
X126050000Y-116877661D01*
X126050000Y-116871447D01*
X126729024Y-117550471D01*
X126780136Y-117477478D01*
X126876264Y-117271331D01*
X126876269Y-117271317D01*
X126935139Y-117051610D01*
X126935141Y-117051599D01*
X126954966Y-116825002D01*
X126954966Y-116824997D01*
X126935141Y-116598400D01*
X126935139Y-116598389D01*
X126876269Y-116378682D01*
X126876264Y-116378668D01*
X126780136Y-116172521D01*
X126780132Y-116172513D01*
X126729025Y-116099526D01*
X126050000Y-116778551D01*
X126050000Y-116772339D01*
X126022741Y-116670606D01*
X125970080Y-116579394D01*
X125895606Y-116504920D01*
X125804394Y-116452259D01*
X125702661Y-116425000D01*
X125696448Y-116425000D01*
X126375472Y-115745974D01*
X126302478Y-115694863D01*
X126096331Y-115598735D01*
X126096317Y-115598730D01*
X125876610Y-115539860D01*
X125876599Y-115539858D01*
X125650002Y-115520034D01*
X125649998Y-115520034D01*
X125423400Y-115539858D01*
X125423389Y-115539860D01*
X125203682Y-115598730D01*
X125203673Y-115598734D01*
X124997516Y-115694866D01*
X124997512Y-115694868D01*
X124924526Y-115745973D01*
X124924526Y-115745974D01*
X125603553Y-116425000D01*
X125597339Y-116425000D01*
X125495606Y-116452259D01*
X125404394Y-116504920D01*
X125329920Y-116579394D01*
X125277259Y-116670606D01*
X125250000Y-116772339D01*
X125250000Y-116778552D01*
X124570974Y-116099526D01*
X124570973Y-116099526D01*
X124519868Y-116172512D01*
X124519866Y-116172516D01*
X124423734Y-116378673D01*
X124423730Y-116378682D01*
X124364860Y-116598389D01*
X124364858Y-116598400D01*
X124345034Y-116824997D01*
X116500500Y-116824997D01*
X116500500Y-114024998D01*
X119184532Y-114024998D01*
X119184532Y-114025001D01*
X119204364Y-114251686D01*
X119204366Y-114251697D01*
X119263258Y-114471488D01*
X119263261Y-114471497D01*
X119359431Y-114677732D01*
X119359432Y-114677734D01*
X119489954Y-114864141D01*
X119650858Y-115025045D01*
X119650861Y-115025047D01*
X119837266Y-115155568D01*
X120043504Y-115251739D01*
X120263308Y-115310635D01*
X120425230Y-115324801D01*
X120489998Y-115330468D01*
X120490000Y-115330468D01*
X120490002Y-115330468D01*
X120546673Y-115325509D01*
X120716692Y-115310635D01*
X120936496Y-115251739D01*
X121142734Y-115155568D01*
X121329139Y-115025047D01*
X121490047Y-114864139D01*
X121620568Y-114677734D01*
X121716739Y-114471496D01*
X121775635Y-114251692D01*
X121795468Y-114025000D01*
X121775635Y-113798308D01*
X121716739Y-113578504D01*
X121620568Y-113372266D01*
X121490047Y-113185861D01*
X121490045Y-113185858D01*
X121329141Y-113024954D01*
X121142734Y-112894432D01*
X121142732Y-112894431D01*
X120936497Y-112798261D01*
X120936488Y-112798258D01*
X120716697Y-112739366D01*
X120716693Y-112739365D01*
X120716692Y-112739365D01*
X120716691Y-112739364D01*
X120716686Y-112739364D01*
X120490002Y-112719532D01*
X120489998Y-112719532D01*
X120263313Y-112739364D01*
X120263302Y-112739366D01*
X120043511Y-112798258D01*
X120043502Y-112798261D01*
X119837267Y-112894431D01*
X119837265Y-112894432D01*
X119650858Y-113024954D01*
X119489954Y-113185858D01*
X119359432Y-113372265D01*
X119359431Y-113372267D01*
X119263261Y-113578502D01*
X119263258Y-113578511D01*
X119204366Y-113798302D01*
X119204364Y-113798313D01*
X119184532Y-114024998D01*
X116500500Y-114024998D01*
X116500500Y-111224998D01*
X124344532Y-111224998D01*
X124344532Y-111225001D01*
X124364364Y-111451686D01*
X124364366Y-111451697D01*
X124423258Y-111671488D01*
X124423261Y-111671497D01*
X124519431Y-111877732D01*
X124519432Y-111877734D01*
X124649954Y-112064141D01*
X124810858Y-112225045D01*
X124810861Y-112225047D01*
X124997266Y-112355568D01*
X125203504Y-112451739D01*
X125423308Y-112510635D01*
X125585230Y-112524801D01*
X125649998Y-112530468D01*
X125650000Y-112530468D01*
X125650002Y-112530468D01*
X125706673Y-112525509D01*
X125876692Y-112510635D01*
X126096496Y-112451739D01*
X126302734Y-112355568D01*
X126489139Y-112225047D01*
X126650047Y-112064139D01*
X126780568Y-111877734D01*
X126876739Y-111671496D01*
X126935635Y-111451692D01*
X126955468Y-111225000D01*
X126955468Y-111224998D01*
X129344532Y-111224998D01*
X129344532Y-111225001D01*
X129364364Y-111451686D01*
X129364366Y-111451697D01*
X129423258Y-111671488D01*
X129423261Y-111671497D01*
X129519431Y-111877732D01*
X129519432Y-111877734D01*
X129649954Y-112064141D01*
X129810858Y-112225045D01*
X129810861Y-112225047D01*
X129997266Y-112355568D01*
X130203504Y-112451739D01*
X130203509Y-112451740D01*
X130203511Y-112451741D01*
X130403117Y-112505225D01*
X130462778Y-112541590D01*
X130493307Y-112604437D01*
X130485012Y-112673812D01*
X130440527Y-112727690D01*
X130403117Y-112744775D01*
X130203511Y-112798258D01*
X130203502Y-112798261D01*
X129997267Y-112894431D01*
X129997265Y-112894432D01*
X129810858Y-113024954D01*
X129649954Y-113185858D01*
X129519432Y-113372265D01*
X129519431Y-113372267D01*
X129423261Y-113578502D01*
X129423258Y-113578511D01*
X129364366Y-113798302D01*
X129364364Y-113798313D01*
X129344532Y-114024998D01*
X129344532Y-114025001D01*
X129364364Y-114251686D01*
X129364366Y-114251697D01*
X129423258Y-114471488D01*
X129423261Y-114471497D01*
X129519431Y-114677732D01*
X129519432Y-114677734D01*
X129649954Y-114864141D01*
X129810858Y-115025045D01*
X129810861Y-115025047D01*
X129997266Y-115155568D01*
X130203504Y-115251739D01*
X130203509Y-115251740D01*
X130203511Y-115251741D01*
X130403117Y-115305225D01*
X130462778Y-115341590D01*
X130493307Y-115404437D01*
X130485012Y-115473812D01*
X130440527Y-115527690D01*
X130403117Y-115544775D01*
X130203511Y-115598258D01*
X130203502Y-115598261D01*
X129997267Y-115694431D01*
X129997265Y-115694432D01*
X129810858Y-115824954D01*
X129649954Y-115985858D01*
X129519432Y-116172265D01*
X129519431Y-116172267D01*
X129423261Y-116378502D01*
X129423258Y-116378511D01*
X129364366Y-116598302D01*
X129364364Y-116598313D01*
X129344532Y-116824998D01*
X129344532Y-116825001D01*
X129364364Y-117051686D01*
X129364366Y-117051697D01*
X129423258Y-117271488D01*
X129423261Y-117271497D01*
X129519431Y-117477732D01*
X129519432Y-117477734D01*
X129649954Y-117664141D01*
X129810858Y-117825045D01*
X129810861Y-117825047D01*
X129997266Y-117955568D01*
X130012387Y-117962619D01*
X130064825Y-118008791D01*
X130083976Y-118075985D01*
X130063760Y-118142866D01*
X130012387Y-118187380D01*
X129997266Y-118194432D01*
X129997264Y-118194433D01*
X129810858Y-118324954D01*
X129649954Y-118485858D01*
X129519432Y-118672265D01*
X129519431Y-118672267D01*
X129423261Y-118878502D01*
X129423258Y-118878511D01*
X129364366Y-119098302D01*
X129364364Y-119098313D01*
X129344532Y-119324998D01*
X129344532Y-119325001D01*
X129364364Y-119551686D01*
X129364366Y-119551697D01*
X129423258Y-119771488D01*
X129423261Y-119771497D01*
X129519431Y-119977732D01*
X129519432Y-119977734D01*
X129649954Y-120164141D01*
X129810858Y-120325045D01*
X129810861Y-120325047D01*
X129997266Y-120455568D01*
X130203504Y-120551739D01*
X130203509Y-120551740D01*
X130203511Y-120551741D01*
X130230733Y-120559035D01*
X130423308Y-120610635D01*
X130585230Y-120624801D01*
X130649998Y-120630468D01*
X130650000Y-120630468D01*
X130650002Y-120630468D01*
X130706673Y-120625509D01*
X130876692Y-120610635D01*
X131096496Y-120551739D01*
X131302734Y-120455568D01*
X131489139Y-120325047D01*
X131650047Y-120164139D01*
X131780568Y-119977734D01*
X131876739Y-119771496D01*
X131935635Y-119551692D01*
X131955468Y-119325000D01*
X131935635Y-119098308D01*
X131876739Y-118878504D01*
X131780568Y-118672266D01*
X131650047Y-118485861D01*
X131650045Y-118485858D01*
X131489141Y-118324954D01*
X131302734Y-118194432D01*
X131287614Y-118187381D01*
X131235176Y-118141211D01*
X131216023Y-118074018D01*
X131236238Y-118007136D01*
X131287614Y-117962618D01*
X131302734Y-117955568D01*
X131489139Y-117825047D01*
X131650047Y-117664139D01*
X131780568Y-117477734D01*
X131876739Y-117271496D01*
X131935635Y-117051692D01*
X131955468Y-116825000D01*
X131935635Y-116598308D01*
X131876739Y-116378504D01*
X131780568Y-116172266D01*
X131650047Y-115985861D01*
X131650045Y-115985858D01*
X131489141Y-115824954D01*
X131302734Y-115694432D01*
X131302732Y-115694431D01*
X131096497Y-115598261D01*
X131096488Y-115598258D01*
X130896882Y-115544775D01*
X130837221Y-115508410D01*
X130806692Y-115445563D01*
X130814987Y-115376188D01*
X130859472Y-115322310D01*
X130896882Y-115305225D01*
X131096496Y-115251739D01*
X131302734Y-115155568D01*
X131489139Y-115025047D01*
X131650047Y-114864139D01*
X131780568Y-114677734D01*
X131876739Y-114471496D01*
X131935635Y-114251692D01*
X131955468Y-114025000D01*
X131935635Y-113798308D01*
X131876739Y-113578504D01*
X131780568Y-113372266D01*
X131650047Y-113185861D01*
X131650045Y-113185858D01*
X131489141Y-113024954D01*
X131302734Y-112894432D01*
X131302732Y-112894431D01*
X131096497Y-112798261D01*
X131096488Y-112798258D01*
X130896882Y-112744775D01*
X130837221Y-112708410D01*
X130806692Y-112645563D01*
X130814987Y-112576188D01*
X130859472Y-112522310D01*
X130896882Y-112505225D01*
X131096496Y-112451739D01*
X131302734Y-112355568D01*
X131489139Y-112225047D01*
X131650047Y-112064139D01*
X131780568Y-111877734D01*
X131876739Y-111671496D01*
X131935635Y-111451692D01*
X131955468Y-111225000D01*
X131935635Y-110998308D01*
X131876739Y-110778504D01*
X131780568Y-110572266D01*
X131667051Y-110410145D01*
X131650045Y-110385858D01*
X131489141Y-110224954D01*
X131302734Y-110094432D01*
X131302732Y-110094431D01*
X131096497Y-109998261D01*
X131096488Y-109998258D01*
X130876697Y-109939366D01*
X130876693Y-109939365D01*
X130876692Y-109939365D01*
X130876691Y-109939364D01*
X130876686Y-109939364D01*
X130650002Y-109919532D01*
X130649998Y-109919532D01*
X130423313Y-109939364D01*
X130423302Y-109939366D01*
X130203511Y-109998258D01*
X130203502Y-109998261D01*
X129997267Y-110094431D01*
X129997265Y-110094432D01*
X129810858Y-110224954D01*
X129649954Y-110385858D01*
X129519432Y-110572265D01*
X129519431Y-110572267D01*
X129423261Y-110778502D01*
X129423258Y-110778511D01*
X129364366Y-110998302D01*
X129364364Y-110998313D01*
X129344532Y-111224998D01*
X126955468Y-111224998D01*
X126935635Y-110998308D01*
X126876739Y-110778504D01*
X126780568Y-110572266D01*
X126667051Y-110410145D01*
X126650045Y-110385858D01*
X126489141Y-110224954D01*
X126302734Y-110094432D01*
X126302732Y-110094431D01*
X126096497Y-109998261D01*
X126096488Y-109998258D01*
X125876697Y-109939366D01*
X125876693Y-109939365D01*
X125876692Y-109939365D01*
X125876691Y-109939364D01*
X125876686Y-109939364D01*
X125650002Y-109919532D01*
X125649998Y-109919532D01*
X125423313Y-109939364D01*
X125423302Y-109939366D01*
X125203511Y-109998258D01*
X125203502Y-109998261D01*
X124997267Y-110094431D01*
X124997265Y-110094432D01*
X124810858Y-110224954D01*
X124649954Y-110385858D01*
X124519432Y-110572265D01*
X124519431Y-110572267D01*
X124423261Y-110778502D01*
X124423258Y-110778511D01*
X124364366Y-110998302D01*
X124364364Y-110998313D01*
X124344532Y-111224998D01*
X116500500Y-111224998D01*
X116500500Y-106974999D01*
X119191127Y-106974999D01*
X119191128Y-106975000D01*
X120154314Y-106975000D01*
X120149920Y-106979394D01*
X120097259Y-107070606D01*
X120070000Y-107172339D01*
X120070000Y-107277661D01*
X120097259Y-107379394D01*
X120149920Y-107470606D01*
X120154314Y-107475000D01*
X119191128Y-107475000D01*
X119243730Y-107671317D01*
X119243734Y-107671326D01*
X119339865Y-107877482D01*
X119470342Y-108063820D01*
X119631179Y-108224657D01*
X119817517Y-108355134D01*
X120023673Y-108451265D01*
X120023682Y-108451269D01*
X120219999Y-108503872D01*
X120220000Y-108503871D01*
X120220000Y-107540686D01*
X120224394Y-107545080D01*
X120315606Y-107597741D01*
X120417339Y-107625000D01*
X120522661Y-107625000D01*
X120624394Y-107597741D01*
X120715606Y-107545080D01*
X120720000Y-107540686D01*
X120720000Y-108503872D01*
X120916317Y-108451269D01*
X120916326Y-108451265D01*
X121122482Y-108355134D01*
X121308820Y-108224657D01*
X121469657Y-108063820D01*
X121600134Y-107877482D01*
X121696265Y-107671326D01*
X121696269Y-107671317D01*
X121748872Y-107475000D01*
X120785686Y-107475000D01*
X120790080Y-107470606D01*
X120842741Y-107379394D01*
X120870000Y-107277661D01*
X120870000Y-107172339D01*
X120842741Y-107070606D01*
X120790080Y-106979394D01*
X120785686Y-106975000D01*
X121748872Y-106975000D01*
X121748872Y-106974999D01*
X121696269Y-106778682D01*
X121696265Y-106778673D01*
X121600134Y-106572517D01*
X121469657Y-106386179D01*
X121308820Y-106225342D01*
X121122482Y-106094865D01*
X120916328Y-105998734D01*
X120720000Y-105946127D01*
X120720000Y-106909314D01*
X120715606Y-106904920D01*
X120624394Y-106852259D01*
X120522661Y-106825000D01*
X120417339Y-106825000D01*
X120315606Y-106852259D01*
X120224394Y-106904920D01*
X120220000Y-106909314D01*
X120220000Y-105946127D01*
X120023671Y-105998734D01*
X119817517Y-106094865D01*
X119631179Y-106225342D01*
X119470342Y-106386179D01*
X119339865Y-106572517D01*
X119243734Y-106778673D01*
X119243730Y-106778682D01*
X119191127Y-106974999D01*
X116500500Y-106974999D01*
X116500500Y-104124998D01*
X119184532Y-104124998D01*
X119184532Y-104125001D01*
X119204364Y-104351686D01*
X119204366Y-104351697D01*
X119263258Y-104571488D01*
X119263261Y-104571497D01*
X119359431Y-104777732D01*
X119359432Y-104777734D01*
X119489954Y-104964141D01*
X119650858Y-105125045D01*
X119650861Y-105125047D01*
X119837266Y-105255568D01*
X120043504Y-105351739D01*
X120263308Y-105410635D01*
X120425230Y-105424801D01*
X120489998Y-105430468D01*
X120490000Y-105430468D01*
X120490002Y-105430468D01*
X120546673Y-105425509D01*
X120716692Y-105410635D01*
X120936496Y-105351739D01*
X121142734Y-105255568D01*
X121329139Y-105125047D01*
X121490047Y-104964139D01*
X121620568Y-104777734D01*
X121716739Y-104571496D01*
X121775635Y-104351692D01*
X121795468Y-104125000D01*
X121775635Y-103898308D01*
X121716739Y-103678504D01*
X121620568Y-103472266D01*
X121490047Y-103285861D01*
X121490045Y-103285858D01*
X121329141Y-103124954D01*
X121142734Y-102994432D01*
X121142732Y-102994431D01*
X120936497Y-102898261D01*
X120936488Y-102898258D01*
X120716697Y-102839366D01*
X120716693Y-102839365D01*
X120716692Y-102839365D01*
X120716691Y-102839364D01*
X120716686Y-102839364D01*
X120490002Y-102819532D01*
X120489998Y-102819532D01*
X120263313Y-102839364D01*
X120263302Y-102839366D01*
X120043511Y-102898258D01*
X120043502Y-102898261D01*
X119837267Y-102994431D01*
X119837265Y-102994432D01*
X119650858Y-103124954D01*
X119489954Y-103285858D01*
X119359432Y-103472265D01*
X119359431Y-103472267D01*
X119263261Y-103678502D01*
X119263258Y-103678511D01*
X119204366Y-103898302D01*
X119204364Y-103898313D01*
X119184532Y-104124998D01*
X116500500Y-104124998D01*
X116500500Y-98524998D01*
X119164532Y-98524998D01*
X119164532Y-98525001D01*
X119184364Y-98751686D01*
X119184366Y-98751697D01*
X119243258Y-98971488D01*
X119243261Y-98971497D01*
X119339431Y-99177732D01*
X119339432Y-99177734D01*
X119469954Y-99364141D01*
X119630858Y-99525045D01*
X119630861Y-99525047D01*
X119817266Y-99655568D01*
X120023504Y-99751739D01*
X120243308Y-99810635D01*
X120405230Y-99824801D01*
X120469998Y-99830468D01*
X120470000Y-99830468D01*
X120470002Y-99830468D01*
X120526673Y-99825509D01*
X120696692Y-99810635D01*
X120916496Y-99751739D01*
X121122734Y-99655568D01*
X121309139Y-99525047D01*
X121470047Y-99364139D01*
X121600568Y-99177734D01*
X121696739Y-98971496D01*
X121755635Y-98751692D01*
X121775468Y-98525000D01*
X121755635Y-98298308D01*
X121696739Y-98078504D01*
X121600568Y-97872266D01*
X121487051Y-97710145D01*
X121470045Y-97685858D01*
X121309141Y-97524954D01*
X121122734Y-97394432D01*
X121122732Y-97394431D01*
X120916497Y-97298261D01*
X120916488Y-97298258D01*
X120696697Y-97239366D01*
X120696693Y-97239365D01*
X120696692Y-97239365D01*
X120696691Y-97239364D01*
X120696686Y-97239364D01*
X120470002Y-97219532D01*
X120469998Y-97219532D01*
X120243313Y-97239364D01*
X120243302Y-97239366D01*
X120023511Y-97298258D01*
X120023502Y-97298261D01*
X119817267Y-97394431D01*
X119817265Y-97394432D01*
X119630858Y-97524954D01*
X119469954Y-97685858D01*
X119339432Y-97872265D01*
X119339431Y-97872267D01*
X119243261Y-98078502D01*
X119243258Y-98078511D01*
X119184366Y-98298302D01*
X119184364Y-98298313D01*
X119164532Y-98524998D01*
X116500500Y-98524998D01*
X116500500Y-83824994D01*
X116819357Y-83824994D01*
X116819357Y-83825005D01*
X116839890Y-84072812D01*
X116839892Y-84072824D01*
X116900936Y-84313881D01*
X117000826Y-84541606D01*
X117136833Y-84749782D01*
X117136836Y-84749785D01*
X117305256Y-84932738D01*
X117501491Y-85085474D01*
X117501493Y-85085475D01*
X117706787Y-85196575D01*
X117720190Y-85203828D01*
X117955386Y-85284571D01*
X118200665Y-85325500D01*
X118449335Y-85325500D01*
X118694614Y-85284571D01*
X118929810Y-85203828D01*
X119148509Y-85085474D01*
X119344744Y-84932738D01*
X119457596Y-84810147D01*
X119517481Y-84774159D01*
X119587319Y-84776259D01*
X119636505Y-84806451D01*
X123195325Y-88365272D01*
X123195328Y-88365275D01*
X123195331Y-88365277D01*
X123246549Y-88399499D01*
X123301873Y-88436465D01*
X123345832Y-88454673D01*
X123383523Y-88470286D01*
X123437926Y-88514127D01*
X123448449Y-88532435D01*
X123450964Y-88537829D01*
X123450967Y-88537834D01*
X123586501Y-88731395D01*
X123586506Y-88731402D01*
X123708430Y-88853326D01*
X123741915Y-88914649D01*
X123736931Y-88984341D01*
X123695059Y-89040274D01*
X123664083Y-89057189D01*
X123532669Y-89106203D01*
X123532664Y-89106206D01*
X123417455Y-89192452D01*
X123417452Y-89192455D01*
X123331206Y-89307664D01*
X123331202Y-89307671D01*
X123280908Y-89442517D01*
X123274501Y-89502116D01*
X123274500Y-89502135D01*
X123274500Y-91297870D01*
X123274501Y-91297876D01*
X123280908Y-91357483D01*
X123331202Y-91492328D01*
X123331206Y-91492335D01*
X123417452Y-91607544D01*
X123417455Y-91607547D01*
X123532664Y-91693793D01*
X123532671Y-91693797D01*
X123667513Y-91744090D01*
X123667514Y-91744090D01*
X123667517Y-91744091D01*
X123674782Y-91744872D01*
X123739332Y-91771607D01*
X123779182Y-91828998D01*
X123781678Y-91898823D01*
X123749210Y-91955842D01*
X123344725Y-92360328D01*
X123344724Y-92360329D01*
X123287817Y-92445499D01*
X123287815Y-92445502D01*
X123273536Y-92466870D01*
X123273533Y-92466875D01*
X123224499Y-92585255D01*
X123224497Y-92585261D01*
X123199500Y-92710928D01*
X123199500Y-103189070D01*
X123213285Y-103258367D01*
X123213285Y-103258369D01*
X123218753Y-103285861D01*
X123224499Y-103314744D01*
X123273535Y-103433127D01*
X123299687Y-103472267D01*
X123344726Y-103539673D01*
X127535325Y-107730272D01*
X127535331Y-107730277D01*
X127641874Y-107801466D01*
X127711221Y-107830189D01*
X127760256Y-107850501D01*
X127760259Y-107850501D01*
X127760260Y-107850502D01*
X127885928Y-107875500D01*
X127885931Y-107875500D01*
X128014069Y-107875500D01*
X129433317Y-107875500D01*
X129500356Y-107895185D01*
X129534892Y-107928377D01*
X129629954Y-108064141D01*
X129790858Y-108225045D01*
X129790861Y-108225047D01*
X129977266Y-108355568D01*
X130183504Y-108451739D01*
X130403308Y-108510635D01*
X130565230Y-108524801D01*
X130629998Y-108530468D01*
X130630000Y-108530468D01*
X130630002Y-108530468D01*
X130686673Y-108525509D01*
X130856692Y-108510635D01*
X131076496Y-108451739D01*
X131282734Y-108355568D01*
X131469139Y-108225047D01*
X131630047Y-108064139D01*
X131760568Y-107877734D01*
X131856739Y-107671496D01*
X131915635Y-107451692D01*
X131935468Y-107225000D01*
X131915635Y-106998308D01*
X131856739Y-106778504D01*
X131760568Y-106572266D01*
X131630047Y-106385861D01*
X131630045Y-106385858D01*
X131469141Y-106224954D01*
X131282734Y-106094432D01*
X131282732Y-106094431D01*
X131076497Y-105998261D01*
X131076488Y-105998258D01*
X130856697Y-105939366D01*
X130856693Y-105939365D01*
X130856692Y-105939365D01*
X130856691Y-105939364D01*
X130856686Y-105939364D01*
X130630002Y-105919532D01*
X130629998Y-105919532D01*
X130403313Y-105939364D01*
X130403302Y-105939366D01*
X130183511Y-105998258D01*
X130183502Y-105998261D01*
X129977267Y-106094431D01*
X129977265Y-106094432D01*
X129790858Y-106224954D01*
X129629954Y-106385858D01*
X129534892Y-106521623D01*
X129480315Y-106565248D01*
X129433317Y-106574500D01*
X128270808Y-106574500D01*
X128203769Y-106554815D01*
X128183127Y-106538181D01*
X124536819Y-102891873D01*
X124503334Y-102830550D01*
X124500500Y-102804192D01*
X124500500Y-102314049D01*
X124520185Y-102247010D01*
X124572989Y-102201255D01*
X124642147Y-102191311D01*
X124705703Y-102220336D01*
X124712181Y-102226368D01*
X124810858Y-102325045D01*
X124810861Y-102325047D01*
X124997266Y-102455568D01*
X125203504Y-102551739D01*
X125423308Y-102610635D01*
X125585230Y-102624801D01*
X125649998Y-102630468D01*
X125650000Y-102630468D01*
X125650002Y-102630468D01*
X125706673Y-102625509D01*
X125876692Y-102610635D01*
X126096496Y-102551739D01*
X126302734Y-102455568D01*
X126489139Y-102325047D01*
X126650047Y-102164139D01*
X126780568Y-101977734D01*
X126876739Y-101771496D01*
X126935635Y-101551692D01*
X126955468Y-101325000D01*
X126935635Y-101098308D01*
X126876739Y-100878504D01*
X126780568Y-100672266D01*
X126650047Y-100485861D01*
X126650045Y-100485858D01*
X126489141Y-100324954D01*
X126302734Y-100194432D01*
X126302732Y-100194431D01*
X126096497Y-100098261D01*
X126096488Y-100098258D01*
X125876697Y-100039366D01*
X125876693Y-100039365D01*
X125876692Y-100039365D01*
X125876691Y-100039364D01*
X125876686Y-100039364D01*
X125650002Y-100019532D01*
X125649998Y-100019532D01*
X125423313Y-100039364D01*
X125423302Y-100039366D01*
X125203511Y-100098258D01*
X125203502Y-100098261D01*
X124997267Y-100194431D01*
X124997265Y-100194432D01*
X124810858Y-100324954D01*
X124712181Y-100423632D01*
X124650858Y-100457117D01*
X124581166Y-100452133D01*
X124525233Y-100410261D01*
X124500816Y-100344797D01*
X124500500Y-100335951D01*
X124500500Y-98524998D01*
X129324532Y-98524998D01*
X129324532Y-98525001D01*
X129344364Y-98751686D01*
X129344366Y-98751697D01*
X129403258Y-98971488D01*
X129403261Y-98971497D01*
X129499431Y-99177732D01*
X129499432Y-99177734D01*
X129629954Y-99364141D01*
X129790858Y-99525045D01*
X129790861Y-99525047D01*
X129977266Y-99655568D01*
X130183504Y-99751739D01*
X130393118Y-99807904D01*
X130452778Y-99844269D01*
X130483307Y-99907116D01*
X130475012Y-99976491D01*
X130430527Y-100030369D01*
X130393118Y-100047454D01*
X130203508Y-100098259D01*
X130203502Y-100098261D01*
X129997267Y-100194431D01*
X129997265Y-100194432D01*
X129810858Y-100324954D01*
X129649954Y-100485858D01*
X129519432Y-100672265D01*
X129519431Y-100672267D01*
X129423261Y-100878502D01*
X129423258Y-100878511D01*
X129364366Y-101098302D01*
X129364364Y-101098313D01*
X129344532Y-101324998D01*
X129344532Y-101325001D01*
X129364364Y-101551686D01*
X129364366Y-101551697D01*
X129423258Y-101771488D01*
X129423261Y-101771497D01*
X129519431Y-101977732D01*
X129519432Y-101977734D01*
X129649954Y-102164141D01*
X129810858Y-102325045D01*
X129810861Y-102325047D01*
X129997266Y-102455568D01*
X130203504Y-102551739D01*
X130203509Y-102551740D01*
X130203511Y-102551741D01*
X130403117Y-102605225D01*
X130462778Y-102641590D01*
X130493307Y-102704437D01*
X130485012Y-102773812D01*
X130440527Y-102827690D01*
X130403117Y-102844775D01*
X130203511Y-102898258D01*
X130203502Y-102898261D01*
X129997267Y-102994431D01*
X129997265Y-102994432D01*
X129810858Y-103124954D01*
X129649954Y-103285858D01*
X129519432Y-103472265D01*
X129519431Y-103472267D01*
X129423261Y-103678502D01*
X129423258Y-103678511D01*
X129364366Y-103898302D01*
X129364364Y-103898313D01*
X129344532Y-104124998D01*
X129344532Y-104125001D01*
X129364364Y-104351686D01*
X129364366Y-104351697D01*
X129423258Y-104571488D01*
X129423261Y-104571497D01*
X129519431Y-104777732D01*
X129519432Y-104777734D01*
X129649954Y-104964141D01*
X129810858Y-105125045D01*
X129810861Y-105125047D01*
X129997266Y-105255568D01*
X130203504Y-105351739D01*
X130423308Y-105410635D01*
X130585230Y-105424801D01*
X130649998Y-105430468D01*
X130650000Y-105430468D01*
X130650002Y-105430468D01*
X130706673Y-105425509D01*
X130876692Y-105410635D01*
X131096496Y-105351739D01*
X131302734Y-105255568D01*
X131489139Y-105125047D01*
X131650047Y-104964139D01*
X131780568Y-104777734D01*
X131876739Y-104571496D01*
X131935635Y-104351692D01*
X131955468Y-104125000D01*
X131935635Y-103898308D01*
X131876739Y-103678504D01*
X131780568Y-103472266D01*
X131650047Y-103285861D01*
X131650045Y-103285858D01*
X131489141Y-103124954D01*
X131302734Y-102994432D01*
X131302732Y-102994431D01*
X131096497Y-102898261D01*
X131096488Y-102898258D01*
X130896882Y-102844775D01*
X130837221Y-102808410D01*
X130806692Y-102745563D01*
X130814987Y-102676188D01*
X130859472Y-102622310D01*
X130896882Y-102605225D01*
X131096496Y-102551739D01*
X131302734Y-102455568D01*
X131489139Y-102325047D01*
X131650047Y-102164139D01*
X131780568Y-101977734D01*
X131876739Y-101771496D01*
X131935635Y-101551692D01*
X131955468Y-101325000D01*
X131935635Y-101098308D01*
X131876739Y-100878504D01*
X131780568Y-100672266D01*
X131650047Y-100485861D01*
X131650045Y-100485858D01*
X131489141Y-100324954D01*
X131302734Y-100194432D01*
X131302732Y-100194431D01*
X131096497Y-100098261D01*
X131096488Y-100098258D01*
X130886882Y-100042095D01*
X130827221Y-100005730D01*
X130796692Y-99942883D01*
X130804987Y-99873508D01*
X130849472Y-99819630D01*
X130886878Y-99802546D01*
X131076496Y-99751739D01*
X131282734Y-99655568D01*
X131469139Y-99525047D01*
X131630047Y-99364139D01*
X131760568Y-99177734D01*
X131856739Y-98971496D01*
X131915635Y-98751692D01*
X131935468Y-98525000D01*
X131915635Y-98298308D01*
X131856739Y-98078504D01*
X131760568Y-97872266D01*
X131647051Y-97710145D01*
X131630045Y-97685858D01*
X131469141Y-97524954D01*
X131282734Y-97394432D01*
X131282732Y-97394431D01*
X131076497Y-97298261D01*
X131076488Y-97298258D01*
X130886882Y-97247454D01*
X130827221Y-97211089D01*
X130796692Y-97148242D01*
X130804987Y-97078867D01*
X130849472Y-97024989D01*
X130886878Y-97007905D01*
X131096496Y-96951739D01*
X131302734Y-96855568D01*
X131489139Y-96725047D01*
X131650047Y-96564139D01*
X131780568Y-96377734D01*
X131876739Y-96171496D01*
X131935635Y-95951692D01*
X131955468Y-95725000D01*
X131935635Y-95498308D01*
X131876739Y-95278504D01*
X131780568Y-95072266D01*
X131650047Y-94885861D01*
X131650045Y-94885858D01*
X131489141Y-94724954D01*
X131302734Y-94594432D01*
X131302732Y-94594431D01*
X131096497Y-94498261D01*
X131096488Y-94498258D01*
X130876697Y-94439366D01*
X130876693Y-94439365D01*
X130876692Y-94439365D01*
X130876691Y-94439364D01*
X130876686Y-94439364D01*
X130650002Y-94419532D01*
X130649998Y-94419532D01*
X130423313Y-94439364D01*
X130423302Y-94439366D01*
X130203511Y-94498258D01*
X130203502Y-94498261D01*
X129997267Y-94594431D01*
X129997265Y-94594432D01*
X129810858Y-94724954D01*
X129649954Y-94885858D01*
X129519432Y-95072265D01*
X129519431Y-95072267D01*
X129423261Y-95278502D01*
X129423258Y-95278511D01*
X129364366Y-95498302D01*
X129364364Y-95498313D01*
X129344532Y-95724998D01*
X129344532Y-95725001D01*
X129364364Y-95951686D01*
X129364366Y-95951697D01*
X129423258Y-96171488D01*
X129423261Y-96171497D01*
X129519431Y-96377732D01*
X129519432Y-96377734D01*
X129649954Y-96564141D01*
X129810858Y-96725045D01*
X129810861Y-96725047D01*
X129997266Y-96855568D01*
X130203504Y-96951739D01*
X130393118Y-97002545D01*
X130452778Y-97038910D01*
X130483307Y-97101756D01*
X130475013Y-97171132D01*
X130430527Y-97225010D01*
X130393118Y-97242095D01*
X130183508Y-97298259D01*
X130183502Y-97298261D01*
X129977267Y-97394431D01*
X129977265Y-97394432D01*
X129790858Y-97524954D01*
X129629954Y-97685858D01*
X129499432Y-97872265D01*
X129499431Y-97872267D01*
X129403261Y-98078502D01*
X129403258Y-98078511D01*
X129344366Y-98298302D01*
X129344364Y-98298313D01*
X129324532Y-98524998D01*
X124500500Y-98524998D01*
X124500500Y-96714049D01*
X124520185Y-96647010D01*
X124572989Y-96601255D01*
X124642147Y-96591311D01*
X124705703Y-96620336D01*
X124712181Y-96626368D01*
X124810858Y-96725045D01*
X124810861Y-96725047D01*
X124997266Y-96855568D01*
X125203504Y-96951739D01*
X125423308Y-97010635D01*
X125585230Y-97024801D01*
X125649998Y-97030468D01*
X125650000Y-97030468D01*
X125650002Y-97030468D01*
X125712625Y-97024989D01*
X125876692Y-97010635D01*
X126096496Y-96951739D01*
X126302734Y-96855568D01*
X126489139Y-96725047D01*
X126650047Y-96564139D01*
X126748409Y-96423661D01*
X126802985Y-96380037D01*
X126825793Y-96373168D01*
X126844045Y-96369537D01*
X126939744Y-96350501D01*
X127058127Y-96301465D01*
X127075896Y-96289592D01*
X127164669Y-96230277D01*
X131855276Y-91539670D01*
X131918532Y-91445000D01*
X131926464Y-91433129D01*
X131926465Y-91433127D01*
X131975501Y-91314744D01*
X131989943Y-91242139D01*
X132000500Y-91189069D01*
X132000500Y-88957949D01*
X132016718Y-88902714D01*
X132002931Y-88876482D01*
X132000500Y-88852050D01*
X132000500Y-86417949D01*
X132016718Y-86362714D01*
X132002931Y-86336482D01*
X132000500Y-86312050D01*
X132000500Y-83877949D01*
X132016148Y-83824654D01*
X132231678Y-83824654D01*
X132243477Y-83843014D01*
X132248028Y-83867141D01*
X132264936Y-84060403D01*
X132264938Y-84060413D01*
X132326094Y-84288655D01*
X132326096Y-84288659D01*
X132326097Y-84288663D01*
X132353070Y-84346506D01*
X132425965Y-84502830D01*
X132425967Y-84502834D01*
X132561501Y-84696395D01*
X132561506Y-84696402D01*
X132728597Y-84863493D01*
X132728603Y-84863498D01*
X132914158Y-84993425D01*
X132957783Y-85048002D01*
X132964977Y-85117500D01*
X132933454Y-85179855D01*
X132914158Y-85196575D01*
X132728597Y-85326505D01*
X132561505Y-85493597D01*
X132425965Y-85687169D01*
X132425964Y-85687171D01*
X132326098Y-85901335D01*
X132326094Y-85901344D01*
X132264938Y-86129586D01*
X132264936Y-86129596D01*
X132248028Y-86322858D01*
X132231678Y-86364654D01*
X132243477Y-86383014D01*
X132248028Y-86407141D01*
X132264936Y-86600403D01*
X132264938Y-86600413D01*
X132326094Y-86828655D01*
X132326096Y-86828659D01*
X132326097Y-86828663D01*
X132353070Y-86886506D01*
X132425965Y-87042830D01*
X132425967Y-87042834D01*
X132561501Y-87236395D01*
X132561506Y-87236402D01*
X132728597Y-87403493D01*
X132728603Y-87403498D01*
X132914158Y-87533425D01*
X132957783Y-87588002D01*
X132964977Y-87657500D01*
X132933454Y-87719855D01*
X132914158Y-87736575D01*
X132728597Y-87866505D01*
X132561505Y-88033597D01*
X132425965Y-88227169D01*
X132425964Y-88227171D01*
X132326098Y-88441335D01*
X132326094Y-88441344D01*
X132264938Y-88669586D01*
X132264936Y-88669596D01*
X132248028Y-88862858D01*
X132231678Y-88904654D01*
X132243477Y-88923014D01*
X132248028Y-88947141D01*
X132264936Y-89140403D01*
X132264938Y-89140413D01*
X132326094Y-89368655D01*
X132326096Y-89368659D01*
X132326097Y-89368663D01*
X132388336Y-89502135D01*
X132425965Y-89582830D01*
X132425967Y-89582834D01*
X132561501Y-89776395D01*
X132561506Y-89776402D01*
X132728597Y-89943493D01*
X132728603Y-89943498D01*
X132914158Y-90073425D01*
X132957783Y-90128002D01*
X132964977Y-90197500D01*
X132933454Y-90259855D01*
X132914158Y-90276575D01*
X132728597Y-90406505D01*
X132561505Y-90573597D01*
X132425965Y-90767169D01*
X132425964Y-90767171D01*
X132326098Y-90981335D01*
X132326094Y-90981344D01*
X132264938Y-91209586D01*
X132264936Y-91209596D01*
X132244341Y-91444999D01*
X132244341Y-91445000D01*
X132264936Y-91680403D01*
X132264938Y-91680413D01*
X132326094Y-91908655D01*
X132326096Y-91908659D01*
X132326097Y-91908663D01*
X132364966Y-91992017D01*
X132425965Y-92122830D01*
X132425967Y-92122834D01*
X132534281Y-92277521D01*
X132555709Y-92308124D01*
X132561501Y-92316395D01*
X132561506Y-92316402D01*
X132728597Y-92483493D01*
X132728603Y-92483498D01*
X132914158Y-92613425D01*
X132957783Y-92668002D01*
X132964977Y-92737500D01*
X132933454Y-92799855D01*
X132914158Y-92816575D01*
X132728597Y-92946505D01*
X132561505Y-93113597D01*
X132425965Y-93307169D01*
X132425964Y-93307171D01*
X132326098Y-93521335D01*
X132326094Y-93521344D01*
X132264938Y-93749586D01*
X132264936Y-93749596D01*
X132244341Y-93984999D01*
X132244341Y-93985000D01*
X132264936Y-94220403D01*
X132264938Y-94220413D01*
X132326094Y-94448655D01*
X132326096Y-94448659D01*
X132326097Y-94448663D01*
X132425965Y-94662830D01*
X132425967Y-94662834D01*
X132561501Y-94856395D01*
X132561506Y-94856402D01*
X132728597Y-95023493D01*
X132728603Y-95023498D01*
X132914158Y-95153425D01*
X132957783Y-95208002D01*
X132964977Y-95277500D01*
X132933454Y-95339855D01*
X132914158Y-95356575D01*
X132728597Y-95486505D01*
X132561505Y-95653597D01*
X132425965Y-95847169D01*
X132425964Y-95847171D01*
X132326098Y-96061335D01*
X132326094Y-96061344D01*
X132264938Y-96289586D01*
X132264936Y-96289596D01*
X132244341Y-96524999D01*
X132244341Y-96525000D01*
X132264936Y-96760403D01*
X132264938Y-96760413D01*
X132326094Y-96988655D01*
X132326096Y-96988659D01*
X132326097Y-96988663D01*
X132400510Y-97148242D01*
X132425965Y-97202830D01*
X132425967Y-97202834D01*
X132561501Y-97396395D01*
X132561506Y-97396402D01*
X132728597Y-97563493D01*
X132728603Y-97563498D01*
X132914158Y-97693425D01*
X132957783Y-97748002D01*
X132964977Y-97817500D01*
X132933454Y-97879855D01*
X132914158Y-97896575D01*
X132728597Y-98026505D01*
X132561505Y-98193597D01*
X132425965Y-98387169D01*
X132425964Y-98387171D01*
X132326098Y-98601335D01*
X132326094Y-98601344D01*
X132264938Y-98829586D01*
X132264936Y-98829596D01*
X132244341Y-99064999D01*
X132244341Y-99065000D01*
X132264936Y-99300403D01*
X132264938Y-99300413D01*
X132326094Y-99528655D01*
X132326096Y-99528659D01*
X132326097Y-99528663D01*
X132385274Y-99655568D01*
X132425965Y-99742830D01*
X132425967Y-99742834D01*
X132561501Y-99936395D01*
X132561506Y-99936402D01*
X132728597Y-100103493D01*
X132728603Y-100103498D01*
X132914158Y-100233425D01*
X132957783Y-100288002D01*
X132964977Y-100357500D01*
X132933454Y-100419855D01*
X132914158Y-100436575D01*
X132728597Y-100566505D01*
X132561505Y-100733597D01*
X132425965Y-100927169D01*
X132425964Y-100927171D01*
X132326098Y-101141335D01*
X132326094Y-101141344D01*
X132264938Y-101369586D01*
X132264936Y-101369596D01*
X132244341Y-101604999D01*
X132244341Y-101605000D01*
X132264936Y-101840403D01*
X132264938Y-101840413D01*
X132326094Y-102068655D01*
X132326096Y-102068659D01*
X132326097Y-102068663D01*
X132399636Y-102226368D01*
X132425965Y-102282830D01*
X132425967Y-102282834D01*
X132561501Y-102476395D01*
X132561506Y-102476402D01*
X132728597Y-102643493D01*
X132728603Y-102643498D01*
X132914158Y-102773425D01*
X132957783Y-102828002D01*
X132964977Y-102897500D01*
X132933454Y-102959855D01*
X132914158Y-102976575D01*
X132728597Y-103106505D01*
X132561505Y-103273597D01*
X132425965Y-103467169D01*
X132425964Y-103467171D01*
X132326098Y-103681335D01*
X132326094Y-103681344D01*
X132264938Y-103909586D01*
X132264936Y-103909596D01*
X132244341Y-104144999D01*
X132244341Y-104145000D01*
X132264936Y-104380403D01*
X132264938Y-104380413D01*
X132326094Y-104608655D01*
X132326096Y-104608659D01*
X132326097Y-104608663D01*
X132404936Y-104777734D01*
X132425965Y-104822830D01*
X132425967Y-104822834D01*
X132561501Y-105016395D01*
X132561506Y-105016402D01*
X132728597Y-105183493D01*
X132728603Y-105183498D01*
X132914158Y-105313425D01*
X132957783Y-105368002D01*
X132964977Y-105437500D01*
X132933454Y-105499855D01*
X132914158Y-105516575D01*
X132728597Y-105646505D01*
X132561505Y-105813597D01*
X132425965Y-106007169D01*
X132425964Y-106007171D01*
X132326098Y-106221335D01*
X132326094Y-106221344D01*
X132264938Y-106449586D01*
X132264936Y-106449596D01*
X132244341Y-106684999D01*
X132244341Y-106685000D01*
X132264936Y-106920403D01*
X132264938Y-106920413D01*
X132326094Y-107148655D01*
X132326096Y-107148659D01*
X132326097Y-107148663D01*
X132361693Y-107224998D01*
X132425965Y-107362830D01*
X132425967Y-107362834D01*
X132561501Y-107556395D01*
X132561506Y-107556402D01*
X132728597Y-107723493D01*
X132728603Y-107723498D01*
X132914158Y-107853425D01*
X132957783Y-107908002D01*
X132964977Y-107977500D01*
X132933454Y-108039855D01*
X132914158Y-108056575D01*
X132728597Y-108186505D01*
X132561505Y-108353597D01*
X132425965Y-108547169D01*
X132425964Y-108547171D01*
X132326098Y-108761335D01*
X132326094Y-108761344D01*
X132264938Y-108989586D01*
X132264936Y-108989596D01*
X132244341Y-109224999D01*
X132244341Y-109225000D01*
X132264936Y-109460403D01*
X132264938Y-109460413D01*
X132326094Y-109688655D01*
X132326096Y-109688659D01*
X132326097Y-109688663D01*
X132425965Y-109902830D01*
X132425967Y-109902834D01*
X132561501Y-110096395D01*
X132561506Y-110096402D01*
X132728597Y-110263493D01*
X132728603Y-110263498D01*
X132914158Y-110393425D01*
X132957783Y-110448002D01*
X132964977Y-110517500D01*
X132933454Y-110579855D01*
X132914158Y-110596575D01*
X132728597Y-110726505D01*
X132561505Y-110893597D01*
X132425965Y-111087169D01*
X132425964Y-111087171D01*
X132326098Y-111301335D01*
X132326094Y-111301344D01*
X132264938Y-111529586D01*
X132264936Y-111529596D01*
X132244341Y-111764999D01*
X132244341Y-111765000D01*
X132264936Y-112000403D01*
X132264938Y-112000413D01*
X132326094Y-112228655D01*
X132326096Y-112228659D01*
X132326097Y-112228663D01*
X132385274Y-112355568D01*
X132425965Y-112442830D01*
X132425967Y-112442834D01*
X132561501Y-112636395D01*
X132561506Y-112636402D01*
X132728597Y-112803493D01*
X132728603Y-112803498D01*
X132914158Y-112933425D01*
X132957783Y-112988002D01*
X132964977Y-113057500D01*
X132933454Y-113119855D01*
X132914158Y-113136575D01*
X132728597Y-113266505D01*
X132561505Y-113433597D01*
X132425965Y-113627169D01*
X132425964Y-113627171D01*
X132326098Y-113841335D01*
X132326094Y-113841344D01*
X132264938Y-114069586D01*
X132264936Y-114069596D01*
X132244341Y-114304999D01*
X132244341Y-114305000D01*
X132264936Y-114540403D01*
X132264938Y-114540413D01*
X132326094Y-114768655D01*
X132326096Y-114768659D01*
X132326097Y-114768663D01*
X132425965Y-114982830D01*
X132425967Y-114982834D01*
X132561501Y-115176395D01*
X132561506Y-115176402D01*
X132728597Y-115343493D01*
X132728603Y-115343498D01*
X132914158Y-115473425D01*
X132957783Y-115528002D01*
X132964977Y-115597500D01*
X132933454Y-115659855D01*
X132914158Y-115676575D01*
X132728597Y-115806505D01*
X132561505Y-115973597D01*
X132425965Y-116167169D01*
X132425964Y-116167171D01*
X132326098Y-116381335D01*
X132326094Y-116381344D01*
X132264938Y-116609586D01*
X132264936Y-116609596D01*
X132244341Y-116844999D01*
X132244341Y-116845000D01*
X132264936Y-117080403D01*
X132264938Y-117080413D01*
X132326094Y-117308655D01*
X132326096Y-117308659D01*
X132326097Y-117308663D01*
X132404936Y-117477734D01*
X132425965Y-117522830D01*
X132425967Y-117522834D01*
X132561501Y-117716395D01*
X132561506Y-117716402D01*
X132728597Y-117883493D01*
X132728603Y-117883498D01*
X132914158Y-118013425D01*
X132957783Y-118068002D01*
X132964977Y-118137500D01*
X132933454Y-118199855D01*
X132914158Y-118216575D01*
X132728597Y-118346505D01*
X132561505Y-118513597D01*
X132425965Y-118707169D01*
X132425964Y-118707171D01*
X132326098Y-118921335D01*
X132326094Y-118921344D01*
X132264938Y-119149586D01*
X132264936Y-119149596D01*
X132244341Y-119384999D01*
X132244341Y-119385000D01*
X132264936Y-119620403D01*
X132264938Y-119620413D01*
X132326094Y-119848655D01*
X132326096Y-119848659D01*
X132326097Y-119848663D01*
X132386165Y-119977478D01*
X132425965Y-120062830D01*
X132425967Y-120062834D01*
X132561501Y-120256395D01*
X132561506Y-120256402D01*
X132728597Y-120423493D01*
X132728603Y-120423498D01*
X132774404Y-120455568D01*
X132911750Y-120551739D01*
X132914594Y-120553730D01*
X132958219Y-120608307D01*
X132965413Y-120677805D01*
X132933890Y-120740160D01*
X132914595Y-120756880D01*
X132728922Y-120886890D01*
X132728920Y-120886891D01*
X132561891Y-121053920D01*
X132561886Y-121053926D01*
X132426400Y-121247420D01*
X132426399Y-121247422D01*
X132326570Y-121461507D01*
X132326567Y-121461513D01*
X132269364Y-121674999D01*
X132269364Y-121675000D01*
X133166988Y-121675000D01*
X133134075Y-121732007D01*
X133100000Y-121859174D01*
X133100000Y-121990826D01*
X133134075Y-122117993D01*
X133166988Y-122175000D01*
X132269364Y-122175000D01*
X132326567Y-122388486D01*
X132326570Y-122388492D01*
X132426399Y-122602578D01*
X132561894Y-122796082D01*
X132728917Y-122963105D01*
X132922421Y-123098600D01*
X133136507Y-123198429D01*
X133136516Y-123198433D01*
X133350000Y-123255634D01*
X133350000Y-122358012D01*
X133407007Y-122390925D01*
X133534174Y-122425000D01*
X133665826Y-122425000D01*
X133792993Y-122390925D01*
X133850000Y-122358012D01*
X133850000Y-123255633D01*
X134063483Y-123198433D01*
X134063492Y-123198429D01*
X134277578Y-123098600D01*
X134471082Y-122963105D01*
X134638105Y-122796082D01*
X134773600Y-122602578D01*
X134873429Y-122388492D01*
X134873432Y-122388486D01*
X134930636Y-122175000D01*
X134033012Y-122175000D01*
X134065925Y-122117993D01*
X134100000Y-121990826D01*
X134100000Y-121859174D01*
X134065925Y-121732007D01*
X134033012Y-121675000D01*
X134930636Y-121675000D01*
X134930635Y-121674999D01*
X134873432Y-121461513D01*
X134873429Y-121461507D01*
X134773600Y-121247422D01*
X134773599Y-121247420D01*
X134638113Y-121053926D01*
X134638108Y-121053920D01*
X134471078Y-120886890D01*
X134285405Y-120756879D01*
X134241780Y-120702302D01*
X134234588Y-120632804D01*
X134266110Y-120570449D01*
X134285406Y-120553730D01*
X134288247Y-120551741D01*
X134471401Y-120423495D01*
X134638495Y-120256401D01*
X134774035Y-120062830D01*
X134873903Y-119848663D01*
X134935063Y-119620408D01*
X134955659Y-119385000D01*
X134935063Y-119149592D01*
X134882188Y-118952259D01*
X134873905Y-118921344D01*
X134873904Y-118921343D01*
X134873903Y-118921337D01*
X134774035Y-118707171D01*
X134749770Y-118672516D01*
X134638494Y-118513597D01*
X134471402Y-118346506D01*
X134471396Y-118346501D01*
X134285842Y-118216575D01*
X134242217Y-118161998D01*
X134235023Y-118092500D01*
X134266546Y-118030145D01*
X134285842Y-118013425D01*
X134368470Y-117955568D01*
X134471401Y-117883495D01*
X134638495Y-117716401D01*
X134774035Y-117522830D01*
X134873903Y-117308663D01*
X134935063Y-117080408D01*
X134955659Y-116845000D01*
X134935063Y-116609592D01*
X134873903Y-116381337D01*
X134774035Y-116167171D01*
X134638495Y-115973599D01*
X134638494Y-115973597D01*
X134471402Y-115806506D01*
X134471396Y-115806501D01*
X134285842Y-115676575D01*
X134242217Y-115621998D01*
X134235023Y-115552500D01*
X134266546Y-115490145D01*
X134285842Y-115473425D01*
X134384367Y-115404437D01*
X134471401Y-115343495D01*
X134638495Y-115176401D01*
X134774035Y-114982830D01*
X134873903Y-114768663D01*
X134935063Y-114540408D01*
X134955659Y-114305000D01*
X134935063Y-114069592D01*
X134873903Y-113841337D01*
X134774035Y-113627171D01*
X134739959Y-113578504D01*
X134638494Y-113433597D01*
X134471402Y-113266506D01*
X134471396Y-113266501D01*
X134285842Y-113136575D01*
X134242217Y-113081998D01*
X134235023Y-113012500D01*
X134266546Y-112950145D01*
X134285842Y-112933425D01*
X134308026Y-112917891D01*
X134471401Y-112803495D01*
X134638495Y-112636401D01*
X134774035Y-112442830D01*
X134873903Y-112228663D01*
X134935063Y-112000408D01*
X134955659Y-111765000D01*
X134935063Y-111529592D01*
X134873903Y-111301337D01*
X134774035Y-111087171D01*
X134711817Y-110998313D01*
X134638494Y-110893597D01*
X134471402Y-110726506D01*
X134471396Y-110726501D01*
X134285842Y-110596575D01*
X134242217Y-110541998D01*
X134235023Y-110472500D01*
X134266546Y-110410145D01*
X134285842Y-110393425D01*
X134308026Y-110377891D01*
X134471401Y-110263495D01*
X134638495Y-110096401D01*
X134774035Y-109902830D01*
X134873903Y-109688663D01*
X134935063Y-109460408D01*
X134955659Y-109225000D01*
X134935063Y-108989592D01*
X134873903Y-108761337D01*
X134774035Y-108547171D01*
X134762340Y-108530468D01*
X134638494Y-108353597D01*
X134471402Y-108186506D01*
X134471396Y-108186501D01*
X134285842Y-108056575D01*
X134242217Y-108001998D01*
X134235023Y-107932500D01*
X134266546Y-107870145D01*
X134285842Y-107853425D01*
X134360047Y-107801466D01*
X134471401Y-107723495D01*
X134638495Y-107556401D01*
X134774035Y-107362830D01*
X134873903Y-107148663D01*
X134935063Y-106920408D01*
X134955659Y-106685000D01*
X134935063Y-106449592D01*
X134873903Y-106221337D01*
X134774035Y-106007171D01*
X134768128Y-105998734D01*
X134638494Y-105813597D01*
X134471402Y-105646506D01*
X134471396Y-105646501D01*
X134285842Y-105516575D01*
X134242217Y-105461998D01*
X134235023Y-105392500D01*
X134266546Y-105330145D01*
X134285842Y-105313425D01*
X134368470Y-105255568D01*
X134471401Y-105183495D01*
X134638495Y-105016401D01*
X134774035Y-104822830D01*
X134873903Y-104608663D01*
X134935063Y-104380408D01*
X134955659Y-104145000D01*
X134935063Y-103909592D01*
X134873903Y-103681337D01*
X134774035Y-103467171D01*
X134750198Y-103433127D01*
X134638494Y-103273597D01*
X134471402Y-103106506D01*
X134471396Y-103106501D01*
X134285842Y-102976575D01*
X134242217Y-102921998D01*
X134235023Y-102852500D01*
X134266546Y-102790145D01*
X134285842Y-102773425D01*
X134384367Y-102704437D01*
X134471401Y-102643495D01*
X134638495Y-102476401D01*
X134774035Y-102282830D01*
X134873903Y-102068663D01*
X134935063Y-101840408D01*
X134955659Y-101605000D01*
X134935063Y-101369592D01*
X134873903Y-101141337D01*
X134774035Y-100927171D01*
X134739959Y-100878504D01*
X134638494Y-100733597D01*
X134471402Y-100566506D01*
X134471396Y-100566501D01*
X134285842Y-100436575D01*
X134242217Y-100381998D01*
X134235023Y-100312500D01*
X134266546Y-100250145D01*
X134285842Y-100233425D01*
X134308026Y-100217891D01*
X134471401Y-100103495D01*
X134638495Y-99936401D01*
X134774035Y-99742830D01*
X134873903Y-99528663D01*
X134935063Y-99300408D01*
X134955659Y-99065000D01*
X134935063Y-98829592D01*
X134873903Y-98601337D01*
X134774035Y-98387171D01*
X134711817Y-98298313D01*
X134638494Y-98193597D01*
X134471402Y-98026506D01*
X134471396Y-98026501D01*
X134285842Y-97896575D01*
X134242217Y-97841998D01*
X134235023Y-97772500D01*
X134266546Y-97710145D01*
X134285842Y-97693425D01*
X134308026Y-97677891D01*
X134471401Y-97563495D01*
X134638495Y-97396401D01*
X134774035Y-97202830D01*
X134873903Y-96988663D01*
X134935063Y-96760408D01*
X134955659Y-96525000D01*
X134935063Y-96289592D01*
X134873903Y-96061337D01*
X134774035Y-95847171D01*
X134688491Y-95725000D01*
X134638494Y-95653597D01*
X134471402Y-95486506D01*
X134471396Y-95486501D01*
X134285842Y-95356575D01*
X134242217Y-95301998D01*
X134235023Y-95232500D01*
X134266546Y-95170145D01*
X134285842Y-95153425D01*
X134308026Y-95137891D01*
X134471401Y-95023495D01*
X134638495Y-94856401D01*
X134774035Y-94662830D01*
X134873903Y-94448663D01*
X134935063Y-94220408D01*
X134955659Y-93985000D01*
X134935063Y-93749592D01*
X134873903Y-93521337D01*
X134774035Y-93307171D01*
X134638495Y-93113599D01*
X134638494Y-93113597D01*
X134471402Y-92946506D01*
X134471396Y-92946501D01*
X134285842Y-92816575D01*
X134242217Y-92761998D01*
X134235023Y-92692500D01*
X134266546Y-92630145D01*
X134285842Y-92613425D01*
X134326073Y-92585255D01*
X134471401Y-92483495D01*
X134638495Y-92316401D01*
X134774035Y-92122830D01*
X134873903Y-91908663D01*
X134935063Y-91680408D01*
X134955659Y-91445000D01*
X134935063Y-91209592D01*
X134873903Y-90981337D01*
X134774035Y-90767171D01*
X134727288Y-90700408D01*
X134638494Y-90573597D01*
X134471402Y-90406506D01*
X134471396Y-90406501D01*
X134285842Y-90276575D01*
X134242217Y-90221998D01*
X134235023Y-90152500D01*
X134266546Y-90090145D01*
X134285842Y-90073425D01*
X134388797Y-90001335D01*
X134471401Y-89943495D01*
X134638495Y-89776401D01*
X134774035Y-89582830D01*
X134873903Y-89368663D01*
X134935063Y-89140408D01*
X134955659Y-88905000D01*
X134935063Y-88669592D01*
X134873903Y-88441337D01*
X134774035Y-88227171D01*
X134773524Y-88226440D01*
X134638494Y-88033597D01*
X134471402Y-87866506D01*
X134471396Y-87866501D01*
X134285842Y-87736575D01*
X134242217Y-87681998D01*
X134235023Y-87612500D01*
X134266546Y-87550145D01*
X134285842Y-87533425D01*
X134388797Y-87461335D01*
X134471401Y-87403495D01*
X134638495Y-87236401D01*
X134774035Y-87042830D01*
X134873903Y-86828663D01*
X134935063Y-86600408D01*
X134955659Y-86365000D01*
X134935063Y-86129592D01*
X134873903Y-85901337D01*
X134774035Y-85687171D01*
X134727288Y-85620408D01*
X134638494Y-85493597D01*
X134471402Y-85326506D01*
X134471396Y-85326501D01*
X134285842Y-85196575D01*
X134242217Y-85141998D01*
X134235023Y-85072500D01*
X134266546Y-85010145D01*
X134285842Y-84993425D01*
X134388797Y-84921335D01*
X134471401Y-84863495D01*
X134638495Y-84696401D01*
X134774035Y-84502830D01*
X134873903Y-84288663D01*
X134935063Y-84060408D01*
X134955659Y-83825000D01*
X134955658Y-83824994D01*
X134946158Y-83716402D01*
X134935063Y-83589592D01*
X134873903Y-83361337D01*
X134774035Y-83147171D01*
X134757688Y-83123824D01*
X134638494Y-82953597D01*
X134471402Y-82786506D01*
X134471396Y-82786501D01*
X134285842Y-82656575D01*
X134242217Y-82601998D01*
X134235023Y-82532500D01*
X134266546Y-82470145D01*
X134285842Y-82453425D01*
X134411513Y-82365429D01*
X134471401Y-82323495D01*
X134638495Y-82156401D01*
X134774035Y-81962830D01*
X134873903Y-81748663D01*
X134935063Y-81520408D01*
X134955659Y-81285000D01*
X134955659Y-81284999D01*
X155044341Y-81284999D01*
X155044341Y-81285000D01*
X155064936Y-81520403D01*
X155064938Y-81520413D01*
X155126094Y-81748655D01*
X155126096Y-81748659D01*
X155126097Y-81748663D01*
X155225965Y-81962830D01*
X155225967Y-81962834D01*
X155361501Y-82156395D01*
X155361504Y-82156400D01*
X155528597Y-82323493D01*
X155528603Y-82323498D01*
X155714158Y-82453425D01*
X155757783Y-82508002D01*
X155764977Y-82577500D01*
X155733454Y-82639855D01*
X155714158Y-82656575D01*
X155528597Y-82786505D01*
X155361505Y-82953597D01*
X155225965Y-83147169D01*
X155225964Y-83147171D01*
X155126098Y-83361335D01*
X155126094Y-83361344D01*
X155064938Y-83589586D01*
X155064936Y-83589596D01*
X155044341Y-83824999D01*
X155044341Y-83825000D01*
X155064936Y-84060403D01*
X155064938Y-84060413D01*
X155126094Y-84288655D01*
X155126096Y-84288659D01*
X155126097Y-84288663D01*
X155153070Y-84346506D01*
X155225965Y-84502830D01*
X155225967Y-84502834D01*
X155361501Y-84696395D01*
X155361506Y-84696402D01*
X155528597Y-84863493D01*
X155528603Y-84863498D01*
X155714158Y-84993425D01*
X155757783Y-85048002D01*
X155764977Y-85117500D01*
X155733454Y-85179855D01*
X155714158Y-85196575D01*
X155528597Y-85326505D01*
X155361505Y-85493597D01*
X155225965Y-85687169D01*
X155225964Y-85687171D01*
X155126098Y-85901335D01*
X155126094Y-85901344D01*
X155064938Y-86129586D01*
X155064936Y-86129596D01*
X155044341Y-86364999D01*
X155044341Y-86365000D01*
X155064936Y-86600403D01*
X155064938Y-86600413D01*
X155126094Y-86828655D01*
X155126096Y-86828659D01*
X155126097Y-86828663D01*
X155153070Y-86886506D01*
X155225965Y-87042830D01*
X155225967Y-87042834D01*
X155361501Y-87236395D01*
X155361506Y-87236402D01*
X155528597Y-87403493D01*
X155528603Y-87403498D01*
X155714158Y-87533425D01*
X155757783Y-87588002D01*
X155764977Y-87657500D01*
X155733454Y-87719855D01*
X155714158Y-87736575D01*
X155528597Y-87866505D01*
X155361505Y-88033597D01*
X155225965Y-88227169D01*
X155225964Y-88227171D01*
X155126098Y-88441335D01*
X155126094Y-88441344D01*
X155064938Y-88669586D01*
X155064936Y-88669596D01*
X155044341Y-88904999D01*
X155044341Y-88905000D01*
X155064936Y-89140403D01*
X155064938Y-89140413D01*
X155126094Y-89368655D01*
X155126096Y-89368659D01*
X155126097Y-89368663D01*
X155188336Y-89502135D01*
X155225965Y-89582830D01*
X155225967Y-89582834D01*
X155361501Y-89776395D01*
X155361506Y-89776402D01*
X155528597Y-89943493D01*
X155528603Y-89943498D01*
X155714158Y-90073425D01*
X155757783Y-90128002D01*
X155764977Y-90197500D01*
X155733454Y-90259855D01*
X155714158Y-90276575D01*
X155528597Y-90406505D01*
X155361505Y-90573597D01*
X155225965Y-90767169D01*
X155225964Y-90767171D01*
X155126098Y-90981335D01*
X155126094Y-90981344D01*
X155064938Y-91209586D01*
X155064936Y-91209596D01*
X155044341Y-91444999D01*
X155044341Y-91445000D01*
X155064936Y-91680403D01*
X155064938Y-91680413D01*
X155126094Y-91908655D01*
X155126096Y-91908659D01*
X155126097Y-91908663D01*
X155164966Y-91992017D01*
X155225965Y-92122830D01*
X155225967Y-92122834D01*
X155334281Y-92277521D01*
X155355709Y-92308124D01*
X155361501Y-92316395D01*
X155361506Y-92316402D01*
X155528597Y-92483493D01*
X155528603Y-92483498D01*
X155714158Y-92613425D01*
X155757783Y-92668002D01*
X155764977Y-92737500D01*
X155733454Y-92799855D01*
X155714158Y-92816575D01*
X155528597Y-92946505D01*
X155361505Y-93113597D01*
X155225965Y-93307169D01*
X155225964Y-93307171D01*
X155126098Y-93521335D01*
X155126094Y-93521344D01*
X155064938Y-93749586D01*
X155064936Y-93749596D01*
X155044341Y-93984999D01*
X155044341Y-93985000D01*
X155064936Y-94220403D01*
X155064938Y-94220413D01*
X155126094Y-94448655D01*
X155126096Y-94448659D01*
X155126097Y-94448663D01*
X155225965Y-94662830D01*
X155225967Y-94662834D01*
X155361501Y-94856395D01*
X155361506Y-94856402D01*
X155528597Y-95023493D01*
X155528603Y-95023498D01*
X155714158Y-95153425D01*
X155757783Y-95208002D01*
X155764977Y-95277500D01*
X155733454Y-95339855D01*
X155714158Y-95356575D01*
X155528597Y-95486505D01*
X155361505Y-95653597D01*
X155225965Y-95847169D01*
X155225964Y-95847171D01*
X155126098Y-96061335D01*
X155126094Y-96061344D01*
X155064938Y-96289586D01*
X155064936Y-96289596D01*
X155044341Y-96524999D01*
X155044341Y-96525000D01*
X155064936Y-96760403D01*
X155064938Y-96760413D01*
X155126094Y-96988655D01*
X155126096Y-96988659D01*
X155126097Y-96988663D01*
X155200510Y-97148242D01*
X155225965Y-97202830D01*
X155225967Y-97202834D01*
X155361501Y-97396395D01*
X155361506Y-97396402D01*
X155528597Y-97563493D01*
X155528603Y-97563498D01*
X155714158Y-97693425D01*
X155757783Y-97748002D01*
X155764977Y-97817500D01*
X155733454Y-97879855D01*
X155714158Y-97896575D01*
X155528597Y-98026505D01*
X155361505Y-98193597D01*
X155225965Y-98387169D01*
X155225964Y-98387171D01*
X155126098Y-98601335D01*
X155126094Y-98601344D01*
X155064938Y-98829586D01*
X155064936Y-98829596D01*
X155044341Y-99064999D01*
X155044341Y-99065000D01*
X155064936Y-99300403D01*
X155064938Y-99300413D01*
X155126094Y-99528655D01*
X155126096Y-99528659D01*
X155126097Y-99528663D01*
X155185274Y-99655568D01*
X155225965Y-99742830D01*
X155225967Y-99742834D01*
X155361501Y-99936395D01*
X155361506Y-99936402D01*
X155528597Y-100103493D01*
X155528603Y-100103498D01*
X155714158Y-100233425D01*
X155757783Y-100288002D01*
X155764977Y-100357500D01*
X155733454Y-100419855D01*
X155714158Y-100436575D01*
X155528597Y-100566505D01*
X155361505Y-100733597D01*
X155225965Y-100927169D01*
X155225964Y-100927171D01*
X155126098Y-101141335D01*
X155126094Y-101141344D01*
X155064938Y-101369586D01*
X155064936Y-101369596D01*
X155044341Y-101604999D01*
X155044341Y-101605000D01*
X155064936Y-101840403D01*
X155064938Y-101840413D01*
X155126094Y-102068655D01*
X155126096Y-102068659D01*
X155126097Y-102068663D01*
X155199636Y-102226368D01*
X155225965Y-102282830D01*
X155225967Y-102282834D01*
X155361501Y-102476395D01*
X155361506Y-102476402D01*
X155528597Y-102643493D01*
X155528603Y-102643498D01*
X155714158Y-102773425D01*
X155757783Y-102828002D01*
X155764977Y-102897500D01*
X155733454Y-102959855D01*
X155714158Y-102976575D01*
X155528597Y-103106505D01*
X155361505Y-103273597D01*
X155225965Y-103467169D01*
X155225964Y-103467171D01*
X155126098Y-103681335D01*
X155126094Y-103681344D01*
X155064938Y-103909586D01*
X155064936Y-103909596D01*
X155044341Y-104144999D01*
X155044341Y-104145000D01*
X155064936Y-104380403D01*
X155064938Y-104380413D01*
X155126094Y-104608655D01*
X155126096Y-104608659D01*
X155126097Y-104608663D01*
X155204936Y-104777734D01*
X155225965Y-104822830D01*
X155225967Y-104822834D01*
X155361501Y-105016395D01*
X155361506Y-105016402D01*
X155528597Y-105183493D01*
X155528603Y-105183498D01*
X155714158Y-105313425D01*
X155757783Y-105368002D01*
X155764977Y-105437500D01*
X155733454Y-105499855D01*
X155714158Y-105516575D01*
X155528597Y-105646505D01*
X155361505Y-105813597D01*
X155225965Y-106007169D01*
X155225964Y-106007171D01*
X155126098Y-106221335D01*
X155126094Y-106221344D01*
X155064938Y-106449586D01*
X155064936Y-106449596D01*
X155044341Y-106684999D01*
X155044341Y-106685000D01*
X155064936Y-106920403D01*
X155064938Y-106920413D01*
X155126094Y-107148655D01*
X155126096Y-107148659D01*
X155126097Y-107148663D01*
X155161693Y-107224998D01*
X155225965Y-107362830D01*
X155225967Y-107362834D01*
X155361501Y-107556395D01*
X155361506Y-107556402D01*
X155528597Y-107723493D01*
X155528603Y-107723498D01*
X155714158Y-107853425D01*
X155757783Y-107908002D01*
X155764977Y-107977500D01*
X155733454Y-108039855D01*
X155714158Y-108056575D01*
X155528597Y-108186505D01*
X155361505Y-108353597D01*
X155225965Y-108547169D01*
X155225964Y-108547171D01*
X155126098Y-108761335D01*
X155126094Y-108761344D01*
X155064938Y-108989586D01*
X155064936Y-108989596D01*
X155044341Y-109224999D01*
X155044341Y-109225000D01*
X155064936Y-109460403D01*
X155064938Y-109460413D01*
X155126094Y-109688655D01*
X155126096Y-109688659D01*
X155126097Y-109688663D01*
X155225965Y-109902830D01*
X155225967Y-109902834D01*
X155361501Y-110096395D01*
X155361506Y-110096402D01*
X155528597Y-110263493D01*
X155528603Y-110263498D01*
X155714158Y-110393425D01*
X155757783Y-110448002D01*
X155764977Y-110517500D01*
X155733454Y-110579855D01*
X155714158Y-110596575D01*
X155528597Y-110726505D01*
X155361505Y-110893597D01*
X155225965Y-111087169D01*
X155225964Y-111087171D01*
X155126098Y-111301335D01*
X155126094Y-111301344D01*
X155064938Y-111529586D01*
X155064936Y-111529596D01*
X155044341Y-111764999D01*
X155044341Y-111765000D01*
X155064936Y-112000403D01*
X155064938Y-112000413D01*
X155126094Y-112228655D01*
X155126096Y-112228659D01*
X155126097Y-112228663D01*
X155185274Y-112355568D01*
X155225965Y-112442830D01*
X155225967Y-112442834D01*
X155361501Y-112636395D01*
X155361506Y-112636402D01*
X155528597Y-112803493D01*
X155528603Y-112803498D01*
X155714158Y-112933425D01*
X155757783Y-112988002D01*
X155764977Y-113057500D01*
X155733454Y-113119855D01*
X155714158Y-113136575D01*
X155528597Y-113266505D01*
X155361505Y-113433597D01*
X155225965Y-113627169D01*
X155225964Y-113627171D01*
X155126098Y-113841335D01*
X155126094Y-113841344D01*
X155064938Y-114069586D01*
X155064936Y-114069596D01*
X155044341Y-114304999D01*
X155044341Y-114305000D01*
X155064936Y-114540403D01*
X155064938Y-114540413D01*
X155126094Y-114768655D01*
X155126096Y-114768659D01*
X155126097Y-114768663D01*
X155225965Y-114982830D01*
X155225967Y-114982834D01*
X155361501Y-115176395D01*
X155361506Y-115176402D01*
X155528597Y-115343493D01*
X155528603Y-115343498D01*
X155714158Y-115473425D01*
X155757783Y-115528002D01*
X155764977Y-115597500D01*
X155733454Y-115659855D01*
X155714158Y-115676575D01*
X155528597Y-115806505D01*
X155361505Y-115973597D01*
X155225965Y-116167169D01*
X155225964Y-116167171D01*
X155126098Y-116381335D01*
X155126094Y-116381344D01*
X155064938Y-116609586D01*
X155064936Y-116609596D01*
X155044341Y-116844999D01*
X155044341Y-116845000D01*
X155064936Y-117080403D01*
X155064938Y-117080413D01*
X155126094Y-117308655D01*
X155126096Y-117308659D01*
X155126097Y-117308663D01*
X155204936Y-117477734D01*
X155225965Y-117522830D01*
X155225967Y-117522834D01*
X155361501Y-117716395D01*
X155361506Y-117716402D01*
X155528597Y-117883493D01*
X155528603Y-117883498D01*
X155714158Y-118013425D01*
X155757783Y-118068002D01*
X155764977Y-118137500D01*
X155733454Y-118199855D01*
X155714158Y-118216575D01*
X155528597Y-118346505D01*
X155361505Y-118513597D01*
X155225965Y-118707169D01*
X155225964Y-118707171D01*
X155126098Y-118921335D01*
X155126094Y-118921344D01*
X155064938Y-119149586D01*
X155064936Y-119149596D01*
X155044341Y-119384999D01*
X155044341Y-119385000D01*
X155064936Y-119620403D01*
X155064938Y-119620413D01*
X155126094Y-119848655D01*
X155126096Y-119848659D01*
X155126097Y-119848663D01*
X155186165Y-119977478D01*
X155225965Y-120062830D01*
X155225967Y-120062834D01*
X155361501Y-120256395D01*
X155361506Y-120256402D01*
X155528597Y-120423493D01*
X155528603Y-120423498D01*
X155714158Y-120553425D01*
X155757783Y-120608002D01*
X155764977Y-120677500D01*
X155733454Y-120739855D01*
X155714158Y-120756575D01*
X155528597Y-120886505D01*
X155361505Y-121053597D01*
X155225965Y-121247169D01*
X155225964Y-121247171D01*
X155126098Y-121461335D01*
X155126094Y-121461344D01*
X155064938Y-121689586D01*
X155064936Y-121689596D01*
X155044341Y-121924999D01*
X155044341Y-121925000D01*
X155064936Y-122160403D01*
X155064938Y-122160413D01*
X155126094Y-122388655D01*
X155126096Y-122388659D01*
X155126097Y-122388663D01*
X155180075Y-122504418D01*
X155225965Y-122602830D01*
X155225967Y-122602834D01*
X155309456Y-122722068D01*
X155361505Y-122796401D01*
X155528599Y-122963495D01*
X155625384Y-123031265D01*
X155722165Y-123099032D01*
X155722167Y-123099033D01*
X155722170Y-123099035D01*
X155936337Y-123198903D01*
X156164592Y-123260063D01*
X156352918Y-123276539D01*
X156399999Y-123280659D01*
X156400000Y-123280659D01*
X156400001Y-123280659D01*
X156439234Y-123277226D01*
X156635408Y-123260063D01*
X156863663Y-123198903D01*
X157077830Y-123099035D01*
X157271401Y-122963495D01*
X157438495Y-122796401D01*
X157574035Y-122602830D01*
X157673903Y-122388663D01*
X157735063Y-122160408D01*
X157755659Y-121925000D01*
X157735063Y-121689592D01*
X157673903Y-121461337D01*
X157574035Y-121247171D01*
X157438495Y-121053599D01*
X157438494Y-121053597D01*
X157271402Y-120886506D01*
X157271396Y-120886501D01*
X157085842Y-120756575D01*
X157042217Y-120701998D01*
X157035023Y-120632500D01*
X157066546Y-120570145D01*
X157085842Y-120553425D01*
X157225597Y-120455567D01*
X157271401Y-120423495D01*
X157438495Y-120256401D01*
X157574035Y-120062830D01*
X157673903Y-119848663D01*
X157735063Y-119620408D01*
X157755659Y-119385000D01*
X157735063Y-119149592D01*
X157682188Y-118952259D01*
X157673905Y-118921344D01*
X157673904Y-118921343D01*
X157673903Y-118921337D01*
X157574035Y-118707171D01*
X157549770Y-118672516D01*
X157438494Y-118513597D01*
X157271402Y-118346506D01*
X157271396Y-118346501D01*
X157085842Y-118216575D01*
X157042217Y-118161998D01*
X157035023Y-118092500D01*
X157066546Y-118030145D01*
X157085842Y-118013425D01*
X157168470Y-117955568D01*
X157271401Y-117883495D01*
X157438495Y-117716401D01*
X157574035Y-117522830D01*
X157673903Y-117308663D01*
X157735063Y-117080408D01*
X157755659Y-116845000D01*
X157735063Y-116609592D01*
X157673903Y-116381337D01*
X157574035Y-116167171D01*
X157438495Y-115973599D01*
X157438494Y-115973597D01*
X157271402Y-115806506D01*
X157271396Y-115806501D01*
X157085842Y-115676575D01*
X157042217Y-115621998D01*
X157035023Y-115552500D01*
X157066546Y-115490145D01*
X157085842Y-115473425D01*
X157184367Y-115404437D01*
X157271401Y-115343495D01*
X157438495Y-115176401D01*
X157574035Y-114982830D01*
X157673903Y-114768663D01*
X157735063Y-114540408D01*
X157755659Y-114305000D01*
X157735063Y-114069592D01*
X157673903Y-113841337D01*
X157574035Y-113627171D01*
X157539959Y-113578504D01*
X157438494Y-113433597D01*
X157271402Y-113266506D01*
X157271396Y-113266501D01*
X157085842Y-113136575D01*
X157042217Y-113081998D01*
X157035023Y-113012500D01*
X157066546Y-112950145D01*
X157085842Y-112933425D01*
X157108026Y-112917891D01*
X157271401Y-112803495D01*
X157438495Y-112636401D01*
X157574035Y-112442830D01*
X157673903Y-112228663D01*
X157735063Y-112000408D01*
X157755659Y-111765000D01*
X157735063Y-111529592D01*
X157673903Y-111301337D01*
X157574035Y-111087171D01*
X157511817Y-110998313D01*
X157438494Y-110893597D01*
X157271402Y-110726506D01*
X157271396Y-110726501D01*
X157085842Y-110596575D01*
X157042217Y-110541998D01*
X157035023Y-110472500D01*
X157066546Y-110410145D01*
X157085842Y-110393425D01*
X157108026Y-110377891D01*
X157271401Y-110263495D01*
X157438495Y-110096401D01*
X157574035Y-109902830D01*
X157673903Y-109688663D01*
X157735063Y-109460408D01*
X157755659Y-109225000D01*
X157735063Y-108989592D01*
X157673903Y-108761337D01*
X157574035Y-108547171D01*
X157562340Y-108530468D01*
X157438494Y-108353597D01*
X157271402Y-108186506D01*
X157271396Y-108186501D01*
X157085842Y-108056575D01*
X157042217Y-108001998D01*
X157035023Y-107932500D01*
X157066546Y-107870145D01*
X157085842Y-107853425D01*
X157160047Y-107801466D01*
X157271401Y-107723495D01*
X157438495Y-107556401D01*
X157574035Y-107362830D01*
X157673903Y-107148663D01*
X157735063Y-106920408D01*
X157755659Y-106685000D01*
X157735063Y-106449592D01*
X157673903Y-106221337D01*
X157574035Y-106007171D01*
X157568128Y-105998734D01*
X157438494Y-105813597D01*
X157271402Y-105646506D01*
X157271396Y-105646501D01*
X157085842Y-105516575D01*
X157042217Y-105461998D01*
X157035023Y-105392500D01*
X157066546Y-105330145D01*
X157085842Y-105313425D01*
X157168470Y-105255568D01*
X157271401Y-105183495D01*
X157438495Y-105016401D01*
X157574035Y-104822830D01*
X157673903Y-104608663D01*
X157735063Y-104380408D01*
X157755659Y-104145000D01*
X157735063Y-103909592D01*
X157673903Y-103681337D01*
X157574035Y-103467171D01*
X157550198Y-103433127D01*
X157438494Y-103273597D01*
X157271402Y-103106506D01*
X157271396Y-103106501D01*
X157085842Y-102976575D01*
X157042217Y-102921998D01*
X157035023Y-102852500D01*
X157066546Y-102790145D01*
X157085842Y-102773425D01*
X157184367Y-102704437D01*
X157271401Y-102643495D01*
X157438495Y-102476401D01*
X157574035Y-102282830D01*
X157673903Y-102068663D01*
X157735063Y-101840408D01*
X157755659Y-101605000D01*
X157735063Y-101369592D01*
X157673903Y-101141337D01*
X157574035Y-100927171D01*
X157539959Y-100878504D01*
X157438494Y-100733597D01*
X157271402Y-100566506D01*
X157271396Y-100566501D01*
X157085842Y-100436575D01*
X157042217Y-100381998D01*
X157035023Y-100312500D01*
X157066546Y-100250145D01*
X157085842Y-100233425D01*
X157108026Y-100217891D01*
X157271401Y-100103495D01*
X157438495Y-99936401D01*
X157574035Y-99742830D01*
X157673903Y-99528663D01*
X157735063Y-99300408D01*
X157755659Y-99065000D01*
X157735063Y-98829592D01*
X157673903Y-98601337D01*
X157574035Y-98387171D01*
X157511817Y-98298313D01*
X157438494Y-98193597D01*
X157271402Y-98026506D01*
X157271396Y-98026501D01*
X157085842Y-97896575D01*
X157042217Y-97841998D01*
X157035023Y-97772500D01*
X157066546Y-97710145D01*
X157085842Y-97693425D01*
X157108026Y-97677891D01*
X157271401Y-97563495D01*
X157438495Y-97396401D01*
X157574035Y-97202830D01*
X157673903Y-96988663D01*
X157735063Y-96760408D01*
X157755659Y-96525000D01*
X157735063Y-96289592D01*
X157673903Y-96061337D01*
X157574035Y-95847171D01*
X157488491Y-95725000D01*
X157438494Y-95653597D01*
X157271402Y-95486506D01*
X157271396Y-95486501D01*
X157085842Y-95356575D01*
X157042217Y-95301998D01*
X157035023Y-95232500D01*
X157066546Y-95170145D01*
X157085842Y-95153425D01*
X157108026Y-95137891D01*
X157271401Y-95023495D01*
X157438495Y-94856401D01*
X157574035Y-94662830D01*
X157673903Y-94448663D01*
X157735063Y-94220408D01*
X157755659Y-93985000D01*
X157735063Y-93749592D01*
X157673903Y-93521337D01*
X157574035Y-93307171D01*
X157438495Y-93113599D01*
X157438494Y-93113597D01*
X157271402Y-92946506D01*
X157271396Y-92946501D01*
X157085842Y-92816575D01*
X157042217Y-92761998D01*
X157035023Y-92692500D01*
X157066546Y-92630145D01*
X157085842Y-92613425D01*
X157126073Y-92585255D01*
X157271401Y-92483495D01*
X157438495Y-92316401D01*
X157574035Y-92122830D01*
X157673903Y-91908663D01*
X157735063Y-91680408D01*
X157755659Y-91445000D01*
X157735063Y-91209592D01*
X157673903Y-90981337D01*
X157574035Y-90767171D01*
X157527288Y-90700408D01*
X157438494Y-90573597D01*
X157271402Y-90406506D01*
X157271396Y-90406501D01*
X157085842Y-90276575D01*
X157042217Y-90221998D01*
X157035023Y-90152500D01*
X157066546Y-90090145D01*
X157085842Y-90073425D01*
X157188797Y-90001335D01*
X157271401Y-89943495D01*
X157438495Y-89776401D01*
X157574035Y-89582830D01*
X157673903Y-89368663D01*
X157735063Y-89140408D01*
X157755659Y-88905000D01*
X157735063Y-88669592D01*
X157673903Y-88441337D01*
X157574035Y-88227171D01*
X157573524Y-88226440D01*
X157438494Y-88033597D01*
X157271402Y-87866506D01*
X157271396Y-87866501D01*
X157085842Y-87736575D01*
X157042217Y-87681998D01*
X157035023Y-87612500D01*
X157066546Y-87550145D01*
X157085842Y-87533425D01*
X157188797Y-87461335D01*
X157271401Y-87403495D01*
X157438495Y-87236401D01*
X157574035Y-87042830D01*
X157673903Y-86828663D01*
X157735063Y-86600408D01*
X157755659Y-86365000D01*
X157735063Y-86129592D01*
X157673903Y-85901337D01*
X157574035Y-85687171D01*
X157527288Y-85620408D01*
X157438494Y-85493597D01*
X157271402Y-85326506D01*
X157271396Y-85326501D01*
X157085842Y-85196575D01*
X157042217Y-85141998D01*
X157035023Y-85072500D01*
X157066546Y-85010145D01*
X157085842Y-84993425D01*
X157188797Y-84921335D01*
X157271401Y-84863495D01*
X157438495Y-84696401D01*
X157574035Y-84502830D01*
X157673903Y-84288663D01*
X157735063Y-84060408D01*
X157755659Y-83825000D01*
X157755658Y-83824994D01*
X157746158Y-83716402D01*
X157735063Y-83589592D01*
X157673903Y-83361337D01*
X157574035Y-83147171D01*
X157557688Y-83123824D01*
X157438494Y-82953597D01*
X157271402Y-82786506D01*
X157271396Y-82786501D01*
X157085842Y-82656575D01*
X157042217Y-82601998D01*
X157035023Y-82532500D01*
X157066546Y-82470145D01*
X157085842Y-82453425D01*
X157211513Y-82365429D01*
X157271401Y-82323495D01*
X157438495Y-82156401D01*
X157574035Y-81962830D01*
X157673903Y-81748663D01*
X157735063Y-81520408D01*
X157755659Y-81285000D01*
X157735063Y-81049592D01*
X157673903Y-80821337D01*
X157574035Y-80607171D01*
X157438495Y-80413599D01*
X157316567Y-80291671D01*
X157283084Y-80230351D01*
X157288068Y-80160659D01*
X157329939Y-80104725D01*
X157360915Y-80087810D01*
X157492331Y-80038796D01*
X157607546Y-79952546D01*
X157693796Y-79837331D01*
X157744091Y-79702483D01*
X157750500Y-79642873D01*
X157750499Y-77847128D01*
X157744091Y-77787517D01*
X157693796Y-77652669D01*
X157693795Y-77652668D01*
X157693793Y-77652664D01*
X157607547Y-77537455D01*
X157607544Y-77537452D01*
X157492335Y-77451206D01*
X157492328Y-77451202D01*
X157357482Y-77400908D01*
X157357483Y-77400908D01*
X157297883Y-77394501D01*
X157297881Y-77394500D01*
X157297873Y-77394500D01*
X157297864Y-77394500D01*
X155502129Y-77394500D01*
X155502123Y-77394501D01*
X155442516Y-77400908D01*
X155307671Y-77451202D01*
X155307664Y-77451206D01*
X155192455Y-77537452D01*
X155192452Y-77537455D01*
X155106206Y-77652664D01*
X155106202Y-77652671D01*
X155055908Y-77787517D01*
X155053074Y-77813881D01*
X155049501Y-77847123D01*
X155049500Y-77847135D01*
X155049500Y-79642870D01*
X155049501Y-79642876D01*
X155055908Y-79702483D01*
X155106202Y-79837328D01*
X155106206Y-79837335D01*
X155192452Y-79952544D01*
X155192455Y-79952547D01*
X155307664Y-80038793D01*
X155307671Y-80038797D01*
X155439081Y-80087810D01*
X155495015Y-80129681D01*
X155519432Y-80195145D01*
X155504580Y-80263418D01*
X155483430Y-80291673D01*
X155361503Y-80413600D01*
X155225965Y-80607169D01*
X155225964Y-80607171D01*
X155126098Y-80821335D01*
X155126094Y-80821344D01*
X155064938Y-81049586D01*
X155064936Y-81049596D01*
X155044341Y-81284999D01*
X134955659Y-81284999D01*
X134935063Y-81049592D01*
X134873903Y-80821337D01*
X134774035Y-80607171D01*
X134638495Y-80413599D01*
X134516567Y-80291671D01*
X134483084Y-80230351D01*
X134488068Y-80160659D01*
X134529939Y-80104725D01*
X134560915Y-80087810D01*
X134692331Y-80038796D01*
X134807546Y-79952546D01*
X134893796Y-79837331D01*
X134944091Y-79702483D01*
X134950500Y-79642873D01*
X134950499Y-77847128D01*
X134944091Y-77787517D01*
X134893796Y-77652669D01*
X134893795Y-77652668D01*
X134893793Y-77652664D01*
X134807547Y-77537455D01*
X134807544Y-77537452D01*
X134692335Y-77451206D01*
X134692328Y-77451202D01*
X134557482Y-77400908D01*
X134557483Y-77400908D01*
X134497883Y-77394501D01*
X134497881Y-77394500D01*
X134497873Y-77394500D01*
X134497864Y-77394500D01*
X132702129Y-77394500D01*
X132702123Y-77394501D01*
X132642516Y-77400908D01*
X132507671Y-77451202D01*
X132507664Y-77451206D01*
X132392455Y-77537452D01*
X132392452Y-77537455D01*
X132306206Y-77652664D01*
X132306202Y-77652671D01*
X132255908Y-77787517D01*
X132253074Y-77813881D01*
X132249501Y-77847123D01*
X132249500Y-77847135D01*
X132249500Y-79642870D01*
X132249501Y-79642876D01*
X132255908Y-79702483D01*
X132306202Y-79837328D01*
X132306206Y-79837335D01*
X132392452Y-79952544D01*
X132392455Y-79952547D01*
X132507664Y-80038793D01*
X132507671Y-80038797D01*
X132639081Y-80087810D01*
X132695015Y-80129681D01*
X132719432Y-80195145D01*
X132704580Y-80263418D01*
X132683430Y-80291673D01*
X132561503Y-80413600D01*
X132425965Y-80607169D01*
X132425964Y-80607171D01*
X132326098Y-80821335D01*
X132326094Y-80821344D01*
X132264938Y-81049586D01*
X132264936Y-81049596D01*
X132244341Y-81284999D01*
X132244341Y-81285000D01*
X132264936Y-81520403D01*
X132264938Y-81520413D01*
X132326094Y-81748655D01*
X132326096Y-81748659D01*
X132326097Y-81748663D01*
X132425965Y-81962830D01*
X132425967Y-81962834D01*
X132561501Y-82156395D01*
X132561504Y-82156400D01*
X132728597Y-82323493D01*
X132728603Y-82323498D01*
X132914158Y-82453425D01*
X132957783Y-82508002D01*
X132964977Y-82577500D01*
X132933454Y-82639855D01*
X132914158Y-82656575D01*
X132728597Y-82786505D01*
X132561505Y-82953597D01*
X132425965Y-83147169D01*
X132425964Y-83147171D01*
X132326098Y-83361335D01*
X132326094Y-83361344D01*
X132264938Y-83589586D01*
X132264936Y-83589596D01*
X132248028Y-83782858D01*
X132231678Y-83824654D01*
X132016148Y-83824654D01*
X132016718Y-83822714D01*
X132002931Y-83796482D01*
X132000500Y-83772050D01*
X132000500Y-82440928D01*
X131975502Y-82315261D01*
X131975501Y-82315260D01*
X131975501Y-82315256D01*
X131926465Y-82196873D01*
X131899423Y-82156401D01*
X131899422Y-82156400D01*
X131855275Y-82090328D01*
X130536818Y-80771871D01*
X130503333Y-80710548D01*
X130500499Y-80684190D01*
X130500499Y-79407129D01*
X130500498Y-79407123D01*
X130500497Y-79407116D01*
X130494091Y-79347517D01*
X130443796Y-79212669D01*
X130443795Y-79212668D01*
X130443793Y-79212664D01*
X130357547Y-79097455D01*
X130357544Y-79097452D01*
X130242335Y-79011206D01*
X130242328Y-79011202D01*
X130107482Y-78960908D01*
X130107483Y-78960908D01*
X130047883Y-78954501D01*
X130047881Y-78954500D01*
X130047873Y-78954500D01*
X130047864Y-78954500D01*
X128252129Y-78954500D01*
X128252123Y-78954501D01*
X128192516Y-78960908D01*
X128057671Y-79011202D01*
X128057664Y-79011206D01*
X127942455Y-79097452D01*
X127942452Y-79097455D01*
X127856206Y-79212664D01*
X127856202Y-79212671D01*
X127805908Y-79347517D01*
X127799501Y-79407116D01*
X127799501Y-79407123D01*
X127799500Y-79407135D01*
X127799500Y-81202870D01*
X127799501Y-81202876D01*
X127805908Y-81262483D01*
X127856202Y-81397328D01*
X127856206Y-81397335D01*
X127942452Y-81512544D01*
X127942455Y-81512547D01*
X128057664Y-81598793D01*
X128057671Y-81598797D01*
X128189081Y-81647810D01*
X128245015Y-81689681D01*
X128269432Y-81755145D01*
X128254580Y-81823418D01*
X128233430Y-81851673D01*
X128111503Y-81973600D01*
X127975965Y-82167169D01*
X127975964Y-82167171D01*
X127876098Y-82381335D01*
X127876094Y-82381344D01*
X127814938Y-82609586D01*
X127814936Y-82609596D01*
X127794341Y-82844999D01*
X127794341Y-82845000D01*
X127814936Y-83080403D01*
X127814938Y-83080413D01*
X127876094Y-83308655D01*
X127876096Y-83308659D01*
X127876097Y-83308663D01*
X127900663Y-83361344D01*
X127975965Y-83522830D01*
X127975967Y-83522834D01*
X128111501Y-83716395D01*
X128111506Y-83716402D01*
X128278597Y-83883493D01*
X128278603Y-83883498D01*
X128464158Y-84013425D01*
X128507783Y-84068002D01*
X128514977Y-84137500D01*
X128483454Y-84199855D01*
X128464158Y-84216575D01*
X128278597Y-84346505D01*
X128111505Y-84513597D01*
X127975965Y-84707169D01*
X127975964Y-84707171D01*
X127876098Y-84921335D01*
X127876094Y-84921344D01*
X127814938Y-85149586D01*
X127814936Y-85149596D01*
X127794341Y-85384999D01*
X127794341Y-85385000D01*
X127814936Y-85620403D01*
X127814938Y-85620413D01*
X127876094Y-85848655D01*
X127876096Y-85848659D01*
X127876097Y-85848663D01*
X127900663Y-85901344D01*
X127975965Y-86062830D01*
X127975967Y-86062834D01*
X128111501Y-86256395D01*
X128111506Y-86256402D01*
X128278597Y-86423493D01*
X128278603Y-86423498D01*
X128464158Y-86553425D01*
X128507783Y-86608002D01*
X128514977Y-86677500D01*
X128483454Y-86739855D01*
X128464158Y-86756575D01*
X128278597Y-86886505D01*
X128111505Y-87053597D01*
X127975965Y-87247169D01*
X127975964Y-87247171D01*
X127876098Y-87461335D01*
X127876094Y-87461344D01*
X127814938Y-87689586D01*
X127814936Y-87689596D01*
X127794341Y-87924999D01*
X127794341Y-87925000D01*
X127814936Y-88160403D01*
X127814937Y-88160408D01*
X127830477Y-88218408D01*
X127828815Y-88288256D01*
X127789653Y-88346119D01*
X127725424Y-88373623D01*
X127710703Y-88374500D01*
X126110808Y-88374500D01*
X126043769Y-88354815D01*
X126023127Y-88338181D01*
X125972709Y-88287763D01*
X125939224Y-88226440D01*
X125940615Y-88167989D01*
X125942648Y-88160403D01*
X125960063Y-88095408D01*
X125980659Y-87860000D01*
X125960063Y-87624592D01*
X125900821Y-87403495D01*
X125898905Y-87396344D01*
X125898904Y-87396343D01*
X125898903Y-87396337D01*
X125799035Y-87182171D01*
X125709009Y-87053599D01*
X125663494Y-86988597D01*
X125496402Y-86821506D01*
X125496395Y-86821501D01*
X125302834Y-86685967D01*
X125302830Y-86685965D01*
X125284677Y-86677500D01*
X125088663Y-86586097D01*
X125088659Y-86586096D01*
X125088655Y-86586094D01*
X124860413Y-86524938D01*
X124860403Y-86524936D01*
X124625001Y-86504341D01*
X124624999Y-86504341D01*
X124389596Y-86524936D01*
X124389586Y-86524938D01*
X124161344Y-86586094D01*
X124161335Y-86586098D01*
X123947171Y-86685964D01*
X123947169Y-86685965D01*
X123753596Y-86821506D01*
X123710204Y-86864898D01*
X123648881Y-86898382D01*
X123579189Y-86893397D01*
X123534843Y-86864897D01*
X122066994Y-85397047D01*
X122033509Y-85335724D01*
X122038493Y-85266032D01*
X122080365Y-85210099D01*
X122145829Y-85185682D01*
X122213695Y-85200313D01*
X122220190Y-85203828D01*
X122455386Y-85284571D01*
X122700665Y-85325500D01*
X122949335Y-85325500D01*
X123194614Y-85284571D01*
X123429810Y-85203828D01*
X123648509Y-85085474D01*
X123844744Y-84932738D01*
X124013164Y-84749785D01*
X124149173Y-84541607D01*
X124249063Y-84313881D01*
X124310108Y-84072821D01*
X124310109Y-84072812D01*
X124330643Y-83825005D01*
X124330643Y-83824994D01*
X124310109Y-83577187D01*
X124310107Y-83577175D01*
X124249063Y-83336118D01*
X124149173Y-83108393D01*
X124013166Y-82900217D01*
X123962334Y-82844999D01*
X123844744Y-82717262D01*
X123648509Y-82564526D01*
X123648507Y-82564525D01*
X123648506Y-82564524D01*
X123429811Y-82446172D01*
X123429802Y-82446169D01*
X123194616Y-82365429D01*
X122949335Y-82324500D01*
X122700665Y-82324500D01*
X122455383Y-82365429D01*
X122220197Y-82446169D01*
X122220188Y-82446172D01*
X122001493Y-82564524D01*
X121805257Y-82717261D01*
X121636833Y-82900217D01*
X121500826Y-83108393D01*
X121400936Y-83336118D01*
X121339892Y-83577175D01*
X121339890Y-83577187D01*
X121319357Y-83824994D01*
X121319357Y-83825005D01*
X121339890Y-84072812D01*
X121339892Y-84072824D01*
X121400936Y-84313881D01*
X121462183Y-84453508D01*
X121471086Y-84522808D01*
X121441109Y-84585920D01*
X121381770Y-84622807D01*
X121311908Y-84621757D01*
X121260946Y-84590999D01*
X119989673Y-83319726D01*
X119989669Y-83319723D01*
X119883127Y-83248535D01*
X119819050Y-83221993D01*
X119764742Y-83199498D01*
X119764734Y-83199496D01*
X119745302Y-83195630D01*
X119683392Y-83163243D01*
X119655942Y-83123824D01*
X119649173Y-83108393D01*
X119513166Y-82900217D01*
X119462334Y-82844999D01*
X119344744Y-82717262D01*
X119148509Y-82564526D01*
X119148507Y-82564525D01*
X119148506Y-82564524D01*
X118929811Y-82446172D01*
X118929802Y-82446169D01*
X118694616Y-82365429D01*
X118449335Y-82324500D01*
X118200665Y-82324500D01*
X117955383Y-82365429D01*
X117720197Y-82446169D01*
X117720188Y-82446172D01*
X117501493Y-82564524D01*
X117305257Y-82717261D01*
X117136833Y-82900217D01*
X117000826Y-83108393D01*
X116900936Y-83336118D01*
X116839892Y-83577175D01*
X116839890Y-83577187D01*
X116819357Y-83824994D01*
X116500500Y-83824994D01*
X116500500Y-77324994D01*
X116819357Y-77324994D01*
X116819357Y-77325005D01*
X116839890Y-77572812D01*
X116839892Y-77572824D01*
X116900936Y-77813881D01*
X117000826Y-78041606D01*
X117136833Y-78249782D01*
X117136836Y-78249785D01*
X117305256Y-78432738D01*
X117501491Y-78585474D01*
X117720190Y-78703828D01*
X117955386Y-78784571D01*
X118200665Y-78825500D01*
X118449335Y-78825500D01*
X118694614Y-78784571D01*
X118929810Y-78703828D01*
X119148509Y-78585474D01*
X119344744Y-78432738D01*
X119513164Y-78249785D01*
X119649173Y-78041607D01*
X119749063Y-77813881D01*
X119810108Y-77572821D01*
X119813039Y-77537452D01*
X119830643Y-77325005D01*
X119830643Y-77324994D01*
X121319357Y-77324994D01*
X121319357Y-77325005D01*
X121339890Y-77572812D01*
X121339892Y-77572824D01*
X121400936Y-77813881D01*
X121500826Y-78041606D01*
X121636833Y-78249782D01*
X121636836Y-78249785D01*
X121805256Y-78432738D01*
X122001491Y-78585474D01*
X122220190Y-78703828D01*
X122455386Y-78784571D01*
X122700665Y-78825500D01*
X122949335Y-78825500D01*
X123194614Y-78784571D01*
X123429810Y-78703828D01*
X123648509Y-78585474D01*
X123844744Y-78432738D01*
X124013164Y-78249785D01*
X124149173Y-78041607D01*
X124249063Y-77813881D01*
X124310108Y-77572821D01*
X124313039Y-77537452D01*
X124330643Y-77325005D01*
X124330643Y-77324994D01*
X124310109Y-77077187D01*
X124310107Y-77077175D01*
X124249063Y-76836118D01*
X124149173Y-76608393D01*
X124013166Y-76400217D01*
X123991557Y-76376744D01*
X123844744Y-76217262D01*
X123648509Y-76064526D01*
X123648507Y-76064525D01*
X123648506Y-76064524D01*
X123429811Y-75946172D01*
X123429802Y-75946169D01*
X123194616Y-75865429D01*
X122949335Y-75824500D01*
X122700665Y-75824500D01*
X122455383Y-75865429D01*
X122220197Y-75946169D01*
X122220188Y-75946172D01*
X122001493Y-76064524D01*
X121805257Y-76217261D01*
X121636833Y-76400217D01*
X121500826Y-76608393D01*
X121400936Y-76836118D01*
X121339892Y-77077175D01*
X121339890Y-77077187D01*
X121319357Y-77324994D01*
X119830643Y-77324994D01*
X119810109Y-77077187D01*
X119810107Y-77077175D01*
X119749063Y-76836118D01*
X119649173Y-76608393D01*
X119513166Y-76400217D01*
X119491557Y-76376744D01*
X119344744Y-76217262D01*
X119148509Y-76064526D01*
X119148507Y-76064525D01*
X119148506Y-76064524D01*
X118929811Y-75946172D01*
X118929802Y-75946169D01*
X118694616Y-75865429D01*
X118449335Y-75824500D01*
X118200665Y-75824500D01*
X117955383Y-75865429D01*
X117720197Y-75946169D01*
X117720188Y-75946172D01*
X117501493Y-76064524D01*
X117305257Y-76217261D01*
X117136833Y-76400217D01*
X117000826Y-76608393D01*
X116900936Y-76836118D01*
X116839892Y-77077175D01*
X116839890Y-77077187D01*
X116819357Y-77324994D01*
X116500500Y-77324994D01*
X116500500Y-74124997D01*
X121840034Y-74124997D01*
X121840034Y-74125002D01*
X121859858Y-74351599D01*
X121859860Y-74351610D01*
X121918730Y-74571317D01*
X121918735Y-74571331D01*
X122014863Y-74777478D01*
X122065974Y-74850472D01*
X122745000Y-74171446D01*
X122745000Y-74177661D01*
X122772259Y-74279394D01*
X122824920Y-74370606D01*
X122899394Y-74445080D01*
X122990606Y-74497741D01*
X123092339Y-74525000D01*
X123098553Y-74525000D01*
X122419526Y-75204025D01*
X122492513Y-75255132D01*
X122492521Y-75255136D01*
X122698668Y-75351264D01*
X122698682Y-75351269D01*
X122918389Y-75410139D01*
X122918400Y-75410141D01*
X123144998Y-75429966D01*
X123145002Y-75429966D01*
X123371599Y-75410141D01*
X123371610Y-75410139D01*
X123591317Y-75351269D01*
X123591331Y-75351264D01*
X123797478Y-75255136D01*
X123870471Y-75204024D01*
X123191447Y-74525000D01*
X123197661Y-74525000D01*
X123299394Y-74497741D01*
X123390606Y-74445080D01*
X123465080Y-74370606D01*
X123517741Y-74279394D01*
X123545000Y-74177661D01*
X123545000Y-74171447D01*
X124224024Y-74850471D01*
X124275136Y-74777478D01*
X124371264Y-74571331D01*
X124371269Y-74571317D01*
X124430139Y-74351610D01*
X124430141Y-74351599D01*
X124449966Y-74125002D01*
X124449966Y-74124998D01*
X131999532Y-74124998D01*
X131999532Y-74125001D01*
X132019364Y-74351686D01*
X132019366Y-74351697D01*
X132078258Y-74571488D01*
X132078261Y-74571497D01*
X132174431Y-74777732D01*
X132174432Y-74777734D01*
X132304954Y-74964141D01*
X132465858Y-75125045D01*
X132465861Y-75125047D01*
X132652266Y-75255568D01*
X132858504Y-75351739D01*
X133078308Y-75410635D01*
X133240230Y-75424801D01*
X133304998Y-75430468D01*
X133305000Y-75430468D01*
X133305002Y-75430468D01*
X133361673Y-75425509D01*
X133531692Y-75410635D01*
X133751496Y-75351739D01*
X133957734Y-75255568D01*
X134144139Y-75125047D01*
X134305047Y-74964139D01*
X134435568Y-74777734D01*
X134531739Y-74571496D01*
X134590635Y-74351692D01*
X134610468Y-74125000D01*
X134590635Y-73898308D01*
X134531739Y-73678504D01*
X134435568Y-73472266D01*
X134305047Y-73285861D01*
X134305045Y-73285858D01*
X134144141Y-73124954D01*
X133957734Y-72994432D01*
X133957732Y-72994431D01*
X133751497Y-72898261D01*
X133751488Y-72898258D01*
X133531697Y-72839366D01*
X133531693Y-72839365D01*
X133531692Y-72839365D01*
X133531691Y-72839364D01*
X133531686Y-72839364D01*
X133305002Y-72819532D01*
X133304998Y-72819532D01*
X133078313Y-72839364D01*
X133078302Y-72839366D01*
X132858511Y-72898258D01*
X132858502Y-72898261D01*
X132652267Y-72994431D01*
X132652265Y-72994432D01*
X132465858Y-73124954D01*
X132304954Y-73285858D01*
X132174432Y-73472265D01*
X132174431Y-73472267D01*
X132078261Y-73678502D01*
X132078258Y-73678511D01*
X132019366Y-73898302D01*
X132019364Y-73898313D01*
X131999532Y-74124998D01*
X124449966Y-74124998D01*
X124449966Y-74124997D01*
X124430141Y-73898400D01*
X124430139Y-73898389D01*
X124371269Y-73678682D01*
X124371264Y-73678668D01*
X124275136Y-73472521D01*
X124275132Y-73472513D01*
X124224025Y-73399526D01*
X123545000Y-74078551D01*
X123545000Y-74072339D01*
X123517741Y-73970606D01*
X123465080Y-73879394D01*
X123390606Y-73804920D01*
X123299394Y-73752259D01*
X123197661Y-73725000D01*
X123191448Y-73725000D01*
X123870472Y-73045974D01*
X123797478Y-72994863D01*
X123591331Y-72898735D01*
X123591317Y-72898730D01*
X123371610Y-72839860D01*
X123371599Y-72839858D01*
X123145002Y-72820034D01*
X123144998Y-72820034D01*
X122918400Y-72839858D01*
X122918389Y-72839860D01*
X122698682Y-72898730D01*
X122698673Y-72898734D01*
X122492516Y-72994866D01*
X122492512Y-72994868D01*
X122419526Y-73045973D01*
X122419526Y-73045974D01*
X123098553Y-73725000D01*
X123092339Y-73725000D01*
X122990606Y-73752259D01*
X122899394Y-73804920D01*
X122824920Y-73879394D01*
X122772259Y-73970606D01*
X122745000Y-74072339D01*
X122745000Y-74078552D01*
X122065974Y-73399526D01*
X122065973Y-73399526D01*
X122014868Y-73472512D01*
X122014866Y-73472516D01*
X121918734Y-73678673D01*
X121918730Y-73678682D01*
X121859860Y-73898389D01*
X121859858Y-73898400D01*
X121840034Y-74124997D01*
X116500500Y-74124997D01*
X116500500Y-74004427D01*
X116500816Y-73995581D01*
X116505213Y-73934108D01*
X116515130Y-73795436D01*
X116517646Y-73777938D01*
X116559356Y-73586199D01*
X116564333Y-73569248D01*
X116632911Y-73385385D01*
X116640259Y-73369298D01*
X116702815Y-73254734D01*
X116734291Y-73197089D01*
X116743845Y-73182221D01*
X116861448Y-73025123D01*
X116873020Y-73011769D01*
X117011769Y-72873020D01*
X117025123Y-72861448D01*
X117182221Y-72743845D01*
X117197089Y-72734291D01*
X117369298Y-72640258D01*
X117385385Y-72632911D01*
X117569248Y-72564333D01*
X117586199Y-72559356D01*
X117777938Y-72517646D01*
X117795436Y-72515130D01*
X117995582Y-72500816D01*
X118004428Y-72500500D01*
X118065892Y-72500500D01*
X158934108Y-72500500D01*
X158995572Y-72500500D01*
X159004418Y-72500816D01*
G37*
%TD.AperFunction*%
%TD*%
M02*
