%TF.GenerationSoftware,KiCad,Pcbnew,8.0.2*%
%TF.CreationDate,2025-03-31T19:16:32+02:00*%
%TF.ProjectId,Carte_main,43617274-655f-46d6-9169-6e2e6b696361,rev?*%
%TF.SameCoordinates,Original*%
%TF.FileFunction,AssemblyDrawing,Top*%
%FSLAX46Y46*%
G04 Gerber Fmt 4.6, Leading zero omitted, Abs format (unit mm)*
G04 Created by KiCad (PCBNEW 8.0.2) date 2025-03-31 19:16:32*
%MOMM*%
%LPD*%
G01*
G04 APERTURE LIST*
%ADD10C,0.125000*%
%ADD11C,0.150000*%
%ADD12C,0.129000*%
%ADD13C,0.100000*%
G04 APERTURE END LIST*
D10*
X124826000Y-100157141D02*
X124849809Y-100085713D01*
X124849809Y-100085713D02*
X124849809Y-99966665D01*
X124849809Y-99966665D02*
X124826000Y-99919046D01*
X124826000Y-99919046D02*
X124802190Y-99895237D01*
X124802190Y-99895237D02*
X124754571Y-99871427D01*
X124754571Y-99871427D02*
X124706952Y-99871427D01*
X124706952Y-99871427D02*
X124659333Y-99895237D01*
X124659333Y-99895237D02*
X124635523Y-99919046D01*
X124635523Y-99919046D02*
X124611714Y-99966665D01*
X124611714Y-99966665D02*
X124587904Y-100061903D01*
X124587904Y-100061903D02*
X124564095Y-100109522D01*
X124564095Y-100109522D02*
X124540285Y-100133332D01*
X124540285Y-100133332D02*
X124492666Y-100157141D01*
X124492666Y-100157141D02*
X124445047Y-100157141D01*
X124445047Y-100157141D02*
X124397428Y-100133332D01*
X124397428Y-100133332D02*
X124373619Y-100109522D01*
X124373619Y-100109522D02*
X124349809Y-100061903D01*
X124349809Y-100061903D02*
X124349809Y-99942856D01*
X124349809Y-99942856D02*
X124373619Y-99871427D01*
X124349809Y-99704761D02*
X124849809Y-99585713D01*
X124849809Y-99585713D02*
X124492666Y-99490475D01*
X124492666Y-99490475D02*
X124849809Y-99395237D01*
X124849809Y-99395237D02*
X124349809Y-99276190D01*
X124897428Y-99204761D02*
X124897428Y-98823808D01*
X124849809Y-98704761D02*
X124349809Y-98704761D01*
X124349809Y-98704761D02*
X124349809Y-98585713D01*
X124349809Y-98585713D02*
X124373619Y-98514285D01*
X124373619Y-98514285D02*
X124421238Y-98466666D01*
X124421238Y-98466666D02*
X124468857Y-98442856D01*
X124468857Y-98442856D02*
X124564095Y-98419047D01*
X124564095Y-98419047D02*
X124635523Y-98419047D01*
X124635523Y-98419047D02*
X124730761Y-98442856D01*
X124730761Y-98442856D02*
X124778380Y-98466666D01*
X124778380Y-98466666D02*
X124826000Y-98514285D01*
X124826000Y-98514285D02*
X124849809Y-98585713D01*
X124849809Y-98585713D02*
X124849809Y-98704761D01*
X124849809Y-98204761D02*
X124349809Y-98204761D01*
X124849809Y-97966666D02*
X124349809Y-97966666D01*
X124349809Y-97966666D02*
X124349809Y-97776190D01*
X124349809Y-97776190D02*
X124373619Y-97728571D01*
X124373619Y-97728571D02*
X124397428Y-97704761D01*
X124397428Y-97704761D02*
X124445047Y-97680952D01*
X124445047Y-97680952D02*
X124516476Y-97680952D01*
X124516476Y-97680952D02*
X124564095Y-97704761D01*
X124564095Y-97704761D02*
X124587904Y-97728571D01*
X124587904Y-97728571D02*
X124611714Y-97776190D01*
X124611714Y-97776190D02*
X124611714Y-97966666D01*
X124897428Y-97585714D02*
X124897428Y-97204761D01*
X124849809Y-97133333D02*
X124516476Y-96871428D01*
X124516476Y-97133333D02*
X124849809Y-96871428D01*
X124349809Y-96585714D02*
X124349809Y-96538095D01*
X124349809Y-96538095D02*
X124373619Y-96490476D01*
X124373619Y-96490476D02*
X124397428Y-96466666D01*
X124397428Y-96466666D02*
X124445047Y-96442857D01*
X124445047Y-96442857D02*
X124540285Y-96419047D01*
X124540285Y-96419047D02*
X124659333Y-96419047D01*
X124659333Y-96419047D02*
X124754571Y-96442857D01*
X124754571Y-96442857D02*
X124802190Y-96466666D01*
X124802190Y-96466666D02*
X124826000Y-96490476D01*
X124826000Y-96490476D02*
X124849809Y-96538095D01*
X124849809Y-96538095D02*
X124849809Y-96585714D01*
X124849809Y-96585714D02*
X124826000Y-96633333D01*
X124826000Y-96633333D02*
X124802190Y-96657142D01*
X124802190Y-96657142D02*
X124754571Y-96680952D01*
X124754571Y-96680952D02*
X124659333Y-96704761D01*
X124659333Y-96704761D02*
X124540285Y-96704761D01*
X124540285Y-96704761D02*
X124445047Y-96680952D01*
X124445047Y-96680952D02*
X124397428Y-96657142D01*
X124397428Y-96657142D02*
X124373619Y-96633333D01*
X124373619Y-96633333D02*
X124349809Y-96585714D01*
X124849809Y-95942857D02*
X124849809Y-96228571D01*
X124849809Y-96085714D02*
X124349809Y-96085714D01*
X124349809Y-96085714D02*
X124421238Y-96133333D01*
X124421238Y-96133333D02*
X124468857Y-96180952D01*
X124468857Y-96180952D02*
X124492666Y-96228571D01*
X121826000Y-98716665D02*
X121849809Y-98645237D01*
X121849809Y-98645237D02*
X121849809Y-98526189D01*
X121849809Y-98526189D02*
X121826000Y-98478570D01*
X121826000Y-98478570D02*
X121802190Y-98454761D01*
X121802190Y-98454761D02*
X121754571Y-98430951D01*
X121754571Y-98430951D02*
X121706952Y-98430951D01*
X121706952Y-98430951D02*
X121659333Y-98454761D01*
X121659333Y-98454761D02*
X121635523Y-98478570D01*
X121635523Y-98478570D02*
X121611714Y-98526189D01*
X121611714Y-98526189D02*
X121587904Y-98621427D01*
X121587904Y-98621427D02*
X121564095Y-98669046D01*
X121564095Y-98669046D02*
X121540285Y-98692856D01*
X121540285Y-98692856D02*
X121492666Y-98716665D01*
X121492666Y-98716665D02*
X121445047Y-98716665D01*
X121445047Y-98716665D02*
X121397428Y-98692856D01*
X121397428Y-98692856D02*
X121373619Y-98669046D01*
X121373619Y-98669046D02*
X121349809Y-98621427D01*
X121349809Y-98621427D02*
X121349809Y-98502380D01*
X121349809Y-98502380D02*
X121373619Y-98430951D01*
X121349809Y-98264285D02*
X121849809Y-98145237D01*
X121849809Y-98145237D02*
X121492666Y-98049999D01*
X121492666Y-98049999D02*
X121849809Y-97954761D01*
X121849809Y-97954761D02*
X121349809Y-97835714D01*
X121397428Y-97669046D02*
X121373619Y-97645237D01*
X121373619Y-97645237D02*
X121349809Y-97597618D01*
X121349809Y-97597618D02*
X121349809Y-97478570D01*
X121349809Y-97478570D02*
X121373619Y-97430951D01*
X121373619Y-97430951D02*
X121397428Y-97407142D01*
X121397428Y-97407142D02*
X121445047Y-97383332D01*
X121445047Y-97383332D02*
X121492666Y-97383332D01*
X121492666Y-97383332D02*
X121564095Y-97407142D01*
X121564095Y-97407142D02*
X121849809Y-97692856D01*
X121849809Y-97692856D02*
X121849809Y-97383332D01*
D11*
X124503571Y-105809819D02*
X123932143Y-105809819D01*
X124217857Y-105809819D02*
X124217857Y-104809819D01*
X124217857Y-104809819D02*
X124122619Y-104952676D01*
X124122619Y-104952676D02*
X124027381Y-105047914D01*
X124027381Y-105047914D02*
X123932143Y-105095533D01*
X125122619Y-104809819D02*
X125217857Y-104809819D01*
X125217857Y-104809819D02*
X125313095Y-104857438D01*
X125313095Y-104857438D02*
X125360714Y-104905057D01*
X125360714Y-104905057D02*
X125408333Y-105000295D01*
X125408333Y-105000295D02*
X125455952Y-105190771D01*
X125455952Y-105190771D02*
X125455952Y-105428866D01*
X125455952Y-105428866D02*
X125408333Y-105619342D01*
X125408333Y-105619342D02*
X125360714Y-105714580D01*
X125360714Y-105714580D02*
X125313095Y-105762200D01*
X125313095Y-105762200D02*
X125217857Y-105809819D01*
X125217857Y-105809819D02*
X125122619Y-105809819D01*
X125122619Y-105809819D02*
X125027381Y-105762200D01*
X125027381Y-105762200D02*
X124979762Y-105714580D01*
X124979762Y-105714580D02*
X124932143Y-105619342D01*
X124932143Y-105619342D02*
X124884524Y-105428866D01*
X124884524Y-105428866D02*
X124884524Y-105190771D01*
X124884524Y-105190771D02*
X124932143Y-105000295D01*
X124932143Y-105000295D02*
X124979762Y-104905057D01*
X124979762Y-104905057D02*
X125027381Y-104857438D01*
X125027381Y-104857438D02*
X125122619Y-104809819D01*
X126075000Y-104809819D02*
X126170238Y-104809819D01*
X126170238Y-104809819D02*
X126265476Y-104857438D01*
X126265476Y-104857438D02*
X126313095Y-104905057D01*
X126313095Y-104905057D02*
X126360714Y-105000295D01*
X126360714Y-105000295D02*
X126408333Y-105190771D01*
X126408333Y-105190771D02*
X126408333Y-105428866D01*
X126408333Y-105428866D02*
X126360714Y-105619342D01*
X126360714Y-105619342D02*
X126313095Y-105714580D01*
X126313095Y-105714580D02*
X126265476Y-105762200D01*
X126265476Y-105762200D02*
X126170238Y-105809819D01*
X126170238Y-105809819D02*
X126075000Y-105809819D01*
X126075000Y-105809819D02*
X125979762Y-105762200D01*
X125979762Y-105762200D02*
X125932143Y-105714580D01*
X125932143Y-105714580D02*
X125884524Y-105619342D01*
X125884524Y-105619342D02*
X125836905Y-105428866D01*
X125836905Y-105428866D02*
X125836905Y-105190771D01*
X125836905Y-105190771D02*
X125884524Y-105000295D01*
X125884524Y-105000295D02*
X125932143Y-104905057D01*
X125932143Y-104905057D02*
X125979762Y-104857438D01*
X125979762Y-104857438D02*
X126075000Y-104809819D01*
X126836905Y-105809819D02*
X126836905Y-104809819D01*
X126932143Y-105428866D02*
X127217857Y-105809819D01*
X127217857Y-105143152D02*
X126836905Y-105524104D01*
X125408333Y-108179819D02*
X125075000Y-107703628D01*
X124836905Y-108179819D02*
X124836905Y-107179819D01*
X124836905Y-107179819D02*
X125217857Y-107179819D01*
X125217857Y-107179819D02*
X125313095Y-107227438D01*
X125313095Y-107227438D02*
X125360714Y-107275057D01*
X125360714Y-107275057D02*
X125408333Y-107370295D01*
X125408333Y-107370295D02*
X125408333Y-107513152D01*
X125408333Y-107513152D02*
X125360714Y-107608390D01*
X125360714Y-107608390D02*
X125313095Y-107656009D01*
X125313095Y-107656009D02*
X125217857Y-107703628D01*
X125217857Y-107703628D02*
X124836905Y-107703628D01*
X126360714Y-108179819D02*
X125789286Y-108179819D01*
X126075000Y-108179819D02*
X126075000Y-107179819D01*
X126075000Y-107179819D02*
X125979762Y-107322676D01*
X125979762Y-107322676D02*
X125884524Y-107417914D01*
X125884524Y-107417914D02*
X125789286Y-107465533D01*
X127030952Y-121866819D02*
X126459524Y-121866819D01*
X126745238Y-121866819D02*
X126745238Y-120866819D01*
X126745238Y-120866819D02*
X126650000Y-121009676D01*
X126650000Y-121009676D02*
X126554762Y-121104914D01*
X126554762Y-121104914D02*
X126459524Y-121152533D01*
X127650000Y-120866819D02*
X127745238Y-120866819D01*
X127745238Y-120866819D02*
X127840476Y-120914438D01*
X127840476Y-120914438D02*
X127888095Y-120962057D01*
X127888095Y-120962057D02*
X127935714Y-121057295D01*
X127935714Y-121057295D02*
X127983333Y-121247771D01*
X127983333Y-121247771D02*
X127983333Y-121485866D01*
X127983333Y-121485866D02*
X127935714Y-121676342D01*
X127935714Y-121676342D02*
X127888095Y-121771580D01*
X127888095Y-121771580D02*
X127840476Y-121819200D01*
X127840476Y-121819200D02*
X127745238Y-121866819D01*
X127745238Y-121866819D02*
X127650000Y-121866819D01*
X127650000Y-121866819D02*
X127554762Y-121819200D01*
X127554762Y-121819200D02*
X127507143Y-121771580D01*
X127507143Y-121771580D02*
X127459524Y-121676342D01*
X127459524Y-121676342D02*
X127411905Y-121485866D01*
X127411905Y-121485866D02*
X127411905Y-121247771D01*
X127411905Y-121247771D02*
X127459524Y-121057295D01*
X127459524Y-121057295D02*
X127507143Y-120962057D01*
X127507143Y-120962057D02*
X127554762Y-120914438D01*
X127554762Y-120914438D02*
X127650000Y-120866819D01*
X128602381Y-120866819D02*
X128697619Y-120866819D01*
X128697619Y-120866819D02*
X128792857Y-120914438D01*
X128792857Y-120914438D02*
X128840476Y-120962057D01*
X128840476Y-120962057D02*
X128888095Y-121057295D01*
X128888095Y-121057295D02*
X128935714Y-121247771D01*
X128935714Y-121247771D02*
X128935714Y-121485866D01*
X128935714Y-121485866D02*
X128888095Y-121676342D01*
X128888095Y-121676342D02*
X128840476Y-121771580D01*
X128840476Y-121771580D02*
X128792857Y-121819200D01*
X128792857Y-121819200D02*
X128697619Y-121866819D01*
X128697619Y-121866819D02*
X128602381Y-121866819D01*
X128602381Y-121866819D02*
X128507143Y-121819200D01*
X128507143Y-121819200D02*
X128459524Y-121771580D01*
X128459524Y-121771580D02*
X128411905Y-121676342D01*
X128411905Y-121676342D02*
X128364286Y-121485866D01*
X128364286Y-121485866D02*
X128364286Y-121247771D01*
X128364286Y-121247771D02*
X128411905Y-121057295D01*
X128411905Y-121057295D02*
X128459524Y-120962057D01*
X128459524Y-120962057D02*
X128507143Y-120914438D01*
X128507143Y-120914438D02*
X128602381Y-120866819D01*
X129364286Y-121200152D02*
X129364286Y-121866819D01*
X129364286Y-121295390D02*
X129411905Y-121247771D01*
X129411905Y-121247771D02*
X129507143Y-121200152D01*
X129507143Y-121200152D02*
X129650000Y-121200152D01*
X129650000Y-121200152D02*
X129745238Y-121247771D01*
X129745238Y-121247771D02*
X129792857Y-121343009D01*
X129792857Y-121343009D02*
X129792857Y-121866819D01*
D12*
X128006666Y-119634240D02*
X127965714Y-119675193D01*
X127965714Y-119675193D02*
X127842856Y-119716145D01*
X127842856Y-119716145D02*
X127760952Y-119716145D01*
X127760952Y-119716145D02*
X127638095Y-119675193D01*
X127638095Y-119675193D02*
X127556190Y-119593288D01*
X127556190Y-119593288D02*
X127515237Y-119511383D01*
X127515237Y-119511383D02*
X127474285Y-119347573D01*
X127474285Y-119347573D02*
X127474285Y-119224716D01*
X127474285Y-119224716D02*
X127515237Y-119060907D01*
X127515237Y-119060907D02*
X127556190Y-118979002D01*
X127556190Y-118979002D02*
X127638095Y-118897097D01*
X127638095Y-118897097D02*
X127760952Y-118856145D01*
X127760952Y-118856145D02*
X127842856Y-118856145D01*
X127842856Y-118856145D02*
X127965714Y-118897097D01*
X127965714Y-118897097D02*
X128006666Y-118938050D01*
X128743809Y-119142812D02*
X128743809Y-119716145D01*
X128539047Y-118815193D02*
X128334285Y-119429478D01*
X128334285Y-119429478D02*
X128866666Y-119429478D01*
D11*
X125432200Y-83122618D02*
X125479819Y-82979761D01*
X125479819Y-82979761D02*
X125479819Y-82741666D01*
X125479819Y-82741666D02*
X125432200Y-82646428D01*
X125432200Y-82646428D02*
X125384580Y-82598809D01*
X125384580Y-82598809D02*
X125289342Y-82551190D01*
X125289342Y-82551190D02*
X125194104Y-82551190D01*
X125194104Y-82551190D02*
X125098866Y-82598809D01*
X125098866Y-82598809D02*
X125051247Y-82646428D01*
X125051247Y-82646428D02*
X125003628Y-82741666D01*
X125003628Y-82741666D02*
X124956009Y-82932142D01*
X124956009Y-82932142D02*
X124908390Y-83027380D01*
X124908390Y-83027380D02*
X124860771Y-83074999D01*
X124860771Y-83074999D02*
X124765533Y-83122618D01*
X124765533Y-83122618D02*
X124670295Y-83122618D01*
X124670295Y-83122618D02*
X124575057Y-83074999D01*
X124575057Y-83074999D02*
X124527438Y-83027380D01*
X124527438Y-83027380D02*
X124479819Y-82932142D01*
X124479819Y-82932142D02*
X124479819Y-82694047D01*
X124479819Y-82694047D02*
X124527438Y-82551190D01*
X124479819Y-82217856D02*
X125479819Y-81979761D01*
X125479819Y-81979761D02*
X124765533Y-81789285D01*
X124765533Y-81789285D02*
X125479819Y-81598809D01*
X125479819Y-81598809D02*
X124479819Y-81360714D01*
X125575057Y-81217857D02*
X125575057Y-80455952D01*
X125479819Y-80217856D02*
X124479819Y-80217856D01*
X124479819Y-80217856D02*
X124479819Y-79836904D01*
X124479819Y-79836904D02*
X124527438Y-79741666D01*
X124527438Y-79741666D02*
X124575057Y-79694047D01*
X124575057Y-79694047D02*
X124670295Y-79646428D01*
X124670295Y-79646428D02*
X124813152Y-79646428D01*
X124813152Y-79646428D02*
X124908390Y-79694047D01*
X124908390Y-79694047D02*
X124956009Y-79741666D01*
X124956009Y-79741666D02*
X125003628Y-79836904D01*
X125003628Y-79836904D02*
X125003628Y-80217856D01*
X124813152Y-78789285D02*
X125479819Y-78789285D01*
X124813152Y-79217856D02*
X125336961Y-79217856D01*
X125336961Y-79217856D02*
X125432200Y-79170237D01*
X125432200Y-79170237D02*
X125479819Y-79074999D01*
X125479819Y-79074999D02*
X125479819Y-78932142D01*
X125479819Y-78932142D02*
X125432200Y-78836904D01*
X125432200Y-78836904D02*
X125384580Y-78789285D01*
X125432200Y-78360713D02*
X125479819Y-78265475D01*
X125479819Y-78265475D02*
X125479819Y-78074999D01*
X125479819Y-78074999D02*
X125432200Y-77979761D01*
X125432200Y-77979761D02*
X125336961Y-77932142D01*
X125336961Y-77932142D02*
X125289342Y-77932142D01*
X125289342Y-77932142D02*
X125194104Y-77979761D01*
X125194104Y-77979761D02*
X125146485Y-78074999D01*
X125146485Y-78074999D02*
X125146485Y-78217856D01*
X125146485Y-78217856D02*
X125098866Y-78313094D01*
X125098866Y-78313094D02*
X125003628Y-78360713D01*
X125003628Y-78360713D02*
X124956009Y-78360713D01*
X124956009Y-78360713D02*
X124860771Y-78313094D01*
X124860771Y-78313094D02*
X124813152Y-78217856D01*
X124813152Y-78217856D02*
X124813152Y-78074999D01*
X124813152Y-78074999D02*
X124860771Y-77979761D01*
X125479819Y-77503570D02*
X124479819Y-77503570D01*
X125479819Y-77074999D02*
X124956009Y-77074999D01*
X124956009Y-77074999D02*
X124860771Y-77122618D01*
X124860771Y-77122618D02*
X124813152Y-77217856D01*
X124813152Y-77217856D02*
X124813152Y-77360713D01*
X124813152Y-77360713D02*
X124860771Y-77455951D01*
X124860771Y-77455951D02*
X124908390Y-77503570D01*
X120982200Y-81908332D02*
X121029819Y-81765475D01*
X121029819Y-81765475D02*
X121029819Y-81527380D01*
X121029819Y-81527380D02*
X120982200Y-81432142D01*
X120982200Y-81432142D02*
X120934580Y-81384523D01*
X120934580Y-81384523D02*
X120839342Y-81336904D01*
X120839342Y-81336904D02*
X120744104Y-81336904D01*
X120744104Y-81336904D02*
X120648866Y-81384523D01*
X120648866Y-81384523D02*
X120601247Y-81432142D01*
X120601247Y-81432142D02*
X120553628Y-81527380D01*
X120553628Y-81527380D02*
X120506009Y-81717856D01*
X120506009Y-81717856D02*
X120458390Y-81813094D01*
X120458390Y-81813094D02*
X120410771Y-81860713D01*
X120410771Y-81860713D02*
X120315533Y-81908332D01*
X120315533Y-81908332D02*
X120220295Y-81908332D01*
X120220295Y-81908332D02*
X120125057Y-81860713D01*
X120125057Y-81860713D02*
X120077438Y-81813094D01*
X120077438Y-81813094D02*
X120029819Y-81717856D01*
X120029819Y-81717856D02*
X120029819Y-81479761D01*
X120029819Y-81479761D02*
X120077438Y-81336904D01*
X120029819Y-81003570D02*
X121029819Y-80765475D01*
X121029819Y-80765475D02*
X120315533Y-80574999D01*
X120315533Y-80574999D02*
X121029819Y-80384523D01*
X121029819Y-80384523D02*
X120029819Y-80146428D01*
X121029819Y-79241666D02*
X121029819Y-79813094D01*
X121029819Y-79527380D02*
X120029819Y-79527380D01*
X120029819Y-79527380D02*
X120172676Y-79622618D01*
X120172676Y-79622618D02*
X120267914Y-79717856D01*
X120267914Y-79717856D02*
X120315533Y-79813094D01*
X124106236Y-122359009D02*
X124249093Y-122406628D01*
X124249093Y-122406628D02*
X124296712Y-122454247D01*
X124296712Y-122454247D02*
X124344331Y-122549485D01*
X124344331Y-122549485D02*
X124344331Y-122692342D01*
X124344331Y-122692342D02*
X124296712Y-122787580D01*
X124296712Y-122787580D02*
X124249093Y-122835200D01*
X124249093Y-122835200D02*
X124153855Y-122882819D01*
X124153855Y-122882819D02*
X123772903Y-122882819D01*
X123772903Y-122882819D02*
X123772903Y-121882819D01*
X123772903Y-121882819D02*
X124106236Y-121882819D01*
X124106236Y-121882819D02*
X124201474Y-121930438D01*
X124201474Y-121930438D02*
X124249093Y-121978057D01*
X124249093Y-121978057D02*
X124296712Y-122073295D01*
X124296712Y-122073295D02*
X124296712Y-122168533D01*
X124296712Y-122168533D02*
X124249093Y-122263771D01*
X124249093Y-122263771D02*
X124201474Y-122311390D01*
X124201474Y-122311390D02*
X124106236Y-122359009D01*
X124106236Y-122359009D02*
X123772903Y-122359009D01*
X125201474Y-122882819D02*
X125201474Y-122359009D01*
X125201474Y-122359009D02*
X125153855Y-122263771D01*
X125153855Y-122263771D02*
X125058617Y-122216152D01*
X125058617Y-122216152D02*
X124868141Y-122216152D01*
X124868141Y-122216152D02*
X124772903Y-122263771D01*
X125201474Y-122835200D02*
X125106236Y-122882819D01*
X125106236Y-122882819D02*
X124868141Y-122882819D01*
X124868141Y-122882819D02*
X124772903Y-122835200D01*
X124772903Y-122835200D02*
X124725284Y-122739961D01*
X124725284Y-122739961D02*
X124725284Y-122644723D01*
X124725284Y-122644723D02*
X124772903Y-122549485D01*
X124772903Y-122549485D02*
X124868141Y-122501866D01*
X124868141Y-122501866D02*
X125106236Y-122501866D01*
X125106236Y-122501866D02*
X125201474Y-122454247D01*
X125534808Y-122216152D02*
X125915760Y-122216152D01*
X125677665Y-121882819D02*
X125677665Y-122739961D01*
X125677665Y-122739961D02*
X125725284Y-122835200D01*
X125725284Y-122835200D02*
X125820522Y-122882819D01*
X125820522Y-122882819D02*
X125915760Y-122882819D01*
X126106237Y-122216152D02*
X126487189Y-122216152D01*
X126249094Y-121882819D02*
X126249094Y-122739961D01*
X126249094Y-122739961D02*
X126296713Y-122835200D01*
X126296713Y-122835200D02*
X126391951Y-122882819D01*
X126391951Y-122882819D02*
X126487189Y-122882819D01*
X127201475Y-122835200D02*
X127106237Y-122882819D01*
X127106237Y-122882819D02*
X126915761Y-122882819D01*
X126915761Y-122882819D02*
X126820523Y-122835200D01*
X126820523Y-122835200D02*
X126772904Y-122739961D01*
X126772904Y-122739961D02*
X126772904Y-122359009D01*
X126772904Y-122359009D02*
X126820523Y-122263771D01*
X126820523Y-122263771D02*
X126915761Y-122216152D01*
X126915761Y-122216152D02*
X127106237Y-122216152D01*
X127106237Y-122216152D02*
X127201475Y-122263771D01*
X127201475Y-122263771D02*
X127249094Y-122359009D01*
X127249094Y-122359009D02*
X127249094Y-122454247D01*
X127249094Y-122454247D02*
X126772904Y-122549485D01*
X127677666Y-122882819D02*
X127677666Y-122216152D01*
X127677666Y-122406628D02*
X127725285Y-122311390D01*
X127725285Y-122311390D02*
X127772904Y-122263771D01*
X127772904Y-122263771D02*
X127868142Y-122216152D01*
X127868142Y-122216152D02*
X127963380Y-122216152D01*
X128201476Y-122216152D02*
X128439571Y-122882819D01*
X128677666Y-122216152D02*
X128439571Y-122882819D01*
X128439571Y-122882819D02*
X128344333Y-123120914D01*
X128344333Y-123120914D02*
X128296714Y-123168533D01*
X128296714Y-123168533D02*
X128201476Y-123216152D01*
X128820524Y-122978057D02*
X129582428Y-122978057D01*
X130391952Y-122787580D02*
X130344333Y-122835200D01*
X130344333Y-122835200D02*
X130201476Y-122882819D01*
X130201476Y-122882819D02*
X130106238Y-122882819D01*
X130106238Y-122882819D02*
X129963381Y-122835200D01*
X129963381Y-122835200D02*
X129868143Y-122739961D01*
X129868143Y-122739961D02*
X129820524Y-122644723D01*
X129820524Y-122644723D02*
X129772905Y-122454247D01*
X129772905Y-122454247D02*
X129772905Y-122311390D01*
X129772905Y-122311390D02*
X129820524Y-122120914D01*
X129820524Y-122120914D02*
X129868143Y-122025676D01*
X129868143Y-122025676D02*
X129963381Y-121930438D01*
X129963381Y-121930438D02*
X130106238Y-121882819D01*
X130106238Y-121882819D02*
X130201476Y-121882819D01*
X130201476Y-121882819D02*
X130344333Y-121930438D01*
X130344333Y-121930438D02*
X130391952Y-121978057D01*
X131201476Y-122835200D02*
X131106238Y-122882819D01*
X131106238Y-122882819D02*
X130915762Y-122882819D01*
X130915762Y-122882819D02*
X130820524Y-122835200D01*
X130820524Y-122835200D02*
X130772905Y-122739961D01*
X130772905Y-122739961D02*
X130772905Y-122359009D01*
X130772905Y-122359009D02*
X130820524Y-122263771D01*
X130820524Y-122263771D02*
X130915762Y-122216152D01*
X130915762Y-122216152D02*
X131106238Y-122216152D01*
X131106238Y-122216152D02*
X131201476Y-122263771D01*
X131201476Y-122263771D02*
X131249095Y-122359009D01*
X131249095Y-122359009D02*
X131249095Y-122454247D01*
X131249095Y-122454247D02*
X130772905Y-122549485D01*
X131820524Y-122882819D02*
X131725286Y-122835200D01*
X131725286Y-122835200D02*
X131677667Y-122739961D01*
X131677667Y-122739961D02*
X131677667Y-121882819D01*
X132344334Y-122882819D02*
X132249096Y-122835200D01*
X132249096Y-122835200D02*
X132201477Y-122739961D01*
X132201477Y-122739961D02*
X132201477Y-121882819D01*
X127230285Y-122359009D02*
X127373142Y-122406628D01*
X127373142Y-122406628D02*
X127420761Y-122454247D01*
X127420761Y-122454247D02*
X127468380Y-122549485D01*
X127468380Y-122549485D02*
X127468380Y-122692342D01*
X127468380Y-122692342D02*
X127420761Y-122787580D01*
X127420761Y-122787580D02*
X127373142Y-122835200D01*
X127373142Y-122835200D02*
X127277904Y-122882819D01*
X127277904Y-122882819D02*
X126896952Y-122882819D01*
X126896952Y-122882819D02*
X126896952Y-121882819D01*
X126896952Y-121882819D02*
X127230285Y-121882819D01*
X127230285Y-121882819D02*
X127325523Y-121930438D01*
X127325523Y-121930438D02*
X127373142Y-121978057D01*
X127373142Y-121978057D02*
X127420761Y-122073295D01*
X127420761Y-122073295D02*
X127420761Y-122168533D01*
X127420761Y-122168533D02*
X127373142Y-122263771D01*
X127373142Y-122263771D02*
X127325523Y-122311390D01*
X127325523Y-122311390D02*
X127230285Y-122359009D01*
X127230285Y-122359009D02*
X126896952Y-122359009D01*
X127754095Y-121882819D02*
X128325523Y-121882819D01*
X128039809Y-122882819D02*
X128039809Y-121882819D01*
X129182666Y-122882819D02*
X128611238Y-122882819D01*
X128896952Y-122882819D02*
X128896952Y-121882819D01*
X128896952Y-121882819D02*
X128801714Y-122025676D01*
X128801714Y-122025676D02*
X128706476Y-122120914D01*
X128706476Y-122120914D02*
X128611238Y-122168533D01*
X132090475Y-123284580D02*
X132042856Y-123332200D01*
X132042856Y-123332200D02*
X131899999Y-123379819D01*
X131899999Y-123379819D02*
X131804761Y-123379819D01*
X131804761Y-123379819D02*
X131661904Y-123332200D01*
X131661904Y-123332200D02*
X131566666Y-123236961D01*
X131566666Y-123236961D02*
X131519047Y-123141723D01*
X131519047Y-123141723D02*
X131471428Y-122951247D01*
X131471428Y-122951247D02*
X131471428Y-122808390D01*
X131471428Y-122808390D02*
X131519047Y-122617914D01*
X131519047Y-122617914D02*
X131566666Y-122522676D01*
X131566666Y-122522676D02*
X131661904Y-122427438D01*
X131661904Y-122427438D02*
X131804761Y-122379819D01*
X131804761Y-122379819D02*
X131899999Y-122379819D01*
X131899999Y-122379819D02*
X132042856Y-122427438D01*
X132042856Y-122427438D02*
X132090475Y-122475057D01*
X132661904Y-123379819D02*
X132566666Y-123332200D01*
X132566666Y-123332200D02*
X132519047Y-123284580D01*
X132519047Y-123284580D02*
X132471428Y-123189342D01*
X132471428Y-123189342D02*
X132471428Y-122903628D01*
X132471428Y-122903628D02*
X132519047Y-122808390D01*
X132519047Y-122808390D02*
X132566666Y-122760771D01*
X132566666Y-122760771D02*
X132661904Y-122713152D01*
X132661904Y-122713152D02*
X132804761Y-122713152D01*
X132804761Y-122713152D02*
X132899999Y-122760771D01*
X132899999Y-122760771D02*
X132947618Y-122808390D01*
X132947618Y-122808390D02*
X132995237Y-122903628D01*
X132995237Y-122903628D02*
X132995237Y-123189342D01*
X132995237Y-123189342D02*
X132947618Y-123284580D01*
X132947618Y-123284580D02*
X132899999Y-123332200D01*
X132899999Y-123332200D02*
X132804761Y-123379819D01*
X132804761Y-123379819D02*
X132661904Y-123379819D01*
X133423809Y-122713152D02*
X133423809Y-123379819D01*
X133423809Y-122808390D02*
X133471428Y-122760771D01*
X133471428Y-122760771D02*
X133566666Y-122713152D01*
X133566666Y-122713152D02*
X133709523Y-122713152D01*
X133709523Y-122713152D02*
X133804761Y-122760771D01*
X133804761Y-122760771D02*
X133852380Y-122856009D01*
X133852380Y-122856009D02*
X133852380Y-123379819D01*
X134328571Y-122713152D02*
X134328571Y-123379819D01*
X134328571Y-122808390D02*
X134376190Y-122760771D01*
X134376190Y-122760771D02*
X134471428Y-122713152D01*
X134471428Y-122713152D02*
X134614285Y-122713152D01*
X134614285Y-122713152D02*
X134709523Y-122760771D01*
X134709523Y-122760771D02*
X134757142Y-122856009D01*
X134757142Y-122856009D02*
X134757142Y-123379819D01*
X134995238Y-123475057D02*
X135757142Y-123475057D01*
X136185714Y-122379819D02*
X136280952Y-122379819D01*
X136280952Y-122379819D02*
X136376190Y-122427438D01*
X136376190Y-122427438D02*
X136423809Y-122475057D01*
X136423809Y-122475057D02*
X136471428Y-122570295D01*
X136471428Y-122570295D02*
X136519047Y-122760771D01*
X136519047Y-122760771D02*
X136519047Y-122998866D01*
X136519047Y-122998866D02*
X136471428Y-123189342D01*
X136471428Y-123189342D02*
X136423809Y-123284580D01*
X136423809Y-123284580D02*
X136376190Y-123332200D01*
X136376190Y-123332200D02*
X136280952Y-123379819D01*
X136280952Y-123379819D02*
X136185714Y-123379819D01*
X136185714Y-123379819D02*
X136090476Y-123332200D01*
X136090476Y-123332200D02*
X136042857Y-123284580D01*
X136042857Y-123284580D02*
X135995238Y-123189342D01*
X135995238Y-123189342D02*
X135947619Y-122998866D01*
X135947619Y-122998866D02*
X135947619Y-122760771D01*
X135947619Y-122760771D02*
X135995238Y-122570295D01*
X135995238Y-122570295D02*
X136042857Y-122475057D01*
X136042857Y-122475057D02*
X136090476Y-122427438D01*
X136090476Y-122427438D02*
X136185714Y-122379819D01*
X137471428Y-123379819D02*
X136900000Y-123379819D01*
X137185714Y-123379819D02*
X137185714Y-122379819D01*
X137185714Y-122379819D02*
X137090476Y-122522676D01*
X137090476Y-122522676D02*
X136995238Y-122617914D01*
X136995238Y-122617914D02*
X136900000Y-122665533D01*
X137804762Y-123379819D02*
X138328571Y-122713152D01*
X137804762Y-122713152D02*
X138328571Y-123379819D01*
X139233333Y-123379819D02*
X138661905Y-123379819D01*
X138947619Y-123379819D02*
X138947619Y-122379819D01*
X138947619Y-122379819D02*
X138852381Y-122522676D01*
X138852381Y-122522676D02*
X138757143Y-122617914D01*
X138757143Y-122617914D02*
X138661905Y-122665533D01*
X139804762Y-122808390D02*
X139709524Y-122760771D01*
X139709524Y-122760771D02*
X139661905Y-122713152D01*
X139661905Y-122713152D02*
X139614286Y-122617914D01*
X139614286Y-122617914D02*
X139614286Y-122570295D01*
X139614286Y-122570295D02*
X139661905Y-122475057D01*
X139661905Y-122475057D02*
X139709524Y-122427438D01*
X139709524Y-122427438D02*
X139804762Y-122379819D01*
X139804762Y-122379819D02*
X139995238Y-122379819D01*
X139995238Y-122379819D02*
X140090476Y-122427438D01*
X140090476Y-122427438D02*
X140138095Y-122475057D01*
X140138095Y-122475057D02*
X140185714Y-122570295D01*
X140185714Y-122570295D02*
X140185714Y-122617914D01*
X140185714Y-122617914D02*
X140138095Y-122713152D01*
X140138095Y-122713152D02*
X140090476Y-122760771D01*
X140090476Y-122760771D02*
X139995238Y-122808390D01*
X139995238Y-122808390D02*
X139804762Y-122808390D01*
X139804762Y-122808390D02*
X139709524Y-122856009D01*
X139709524Y-122856009D02*
X139661905Y-122903628D01*
X139661905Y-122903628D02*
X139614286Y-122998866D01*
X139614286Y-122998866D02*
X139614286Y-123189342D01*
X139614286Y-123189342D02*
X139661905Y-123284580D01*
X139661905Y-123284580D02*
X139709524Y-123332200D01*
X139709524Y-123332200D02*
X139804762Y-123379819D01*
X139804762Y-123379819D02*
X139995238Y-123379819D01*
X139995238Y-123379819D02*
X140090476Y-123332200D01*
X140090476Y-123332200D02*
X140138095Y-123284580D01*
X140138095Y-123284580D02*
X140185714Y-123189342D01*
X140185714Y-123189342D02*
X140185714Y-122998866D01*
X140185714Y-122998866D02*
X140138095Y-122903628D01*
X140138095Y-122903628D02*
X140090476Y-122856009D01*
X140090476Y-122856009D02*
X139995238Y-122808390D01*
X140376191Y-123475057D02*
X141138095Y-123475057D01*
X141376191Y-123379819D02*
X141376191Y-122379819D01*
X141376191Y-122379819D02*
X141757143Y-122379819D01*
X141757143Y-122379819D02*
X141852381Y-122427438D01*
X141852381Y-122427438D02*
X141900000Y-122475057D01*
X141900000Y-122475057D02*
X141947619Y-122570295D01*
X141947619Y-122570295D02*
X141947619Y-122713152D01*
X141947619Y-122713152D02*
X141900000Y-122808390D01*
X141900000Y-122808390D02*
X141852381Y-122856009D01*
X141852381Y-122856009D02*
X141757143Y-122903628D01*
X141757143Y-122903628D02*
X141376191Y-122903628D01*
X142376191Y-123379819D02*
X142376191Y-122713152D01*
X142376191Y-122379819D02*
X142328572Y-122427438D01*
X142328572Y-122427438D02*
X142376191Y-122475057D01*
X142376191Y-122475057D02*
X142423810Y-122427438D01*
X142423810Y-122427438D02*
X142376191Y-122379819D01*
X142376191Y-122379819D02*
X142376191Y-122475057D01*
X142852381Y-122713152D02*
X142852381Y-123379819D01*
X142852381Y-122808390D02*
X142900000Y-122760771D01*
X142900000Y-122760771D02*
X142995238Y-122713152D01*
X142995238Y-122713152D02*
X143138095Y-122713152D01*
X143138095Y-122713152D02*
X143233333Y-122760771D01*
X143233333Y-122760771D02*
X143280952Y-122856009D01*
X143280952Y-122856009D02*
X143280952Y-123379819D01*
X133054819Y-100668333D02*
X133769104Y-100668333D01*
X133769104Y-100668333D02*
X133911961Y-100715952D01*
X133911961Y-100715952D02*
X134007200Y-100811190D01*
X134007200Y-100811190D02*
X134054819Y-100954047D01*
X134054819Y-100954047D02*
X134054819Y-101049285D01*
X134054819Y-99668333D02*
X134054819Y-100239761D01*
X134054819Y-99954047D02*
X133054819Y-99954047D01*
X133054819Y-99954047D02*
X133197676Y-100049285D01*
X133197676Y-100049285D02*
X133292914Y-100144523D01*
X133292914Y-100144523D02*
X133340533Y-100239761D01*
X126504819Y-75296428D02*
X126504819Y-75867856D01*
X126504819Y-75582142D02*
X125504819Y-75582142D01*
X125504819Y-75582142D02*
X125647676Y-75677380D01*
X125647676Y-75677380D02*
X125742914Y-75772618D01*
X125742914Y-75772618D02*
X125790533Y-75867856D01*
X125504819Y-74677380D02*
X125504819Y-74582142D01*
X125504819Y-74582142D02*
X125552438Y-74486904D01*
X125552438Y-74486904D02*
X125600057Y-74439285D01*
X125600057Y-74439285D02*
X125695295Y-74391666D01*
X125695295Y-74391666D02*
X125885771Y-74344047D01*
X125885771Y-74344047D02*
X126123866Y-74344047D01*
X126123866Y-74344047D02*
X126314342Y-74391666D01*
X126314342Y-74391666D02*
X126409580Y-74439285D01*
X126409580Y-74439285D02*
X126457200Y-74486904D01*
X126457200Y-74486904D02*
X126504819Y-74582142D01*
X126504819Y-74582142D02*
X126504819Y-74677380D01*
X126504819Y-74677380D02*
X126457200Y-74772618D01*
X126457200Y-74772618D02*
X126409580Y-74820237D01*
X126409580Y-74820237D02*
X126314342Y-74867856D01*
X126314342Y-74867856D02*
X126123866Y-74915475D01*
X126123866Y-74915475D02*
X125885771Y-74915475D01*
X125885771Y-74915475D02*
X125695295Y-74867856D01*
X125695295Y-74867856D02*
X125600057Y-74820237D01*
X125600057Y-74820237D02*
X125552438Y-74772618D01*
X125552438Y-74772618D02*
X125504819Y-74677380D01*
X125504819Y-73724999D02*
X125504819Y-73629761D01*
X125504819Y-73629761D02*
X125552438Y-73534523D01*
X125552438Y-73534523D02*
X125600057Y-73486904D01*
X125600057Y-73486904D02*
X125695295Y-73439285D01*
X125695295Y-73439285D02*
X125885771Y-73391666D01*
X125885771Y-73391666D02*
X126123866Y-73391666D01*
X126123866Y-73391666D02*
X126314342Y-73439285D01*
X126314342Y-73439285D02*
X126409580Y-73486904D01*
X126409580Y-73486904D02*
X126457200Y-73534523D01*
X126457200Y-73534523D02*
X126504819Y-73629761D01*
X126504819Y-73629761D02*
X126504819Y-73724999D01*
X126504819Y-73724999D02*
X126457200Y-73820237D01*
X126457200Y-73820237D02*
X126409580Y-73867856D01*
X126409580Y-73867856D02*
X126314342Y-73915475D01*
X126314342Y-73915475D02*
X126123866Y-73963094D01*
X126123866Y-73963094D02*
X125885771Y-73963094D01*
X125885771Y-73963094D02*
X125695295Y-73915475D01*
X125695295Y-73915475D02*
X125600057Y-73867856D01*
X125600057Y-73867856D02*
X125552438Y-73820237D01*
X125552438Y-73820237D02*
X125504819Y-73724999D01*
X126504819Y-72963094D02*
X125504819Y-72963094D01*
X126123866Y-72867856D02*
X126504819Y-72582142D01*
X125838152Y-72582142D02*
X126219104Y-72963094D01*
X128058333Y-74579819D02*
X127725000Y-74103628D01*
X127486905Y-74579819D02*
X127486905Y-73579819D01*
X127486905Y-73579819D02*
X127867857Y-73579819D01*
X127867857Y-73579819D02*
X127963095Y-73627438D01*
X127963095Y-73627438D02*
X128010714Y-73675057D01*
X128010714Y-73675057D02*
X128058333Y-73770295D01*
X128058333Y-73770295D02*
X128058333Y-73913152D01*
X128058333Y-73913152D02*
X128010714Y-74008390D01*
X128010714Y-74008390D02*
X127963095Y-74056009D01*
X127963095Y-74056009D02*
X127867857Y-74103628D01*
X127867857Y-74103628D02*
X127486905Y-74103628D01*
X128963095Y-73579819D02*
X128486905Y-73579819D01*
X128486905Y-73579819D02*
X128439286Y-74056009D01*
X128439286Y-74056009D02*
X128486905Y-74008390D01*
X128486905Y-74008390D02*
X128582143Y-73960771D01*
X128582143Y-73960771D02*
X128820238Y-73960771D01*
X128820238Y-73960771D02*
X128915476Y-74008390D01*
X128915476Y-74008390D02*
X128963095Y-74056009D01*
X128963095Y-74056009D02*
X129010714Y-74151247D01*
X129010714Y-74151247D02*
X129010714Y-74389342D01*
X129010714Y-74389342D02*
X128963095Y-74484580D01*
X128963095Y-74484580D02*
X128915476Y-74532200D01*
X128915476Y-74532200D02*
X128820238Y-74579819D01*
X128820238Y-74579819D02*
X128582143Y-74579819D01*
X128582143Y-74579819D02*
X128486905Y-74532200D01*
X128486905Y-74532200D02*
X128439286Y-74484580D01*
X124903333Y-111876819D02*
X124331905Y-111876819D01*
X124617619Y-111876819D02*
X124617619Y-110876819D01*
X124617619Y-110876819D02*
X124522381Y-111019676D01*
X124522381Y-111019676D02*
X124427143Y-111114914D01*
X124427143Y-111114914D02*
X124331905Y-111162533D01*
X125379524Y-111876819D02*
X125570000Y-111876819D01*
X125570000Y-111876819D02*
X125665238Y-111829200D01*
X125665238Y-111829200D02*
X125712857Y-111781580D01*
X125712857Y-111781580D02*
X125808095Y-111638723D01*
X125808095Y-111638723D02*
X125855714Y-111448247D01*
X125855714Y-111448247D02*
X125855714Y-111067295D01*
X125855714Y-111067295D02*
X125808095Y-110972057D01*
X125808095Y-110972057D02*
X125760476Y-110924438D01*
X125760476Y-110924438D02*
X125665238Y-110876819D01*
X125665238Y-110876819D02*
X125474762Y-110876819D01*
X125474762Y-110876819D02*
X125379524Y-110924438D01*
X125379524Y-110924438D02*
X125331905Y-110972057D01*
X125331905Y-110972057D02*
X125284286Y-111067295D01*
X125284286Y-111067295D02*
X125284286Y-111305390D01*
X125284286Y-111305390D02*
X125331905Y-111400628D01*
X125331905Y-111400628D02*
X125379524Y-111448247D01*
X125379524Y-111448247D02*
X125474762Y-111495866D01*
X125474762Y-111495866D02*
X125665238Y-111495866D01*
X125665238Y-111495866D02*
X125760476Y-111448247D01*
X125760476Y-111448247D02*
X125808095Y-111400628D01*
X125808095Y-111400628D02*
X125855714Y-111305390D01*
X126474762Y-110876819D02*
X126570000Y-110876819D01*
X126570000Y-110876819D02*
X126665238Y-110924438D01*
X126665238Y-110924438D02*
X126712857Y-110972057D01*
X126712857Y-110972057D02*
X126760476Y-111067295D01*
X126760476Y-111067295D02*
X126808095Y-111257771D01*
X126808095Y-111257771D02*
X126808095Y-111495866D01*
X126808095Y-111495866D02*
X126760476Y-111686342D01*
X126760476Y-111686342D02*
X126712857Y-111781580D01*
X126712857Y-111781580D02*
X126665238Y-111829200D01*
X126665238Y-111829200D02*
X126570000Y-111876819D01*
X126570000Y-111876819D02*
X126474762Y-111876819D01*
X126474762Y-111876819D02*
X126379524Y-111829200D01*
X126379524Y-111829200D02*
X126331905Y-111781580D01*
X126331905Y-111781580D02*
X126284286Y-111686342D01*
X126284286Y-111686342D02*
X126236667Y-111495866D01*
X126236667Y-111495866D02*
X126236667Y-111257771D01*
X126236667Y-111257771D02*
X126284286Y-111067295D01*
X126284286Y-111067295D02*
X126331905Y-110972057D01*
X126331905Y-110972057D02*
X126379524Y-110924438D01*
X126379524Y-110924438D02*
X126474762Y-110876819D01*
X125403333Y-114246819D02*
X125070000Y-113770628D01*
X124831905Y-114246819D02*
X124831905Y-113246819D01*
X124831905Y-113246819D02*
X125212857Y-113246819D01*
X125212857Y-113246819D02*
X125308095Y-113294438D01*
X125308095Y-113294438D02*
X125355714Y-113342057D01*
X125355714Y-113342057D02*
X125403333Y-113437295D01*
X125403333Y-113437295D02*
X125403333Y-113580152D01*
X125403333Y-113580152D02*
X125355714Y-113675390D01*
X125355714Y-113675390D02*
X125308095Y-113723009D01*
X125308095Y-113723009D02*
X125212857Y-113770628D01*
X125212857Y-113770628D02*
X124831905Y-113770628D01*
X125784286Y-113342057D02*
X125831905Y-113294438D01*
X125831905Y-113294438D02*
X125927143Y-113246819D01*
X125927143Y-113246819D02*
X126165238Y-113246819D01*
X126165238Y-113246819D02*
X126260476Y-113294438D01*
X126260476Y-113294438D02*
X126308095Y-113342057D01*
X126308095Y-113342057D02*
X126355714Y-113437295D01*
X126355714Y-113437295D02*
X126355714Y-113532533D01*
X126355714Y-113532533D02*
X126308095Y-113675390D01*
X126308095Y-113675390D02*
X125736667Y-114246819D01*
X125736667Y-114246819D02*
X126355714Y-114246819D01*
X123842580Y-93971239D02*
X123890200Y-94018858D01*
X123890200Y-94018858D02*
X123937819Y-94161715D01*
X123937819Y-94161715D02*
X123937819Y-94256953D01*
X123937819Y-94256953D02*
X123890200Y-94399810D01*
X123890200Y-94399810D02*
X123794961Y-94495048D01*
X123794961Y-94495048D02*
X123699723Y-94542667D01*
X123699723Y-94542667D02*
X123509247Y-94590286D01*
X123509247Y-94590286D02*
X123366390Y-94590286D01*
X123366390Y-94590286D02*
X123175914Y-94542667D01*
X123175914Y-94542667D02*
X123080676Y-94495048D01*
X123080676Y-94495048D02*
X122985438Y-94399810D01*
X122985438Y-94399810D02*
X122937819Y-94256953D01*
X122937819Y-94256953D02*
X122937819Y-94161715D01*
X122937819Y-94161715D02*
X122985438Y-94018858D01*
X122985438Y-94018858D02*
X123033057Y-93971239D01*
X123937819Y-93399810D02*
X123890200Y-93495048D01*
X123890200Y-93495048D02*
X123842580Y-93542667D01*
X123842580Y-93542667D02*
X123747342Y-93590286D01*
X123747342Y-93590286D02*
X123461628Y-93590286D01*
X123461628Y-93590286D02*
X123366390Y-93542667D01*
X123366390Y-93542667D02*
X123318771Y-93495048D01*
X123318771Y-93495048D02*
X123271152Y-93399810D01*
X123271152Y-93399810D02*
X123271152Y-93256953D01*
X123271152Y-93256953D02*
X123318771Y-93161715D01*
X123318771Y-93161715D02*
X123366390Y-93114096D01*
X123366390Y-93114096D02*
X123461628Y-93066477D01*
X123461628Y-93066477D02*
X123747342Y-93066477D01*
X123747342Y-93066477D02*
X123842580Y-93114096D01*
X123842580Y-93114096D02*
X123890200Y-93161715D01*
X123890200Y-93161715D02*
X123937819Y-93256953D01*
X123937819Y-93256953D02*
X123937819Y-93399810D01*
X123271152Y-92637905D02*
X123937819Y-92637905D01*
X123366390Y-92637905D02*
X123318771Y-92590286D01*
X123318771Y-92590286D02*
X123271152Y-92495048D01*
X123271152Y-92495048D02*
X123271152Y-92352191D01*
X123271152Y-92352191D02*
X123318771Y-92256953D01*
X123318771Y-92256953D02*
X123414009Y-92209334D01*
X123414009Y-92209334D02*
X123937819Y-92209334D01*
X123271152Y-91733143D02*
X123937819Y-91733143D01*
X123366390Y-91733143D02*
X123318771Y-91685524D01*
X123318771Y-91685524D02*
X123271152Y-91590286D01*
X123271152Y-91590286D02*
X123271152Y-91447429D01*
X123271152Y-91447429D02*
X123318771Y-91352191D01*
X123318771Y-91352191D02*
X123414009Y-91304572D01*
X123414009Y-91304572D02*
X123937819Y-91304572D01*
X124033057Y-91066477D02*
X124033057Y-90304572D01*
X122937819Y-89876000D02*
X122937819Y-89780762D01*
X122937819Y-89780762D02*
X122985438Y-89685524D01*
X122985438Y-89685524D02*
X123033057Y-89637905D01*
X123033057Y-89637905D02*
X123128295Y-89590286D01*
X123128295Y-89590286D02*
X123318771Y-89542667D01*
X123318771Y-89542667D02*
X123556866Y-89542667D01*
X123556866Y-89542667D02*
X123747342Y-89590286D01*
X123747342Y-89590286D02*
X123842580Y-89637905D01*
X123842580Y-89637905D02*
X123890200Y-89685524D01*
X123890200Y-89685524D02*
X123937819Y-89780762D01*
X123937819Y-89780762D02*
X123937819Y-89876000D01*
X123937819Y-89876000D02*
X123890200Y-89971238D01*
X123890200Y-89971238D02*
X123842580Y-90018857D01*
X123842580Y-90018857D02*
X123747342Y-90066476D01*
X123747342Y-90066476D02*
X123556866Y-90114095D01*
X123556866Y-90114095D02*
X123318771Y-90114095D01*
X123318771Y-90114095D02*
X123128295Y-90066476D01*
X123128295Y-90066476D02*
X123033057Y-90018857D01*
X123033057Y-90018857D02*
X122985438Y-89971238D01*
X122985438Y-89971238D02*
X122937819Y-89876000D01*
X123937819Y-88590286D02*
X123937819Y-89161714D01*
X123937819Y-88876000D02*
X122937819Y-88876000D01*
X122937819Y-88876000D02*
X123080676Y-88971238D01*
X123080676Y-88971238D02*
X123175914Y-89066476D01*
X123175914Y-89066476D02*
X123223533Y-89161714D01*
X123937819Y-88256952D02*
X123271152Y-87733143D01*
X123271152Y-88256952D02*
X123937819Y-87733143D01*
X122937819Y-87161714D02*
X122937819Y-87066476D01*
X122937819Y-87066476D02*
X122985438Y-86971238D01*
X122985438Y-86971238D02*
X123033057Y-86923619D01*
X123033057Y-86923619D02*
X123128295Y-86876000D01*
X123128295Y-86876000D02*
X123318771Y-86828381D01*
X123318771Y-86828381D02*
X123556866Y-86828381D01*
X123556866Y-86828381D02*
X123747342Y-86876000D01*
X123747342Y-86876000D02*
X123842580Y-86923619D01*
X123842580Y-86923619D02*
X123890200Y-86971238D01*
X123890200Y-86971238D02*
X123937819Y-87066476D01*
X123937819Y-87066476D02*
X123937819Y-87161714D01*
X123937819Y-87161714D02*
X123890200Y-87256952D01*
X123890200Y-87256952D02*
X123842580Y-87304571D01*
X123842580Y-87304571D02*
X123747342Y-87352190D01*
X123747342Y-87352190D02*
X123556866Y-87399809D01*
X123556866Y-87399809D02*
X123318771Y-87399809D01*
X123318771Y-87399809D02*
X123128295Y-87352190D01*
X123128295Y-87352190D02*
X123033057Y-87304571D01*
X123033057Y-87304571D02*
X122985438Y-87256952D01*
X122985438Y-87256952D02*
X122937819Y-87161714D01*
X123033057Y-86447428D02*
X122985438Y-86399809D01*
X122985438Y-86399809D02*
X122937819Y-86304571D01*
X122937819Y-86304571D02*
X122937819Y-86066476D01*
X122937819Y-86066476D02*
X122985438Y-85971238D01*
X122985438Y-85971238D02*
X123033057Y-85923619D01*
X123033057Y-85923619D02*
X123128295Y-85876000D01*
X123128295Y-85876000D02*
X123223533Y-85876000D01*
X123223533Y-85876000D02*
X123366390Y-85923619D01*
X123366390Y-85923619D02*
X123937819Y-86495047D01*
X123937819Y-86495047D02*
X123937819Y-85876000D01*
X124033057Y-85685524D02*
X124033057Y-84923619D01*
X123890200Y-84733142D02*
X123937819Y-84590285D01*
X123937819Y-84590285D02*
X123937819Y-84352190D01*
X123937819Y-84352190D02*
X123890200Y-84256952D01*
X123890200Y-84256952D02*
X123842580Y-84209333D01*
X123842580Y-84209333D02*
X123747342Y-84161714D01*
X123747342Y-84161714D02*
X123652104Y-84161714D01*
X123652104Y-84161714D02*
X123556866Y-84209333D01*
X123556866Y-84209333D02*
X123509247Y-84256952D01*
X123509247Y-84256952D02*
X123461628Y-84352190D01*
X123461628Y-84352190D02*
X123414009Y-84542666D01*
X123414009Y-84542666D02*
X123366390Y-84637904D01*
X123366390Y-84637904D02*
X123318771Y-84685523D01*
X123318771Y-84685523D02*
X123223533Y-84733142D01*
X123223533Y-84733142D02*
X123128295Y-84733142D01*
X123128295Y-84733142D02*
X123033057Y-84685523D01*
X123033057Y-84685523D02*
X122985438Y-84637904D01*
X122985438Y-84637904D02*
X122937819Y-84542666D01*
X122937819Y-84542666D02*
X122937819Y-84304571D01*
X122937819Y-84304571D02*
X122985438Y-84161714D01*
X123937819Y-83590285D02*
X123890200Y-83685523D01*
X123890200Y-83685523D02*
X123842580Y-83733142D01*
X123842580Y-83733142D02*
X123747342Y-83780761D01*
X123747342Y-83780761D02*
X123461628Y-83780761D01*
X123461628Y-83780761D02*
X123366390Y-83733142D01*
X123366390Y-83733142D02*
X123318771Y-83685523D01*
X123318771Y-83685523D02*
X123271152Y-83590285D01*
X123271152Y-83590285D02*
X123271152Y-83447428D01*
X123271152Y-83447428D02*
X123318771Y-83352190D01*
X123318771Y-83352190D02*
X123366390Y-83304571D01*
X123366390Y-83304571D02*
X123461628Y-83256952D01*
X123461628Y-83256952D02*
X123747342Y-83256952D01*
X123747342Y-83256952D02*
X123842580Y-83304571D01*
X123842580Y-83304571D02*
X123890200Y-83352190D01*
X123890200Y-83352190D02*
X123937819Y-83447428D01*
X123937819Y-83447428D02*
X123937819Y-83590285D01*
X123890200Y-82399809D02*
X123937819Y-82495047D01*
X123937819Y-82495047D02*
X123937819Y-82685523D01*
X123937819Y-82685523D02*
X123890200Y-82780761D01*
X123890200Y-82780761D02*
X123842580Y-82828380D01*
X123842580Y-82828380D02*
X123747342Y-82875999D01*
X123747342Y-82875999D02*
X123461628Y-82875999D01*
X123461628Y-82875999D02*
X123366390Y-82828380D01*
X123366390Y-82828380D02*
X123318771Y-82780761D01*
X123318771Y-82780761D02*
X123271152Y-82685523D01*
X123271152Y-82685523D02*
X123271152Y-82495047D01*
X123271152Y-82495047D02*
X123318771Y-82399809D01*
X123937819Y-81971237D02*
X122937819Y-81971237D01*
X123556866Y-81875999D02*
X123937819Y-81590285D01*
X123271152Y-81590285D02*
X123652104Y-81971237D01*
X123890200Y-80780761D02*
X123937819Y-80875999D01*
X123937819Y-80875999D02*
X123937819Y-81066475D01*
X123937819Y-81066475D02*
X123890200Y-81161713D01*
X123890200Y-81161713D02*
X123794961Y-81209332D01*
X123794961Y-81209332D02*
X123414009Y-81209332D01*
X123414009Y-81209332D02*
X123318771Y-81161713D01*
X123318771Y-81161713D02*
X123271152Y-81066475D01*
X123271152Y-81066475D02*
X123271152Y-80875999D01*
X123271152Y-80875999D02*
X123318771Y-80780761D01*
X123318771Y-80780761D02*
X123414009Y-80733142D01*
X123414009Y-80733142D02*
X123509247Y-80733142D01*
X123509247Y-80733142D02*
X123604485Y-81209332D01*
X123271152Y-80447427D02*
X123271152Y-80066475D01*
X122937819Y-80304570D02*
X123794961Y-80304570D01*
X123794961Y-80304570D02*
X123890200Y-80256951D01*
X123890200Y-80256951D02*
X123937819Y-80161713D01*
X123937819Y-80161713D02*
X123937819Y-80066475D01*
X119549666Y-86830819D02*
X119549666Y-87545104D01*
X119549666Y-87545104D02*
X119502047Y-87687961D01*
X119502047Y-87687961D02*
X119406809Y-87783200D01*
X119406809Y-87783200D02*
X119263952Y-87830819D01*
X119263952Y-87830819D02*
X119168714Y-87830819D01*
X119930619Y-86830819D02*
X120549666Y-86830819D01*
X120549666Y-86830819D02*
X120216333Y-87211771D01*
X120216333Y-87211771D02*
X120359190Y-87211771D01*
X120359190Y-87211771D02*
X120454428Y-87259390D01*
X120454428Y-87259390D02*
X120502047Y-87307009D01*
X120502047Y-87307009D02*
X120549666Y-87402247D01*
X120549666Y-87402247D02*
X120549666Y-87640342D01*
X120549666Y-87640342D02*
X120502047Y-87735580D01*
X120502047Y-87735580D02*
X120454428Y-87783200D01*
X120454428Y-87783200D02*
X120359190Y-87830819D01*
X120359190Y-87830819D02*
X120073476Y-87830819D01*
X120073476Y-87830819D02*
X119978238Y-87783200D01*
X119978238Y-87783200D02*
X119930619Y-87735580D01*
X122436760Y-107083580D02*
X122389141Y-107131200D01*
X122389141Y-107131200D02*
X122246284Y-107178819D01*
X122246284Y-107178819D02*
X122151046Y-107178819D01*
X122151046Y-107178819D02*
X122008189Y-107131200D01*
X122008189Y-107131200D02*
X121912951Y-107035961D01*
X121912951Y-107035961D02*
X121865332Y-106940723D01*
X121865332Y-106940723D02*
X121817713Y-106750247D01*
X121817713Y-106750247D02*
X121817713Y-106607390D01*
X121817713Y-106607390D02*
X121865332Y-106416914D01*
X121865332Y-106416914D02*
X121912951Y-106321676D01*
X121912951Y-106321676D02*
X122008189Y-106226438D01*
X122008189Y-106226438D02*
X122151046Y-106178819D01*
X122151046Y-106178819D02*
X122246284Y-106178819D01*
X122246284Y-106178819D02*
X122389141Y-106226438D01*
X122389141Y-106226438D02*
X122436760Y-106274057D01*
X123008189Y-107178819D02*
X122912951Y-107131200D01*
X122912951Y-107131200D02*
X122865332Y-107083580D01*
X122865332Y-107083580D02*
X122817713Y-106988342D01*
X122817713Y-106988342D02*
X122817713Y-106702628D01*
X122817713Y-106702628D02*
X122865332Y-106607390D01*
X122865332Y-106607390D02*
X122912951Y-106559771D01*
X122912951Y-106559771D02*
X123008189Y-106512152D01*
X123008189Y-106512152D02*
X123151046Y-106512152D01*
X123151046Y-106512152D02*
X123246284Y-106559771D01*
X123246284Y-106559771D02*
X123293903Y-106607390D01*
X123293903Y-106607390D02*
X123341522Y-106702628D01*
X123341522Y-106702628D02*
X123341522Y-106988342D01*
X123341522Y-106988342D02*
X123293903Y-107083580D01*
X123293903Y-107083580D02*
X123246284Y-107131200D01*
X123246284Y-107131200D02*
X123151046Y-107178819D01*
X123151046Y-107178819D02*
X123008189Y-107178819D01*
X123770094Y-106512152D02*
X123770094Y-107178819D01*
X123770094Y-106607390D02*
X123817713Y-106559771D01*
X123817713Y-106559771D02*
X123912951Y-106512152D01*
X123912951Y-106512152D02*
X124055808Y-106512152D01*
X124055808Y-106512152D02*
X124151046Y-106559771D01*
X124151046Y-106559771D02*
X124198665Y-106655009D01*
X124198665Y-106655009D02*
X124198665Y-107178819D01*
X124674856Y-106512152D02*
X124674856Y-107178819D01*
X124674856Y-106607390D02*
X124722475Y-106559771D01*
X124722475Y-106559771D02*
X124817713Y-106512152D01*
X124817713Y-106512152D02*
X124960570Y-106512152D01*
X124960570Y-106512152D02*
X125055808Y-106559771D01*
X125055808Y-106559771D02*
X125103427Y-106655009D01*
X125103427Y-106655009D02*
X125103427Y-107178819D01*
X125341523Y-107274057D02*
X126103427Y-107274057D01*
X126531999Y-106178819D02*
X126627237Y-106178819D01*
X126627237Y-106178819D02*
X126722475Y-106226438D01*
X126722475Y-106226438D02*
X126770094Y-106274057D01*
X126770094Y-106274057D02*
X126817713Y-106369295D01*
X126817713Y-106369295D02*
X126865332Y-106559771D01*
X126865332Y-106559771D02*
X126865332Y-106797866D01*
X126865332Y-106797866D02*
X126817713Y-106988342D01*
X126817713Y-106988342D02*
X126770094Y-107083580D01*
X126770094Y-107083580D02*
X126722475Y-107131200D01*
X126722475Y-107131200D02*
X126627237Y-107178819D01*
X126627237Y-107178819D02*
X126531999Y-107178819D01*
X126531999Y-107178819D02*
X126436761Y-107131200D01*
X126436761Y-107131200D02*
X126389142Y-107083580D01*
X126389142Y-107083580D02*
X126341523Y-106988342D01*
X126341523Y-106988342D02*
X126293904Y-106797866D01*
X126293904Y-106797866D02*
X126293904Y-106559771D01*
X126293904Y-106559771D02*
X126341523Y-106369295D01*
X126341523Y-106369295D02*
X126389142Y-106274057D01*
X126389142Y-106274057D02*
X126436761Y-106226438D01*
X126436761Y-106226438D02*
X126531999Y-106178819D01*
X127817713Y-107178819D02*
X127246285Y-107178819D01*
X127531999Y-107178819D02*
X127531999Y-106178819D01*
X127531999Y-106178819D02*
X127436761Y-106321676D01*
X127436761Y-106321676D02*
X127341523Y-106416914D01*
X127341523Y-106416914D02*
X127246285Y-106464533D01*
X128151047Y-107178819D02*
X128674856Y-106512152D01*
X128151047Y-106512152D02*
X128674856Y-107178819D01*
X129246285Y-106178819D02*
X129341523Y-106178819D01*
X129341523Y-106178819D02*
X129436761Y-106226438D01*
X129436761Y-106226438D02*
X129484380Y-106274057D01*
X129484380Y-106274057D02*
X129531999Y-106369295D01*
X129531999Y-106369295D02*
X129579618Y-106559771D01*
X129579618Y-106559771D02*
X129579618Y-106797866D01*
X129579618Y-106797866D02*
X129531999Y-106988342D01*
X129531999Y-106988342D02*
X129484380Y-107083580D01*
X129484380Y-107083580D02*
X129436761Y-107131200D01*
X129436761Y-107131200D02*
X129341523Y-107178819D01*
X129341523Y-107178819D02*
X129246285Y-107178819D01*
X129246285Y-107178819D02*
X129151047Y-107131200D01*
X129151047Y-107131200D02*
X129103428Y-107083580D01*
X129103428Y-107083580D02*
X129055809Y-106988342D01*
X129055809Y-106988342D02*
X129008190Y-106797866D01*
X129008190Y-106797866D02*
X129008190Y-106559771D01*
X129008190Y-106559771D02*
X129055809Y-106369295D01*
X129055809Y-106369295D02*
X129103428Y-106274057D01*
X129103428Y-106274057D02*
X129151047Y-106226438D01*
X129151047Y-106226438D02*
X129246285Y-106178819D01*
X130151047Y-106607390D02*
X130055809Y-106559771D01*
X130055809Y-106559771D02*
X130008190Y-106512152D01*
X130008190Y-106512152D02*
X129960571Y-106416914D01*
X129960571Y-106416914D02*
X129960571Y-106369295D01*
X129960571Y-106369295D02*
X130008190Y-106274057D01*
X130008190Y-106274057D02*
X130055809Y-106226438D01*
X130055809Y-106226438D02*
X130151047Y-106178819D01*
X130151047Y-106178819D02*
X130341523Y-106178819D01*
X130341523Y-106178819D02*
X130436761Y-106226438D01*
X130436761Y-106226438D02*
X130484380Y-106274057D01*
X130484380Y-106274057D02*
X130531999Y-106369295D01*
X130531999Y-106369295D02*
X130531999Y-106416914D01*
X130531999Y-106416914D02*
X130484380Y-106512152D01*
X130484380Y-106512152D02*
X130436761Y-106559771D01*
X130436761Y-106559771D02*
X130341523Y-106607390D01*
X130341523Y-106607390D02*
X130151047Y-106607390D01*
X130151047Y-106607390D02*
X130055809Y-106655009D01*
X130055809Y-106655009D02*
X130008190Y-106702628D01*
X130008190Y-106702628D02*
X129960571Y-106797866D01*
X129960571Y-106797866D02*
X129960571Y-106988342D01*
X129960571Y-106988342D02*
X130008190Y-107083580D01*
X130008190Y-107083580D02*
X130055809Y-107131200D01*
X130055809Y-107131200D02*
X130151047Y-107178819D01*
X130151047Y-107178819D02*
X130341523Y-107178819D01*
X130341523Y-107178819D02*
X130436761Y-107131200D01*
X130436761Y-107131200D02*
X130484380Y-107083580D01*
X130484380Y-107083580D02*
X130531999Y-106988342D01*
X130531999Y-106988342D02*
X130531999Y-106797866D01*
X130531999Y-106797866D02*
X130484380Y-106702628D01*
X130484380Y-106702628D02*
X130436761Y-106655009D01*
X130436761Y-106655009D02*
X130341523Y-106607390D01*
X130722476Y-107274057D02*
X131484380Y-107274057D01*
X131674857Y-107131200D02*
X131817714Y-107178819D01*
X131817714Y-107178819D02*
X132055809Y-107178819D01*
X132055809Y-107178819D02*
X132151047Y-107131200D01*
X132151047Y-107131200D02*
X132198666Y-107083580D01*
X132198666Y-107083580D02*
X132246285Y-106988342D01*
X132246285Y-106988342D02*
X132246285Y-106893104D01*
X132246285Y-106893104D02*
X132198666Y-106797866D01*
X132198666Y-106797866D02*
X132151047Y-106750247D01*
X132151047Y-106750247D02*
X132055809Y-106702628D01*
X132055809Y-106702628D02*
X131865333Y-106655009D01*
X131865333Y-106655009D02*
X131770095Y-106607390D01*
X131770095Y-106607390D02*
X131722476Y-106559771D01*
X131722476Y-106559771D02*
X131674857Y-106464533D01*
X131674857Y-106464533D02*
X131674857Y-106369295D01*
X131674857Y-106369295D02*
X131722476Y-106274057D01*
X131722476Y-106274057D02*
X131770095Y-106226438D01*
X131770095Y-106226438D02*
X131865333Y-106178819D01*
X131865333Y-106178819D02*
X132103428Y-106178819D01*
X132103428Y-106178819D02*
X132246285Y-106226438D01*
X132817714Y-107178819D02*
X132722476Y-107131200D01*
X132722476Y-107131200D02*
X132674857Y-107083580D01*
X132674857Y-107083580D02*
X132627238Y-106988342D01*
X132627238Y-106988342D02*
X132627238Y-106702628D01*
X132627238Y-106702628D02*
X132674857Y-106607390D01*
X132674857Y-106607390D02*
X132722476Y-106559771D01*
X132722476Y-106559771D02*
X132817714Y-106512152D01*
X132817714Y-106512152D02*
X132960571Y-106512152D01*
X132960571Y-106512152D02*
X133055809Y-106559771D01*
X133055809Y-106559771D02*
X133103428Y-106607390D01*
X133103428Y-106607390D02*
X133151047Y-106702628D01*
X133151047Y-106702628D02*
X133151047Y-106988342D01*
X133151047Y-106988342D02*
X133103428Y-107083580D01*
X133103428Y-107083580D02*
X133055809Y-107131200D01*
X133055809Y-107131200D02*
X132960571Y-107178819D01*
X132960571Y-107178819D02*
X132817714Y-107178819D01*
X134008190Y-107131200D02*
X133912952Y-107178819D01*
X133912952Y-107178819D02*
X133722476Y-107178819D01*
X133722476Y-107178819D02*
X133627238Y-107131200D01*
X133627238Y-107131200D02*
X133579619Y-107083580D01*
X133579619Y-107083580D02*
X133532000Y-106988342D01*
X133532000Y-106988342D02*
X133532000Y-106702628D01*
X133532000Y-106702628D02*
X133579619Y-106607390D01*
X133579619Y-106607390D02*
X133627238Y-106559771D01*
X133627238Y-106559771D02*
X133722476Y-106512152D01*
X133722476Y-106512152D02*
X133912952Y-106512152D01*
X133912952Y-106512152D02*
X134008190Y-106559771D01*
X134436762Y-107178819D02*
X134436762Y-106178819D01*
X134532000Y-106797866D02*
X134817714Y-107178819D01*
X134817714Y-106512152D02*
X134436762Y-106893104D01*
X135627238Y-107131200D02*
X135532000Y-107178819D01*
X135532000Y-107178819D02*
X135341524Y-107178819D01*
X135341524Y-107178819D02*
X135246286Y-107131200D01*
X135246286Y-107131200D02*
X135198667Y-107035961D01*
X135198667Y-107035961D02*
X135198667Y-106655009D01*
X135198667Y-106655009D02*
X135246286Y-106559771D01*
X135246286Y-106559771D02*
X135341524Y-106512152D01*
X135341524Y-106512152D02*
X135532000Y-106512152D01*
X135532000Y-106512152D02*
X135627238Y-106559771D01*
X135627238Y-106559771D02*
X135674857Y-106655009D01*
X135674857Y-106655009D02*
X135674857Y-106750247D01*
X135674857Y-106750247D02*
X135198667Y-106845485D01*
X135960572Y-106512152D02*
X136341524Y-106512152D01*
X136103429Y-106178819D02*
X136103429Y-107035961D01*
X136103429Y-107035961D02*
X136151048Y-107131200D01*
X136151048Y-107131200D02*
X136246286Y-107178819D01*
X136246286Y-107178819D02*
X136341524Y-107178819D01*
X128486819Y-95837333D02*
X129201104Y-95837333D01*
X129201104Y-95837333D02*
X129343961Y-95884952D01*
X129343961Y-95884952D02*
X129439200Y-95980190D01*
X129439200Y-95980190D02*
X129486819Y-96123047D01*
X129486819Y-96123047D02*
X129486819Y-96218285D01*
X128820152Y-94932571D02*
X129486819Y-94932571D01*
X128439200Y-95170666D02*
X129153485Y-95408761D01*
X129153485Y-95408761D02*
X129153485Y-94789714D01*
X123924819Y-119112857D02*
X123924819Y-119589047D01*
X123924819Y-119589047D02*
X122924819Y-119589047D01*
X123401009Y-118779523D02*
X123401009Y-118446190D01*
X123924819Y-118303333D02*
X123924819Y-118779523D01*
X123924819Y-118779523D02*
X122924819Y-118779523D01*
X122924819Y-118779523D02*
X122924819Y-118303333D01*
X123924819Y-117874761D02*
X122924819Y-117874761D01*
X122924819Y-117874761D02*
X122924819Y-117636666D01*
X122924819Y-117636666D02*
X122972438Y-117493809D01*
X122972438Y-117493809D02*
X123067676Y-117398571D01*
X123067676Y-117398571D02*
X123162914Y-117350952D01*
X123162914Y-117350952D02*
X123353390Y-117303333D01*
X123353390Y-117303333D02*
X123496247Y-117303333D01*
X123496247Y-117303333D02*
X123686723Y-117350952D01*
X123686723Y-117350952D02*
X123781961Y-117398571D01*
X123781961Y-117398571D02*
X123877200Y-117493809D01*
X123877200Y-117493809D02*
X123924819Y-117636666D01*
X123924819Y-117636666D02*
X123924819Y-117874761D01*
X149440475Y-122859580D02*
X149392856Y-122907200D01*
X149392856Y-122907200D02*
X149249999Y-122954819D01*
X149249999Y-122954819D02*
X149154761Y-122954819D01*
X149154761Y-122954819D02*
X149011904Y-122907200D01*
X149011904Y-122907200D02*
X148916666Y-122811961D01*
X148916666Y-122811961D02*
X148869047Y-122716723D01*
X148869047Y-122716723D02*
X148821428Y-122526247D01*
X148821428Y-122526247D02*
X148821428Y-122383390D01*
X148821428Y-122383390D02*
X148869047Y-122192914D01*
X148869047Y-122192914D02*
X148916666Y-122097676D01*
X148916666Y-122097676D02*
X149011904Y-122002438D01*
X149011904Y-122002438D02*
X149154761Y-121954819D01*
X149154761Y-121954819D02*
X149249999Y-121954819D01*
X149249999Y-121954819D02*
X149392856Y-122002438D01*
X149392856Y-122002438D02*
X149440475Y-122050057D01*
X150011904Y-122954819D02*
X149916666Y-122907200D01*
X149916666Y-122907200D02*
X149869047Y-122859580D01*
X149869047Y-122859580D02*
X149821428Y-122764342D01*
X149821428Y-122764342D02*
X149821428Y-122478628D01*
X149821428Y-122478628D02*
X149869047Y-122383390D01*
X149869047Y-122383390D02*
X149916666Y-122335771D01*
X149916666Y-122335771D02*
X150011904Y-122288152D01*
X150011904Y-122288152D02*
X150154761Y-122288152D01*
X150154761Y-122288152D02*
X150249999Y-122335771D01*
X150249999Y-122335771D02*
X150297618Y-122383390D01*
X150297618Y-122383390D02*
X150345237Y-122478628D01*
X150345237Y-122478628D02*
X150345237Y-122764342D01*
X150345237Y-122764342D02*
X150297618Y-122859580D01*
X150297618Y-122859580D02*
X150249999Y-122907200D01*
X150249999Y-122907200D02*
X150154761Y-122954819D01*
X150154761Y-122954819D02*
X150011904Y-122954819D01*
X150773809Y-122288152D02*
X150773809Y-122954819D01*
X150773809Y-122383390D02*
X150821428Y-122335771D01*
X150821428Y-122335771D02*
X150916666Y-122288152D01*
X150916666Y-122288152D02*
X151059523Y-122288152D01*
X151059523Y-122288152D02*
X151154761Y-122335771D01*
X151154761Y-122335771D02*
X151202380Y-122431009D01*
X151202380Y-122431009D02*
X151202380Y-122954819D01*
X151678571Y-122288152D02*
X151678571Y-122954819D01*
X151678571Y-122383390D02*
X151726190Y-122335771D01*
X151726190Y-122335771D02*
X151821428Y-122288152D01*
X151821428Y-122288152D02*
X151964285Y-122288152D01*
X151964285Y-122288152D02*
X152059523Y-122335771D01*
X152059523Y-122335771D02*
X152107142Y-122431009D01*
X152107142Y-122431009D02*
X152107142Y-122954819D01*
X152345238Y-123050057D02*
X153107142Y-123050057D01*
X153535714Y-121954819D02*
X153630952Y-121954819D01*
X153630952Y-121954819D02*
X153726190Y-122002438D01*
X153726190Y-122002438D02*
X153773809Y-122050057D01*
X153773809Y-122050057D02*
X153821428Y-122145295D01*
X153821428Y-122145295D02*
X153869047Y-122335771D01*
X153869047Y-122335771D02*
X153869047Y-122573866D01*
X153869047Y-122573866D02*
X153821428Y-122764342D01*
X153821428Y-122764342D02*
X153773809Y-122859580D01*
X153773809Y-122859580D02*
X153726190Y-122907200D01*
X153726190Y-122907200D02*
X153630952Y-122954819D01*
X153630952Y-122954819D02*
X153535714Y-122954819D01*
X153535714Y-122954819D02*
X153440476Y-122907200D01*
X153440476Y-122907200D02*
X153392857Y-122859580D01*
X153392857Y-122859580D02*
X153345238Y-122764342D01*
X153345238Y-122764342D02*
X153297619Y-122573866D01*
X153297619Y-122573866D02*
X153297619Y-122335771D01*
X153297619Y-122335771D02*
X153345238Y-122145295D01*
X153345238Y-122145295D02*
X153392857Y-122050057D01*
X153392857Y-122050057D02*
X153440476Y-122002438D01*
X153440476Y-122002438D02*
X153535714Y-121954819D01*
X154821428Y-122954819D02*
X154250000Y-122954819D01*
X154535714Y-122954819D02*
X154535714Y-121954819D01*
X154535714Y-121954819D02*
X154440476Y-122097676D01*
X154440476Y-122097676D02*
X154345238Y-122192914D01*
X154345238Y-122192914D02*
X154250000Y-122240533D01*
X155154762Y-122954819D02*
X155678571Y-122288152D01*
X155154762Y-122288152D02*
X155678571Y-122954819D01*
X156583333Y-122954819D02*
X156011905Y-122954819D01*
X156297619Y-122954819D02*
X156297619Y-121954819D01*
X156297619Y-121954819D02*
X156202381Y-122097676D01*
X156202381Y-122097676D02*
X156107143Y-122192914D01*
X156107143Y-122192914D02*
X156011905Y-122240533D01*
X157154762Y-122383390D02*
X157059524Y-122335771D01*
X157059524Y-122335771D02*
X157011905Y-122288152D01*
X157011905Y-122288152D02*
X156964286Y-122192914D01*
X156964286Y-122192914D02*
X156964286Y-122145295D01*
X156964286Y-122145295D02*
X157011905Y-122050057D01*
X157011905Y-122050057D02*
X157059524Y-122002438D01*
X157059524Y-122002438D02*
X157154762Y-121954819D01*
X157154762Y-121954819D02*
X157345238Y-121954819D01*
X157345238Y-121954819D02*
X157440476Y-122002438D01*
X157440476Y-122002438D02*
X157488095Y-122050057D01*
X157488095Y-122050057D02*
X157535714Y-122145295D01*
X157535714Y-122145295D02*
X157535714Y-122192914D01*
X157535714Y-122192914D02*
X157488095Y-122288152D01*
X157488095Y-122288152D02*
X157440476Y-122335771D01*
X157440476Y-122335771D02*
X157345238Y-122383390D01*
X157345238Y-122383390D02*
X157154762Y-122383390D01*
X157154762Y-122383390D02*
X157059524Y-122431009D01*
X157059524Y-122431009D02*
X157011905Y-122478628D01*
X157011905Y-122478628D02*
X156964286Y-122573866D01*
X156964286Y-122573866D02*
X156964286Y-122764342D01*
X156964286Y-122764342D02*
X157011905Y-122859580D01*
X157011905Y-122859580D02*
X157059524Y-122907200D01*
X157059524Y-122907200D02*
X157154762Y-122954819D01*
X157154762Y-122954819D02*
X157345238Y-122954819D01*
X157345238Y-122954819D02*
X157440476Y-122907200D01*
X157440476Y-122907200D02*
X157488095Y-122859580D01*
X157488095Y-122859580D02*
X157535714Y-122764342D01*
X157535714Y-122764342D02*
X157535714Y-122573866D01*
X157535714Y-122573866D02*
X157488095Y-122478628D01*
X157488095Y-122478628D02*
X157440476Y-122431009D01*
X157440476Y-122431009D02*
X157345238Y-122383390D01*
X157726191Y-123050057D02*
X158488095Y-123050057D01*
X158726191Y-122954819D02*
X158726191Y-121954819D01*
X158726191Y-121954819D02*
X159107143Y-121954819D01*
X159107143Y-121954819D02*
X159202381Y-122002438D01*
X159202381Y-122002438D02*
X159250000Y-122050057D01*
X159250000Y-122050057D02*
X159297619Y-122145295D01*
X159297619Y-122145295D02*
X159297619Y-122288152D01*
X159297619Y-122288152D02*
X159250000Y-122383390D01*
X159250000Y-122383390D02*
X159202381Y-122431009D01*
X159202381Y-122431009D02*
X159107143Y-122478628D01*
X159107143Y-122478628D02*
X158726191Y-122478628D01*
X159726191Y-122954819D02*
X159726191Y-122288152D01*
X159726191Y-121954819D02*
X159678572Y-122002438D01*
X159678572Y-122002438D02*
X159726191Y-122050057D01*
X159726191Y-122050057D02*
X159773810Y-122002438D01*
X159773810Y-122002438D02*
X159726191Y-121954819D01*
X159726191Y-121954819D02*
X159726191Y-122050057D01*
X160202381Y-122288152D02*
X160202381Y-122954819D01*
X160202381Y-122383390D02*
X160250000Y-122335771D01*
X160250000Y-122335771D02*
X160345238Y-122288152D01*
X160345238Y-122288152D02*
X160488095Y-122288152D01*
X160488095Y-122288152D02*
X160583333Y-122335771D01*
X160583333Y-122335771D02*
X160630952Y-122431009D01*
X160630952Y-122431009D02*
X160630952Y-122954819D01*
X155854819Y-100668333D02*
X156569104Y-100668333D01*
X156569104Y-100668333D02*
X156711961Y-100715952D01*
X156711961Y-100715952D02*
X156807200Y-100811190D01*
X156807200Y-100811190D02*
X156854819Y-100954047D01*
X156854819Y-100954047D02*
X156854819Y-101049285D01*
X155950057Y-100239761D02*
X155902438Y-100192142D01*
X155902438Y-100192142D02*
X155854819Y-100096904D01*
X155854819Y-100096904D02*
X155854819Y-99858809D01*
X155854819Y-99858809D02*
X155902438Y-99763571D01*
X155902438Y-99763571D02*
X155950057Y-99715952D01*
X155950057Y-99715952D02*
X156045295Y-99668333D01*
X156045295Y-99668333D02*
X156140533Y-99668333D01*
X156140533Y-99668333D02*
X156283390Y-99715952D01*
X156283390Y-99715952D02*
X156854819Y-100287380D01*
X156854819Y-100287380D02*
X156854819Y-99668333D01*
X127030952Y-115079819D02*
X126459524Y-115079819D01*
X126745238Y-115079819D02*
X126745238Y-114079819D01*
X126745238Y-114079819D02*
X126650000Y-114222676D01*
X126650000Y-114222676D02*
X126554762Y-114317914D01*
X126554762Y-114317914D02*
X126459524Y-114365533D01*
X127650000Y-114079819D02*
X127745238Y-114079819D01*
X127745238Y-114079819D02*
X127840476Y-114127438D01*
X127840476Y-114127438D02*
X127888095Y-114175057D01*
X127888095Y-114175057D02*
X127935714Y-114270295D01*
X127935714Y-114270295D02*
X127983333Y-114460771D01*
X127983333Y-114460771D02*
X127983333Y-114698866D01*
X127983333Y-114698866D02*
X127935714Y-114889342D01*
X127935714Y-114889342D02*
X127888095Y-114984580D01*
X127888095Y-114984580D02*
X127840476Y-115032200D01*
X127840476Y-115032200D02*
X127745238Y-115079819D01*
X127745238Y-115079819D02*
X127650000Y-115079819D01*
X127650000Y-115079819D02*
X127554762Y-115032200D01*
X127554762Y-115032200D02*
X127507143Y-114984580D01*
X127507143Y-114984580D02*
X127459524Y-114889342D01*
X127459524Y-114889342D02*
X127411905Y-114698866D01*
X127411905Y-114698866D02*
X127411905Y-114460771D01*
X127411905Y-114460771D02*
X127459524Y-114270295D01*
X127459524Y-114270295D02*
X127507143Y-114175057D01*
X127507143Y-114175057D02*
X127554762Y-114127438D01*
X127554762Y-114127438D02*
X127650000Y-114079819D01*
X128602381Y-114079819D02*
X128697619Y-114079819D01*
X128697619Y-114079819D02*
X128792857Y-114127438D01*
X128792857Y-114127438D02*
X128840476Y-114175057D01*
X128840476Y-114175057D02*
X128888095Y-114270295D01*
X128888095Y-114270295D02*
X128935714Y-114460771D01*
X128935714Y-114460771D02*
X128935714Y-114698866D01*
X128935714Y-114698866D02*
X128888095Y-114889342D01*
X128888095Y-114889342D02*
X128840476Y-114984580D01*
X128840476Y-114984580D02*
X128792857Y-115032200D01*
X128792857Y-115032200D02*
X128697619Y-115079819D01*
X128697619Y-115079819D02*
X128602381Y-115079819D01*
X128602381Y-115079819D02*
X128507143Y-115032200D01*
X128507143Y-115032200D02*
X128459524Y-114984580D01*
X128459524Y-114984580D02*
X128411905Y-114889342D01*
X128411905Y-114889342D02*
X128364286Y-114698866D01*
X128364286Y-114698866D02*
X128364286Y-114460771D01*
X128364286Y-114460771D02*
X128411905Y-114270295D01*
X128411905Y-114270295D02*
X128459524Y-114175057D01*
X128459524Y-114175057D02*
X128507143Y-114127438D01*
X128507143Y-114127438D02*
X128602381Y-114079819D01*
X129364286Y-114413152D02*
X129364286Y-115079819D01*
X129364286Y-114508390D02*
X129411905Y-114460771D01*
X129411905Y-114460771D02*
X129507143Y-114413152D01*
X129507143Y-114413152D02*
X129650000Y-114413152D01*
X129650000Y-114413152D02*
X129745238Y-114460771D01*
X129745238Y-114460771D02*
X129792857Y-114556009D01*
X129792857Y-114556009D02*
X129792857Y-115079819D01*
D12*
X128006666Y-117134240D02*
X127965714Y-117175193D01*
X127965714Y-117175193D02*
X127842856Y-117216145D01*
X127842856Y-117216145D02*
X127760952Y-117216145D01*
X127760952Y-117216145D02*
X127638095Y-117175193D01*
X127638095Y-117175193D02*
X127556190Y-117093288D01*
X127556190Y-117093288D02*
X127515237Y-117011383D01*
X127515237Y-117011383D02*
X127474285Y-116847573D01*
X127474285Y-116847573D02*
X127474285Y-116724716D01*
X127474285Y-116724716D02*
X127515237Y-116560907D01*
X127515237Y-116560907D02*
X127556190Y-116479002D01*
X127556190Y-116479002D02*
X127638095Y-116397097D01*
X127638095Y-116397097D02*
X127760952Y-116356145D01*
X127760952Y-116356145D02*
X127842856Y-116356145D01*
X127842856Y-116356145D02*
X127965714Y-116397097D01*
X127965714Y-116397097D02*
X128006666Y-116438050D01*
X128784761Y-116356145D02*
X128375237Y-116356145D01*
X128375237Y-116356145D02*
X128334285Y-116765669D01*
X128334285Y-116765669D02*
X128375237Y-116724716D01*
X128375237Y-116724716D02*
X128457142Y-116683764D01*
X128457142Y-116683764D02*
X128661904Y-116683764D01*
X128661904Y-116683764D02*
X128743809Y-116724716D01*
X128743809Y-116724716D02*
X128784761Y-116765669D01*
X128784761Y-116765669D02*
X128825714Y-116847573D01*
X128825714Y-116847573D02*
X128825714Y-117052335D01*
X128825714Y-117052335D02*
X128784761Y-117134240D01*
X128784761Y-117134240D02*
X128743809Y-117175193D01*
X128743809Y-117175193D02*
X128661904Y-117216145D01*
X128661904Y-117216145D02*
X128457142Y-117216145D01*
X128457142Y-117216145D02*
X128375237Y-117175193D01*
X128375237Y-117175193D02*
X128334285Y-117134240D01*
D13*
%TO.C,SW2*%
X117625000Y-91550000D02*
X117625000Y-103550000D01*
X117625000Y-103550000D02*
X118625000Y-104550000D01*
X118625000Y-104550000D02*
X125625000Y-104550000D01*
X125625000Y-91550000D02*
X117625000Y-91550000D01*
X125625000Y-104550000D02*
X125625000Y-91550000D01*
%TO.C,R1*%
X120495000Y-107725000D02*
X122425000Y-107725000D01*
X122425000Y-106475000D02*
X122425000Y-108975000D01*
X122425000Y-108975000D02*
X128725000Y-108975000D01*
X128725000Y-106475000D02*
X122425000Y-106475000D01*
X128725000Y-108975000D02*
X128725000Y-106475000D01*
X130655000Y-107725000D02*
X128725000Y-107725000D01*
%TO.C,C4*%
X126000000Y-118375000D02*
X126000000Y-120275000D01*
X126000000Y-120275000D02*
X130300000Y-120275000D01*
X130300000Y-118375000D02*
X126000000Y-118375000D01*
X130300000Y-120275000D02*
X130300000Y-118375000D01*
%TO.C,SW1*%
X117575000Y-77575000D02*
X123575000Y-77575000D01*
X117575000Y-80575000D02*
X117575000Y-77575000D01*
X117575000Y-83575000D02*
X117575000Y-80575000D01*
X123575000Y-77575000D02*
X123575000Y-83575000D01*
X123575000Y-83575000D02*
X117575000Y-83575000D01*
X122590564Y-80575000D02*
G75*
G02*
X118559436Y-80575000I-2015564J0D01*
G01*
X118559436Y-80575000D02*
G75*
G02*
X122590564Y-80575000I2015564J0D01*
G01*
%TO.C,BT1*%
X125476000Y-121158000D02*
X129921000Y-121158000D01*
X125476000Y-123698000D02*
X125476000Y-121158000D01*
X129921000Y-121158000D02*
X130556000Y-121793000D01*
X130556000Y-121793000D02*
X130556000Y-123698000D01*
X130556000Y-123698000D02*
X125476000Y-123698000D01*
%TO.C,J1*%
X132330000Y-78110000D02*
X132965000Y-77475000D01*
X132330000Y-123195000D02*
X132330000Y-78110000D01*
X132965000Y-77475000D02*
X134870000Y-77475000D01*
X134870000Y-77475000D02*
X134870000Y-123195000D01*
X134870000Y-123195000D02*
X132330000Y-123195000D01*
%TO.C,R5*%
X123145000Y-74125000D02*
X125075000Y-74125000D01*
X125075000Y-72875000D02*
X125075000Y-75375000D01*
X125075000Y-75375000D02*
X131375000Y-75375000D01*
X131375000Y-72875000D02*
X125075000Y-72875000D01*
X131375000Y-75375000D02*
X131375000Y-72875000D01*
X133305000Y-74125000D02*
X131375000Y-74125000D01*
%TO.C,R2*%
X120490000Y-113792000D02*
X122420000Y-113792000D01*
X122420000Y-112542000D02*
X122420000Y-115042000D01*
X122420000Y-115042000D02*
X128720000Y-115042000D01*
X128720000Y-112542000D02*
X122420000Y-112542000D01*
X128720000Y-115042000D02*
X128720000Y-112542000D01*
X130650000Y-113792000D02*
X128720000Y-113792000D01*
%TO.C,J3*%
X117343000Y-86106000D02*
X122423000Y-86106000D01*
X117343000Y-88011000D02*
X117343000Y-86106000D01*
X117978000Y-88646000D02*
X117343000Y-88011000D01*
X122423000Y-86106000D02*
X122423000Y-88646000D01*
X122423000Y-88646000D02*
X117978000Y-88646000D01*
%TO.C,J4*%
X127762000Y-85979000D02*
X128397000Y-85344000D01*
X127762000Y-105664000D02*
X127762000Y-85979000D01*
X128397000Y-85344000D02*
X130302000Y-85344000D01*
X130302000Y-85344000D02*
X130302000Y-105664000D01*
X130302000Y-105664000D02*
X127762000Y-105664000D01*
%TO.C,D1*%
X119343810Y-119970000D02*
X121676190Y-119970000D01*
X119343810Y-119970000D02*
G75*
G02*
X121675476Y-119970555I1166190J1500000D01*
G01*
X122010000Y-118470000D02*
G75*
G02*
X119010000Y-118470000I-1500000J0D01*
G01*
X119010000Y-118470000D02*
G75*
G02*
X122010000Y-118470000I1500000J0D01*
G01*
%TO.C,J2*%
X155130000Y-78110000D02*
X155765000Y-77475000D01*
X155130000Y-123195000D02*
X155130000Y-78110000D01*
X155765000Y-77475000D02*
X157670000Y-77475000D01*
X157670000Y-77475000D02*
X157670000Y-123195000D01*
X157670000Y-123195000D02*
X155130000Y-123195000D01*
%TO.C,C5*%
X126000000Y-115875000D02*
X126000000Y-117775000D01*
X126000000Y-117775000D02*
X130300000Y-117775000D01*
X130300000Y-115875000D02*
X126000000Y-115875000D01*
X130300000Y-117775000D02*
X130300000Y-115875000D01*
%TD*%
M02*
