%TF.GenerationSoftware,KiCad,Pcbnew,8.0.2*%
%TF.CreationDate,2025-02-13T09:09:47+01:00*%
%TF.ProjectId,Carte_main,43617274-655f-46d6-9169-6e2e6b696361,rev?*%
%TF.SameCoordinates,Original*%
%TF.FileFunction,Soldermask,Top*%
%TF.FilePolarity,Negative*%
%FSLAX46Y46*%
G04 Gerber Fmt 4.6, Leading zero omitted, Abs format (unit mm)*
G04 Created by KiCad (PCBNEW 8.0.2) date 2025-02-13 09:09:47*
%MOMM*%
%LPD*%
G01*
G04 APERTURE LIST*
%ADD10C,1.600000*%
%ADD11O,1.600000X1.600000*%
%ADD12C,2.000000*%
%ADD13R,1.700000X1.700000*%
%ADD14O,1.700000X1.700000*%
G04 APERTURE END LIST*
D10*
%TO.C,C3*%
X130650000Y-101325000D03*
X125650000Y-101325000D03*
%TD*%
%TO.C,R1*%
X130630000Y-107225000D03*
D11*
X120470000Y-107225000D03*
%TD*%
D10*
%TO.C,C4*%
X130650000Y-119325000D03*
X125650000Y-119325000D03*
%TD*%
%TO.C,R2*%
X120490000Y-104125000D03*
D11*
X130650000Y-104125000D03*
%TD*%
D12*
%TO.C,SW1*%
X118325000Y-83825000D03*
X118325000Y-77325000D03*
X122825000Y-83825000D03*
X122825000Y-77325000D03*
%TD*%
D13*
%TO.C,J4*%
X129150000Y-80305000D03*
D14*
X129150000Y-82845000D03*
X129150000Y-85385000D03*
X129150000Y-87925000D03*
X129150000Y-90465000D03*
%TD*%
D10*
%TO.C,C2*%
X130650000Y-95725000D03*
X125650000Y-95725000D03*
%TD*%
D13*
%TO.C,J1*%
X133600000Y-78745000D03*
D14*
X133600000Y-81285000D03*
X133600000Y-83825000D03*
X133600000Y-86365000D03*
X133600000Y-88905000D03*
X133600000Y-91445000D03*
X133600000Y-93985000D03*
X133600000Y-96525000D03*
X133600000Y-99065000D03*
X133600000Y-101605000D03*
X133600000Y-104145000D03*
X133600000Y-106685000D03*
X133600000Y-109225000D03*
X133600000Y-111765000D03*
X133600000Y-114305000D03*
X133600000Y-116845000D03*
X133600000Y-119385000D03*
X133600000Y-121925000D03*
%TD*%
D10*
%TO.C,R5*%
X123145000Y-74125000D03*
D11*
X133305000Y-74125000D03*
%TD*%
D10*
%TO.C,R4*%
X120490000Y-114025000D03*
D11*
X130650000Y-114025000D03*
%TD*%
D10*
%TO.C,R3*%
X120470000Y-98525000D03*
D11*
X130630000Y-98525000D03*
%TD*%
D13*
%TO.C,J3*%
X124625000Y-90400000D03*
D14*
X124625000Y-87860000D03*
%TD*%
D10*
%TO.C,C1*%
X130650000Y-111225000D03*
X125650000Y-111225000D03*
%TD*%
D13*
%TO.C,J2*%
X156400000Y-78745000D03*
D14*
X156400000Y-81285000D03*
X156400000Y-83825000D03*
X156400000Y-86365000D03*
X156400000Y-88905000D03*
X156400000Y-91445000D03*
X156400000Y-93985000D03*
X156400000Y-96525000D03*
X156400000Y-99065000D03*
X156400000Y-101605000D03*
X156400000Y-104145000D03*
X156400000Y-106685000D03*
X156400000Y-109225000D03*
X156400000Y-111765000D03*
X156400000Y-114305000D03*
X156400000Y-116845000D03*
X156400000Y-119385000D03*
X156400000Y-121925000D03*
%TD*%
D10*
%TO.C,C5*%
X130650000Y-116825000D03*
X125650000Y-116825000D03*
%TD*%
M02*
