%TF.GenerationSoftware,KiCad,Pcbnew,8.0.2*%
%TF.CreationDate,2025-03-31T19:16:32+02:00*%
%TF.ProjectId,Carte_main,43617274-655f-46d6-9169-6e2e6b696361,rev?*%
%TF.SameCoordinates,Original*%
%TF.FileFunction,Copper,L2,Bot*%
%TF.FilePolarity,Positive*%
%FSLAX46Y46*%
G04 Gerber Fmt 4.6, Leading zero omitted, Abs format (unit mm)*
G04 Created by KiCad (PCBNEW 8.0.2) date 2025-03-31 19:16:32*
%MOMM*%
%LPD*%
G01*
G04 APERTURE LIST*
%TA.AperFunction,ComponentPad*%
%ADD10C,2.400000*%
%TD*%
%TA.AperFunction,ComponentPad*%
%ADD11R,2.400000X2.400000*%
%TD*%
%TA.AperFunction,ComponentPad*%
%ADD12C,1.600000*%
%TD*%
%TA.AperFunction,ComponentPad*%
%ADD13O,1.600000X1.600000*%
%TD*%
%TA.AperFunction,ComponentPad*%
%ADD14C,2.000000*%
%TD*%
%TA.AperFunction,ComponentPad*%
%ADD15R,1.700000X1.700000*%
%TD*%
%TA.AperFunction,ComponentPad*%
%ADD16O,1.700000X1.700000*%
%TD*%
%TA.AperFunction,ComponentPad*%
%ADD17R,1.800000X1.800000*%
%TD*%
%TA.AperFunction,ComponentPad*%
%ADD18C,1.800000*%
%TD*%
%TA.AperFunction,Conductor*%
%ADD19C,0.300000*%
%TD*%
G04 APERTURE END LIST*
D10*
%TO.P,SW2,1*%
%TO.N,Net-(BT1-+)*%
X121625000Y-103050000D03*
%TO.P,SW2,2*%
%TO.N,/+3.3V*%
X121625000Y-98050000D03*
D11*
%TO.P,SW2,3*%
%TO.N,N/C*%
X121625000Y-93050000D03*
%TD*%
D12*
%TO.P,R1,1*%
%TO.N,/39*%
X130655000Y-107725000D03*
D13*
%TO.P,R1,2*%
%TO.N,GND*%
X120495000Y-107725000D03*
%TD*%
D12*
%TO.P,C4,1*%
%TO.N,/+5V*%
X130650000Y-119325000D03*
%TO.P,C4,2*%
%TO.N,GND*%
X125650000Y-119325000D03*
%TD*%
D14*
%TO.P,SW1,1,1*%
%TO.N,/+3.3V*%
X118325000Y-83825000D03*
X118325000Y-77325000D03*
%TO.P,SW1,2,2*%
%TO.N,Net-(J2-Pin_12)*%
X122825000Y-83825000D03*
X122825000Y-77325000D03*
%TD*%
D15*
%TO.P,BT1,1,+*%
%TO.N,Net-(BT1-+)*%
X129286000Y-122428000D03*
D16*
%TO.P,BT1,2,-*%
%TO.N,GND*%
X126746000Y-122428000D03*
%TD*%
D15*
%TO.P,J1,1,Pin_1*%
%TO.N,/SDA*%
X133600000Y-78745000D03*
D16*
%TO.P,J1,2,Pin_2*%
%TO.N,/13_S2*%
X133600000Y-81285000D03*
%TO.P,J1,3,Pin_3*%
%TO.N,unconnected-(J1-Pin_3-Pad3)*%
X133600000Y-83825000D03*
%TO.P,J1,4,Pin_4*%
%TO.N,/14_S3*%
X133600000Y-86365000D03*
%TO.P,J1,5,Pin_5*%
%TO.N,unconnected-(J1-Pin_5-Pad5)*%
X133600000Y-88905000D03*
%TO.P,J1,6,Pin_6*%
%TO.N,unconnected-(J1-Pin_6-Pad6)*%
X133600000Y-91445000D03*
%TO.P,J1,7,Pin_7*%
%TO.N,unconnected-(J1-Pin_7-Pad7)*%
X133600000Y-93985000D03*
%TO.P,J1,8,Pin_8*%
%TO.N,unconnected-(J1-Pin_8-Pad8)*%
X133600000Y-96525000D03*
%TO.P,J1,9,Pin_9*%
%TO.N,unconnected-(J1-Pin_9-Pad9)*%
X133600000Y-99065000D03*
%TO.P,J1,10,Pin_10*%
%TO.N,/35*%
X133600000Y-101605000D03*
%TO.P,J1,11,Pin_11*%
%TO.N,/34*%
X133600000Y-104145000D03*
%TO.P,J1,12,Pin_12*%
%TO.N,/39*%
X133600000Y-106685000D03*
%TO.P,J1,13,Pin_13*%
%TO.N,unconnected-(J1-Pin_13-Pad13)*%
X133600000Y-109225000D03*
%TO.P,J1,14,Pin_14*%
%TO.N,unconnected-(J1-Pin_14-Pad14)*%
X133600000Y-111765000D03*
%TO.P,J1,15,Pin_15*%
%TO.N,/36*%
X133600000Y-114305000D03*
%TO.P,J1,16,Pin_16*%
%TO.N,/+3.3V*%
X133600000Y-116845000D03*
%TO.P,J1,17,Pin_17*%
%TO.N,/+5V*%
X133600000Y-119385000D03*
%TO.P,J1,18,Pin_18*%
%TO.N,GND*%
X133600000Y-121925000D03*
%TD*%
D12*
%TO.P,R5,1*%
%TO.N,GND*%
X123145000Y-74125000D03*
D13*
%TO.P,R5,2*%
%TO.N,Net-(J2-Pin_12)*%
X133305000Y-74125000D03*
%TD*%
D12*
%TO.P,R2,1*%
%TO.N,/+3.3V*%
X130650000Y-113792000D03*
D13*
%TO.P,R2,2*%
%TO.N,Net-(D1-A)*%
X120490000Y-113792000D03*
%TD*%
D15*
%TO.P,J3,1,Pin_1*%
%TO.N,/39*%
X118613000Y-87376000D03*
D16*
%TO.P,J3,2,Pin_2*%
%TO.N,/+3.3V*%
X121153000Y-87376000D03*
%TD*%
D15*
%TO.P,J4,1,Pin_1*%
%TO.N,/SDA*%
X129032000Y-86614000D03*
D16*
%TO.P,J4,2,Pin_2*%
%TO.N,/SCL*%
X129032000Y-89154000D03*
%TO.P,J4,3,Pin_3*%
%TO.N,GND*%
X129032000Y-91694000D03*
%TO.P,J4,4,Pin_4*%
%TO.N,/+3.3V*%
X129032000Y-94234000D03*
%TO.P,J4,5,Pin_5*%
%TO.N,unconnected-(J4-Pin_5-Pad5)*%
X129032000Y-96774000D03*
%TO.P,J4,6,Pin_6*%
%TO.N,unconnected-(J4-Pin_6-Pad6)*%
X129032000Y-99314000D03*
%TO.P,J4,7,Pin_7*%
%TO.N,unconnected-(J4-Pin_7-Pad7)*%
X129032000Y-101854000D03*
%TO.P,J4,8,Pin_8*%
%TO.N,unconnected-(J4-Pin_8-Pad8)*%
X129032000Y-104394000D03*
%TD*%
D17*
%TO.P,D1,1,K*%
%TO.N,GND*%
X120510000Y-119740000D03*
D18*
%TO.P,D1,2,A*%
%TO.N,Net-(D1-A)*%
X120510000Y-117200000D03*
%TD*%
D15*
%TO.P,J2,1,Pin_1*%
%TO.N,/16_S0*%
X156400000Y-78745000D03*
D16*
%TO.P,J2,2,Pin_2*%
%TO.N,unconnected-(J2-Pin_2-Pad2)*%
X156400000Y-81285000D03*
%TO.P,J2,3,Pin_3*%
%TO.N,/4_S5*%
X156400000Y-83825000D03*
%TO.P,J2,4,Pin_4*%
%TO.N,unconnected-(J2-Pin_4-Pad4)*%
X156400000Y-86365000D03*
%TO.P,J2,5,Pin_5*%
%TO.N,/15_S4*%
X156400000Y-88905000D03*
%TO.P,J2,6,Pin_6*%
%TO.N,unconnected-(J2-Pin_6-Pad6)*%
X156400000Y-91445000D03*
%TO.P,J2,7,Pin_7*%
%TO.N,unconnected-(J2-Pin_7-Pad7)*%
X156400000Y-93985000D03*
%TO.P,J2,8,Pin_8*%
%TO.N,unconnected-(J2-Pin_8-Pad8)*%
X156400000Y-96525000D03*
%TO.P,J2,9,Pin_9*%
%TO.N,unconnected-(J2-Pin_9-Pad9)*%
X156400000Y-99065000D03*
%TO.P,J2,10,Pin_10*%
%TO.N,/SCL*%
X156400000Y-101605000D03*
%TO.P,J2,11,Pin_11*%
%TO.N,unconnected-(J2-Pin_11-Pad11)*%
X156400000Y-104145000D03*
%TO.P,J2,12,Pin_12*%
%TO.N,Net-(J2-Pin_12)*%
X156400000Y-106685000D03*
%TO.P,J2,13,Pin_13*%
%TO.N,unconnected-(J2-Pin_13-Pad13)*%
X156400000Y-109225000D03*
%TO.P,J2,14,Pin_14*%
%TO.N,unconnected-(J2-Pin_14-Pad14)*%
X156400000Y-111765000D03*
%TO.P,J2,15,Pin_15*%
%TO.N,unconnected-(J2-Pin_15-Pad15)*%
X156400000Y-114305000D03*
%TO.P,J2,16,Pin_16*%
%TO.N,unconnected-(J2-Pin_16-Pad16)*%
X156400000Y-116845000D03*
%TO.P,J2,17,Pin_17*%
%TO.N,unconnected-(J2-Pin_17-Pad17)*%
X156400000Y-119385000D03*
%TO.P,J2,18,Pin_18*%
%TO.N,unconnected-(J2-Pin_18-Pad18)*%
X156400000Y-121925000D03*
%TD*%
D12*
%TO.P,C5,1*%
%TO.N,/+3.3V*%
X130650000Y-116825000D03*
%TO.P,C5,2*%
%TO.N,GND*%
X125650000Y-116825000D03*
%TD*%
D19*
%TO.N,/+3.3V*%
X124975000Y-108117000D02*
X124975000Y-101400000D01*
X129032000Y-94234000D02*
X125441000Y-94234000D01*
X125441000Y-94234000D02*
X121625000Y-98050000D01*
X124975000Y-101400000D02*
X121625000Y-98050000D01*
X130650000Y-113792000D02*
X124975000Y-108117000D01*
%TO.N,/SCL*%
X147505000Y-92710000D02*
X156400000Y-101605000D01*
X129032000Y-89154000D02*
X132588000Y-92710000D01*
X132588000Y-92710000D02*
X147505000Y-92710000D01*
%TD*%
%TA.AperFunction,Conductor*%
%TO.N,GND*%
G36*
X158377270Y-72520185D02*
G01*
X158423025Y-72572989D01*
X158432969Y-72642147D01*
X158403944Y-72705703D01*
X158369248Y-72733555D01*
X158223964Y-72812177D01*
X158223955Y-72812183D01*
X158039041Y-72956108D01*
X158039037Y-72956111D01*
X157880324Y-73128519D01*
X157880321Y-73128523D01*
X157752153Y-73324697D01*
X157658022Y-73539298D01*
X157600495Y-73766463D01*
X157600493Y-73766471D01*
X157581144Y-73999993D01*
X157581144Y-74000006D01*
X157600493Y-74233528D01*
X157600495Y-74233536D01*
X157658022Y-74460702D01*
X157705087Y-74568001D01*
X157752153Y-74675302D01*
X157819076Y-74777734D01*
X157880323Y-74871479D01*
X157965624Y-74964141D01*
X158039037Y-75043888D01*
X158039041Y-75043891D01*
X158223959Y-75187819D01*
X158223961Y-75187820D01*
X158223964Y-75187822D01*
X158253903Y-75204024D01*
X158430052Y-75299350D01*
X158651691Y-75375439D01*
X158882832Y-75414010D01*
X158882833Y-75414010D01*
X159117167Y-75414010D01*
X159117168Y-75414010D01*
X159348309Y-75375439D01*
X159569948Y-75299350D01*
X159776041Y-75187819D01*
X159960965Y-75043886D01*
X160119677Y-74871479D01*
X160247847Y-74675301D01*
X160254217Y-74660776D01*
X160261944Y-74643164D01*
X160306899Y-74589678D01*
X160373635Y-74568987D01*
X160440963Y-74587661D01*
X160487507Y-74639771D01*
X160499500Y-74692973D01*
X160499500Y-121807026D01*
X160479815Y-121874065D01*
X160427011Y-121919820D01*
X160357853Y-121929764D01*
X160294297Y-121900739D01*
X160261944Y-121856837D01*
X160247845Y-121824695D01*
X160119678Y-121628523D01*
X160119677Y-121628521D01*
X159960965Y-121456114D01*
X159960964Y-121456113D01*
X159960962Y-121456111D01*
X159960957Y-121456107D01*
X159776044Y-121312183D01*
X159776035Y-121312177D01*
X159569954Y-121200653D01*
X159569951Y-121200652D01*
X159569948Y-121200650D01*
X159569942Y-121200648D01*
X159569940Y-121200647D01*
X159348311Y-121124561D01*
X159185328Y-121097364D01*
X159117168Y-121085990D01*
X158882832Y-121085990D01*
X158825046Y-121095632D01*
X158651688Y-121124561D01*
X158430059Y-121200647D01*
X158430045Y-121200653D01*
X158223964Y-121312177D01*
X158223955Y-121312183D01*
X158039043Y-121456107D01*
X158039031Y-121456117D01*
X157907801Y-121598670D01*
X157847914Y-121634661D01*
X157778076Y-121632560D01*
X157720460Y-121593036D01*
X157696797Y-121546780D01*
X157692335Y-121530129D01*
X157676363Y-121470517D01*
X157673905Y-121461344D01*
X157673904Y-121461343D01*
X157673903Y-121461337D01*
X157574035Y-121247171D01*
X157555329Y-121220455D01*
X157438494Y-121053597D01*
X157271402Y-120886506D01*
X157271396Y-120886501D01*
X157085842Y-120756575D01*
X157042217Y-120701998D01*
X157035023Y-120632500D01*
X157066546Y-120570145D01*
X157085842Y-120553425D01*
X157225597Y-120455567D01*
X157271401Y-120423495D01*
X157438495Y-120256401D01*
X157574035Y-120062830D01*
X157673903Y-119848663D01*
X157735063Y-119620408D01*
X157755659Y-119385000D01*
X157735063Y-119149592D01*
X157682188Y-118952259D01*
X157673905Y-118921344D01*
X157673904Y-118921343D01*
X157673903Y-118921337D01*
X157574035Y-118707171D01*
X157549770Y-118672516D01*
X157438494Y-118513597D01*
X157271402Y-118346506D01*
X157271396Y-118346501D01*
X157085842Y-118216575D01*
X157042217Y-118161998D01*
X157035023Y-118092500D01*
X157066546Y-118030145D01*
X157085842Y-118013425D01*
X157168470Y-117955568D01*
X157271401Y-117883495D01*
X157438495Y-117716401D01*
X157574035Y-117522830D01*
X157673903Y-117308663D01*
X157735063Y-117080408D01*
X157755659Y-116845000D01*
X157735063Y-116609592D01*
X157673903Y-116381337D01*
X157574035Y-116167171D01*
X157473461Y-116023535D01*
X157438494Y-115973597D01*
X157271402Y-115806506D01*
X157271396Y-115806501D01*
X157085842Y-115676575D01*
X157042217Y-115621998D01*
X157035023Y-115552500D01*
X157066546Y-115490145D01*
X157085842Y-115473425D01*
X157108026Y-115457891D01*
X157271401Y-115343495D01*
X157438495Y-115176401D01*
X157574035Y-114982830D01*
X157673903Y-114768663D01*
X157735063Y-114540408D01*
X157755659Y-114305000D01*
X157735063Y-114069592D01*
X157673903Y-113841337D01*
X157574035Y-113627171D01*
X157530719Y-113565308D01*
X157438494Y-113433597D01*
X157271402Y-113266506D01*
X157271396Y-113266501D01*
X157085842Y-113136575D01*
X157042217Y-113081998D01*
X157035023Y-113012500D01*
X157066546Y-112950145D01*
X157085842Y-112933425D01*
X157108026Y-112917891D01*
X157271401Y-112803495D01*
X157438495Y-112636401D01*
X157574035Y-112442830D01*
X157673903Y-112228663D01*
X157735063Y-112000408D01*
X157755659Y-111765000D01*
X157735063Y-111529592D01*
X157673903Y-111301337D01*
X157574035Y-111087171D01*
X157438495Y-110893599D01*
X157438494Y-110893597D01*
X157271402Y-110726506D01*
X157271396Y-110726501D01*
X157085842Y-110596575D01*
X157042217Y-110541998D01*
X157035023Y-110472500D01*
X157066546Y-110410145D01*
X157085842Y-110393425D01*
X157108026Y-110377891D01*
X157271401Y-110263495D01*
X157438495Y-110096401D01*
X157574035Y-109902830D01*
X157673903Y-109688663D01*
X157735063Y-109460408D01*
X157755659Y-109225000D01*
X157735063Y-108989592D01*
X157673903Y-108761337D01*
X157574035Y-108547171D01*
X157563184Y-108531673D01*
X157438494Y-108353597D01*
X157271402Y-108186506D01*
X157271396Y-108186501D01*
X157085842Y-108056575D01*
X157042217Y-108001998D01*
X157035023Y-107932500D01*
X157066546Y-107870145D01*
X157085842Y-107853425D01*
X157269250Y-107725001D01*
X157271401Y-107723495D01*
X157438495Y-107556401D01*
X157574035Y-107362830D01*
X157673903Y-107148663D01*
X157735063Y-106920408D01*
X157755659Y-106685000D01*
X157735063Y-106449592D01*
X157673903Y-106221337D01*
X157574035Y-106007171D01*
X157438495Y-105813599D01*
X157438494Y-105813597D01*
X157271402Y-105646506D01*
X157271396Y-105646501D01*
X157085842Y-105516575D01*
X157042217Y-105461998D01*
X157035023Y-105392500D01*
X157066546Y-105330145D01*
X157085842Y-105313425D01*
X157154436Y-105265395D01*
X157271401Y-105183495D01*
X157438495Y-105016401D01*
X157574035Y-104822830D01*
X157673903Y-104608663D01*
X157735063Y-104380408D01*
X157755659Y-104145000D01*
X157735063Y-103909592D01*
X157673903Y-103681337D01*
X157574035Y-103467171D01*
X157495844Y-103355501D01*
X157438494Y-103273597D01*
X157271402Y-103106506D01*
X157271396Y-103106501D01*
X157085842Y-102976575D01*
X157042217Y-102921998D01*
X157035023Y-102852500D01*
X157066546Y-102790145D01*
X157085842Y-102773425D01*
X157154436Y-102725395D01*
X157271401Y-102643495D01*
X157438495Y-102476401D01*
X157574035Y-102282830D01*
X157673903Y-102068663D01*
X157735063Y-101840408D01*
X157755659Y-101605000D01*
X157735063Y-101369592D01*
X157673903Y-101141337D01*
X157574035Y-100927171D01*
X157495844Y-100815501D01*
X157438494Y-100733597D01*
X157271402Y-100566506D01*
X157271396Y-100566501D01*
X157085842Y-100436575D01*
X157042217Y-100381998D01*
X157035023Y-100312500D01*
X157066546Y-100250145D01*
X157085842Y-100233425D01*
X157154436Y-100185395D01*
X157271401Y-100103495D01*
X157438495Y-99936401D01*
X157574035Y-99742830D01*
X157673903Y-99528663D01*
X157735063Y-99300408D01*
X157755659Y-99065000D01*
X157735063Y-98829592D01*
X157673903Y-98601337D01*
X157574035Y-98387171D01*
X157515909Y-98304157D01*
X157438494Y-98193597D01*
X157271402Y-98026506D01*
X157271396Y-98026501D01*
X157085842Y-97896575D01*
X157042217Y-97841998D01*
X157035023Y-97772500D01*
X157066546Y-97710145D01*
X157085842Y-97693425D01*
X157154436Y-97645395D01*
X157271401Y-97563495D01*
X157438495Y-97396401D01*
X157574035Y-97202830D01*
X157673903Y-96988663D01*
X157735063Y-96760408D01*
X157755659Y-96525000D01*
X157735063Y-96289592D01*
X157673903Y-96061337D01*
X157574035Y-95847171D01*
X157495844Y-95735501D01*
X157438494Y-95653597D01*
X157271402Y-95486506D01*
X157271396Y-95486501D01*
X157085842Y-95356575D01*
X157042217Y-95301998D01*
X157035023Y-95232500D01*
X157066546Y-95170145D01*
X157085842Y-95153425D01*
X157154436Y-95105395D01*
X157271401Y-95023495D01*
X157438495Y-94856401D01*
X157574035Y-94662830D01*
X157673903Y-94448663D01*
X157735063Y-94220408D01*
X157755659Y-93985000D01*
X157735063Y-93749592D01*
X157673903Y-93521337D01*
X157574035Y-93307171D01*
X157549373Y-93271949D01*
X157438494Y-93113597D01*
X157271402Y-92946506D01*
X157271396Y-92946501D01*
X157085842Y-92816575D01*
X157042217Y-92761998D01*
X157035023Y-92692500D01*
X157066546Y-92630145D01*
X157085842Y-92613425D01*
X157154883Y-92565082D01*
X157271401Y-92483495D01*
X157438495Y-92316401D01*
X157574035Y-92122830D01*
X157673903Y-91908663D01*
X157735063Y-91680408D01*
X157755659Y-91445000D01*
X157755571Y-91443999D01*
X157735063Y-91209596D01*
X157735063Y-91209592D01*
X157673903Y-90981337D01*
X157574035Y-90767171D01*
X157496117Y-90655891D01*
X157438494Y-90573597D01*
X157271402Y-90406506D01*
X157271396Y-90406501D01*
X157085842Y-90276575D01*
X157042217Y-90221998D01*
X157035023Y-90152500D01*
X157066546Y-90090145D01*
X157085842Y-90073425D01*
X157154436Y-90025395D01*
X157271401Y-89943495D01*
X157438495Y-89776401D01*
X157574035Y-89582830D01*
X157673903Y-89368663D01*
X157735063Y-89140408D01*
X157755659Y-88905000D01*
X157735063Y-88669592D01*
X157673903Y-88441337D01*
X157574035Y-88227171D01*
X157527474Y-88160674D01*
X157438494Y-88033597D01*
X157271402Y-87866506D01*
X157271396Y-87866501D01*
X157085842Y-87736575D01*
X157042217Y-87681998D01*
X157035023Y-87612500D01*
X157066546Y-87550145D01*
X157085842Y-87533425D01*
X157116634Y-87511864D01*
X157271401Y-87403495D01*
X157438495Y-87236401D01*
X157574035Y-87042830D01*
X157673903Y-86828663D01*
X157735063Y-86600408D01*
X157755659Y-86365000D01*
X157735063Y-86129592D01*
X157673903Y-85901337D01*
X157574035Y-85687171D01*
X157552571Y-85656516D01*
X157438494Y-85493597D01*
X157271402Y-85326506D01*
X157271396Y-85326501D01*
X157085842Y-85196575D01*
X157042217Y-85141998D01*
X157035023Y-85072500D01*
X157066546Y-85010145D01*
X157085842Y-84993425D01*
X157172512Y-84932738D01*
X157271401Y-84863495D01*
X157438495Y-84696401D01*
X157574035Y-84502830D01*
X157673903Y-84288663D01*
X157735063Y-84060408D01*
X157755659Y-83825000D01*
X157755658Y-83824994D01*
X157735063Y-83589596D01*
X157735063Y-83589592D01*
X157673903Y-83361337D01*
X157574035Y-83147171D01*
X157546883Y-83108393D01*
X157438494Y-82953597D01*
X157271402Y-82786506D01*
X157271396Y-82786501D01*
X157085842Y-82656575D01*
X157042217Y-82601998D01*
X157035023Y-82532500D01*
X157066546Y-82470145D01*
X157085842Y-82453425D01*
X157211513Y-82365429D01*
X157271401Y-82323495D01*
X157438495Y-82156401D01*
X157574035Y-81962830D01*
X157673903Y-81748663D01*
X157735063Y-81520408D01*
X157755659Y-81285000D01*
X157735063Y-81049592D01*
X157673903Y-80821337D01*
X157574035Y-80607171D01*
X157438495Y-80413599D01*
X157316567Y-80291671D01*
X157283084Y-80230351D01*
X157288068Y-80160659D01*
X157329939Y-80104725D01*
X157360915Y-80087810D01*
X157492331Y-80038796D01*
X157607546Y-79952546D01*
X157693796Y-79837331D01*
X157744091Y-79702483D01*
X157750500Y-79642873D01*
X157750499Y-77847128D01*
X157744091Y-77787517D01*
X157693796Y-77652669D01*
X157693795Y-77652668D01*
X157693793Y-77652664D01*
X157607547Y-77537455D01*
X157607544Y-77537452D01*
X157492335Y-77451206D01*
X157492328Y-77451202D01*
X157357482Y-77400908D01*
X157357483Y-77400908D01*
X157297883Y-77394501D01*
X157297881Y-77394500D01*
X157297873Y-77394500D01*
X157297864Y-77394500D01*
X155502129Y-77394500D01*
X155502123Y-77394501D01*
X155442516Y-77400908D01*
X155307671Y-77451202D01*
X155307664Y-77451206D01*
X155192455Y-77537452D01*
X155192452Y-77537455D01*
X155106206Y-77652664D01*
X155106202Y-77652671D01*
X155055908Y-77787517D01*
X155053074Y-77813881D01*
X155049501Y-77847123D01*
X155049500Y-77847135D01*
X155049500Y-79642870D01*
X155049501Y-79642876D01*
X155055908Y-79702483D01*
X155106202Y-79837328D01*
X155106206Y-79837335D01*
X155192452Y-79952544D01*
X155192455Y-79952547D01*
X155307664Y-80038793D01*
X155307671Y-80038797D01*
X155439081Y-80087810D01*
X155495015Y-80129681D01*
X155519432Y-80195145D01*
X155504580Y-80263418D01*
X155483430Y-80291673D01*
X155361503Y-80413600D01*
X155225965Y-80607169D01*
X155225964Y-80607171D01*
X155126098Y-80821335D01*
X155126094Y-80821344D01*
X155064938Y-81049586D01*
X155064936Y-81049596D01*
X155044341Y-81284999D01*
X155044341Y-81285000D01*
X155064936Y-81520403D01*
X155064938Y-81520413D01*
X155126094Y-81748655D01*
X155126096Y-81748659D01*
X155126097Y-81748663D01*
X155225965Y-81962830D01*
X155225967Y-81962834D01*
X155361501Y-82156395D01*
X155361506Y-82156402D01*
X155528597Y-82323493D01*
X155528603Y-82323498D01*
X155714158Y-82453425D01*
X155757783Y-82508002D01*
X155764977Y-82577500D01*
X155733454Y-82639855D01*
X155714158Y-82656575D01*
X155528597Y-82786505D01*
X155361505Y-82953597D01*
X155225965Y-83147169D01*
X155225964Y-83147171D01*
X155126098Y-83361335D01*
X155126094Y-83361344D01*
X155064938Y-83589586D01*
X155064936Y-83589596D01*
X155044341Y-83824999D01*
X155044341Y-83825000D01*
X155064936Y-84060403D01*
X155064938Y-84060413D01*
X155126094Y-84288655D01*
X155126096Y-84288659D01*
X155126097Y-84288663D01*
X155225965Y-84502830D01*
X155225967Y-84502834D01*
X155361501Y-84696395D01*
X155361506Y-84696402D01*
X155528597Y-84863493D01*
X155528603Y-84863498D01*
X155714158Y-84993425D01*
X155757783Y-85048002D01*
X155764977Y-85117500D01*
X155733454Y-85179855D01*
X155714158Y-85196575D01*
X155528597Y-85326505D01*
X155361505Y-85493597D01*
X155225965Y-85687169D01*
X155225964Y-85687171D01*
X155126098Y-85901335D01*
X155126094Y-85901344D01*
X155064938Y-86129586D01*
X155064936Y-86129596D01*
X155044341Y-86364999D01*
X155044341Y-86365000D01*
X155064936Y-86600403D01*
X155064938Y-86600413D01*
X155126094Y-86828655D01*
X155126096Y-86828659D01*
X155126097Y-86828663D01*
X155225965Y-87042830D01*
X155225967Y-87042834D01*
X155361501Y-87236395D01*
X155361506Y-87236402D01*
X155528597Y-87403493D01*
X155528603Y-87403498D01*
X155714158Y-87533425D01*
X155757783Y-87588002D01*
X155764977Y-87657500D01*
X155733454Y-87719855D01*
X155714158Y-87736575D01*
X155528597Y-87866505D01*
X155361505Y-88033597D01*
X155225965Y-88227169D01*
X155225964Y-88227171D01*
X155126098Y-88441335D01*
X155126094Y-88441344D01*
X155064938Y-88669586D01*
X155064936Y-88669596D01*
X155044341Y-88904999D01*
X155044341Y-88905000D01*
X155064936Y-89140403D01*
X155064938Y-89140413D01*
X155126094Y-89368655D01*
X155126096Y-89368659D01*
X155126097Y-89368663D01*
X155225467Y-89581763D01*
X155225965Y-89582830D01*
X155225967Y-89582834D01*
X155361501Y-89776395D01*
X155361506Y-89776402D01*
X155528597Y-89943493D01*
X155528603Y-89943498D01*
X155714158Y-90073425D01*
X155757783Y-90128002D01*
X155764977Y-90197500D01*
X155733454Y-90259855D01*
X155714158Y-90276575D01*
X155528597Y-90406505D01*
X155361505Y-90573597D01*
X155225965Y-90767169D01*
X155225964Y-90767171D01*
X155126098Y-90981335D01*
X155126094Y-90981344D01*
X155064938Y-91209586D01*
X155064936Y-91209596D01*
X155044341Y-91444999D01*
X155044341Y-91445000D01*
X155064936Y-91680403D01*
X155064938Y-91680413D01*
X155126094Y-91908655D01*
X155126096Y-91908659D01*
X155126097Y-91908663D01*
X155225965Y-92122830D01*
X155225967Y-92122834D01*
X155361501Y-92316395D01*
X155361506Y-92316402D01*
X155528597Y-92483493D01*
X155528603Y-92483498D01*
X155714158Y-92613425D01*
X155757783Y-92668002D01*
X155764977Y-92737500D01*
X155733454Y-92799855D01*
X155714158Y-92816575D01*
X155528597Y-92946505D01*
X155361505Y-93113597D01*
X155225965Y-93307169D01*
X155225964Y-93307171D01*
X155126098Y-93521335D01*
X155126094Y-93521344D01*
X155064938Y-93749586D01*
X155064936Y-93749596D01*
X155044341Y-93984999D01*
X155044341Y-93985000D01*
X155064936Y-94220403D01*
X155064938Y-94220413D01*
X155126094Y-94448655D01*
X155126096Y-94448659D01*
X155126097Y-94448663D01*
X155146460Y-94492331D01*
X155225965Y-94662830D01*
X155225967Y-94662834D01*
X155361501Y-94856395D01*
X155361506Y-94856402D01*
X155528597Y-95023493D01*
X155528603Y-95023498D01*
X155714158Y-95153425D01*
X155757783Y-95208002D01*
X155764977Y-95277500D01*
X155733454Y-95339855D01*
X155714158Y-95356575D01*
X155528597Y-95486505D01*
X155361505Y-95653597D01*
X155225965Y-95847169D01*
X155225964Y-95847171D01*
X155126098Y-96061335D01*
X155126094Y-96061344D01*
X155064938Y-96289586D01*
X155064936Y-96289596D01*
X155044341Y-96524999D01*
X155044341Y-96525000D01*
X155064936Y-96760403D01*
X155064938Y-96760413D01*
X155126094Y-96988655D01*
X155126096Y-96988659D01*
X155126097Y-96988663D01*
X155135771Y-97009408D01*
X155225965Y-97202830D01*
X155225967Y-97202834D01*
X155361501Y-97396395D01*
X155361506Y-97396402D01*
X155528597Y-97563493D01*
X155528603Y-97563498D01*
X155714158Y-97693425D01*
X155757783Y-97748002D01*
X155764977Y-97817500D01*
X155733454Y-97879855D01*
X155714158Y-97896575D01*
X155528597Y-98026505D01*
X155361505Y-98193597D01*
X155225965Y-98387169D01*
X155225964Y-98387171D01*
X155126098Y-98601335D01*
X155126094Y-98601344D01*
X155064938Y-98829586D01*
X155064936Y-98829596D01*
X155046246Y-99043218D01*
X155020793Y-99108287D01*
X154964202Y-99149265D01*
X154894440Y-99153143D01*
X154835037Y-99120091D01*
X147919674Y-92204727D01*
X147919673Y-92204726D01*
X147919669Y-92204723D01*
X147813127Y-92133535D01*
X147694744Y-92084499D01*
X147694740Y-92084498D01*
X147690428Y-92083640D01*
X147686115Y-92082782D01*
X147686112Y-92082781D01*
X147686112Y-92082782D01*
X147569071Y-92059500D01*
X147569069Y-92059500D01*
X134995087Y-92059500D01*
X134928048Y-92039815D01*
X134882293Y-91987011D01*
X134872349Y-91917853D01*
X134875312Y-91903407D01*
X134918421Y-91742516D01*
X134935063Y-91680408D01*
X134955659Y-91445000D01*
X134955571Y-91443999D01*
X134935063Y-91209596D01*
X134935063Y-91209592D01*
X134873903Y-90981337D01*
X134774035Y-90767171D01*
X134696117Y-90655891D01*
X134638494Y-90573597D01*
X134471402Y-90406506D01*
X134471396Y-90406501D01*
X134285842Y-90276575D01*
X134242217Y-90221998D01*
X134235023Y-90152500D01*
X134266546Y-90090145D01*
X134285842Y-90073425D01*
X134354436Y-90025395D01*
X134471401Y-89943495D01*
X134638495Y-89776401D01*
X134774035Y-89582830D01*
X134873903Y-89368663D01*
X134935063Y-89140408D01*
X134955659Y-88905000D01*
X134935063Y-88669592D01*
X134873903Y-88441337D01*
X134774035Y-88227171D01*
X134727474Y-88160674D01*
X134638494Y-88033597D01*
X134471402Y-87866506D01*
X134471396Y-87866501D01*
X134285842Y-87736575D01*
X134242217Y-87681998D01*
X134235023Y-87612500D01*
X134266546Y-87550145D01*
X134285842Y-87533425D01*
X134316634Y-87511864D01*
X134471401Y-87403495D01*
X134638495Y-87236401D01*
X134774035Y-87042830D01*
X134873903Y-86828663D01*
X134935063Y-86600408D01*
X134955659Y-86365000D01*
X134935063Y-86129592D01*
X134873903Y-85901337D01*
X134774035Y-85687171D01*
X134752571Y-85656516D01*
X134638494Y-85493597D01*
X134471402Y-85326506D01*
X134471396Y-85326501D01*
X134285842Y-85196575D01*
X134242217Y-85141998D01*
X134235023Y-85072500D01*
X134266546Y-85010145D01*
X134285842Y-84993425D01*
X134372512Y-84932738D01*
X134471401Y-84863495D01*
X134638495Y-84696401D01*
X134774035Y-84502830D01*
X134873903Y-84288663D01*
X134935063Y-84060408D01*
X134955659Y-83825000D01*
X134955658Y-83824994D01*
X134935063Y-83589596D01*
X134935063Y-83589592D01*
X134873903Y-83361337D01*
X134774035Y-83147171D01*
X134746883Y-83108393D01*
X134638494Y-82953597D01*
X134471402Y-82786506D01*
X134471396Y-82786501D01*
X134285842Y-82656575D01*
X134242217Y-82601998D01*
X134235023Y-82532500D01*
X134266546Y-82470145D01*
X134285842Y-82453425D01*
X134411513Y-82365429D01*
X134471401Y-82323495D01*
X134638495Y-82156401D01*
X134774035Y-81962830D01*
X134873903Y-81748663D01*
X134935063Y-81520408D01*
X134955659Y-81285000D01*
X134935063Y-81049592D01*
X134873903Y-80821337D01*
X134774035Y-80607171D01*
X134638495Y-80413599D01*
X134516567Y-80291671D01*
X134483084Y-80230351D01*
X134488068Y-80160659D01*
X134529939Y-80104725D01*
X134560915Y-80087810D01*
X134692331Y-80038796D01*
X134807546Y-79952546D01*
X134893796Y-79837331D01*
X134944091Y-79702483D01*
X134950500Y-79642873D01*
X134950499Y-77847128D01*
X134944091Y-77787517D01*
X134893796Y-77652669D01*
X134893795Y-77652668D01*
X134893793Y-77652664D01*
X134807547Y-77537455D01*
X134807544Y-77537452D01*
X134692335Y-77451206D01*
X134692328Y-77451202D01*
X134557482Y-77400908D01*
X134557483Y-77400908D01*
X134497883Y-77394501D01*
X134497881Y-77394500D01*
X134497873Y-77394500D01*
X134497864Y-77394500D01*
X132702129Y-77394500D01*
X132702123Y-77394501D01*
X132642516Y-77400908D01*
X132507671Y-77451202D01*
X132507664Y-77451206D01*
X132392455Y-77537452D01*
X132392452Y-77537455D01*
X132306206Y-77652664D01*
X132306202Y-77652671D01*
X132255908Y-77787517D01*
X132253074Y-77813881D01*
X132249501Y-77847123D01*
X132249500Y-77847135D01*
X132249500Y-79642870D01*
X132249501Y-79642876D01*
X132255908Y-79702483D01*
X132306202Y-79837328D01*
X132306206Y-79837335D01*
X132392452Y-79952544D01*
X132392455Y-79952547D01*
X132507664Y-80038793D01*
X132507671Y-80038797D01*
X132639081Y-80087810D01*
X132695015Y-80129681D01*
X132719432Y-80195145D01*
X132704580Y-80263418D01*
X132683430Y-80291673D01*
X132561503Y-80413600D01*
X132425965Y-80607169D01*
X132425964Y-80607171D01*
X132326098Y-80821335D01*
X132326094Y-80821344D01*
X132264938Y-81049586D01*
X132264936Y-81049596D01*
X132244341Y-81284999D01*
X132244341Y-81285000D01*
X132264936Y-81520403D01*
X132264938Y-81520413D01*
X132326094Y-81748655D01*
X132326096Y-81748659D01*
X132326097Y-81748663D01*
X132425965Y-81962830D01*
X132425967Y-81962834D01*
X132561501Y-82156395D01*
X132561506Y-82156402D01*
X132728597Y-82323493D01*
X132728603Y-82323498D01*
X132914158Y-82453425D01*
X132957783Y-82508002D01*
X132964977Y-82577500D01*
X132933454Y-82639855D01*
X132914158Y-82656575D01*
X132728597Y-82786505D01*
X132561505Y-82953597D01*
X132425965Y-83147169D01*
X132425964Y-83147171D01*
X132326098Y-83361335D01*
X132326094Y-83361344D01*
X132264938Y-83589586D01*
X132264936Y-83589596D01*
X132244341Y-83824999D01*
X132244341Y-83825000D01*
X132264936Y-84060403D01*
X132264938Y-84060413D01*
X132326094Y-84288655D01*
X132326096Y-84288659D01*
X132326097Y-84288663D01*
X132425965Y-84502830D01*
X132425967Y-84502834D01*
X132561501Y-84696395D01*
X132561506Y-84696402D01*
X132728597Y-84863493D01*
X132728603Y-84863498D01*
X132914158Y-84993425D01*
X132957783Y-85048002D01*
X132964977Y-85117500D01*
X132933454Y-85179855D01*
X132914158Y-85196575D01*
X132728597Y-85326505D01*
X132561505Y-85493597D01*
X132425965Y-85687169D01*
X132425964Y-85687171D01*
X132326098Y-85901335D01*
X132326094Y-85901344D01*
X132264938Y-86129586D01*
X132264936Y-86129596D01*
X132244341Y-86364999D01*
X132244341Y-86365000D01*
X132264936Y-86600403D01*
X132264938Y-86600413D01*
X132326094Y-86828655D01*
X132326096Y-86828659D01*
X132326097Y-86828663D01*
X132425965Y-87042830D01*
X132425967Y-87042834D01*
X132561501Y-87236395D01*
X132561506Y-87236402D01*
X132728597Y-87403493D01*
X132728603Y-87403498D01*
X132914158Y-87533425D01*
X132957783Y-87588002D01*
X132964977Y-87657500D01*
X132933454Y-87719855D01*
X132914158Y-87736575D01*
X132728597Y-87866505D01*
X132561505Y-88033597D01*
X132425965Y-88227169D01*
X132425964Y-88227171D01*
X132326098Y-88441335D01*
X132326094Y-88441344D01*
X132264938Y-88669586D01*
X132264936Y-88669596D01*
X132244341Y-88904999D01*
X132244341Y-88905000D01*
X132264936Y-89140403D01*
X132264938Y-89140413D01*
X132326094Y-89368655D01*
X132326096Y-89368659D01*
X132326097Y-89368663D01*
X132425467Y-89581763D01*
X132425965Y-89582830D01*
X132425967Y-89582834D01*
X132561501Y-89776395D01*
X132561506Y-89776402D01*
X132728597Y-89943493D01*
X132728603Y-89943498D01*
X132914158Y-90073425D01*
X132957783Y-90128002D01*
X132964977Y-90197500D01*
X132933454Y-90259855D01*
X132914158Y-90276575D01*
X132728597Y-90406505D01*
X132561505Y-90573597D01*
X132425965Y-90767169D01*
X132425964Y-90767171D01*
X132326098Y-90981335D01*
X132326095Y-90981341D01*
X132266129Y-91205140D01*
X132229764Y-91264800D01*
X132166917Y-91295329D01*
X132097541Y-91287034D01*
X132058673Y-91260727D01*
X130379709Y-89581763D01*
X130346224Y-89520440D01*
X130347615Y-89461989D01*
X130348545Y-89458517D01*
X130367063Y-89389408D01*
X130387659Y-89154000D01*
X130367063Y-88918592D01*
X130315593Y-88726500D01*
X130305905Y-88690344D01*
X130305904Y-88690343D01*
X130305903Y-88690337D01*
X130206035Y-88476171D01*
X130200548Y-88468335D01*
X130070496Y-88282600D01*
X130015065Y-88227169D01*
X129948567Y-88160671D01*
X129915084Y-88099351D01*
X129920068Y-88029659D01*
X129961939Y-87973725D01*
X129992915Y-87956810D01*
X130124331Y-87907796D01*
X130239546Y-87821546D01*
X130325796Y-87706331D01*
X130376091Y-87571483D01*
X130382500Y-87511873D01*
X130382499Y-85716128D01*
X130376091Y-85656517D01*
X130325796Y-85521669D01*
X130325795Y-85521668D01*
X130325793Y-85521664D01*
X130239547Y-85406455D01*
X130239544Y-85406452D01*
X130124335Y-85320206D01*
X130124328Y-85320202D01*
X129989482Y-85269908D01*
X129989483Y-85269908D01*
X129929883Y-85263501D01*
X129929881Y-85263500D01*
X129929873Y-85263500D01*
X129929864Y-85263500D01*
X128134129Y-85263500D01*
X128134123Y-85263501D01*
X128074516Y-85269908D01*
X127939671Y-85320202D01*
X127939664Y-85320206D01*
X127824455Y-85406452D01*
X127824452Y-85406455D01*
X127738206Y-85521664D01*
X127738202Y-85521671D01*
X127687908Y-85656517D01*
X127684613Y-85687169D01*
X127681501Y-85716123D01*
X127681500Y-85716135D01*
X127681500Y-87511870D01*
X127681501Y-87511876D01*
X127687908Y-87571483D01*
X127738202Y-87706328D01*
X127738206Y-87706335D01*
X127824452Y-87821544D01*
X127824455Y-87821547D01*
X127939664Y-87907793D01*
X127939671Y-87907797D01*
X128071081Y-87956810D01*
X128127015Y-87998681D01*
X128151432Y-88064145D01*
X128136580Y-88132418D01*
X128115430Y-88160673D01*
X127993503Y-88282600D01*
X127857965Y-88476169D01*
X127857964Y-88476171D01*
X127758098Y-88690335D01*
X127758094Y-88690344D01*
X127696938Y-88918586D01*
X127696936Y-88918596D01*
X127676341Y-89153999D01*
X127676341Y-89154000D01*
X127696936Y-89389403D01*
X127696938Y-89389413D01*
X127758094Y-89617655D01*
X127758096Y-89617659D01*
X127758097Y-89617663D01*
X127857965Y-89831830D01*
X127857967Y-89831834D01*
X127993501Y-90025395D01*
X127993506Y-90025402D01*
X128160597Y-90192493D01*
X128160603Y-90192498D01*
X128346594Y-90322730D01*
X128390219Y-90377307D01*
X128397413Y-90446805D01*
X128365890Y-90509160D01*
X128346595Y-90525880D01*
X128160922Y-90655890D01*
X128160920Y-90655891D01*
X127993891Y-90822920D01*
X127993886Y-90822926D01*
X127858400Y-91016420D01*
X127858399Y-91016422D01*
X127758570Y-91230507D01*
X127758567Y-91230513D01*
X127701364Y-91443999D01*
X127701364Y-91444000D01*
X128598988Y-91444000D01*
X128566075Y-91501007D01*
X128532000Y-91628174D01*
X128532000Y-91759826D01*
X128566075Y-91886993D01*
X128598988Y-91944000D01*
X127701364Y-91944000D01*
X127758567Y-92157486D01*
X127758570Y-92157492D01*
X127858399Y-92371578D01*
X127993894Y-92565082D01*
X128160917Y-92732105D01*
X128346595Y-92862119D01*
X128390219Y-92916696D01*
X128397412Y-92986195D01*
X128365890Y-93048549D01*
X128346595Y-93065269D01*
X128160594Y-93195508D01*
X127993506Y-93362596D01*
X127875854Y-93530623D01*
X127821277Y-93574248D01*
X127774279Y-93583500D01*
X125376929Y-93583500D01*
X125251261Y-93608497D01*
X125251255Y-93608499D01*
X125132874Y-93657534D01*
X125026326Y-93728726D01*
X122334799Y-96420253D01*
X122273476Y-96453738D01*
X122210568Y-96451063D01*
X122004466Y-96387489D01*
X122004462Y-96387488D01*
X122004458Y-96387487D01*
X121883231Y-96369214D01*
X121752440Y-96349500D01*
X121752435Y-96349500D01*
X121497565Y-96349500D01*
X121497559Y-96349500D01*
X121340609Y-96373157D01*
X121245542Y-96387487D01*
X121245539Y-96387488D01*
X121245533Y-96387489D01*
X121001992Y-96462612D01*
X120772373Y-96573190D01*
X120772372Y-96573191D01*
X120561782Y-96716768D01*
X120374952Y-96890121D01*
X120374950Y-96890123D01*
X120216041Y-97089388D01*
X120088608Y-97310109D01*
X119995492Y-97547362D01*
X119995490Y-97547369D01*
X119938777Y-97795845D01*
X119919732Y-98049995D01*
X119919732Y-98050004D01*
X119938777Y-98304154D01*
X119970376Y-98442599D01*
X119995492Y-98552637D01*
X120088607Y-98789888D01*
X120216041Y-99010612D01*
X120374950Y-99209877D01*
X120561783Y-99383232D01*
X120772366Y-99526805D01*
X120772371Y-99526807D01*
X120772372Y-99526808D01*
X120772373Y-99526809D01*
X120894328Y-99585538D01*
X121001992Y-99637387D01*
X121001993Y-99637387D01*
X121001996Y-99637389D01*
X121245542Y-99712513D01*
X121497565Y-99750500D01*
X121752435Y-99750500D01*
X122004458Y-99712513D01*
X122210573Y-99648934D01*
X122280431Y-99647985D01*
X122334799Y-99679745D01*
X124288181Y-101633127D01*
X124321666Y-101694450D01*
X124324500Y-101720808D01*
X124324500Y-108181071D01*
X124347964Y-108299027D01*
X124347964Y-108299030D01*
X124347965Y-108299030D01*
X124349499Y-108306745D01*
X124398534Y-108425125D01*
X124469726Y-108531673D01*
X124469727Y-108531674D01*
X129343115Y-113405061D01*
X129376600Y-113466384D01*
X129375209Y-113524834D01*
X129364367Y-113565299D01*
X129364364Y-113565313D01*
X129344532Y-113791998D01*
X129344532Y-113792001D01*
X129364364Y-114018686D01*
X129364366Y-114018697D01*
X129423258Y-114238488D01*
X129423261Y-114238497D01*
X129519431Y-114444732D01*
X129519432Y-114444734D01*
X129649954Y-114631141D01*
X129810858Y-114792045D01*
X129810861Y-114792047D01*
X129997266Y-114922568D01*
X130203504Y-115018739D01*
X130423308Y-115077635D01*
X130585230Y-115091801D01*
X130649998Y-115097468D01*
X130650000Y-115097468D01*
X130650002Y-115097468D01*
X130706673Y-115092509D01*
X130876692Y-115077635D01*
X131096496Y-115018739D01*
X131302734Y-114922568D01*
X131489139Y-114792047D01*
X131650047Y-114631139D01*
X131780568Y-114444734D01*
X131876739Y-114238496D01*
X131935635Y-114018692D01*
X131955468Y-113792000D01*
X131935635Y-113565308D01*
X131876739Y-113345504D01*
X131780568Y-113139266D01*
X131650047Y-112952861D01*
X131650045Y-112952858D01*
X131489141Y-112791954D01*
X131302734Y-112661432D01*
X131302732Y-112661431D01*
X131096497Y-112565261D01*
X131096488Y-112565258D01*
X130876697Y-112506366D01*
X130876693Y-112506365D01*
X130876692Y-112506365D01*
X130876691Y-112506364D01*
X130876686Y-112506364D01*
X130650002Y-112486532D01*
X130649998Y-112486532D01*
X130423313Y-112506364D01*
X130423299Y-112506367D01*
X130382834Y-112517209D01*
X130312984Y-112515545D01*
X130263061Y-112485115D01*
X125661819Y-107883873D01*
X125628334Y-107822550D01*
X125625500Y-107796192D01*
X125625500Y-107724998D01*
X129349532Y-107724998D01*
X129349532Y-107725001D01*
X129369364Y-107951686D01*
X129369366Y-107951697D01*
X129428258Y-108171488D01*
X129428261Y-108171497D01*
X129524431Y-108377732D01*
X129524432Y-108377734D01*
X129654954Y-108564141D01*
X129815858Y-108725045D01*
X129815861Y-108725047D01*
X130002266Y-108855568D01*
X130208504Y-108951739D01*
X130428308Y-109010635D01*
X130590230Y-109024801D01*
X130654998Y-109030468D01*
X130655000Y-109030468D01*
X130655002Y-109030468D01*
X130711673Y-109025509D01*
X130881692Y-109010635D01*
X131101496Y-108951739D01*
X131307734Y-108855568D01*
X131494139Y-108725047D01*
X131655047Y-108564139D01*
X131785568Y-108377734D01*
X131881739Y-108171496D01*
X131940635Y-107951692D01*
X131960468Y-107725000D01*
X131960336Y-107723495D01*
X131946960Y-107570606D01*
X131940635Y-107498308D01*
X131881739Y-107278504D01*
X131785568Y-107072266D01*
X131655047Y-106885861D01*
X131655045Y-106885858D01*
X131494141Y-106724954D01*
X131307734Y-106594432D01*
X131307732Y-106594431D01*
X131101497Y-106498261D01*
X131101488Y-106498258D01*
X130881697Y-106439366D01*
X130881693Y-106439365D01*
X130881692Y-106439365D01*
X130881691Y-106439364D01*
X130881686Y-106439364D01*
X130655002Y-106419532D01*
X130654998Y-106419532D01*
X130428313Y-106439364D01*
X130428302Y-106439366D01*
X130208511Y-106498258D01*
X130208502Y-106498261D01*
X130002267Y-106594431D01*
X130002265Y-106594432D01*
X129815858Y-106724954D01*
X129654954Y-106885858D01*
X129524432Y-107072265D01*
X129524431Y-107072267D01*
X129428261Y-107278502D01*
X129428258Y-107278511D01*
X129369366Y-107498302D01*
X129369364Y-107498313D01*
X129349532Y-107724998D01*
X125625500Y-107724998D01*
X125625500Y-101335928D01*
X125600502Y-101210261D01*
X125600501Y-101210260D01*
X125600501Y-101210256D01*
X125551465Y-101091873D01*
X125541436Y-101076864D01*
X125541435Y-101076861D01*
X125480277Y-100985331D01*
X125480271Y-100985324D01*
X123253593Y-98758647D01*
X123220108Y-98697324D01*
X123225092Y-98627632D01*
X123225794Y-98625795D01*
X123254508Y-98552637D01*
X123311222Y-98304157D01*
X123330268Y-98050000D01*
X123329818Y-98044000D01*
X123311222Y-97795845D01*
X123311029Y-97795000D01*
X123254508Y-97547363D01*
X123225845Y-97474333D01*
X123219677Y-97404738D01*
X123252114Y-97342854D01*
X123253529Y-97341415D01*
X125674127Y-94920819D01*
X125735450Y-94887334D01*
X125761808Y-94884500D01*
X127774278Y-94884500D01*
X127841317Y-94904185D01*
X127875853Y-94937377D01*
X127993501Y-95105396D01*
X127993506Y-95105402D01*
X128160597Y-95272493D01*
X128160603Y-95272498D01*
X128346158Y-95402425D01*
X128389783Y-95457002D01*
X128396977Y-95526500D01*
X128365454Y-95588855D01*
X128346158Y-95605575D01*
X128160597Y-95735505D01*
X127993505Y-95902597D01*
X127857965Y-96096169D01*
X127857964Y-96096171D01*
X127758098Y-96310335D01*
X127758094Y-96310344D01*
X127696938Y-96538586D01*
X127696936Y-96538596D01*
X127676341Y-96773999D01*
X127676341Y-96774000D01*
X127696936Y-97009403D01*
X127696938Y-97009413D01*
X127758094Y-97237655D01*
X127758096Y-97237659D01*
X127758097Y-97237663D01*
X127833218Y-97398760D01*
X127857965Y-97451830D01*
X127857967Y-97451834D01*
X127993501Y-97645395D01*
X127993506Y-97645402D01*
X128160597Y-97812493D01*
X128160603Y-97812498D01*
X128346158Y-97942425D01*
X128389783Y-97997002D01*
X128396977Y-98066500D01*
X128365454Y-98128855D01*
X128346158Y-98145575D01*
X128160597Y-98275505D01*
X127993505Y-98442597D01*
X127857965Y-98636169D01*
X127857964Y-98636171D01*
X127758098Y-98850335D01*
X127758094Y-98850344D01*
X127696938Y-99078586D01*
X127696936Y-99078596D01*
X127676341Y-99313999D01*
X127676341Y-99314000D01*
X127696936Y-99549403D01*
X127696938Y-99549413D01*
X127758094Y-99777655D01*
X127758096Y-99777659D01*
X127758097Y-99777663D01*
X127857965Y-99991830D01*
X127857967Y-99991834D01*
X127993501Y-100185395D01*
X127993506Y-100185402D01*
X128160597Y-100352493D01*
X128160603Y-100352498D01*
X128346158Y-100482425D01*
X128389783Y-100537002D01*
X128396977Y-100606500D01*
X128365454Y-100668855D01*
X128346158Y-100685575D01*
X128160597Y-100815505D01*
X127993505Y-100982597D01*
X127857965Y-101176169D01*
X127857964Y-101176171D01*
X127758098Y-101390335D01*
X127758094Y-101390344D01*
X127696938Y-101618586D01*
X127696936Y-101618596D01*
X127676341Y-101853999D01*
X127676341Y-101854000D01*
X127696936Y-102089403D01*
X127696938Y-102089413D01*
X127758094Y-102317655D01*
X127758096Y-102317659D01*
X127758097Y-102317663D01*
X127857965Y-102531830D01*
X127857967Y-102531834D01*
X127993501Y-102725395D01*
X127993506Y-102725402D01*
X128160597Y-102892493D01*
X128160603Y-102892498D01*
X128346158Y-103022425D01*
X128389783Y-103077002D01*
X128396977Y-103146500D01*
X128365454Y-103208855D01*
X128346158Y-103225575D01*
X128160597Y-103355505D01*
X127993505Y-103522597D01*
X127857965Y-103716169D01*
X127857964Y-103716171D01*
X127758098Y-103930335D01*
X127758094Y-103930344D01*
X127696938Y-104158586D01*
X127696936Y-104158596D01*
X127676341Y-104393999D01*
X127676341Y-104394000D01*
X127696936Y-104629403D01*
X127696938Y-104629413D01*
X127758094Y-104857655D01*
X127758096Y-104857659D01*
X127758097Y-104857663D01*
X127857965Y-105071830D01*
X127857967Y-105071834D01*
X127936152Y-105183493D01*
X127993505Y-105265401D01*
X128160599Y-105432495D01*
X128202734Y-105461998D01*
X128354165Y-105568032D01*
X128354167Y-105568033D01*
X128354170Y-105568035D01*
X128568337Y-105667903D01*
X128796592Y-105729063D01*
X128984918Y-105745539D01*
X129031999Y-105749659D01*
X129032000Y-105749659D01*
X129032001Y-105749659D01*
X129071234Y-105746226D01*
X129267408Y-105729063D01*
X129495663Y-105667903D01*
X129709830Y-105568035D01*
X129903401Y-105432495D01*
X130070495Y-105265401D01*
X130206035Y-105071830D01*
X130305903Y-104857663D01*
X130367063Y-104629408D01*
X130387659Y-104394000D01*
X130367063Y-104158592D01*
X130305903Y-103930337D01*
X130206035Y-103716171D01*
X130070495Y-103522599D01*
X130070494Y-103522597D01*
X129903402Y-103355506D01*
X129903396Y-103355501D01*
X129717842Y-103225575D01*
X129674217Y-103170998D01*
X129667023Y-103101500D01*
X129698546Y-103039145D01*
X129717842Y-103022425D01*
X129861266Y-102921998D01*
X129903401Y-102892495D01*
X130070495Y-102725401D01*
X130206035Y-102531830D01*
X130305903Y-102317663D01*
X130367063Y-102089408D01*
X130387659Y-101854000D01*
X130367063Y-101618592D01*
X130305903Y-101390337D01*
X130206035Y-101176171D01*
X130147010Y-101091873D01*
X130070494Y-100982597D01*
X129903402Y-100815506D01*
X129903396Y-100815501D01*
X129717842Y-100685575D01*
X129674217Y-100630998D01*
X129667023Y-100561500D01*
X129698546Y-100499145D01*
X129717842Y-100482425D01*
X129861266Y-100381998D01*
X129903401Y-100352495D01*
X130070495Y-100185401D01*
X130206035Y-99991830D01*
X130305903Y-99777663D01*
X130367063Y-99549408D01*
X130387659Y-99314000D01*
X130367063Y-99078592D01*
X130305903Y-98850337D01*
X130206035Y-98636171D01*
X130147545Y-98552637D01*
X130070494Y-98442597D01*
X129903402Y-98275506D01*
X129903396Y-98275501D01*
X129717842Y-98145575D01*
X129674217Y-98090998D01*
X129667023Y-98021500D01*
X129698546Y-97959145D01*
X129717842Y-97942425D01*
X129861266Y-97841998D01*
X129903401Y-97812495D01*
X130070495Y-97645401D01*
X130206035Y-97451830D01*
X130305903Y-97237663D01*
X130367063Y-97009408D01*
X130387659Y-96774000D01*
X130367063Y-96538592D01*
X130305903Y-96310337D01*
X130206035Y-96096171D01*
X130070495Y-95902599D01*
X130070494Y-95902597D01*
X129903402Y-95735506D01*
X129903396Y-95735501D01*
X129717842Y-95605575D01*
X129674217Y-95550998D01*
X129667023Y-95481500D01*
X129698546Y-95419145D01*
X129717842Y-95402425D01*
X129861266Y-95301998D01*
X129903401Y-95272495D01*
X130070495Y-95105401D01*
X130206035Y-94911830D01*
X130305903Y-94697663D01*
X130367063Y-94469408D01*
X130387659Y-94234000D01*
X130367063Y-93998592D01*
X130305903Y-93770337D01*
X130206035Y-93556171D01*
X130188147Y-93530623D01*
X130070494Y-93362597D01*
X129903402Y-93195506D01*
X129903401Y-93195505D01*
X129717405Y-93065269D01*
X129673781Y-93010692D01*
X129666588Y-92941193D01*
X129698110Y-92878839D01*
X129717405Y-92862119D01*
X129903082Y-92732105D01*
X130070105Y-92565082D01*
X130205600Y-92371578D01*
X130305429Y-92157492D01*
X130305432Y-92157486D01*
X130362636Y-91944000D01*
X129465012Y-91944000D01*
X129497925Y-91886993D01*
X129532000Y-91759826D01*
X129532000Y-91628174D01*
X129497925Y-91501007D01*
X129465012Y-91444000D01*
X130350692Y-91444000D01*
X130417731Y-91463685D01*
X130438373Y-91480319D01*
X132173324Y-93215271D01*
X132173327Y-93215274D01*
X132258149Y-93271950D01*
X132258148Y-93271950D01*
X132279872Y-93286465D01*
X132290732Y-93290963D01*
X132345137Y-93334803D01*
X132367203Y-93401097D01*
X132355664Y-93457929D01*
X132326099Y-93521330D01*
X132326094Y-93521344D01*
X132264938Y-93749586D01*
X132264936Y-93749596D01*
X132244341Y-93984999D01*
X132244341Y-93985000D01*
X132264936Y-94220403D01*
X132264938Y-94220413D01*
X132326094Y-94448655D01*
X132326096Y-94448659D01*
X132326097Y-94448663D01*
X132346460Y-94492331D01*
X132425965Y-94662830D01*
X132425967Y-94662834D01*
X132561501Y-94856395D01*
X132561506Y-94856402D01*
X132728597Y-95023493D01*
X132728603Y-95023498D01*
X132914158Y-95153425D01*
X132957783Y-95208002D01*
X132964977Y-95277500D01*
X132933454Y-95339855D01*
X132914158Y-95356575D01*
X132728597Y-95486505D01*
X132561505Y-95653597D01*
X132425965Y-95847169D01*
X132425964Y-95847171D01*
X132326098Y-96061335D01*
X132326094Y-96061344D01*
X132264938Y-96289586D01*
X132264936Y-96289596D01*
X132244341Y-96524999D01*
X132244341Y-96525000D01*
X132264936Y-96760403D01*
X132264938Y-96760413D01*
X132326094Y-96988655D01*
X132326096Y-96988659D01*
X132326097Y-96988663D01*
X132335771Y-97009408D01*
X132425965Y-97202830D01*
X132425967Y-97202834D01*
X132561501Y-97396395D01*
X132561506Y-97396402D01*
X132728597Y-97563493D01*
X132728603Y-97563498D01*
X132914158Y-97693425D01*
X132957783Y-97748002D01*
X132964977Y-97817500D01*
X132933454Y-97879855D01*
X132914158Y-97896575D01*
X132728597Y-98026505D01*
X132561505Y-98193597D01*
X132425965Y-98387169D01*
X132425964Y-98387171D01*
X132326098Y-98601335D01*
X132326094Y-98601344D01*
X132264938Y-98829586D01*
X132264936Y-98829596D01*
X132244341Y-99064999D01*
X132244341Y-99065000D01*
X132264936Y-99300403D01*
X132264938Y-99300413D01*
X132326094Y-99528655D01*
X132326096Y-99528659D01*
X132326097Y-99528663D01*
X132335771Y-99549408D01*
X132425965Y-99742830D01*
X132425967Y-99742834D01*
X132561501Y-99936395D01*
X132561506Y-99936402D01*
X132728597Y-100103493D01*
X132728603Y-100103498D01*
X132914158Y-100233425D01*
X132957783Y-100288002D01*
X132964977Y-100357500D01*
X132933454Y-100419855D01*
X132914158Y-100436575D01*
X132728597Y-100566505D01*
X132561505Y-100733597D01*
X132425965Y-100927169D01*
X132425964Y-100927171D01*
X132326098Y-101141335D01*
X132326094Y-101141344D01*
X132264938Y-101369586D01*
X132264936Y-101369596D01*
X132244341Y-101604999D01*
X132244341Y-101605000D01*
X132264936Y-101840403D01*
X132264938Y-101840413D01*
X132326094Y-102068655D01*
X132326096Y-102068659D01*
X132326097Y-102068663D01*
X132335771Y-102089408D01*
X132425965Y-102282830D01*
X132425967Y-102282834D01*
X132561501Y-102476395D01*
X132561506Y-102476402D01*
X132728597Y-102643493D01*
X132728603Y-102643498D01*
X132914158Y-102773425D01*
X132957783Y-102828002D01*
X132964977Y-102897500D01*
X132933454Y-102959855D01*
X132914158Y-102976575D01*
X132728597Y-103106505D01*
X132561505Y-103273597D01*
X132425965Y-103467169D01*
X132425964Y-103467171D01*
X132326098Y-103681335D01*
X132326094Y-103681344D01*
X132264938Y-103909586D01*
X132264936Y-103909596D01*
X132244341Y-104144999D01*
X132244341Y-104145000D01*
X132264936Y-104380403D01*
X132264938Y-104380413D01*
X132326094Y-104608655D01*
X132326096Y-104608659D01*
X132326097Y-104608663D01*
X132392237Y-104750500D01*
X132425965Y-104822830D01*
X132425967Y-104822834D01*
X132561501Y-105016395D01*
X132561506Y-105016402D01*
X132728597Y-105183493D01*
X132728603Y-105183498D01*
X132914158Y-105313425D01*
X132957783Y-105368002D01*
X132964977Y-105437500D01*
X132933454Y-105499855D01*
X132914158Y-105516575D01*
X132728597Y-105646505D01*
X132561505Y-105813597D01*
X132425965Y-106007169D01*
X132425964Y-106007171D01*
X132326098Y-106221335D01*
X132326094Y-106221344D01*
X132264938Y-106449586D01*
X132264936Y-106449596D01*
X132244341Y-106684999D01*
X132244341Y-106685000D01*
X132264936Y-106920403D01*
X132264938Y-106920413D01*
X132326094Y-107148655D01*
X132326096Y-107148659D01*
X132326097Y-107148663D01*
X132386722Y-107278673D01*
X132425965Y-107362830D01*
X132425967Y-107362834D01*
X132561501Y-107556395D01*
X132561506Y-107556402D01*
X132728597Y-107723493D01*
X132728603Y-107723498D01*
X132914158Y-107853425D01*
X132957783Y-107908002D01*
X132964977Y-107977500D01*
X132933454Y-108039855D01*
X132914158Y-108056575D01*
X132728597Y-108186505D01*
X132561505Y-108353597D01*
X132425965Y-108547169D01*
X132425964Y-108547171D01*
X132326098Y-108761335D01*
X132326094Y-108761344D01*
X132264938Y-108989586D01*
X132264936Y-108989596D01*
X132244341Y-109224999D01*
X132244341Y-109225000D01*
X132264936Y-109460403D01*
X132264938Y-109460413D01*
X132326094Y-109688655D01*
X132326096Y-109688659D01*
X132326097Y-109688663D01*
X132425965Y-109902830D01*
X132425967Y-109902834D01*
X132561501Y-110096395D01*
X132561506Y-110096402D01*
X132728597Y-110263493D01*
X132728603Y-110263498D01*
X132914158Y-110393425D01*
X132957783Y-110448002D01*
X132964977Y-110517500D01*
X132933454Y-110579855D01*
X132914158Y-110596575D01*
X132728597Y-110726505D01*
X132561505Y-110893597D01*
X132425965Y-111087169D01*
X132425964Y-111087171D01*
X132326098Y-111301335D01*
X132326094Y-111301344D01*
X132264938Y-111529586D01*
X132264936Y-111529596D01*
X132244341Y-111764999D01*
X132244341Y-111765000D01*
X132264936Y-112000403D01*
X132264938Y-112000413D01*
X132326094Y-112228655D01*
X132326096Y-112228659D01*
X132326097Y-112228663D01*
X132425965Y-112442830D01*
X132425967Y-112442834D01*
X132561501Y-112636395D01*
X132561506Y-112636402D01*
X132728597Y-112803493D01*
X132728603Y-112803498D01*
X132914158Y-112933425D01*
X132957783Y-112988002D01*
X132964977Y-113057500D01*
X132933454Y-113119855D01*
X132914158Y-113136575D01*
X132728597Y-113266505D01*
X132561505Y-113433597D01*
X132425965Y-113627169D01*
X132425964Y-113627171D01*
X132326098Y-113841335D01*
X132326094Y-113841344D01*
X132264938Y-114069586D01*
X132264936Y-114069596D01*
X132244341Y-114304999D01*
X132244341Y-114305000D01*
X132264936Y-114540403D01*
X132264938Y-114540413D01*
X132326094Y-114768655D01*
X132326096Y-114768659D01*
X132326097Y-114768663D01*
X132397864Y-114922567D01*
X132425965Y-114982830D01*
X132425967Y-114982834D01*
X132561501Y-115176395D01*
X132561506Y-115176402D01*
X132728597Y-115343493D01*
X132728603Y-115343498D01*
X132914158Y-115473425D01*
X132957783Y-115528002D01*
X132964977Y-115597500D01*
X132933454Y-115659855D01*
X132914158Y-115676575D01*
X132728597Y-115806505D01*
X132561505Y-115973597D01*
X132425965Y-116167169D01*
X132425964Y-116167171D01*
X132326098Y-116381335D01*
X132326094Y-116381344D01*
X132264938Y-116609586D01*
X132264936Y-116609596D01*
X132244341Y-116844999D01*
X132244341Y-116845000D01*
X132264936Y-117080403D01*
X132264938Y-117080413D01*
X132326094Y-117308655D01*
X132326096Y-117308659D01*
X132326097Y-117308663D01*
X132404936Y-117477734D01*
X132425965Y-117522830D01*
X132425967Y-117522834D01*
X132561501Y-117716395D01*
X132561506Y-117716402D01*
X132728597Y-117883493D01*
X132728603Y-117883498D01*
X132914158Y-118013425D01*
X132957783Y-118068002D01*
X132964977Y-118137500D01*
X132933454Y-118199855D01*
X132914158Y-118216575D01*
X132728597Y-118346505D01*
X132561505Y-118513597D01*
X132425965Y-118707169D01*
X132425964Y-118707171D01*
X132326098Y-118921335D01*
X132326094Y-118921344D01*
X132264938Y-119149586D01*
X132264936Y-119149596D01*
X132244341Y-119384999D01*
X132244341Y-119385000D01*
X132264936Y-119620403D01*
X132264938Y-119620413D01*
X132326094Y-119848655D01*
X132326096Y-119848659D01*
X132326097Y-119848663D01*
X132420202Y-120050471D01*
X132425965Y-120062830D01*
X132425967Y-120062834D01*
X132561501Y-120256395D01*
X132561506Y-120256402D01*
X132728597Y-120423493D01*
X132728603Y-120423498D01*
X132774404Y-120455568D01*
X132911750Y-120551739D01*
X132914594Y-120553730D01*
X132958219Y-120608307D01*
X132965413Y-120677805D01*
X132933890Y-120740160D01*
X132914595Y-120756880D01*
X132728922Y-120886890D01*
X132728920Y-120886891D01*
X132561891Y-121053920D01*
X132561886Y-121053926D01*
X132426400Y-121247420D01*
X132426399Y-121247422D01*
X132326570Y-121461507D01*
X132326567Y-121461513D01*
X132269364Y-121674999D01*
X132269364Y-121675000D01*
X133166988Y-121675000D01*
X133134075Y-121732007D01*
X133100000Y-121859174D01*
X133100000Y-121990826D01*
X133134075Y-122117993D01*
X133166988Y-122175000D01*
X132269364Y-122175000D01*
X132326567Y-122388486D01*
X132326570Y-122388492D01*
X132426399Y-122602578D01*
X132561894Y-122796082D01*
X132728917Y-122963105D01*
X132922421Y-123098600D01*
X133136507Y-123198429D01*
X133136516Y-123198433D01*
X133350000Y-123255634D01*
X133350000Y-122358012D01*
X133407007Y-122390925D01*
X133534174Y-122425000D01*
X133665826Y-122425000D01*
X133792993Y-122390925D01*
X133850000Y-122358012D01*
X133850000Y-123255633D01*
X134063483Y-123198433D01*
X134063492Y-123198429D01*
X134277578Y-123098600D01*
X134471082Y-122963105D01*
X134638105Y-122796082D01*
X134773600Y-122602578D01*
X134873429Y-122388492D01*
X134873432Y-122388486D01*
X134930636Y-122175000D01*
X134033012Y-122175000D01*
X134065925Y-122117993D01*
X134100000Y-121990826D01*
X134100000Y-121859174D01*
X134065925Y-121732007D01*
X134033012Y-121675000D01*
X134930636Y-121675000D01*
X134930635Y-121674999D01*
X134873432Y-121461513D01*
X134873429Y-121461507D01*
X134773600Y-121247422D01*
X134773599Y-121247420D01*
X134638113Y-121053926D01*
X134638108Y-121053920D01*
X134471078Y-120886890D01*
X134285405Y-120756879D01*
X134241780Y-120702302D01*
X134234588Y-120632804D01*
X134266110Y-120570449D01*
X134285406Y-120553730D01*
X134288247Y-120551741D01*
X134471401Y-120423495D01*
X134638495Y-120256401D01*
X134774035Y-120062830D01*
X134873903Y-119848663D01*
X134935063Y-119620408D01*
X134955659Y-119385000D01*
X134935063Y-119149592D01*
X134882188Y-118952259D01*
X134873905Y-118921344D01*
X134873904Y-118921343D01*
X134873903Y-118921337D01*
X134774035Y-118707171D01*
X134749770Y-118672516D01*
X134638494Y-118513597D01*
X134471402Y-118346506D01*
X134471396Y-118346501D01*
X134285842Y-118216575D01*
X134242217Y-118161998D01*
X134235023Y-118092500D01*
X134266546Y-118030145D01*
X134285842Y-118013425D01*
X134368470Y-117955568D01*
X134471401Y-117883495D01*
X134638495Y-117716401D01*
X134774035Y-117522830D01*
X134873903Y-117308663D01*
X134935063Y-117080408D01*
X134955659Y-116845000D01*
X134935063Y-116609592D01*
X134873903Y-116381337D01*
X134774035Y-116167171D01*
X134673461Y-116023535D01*
X134638494Y-115973597D01*
X134471402Y-115806506D01*
X134471396Y-115806501D01*
X134285842Y-115676575D01*
X134242217Y-115621998D01*
X134235023Y-115552500D01*
X134266546Y-115490145D01*
X134285842Y-115473425D01*
X134308026Y-115457891D01*
X134471401Y-115343495D01*
X134638495Y-115176401D01*
X134774035Y-114982830D01*
X134873903Y-114768663D01*
X134935063Y-114540408D01*
X134955659Y-114305000D01*
X134935063Y-114069592D01*
X134873903Y-113841337D01*
X134774035Y-113627171D01*
X134730719Y-113565308D01*
X134638494Y-113433597D01*
X134471402Y-113266506D01*
X134471396Y-113266501D01*
X134285842Y-113136575D01*
X134242217Y-113081998D01*
X134235023Y-113012500D01*
X134266546Y-112950145D01*
X134285842Y-112933425D01*
X134308026Y-112917891D01*
X134471401Y-112803495D01*
X134638495Y-112636401D01*
X134774035Y-112442830D01*
X134873903Y-112228663D01*
X134935063Y-112000408D01*
X134955659Y-111765000D01*
X134935063Y-111529592D01*
X134873903Y-111301337D01*
X134774035Y-111087171D01*
X134638495Y-110893599D01*
X134638494Y-110893597D01*
X134471402Y-110726506D01*
X134471396Y-110726501D01*
X134285842Y-110596575D01*
X134242217Y-110541998D01*
X134235023Y-110472500D01*
X134266546Y-110410145D01*
X134285842Y-110393425D01*
X134308026Y-110377891D01*
X134471401Y-110263495D01*
X134638495Y-110096401D01*
X134774035Y-109902830D01*
X134873903Y-109688663D01*
X134935063Y-109460408D01*
X134955659Y-109225000D01*
X134935063Y-108989592D01*
X134873903Y-108761337D01*
X134774035Y-108547171D01*
X134763184Y-108531673D01*
X134638494Y-108353597D01*
X134471402Y-108186506D01*
X134471396Y-108186501D01*
X134285842Y-108056575D01*
X134242217Y-108001998D01*
X134235023Y-107932500D01*
X134266546Y-107870145D01*
X134285842Y-107853425D01*
X134469250Y-107725001D01*
X134471401Y-107723495D01*
X134638495Y-107556401D01*
X134774035Y-107362830D01*
X134873903Y-107148663D01*
X134935063Y-106920408D01*
X134955659Y-106685000D01*
X134935063Y-106449592D01*
X134873903Y-106221337D01*
X134774035Y-106007171D01*
X134638495Y-105813599D01*
X134638494Y-105813597D01*
X134471402Y-105646506D01*
X134471396Y-105646501D01*
X134285842Y-105516575D01*
X134242217Y-105461998D01*
X134235023Y-105392500D01*
X134266546Y-105330145D01*
X134285842Y-105313425D01*
X134354436Y-105265395D01*
X134471401Y-105183495D01*
X134638495Y-105016401D01*
X134774035Y-104822830D01*
X134873903Y-104608663D01*
X134935063Y-104380408D01*
X134955659Y-104145000D01*
X134935063Y-103909592D01*
X134873903Y-103681337D01*
X134774035Y-103467171D01*
X134695844Y-103355501D01*
X134638494Y-103273597D01*
X134471402Y-103106506D01*
X134471396Y-103106501D01*
X134285842Y-102976575D01*
X134242217Y-102921998D01*
X134235023Y-102852500D01*
X134266546Y-102790145D01*
X134285842Y-102773425D01*
X134354436Y-102725395D01*
X134471401Y-102643495D01*
X134638495Y-102476401D01*
X134774035Y-102282830D01*
X134873903Y-102068663D01*
X134935063Y-101840408D01*
X134955659Y-101605000D01*
X134935063Y-101369592D01*
X134873903Y-101141337D01*
X134774035Y-100927171D01*
X134695844Y-100815501D01*
X134638494Y-100733597D01*
X134471402Y-100566506D01*
X134471396Y-100566501D01*
X134285842Y-100436575D01*
X134242217Y-100381998D01*
X134235023Y-100312500D01*
X134266546Y-100250145D01*
X134285842Y-100233425D01*
X134354436Y-100185395D01*
X134471401Y-100103495D01*
X134638495Y-99936401D01*
X134774035Y-99742830D01*
X134873903Y-99528663D01*
X134935063Y-99300408D01*
X134955659Y-99065000D01*
X134935063Y-98829592D01*
X134873903Y-98601337D01*
X134774035Y-98387171D01*
X134715909Y-98304157D01*
X134638494Y-98193597D01*
X134471402Y-98026506D01*
X134471396Y-98026501D01*
X134285842Y-97896575D01*
X134242217Y-97841998D01*
X134235023Y-97772500D01*
X134266546Y-97710145D01*
X134285842Y-97693425D01*
X134354436Y-97645395D01*
X134471401Y-97563495D01*
X134638495Y-97396401D01*
X134774035Y-97202830D01*
X134873903Y-96988663D01*
X134935063Y-96760408D01*
X134955659Y-96525000D01*
X134935063Y-96289592D01*
X134873903Y-96061337D01*
X134774035Y-95847171D01*
X134695844Y-95735501D01*
X134638494Y-95653597D01*
X134471402Y-95486506D01*
X134471396Y-95486501D01*
X134285842Y-95356575D01*
X134242217Y-95301998D01*
X134235023Y-95232500D01*
X134266546Y-95170145D01*
X134285842Y-95153425D01*
X134354436Y-95105395D01*
X134471401Y-95023495D01*
X134638495Y-94856401D01*
X134774035Y-94662830D01*
X134873903Y-94448663D01*
X134935063Y-94220408D01*
X134955659Y-93985000D01*
X134935063Y-93749592D01*
X134873903Y-93521337D01*
X134872632Y-93516593D01*
X134874295Y-93446743D01*
X134913458Y-93388881D01*
X134977686Y-93361377D01*
X134992407Y-93360500D01*
X147184192Y-93360500D01*
X147251231Y-93380185D01*
X147271873Y-93396819D01*
X155052290Y-101177236D01*
X155085775Y-101238559D01*
X155084384Y-101297008D01*
X155064937Y-101369589D01*
X155064937Y-101369590D01*
X155044341Y-101604999D01*
X155044341Y-101605000D01*
X155064936Y-101840403D01*
X155064938Y-101840413D01*
X155126094Y-102068655D01*
X155126096Y-102068659D01*
X155126097Y-102068663D01*
X155135771Y-102089408D01*
X155225965Y-102282830D01*
X155225967Y-102282834D01*
X155361501Y-102476395D01*
X155361506Y-102476402D01*
X155528597Y-102643493D01*
X155528603Y-102643498D01*
X155714158Y-102773425D01*
X155757783Y-102828002D01*
X155764977Y-102897500D01*
X155733454Y-102959855D01*
X155714158Y-102976575D01*
X155528597Y-103106505D01*
X155361505Y-103273597D01*
X155225965Y-103467169D01*
X155225964Y-103467171D01*
X155126098Y-103681335D01*
X155126094Y-103681344D01*
X155064938Y-103909586D01*
X155064936Y-103909596D01*
X155044341Y-104144999D01*
X155044341Y-104145000D01*
X155064936Y-104380403D01*
X155064938Y-104380413D01*
X155126094Y-104608655D01*
X155126096Y-104608659D01*
X155126097Y-104608663D01*
X155192237Y-104750500D01*
X155225965Y-104822830D01*
X155225967Y-104822834D01*
X155361501Y-105016395D01*
X155361506Y-105016402D01*
X155528597Y-105183493D01*
X155528603Y-105183498D01*
X155714158Y-105313425D01*
X155757783Y-105368002D01*
X155764977Y-105437500D01*
X155733454Y-105499855D01*
X155714158Y-105516575D01*
X155528597Y-105646505D01*
X155361505Y-105813597D01*
X155225965Y-106007169D01*
X155225964Y-106007171D01*
X155126098Y-106221335D01*
X155126094Y-106221344D01*
X155064938Y-106449586D01*
X155064936Y-106449596D01*
X155044341Y-106684999D01*
X155044341Y-106685000D01*
X155064936Y-106920403D01*
X155064938Y-106920413D01*
X155126094Y-107148655D01*
X155126096Y-107148659D01*
X155126097Y-107148663D01*
X155186722Y-107278673D01*
X155225965Y-107362830D01*
X155225967Y-107362834D01*
X155361501Y-107556395D01*
X155361506Y-107556402D01*
X155528597Y-107723493D01*
X155528603Y-107723498D01*
X155714158Y-107853425D01*
X155757783Y-107908002D01*
X155764977Y-107977500D01*
X155733454Y-108039855D01*
X155714158Y-108056575D01*
X155528597Y-108186505D01*
X155361505Y-108353597D01*
X155225965Y-108547169D01*
X155225964Y-108547171D01*
X155126098Y-108761335D01*
X155126094Y-108761344D01*
X155064938Y-108989586D01*
X155064936Y-108989596D01*
X155044341Y-109224999D01*
X155044341Y-109225000D01*
X155064936Y-109460403D01*
X155064938Y-109460413D01*
X155126094Y-109688655D01*
X155126096Y-109688659D01*
X155126097Y-109688663D01*
X155225965Y-109902830D01*
X155225967Y-109902834D01*
X155361501Y-110096395D01*
X155361506Y-110096402D01*
X155528597Y-110263493D01*
X155528603Y-110263498D01*
X155714158Y-110393425D01*
X155757783Y-110448002D01*
X155764977Y-110517500D01*
X155733454Y-110579855D01*
X155714158Y-110596575D01*
X155528597Y-110726505D01*
X155361505Y-110893597D01*
X155225965Y-111087169D01*
X155225964Y-111087171D01*
X155126098Y-111301335D01*
X155126094Y-111301344D01*
X155064938Y-111529586D01*
X155064936Y-111529596D01*
X155044341Y-111764999D01*
X155044341Y-111765000D01*
X155064936Y-112000403D01*
X155064938Y-112000413D01*
X155126094Y-112228655D01*
X155126096Y-112228659D01*
X155126097Y-112228663D01*
X155225965Y-112442830D01*
X155225967Y-112442834D01*
X155361501Y-112636395D01*
X155361506Y-112636402D01*
X155528597Y-112803493D01*
X155528603Y-112803498D01*
X155714158Y-112933425D01*
X155757783Y-112988002D01*
X155764977Y-113057500D01*
X155733454Y-113119855D01*
X155714158Y-113136575D01*
X155528597Y-113266505D01*
X155361505Y-113433597D01*
X155225965Y-113627169D01*
X155225964Y-113627171D01*
X155126098Y-113841335D01*
X155126094Y-113841344D01*
X155064938Y-114069586D01*
X155064936Y-114069596D01*
X155044341Y-114304999D01*
X155044341Y-114305000D01*
X155064936Y-114540403D01*
X155064938Y-114540413D01*
X155126094Y-114768655D01*
X155126096Y-114768659D01*
X155126097Y-114768663D01*
X155197864Y-114922567D01*
X155225965Y-114982830D01*
X155225967Y-114982834D01*
X155361501Y-115176395D01*
X155361506Y-115176402D01*
X155528597Y-115343493D01*
X155528603Y-115343498D01*
X155714158Y-115473425D01*
X155757783Y-115528002D01*
X155764977Y-115597500D01*
X155733454Y-115659855D01*
X155714158Y-115676575D01*
X155528597Y-115806505D01*
X155361505Y-115973597D01*
X155225965Y-116167169D01*
X155225964Y-116167171D01*
X155126098Y-116381335D01*
X155126094Y-116381344D01*
X155064938Y-116609586D01*
X155064936Y-116609596D01*
X155044341Y-116844999D01*
X155044341Y-116845000D01*
X155064936Y-117080403D01*
X155064938Y-117080413D01*
X155126094Y-117308655D01*
X155126096Y-117308659D01*
X155126097Y-117308663D01*
X155204936Y-117477734D01*
X155225965Y-117522830D01*
X155225967Y-117522834D01*
X155361501Y-117716395D01*
X155361506Y-117716402D01*
X155528597Y-117883493D01*
X155528603Y-117883498D01*
X155714158Y-118013425D01*
X155757783Y-118068002D01*
X155764977Y-118137500D01*
X155733454Y-118199855D01*
X155714158Y-118216575D01*
X155528597Y-118346505D01*
X155361505Y-118513597D01*
X155225965Y-118707169D01*
X155225964Y-118707171D01*
X155126098Y-118921335D01*
X155126094Y-118921344D01*
X155064938Y-119149586D01*
X155064936Y-119149596D01*
X155044341Y-119384999D01*
X155044341Y-119385000D01*
X155064936Y-119620403D01*
X155064938Y-119620413D01*
X155126094Y-119848655D01*
X155126096Y-119848659D01*
X155126097Y-119848663D01*
X155220202Y-120050471D01*
X155225965Y-120062830D01*
X155225967Y-120062834D01*
X155361501Y-120256395D01*
X155361506Y-120256402D01*
X155528597Y-120423493D01*
X155528603Y-120423498D01*
X155714158Y-120553425D01*
X155757783Y-120608002D01*
X155764977Y-120677500D01*
X155733454Y-120739855D01*
X155714158Y-120756575D01*
X155528597Y-120886505D01*
X155361505Y-121053597D01*
X155225965Y-121247169D01*
X155225964Y-121247171D01*
X155126098Y-121461335D01*
X155126094Y-121461344D01*
X155064938Y-121689586D01*
X155064936Y-121689596D01*
X155044341Y-121924999D01*
X155044341Y-121925000D01*
X155064936Y-122160403D01*
X155064938Y-122160413D01*
X155126094Y-122388655D01*
X155126096Y-122388659D01*
X155126097Y-122388663D01*
X155178017Y-122500006D01*
X155225965Y-122602830D01*
X155225967Y-122602834D01*
X155317481Y-122733528D01*
X155361505Y-122796401D01*
X155528599Y-122963495D01*
X155625384Y-123031265D01*
X155722165Y-123099032D01*
X155722167Y-123099033D01*
X155722170Y-123099035D01*
X155936337Y-123198903D01*
X156164592Y-123260063D01*
X156352918Y-123276539D01*
X156399999Y-123280659D01*
X156400000Y-123280659D01*
X156400001Y-123280659D01*
X156439234Y-123277226D01*
X156635408Y-123260063D01*
X156863663Y-123198903D01*
X157077830Y-123099035D01*
X157271401Y-122963495D01*
X157426152Y-122808743D01*
X157487472Y-122775261D01*
X157557163Y-122780245D01*
X157613097Y-122822116D01*
X157634035Y-122865986D01*
X157658018Y-122960691D01*
X157658021Y-122960700D01*
X157752153Y-123175302D01*
X157862405Y-123344053D01*
X157880323Y-123371479D01*
X157967432Y-123466105D01*
X158039037Y-123543888D01*
X158039041Y-123543891D01*
X158223959Y-123687819D01*
X158223961Y-123687820D01*
X158223964Y-123687822D01*
X158369248Y-123766445D01*
X158418839Y-123815664D01*
X158433947Y-123883881D01*
X158409777Y-123949437D01*
X158354001Y-123991518D01*
X158310231Y-123999500D01*
X130321063Y-123999500D01*
X130254024Y-123979815D01*
X130208269Y-123927011D01*
X130198325Y-123857853D01*
X130227350Y-123794297D01*
X130277730Y-123759318D01*
X130378328Y-123721797D01*
X130378327Y-123721797D01*
X130378331Y-123721796D01*
X130493546Y-123635546D01*
X130579796Y-123520331D01*
X130630091Y-123385483D01*
X130636500Y-123325873D01*
X130636499Y-121530128D01*
X130630091Y-121470517D01*
X130629002Y-121467598D01*
X130579797Y-121335671D01*
X130579793Y-121335664D01*
X130493547Y-121220455D01*
X130493544Y-121220452D01*
X130378335Y-121134206D01*
X130378328Y-121134202D01*
X130243482Y-121083908D01*
X130243483Y-121083908D01*
X130183883Y-121077501D01*
X130183881Y-121077500D01*
X130183873Y-121077500D01*
X130183864Y-121077500D01*
X128388129Y-121077500D01*
X128388123Y-121077501D01*
X128328516Y-121083908D01*
X128193671Y-121134202D01*
X128193664Y-121134206D01*
X128078455Y-121220452D01*
X128078452Y-121220455D01*
X127992206Y-121335664D01*
X127992202Y-121335671D01*
X127942997Y-121467598D01*
X127901126Y-121523532D01*
X127835661Y-121547949D01*
X127767388Y-121533097D01*
X127739134Y-121511946D01*
X127617082Y-121389894D01*
X127423578Y-121254399D01*
X127209492Y-121154570D01*
X127209486Y-121154567D01*
X126996000Y-121097364D01*
X126996000Y-121994988D01*
X126938993Y-121962075D01*
X126811826Y-121928000D01*
X126680174Y-121928000D01*
X126553007Y-121962075D01*
X126496000Y-121994988D01*
X126496000Y-121097364D01*
X126495999Y-121097364D01*
X126282513Y-121154567D01*
X126282507Y-121154570D01*
X126068422Y-121254399D01*
X126068420Y-121254400D01*
X125874926Y-121389886D01*
X125874920Y-121389891D01*
X125707891Y-121556920D01*
X125707886Y-121556926D01*
X125572400Y-121750420D01*
X125572399Y-121750422D01*
X125472570Y-121964507D01*
X125472567Y-121964513D01*
X125415364Y-122177999D01*
X125415364Y-122178000D01*
X126312988Y-122178000D01*
X126280075Y-122235007D01*
X126246000Y-122362174D01*
X126246000Y-122493826D01*
X126280075Y-122620993D01*
X126312988Y-122678000D01*
X125415364Y-122678000D01*
X125472567Y-122891486D01*
X125472570Y-122891492D01*
X125572399Y-123105578D01*
X125707894Y-123299082D01*
X125874917Y-123466105D01*
X126068421Y-123601600D01*
X126282507Y-123701429D01*
X126282516Y-123701433D01*
X126485137Y-123755725D01*
X126544798Y-123792090D01*
X126575327Y-123854937D01*
X126567032Y-123924312D01*
X126522547Y-123978190D01*
X126455995Y-123999465D01*
X126453044Y-123999500D01*
X118689769Y-123999500D01*
X118622730Y-123979815D01*
X118576975Y-123927011D01*
X118567031Y-123857853D01*
X118596056Y-123794297D01*
X118630752Y-123766445D01*
X118750884Y-123701433D01*
X118776041Y-123687819D01*
X118960965Y-123543886D01*
X119119677Y-123371479D01*
X119247847Y-123175301D01*
X119341978Y-122960702D01*
X119399505Y-122733536D01*
X119399506Y-122733528D01*
X119418856Y-122500006D01*
X119418856Y-122499993D01*
X119399506Y-122266471D01*
X119399505Y-122266468D01*
X119399505Y-122266464D01*
X119341978Y-122039298D01*
X119247847Y-121824699D01*
X119247844Y-121824695D01*
X119119678Y-121628523D01*
X119119677Y-121628521D01*
X118960965Y-121456114D01*
X118960964Y-121456113D01*
X118960962Y-121456111D01*
X118960957Y-121456107D01*
X118776044Y-121312183D01*
X118776035Y-121312177D01*
X118569954Y-121200653D01*
X118569951Y-121200652D01*
X118569948Y-121200650D01*
X118569942Y-121200648D01*
X118569940Y-121200647D01*
X118348311Y-121124561D01*
X118185328Y-121097364D01*
X118117168Y-121085990D01*
X117882832Y-121085990D01*
X117825046Y-121095632D01*
X117651688Y-121124561D01*
X117430059Y-121200647D01*
X117430045Y-121200653D01*
X117223964Y-121312177D01*
X117223955Y-121312183D01*
X117039043Y-121456107D01*
X117039037Y-121456111D01*
X116880324Y-121628519D01*
X116880321Y-121628523D01*
X116752154Y-121824695D01*
X116738056Y-121856837D01*
X116693100Y-121910322D01*
X116626364Y-121931012D01*
X116559036Y-121912337D01*
X116512493Y-121860227D01*
X116500500Y-121807026D01*
X116500500Y-117199993D01*
X119104700Y-117199993D01*
X119104700Y-117200006D01*
X119123864Y-117431297D01*
X119123866Y-117431308D01*
X119180842Y-117656300D01*
X119274075Y-117868848D01*
X119401018Y-118063150D01*
X119496167Y-118166510D01*
X119527089Y-118229164D01*
X119519228Y-118298590D01*
X119475081Y-118352746D01*
X119448271Y-118366674D01*
X119367911Y-118396646D01*
X119367906Y-118396649D01*
X119252812Y-118482809D01*
X119252809Y-118482812D01*
X119166649Y-118597906D01*
X119166645Y-118597913D01*
X119116403Y-118732620D01*
X119116401Y-118732627D01*
X119110000Y-118792155D01*
X119110000Y-119490000D01*
X120134722Y-119490000D01*
X120090667Y-119566306D01*
X120060000Y-119680756D01*
X120060000Y-119799244D01*
X120090667Y-119913694D01*
X120134722Y-119990000D01*
X119110000Y-119990000D01*
X119110000Y-120687844D01*
X119116401Y-120747372D01*
X119116403Y-120747379D01*
X119166645Y-120882086D01*
X119166649Y-120882093D01*
X119252809Y-120997187D01*
X119252812Y-120997190D01*
X119367906Y-121083350D01*
X119367913Y-121083354D01*
X119502620Y-121133596D01*
X119502627Y-121133598D01*
X119562155Y-121139999D01*
X119562172Y-121140000D01*
X120260000Y-121140000D01*
X120260000Y-120115277D01*
X120336306Y-120159333D01*
X120450756Y-120190000D01*
X120569244Y-120190000D01*
X120683694Y-120159333D01*
X120760000Y-120115277D01*
X120760000Y-121140000D01*
X121457828Y-121140000D01*
X121457844Y-121139999D01*
X121517372Y-121133598D01*
X121517379Y-121133596D01*
X121652086Y-121083354D01*
X121652093Y-121083350D01*
X121767187Y-120997190D01*
X121767190Y-120997187D01*
X121853350Y-120882093D01*
X121853354Y-120882086D01*
X121903596Y-120747379D01*
X121903598Y-120747372D01*
X121909999Y-120687844D01*
X121910000Y-120687827D01*
X121910000Y-119990000D01*
X120885278Y-119990000D01*
X120929333Y-119913694D01*
X120960000Y-119799244D01*
X120960000Y-119680756D01*
X120929333Y-119566306D01*
X120885278Y-119490000D01*
X121910000Y-119490000D01*
X121910000Y-118792172D01*
X121909999Y-118792155D01*
X121903598Y-118732627D01*
X121903596Y-118732620D01*
X121853354Y-118597913D01*
X121853350Y-118597906D01*
X121767190Y-118482812D01*
X121767187Y-118482809D01*
X121652093Y-118396649D01*
X121652086Y-118396645D01*
X121571729Y-118366674D01*
X121515795Y-118324803D01*
X121491378Y-118259338D01*
X121506230Y-118191065D01*
X121523826Y-118166516D01*
X121618979Y-118063153D01*
X121745924Y-117868849D01*
X121839157Y-117656300D01*
X121896134Y-117431305D01*
X121906296Y-117308664D01*
X121915300Y-117200006D01*
X121915300Y-117199993D01*
X121896135Y-116968702D01*
X121896133Y-116968691D01*
X121859745Y-116824997D01*
X124345034Y-116824997D01*
X124345034Y-116825002D01*
X124364858Y-117051599D01*
X124364860Y-117051610D01*
X124423730Y-117271317D01*
X124423735Y-117271331D01*
X124519863Y-117477478D01*
X124570974Y-117550472D01*
X125250000Y-116871446D01*
X125250000Y-116877661D01*
X125277259Y-116979394D01*
X125329920Y-117070606D01*
X125404394Y-117145080D01*
X125495606Y-117197741D01*
X125597339Y-117225000D01*
X125603553Y-117225000D01*
X124924526Y-117904025D01*
X124997513Y-117955132D01*
X124997517Y-117955134D01*
X125013566Y-117962618D01*
X125066005Y-118008790D01*
X125085157Y-118075984D01*
X125064941Y-118142865D01*
X125013568Y-118187381D01*
X124997518Y-118194865D01*
X124997512Y-118194868D01*
X124924526Y-118245973D01*
X124924526Y-118245974D01*
X125603553Y-118925000D01*
X125597339Y-118925000D01*
X125495606Y-118952259D01*
X125404394Y-119004920D01*
X125329920Y-119079394D01*
X125277259Y-119170606D01*
X125250000Y-119272339D01*
X125250000Y-119278552D01*
X124570974Y-118599526D01*
X124570973Y-118599526D01*
X124519868Y-118672512D01*
X124519866Y-118672516D01*
X124423734Y-118878673D01*
X124423730Y-118878682D01*
X124364860Y-119098389D01*
X124364858Y-119098400D01*
X124345034Y-119324997D01*
X124345034Y-119325002D01*
X124364858Y-119551599D01*
X124364860Y-119551610D01*
X124423730Y-119771317D01*
X124423735Y-119771331D01*
X124519863Y-119977478D01*
X124570974Y-120050472D01*
X125250000Y-119371446D01*
X125250000Y-119377661D01*
X125277259Y-119479394D01*
X125329920Y-119570606D01*
X125404394Y-119645080D01*
X125495606Y-119697741D01*
X125597339Y-119725000D01*
X125603553Y-119725000D01*
X124924526Y-120404025D01*
X124997513Y-120455132D01*
X124997521Y-120455136D01*
X125203668Y-120551264D01*
X125203682Y-120551269D01*
X125423389Y-120610139D01*
X125423400Y-120610141D01*
X125649998Y-120629966D01*
X125650002Y-120629966D01*
X125876599Y-120610141D01*
X125876610Y-120610139D01*
X126096317Y-120551269D01*
X126096331Y-120551264D01*
X126302478Y-120455136D01*
X126375471Y-120404024D01*
X125696447Y-119725000D01*
X125702661Y-119725000D01*
X125804394Y-119697741D01*
X125895606Y-119645080D01*
X125970080Y-119570606D01*
X126022741Y-119479394D01*
X126050000Y-119377661D01*
X126050000Y-119371447D01*
X126729024Y-120050471D01*
X126780136Y-119977478D01*
X126876264Y-119771331D01*
X126876269Y-119771317D01*
X126935139Y-119551610D01*
X126935141Y-119551599D01*
X126954966Y-119325002D01*
X126954966Y-119324997D01*
X126935141Y-119098400D01*
X126935139Y-119098389D01*
X126876269Y-118878682D01*
X126876264Y-118878668D01*
X126780136Y-118672521D01*
X126780132Y-118672513D01*
X126729025Y-118599526D01*
X126050000Y-119278551D01*
X126050000Y-119272339D01*
X126022741Y-119170606D01*
X125970080Y-119079394D01*
X125895606Y-119004920D01*
X125804394Y-118952259D01*
X125702661Y-118925000D01*
X125696448Y-118925000D01*
X126375472Y-118245974D01*
X126302481Y-118194865D01*
X126286435Y-118187383D01*
X126233995Y-118141211D01*
X126214842Y-118074018D01*
X126235057Y-118007137D01*
X126286435Y-117962617D01*
X126302480Y-117955135D01*
X126375471Y-117904024D01*
X125696447Y-117225000D01*
X125702661Y-117225000D01*
X125804394Y-117197741D01*
X125895606Y-117145080D01*
X125970080Y-117070606D01*
X126022741Y-116979394D01*
X126050000Y-116877661D01*
X126050000Y-116871447D01*
X126729024Y-117550471D01*
X126780136Y-117477478D01*
X126876264Y-117271331D01*
X126876269Y-117271317D01*
X126935139Y-117051610D01*
X126935141Y-117051599D01*
X126954966Y-116825002D01*
X126954966Y-116824998D01*
X129344532Y-116824998D01*
X129344532Y-116825001D01*
X129364364Y-117051686D01*
X129364366Y-117051697D01*
X129423258Y-117271488D01*
X129423261Y-117271497D01*
X129519431Y-117477732D01*
X129519432Y-117477734D01*
X129649954Y-117664141D01*
X129810858Y-117825045D01*
X129810861Y-117825047D01*
X129997266Y-117955568D01*
X130012387Y-117962619D01*
X130064825Y-118008791D01*
X130083976Y-118075985D01*
X130063760Y-118142866D01*
X130012387Y-118187380D01*
X130004487Y-118191065D01*
X129997264Y-118194433D01*
X129810858Y-118324954D01*
X129649954Y-118485858D01*
X129519432Y-118672265D01*
X129519431Y-118672267D01*
X129423261Y-118878502D01*
X129423258Y-118878511D01*
X129364366Y-119098302D01*
X129364364Y-119098313D01*
X129344532Y-119324998D01*
X129344532Y-119325001D01*
X129364364Y-119551686D01*
X129364366Y-119551697D01*
X129423258Y-119771488D01*
X129423261Y-119771497D01*
X129519431Y-119977732D01*
X129519432Y-119977734D01*
X129649954Y-120164141D01*
X129810858Y-120325045D01*
X129810861Y-120325047D01*
X129997266Y-120455568D01*
X130203504Y-120551739D01*
X130203509Y-120551740D01*
X130203511Y-120551741D01*
X130230733Y-120559035D01*
X130423308Y-120610635D01*
X130585230Y-120624801D01*
X130649998Y-120630468D01*
X130650000Y-120630468D01*
X130650002Y-120630468D01*
X130706673Y-120625509D01*
X130876692Y-120610635D01*
X131096496Y-120551739D01*
X131302734Y-120455568D01*
X131489139Y-120325047D01*
X131650047Y-120164139D01*
X131780568Y-119977734D01*
X131876739Y-119771496D01*
X131935635Y-119551692D01*
X131955468Y-119325000D01*
X131935635Y-119098308D01*
X131876739Y-118878504D01*
X131780568Y-118672266D01*
X131650047Y-118485861D01*
X131650045Y-118485858D01*
X131489141Y-118324954D01*
X131302734Y-118194432D01*
X131295513Y-118191065D01*
X131287614Y-118187381D01*
X131235176Y-118141211D01*
X131216023Y-118074018D01*
X131236238Y-118007136D01*
X131287614Y-117962618D01*
X131302734Y-117955568D01*
X131489139Y-117825047D01*
X131650047Y-117664139D01*
X131780568Y-117477734D01*
X131876739Y-117271496D01*
X131935635Y-117051692D01*
X131955468Y-116825000D01*
X131935635Y-116598308D01*
X131876739Y-116378504D01*
X131780568Y-116172266D01*
X131650047Y-115985861D01*
X131650045Y-115985858D01*
X131489141Y-115824954D01*
X131302734Y-115694432D01*
X131302732Y-115694431D01*
X131096497Y-115598261D01*
X131096488Y-115598258D01*
X130876697Y-115539366D01*
X130876693Y-115539365D01*
X130876692Y-115539365D01*
X130876691Y-115539364D01*
X130876686Y-115539364D01*
X130650002Y-115519532D01*
X130649998Y-115519532D01*
X130423313Y-115539364D01*
X130423302Y-115539366D01*
X130203511Y-115598258D01*
X130203502Y-115598261D01*
X129997267Y-115694431D01*
X129997265Y-115694432D01*
X129810858Y-115824954D01*
X129649954Y-115985858D01*
X129519432Y-116172265D01*
X129519431Y-116172267D01*
X129423261Y-116378502D01*
X129423258Y-116378511D01*
X129364366Y-116598302D01*
X129364364Y-116598313D01*
X129344532Y-116824998D01*
X126954966Y-116824998D01*
X126954966Y-116824997D01*
X126935141Y-116598400D01*
X126935139Y-116598389D01*
X126876269Y-116378682D01*
X126876264Y-116378668D01*
X126780136Y-116172521D01*
X126780132Y-116172513D01*
X126729025Y-116099526D01*
X126050000Y-116778551D01*
X126050000Y-116772339D01*
X126022741Y-116670606D01*
X125970080Y-116579394D01*
X125895606Y-116504920D01*
X125804394Y-116452259D01*
X125702661Y-116425000D01*
X125696448Y-116425000D01*
X126375472Y-115745974D01*
X126302478Y-115694863D01*
X126096331Y-115598735D01*
X126096317Y-115598730D01*
X125876610Y-115539860D01*
X125876599Y-115539858D01*
X125650002Y-115520034D01*
X125649998Y-115520034D01*
X125423400Y-115539858D01*
X125423389Y-115539860D01*
X125203682Y-115598730D01*
X125203673Y-115598734D01*
X124997516Y-115694866D01*
X124997512Y-115694868D01*
X124924526Y-115745973D01*
X124924526Y-115745974D01*
X125603553Y-116425000D01*
X125597339Y-116425000D01*
X125495606Y-116452259D01*
X125404394Y-116504920D01*
X125329920Y-116579394D01*
X125277259Y-116670606D01*
X125250000Y-116772339D01*
X125250000Y-116778552D01*
X124570974Y-116099526D01*
X124570973Y-116099526D01*
X124519868Y-116172512D01*
X124519866Y-116172516D01*
X124423734Y-116378673D01*
X124423730Y-116378682D01*
X124364860Y-116598389D01*
X124364858Y-116598400D01*
X124345034Y-116824997D01*
X121859745Y-116824997D01*
X121839157Y-116743699D01*
X121745924Y-116531151D01*
X121618983Y-116336852D01*
X121618980Y-116336849D01*
X121618979Y-116336847D01*
X121461784Y-116166087D01*
X121461779Y-116166083D01*
X121461777Y-116166081D01*
X121278634Y-116023535D01*
X121278628Y-116023531D01*
X121074504Y-115913064D01*
X121074495Y-115913061D01*
X120854984Y-115837702D01*
X120683282Y-115809050D01*
X120626049Y-115799500D01*
X120393951Y-115799500D01*
X120351996Y-115806501D01*
X120165015Y-115837702D01*
X119945504Y-115913061D01*
X119945495Y-115913064D01*
X119741371Y-116023531D01*
X119741365Y-116023535D01*
X119558222Y-116166081D01*
X119558219Y-116166084D01*
X119558216Y-116166086D01*
X119558216Y-116166087D01*
X119552298Y-116172516D01*
X119401016Y-116336852D01*
X119274075Y-116531151D01*
X119180842Y-116743699D01*
X119123866Y-116968691D01*
X119123864Y-116968702D01*
X119104700Y-117199993D01*
X116500500Y-117199993D01*
X116500500Y-113791998D01*
X119184532Y-113791998D01*
X119184532Y-113792001D01*
X119204364Y-114018686D01*
X119204366Y-114018697D01*
X119263258Y-114238488D01*
X119263261Y-114238497D01*
X119359431Y-114444732D01*
X119359432Y-114444734D01*
X119489954Y-114631141D01*
X119650858Y-114792045D01*
X119650861Y-114792047D01*
X119837266Y-114922568D01*
X120043504Y-115018739D01*
X120263308Y-115077635D01*
X120425230Y-115091801D01*
X120489998Y-115097468D01*
X120490000Y-115097468D01*
X120490002Y-115097468D01*
X120546673Y-115092509D01*
X120716692Y-115077635D01*
X120936496Y-115018739D01*
X121142734Y-114922568D01*
X121329139Y-114792047D01*
X121490047Y-114631139D01*
X121620568Y-114444734D01*
X121716739Y-114238496D01*
X121775635Y-114018692D01*
X121795468Y-113792000D01*
X121775635Y-113565308D01*
X121716739Y-113345504D01*
X121620568Y-113139266D01*
X121490047Y-112952861D01*
X121490045Y-112952858D01*
X121329141Y-112791954D01*
X121142734Y-112661432D01*
X121142732Y-112661431D01*
X120936497Y-112565261D01*
X120936488Y-112565258D01*
X120716697Y-112506366D01*
X120716693Y-112506365D01*
X120716692Y-112506365D01*
X120716691Y-112506364D01*
X120716686Y-112506364D01*
X120490002Y-112486532D01*
X120489998Y-112486532D01*
X120263313Y-112506364D01*
X120263302Y-112506366D01*
X120043511Y-112565258D01*
X120043502Y-112565261D01*
X119837267Y-112661431D01*
X119837265Y-112661432D01*
X119650858Y-112791954D01*
X119489954Y-112952858D01*
X119359432Y-113139265D01*
X119359431Y-113139267D01*
X119263261Y-113345502D01*
X119263258Y-113345511D01*
X119204366Y-113565302D01*
X119204364Y-113565313D01*
X119184532Y-113791998D01*
X116500500Y-113791998D01*
X116500500Y-107474999D01*
X119216127Y-107474999D01*
X119216128Y-107475000D01*
X120179314Y-107475000D01*
X120174920Y-107479394D01*
X120122259Y-107570606D01*
X120095000Y-107672339D01*
X120095000Y-107777661D01*
X120122259Y-107879394D01*
X120174920Y-107970606D01*
X120179314Y-107975000D01*
X119216128Y-107975000D01*
X119268730Y-108171317D01*
X119268734Y-108171326D01*
X119364865Y-108377482D01*
X119495342Y-108563820D01*
X119656179Y-108724657D01*
X119842517Y-108855134D01*
X120048673Y-108951265D01*
X120048682Y-108951269D01*
X120244999Y-109003872D01*
X120245000Y-109003871D01*
X120245000Y-108040686D01*
X120249394Y-108045080D01*
X120340606Y-108097741D01*
X120442339Y-108125000D01*
X120547661Y-108125000D01*
X120649394Y-108097741D01*
X120740606Y-108045080D01*
X120745000Y-108040686D01*
X120745000Y-109003872D01*
X120941317Y-108951269D01*
X120941326Y-108951265D01*
X121147482Y-108855134D01*
X121333820Y-108724657D01*
X121494657Y-108563820D01*
X121625134Y-108377482D01*
X121721265Y-108171326D01*
X121721269Y-108171317D01*
X121773872Y-107975000D01*
X120810686Y-107975000D01*
X120815080Y-107970606D01*
X120867741Y-107879394D01*
X120895000Y-107777661D01*
X120895000Y-107672339D01*
X120867741Y-107570606D01*
X120815080Y-107479394D01*
X120810686Y-107475000D01*
X121773872Y-107475000D01*
X121773872Y-107474999D01*
X121721269Y-107278682D01*
X121721265Y-107278673D01*
X121625134Y-107072517D01*
X121494657Y-106886179D01*
X121333820Y-106725342D01*
X121147482Y-106594865D01*
X120941328Y-106498734D01*
X120745000Y-106446127D01*
X120745000Y-107409314D01*
X120740606Y-107404920D01*
X120649394Y-107352259D01*
X120547661Y-107325000D01*
X120442339Y-107325000D01*
X120340606Y-107352259D01*
X120249394Y-107404920D01*
X120245000Y-107409314D01*
X120245000Y-106446127D01*
X120048671Y-106498734D01*
X119842517Y-106594865D01*
X119656179Y-106725342D01*
X119495342Y-106886179D01*
X119364865Y-107072517D01*
X119268734Y-107278673D01*
X119268730Y-107278682D01*
X119216127Y-107474999D01*
X116500500Y-107474999D01*
X116500500Y-103049995D01*
X119919732Y-103049995D01*
X119919732Y-103050004D01*
X119938777Y-103304154D01*
X119988635Y-103522597D01*
X119995492Y-103552637D01*
X120088607Y-103789888D01*
X120216041Y-104010612D01*
X120374950Y-104209877D01*
X120561783Y-104383232D01*
X120772366Y-104526805D01*
X120772371Y-104526807D01*
X120772372Y-104526808D01*
X120772373Y-104526809D01*
X120894328Y-104585538D01*
X121001992Y-104637387D01*
X121001993Y-104637387D01*
X121001996Y-104637389D01*
X121245542Y-104712513D01*
X121497565Y-104750500D01*
X121752435Y-104750500D01*
X122004458Y-104712513D01*
X122248004Y-104637389D01*
X122477634Y-104526805D01*
X122688217Y-104383232D01*
X122875050Y-104209877D01*
X123033959Y-104010612D01*
X123161393Y-103789888D01*
X123254508Y-103552637D01*
X123311222Y-103304157D01*
X123321201Y-103170998D01*
X123330268Y-103050004D01*
X123330268Y-103049995D01*
X123311222Y-102795845D01*
X123307385Y-102779035D01*
X123254508Y-102547363D01*
X123161393Y-102310112D01*
X123033959Y-102089388D01*
X122875050Y-101890123D01*
X122688217Y-101716768D01*
X122477634Y-101573195D01*
X122477630Y-101573193D01*
X122477627Y-101573191D01*
X122477626Y-101573190D01*
X122248006Y-101462612D01*
X122248008Y-101462612D01*
X122004466Y-101387489D01*
X122004462Y-101387488D01*
X122004458Y-101387487D01*
X121883231Y-101369214D01*
X121752440Y-101349500D01*
X121752435Y-101349500D01*
X121497565Y-101349500D01*
X121497559Y-101349500D01*
X121340609Y-101373157D01*
X121245542Y-101387487D01*
X121245539Y-101387488D01*
X121245533Y-101387489D01*
X121001992Y-101462612D01*
X120772373Y-101573190D01*
X120772372Y-101573191D01*
X120561782Y-101716768D01*
X120374952Y-101890121D01*
X120374950Y-101890123D01*
X120216041Y-102089388D01*
X120088608Y-102310109D01*
X119995492Y-102547362D01*
X119995490Y-102547369D01*
X119938777Y-102795845D01*
X119919732Y-103049995D01*
X116500500Y-103049995D01*
X116500500Y-91802135D01*
X119924500Y-91802135D01*
X119924500Y-94297870D01*
X119924501Y-94297876D01*
X119930908Y-94357483D01*
X119981202Y-94492328D01*
X119981206Y-94492335D01*
X120067452Y-94607544D01*
X120067455Y-94607547D01*
X120182664Y-94693793D01*
X120182671Y-94693797D01*
X120317517Y-94744091D01*
X120317516Y-94744091D01*
X120324444Y-94744835D01*
X120377127Y-94750500D01*
X122872872Y-94750499D01*
X122932483Y-94744091D01*
X123067331Y-94693796D01*
X123182546Y-94607546D01*
X123268796Y-94492331D01*
X123319091Y-94357483D01*
X123325500Y-94297873D01*
X123325499Y-91802128D01*
X123319091Y-91742517D01*
X123268796Y-91607669D01*
X123268795Y-91607668D01*
X123268793Y-91607664D01*
X123182547Y-91492455D01*
X123182544Y-91492452D01*
X123067335Y-91406206D01*
X123067328Y-91406202D01*
X122932482Y-91355908D01*
X122932483Y-91355908D01*
X122872883Y-91349501D01*
X122872881Y-91349500D01*
X122872873Y-91349500D01*
X122872864Y-91349500D01*
X120377129Y-91349500D01*
X120377123Y-91349501D01*
X120317516Y-91355908D01*
X120182671Y-91406202D01*
X120182664Y-91406206D01*
X120067455Y-91492452D01*
X120067452Y-91492455D01*
X119981206Y-91607664D01*
X119981202Y-91607671D01*
X119930908Y-91742517D01*
X119924501Y-91802116D01*
X119924501Y-91802123D01*
X119924500Y-91802135D01*
X116500500Y-91802135D01*
X116500500Y-86478135D01*
X117262500Y-86478135D01*
X117262500Y-88273870D01*
X117262501Y-88273876D01*
X117268908Y-88333483D01*
X117319202Y-88468328D01*
X117319206Y-88468335D01*
X117405452Y-88583544D01*
X117405455Y-88583547D01*
X117520664Y-88669793D01*
X117520671Y-88669797D01*
X117655517Y-88720091D01*
X117655516Y-88720091D01*
X117662444Y-88720835D01*
X117715127Y-88726500D01*
X119510872Y-88726499D01*
X119570483Y-88720091D01*
X119705331Y-88669796D01*
X119820546Y-88583546D01*
X119906796Y-88468331D01*
X119955810Y-88336916D01*
X119997681Y-88280984D01*
X120063145Y-88256566D01*
X120131418Y-88271417D01*
X120159673Y-88292569D01*
X120281599Y-88414495D01*
X120369679Y-88476169D01*
X120475165Y-88550032D01*
X120475167Y-88550033D01*
X120475170Y-88550035D01*
X120689337Y-88649903D01*
X120917592Y-88711063D01*
X121094034Y-88726500D01*
X121152999Y-88731659D01*
X121153000Y-88731659D01*
X121153001Y-88731659D01*
X121211966Y-88726500D01*
X121388408Y-88711063D01*
X121616663Y-88649903D01*
X121830830Y-88550035D01*
X122024401Y-88414495D01*
X122191495Y-88247401D01*
X122327035Y-88053830D01*
X122426903Y-87839663D01*
X122488063Y-87611408D01*
X122508659Y-87376000D01*
X122488063Y-87140592D01*
X122426903Y-86912337D01*
X122327035Y-86698171D01*
X122258585Y-86600413D01*
X122191494Y-86504597D01*
X122024402Y-86337506D01*
X122024395Y-86337501D01*
X121830834Y-86201967D01*
X121830830Y-86201965D01*
X121830828Y-86201964D01*
X121616663Y-86102097D01*
X121616659Y-86102096D01*
X121616655Y-86102094D01*
X121388413Y-86040938D01*
X121388403Y-86040936D01*
X121153001Y-86020341D01*
X121152999Y-86020341D01*
X120917596Y-86040936D01*
X120917586Y-86040938D01*
X120689344Y-86102094D01*
X120689335Y-86102098D01*
X120475171Y-86201964D01*
X120475169Y-86201965D01*
X120281600Y-86337503D01*
X120159673Y-86459430D01*
X120098350Y-86492914D01*
X120028658Y-86487930D01*
X119972725Y-86446058D01*
X119955810Y-86415081D01*
X119906797Y-86283671D01*
X119906793Y-86283664D01*
X119820547Y-86168455D01*
X119820544Y-86168452D01*
X119705335Y-86082206D01*
X119705328Y-86082202D01*
X119570482Y-86031908D01*
X119570483Y-86031908D01*
X119510883Y-86025501D01*
X119510881Y-86025500D01*
X119510873Y-86025500D01*
X119510864Y-86025500D01*
X117715129Y-86025500D01*
X117715123Y-86025501D01*
X117655516Y-86031908D01*
X117520671Y-86082202D01*
X117520664Y-86082206D01*
X117405455Y-86168452D01*
X117405452Y-86168455D01*
X117319206Y-86283664D01*
X117319202Y-86283671D01*
X117268908Y-86418517D01*
X117262501Y-86478116D01*
X117262500Y-86478135D01*
X116500500Y-86478135D01*
X116500500Y-83824994D01*
X116819357Y-83824994D01*
X116819357Y-83825005D01*
X116839890Y-84072812D01*
X116839892Y-84072824D01*
X116900936Y-84313881D01*
X117000826Y-84541606D01*
X117136833Y-84749782D01*
X117136836Y-84749785D01*
X117305256Y-84932738D01*
X117501491Y-85085474D01*
X117501493Y-85085475D01*
X117706787Y-85196575D01*
X117720190Y-85203828D01*
X117955386Y-85284571D01*
X118200665Y-85325500D01*
X118449335Y-85325500D01*
X118694614Y-85284571D01*
X118929810Y-85203828D01*
X119148509Y-85085474D01*
X119344744Y-84932738D01*
X119513164Y-84749785D01*
X119649173Y-84541607D01*
X119749063Y-84313881D01*
X119810108Y-84072821D01*
X119830643Y-83825000D01*
X119830643Y-83824994D01*
X121319357Y-83824994D01*
X121319357Y-83825005D01*
X121339890Y-84072812D01*
X121339892Y-84072824D01*
X121400936Y-84313881D01*
X121500826Y-84541606D01*
X121636833Y-84749782D01*
X121636836Y-84749785D01*
X121805256Y-84932738D01*
X122001491Y-85085474D01*
X122001493Y-85085475D01*
X122206787Y-85196575D01*
X122220190Y-85203828D01*
X122455386Y-85284571D01*
X122700665Y-85325500D01*
X122949335Y-85325500D01*
X123194614Y-85284571D01*
X123429810Y-85203828D01*
X123648509Y-85085474D01*
X123844744Y-84932738D01*
X124013164Y-84749785D01*
X124149173Y-84541607D01*
X124249063Y-84313881D01*
X124310108Y-84072821D01*
X124330643Y-83825000D01*
X124310108Y-83577179D01*
X124249063Y-83336119D01*
X124149173Y-83108393D01*
X124013166Y-82900217D01*
X123991557Y-82876744D01*
X123844744Y-82717262D01*
X123648509Y-82564526D01*
X123648507Y-82564525D01*
X123648506Y-82564524D01*
X123429811Y-82446172D01*
X123429802Y-82446169D01*
X123194616Y-82365429D01*
X122949335Y-82324500D01*
X122700665Y-82324500D01*
X122455383Y-82365429D01*
X122220197Y-82446169D01*
X122220188Y-82446172D01*
X122001493Y-82564524D01*
X121805257Y-82717261D01*
X121636833Y-82900217D01*
X121500826Y-83108393D01*
X121400936Y-83336118D01*
X121339892Y-83577175D01*
X121339890Y-83577187D01*
X121319357Y-83824994D01*
X119830643Y-83824994D01*
X119810108Y-83577179D01*
X119749063Y-83336119D01*
X119649173Y-83108393D01*
X119513166Y-82900217D01*
X119491557Y-82876744D01*
X119344744Y-82717262D01*
X119148509Y-82564526D01*
X119148507Y-82564525D01*
X119148506Y-82564524D01*
X118929811Y-82446172D01*
X118929802Y-82446169D01*
X118694616Y-82365429D01*
X118449335Y-82324500D01*
X118200665Y-82324500D01*
X117955383Y-82365429D01*
X117720197Y-82446169D01*
X117720188Y-82446172D01*
X117501493Y-82564524D01*
X117305257Y-82717261D01*
X117136833Y-82900217D01*
X117000826Y-83108393D01*
X116900936Y-83336118D01*
X116839892Y-83577175D01*
X116839890Y-83577187D01*
X116819357Y-83824994D01*
X116500500Y-83824994D01*
X116500500Y-77324994D01*
X116819357Y-77324994D01*
X116819357Y-77325005D01*
X116839890Y-77572812D01*
X116839892Y-77572824D01*
X116900936Y-77813881D01*
X117000826Y-78041606D01*
X117136833Y-78249782D01*
X117136836Y-78249785D01*
X117305256Y-78432738D01*
X117501491Y-78585474D01*
X117720190Y-78703828D01*
X117955386Y-78784571D01*
X118200665Y-78825500D01*
X118449335Y-78825500D01*
X118694614Y-78784571D01*
X118929810Y-78703828D01*
X119148509Y-78585474D01*
X119344744Y-78432738D01*
X119513164Y-78249785D01*
X119649173Y-78041607D01*
X119749063Y-77813881D01*
X119810108Y-77572821D01*
X119813039Y-77537452D01*
X119830643Y-77325005D01*
X119830643Y-77324994D01*
X121319357Y-77324994D01*
X121319357Y-77325005D01*
X121339890Y-77572812D01*
X121339892Y-77572824D01*
X121400936Y-77813881D01*
X121500826Y-78041606D01*
X121636833Y-78249782D01*
X121636836Y-78249785D01*
X121805256Y-78432738D01*
X122001491Y-78585474D01*
X122220190Y-78703828D01*
X122455386Y-78784571D01*
X122700665Y-78825500D01*
X122949335Y-78825500D01*
X123194614Y-78784571D01*
X123429810Y-78703828D01*
X123648509Y-78585474D01*
X123844744Y-78432738D01*
X124013164Y-78249785D01*
X124149173Y-78041607D01*
X124249063Y-77813881D01*
X124310108Y-77572821D01*
X124313039Y-77537452D01*
X124330643Y-77325005D01*
X124330643Y-77324994D01*
X124310109Y-77077187D01*
X124310107Y-77077175D01*
X124249063Y-76836118D01*
X124149173Y-76608393D01*
X124013166Y-76400217D01*
X123991557Y-76376744D01*
X123844744Y-76217262D01*
X123648509Y-76064526D01*
X123648507Y-76064525D01*
X123648506Y-76064524D01*
X123429811Y-75946172D01*
X123429802Y-75946169D01*
X123194616Y-75865429D01*
X122949335Y-75824500D01*
X122700665Y-75824500D01*
X122455383Y-75865429D01*
X122220197Y-75946169D01*
X122220188Y-75946172D01*
X122001493Y-76064524D01*
X121805257Y-76217261D01*
X121636833Y-76400217D01*
X121500826Y-76608393D01*
X121400936Y-76836118D01*
X121339892Y-77077175D01*
X121339890Y-77077187D01*
X121319357Y-77324994D01*
X119830643Y-77324994D01*
X119810109Y-77077187D01*
X119810107Y-77077175D01*
X119749063Y-76836118D01*
X119649173Y-76608393D01*
X119513166Y-76400217D01*
X119491557Y-76376744D01*
X119344744Y-76217262D01*
X119148509Y-76064526D01*
X119148507Y-76064525D01*
X119148506Y-76064524D01*
X118929811Y-75946172D01*
X118929802Y-75946169D01*
X118694616Y-75865429D01*
X118449335Y-75824500D01*
X118200665Y-75824500D01*
X117955383Y-75865429D01*
X117720197Y-75946169D01*
X117720188Y-75946172D01*
X117501493Y-76064524D01*
X117305257Y-76217261D01*
X117136833Y-76400217D01*
X117000826Y-76608393D01*
X116900936Y-76836118D01*
X116839892Y-77077175D01*
X116839890Y-77077187D01*
X116819357Y-77324994D01*
X116500500Y-77324994D01*
X116500500Y-74692973D01*
X116520185Y-74625934D01*
X116572989Y-74580179D01*
X116642147Y-74570235D01*
X116705703Y-74599260D01*
X116738056Y-74643164D01*
X116752152Y-74675300D01*
X116818909Y-74777478D01*
X116880323Y-74871479D01*
X116965624Y-74964141D01*
X117039037Y-75043888D01*
X117039041Y-75043891D01*
X117223959Y-75187819D01*
X117223961Y-75187820D01*
X117223964Y-75187822D01*
X117253903Y-75204024D01*
X117430052Y-75299350D01*
X117651691Y-75375439D01*
X117882832Y-75414010D01*
X117882833Y-75414010D01*
X118117167Y-75414010D01*
X118117168Y-75414010D01*
X118348309Y-75375439D01*
X118569948Y-75299350D01*
X118776041Y-75187819D01*
X118960965Y-75043886D01*
X119119677Y-74871479D01*
X119247847Y-74675301D01*
X119341978Y-74460702D01*
X119399505Y-74233536D01*
X119408281Y-74127627D01*
X119408499Y-74124997D01*
X121840034Y-74124997D01*
X121840034Y-74125002D01*
X121859858Y-74351599D01*
X121859860Y-74351610D01*
X121918730Y-74571317D01*
X121918735Y-74571331D01*
X122014863Y-74777478D01*
X122065974Y-74850472D01*
X122745000Y-74171446D01*
X122745000Y-74177661D01*
X122772259Y-74279394D01*
X122824920Y-74370606D01*
X122899394Y-74445080D01*
X122990606Y-74497741D01*
X123092339Y-74525000D01*
X123098553Y-74525000D01*
X122419526Y-75204025D01*
X122492513Y-75255132D01*
X122492521Y-75255136D01*
X122698668Y-75351264D01*
X122698682Y-75351269D01*
X122918389Y-75410139D01*
X122918400Y-75410141D01*
X123144998Y-75429966D01*
X123145002Y-75429966D01*
X123371599Y-75410141D01*
X123371610Y-75410139D01*
X123591317Y-75351269D01*
X123591331Y-75351264D01*
X123797478Y-75255136D01*
X123870471Y-75204024D01*
X123191447Y-74525000D01*
X123197661Y-74525000D01*
X123299394Y-74497741D01*
X123390606Y-74445080D01*
X123465080Y-74370606D01*
X123517741Y-74279394D01*
X123545000Y-74177661D01*
X123545000Y-74171447D01*
X124224024Y-74850471D01*
X124275136Y-74777478D01*
X124371264Y-74571331D01*
X124371269Y-74571317D01*
X124430139Y-74351610D01*
X124430141Y-74351599D01*
X124449966Y-74125002D01*
X124449966Y-74124998D01*
X131999532Y-74124998D01*
X131999532Y-74125001D01*
X132019364Y-74351686D01*
X132019366Y-74351697D01*
X132078258Y-74571488D01*
X132078261Y-74571497D01*
X132174431Y-74777732D01*
X132174432Y-74777734D01*
X132304954Y-74964141D01*
X132465858Y-75125045D01*
X132465861Y-75125047D01*
X132652266Y-75255568D01*
X132858504Y-75351739D01*
X133078308Y-75410635D01*
X133240230Y-75424801D01*
X133304998Y-75430468D01*
X133305000Y-75430468D01*
X133305002Y-75430468D01*
X133361673Y-75425509D01*
X133531692Y-75410635D01*
X133751496Y-75351739D01*
X133957734Y-75255568D01*
X134144139Y-75125047D01*
X134305047Y-74964139D01*
X134435568Y-74777734D01*
X134531739Y-74571496D01*
X134590635Y-74351692D01*
X134610468Y-74125000D01*
X134590635Y-73898308D01*
X134531739Y-73678504D01*
X134435568Y-73472266D01*
X134305047Y-73285861D01*
X134305045Y-73285858D01*
X134144141Y-73124954D01*
X133957734Y-72994432D01*
X133957732Y-72994431D01*
X133751497Y-72898261D01*
X133751488Y-72898258D01*
X133531697Y-72839366D01*
X133531693Y-72839365D01*
X133531692Y-72839365D01*
X133531691Y-72839364D01*
X133531686Y-72839364D01*
X133305002Y-72819532D01*
X133304998Y-72819532D01*
X133078313Y-72839364D01*
X133078302Y-72839366D01*
X132858511Y-72898258D01*
X132858502Y-72898261D01*
X132652267Y-72994431D01*
X132652265Y-72994432D01*
X132465858Y-73124954D01*
X132304954Y-73285858D01*
X132174432Y-73472265D01*
X132174431Y-73472267D01*
X132078261Y-73678502D01*
X132078258Y-73678511D01*
X132019366Y-73898302D01*
X132019364Y-73898313D01*
X131999532Y-74124998D01*
X124449966Y-74124998D01*
X124449966Y-74124997D01*
X124430141Y-73898400D01*
X124430139Y-73898389D01*
X124371269Y-73678682D01*
X124371264Y-73678668D01*
X124275136Y-73472521D01*
X124275132Y-73472513D01*
X124224025Y-73399526D01*
X123545000Y-74078551D01*
X123545000Y-74072339D01*
X123517741Y-73970606D01*
X123465080Y-73879394D01*
X123390606Y-73804920D01*
X123299394Y-73752259D01*
X123197661Y-73725000D01*
X123191448Y-73725000D01*
X123870472Y-73045974D01*
X123797478Y-72994863D01*
X123591331Y-72898735D01*
X123591317Y-72898730D01*
X123371610Y-72839860D01*
X123371599Y-72839858D01*
X123145002Y-72820034D01*
X123144998Y-72820034D01*
X122918400Y-72839858D01*
X122918389Y-72839860D01*
X122698682Y-72898730D01*
X122698673Y-72898734D01*
X122492516Y-72994866D01*
X122492512Y-72994868D01*
X122419526Y-73045973D01*
X122419526Y-73045974D01*
X123098553Y-73725000D01*
X123092339Y-73725000D01*
X122990606Y-73752259D01*
X122899394Y-73804920D01*
X122824920Y-73879394D01*
X122772259Y-73970606D01*
X122745000Y-74072339D01*
X122745000Y-74078552D01*
X122065974Y-73399526D01*
X122065973Y-73399526D01*
X122014868Y-73472512D01*
X122014866Y-73472516D01*
X121918734Y-73678673D01*
X121918730Y-73678682D01*
X121859860Y-73898389D01*
X121859858Y-73898400D01*
X121840034Y-74124997D01*
X119408499Y-74124997D01*
X119418856Y-74000006D01*
X119418856Y-73999993D01*
X119399506Y-73766471D01*
X119399505Y-73766468D01*
X119399505Y-73766464D01*
X119341978Y-73539298D01*
X119247847Y-73324699D01*
X119119677Y-73128521D01*
X118960965Y-72956114D01*
X118960964Y-72956113D01*
X118960962Y-72956111D01*
X118960958Y-72956108D01*
X118776044Y-72812183D01*
X118776035Y-72812177D01*
X118630752Y-72733555D01*
X118581161Y-72684336D01*
X118566053Y-72616119D01*
X118590223Y-72550563D01*
X118645999Y-72508482D01*
X118689769Y-72500500D01*
X158310231Y-72500500D01*
X158377270Y-72520185D01*
G37*
%TD.AperFunction*%
%TD*%
M02*
