%TF.GenerationSoftware,KiCad,Pcbnew,8.0.2*%
%TF.CreationDate,2025-03-31T19:16:32+02:00*%
%TF.ProjectId,Carte_main,43617274-655f-46d6-9169-6e2e6b696361,rev?*%
%TF.SameCoordinates,Original*%
%TF.FileFunction,Soldermask,Top*%
%TF.FilePolarity,Negative*%
%FSLAX46Y46*%
G04 Gerber Fmt 4.6, Leading zero omitted, Abs format (unit mm)*
G04 Created by KiCad (PCBNEW 8.0.2) date 2025-03-31 19:16:32*
%MOMM*%
%LPD*%
G01*
G04 APERTURE LIST*
%ADD10C,2.400000*%
%ADD11R,2.400000X2.400000*%
%ADD12C,1.600000*%
%ADD13O,1.600000X1.600000*%
%ADD14C,2.000000*%
%ADD15R,1.700000X1.700000*%
%ADD16O,1.700000X1.700000*%
%ADD17R,1.800000X1.800000*%
%ADD18C,1.800000*%
G04 APERTURE END LIST*
D10*
%TO.C,SW2*%
X121625000Y-103050000D03*
X121625000Y-98050000D03*
D11*
X121625000Y-93050000D03*
%TD*%
D12*
%TO.C,R1*%
X130655000Y-107725000D03*
D13*
X120495000Y-107725000D03*
%TD*%
D12*
%TO.C,C4*%
X130650000Y-119325000D03*
X125650000Y-119325000D03*
%TD*%
D14*
%TO.C,SW1*%
X118325000Y-83825000D03*
X118325000Y-77325000D03*
X122825000Y-83825000D03*
X122825000Y-77325000D03*
%TD*%
D15*
%TO.C,BT1*%
X129286000Y-122428000D03*
D16*
X126746000Y-122428000D03*
%TD*%
D15*
%TO.C,J1*%
X133600000Y-78745000D03*
D16*
X133600000Y-81285000D03*
X133600000Y-83825000D03*
X133600000Y-86365000D03*
X133600000Y-88905000D03*
X133600000Y-91445000D03*
X133600000Y-93985000D03*
X133600000Y-96525000D03*
X133600000Y-99065000D03*
X133600000Y-101605000D03*
X133600000Y-104145000D03*
X133600000Y-106685000D03*
X133600000Y-109225000D03*
X133600000Y-111765000D03*
X133600000Y-114305000D03*
X133600000Y-116845000D03*
X133600000Y-119385000D03*
X133600000Y-121925000D03*
%TD*%
D12*
%TO.C,R5*%
X123145000Y-74125000D03*
D13*
X133305000Y-74125000D03*
%TD*%
D12*
%TO.C,R2*%
X130650000Y-113792000D03*
D13*
X120490000Y-113792000D03*
%TD*%
D15*
%TO.C,J3*%
X118613000Y-87376000D03*
D16*
X121153000Y-87376000D03*
%TD*%
D15*
%TO.C,J4*%
X129032000Y-86614000D03*
D16*
X129032000Y-89154000D03*
X129032000Y-91694000D03*
X129032000Y-94234000D03*
X129032000Y-96774000D03*
X129032000Y-99314000D03*
X129032000Y-101854000D03*
X129032000Y-104394000D03*
%TD*%
D17*
%TO.C,D1*%
X120510000Y-119740000D03*
D18*
X120510000Y-117200000D03*
%TD*%
D15*
%TO.C,J2*%
X156400000Y-78745000D03*
D16*
X156400000Y-81285000D03*
X156400000Y-83825000D03*
X156400000Y-86365000D03*
X156400000Y-88905000D03*
X156400000Y-91445000D03*
X156400000Y-93985000D03*
X156400000Y-96525000D03*
X156400000Y-99065000D03*
X156400000Y-101605000D03*
X156400000Y-104145000D03*
X156400000Y-106685000D03*
X156400000Y-109225000D03*
X156400000Y-111765000D03*
X156400000Y-114305000D03*
X156400000Y-116845000D03*
X156400000Y-119385000D03*
X156400000Y-121925000D03*
%TD*%
D12*
%TO.C,C5*%
X130650000Y-116825000D03*
X125650000Y-116825000D03*
%TD*%
M02*
