M48
; DRILL file {KiCad 8.0.2} date 2025-03-31T19:16:37+0200
; FORMAT={-:-/ absolute / inch / decimal}
; #@! TF.CreationDate,2025-03-31T19:16:37+02:00
; #@! TF.GenerationSoftware,Kicad,Pcbnew,8.0.2
; #@! TF.FileFunction,Plated,1,2,PTH
FMAT,2
INCH
; #@! TA.AperFunction,Plated,PTH,ComponentDrill
T1C0.0315
; #@! TA.AperFunction,Plated,PTH,ComponentDrill
T2C0.0354
; #@! TA.AperFunction,Plated,PTH,ComponentDrill
T3C0.0394
; #@! TA.AperFunction,Plated,PTH,ComponentDrill
T4C0.0433
; #@! TA.AperFunction,Plated,PTH,ComponentDrill
T5C0.0472
%
G90
G05
T1
X4.7437Y-4.48
X4.7439Y-4.2411
X4.8482Y-2.9183
X4.9469Y-4.5994
X4.9469Y-4.6978
X5.1437Y-4.48
X5.1437Y-4.5994
X5.1437Y-4.6978
X5.1439Y-4.2411
X5.2482Y-2.9183
T2
X4.7445Y-4.6142
X4.7445Y-4.7142
T3
X4.6698Y-3.44
X4.7698Y-3.44
X4.99Y-4.82
X5.08Y-3.41
X5.08Y-3.51
X5.08Y-3.61
X5.08Y-3.71
X5.08Y-3.81
X5.08Y-3.91
X5.08Y-4.01
X5.08Y-4.11
X5.09Y-4.82
X5.2598Y-3.1002
X5.2598Y-3.2002
X5.2598Y-3.3002
X5.2598Y-3.4002
X5.2598Y-3.5002
X5.2598Y-3.6002
X5.2598Y-3.7002
X5.2598Y-3.8002
X5.2598Y-3.9002
X5.2598Y-4.0002
X5.2598Y-4.1002
X5.2598Y-4.2002
X5.2598Y-4.3002
X5.2598Y-4.4002
X5.2598Y-4.5002
X5.2598Y-4.6002
X5.2598Y-4.7002
X5.2598Y-4.8002
X6.1575Y-3.1002
X6.1575Y-3.2002
X6.1575Y-3.3002
X6.1575Y-3.4002
X6.1575Y-3.5002
X6.1575Y-3.6002
X6.1575Y-3.7002
X6.1575Y-3.8002
X6.1575Y-3.9002
X6.1575Y-4.0002
X6.1575Y-4.1002
X6.1575Y-4.2002
X6.1575Y-4.3002
X6.1575Y-4.4002
X6.1575Y-4.5002
X6.1575Y-4.6002
X6.1575Y-4.7002
X6.1575Y-4.8002
T4
X4.6585Y-3.0443
X4.6585Y-3.3002
X4.8356Y-3.0443
X4.8356Y-3.3002
T5
X4.7884Y-3.6634
X4.7884Y-3.8602
X4.7884Y-4.0571
M30
