M48
; DRILL file {KiCad 8.0.2} date 2025-02-13T09:10:00+0100
; FORMAT={-:-/ absolute / inch / decimal}
; #@! TF.CreationDate,2025-02-13T09:10:00+01:00
; #@! TF.GenerationSoftware,Kicad,Pcbnew,8.0.2
; #@! TF.FileFunction,Plated,1,2,PTH
FMAT,2
INCH
; #@! TA.AperFunction,Plated,PTH,ComponentDrill
T1C0.0315
; #@! TA.AperFunction,Plated,PTH,ComponentDrill
T2C0.0394
; #@! TA.AperFunction,Plated,PTH,ComponentDrill
T3C0.0433
%
G90
G05
T1
X4.7429Y-3.8789
X4.7429Y-4.2215
X4.7437Y-4.0994
X4.7437Y-4.4892
X4.8482Y-2.9183
X4.9469Y-3.7687
X4.9469Y-3.9892
X4.9469Y-4.3789
X4.9469Y-4.5994
X4.9469Y-4.6978
X5.1429Y-3.8789
X5.1429Y-4.2215
X5.1437Y-3.7687
X5.1437Y-3.9892
X5.1437Y-4.0994
X5.1437Y-4.3789
X5.1437Y-4.4892
X5.1437Y-4.5994
X5.1437Y-4.6978
X5.2482Y-2.9183
T2
X4.9065Y-3.4591
X4.9065Y-3.5591
X5.0846Y-3.1616
X5.0846Y-3.2616
X5.0846Y-3.3616
X5.0846Y-3.4616
X5.0846Y-3.5616
X5.2598Y-3.1002
X5.2598Y-3.2002
X5.2598Y-3.3002
X5.2598Y-3.4002
X5.2598Y-3.5002
X5.2598Y-3.6002
X5.2598Y-3.7002
X5.2598Y-3.8002
X5.2598Y-3.9002
X5.2598Y-4.0002
X5.2598Y-4.1002
X5.2598Y-4.2002
X5.2598Y-4.3002
X5.2598Y-4.4002
X5.2598Y-4.5002
X5.2598Y-4.6002
X5.2598Y-4.7002
X5.2598Y-4.8002
X6.1575Y-3.1002
X6.1575Y-3.2002
X6.1575Y-3.3002
X6.1575Y-3.4002
X6.1575Y-3.5002
X6.1575Y-3.6002
X6.1575Y-3.7002
X6.1575Y-3.8002
X6.1575Y-3.9002
X6.1575Y-4.0002
X6.1575Y-4.1002
X6.1575Y-4.2002
X6.1575Y-4.3002
X6.1575Y-4.4002
X6.1575Y-4.5002
X6.1575Y-4.6002
X6.1575Y-4.7002
X6.1575Y-4.8002
T3
X4.6585Y-3.0443
X4.6585Y-3.3002
X4.8356Y-3.0443
X4.8356Y-3.3002
M30
