%TF.GenerationSoftware,KiCad,Pcbnew,8.0.2*%
%TF.CreationDate,2025-02-13T09:09:47+01:00*%
%TF.ProjectId,Carte_main,43617274-655f-46d6-9169-6e2e6b696361,rev?*%
%TF.SameCoordinates,Original*%
%TF.FileFunction,AssemblyDrawing,Top*%
%FSLAX46Y46*%
G04 Gerber Fmt 4.6, Leading zero omitted, Abs format (unit mm)*
G04 Created by KiCad (PCBNEW 8.0.2) date 2025-02-13 09:09:47*
%MOMM*%
%LPD*%
G01*
G04 APERTURE LIST*
%ADD10C,0.150000*%
%ADD11C,0.129000*%
%ADD12C,0.100000*%
G04 APERTURE END LIST*
D10*
X127507142Y-99579819D02*
X126935714Y-99579819D01*
X127221428Y-99579819D02*
X127221428Y-98579819D01*
X127221428Y-98579819D02*
X127126190Y-98722676D01*
X127126190Y-98722676D02*
X127030952Y-98817914D01*
X127030952Y-98817914D02*
X126935714Y-98865533D01*
X128126190Y-98579819D02*
X128221428Y-98579819D01*
X128221428Y-98579819D02*
X128316666Y-98627438D01*
X128316666Y-98627438D02*
X128364285Y-98675057D01*
X128364285Y-98675057D02*
X128411904Y-98770295D01*
X128411904Y-98770295D02*
X128459523Y-98960771D01*
X128459523Y-98960771D02*
X128459523Y-99198866D01*
X128459523Y-99198866D02*
X128411904Y-99389342D01*
X128411904Y-99389342D02*
X128364285Y-99484580D01*
X128364285Y-99484580D02*
X128316666Y-99532200D01*
X128316666Y-99532200D02*
X128221428Y-99579819D01*
X128221428Y-99579819D02*
X128126190Y-99579819D01*
X128126190Y-99579819D02*
X128030952Y-99532200D01*
X128030952Y-99532200D02*
X127983333Y-99484580D01*
X127983333Y-99484580D02*
X127935714Y-99389342D01*
X127935714Y-99389342D02*
X127888095Y-99198866D01*
X127888095Y-99198866D02*
X127888095Y-98960771D01*
X127888095Y-98960771D02*
X127935714Y-98770295D01*
X127935714Y-98770295D02*
X127983333Y-98675057D01*
X127983333Y-98675057D02*
X128030952Y-98627438D01*
X128030952Y-98627438D02*
X128126190Y-98579819D01*
X128888095Y-98913152D02*
X128888095Y-99579819D01*
X128888095Y-99008390D02*
X128935714Y-98960771D01*
X128935714Y-98960771D02*
X129030952Y-98913152D01*
X129030952Y-98913152D02*
X129173809Y-98913152D01*
X129173809Y-98913152D02*
X129269047Y-98960771D01*
X129269047Y-98960771D02*
X129316666Y-99056009D01*
X129316666Y-99056009D02*
X129316666Y-99579819D01*
D11*
X128006666Y-101634240D02*
X127965714Y-101675193D01*
X127965714Y-101675193D02*
X127842856Y-101716145D01*
X127842856Y-101716145D02*
X127760952Y-101716145D01*
X127760952Y-101716145D02*
X127638095Y-101675193D01*
X127638095Y-101675193D02*
X127556190Y-101593288D01*
X127556190Y-101593288D02*
X127515237Y-101511383D01*
X127515237Y-101511383D02*
X127474285Y-101347573D01*
X127474285Y-101347573D02*
X127474285Y-101224716D01*
X127474285Y-101224716D02*
X127515237Y-101060907D01*
X127515237Y-101060907D02*
X127556190Y-100979002D01*
X127556190Y-100979002D02*
X127638095Y-100897097D01*
X127638095Y-100897097D02*
X127760952Y-100856145D01*
X127760952Y-100856145D02*
X127842856Y-100856145D01*
X127842856Y-100856145D02*
X127965714Y-100897097D01*
X127965714Y-100897097D02*
X128006666Y-100938050D01*
X128293333Y-100856145D02*
X128825714Y-100856145D01*
X128825714Y-100856145D02*
X128539047Y-101183764D01*
X128539047Y-101183764D02*
X128661904Y-101183764D01*
X128661904Y-101183764D02*
X128743809Y-101224716D01*
X128743809Y-101224716D02*
X128784761Y-101265669D01*
X128784761Y-101265669D02*
X128825714Y-101347573D01*
X128825714Y-101347573D02*
X128825714Y-101552335D01*
X128825714Y-101552335D02*
X128784761Y-101634240D01*
X128784761Y-101634240D02*
X128743809Y-101675193D01*
X128743809Y-101675193D02*
X128661904Y-101716145D01*
X128661904Y-101716145D02*
X128416190Y-101716145D01*
X128416190Y-101716145D02*
X128334285Y-101675193D01*
X128334285Y-101675193D02*
X128293333Y-101634240D01*
D10*
X124478571Y-105309819D02*
X123907143Y-105309819D01*
X124192857Y-105309819D02*
X124192857Y-104309819D01*
X124192857Y-104309819D02*
X124097619Y-104452676D01*
X124097619Y-104452676D02*
X124002381Y-104547914D01*
X124002381Y-104547914D02*
X123907143Y-104595533D01*
X125097619Y-104309819D02*
X125192857Y-104309819D01*
X125192857Y-104309819D02*
X125288095Y-104357438D01*
X125288095Y-104357438D02*
X125335714Y-104405057D01*
X125335714Y-104405057D02*
X125383333Y-104500295D01*
X125383333Y-104500295D02*
X125430952Y-104690771D01*
X125430952Y-104690771D02*
X125430952Y-104928866D01*
X125430952Y-104928866D02*
X125383333Y-105119342D01*
X125383333Y-105119342D02*
X125335714Y-105214580D01*
X125335714Y-105214580D02*
X125288095Y-105262200D01*
X125288095Y-105262200D02*
X125192857Y-105309819D01*
X125192857Y-105309819D02*
X125097619Y-105309819D01*
X125097619Y-105309819D02*
X125002381Y-105262200D01*
X125002381Y-105262200D02*
X124954762Y-105214580D01*
X124954762Y-105214580D02*
X124907143Y-105119342D01*
X124907143Y-105119342D02*
X124859524Y-104928866D01*
X124859524Y-104928866D02*
X124859524Y-104690771D01*
X124859524Y-104690771D02*
X124907143Y-104500295D01*
X124907143Y-104500295D02*
X124954762Y-104405057D01*
X124954762Y-104405057D02*
X125002381Y-104357438D01*
X125002381Y-104357438D02*
X125097619Y-104309819D01*
X126050000Y-104309819D02*
X126145238Y-104309819D01*
X126145238Y-104309819D02*
X126240476Y-104357438D01*
X126240476Y-104357438D02*
X126288095Y-104405057D01*
X126288095Y-104405057D02*
X126335714Y-104500295D01*
X126335714Y-104500295D02*
X126383333Y-104690771D01*
X126383333Y-104690771D02*
X126383333Y-104928866D01*
X126383333Y-104928866D02*
X126335714Y-105119342D01*
X126335714Y-105119342D02*
X126288095Y-105214580D01*
X126288095Y-105214580D02*
X126240476Y-105262200D01*
X126240476Y-105262200D02*
X126145238Y-105309819D01*
X126145238Y-105309819D02*
X126050000Y-105309819D01*
X126050000Y-105309819D02*
X125954762Y-105262200D01*
X125954762Y-105262200D02*
X125907143Y-105214580D01*
X125907143Y-105214580D02*
X125859524Y-105119342D01*
X125859524Y-105119342D02*
X125811905Y-104928866D01*
X125811905Y-104928866D02*
X125811905Y-104690771D01*
X125811905Y-104690771D02*
X125859524Y-104500295D01*
X125859524Y-104500295D02*
X125907143Y-104405057D01*
X125907143Y-104405057D02*
X125954762Y-104357438D01*
X125954762Y-104357438D02*
X126050000Y-104309819D01*
X126811905Y-105309819D02*
X126811905Y-104309819D01*
X126907143Y-104928866D02*
X127192857Y-105309819D01*
X127192857Y-104643152D02*
X126811905Y-105024104D01*
X125383333Y-107679819D02*
X125050000Y-107203628D01*
X124811905Y-107679819D02*
X124811905Y-106679819D01*
X124811905Y-106679819D02*
X125192857Y-106679819D01*
X125192857Y-106679819D02*
X125288095Y-106727438D01*
X125288095Y-106727438D02*
X125335714Y-106775057D01*
X125335714Y-106775057D02*
X125383333Y-106870295D01*
X125383333Y-106870295D02*
X125383333Y-107013152D01*
X125383333Y-107013152D02*
X125335714Y-107108390D01*
X125335714Y-107108390D02*
X125288095Y-107156009D01*
X125288095Y-107156009D02*
X125192857Y-107203628D01*
X125192857Y-107203628D02*
X124811905Y-107203628D01*
X126335714Y-107679819D02*
X125764286Y-107679819D01*
X126050000Y-107679819D02*
X126050000Y-106679819D01*
X126050000Y-106679819D02*
X125954762Y-106822676D01*
X125954762Y-106822676D02*
X125859524Y-106917914D01*
X125859524Y-106917914D02*
X125764286Y-106965533D01*
X127030952Y-117579819D02*
X126459524Y-117579819D01*
X126745238Y-117579819D02*
X126745238Y-116579819D01*
X126745238Y-116579819D02*
X126650000Y-116722676D01*
X126650000Y-116722676D02*
X126554762Y-116817914D01*
X126554762Y-116817914D02*
X126459524Y-116865533D01*
X127650000Y-116579819D02*
X127745238Y-116579819D01*
X127745238Y-116579819D02*
X127840476Y-116627438D01*
X127840476Y-116627438D02*
X127888095Y-116675057D01*
X127888095Y-116675057D02*
X127935714Y-116770295D01*
X127935714Y-116770295D02*
X127983333Y-116960771D01*
X127983333Y-116960771D02*
X127983333Y-117198866D01*
X127983333Y-117198866D02*
X127935714Y-117389342D01*
X127935714Y-117389342D02*
X127888095Y-117484580D01*
X127888095Y-117484580D02*
X127840476Y-117532200D01*
X127840476Y-117532200D02*
X127745238Y-117579819D01*
X127745238Y-117579819D02*
X127650000Y-117579819D01*
X127650000Y-117579819D02*
X127554762Y-117532200D01*
X127554762Y-117532200D02*
X127507143Y-117484580D01*
X127507143Y-117484580D02*
X127459524Y-117389342D01*
X127459524Y-117389342D02*
X127411905Y-117198866D01*
X127411905Y-117198866D02*
X127411905Y-116960771D01*
X127411905Y-116960771D02*
X127459524Y-116770295D01*
X127459524Y-116770295D02*
X127507143Y-116675057D01*
X127507143Y-116675057D02*
X127554762Y-116627438D01*
X127554762Y-116627438D02*
X127650000Y-116579819D01*
X128602381Y-116579819D02*
X128697619Y-116579819D01*
X128697619Y-116579819D02*
X128792857Y-116627438D01*
X128792857Y-116627438D02*
X128840476Y-116675057D01*
X128840476Y-116675057D02*
X128888095Y-116770295D01*
X128888095Y-116770295D02*
X128935714Y-116960771D01*
X128935714Y-116960771D02*
X128935714Y-117198866D01*
X128935714Y-117198866D02*
X128888095Y-117389342D01*
X128888095Y-117389342D02*
X128840476Y-117484580D01*
X128840476Y-117484580D02*
X128792857Y-117532200D01*
X128792857Y-117532200D02*
X128697619Y-117579819D01*
X128697619Y-117579819D02*
X128602381Y-117579819D01*
X128602381Y-117579819D02*
X128507143Y-117532200D01*
X128507143Y-117532200D02*
X128459524Y-117484580D01*
X128459524Y-117484580D02*
X128411905Y-117389342D01*
X128411905Y-117389342D02*
X128364286Y-117198866D01*
X128364286Y-117198866D02*
X128364286Y-116960771D01*
X128364286Y-116960771D02*
X128411905Y-116770295D01*
X128411905Y-116770295D02*
X128459524Y-116675057D01*
X128459524Y-116675057D02*
X128507143Y-116627438D01*
X128507143Y-116627438D02*
X128602381Y-116579819D01*
X129364286Y-116913152D02*
X129364286Y-117579819D01*
X129364286Y-117008390D02*
X129411905Y-116960771D01*
X129411905Y-116960771D02*
X129507143Y-116913152D01*
X129507143Y-116913152D02*
X129650000Y-116913152D01*
X129650000Y-116913152D02*
X129745238Y-116960771D01*
X129745238Y-116960771D02*
X129792857Y-117056009D01*
X129792857Y-117056009D02*
X129792857Y-117579819D01*
D11*
X128006666Y-119634240D02*
X127965714Y-119675193D01*
X127965714Y-119675193D02*
X127842856Y-119716145D01*
X127842856Y-119716145D02*
X127760952Y-119716145D01*
X127760952Y-119716145D02*
X127638095Y-119675193D01*
X127638095Y-119675193D02*
X127556190Y-119593288D01*
X127556190Y-119593288D02*
X127515237Y-119511383D01*
X127515237Y-119511383D02*
X127474285Y-119347573D01*
X127474285Y-119347573D02*
X127474285Y-119224716D01*
X127474285Y-119224716D02*
X127515237Y-119060907D01*
X127515237Y-119060907D02*
X127556190Y-118979002D01*
X127556190Y-118979002D02*
X127638095Y-118897097D01*
X127638095Y-118897097D02*
X127760952Y-118856145D01*
X127760952Y-118856145D02*
X127842856Y-118856145D01*
X127842856Y-118856145D02*
X127965714Y-118897097D01*
X127965714Y-118897097D02*
X128006666Y-118938050D01*
X128743809Y-119142812D02*
X128743809Y-119716145D01*
X128539047Y-118815193D02*
X128334285Y-119429478D01*
X128334285Y-119429478D02*
X128866666Y-119429478D01*
D10*
X125284285Y-106949819D02*
X124712857Y-106949819D01*
X124998571Y-106949819D02*
X124998571Y-105949819D01*
X124998571Y-105949819D02*
X124903333Y-106092676D01*
X124903333Y-106092676D02*
X124808095Y-106187914D01*
X124808095Y-106187914D02*
X124712857Y-106235533D01*
X125712857Y-106949819D02*
X125712857Y-105949819D01*
X125712857Y-105949819D02*
X126046190Y-106664104D01*
X126046190Y-106664104D02*
X126379523Y-105949819D01*
X126379523Y-105949819D02*
X126379523Y-106949819D01*
X125403333Y-104579819D02*
X125070000Y-104103628D01*
X124831905Y-104579819D02*
X124831905Y-103579819D01*
X124831905Y-103579819D02*
X125212857Y-103579819D01*
X125212857Y-103579819D02*
X125308095Y-103627438D01*
X125308095Y-103627438D02*
X125355714Y-103675057D01*
X125355714Y-103675057D02*
X125403333Y-103770295D01*
X125403333Y-103770295D02*
X125403333Y-103913152D01*
X125403333Y-103913152D02*
X125355714Y-104008390D01*
X125355714Y-104008390D02*
X125308095Y-104056009D01*
X125308095Y-104056009D02*
X125212857Y-104103628D01*
X125212857Y-104103628D02*
X124831905Y-104103628D01*
X125784286Y-103675057D02*
X125831905Y-103627438D01*
X125831905Y-103627438D02*
X125927143Y-103579819D01*
X125927143Y-103579819D02*
X126165238Y-103579819D01*
X126165238Y-103579819D02*
X126260476Y-103627438D01*
X126260476Y-103627438D02*
X126308095Y-103675057D01*
X126308095Y-103675057D02*
X126355714Y-103770295D01*
X126355714Y-103770295D02*
X126355714Y-103865533D01*
X126355714Y-103865533D02*
X126308095Y-104008390D01*
X126308095Y-104008390D02*
X125736667Y-104579819D01*
X125736667Y-104579819D02*
X126355714Y-104579819D01*
X125432200Y-83122618D02*
X125479819Y-82979761D01*
X125479819Y-82979761D02*
X125479819Y-82741666D01*
X125479819Y-82741666D02*
X125432200Y-82646428D01*
X125432200Y-82646428D02*
X125384580Y-82598809D01*
X125384580Y-82598809D02*
X125289342Y-82551190D01*
X125289342Y-82551190D02*
X125194104Y-82551190D01*
X125194104Y-82551190D02*
X125098866Y-82598809D01*
X125098866Y-82598809D02*
X125051247Y-82646428D01*
X125051247Y-82646428D02*
X125003628Y-82741666D01*
X125003628Y-82741666D02*
X124956009Y-82932142D01*
X124956009Y-82932142D02*
X124908390Y-83027380D01*
X124908390Y-83027380D02*
X124860771Y-83074999D01*
X124860771Y-83074999D02*
X124765533Y-83122618D01*
X124765533Y-83122618D02*
X124670295Y-83122618D01*
X124670295Y-83122618D02*
X124575057Y-83074999D01*
X124575057Y-83074999D02*
X124527438Y-83027380D01*
X124527438Y-83027380D02*
X124479819Y-82932142D01*
X124479819Y-82932142D02*
X124479819Y-82694047D01*
X124479819Y-82694047D02*
X124527438Y-82551190D01*
X124479819Y-82217856D02*
X125479819Y-81979761D01*
X125479819Y-81979761D02*
X124765533Y-81789285D01*
X124765533Y-81789285D02*
X125479819Y-81598809D01*
X125479819Y-81598809D02*
X124479819Y-81360714D01*
X125575057Y-81217857D02*
X125575057Y-80455952D01*
X125479819Y-80217856D02*
X124479819Y-80217856D01*
X124479819Y-80217856D02*
X124479819Y-79836904D01*
X124479819Y-79836904D02*
X124527438Y-79741666D01*
X124527438Y-79741666D02*
X124575057Y-79694047D01*
X124575057Y-79694047D02*
X124670295Y-79646428D01*
X124670295Y-79646428D02*
X124813152Y-79646428D01*
X124813152Y-79646428D02*
X124908390Y-79694047D01*
X124908390Y-79694047D02*
X124956009Y-79741666D01*
X124956009Y-79741666D02*
X125003628Y-79836904D01*
X125003628Y-79836904D02*
X125003628Y-80217856D01*
X124813152Y-78789285D02*
X125479819Y-78789285D01*
X124813152Y-79217856D02*
X125336961Y-79217856D01*
X125336961Y-79217856D02*
X125432200Y-79170237D01*
X125432200Y-79170237D02*
X125479819Y-79074999D01*
X125479819Y-79074999D02*
X125479819Y-78932142D01*
X125479819Y-78932142D02*
X125432200Y-78836904D01*
X125432200Y-78836904D02*
X125384580Y-78789285D01*
X125432200Y-78360713D02*
X125479819Y-78265475D01*
X125479819Y-78265475D02*
X125479819Y-78074999D01*
X125479819Y-78074999D02*
X125432200Y-77979761D01*
X125432200Y-77979761D02*
X125336961Y-77932142D01*
X125336961Y-77932142D02*
X125289342Y-77932142D01*
X125289342Y-77932142D02*
X125194104Y-77979761D01*
X125194104Y-77979761D02*
X125146485Y-78074999D01*
X125146485Y-78074999D02*
X125146485Y-78217856D01*
X125146485Y-78217856D02*
X125098866Y-78313094D01*
X125098866Y-78313094D02*
X125003628Y-78360713D01*
X125003628Y-78360713D02*
X124956009Y-78360713D01*
X124956009Y-78360713D02*
X124860771Y-78313094D01*
X124860771Y-78313094D02*
X124813152Y-78217856D01*
X124813152Y-78217856D02*
X124813152Y-78074999D01*
X124813152Y-78074999D02*
X124860771Y-77979761D01*
X125479819Y-77503570D02*
X124479819Y-77503570D01*
X125479819Y-77074999D02*
X124956009Y-77074999D01*
X124956009Y-77074999D02*
X124860771Y-77122618D01*
X124860771Y-77122618D02*
X124813152Y-77217856D01*
X124813152Y-77217856D02*
X124813152Y-77360713D01*
X124813152Y-77360713D02*
X124860771Y-77455951D01*
X124860771Y-77455951D02*
X124908390Y-77503570D01*
X120982200Y-81908332D02*
X121029819Y-81765475D01*
X121029819Y-81765475D02*
X121029819Y-81527380D01*
X121029819Y-81527380D02*
X120982200Y-81432142D01*
X120982200Y-81432142D02*
X120934580Y-81384523D01*
X120934580Y-81384523D02*
X120839342Y-81336904D01*
X120839342Y-81336904D02*
X120744104Y-81336904D01*
X120744104Y-81336904D02*
X120648866Y-81384523D01*
X120648866Y-81384523D02*
X120601247Y-81432142D01*
X120601247Y-81432142D02*
X120553628Y-81527380D01*
X120553628Y-81527380D02*
X120506009Y-81717856D01*
X120506009Y-81717856D02*
X120458390Y-81813094D01*
X120458390Y-81813094D02*
X120410771Y-81860713D01*
X120410771Y-81860713D02*
X120315533Y-81908332D01*
X120315533Y-81908332D02*
X120220295Y-81908332D01*
X120220295Y-81908332D02*
X120125057Y-81860713D01*
X120125057Y-81860713D02*
X120077438Y-81813094D01*
X120077438Y-81813094D02*
X120029819Y-81717856D01*
X120029819Y-81717856D02*
X120029819Y-81479761D01*
X120029819Y-81479761D02*
X120077438Y-81336904D01*
X120029819Y-81003570D02*
X121029819Y-80765475D01*
X121029819Y-80765475D02*
X120315533Y-80574999D01*
X120315533Y-80574999D02*
X121029819Y-80384523D01*
X121029819Y-80384523D02*
X120029819Y-80146428D01*
X121029819Y-79241666D02*
X121029819Y-79813094D01*
X121029819Y-79527380D02*
X120029819Y-79527380D01*
X120029819Y-79527380D02*
X120172676Y-79622618D01*
X120172676Y-79622618D02*
X120267914Y-79717856D01*
X120267914Y-79717856D02*
X120315533Y-79813094D01*
X122554760Y-93594580D02*
X122507141Y-93642200D01*
X122507141Y-93642200D02*
X122364284Y-93689819D01*
X122364284Y-93689819D02*
X122269046Y-93689819D01*
X122269046Y-93689819D02*
X122126189Y-93642200D01*
X122126189Y-93642200D02*
X122030951Y-93546961D01*
X122030951Y-93546961D02*
X121983332Y-93451723D01*
X121983332Y-93451723D02*
X121935713Y-93261247D01*
X121935713Y-93261247D02*
X121935713Y-93118390D01*
X121935713Y-93118390D02*
X121983332Y-92927914D01*
X121983332Y-92927914D02*
X122030951Y-92832676D01*
X122030951Y-92832676D02*
X122126189Y-92737438D01*
X122126189Y-92737438D02*
X122269046Y-92689819D01*
X122269046Y-92689819D02*
X122364284Y-92689819D01*
X122364284Y-92689819D02*
X122507141Y-92737438D01*
X122507141Y-92737438D02*
X122554760Y-92785057D01*
X123126189Y-93689819D02*
X123030951Y-93642200D01*
X123030951Y-93642200D02*
X122983332Y-93594580D01*
X122983332Y-93594580D02*
X122935713Y-93499342D01*
X122935713Y-93499342D02*
X122935713Y-93213628D01*
X122935713Y-93213628D02*
X122983332Y-93118390D01*
X122983332Y-93118390D02*
X123030951Y-93070771D01*
X123030951Y-93070771D02*
X123126189Y-93023152D01*
X123126189Y-93023152D02*
X123269046Y-93023152D01*
X123269046Y-93023152D02*
X123364284Y-93070771D01*
X123364284Y-93070771D02*
X123411903Y-93118390D01*
X123411903Y-93118390D02*
X123459522Y-93213628D01*
X123459522Y-93213628D02*
X123459522Y-93499342D01*
X123459522Y-93499342D02*
X123411903Y-93594580D01*
X123411903Y-93594580D02*
X123364284Y-93642200D01*
X123364284Y-93642200D02*
X123269046Y-93689819D01*
X123269046Y-93689819D02*
X123126189Y-93689819D01*
X123888094Y-93023152D02*
X123888094Y-93689819D01*
X123888094Y-93118390D02*
X123935713Y-93070771D01*
X123935713Y-93070771D02*
X124030951Y-93023152D01*
X124030951Y-93023152D02*
X124173808Y-93023152D01*
X124173808Y-93023152D02*
X124269046Y-93070771D01*
X124269046Y-93070771D02*
X124316665Y-93166009D01*
X124316665Y-93166009D02*
X124316665Y-93689819D01*
X124792856Y-93023152D02*
X124792856Y-93689819D01*
X124792856Y-93118390D02*
X124840475Y-93070771D01*
X124840475Y-93070771D02*
X124935713Y-93023152D01*
X124935713Y-93023152D02*
X125078570Y-93023152D01*
X125078570Y-93023152D02*
X125173808Y-93070771D01*
X125173808Y-93070771D02*
X125221427Y-93166009D01*
X125221427Y-93166009D02*
X125221427Y-93689819D01*
X125459523Y-93785057D02*
X126221427Y-93785057D01*
X126649999Y-92689819D02*
X126745237Y-92689819D01*
X126745237Y-92689819D02*
X126840475Y-92737438D01*
X126840475Y-92737438D02*
X126888094Y-92785057D01*
X126888094Y-92785057D02*
X126935713Y-92880295D01*
X126935713Y-92880295D02*
X126983332Y-93070771D01*
X126983332Y-93070771D02*
X126983332Y-93308866D01*
X126983332Y-93308866D02*
X126935713Y-93499342D01*
X126935713Y-93499342D02*
X126888094Y-93594580D01*
X126888094Y-93594580D02*
X126840475Y-93642200D01*
X126840475Y-93642200D02*
X126745237Y-93689819D01*
X126745237Y-93689819D02*
X126649999Y-93689819D01*
X126649999Y-93689819D02*
X126554761Y-93642200D01*
X126554761Y-93642200D02*
X126507142Y-93594580D01*
X126507142Y-93594580D02*
X126459523Y-93499342D01*
X126459523Y-93499342D02*
X126411904Y-93308866D01*
X126411904Y-93308866D02*
X126411904Y-93070771D01*
X126411904Y-93070771D02*
X126459523Y-92880295D01*
X126459523Y-92880295D02*
X126507142Y-92785057D01*
X126507142Y-92785057D02*
X126554761Y-92737438D01*
X126554761Y-92737438D02*
X126649999Y-92689819D01*
X127935713Y-93689819D02*
X127364285Y-93689819D01*
X127649999Y-93689819D02*
X127649999Y-92689819D01*
X127649999Y-92689819D02*
X127554761Y-92832676D01*
X127554761Y-92832676D02*
X127459523Y-92927914D01*
X127459523Y-92927914D02*
X127364285Y-92975533D01*
X128269047Y-93689819D02*
X128792856Y-93023152D01*
X128269047Y-93023152D02*
X128792856Y-93689819D01*
X129364285Y-92689819D02*
X129459523Y-92689819D01*
X129459523Y-92689819D02*
X129554761Y-92737438D01*
X129554761Y-92737438D02*
X129602380Y-92785057D01*
X129602380Y-92785057D02*
X129649999Y-92880295D01*
X129649999Y-92880295D02*
X129697618Y-93070771D01*
X129697618Y-93070771D02*
X129697618Y-93308866D01*
X129697618Y-93308866D02*
X129649999Y-93499342D01*
X129649999Y-93499342D02*
X129602380Y-93594580D01*
X129602380Y-93594580D02*
X129554761Y-93642200D01*
X129554761Y-93642200D02*
X129459523Y-93689819D01*
X129459523Y-93689819D02*
X129364285Y-93689819D01*
X129364285Y-93689819D02*
X129269047Y-93642200D01*
X129269047Y-93642200D02*
X129221428Y-93594580D01*
X129221428Y-93594580D02*
X129173809Y-93499342D01*
X129173809Y-93499342D02*
X129126190Y-93308866D01*
X129126190Y-93308866D02*
X129126190Y-93070771D01*
X129126190Y-93070771D02*
X129173809Y-92880295D01*
X129173809Y-92880295D02*
X129221428Y-92785057D01*
X129221428Y-92785057D02*
X129269047Y-92737438D01*
X129269047Y-92737438D02*
X129364285Y-92689819D01*
X130602380Y-92689819D02*
X130126190Y-92689819D01*
X130126190Y-92689819D02*
X130078571Y-93166009D01*
X130078571Y-93166009D02*
X130126190Y-93118390D01*
X130126190Y-93118390D02*
X130221428Y-93070771D01*
X130221428Y-93070771D02*
X130459523Y-93070771D01*
X130459523Y-93070771D02*
X130554761Y-93118390D01*
X130554761Y-93118390D02*
X130602380Y-93166009D01*
X130602380Y-93166009D02*
X130649999Y-93261247D01*
X130649999Y-93261247D02*
X130649999Y-93499342D01*
X130649999Y-93499342D02*
X130602380Y-93594580D01*
X130602380Y-93594580D02*
X130554761Y-93642200D01*
X130554761Y-93642200D02*
X130459523Y-93689819D01*
X130459523Y-93689819D02*
X130221428Y-93689819D01*
X130221428Y-93689819D02*
X130126190Y-93642200D01*
X130126190Y-93642200D02*
X130078571Y-93594580D01*
X130840476Y-93785057D02*
X131602380Y-93785057D01*
X131792857Y-93642200D02*
X131935714Y-93689819D01*
X131935714Y-93689819D02*
X132173809Y-93689819D01*
X132173809Y-93689819D02*
X132269047Y-93642200D01*
X132269047Y-93642200D02*
X132316666Y-93594580D01*
X132316666Y-93594580D02*
X132364285Y-93499342D01*
X132364285Y-93499342D02*
X132364285Y-93404104D01*
X132364285Y-93404104D02*
X132316666Y-93308866D01*
X132316666Y-93308866D02*
X132269047Y-93261247D01*
X132269047Y-93261247D02*
X132173809Y-93213628D01*
X132173809Y-93213628D02*
X131983333Y-93166009D01*
X131983333Y-93166009D02*
X131888095Y-93118390D01*
X131888095Y-93118390D02*
X131840476Y-93070771D01*
X131840476Y-93070771D02*
X131792857Y-92975533D01*
X131792857Y-92975533D02*
X131792857Y-92880295D01*
X131792857Y-92880295D02*
X131840476Y-92785057D01*
X131840476Y-92785057D02*
X131888095Y-92737438D01*
X131888095Y-92737438D02*
X131983333Y-92689819D01*
X131983333Y-92689819D02*
X132221428Y-92689819D01*
X132221428Y-92689819D02*
X132364285Y-92737438D01*
X132935714Y-93689819D02*
X132840476Y-93642200D01*
X132840476Y-93642200D02*
X132792857Y-93594580D01*
X132792857Y-93594580D02*
X132745238Y-93499342D01*
X132745238Y-93499342D02*
X132745238Y-93213628D01*
X132745238Y-93213628D02*
X132792857Y-93118390D01*
X132792857Y-93118390D02*
X132840476Y-93070771D01*
X132840476Y-93070771D02*
X132935714Y-93023152D01*
X132935714Y-93023152D02*
X133078571Y-93023152D01*
X133078571Y-93023152D02*
X133173809Y-93070771D01*
X133173809Y-93070771D02*
X133221428Y-93118390D01*
X133221428Y-93118390D02*
X133269047Y-93213628D01*
X133269047Y-93213628D02*
X133269047Y-93499342D01*
X133269047Y-93499342D02*
X133221428Y-93594580D01*
X133221428Y-93594580D02*
X133173809Y-93642200D01*
X133173809Y-93642200D02*
X133078571Y-93689819D01*
X133078571Y-93689819D02*
X132935714Y-93689819D01*
X134126190Y-93642200D02*
X134030952Y-93689819D01*
X134030952Y-93689819D02*
X133840476Y-93689819D01*
X133840476Y-93689819D02*
X133745238Y-93642200D01*
X133745238Y-93642200D02*
X133697619Y-93594580D01*
X133697619Y-93594580D02*
X133650000Y-93499342D01*
X133650000Y-93499342D02*
X133650000Y-93213628D01*
X133650000Y-93213628D02*
X133697619Y-93118390D01*
X133697619Y-93118390D02*
X133745238Y-93070771D01*
X133745238Y-93070771D02*
X133840476Y-93023152D01*
X133840476Y-93023152D02*
X134030952Y-93023152D01*
X134030952Y-93023152D02*
X134126190Y-93070771D01*
X134554762Y-93689819D02*
X134554762Y-92689819D01*
X134650000Y-93308866D02*
X134935714Y-93689819D01*
X134935714Y-93023152D02*
X134554762Y-93404104D01*
X135745238Y-93642200D02*
X135650000Y-93689819D01*
X135650000Y-93689819D02*
X135459524Y-93689819D01*
X135459524Y-93689819D02*
X135364286Y-93642200D01*
X135364286Y-93642200D02*
X135316667Y-93546961D01*
X135316667Y-93546961D02*
X135316667Y-93166009D01*
X135316667Y-93166009D02*
X135364286Y-93070771D01*
X135364286Y-93070771D02*
X135459524Y-93023152D01*
X135459524Y-93023152D02*
X135650000Y-93023152D01*
X135650000Y-93023152D02*
X135745238Y-93070771D01*
X135745238Y-93070771D02*
X135792857Y-93166009D01*
X135792857Y-93166009D02*
X135792857Y-93261247D01*
X135792857Y-93261247D02*
X135316667Y-93356485D01*
X136078572Y-93023152D02*
X136459524Y-93023152D01*
X136221429Y-92689819D02*
X136221429Y-93546961D01*
X136221429Y-93546961D02*
X136269048Y-93642200D01*
X136269048Y-93642200D02*
X136364286Y-93689819D01*
X136364286Y-93689819D02*
X136459524Y-93689819D01*
X128604819Y-85718333D02*
X129319104Y-85718333D01*
X129319104Y-85718333D02*
X129461961Y-85765952D01*
X129461961Y-85765952D02*
X129557200Y-85861190D01*
X129557200Y-85861190D02*
X129604819Y-86004047D01*
X129604819Y-86004047D02*
X129604819Y-86099285D01*
X128938152Y-84813571D02*
X129604819Y-84813571D01*
X128557200Y-85051666D02*
X129271485Y-85289761D01*
X129271485Y-85289761D02*
X129271485Y-84670714D01*
X127507142Y-93979819D02*
X126935714Y-93979819D01*
X127221428Y-93979819D02*
X127221428Y-92979819D01*
X127221428Y-92979819D02*
X127126190Y-93122676D01*
X127126190Y-93122676D02*
X127030952Y-93217914D01*
X127030952Y-93217914D02*
X126935714Y-93265533D01*
X128126190Y-92979819D02*
X128221428Y-92979819D01*
X128221428Y-92979819D02*
X128316666Y-93027438D01*
X128316666Y-93027438D02*
X128364285Y-93075057D01*
X128364285Y-93075057D02*
X128411904Y-93170295D01*
X128411904Y-93170295D02*
X128459523Y-93360771D01*
X128459523Y-93360771D02*
X128459523Y-93598866D01*
X128459523Y-93598866D02*
X128411904Y-93789342D01*
X128411904Y-93789342D02*
X128364285Y-93884580D01*
X128364285Y-93884580D02*
X128316666Y-93932200D01*
X128316666Y-93932200D02*
X128221428Y-93979819D01*
X128221428Y-93979819D02*
X128126190Y-93979819D01*
X128126190Y-93979819D02*
X128030952Y-93932200D01*
X128030952Y-93932200D02*
X127983333Y-93884580D01*
X127983333Y-93884580D02*
X127935714Y-93789342D01*
X127935714Y-93789342D02*
X127888095Y-93598866D01*
X127888095Y-93598866D02*
X127888095Y-93360771D01*
X127888095Y-93360771D02*
X127935714Y-93170295D01*
X127935714Y-93170295D02*
X127983333Y-93075057D01*
X127983333Y-93075057D02*
X128030952Y-93027438D01*
X128030952Y-93027438D02*
X128126190Y-92979819D01*
X128888095Y-93313152D02*
X128888095Y-93979819D01*
X128888095Y-93408390D02*
X128935714Y-93360771D01*
X128935714Y-93360771D02*
X129030952Y-93313152D01*
X129030952Y-93313152D02*
X129173809Y-93313152D01*
X129173809Y-93313152D02*
X129269047Y-93360771D01*
X129269047Y-93360771D02*
X129316666Y-93456009D01*
X129316666Y-93456009D02*
X129316666Y-93979819D01*
D11*
X128006666Y-96034240D02*
X127965714Y-96075193D01*
X127965714Y-96075193D02*
X127842856Y-96116145D01*
X127842856Y-96116145D02*
X127760952Y-96116145D01*
X127760952Y-96116145D02*
X127638095Y-96075193D01*
X127638095Y-96075193D02*
X127556190Y-95993288D01*
X127556190Y-95993288D02*
X127515237Y-95911383D01*
X127515237Y-95911383D02*
X127474285Y-95747573D01*
X127474285Y-95747573D02*
X127474285Y-95624716D01*
X127474285Y-95624716D02*
X127515237Y-95460907D01*
X127515237Y-95460907D02*
X127556190Y-95379002D01*
X127556190Y-95379002D02*
X127638095Y-95297097D01*
X127638095Y-95297097D02*
X127760952Y-95256145D01*
X127760952Y-95256145D02*
X127842856Y-95256145D01*
X127842856Y-95256145D02*
X127965714Y-95297097D01*
X127965714Y-95297097D02*
X128006666Y-95338050D01*
X128334285Y-95338050D02*
X128375237Y-95297097D01*
X128375237Y-95297097D02*
X128457142Y-95256145D01*
X128457142Y-95256145D02*
X128661904Y-95256145D01*
X128661904Y-95256145D02*
X128743809Y-95297097D01*
X128743809Y-95297097D02*
X128784761Y-95338050D01*
X128784761Y-95338050D02*
X128825714Y-95419954D01*
X128825714Y-95419954D02*
X128825714Y-95501859D01*
X128825714Y-95501859D02*
X128784761Y-95624716D01*
X128784761Y-95624716D02*
X128293333Y-96116145D01*
X128293333Y-96116145D02*
X128825714Y-96116145D01*
D10*
X128290475Y-124614580D02*
X128242856Y-124662200D01*
X128242856Y-124662200D02*
X128099999Y-124709819D01*
X128099999Y-124709819D02*
X128004761Y-124709819D01*
X128004761Y-124709819D02*
X127861904Y-124662200D01*
X127861904Y-124662200D02*
X127766666Y-124566961D01*
X127766666Y-124566961D02*
X127719047Y-124471723D01*
X127719047Y-124471723D02*
X127671428Y-124281247D01*
X127671428Y-124281247D02*
X127671428Y-124138390D01*
X127671428Y-124138390D02*
X127719047Y-123947914D01*
X127719047Y-123947914D02*
X127766666Y-123852676D01*
X127766666Y-123852676D02*
X127861904Y-123757438D01*
X127861904Y-123757438D02*
X128004761Y-123709819D01*
X128004761Y-123709819D02*
X128099999Y-123709819D01*
X128099999Y-123709819D02*
X128242856Y-123757438D01*
X128242856Y-123757438D02*
X128290475Y-123805057D01*
X128861904Y-124709819D02*
X128766666Y-124662200D01*
X128766666Y-124662200D02*
X128719047Y-124614580D01*
X128719047Y-124614580D02*
X128671428Y-124519342D01*
X128671428Y-124519342D02*
X128671428Y-124233628D01*
X128671428Y-124233628D02*
X128719047Y-124138390D01*
X128719047Y-124138390D02*
X128766666Y-124090771D01*
X128766666Y-124090771D02*
X128861904Y-124043152D01*
X128861904Y-124043152D02*
X129004761Y-124043152D01*
X129004761Y-124043152D02*
X129099999Y-124090771D01*
X129099999Y-124090771D02*
X129147618Y-124138390D01*
X129147618Y-124138390D02*
X129195237Y-124233628D01*
X129195237Y-124233628D02*
X129195237Y-124519342D01*
X129195237Y-124519342D02*
X129147618Y-124614580D01*
X129147618Y-124614580D02*
X129099999Y-124662200D01*
X129099999Y-124662200D02*
X129004761Y-124709819D01*
X129004761Y-124709819D02*
X128861904Y-124709819D01*
X129623809Y-124043152D02*
X129623809Y-124709819D01*
X129623809Y-124138390D02*
X129671428Y-124090771D01*
X129671428Y-124090771D02*
X129766666Y-124043152D01*
X129766666Y-124043152D02*
X129909523Y-124043152D01*
X129909523Y-124043152D02*
X130004761Y-124090771D01*
X130004761Y-124090771D02*
X130052380Y-124186009D01*
X130052380Y-124186009D02*
X130052380Y-124709819D01*
X130528571Y-124043152D02*
X130528571Y-124709819D01*
X130528571Y-124138390D02*
X130576190Y-124090771D01*
X130576190Y-124090771D02*
X130671428Y-124043152D01*
X130671428Y-124043152D02*
X130814285Y-124043152D01*
X130814285Y-124043152D02*
X130909523Y-124090771D01*
X130909523Y-124090771D02*
X130957142Y-124186009D01*
X130957142Y-124186009D02*
X130957142Y-124709819D01*
X131195238Y-124805057D02*
X131957142Y-124805057D01*
X132385714Y-123709819D02*
X132480952Y-123709819D01*
X132480952Y-123709819D02*
X132576190Y-123757438D01*
X132576190Y-123757438D02*
X132623809Y-123805057D01*
X132623809Y-123805057D02*
X132671428Y-123900295D01*
X132671428Y-123900295D02*
X132719047Y-124090771D01*
X132719047Y-124090771D02*
X132719047Y-124328866D01*
X132719047Y-124328866D02*
X132671428Y-124519342D01*
X132671428Y-124519342D02*
X132623809Y-124614580D01*
X132623809Y-124614580D02*
X132576190Y-124662200D01*
X132576190Y-124662200D02*
X132480952Y-124709819D01*
X132480952Y-124709819D02*
X132385714Y-124709819D01*
X132385714Y-124709819D02*
X132290476Y-124662200D01*
X132290476Y-124662200D02*
X132242857Y-124614580D01*
X132242857Y-124614580D02*
X132195238Y-124519342D01*
X132195238Y-124519342D02*
X132147619Y-124328866D01*
X132147619Y-124328866D02*
X132147619Y-124090771D01*
X132147619Y-124090771D02*
X132195238Y-123900295D01*
X132195238Y-123900295D02*
X132242857Y-123805057D01*
X132242857Y-123805057D02*
X132290476Y-123757438D01*
X132290476Y-123757438D02*
X132385714Y-123709819D01*
X133671428Y-124709819D02*
X133100000Y-124709819D01*
X133385714Y-124709819D02*
X133385714Y-123709819D01*
X133385714Y-123709819D02*
X133290476Y-123852676D01*
X133290476Y-123852676D02*
X133195238Y-123947914D01*
X133195238Y-123947914D02*
X133100000Y-123995533D01*
X134004762Y-124709819D02*
X134528571Y-124043152D01*
X134004762Y-124043152D02*
X134528571Y-124709819D01*
X135433333Y-124709819D02*
X134861905Y-124709819D01*
X135147619Y-124709819D02*
X135147619Y-123709819D01*
X135147619Y-123709819D02*
X135052381Y-123852676D01*
X135052381Y-123852676D02*
X134957143Y-123947914D01*
X134957143Y-123947914D02*
X134861905Y-123995533D01*
X136004762Y-124138390D02*
X135909524Y-124090771D01*
X135909524Y-124090771D02*
X135861905Y-124043152D01*
X135861905Y-124043152D02*
X135814286Y-123947914D01*
X135814286Y-123947914D02*
X135814286Y-123900295D01*
X135814286Y-123900295D02*
X135861905Y-123805057D01*
X135861905Y-123805057D02*
X135909524Y-123757438D01*
X135909524Y-123757438D02*
X136004762Y-123709819D01*
X136004762Y-123709819D02*
X136195238Y-123709819D01*
X136195238Y-123709819D02*
X136290476Y-123757438D01*
X136290476Y-123757438D02*
X136338095Y-123805057D01*
X136338095Y-123805057D02*
X136385714Y-123900295D01*
X136385714Y-123900295D02*
X136385714Y-123947914D01*
X136385714Y-123947914D02*
X136338095Y-124043152D01*
X136338095Y-124043152D02*
X136290476Y-124090771D01*
X136290476Y-124090771D02*
X136195238Y-124138390D01*
X136195238Y-124138390D02*
X136004762Y-124138390D01*
X136004762Y-124138390D02*
X135909524Y-124186009D01*
X135909524Y-124186009D02*
X135861905Y-124233628D01*
X135861905Y-124233628D02*
X135814286Y-124328866D01*
X135814286Y-124328866D02*
X135814286Y-124519342D01*
X135814286Y-124519342D02*
X135861905Y-124614580D01*
X135861905Y-124614580D02*
X135909524Y-124662200D01*
X135909524Y-124662200D02*
X136004762Y-124709819D01*
X136004762Y-124709819D02*
X136195238Y-124709819D01*
X136195238Y-124709819D02*
X136290476Y-124662200D01*
X136290476Y-124662200D02*
X136338095Y-124614580D01*
X136338095Y-124614580D02*
X136385714Y-124519342D01*
X136385714Y-124519342D02*
X136385714Y-124328866D01*
X136385714Y-124328866D02*
X136338095Y-124233628D01*
X136338095Y-124233628D02*
X136290476Y-124186009D01*
X136290476Y-124186009D02*
X136195238Y-124138390D01*
X136576191Y-124805057D02*
X137338095Y-124805057D01*
X137576191Y-124709819D02*
X137576191Y-123709819D01*
X137576191Y-123709819D02*
X137957143Y-123709819D01*
X137957143Y-123709819D02*
X138052381Y-123757438D01*
X138052381Y-123757438D02*
X138100000Y-123805057D01*
X138100000Y-123805057D02*
X138147619Y-123900295D01*
X138147619Y-123900295D02*
X138147619Y-124043152D01*
X138147619Y-124043152D02*
X138100000Y-124138390D01*
X138100000Y-124138390D02*
X138052381Y-124186009D01*
X138052381Y-124186009D02*
X137957143Y-124233628D01*
X137957143Y-124233628D02*
X137576191Y-124233628D01*
X138576191Y-124709819D02*
X138576191Y-124043152D01*
X138576191Y-123709819D02*
X138528572Y-123757438D01*
X138528572Y-123757438D02*
X138576191Y-123805057D01*
X138576191Y-123805057D02*
X138623810Y-123757438D01*
X138623810Y-123757438D02*
X138576191Y-123709819D01*
X138576191Y-123709819D02*
X138576191Y-123805057D01*
X139052381Y-124043152D02*
X139052381Y-124709819D01*
X139052381Y-124138390D02*
X139100000Y-124090771D01*
X139100000Y-124090771D02*
X139195238Y-124043152D01*
X139195238Y-124043152D02*
X139338095Y-124043152D01*
X139338095Y-124043152D02*
X139433333Y-124090771D01*
X139433333Y-124090771D02*
X139480952Y-124186009D01*
X139480952Y-124186009D02*
X139480952Y-124709819D01*
X133054819Y-100668333D02*
X133769104Y-100668333D01*
X133769104Y-100668333D02*
X133911961Y-100715952D01*
X133911961Y-100715952D02*
X134007200Y-100811190D01*
X134007200Y-100811190D02*
X134054819Y-100954047D01*
X134054819Y-100954047D02*
X134054819Y-101049285D01*
X134054819Y-99668333D02*
X134054819Y-100239761D01*
X134054819Y-99954047D02*
X133054819Y-99954047D01*
X133054819Y-99954047D02*
X133197676Y-100049285D01*
X133197676Y-100049285D02*
X133292914Y-100144523D01*
X133292914Y-100144523D02*
X133340533Y-100239761D01*
X126504819Y-75296428D02*
X126504819Y-75867856D01*
X126504819Y-75582142D02*
X125504819Y-75582142D01*
X125504819Y-75582142D02*
X125647676Y-75677380D01*
X125647676Y-75677380D02*
X125742914Y-75772618D01*
X125742914Y-75772618D02*
X125790533Y-75867856D01*
X125504819Y-74677380D02*
X125504819Y-74582142D01*
X125504819Y-74582142D02*
X125552438Y-74486904D01*
X125552438Y-74486904D02*
X125600057Y-74439285D01*
X125600057Y-74439285D02*
X125695295Y-74391666D01*
X125695295Y-74391666D02*
X125885771Y-74344047D01*
X125885771Y-74344047D02*
X126123866Y-74344047D01*
X126123866Y-74344047D02*
X126314342Y-74391666D01*
X126314342Y-74391666D02*
X126409580Y-74439285D01*
X126409580Y-74439285D02*
X126457200Y-74486904D01*
X126457200Y-74486904D02*
X126504819Y-74582142D01*
X126504819Y-74582142D02*
X126504819Y-74677380D01*
X126504819Y-74677380D02*
X126457200Y-74772618D01*
X126457200Y-74772618D02*
X126409580Y-74820237D01*
X126409580Y-74820237D02*
X126314342Y-74867856D01*
X126314342Y-74867856D02*
X126123866Y-74915475D01*
X126123866Y-74915475D02*
X125885771Y-74915475D01*
X125885771Y-74915475D02*
X125695295Y-74867856D01*
X125695295Y-74867856D02*
X125600057Y-74820237D01*
X125600057Y-74820237D02*
X125552438Y-74772618D01*
X125552438Y-74772618D02*
X125504819Y-74677380D01*
X125504819Y-73724999D02*
X125504819Y-73629761D01*
X125504819Y-73629761D02*
X125552438Y-73534523D01*
X125552438Y-73534523D02*
X125600057Y-73486904D01*
X125600057Y-73486904D02*
X125695295Y-73439285D01*
X125695295Y-73439285D02*
X125885771Y-73391666D01*
X125885771Y-73391666D02*
X126123866Y-73391666D01*
X126123866Y-73391666D02*
X126314342Y-73439285D01*
X126314342Y-73439285D02*
X126409580Y-73486904D01*
X126409580Y-73486904D02*
X126457200Y-73534523D01*
X126457200Y-73534523D02*
X126504819Y-73629761D01*
X126504819Y-73629761D02*
X126504819Y-73724999D01*
X126504819Y-73724999D02*
X126457200Y-73820237D01*
X126457200Y-73820237D02*
X126409580Y-73867856D01*
X126409580Y-73867856D02*
X126314342Y-73915475D01*
X126314342Y-73915475D02*
X126123866Y-73963094D01*
X126123866Y-73963094D02*
X125885771Y-73963094D01*
X125885771Y-73963094D02*
X125695295Y-73915475D01*
X125695295Y-73915475D02*
X125600057Y-73867856D01*
X125600057Y-73867856D02*
X125552438Y-73820237D01*
X125552438Y-73820237D02*
X125504819Y-73724999D01*
X126504819Y-72963094D02*
X125504819Y-72963094D01*
X126123866Y-72867856D02*
X126504819Y-72582142D01*
X125838152Y-72582142D02*
X126219104Y-72963094D01*
X128058333Y-74579819D02*
X127725000Y-74103628D01*
X127486905Y-74579819D02*
X127486905Y-73579819D01*
X127486905Y-73579819D02*
X127867857Y-73579819D01*
X127867857Y-73579819D02*
X127963095Y-73627438D01*
X127963095Y-73627438D02*
X128010714Y-73675057D01*
X128010714Y-73675057D02*
X128058333Y-73770295D01*
X128058333Y-73770295D02*
X128058333Y-73913152D01*
X128058333Y-73913152D02*
X128010714Y-74008390D01*
X128010714Y-74008390D02*
X127963095Y-74056009D01*
X127963095Y-74056009D02*
X127867857Y-74103628D01*
X127867857Y-74103628D02*
X127486905Y-74103628D01*
X128963095Y-73579819D02*
X128486905Y-73579819D01*
X128486905Y-73579819D02*
X128439286Y-74056009D01*
X128439286Y-74056009D02*
X128486905Y-74008390D01*
X128486905Y-74008390D02*
X128582143Y-73960771D01*
X128582143Y-73960771D02*
X128820238Y-73960771D01*
X128820238Y-73960771D02*
X128915476Y-74008390D01*
X128915476Y-74008390D02*
X128963095Y-74056009D01*
X128963095Y-74056009D02*
X129010714Y-74151247D01*
X129010714Y-74151247D02*
X129010714Y-74389342D01*
X129010714Y-74389342D02*
X128963095Y-74484580D01*
X128963095Y-74484580D02*
X128915476Y-74532200D01*
X128915476Y-74532200D02*
X128820238Y-74579819D01*
X128820238Y-74579819D02*
X128582143Y-74579819D01*
X128582143Y-74579819D02*
X128486905Y-74532200D01*
X128486905Y-74532200D02*
X128439286Y-74484580D01*
X125284285Y-116849819D02*
X124712857Y-116849819D01*
X124998571Y-116849819D02*
X124998571Y-115849819D01*
X124998571Y-115849819D02*
X124903333Y-115992676D01*
X124903333Y-115992676D02*
X124808095Y-116087914D01*
X124808095Y-116087914D02*
X124712857Y-116135533D01*
X125712857Y-116849819D02*
X125712857Y-115849819D01*
X125712857Y-115849819D02*
X126046190Y-116564104D01*
X126046190Y-116564104D02*
X126379523Y-115849819D01*
X126379523Y-115849819D02*
X126379523Y-116849819D01*
X125403333Y-114479819D02*
X125070000Y-114003628D01*
X124831905Y-114479819D02*
X124831905Y-113479819D01*
X124831905Y-113479819D02*
X125212857Y-113479819D01*
X125212857Y-113479819D02*
X125308095Y-113527438D01*
X125308095Y-113527438D02*
X125355714Y-113575057D01*
X125355714Y-113575057D02*
X125403333Y-113670295D01*
X125403333Y-113670295D02*
X125403333Y-113813152D01*
X125403333Y-113813152D02*
X125355714Y-113908390D01*
X125355714Y-113908390D02*
X125308095Y-113956009D01*
X125308095Y-113956009D02*
X125212857Y-114003628D01*
X125212857Y-114003628D02*
X124831905Y-114003628D01*
X126260476Y-113813152D02*
X126260476Y-114479819D01*
X126022381Y-113432200D02*
X125784286Y-114146485D01*
X125784286Y-114146485D02*
X126403333Y-114146485D01*
X125264285Y-101349819D02*
X124692857Y-101349819D01*
X124978571Y-101349819D02*
X124978571Y-100349819D01*
X124978571Y-100349819D02*
X124883333Y-100492676D01*
X124883333Y-100492676D02*
X124788095Y-100587914D01*
X124788095Y-100587914D02*
X124692857Y-100635533D01*
X125692857Y-101349819D02*
X125692857Y-100349819D01*
X125692857Y-100349819D02*
X126026190Y-101064104D01*
X126026190Y-101064104D02*
X126359523Y-100349819D01*
X126359523Y-100349819D02*
X126359523Y-101349819D01*
X125383333Y-98979819D02*
X125050000Y-98503628D01*
X124811905Y-98979819D02*
X124811905Y-97979819D01*
X124811905Y-97979819D02*
X125192857Y-97979819D01*
X125192857Y-97979819D02*
X125288095Y-98027438D01*
X125288095Y-98027438D02*
X125335714Y-98075057D01*
X125335714Y-98075057D02*
X125383333Y-98170295D01*
X125383333Y-98170295D02*
X125383333Y-98313152D01*
X125383333Y-98313152D02*
X125335714Y-98408390D01*
X125335714Y-98408390D02*
X125288095Y-98456009D01*
X125288095Y-98456009D02*
X125192857Y-98503628D01*
X125192857Y-98503628D02*
X124811905Y-98503628D01*
X125716667Y-97979819D02*
X126335714Y-97979819D01*
X126335714Y-97979819D02*
X126002381Y-98360771D01*
X126002381Y-98360771D02*
X126145238Y-98360771D01*
X126145238Y-98360771D02*
X126240476Y-98408390D01*
X126240476Y-98408390D02*
X126288095Y-98456009D01*
X126288095Y-98456009D02*
X126335714Y-98551247D01*
X126335714Y-98551247D02*
X126335714Y-98789342D01*
X126335714Y-98789342D02*
X126288095Y-98884580D01*
X126288095Y-98884580D02*
X126240476Y-98932200D01*
X126240476Y-98932200D02*
X126145238Y-98979819D01*
X126145238Y-98979819D02*
X125859524Y-98979819D01*
X125859524Y-98979819D02*
X125764286Y-98932200D01*
X125764286Y-98932200D02*
X125716667Y-98884580D01*
X118029760Y-85889580D02*
X117982141Y-85937200D01*
X117982141Y-85937200D02*
X117839284Y-85984819D01*
X117839284Y-85984819D02*
X117744046Y-85984819D01*
X117744046Y-85984819D02*
X117601189Y-85937200D01*
X117601189Y-85937200D02*
X117505951Y-85841961D01*
X117505951Y-85841961D02*
X117458332Y-85746723D01*
X117458332Y-85746723D02*
X117410713Y-85556247D01*
X117410713Y-85556247D02*
X117410713Y-85413390D01*
X117410713Y-85413390D02*
X117458332Y-85222914D01*
X117458332Y-85222914D02*
X117505951Y-85127676D01*
X117505951Y-85127676D02*
X117601189Y-85032438D01*
X117601189Y-85032438D02*
X117744046Y-84984819D01*
X117744046Y-84984819D02*
X117839284Y-84984819D01*
X117839284Y-84984819D02*
X117982141Y-85032438D01*
X117982141Y-85032438D02*
X118029760Y-85080057D01*
X118601189Y-85984819D02*
X118505951Y-85937200D01*
X118505951Y-85937200D02*
X118458332Y-85889580D01*
X118458332Y-85889580D02*
X118410713Y-85794342D01*
X118410713Y-85794342D02*
X118410713Y-85508628D01*
X118410713Y-85508628D02*
X118458332Y-85413390D01*
X118458332Y-85413390D02*
X118505951Y-85365771D01*
X118505951Y-85365771D02*
X118601189Y-85318152D01*
X118601189Y-85318152D02*
X118744046Y-85318152D01*
X118744046Y-85318152D02*
X118839284Y-85365771D01*
X118839284Y-85365771D02*
X118886903Y-85413390D01*
X118886903Y-85413390D02*
X118934522Y-85508628D01*
X118934522Y-85508628D02*
X118934522Y-85794342D01*
X118934522Y-85794342D02*
X118886903Y-85889580D01*
X118886903Y-85889580D02*
X118839284Y-85937200D01*
X118839284Y-85937200D02*
X118744046Y-85984819D01*
X118744046Y-85984819D02*
X118601189Y-85984819D01*
X119363094Y-85318152D02*
X119363094Y-85984819D01*
X119363094Y-85413390D02*
X119410713Y-85365771D01*
X119410713Y-85365771D02*
X119505951Y-85318152D01*
X119505951Y-85318152D02*
X119648808Y-85318152D01*
X119648808Y-85318152D02*
X119744046Y-85365771D01*
X119744046Y-85365771D02*
X119791665Y-85461009D01*
X119791665Y-85461009D02*
X119791665Y-85984819D01*
X120267856Y-85318152D02*
X120267856Y-85984819D01*
X120267856Y-85413390D02*
X120315475Y-85365771D01*
X120315475Y-85365771D02*
X120410713Y-85318152D01*
X120410713Y-85318152D02*
X120553570Y-85318152D01*
X120553570Y-85318152D02*
X120648808Y-85365771D01*
X120648808Y-85365771D02*
X120696427Y-85461009D01*
X120696427Y-85461009D02*
X120696427Y-85984819D01*
X120934523Y-86080057D02*
X121696427Y-86080057D01*
X122124999Y-84984819D02*
X122220237Y-84984819D01*
X122220237Y-84984819D02*
X122315475Y-85032438D01*
X122315475Y-85032438D02*
X122363094Y-85080057D01*
X122363094Y-85080057D02*
X122410713Y-85175295D01*
X122410713Y-85175295D02*
X122458332Y-85365771D01*
X122458332Y-85365771D02*
X122458332Y-85603866D01*
X122458332Y-85603866D02*
X122410713Y-85794342D01*
X122410713Y-85794342D02*
X122363094Y-85889580D01*
X122363094Y-85889580D02*
X122315475Y-85937200D01*
X122315475Y-85937200D02*
X122220237Y-85984819D01*
X122220237Y-85984819D02*
X122124999Y-85984819D01*
X122124999Y-85984819D02*
X122029761Y-85937200D01*
X122029761Y-85937200D02*
X121982142Y-85889580D01*
X121982142Y-85889580D02*
X121934523Y-85794342D01*
X121934523Y-85794342D02*
X121886904Y-85603866D01*
X121886904Y-85603866D02*
X121886904Y-85365771D01*
X121886904Y-85365771D02*
X121934523Y-85175295D01*
X121934523Y-85175295D02*
X121982142Y-85080057D01*
X121982142Y-85080057D02*
X122029761Y-85032438D01*
X122029761Y-85032438D02*
X122124999Y-84984819D01*
X123410713Y-85984819D02*
X122839285Y-85984819D01*
X123124999Y-85984819D02*
X123124999Y-84984819D01*
X123124999Y-84984819D02*
X123029761Y-85127676D01*
X123029761Y-85127676D02*
X122934523Y-85222914D01*
X122934523Y-85222914D02*
X122839285Y-85270533D01*
X123744047Y-85984819D02*
X124267856Y-85318152D01*
X123744047Y-85318152D02*
X124267856Y-85984819D01*
X124839285Y-84984819D02*
X124934523Y-84984819D01*
X124934523Y-84984819D02*
X125029761Y-85032438D01*
X125029761Y-85032438D02*
X125077380Y-85080057D01*
X125077380Y-85080057D02*
X125124999Y-85175295D01*
X125124999Y-85175295D02*
X125172618Y-85365771D01*
X125172618Y-85365771D02*
X125172618Y-85603866D01*
X125172618Y-85603866D02*
X125124999Y-85794342D01*
X125124999Y-85794342D02*
X125077380Y-85889580D01*
X125077380Y-85889580D02*
X125029761Y-85937200D01*
X125029761Y-85937200D02*
X124934523Y-85984819D01*
X124934523Y-85984819D02*
X124839285Y-85984819D01*
X124839285Y-85984819D02*
X124744047Y-85937200D01*
X124744047Y-85937200D02*
X124696428Y-85889580D01*
X124696428Y-85889580D02*
X124648809Y-85794342D01*
X124648809Y-85794342D02*
X124601190Y-85603866D01*
X124601190Y-85603866D02*
X124601190Y-85365771D01*
X124601190Y-85365771D02*
X124648809Y-85175295D01*
X124648809Y-85175295D02*
X124696428Y-85080057D01*
X124696428Y-85080057D02*
X124744047Y-85032438D01*
X124744047Y-85032438D02*
X124839285Y-84984819D01*
X125553571Y-85080057D02*
X125601190Y-85032438D01*
X125601190Y-85032438D02*
X125696428Y-84984819D01*
X125696428Y-84984819D02*
X125934523Y-84984819D01*
X125934523Y-84984819D02*
X126029761Y-85032438D01*
X126029761Y-85032438D02*
X126077380Y-85080057D01*
X126077380Y-85080057D02*
X126124999Y-85175295D01*
X126124999Y-85175295D02*
X126124999Y-85270533D01*
X126124999Y-85270533D02*
X126077380Y-85413390D01*
X126077380Y-85413390D02*
X125505952Y-85984819D01*
X125505952Y-85984819D02*
X126124999Y-85984819D01*
X126315476Y-86080057D02*
X127077380Y-86080057D01*
X127267857Y-85937200D02*
X127410714Y-85984819D01*
X127410714Y-85984819D02*
X127648809Y-85984819D01*
X127648809Y-85984819D02*
X127744047Y-85937200D01*
X127744047Y-85937200D02*
X127791666Y-85889580D01*
X127791666Y-85889580D02*
X127839285Y-85794342D01*
X127839285Y-85794342D02*
X127839285Y-85699104D01*
X127839285Y-85699104D02*
X127791666Y-85603866D01*
X127791666Y-85603866D02*
X127744047Y-85556247D01*
X127744047Y-85556247D02*
X127648809Y-85508628D01*
X127648809Y-85508628D02*
X127458333Y-85461009D01*
X127458333Y-85461009D02*
X127363095Y-85413390D01*
X127363095Y-85413390D02*
X127315476Y-85365771D01*
X127315476Y-85365771D02*
X127267857Y-85270533D01*
X127267857Y-85270533D02*
X127267857Y-85175295D01*
X127267857Y-85175295D02*
X127315476Y-85080057D01*
X127315476Y-85080057D02*
X127363095Y-85032438D01*
X127363095Y-85032438D02*
X127458333Y-84984819D01*
X127458333Y-84984819D02*
X127696428Y-84984819D01*
X127696428Y-84984819D02*
X127839285Y-85032438D01*
X128410714Y-85984819D02*
X128315476Y-85937200D01*
X128315476Y-85937200D02*
X128267857Y-85889580D01*
X128267857Y-85889580D02*
X128220238Y-85794342D01*
X128220238Y-85794342D02*
X128220238Y-85508628D01*
X128220238Y-85508628D02*
X128267857Y-85413390D01*
X128267857Y-85413390D02*
X128315476Y-85365771D01*
X128315476Y-85365771D02*
X128410714Y-85318152D01*
X128410714Y-85318152D02*
X128553571Y-85318152D01*
X128553571Y-85318152D02*
X128648809Y-85365771D01*
X128648809Y-85365771D02*
X128696428Y-85413390D01*
X128696428Y-85413390D02*
X128744047Y-85508628D01*
X128744047Y-85508628D02*
X128744047Y-85794342D01*
X128744047Y-85794342D02*
X128696428Y-85889580D01*
X128696428Y-85889580D02*
X128648809Y-85937200D01*
X128648809Y-85937200D02*
X128553571Y-85984819D01*
X128553571Y-85984819D02*
X128410714Y-85984819D01*
X129601190Y-85937200D02*
X129505952Y-85984819D01*
X129505952Y-85984819D02*
X129315476Y-85984819D01*
X129315476Y-85984819D02*
X129220238Y-85937200D01*
X129220238Y-85937200D02*
X129172619Y-85889580D01*
X129172619Y-85889580D02*
X129125000Y-85794342D01*
X129125000Y-85794342D02*
X129125000Y-85508628D01*
X129125000Y-85508628D02*
X129172619Y-85413390D01*
X129172619Y-85413390D02*
X129220238Y-85365771D01*
X129220238Y-85365771D02*
X129315476Y-85318152D01*
X129315476Y-85318152D02*
X129505952Y-85318152D01*
X129505952Y-85318152D02*
X129601190Y-85365771D01*
X130029762Y-85984819D02*
X130029762Y-84984819D01*
X130125000Y-85603866D02*
X130410714Y-85984819D01*
X130410714Y-85318152D02*
X130029762Y-85699104D01*
X131220238Y-85937200D02*
X131125000Y-85984819D01*
X131125000Y-85984819D02*
X130934524Y-85984819D01*
X130934524Y-85984819D02*
X130839286Y-85937200D01*
X130839286Y-85937200D02*
X130791667Y-85841961D01*
X130791667Y-85841961D02*
X130791667Y-85461009D01*
X130791667Y-85461009D02*
X130839286Y-85365771D01*
X130839286Y-85365771D02*
X130934524Y-85318152D01*
X130934524Y-85318152D02*
X131125000Y-85318152D01*
X131125000Y-85318152D02*
X131220238Y-85365771D01*
X131220238Y-85365771D02*
X131267857Y-85461009D01*
X131267857Y-85461009D02*
X131267857Y-85556247D01*
X131267857Y-85556247D02*
X130791667Y-85651485D01*
X131553572Y-85318152D02*
X131934524Y-85318152D01*
X131696429Y-84984819D02*
X131696429Y-85841961D01*
X131696429Y-85841961D02*
X131744048Y-85937200D01*
X131744048Y-85937200D02*
X131839286Y-85984819D01*
X131839286Y-85984819D02*
X131934524Y-85984819D01*
X124079819Y-89463333D02*
X124794104Y-89463333D01*
X124794104Y-89463333D02*
X124936961Y-89510952D01*
X124936961Y-89510952D02*
X125032200Y-89606190D01*
X125032200Y-89606190D02*
X125079819Y-89749047D01*
X125079819Y-89749047D02*
X125079819Y-89844285D01*
X124079819Y-89082380D02*
X124079819Y-88463333D01*
X124079819Y-88463333D02*
X124460771Y-88796666D01*
X124460771Y-88796666D02*
X124460771Y-88653809D01*
X124460771Y-88653809D02*
X124508390Y-88558571D01*
X124508390Y-88558571D02*
X124556009Y-88510952D01*
X124556009Y-88510952D02*
X124651247Y-88463333D01*
X124651247Y-88463333D02*
X124889342Y-88463333D01*
X124889342Y-88463333D02*
X124984580Y-88510952D01*
X124984580Y-88510952D02*
X125032200Y-88558571D01*
X125032200Y-88558571D02*
X125079819Y-88653809D01*
X125079819Y-88653809D02*
X125079819Y-88939523D01*
X125079819Y-88939523D02*
X125032200Y-89034761D01*
X125032200Y-89034761D02*
X124984580Y-89082380D01*
X127507142Y-109479819D02*
X126935714Y-109479819D01*
X127221428Y-109479819D02*
X127221428Y-108479819D01*
X127221428Y-108479819D02*
X127126190Y-108622676D01*
X127126190Y-108622676D02*
X127030952Y-108717914D01*
X127030952Y-108717914D02*
X126935714Y-108765533D01*
X128126190Y-108479819D02*
X128221428Y-108479819D01*
X128221428Y-108479819D02*
X128316666Y-108527438D01*
X128316666Y-108527438D02*
X128364285Y-108575057D01*
X128364285Y-108575057D02*
X128411904Y-108670295D01*
X128411904Y-108670295D02*
X128459523Y-108860771D01*
X128459523Y-108860771D02*
X128459523Y-109098866D01*
X128459523Y-109098866D02*
X128411904Y-109289342D01*
X128411904Y-109289342D02*
X128364285Y-109384580D01*
X128364285Y-109384580D02*
X128316666Y-109432200D01*
X128316666Y-109432200D02*
X128221428Y-109479819D01*
X128221428Y-109479819D02*
X128126190Y-109479819D01*
X128126190Y-109479819D02*
X128030952Y-109432200D01*
X128030952Y-109432200D02*
X127983333Y-109384580D01*
X127983333Y-109384580D02*
X127935714Y-109289342D01*
X127935714Y-109289342D02*
X127888095Y-109098866D01*
X127888095Y-109098866D02*
X127888095Y-108860771D01*
X127888095Y-108860771D02*
X127935714Y-108670295D01*
X127935714Y-108670295D02*
X127983333Y-108575057D01*
X127983333Y-108575057D02*
X128030952Y-108527438D01*
X128030952Y-108527438D02*
X128126190Y-108479819D01*
X128888095Y-108813152D02*
X128888095Y-109479819D01*
X128888095Y-108908390D02*
X128935714Y-108860771D01*
X128935714Y-108860771D02*
X129030952Y-108813152D01*
X129030952Y-108813152D02*
X129173809Y-108813152D01*
X129173809Y-108813152D02*
X129269047Y-108860771D01*
X129269047Y-108860771D02*
X129316666Y-108956009D01*
X129316666Y-108956009D02*
X129316666Y-109479819D01*
D11*
X128006666Y-111534240D02*
X127965714Y-111575193D01*
X127965714Y-111575193D02*
X127842856Y-111616145D01*
X127842856Y-111616145D02*
X127760952Y-111616145D01*
X127760952Y-111616145D02*
X127638095Y-111575193D01*
X127638095Y-111575193D02*
X127556190Y-111493288D01*
X127556190Y-111493288D02*
X127515237Y-111411383D01*
X127515237Y-111411383D02*
X127474285Y-111247573D01*
X127474285Y-111247573D02*
X127474285Y-111124716D01*
X127474285Y-111124716D02*
X127515237Y-110960907D01*
X127515237Y-110960907D02*
X127556190Y-110879002D01*
X127556190Y-110879002D02*
X127638095Y-110797097D01*
X127638095Y-110797097D02*
X127760952Y-110756145D01*
X127760952Y-110756145D02*
X127842856Y-110756145D01*
X127842856Y-110756145D02*
X127965714Y-110797097D01*
X127965714Y-110797097D02*
X128006666Y-110838050D01*
X128825714Y-111616145D02*
X128334285Y-111616145D01*
X128579999Y-111616145D02*
X128579999Y-110756145D01*
X128579999Y-110756145D02*
X128498095Y-110879002D01*
X128498095Y-110879002D02*
X128416190Y-110960907D01*
X128416190Y-110960907D02*
X128334285Y-111001859D01*
D10*
X151090475Y-124614580D02*
X151042856Y-124662200D01*
X151042856Y-124662200D02*
X150899999Y-124709819D01*
X150899999Y-124709819D02*
X150804761Y-124709819D01*
X150804761Y-124709819D02*
X150661904Y-124662200D01*
X150661904Y-124662200D02*
X150566666Y-124566961D01*
X150566666Y-124566961D02*
X150519047Y-124471723D01*
X150519047Y-124471723D02*
X150471428Y-124281247D01*
X150471428Y-124281247D02*
X150471428Y-124138390D01*
X150471428Y-124138390D02*
X150519047Y-123947914D01*
X150519047Y-123947914D02*
X150566666Y-123852676D01*
X150566666Y-123852676D02*
X150661904Y-123757438D01*
X150661904Y-123757438D02*
X150804761Y-123709819D01*
X150804761Y-123709819D02*
X150899999Y-123709819D01*
X150899999Y-123709819D02*
X151042856Y-123757438D01*
X151042856Y-123757438D02*
X151090475Y-123805057D01*
X151661904Y-124709819D02*
X151566666Y-124662200D01*
X151566666Y-124662200D02*
X151519047Y-124614580D01*
X151519047Y-124614580D02*
X151471428Y-124519342D01*
X151471428Y-124519342D02*
X151471428Y-124233628D01*
X151471428Y-124233628D02*
X151519047Y-124138390D01*
X151519047Y-124138390D02*
X151566666Y-124090771D01*
X151566666Y-124090771D02*
X151661904Y-124043152D01*
X151661904Y-124043152D02*
X151804761Y-124043152D01*
X151804761Y-124043152D02*
X151899999Y-124090771D01*
X151899999Y-124090771D02*
X151947618Y-124138390D01*
X151947618Y-124138390D02*
X151995237Y-124233628D01*
X151995237Y-124233628D02*
X151995237Y-124519342D01*
X151995237Y-124519342D02*
X151947618Y-124614580D01*
X151947618Y-124614580D02*
X151899999Y-124662200D01*
X151899999Y-124662200D02*
X151804761Y-124709819D01*
X151804761Y-124709819D02*
X151661904Y-124709819D01*
X152423809Y-124043152D02*
X152423809Y-124709819D01*
X152423809Y-124138390D02*
X152471428Y-124090771D01*
X152471428Y-124090771D02*
X152566666Y-124043152D01*
X152566666Y-124043152D02*
X152709523Y-124043152D01*
X152709523Y-124043152D02*
X152804761Y-124090771D01*
X152804761Y-124090771D02*
X152852380Y-124186009D01*
X152852380Y-124186009D02*
X152852380Y-124709819D01*
X153328571Y-124043152D02*
X153328571Y-124709819D01*
X153328571Y-124138390D02*
X153376190Y-124090771D01*
X153376190Y-124090771D02*
X153471428Y-124043152D01*
X153471428Y-124043152D02*
X153614285Y-124043152D01*
X153614285Y-124043152D02*
X153709523Y-124090771D01*
X153709523Y-124090771D02*
X153757142Y-124186009D01*
X153757142Y-124186009D02*
X153757142Y-124709819D01*
X153995238Y-124805057D02*
X154757142Y-124805057D01*
X155185714Y-123709819D02*
X155280952Y-123709819D01*
X155280952Y-123709819D02*
X155376190Y-123757438D01*
X155376190Y-123757438D02*
X155423809Y-123805057D01*
X155423809Y-123805057D02*
X155471428Y-123900295D01*
X155471428Y-123900295D02*
X155519047Y-124090771D01*
X155519047Y-124090771D02*
X155519047Y-124328866D01*
X155519047Y-124328866D02*
X155471428Y-124519342D01*
X155471428Y-124519342D02*
X155423809Y-124614580D01*
X155423809Y-124614580D02*
X155376190Y-124662200D01*
X155376190Y-124662200D02*
X155280952Y-124709819D01*
X155280952Y-124709819D02*
X155185714Y-124709819D01*
X155185714Y-124709819D02*
X155090476Y-124662200D01*
X155090476Y-124662200D02*
X155042857Y-124614580D01*
X155042857Y-124614580D02*
X154995238Y-124519342D01*
X154995238Y-124519342D02*
X154947619Y-124328866D01*
X154947619Y-124328866D02*
X154947619Y-124090771D01*
X154947619Y-124090771D02*
X154995238Y-123900295D01*
X154995238Y-123900295D02*
X155042857Y-123805057D01*
X155042857Y-123805057D02*
X155090476Y-123757438D01*
X155090476Y-123757438D02*
X155185714Y-123709819D01*
X156471428Y-124709819D02*
X155900000Y-124709819D01*
X156185714Y-124709819D02*
X156185714Y-123709819D01*
X156185714Y-123709819D02*
X156090476Y-123852676D01*
X156090476Y-123852676D02*
X155995238Y-123947914D01*
X155995238Y-123947914D02*
X155900000Y-123995533D01*
X156804762Y-124709819D02*
X157328571Y-124043152D01*
X156804762Y-124043152D02*
X157328571Y-124709819D01*
X158233333Y-124709819D02*
X157661905Y-124709819D01*
X157947619Y-124709819D02*
X157947619Y-123709819D01*
X157947619Y-123709819D02*
X157852381Y-123852676D01*
X157852381Y-123852676D02*
X157757143Y-123947914D01*
X157757143Y-123947914D02*
X157661905Y-123995533D01*
X158804762Y-124138390D02*
X158709524Y-124090771D01*
X158709524Y-124090771D02*
X158661905Y-124043152D01*
X158661905Y-124043152D02*
X158614286Y-123947914D01*
X158614286Y-123947914D02*
X158614286Y-123900295D01*
X158614286Y-123900295D02*
X158661905Y-123805057D01*
X158661905Y-123805057D02*
X158709524Y-123757438D01*
X158709524Y-123757438D02*
X158804762Y-123709819D01*
X158804762Y-123709819D02*
X158995238Y-123709819D01*
X158995238Y-123709819D02*
X159090476Y-123757438D01*
X159090476Y-123757438D02*
X159138095Y-123805057D01*
X159138095Y-123805057D02*
X159185714Y-123900295D01*
X159185714Y-123900295D02*
X159185714Y-123947914D01*
X159185714Y-123947914D02*
X159138095Y-124043152D01*
X159138095Y-124043152D02*
X159090476Y-124090771D01*
X159090476Y-124090771D02*
X158995238Y-124138390D01*
X158995238Y-124138390D02*
X158804762Y-124138390D01*
X158804762Y-124138390D02*
X158709524Y-124186009D01*
X158709524Y-124186009D02*
X158661905Y-124233628D01*
X158661905Y-124233628D02*
X158614286Y-124328866D01*
X158614286Y-124328866D02*
X158614286Y-124519342D01*
X158614286Y-124519342D02*
X158661905Y-124614580D01*
X158661905Y-124614580D02*
X158709524Y-124662200D01*
X158709524Y-124662200D02*
X158804762Y-124709819D01*
X158804762Y-124709819D02*
X158995238Y-124709819D01*
X158995238Y-124709819D02*
X159090476Y-124662200D01*
X159090476Y-124662200D02*
X159138095Y-124614580D01*
X159138095Y-124614580D02*
X159185714Y-124519342D01*
X159185714Y-124519342D02*
X159185714Y-124328866D01*
X159185714Y-124328866D02*
X159138095Y-124233628D01*
X159138095Y-124233628D02*
X159090476Y-124186009D01*
X159090476Y-124186009D02*
X158995238Y-124138390D01*
X159376191Y-124805057D02*
X160138095Y-124805057D01*
X160376191Y-124709819D02*
X160376191Y-123709819D01*
X160376191Y-123709819D02*
X160757143Y-123709819D01*
X160757143Y-123709819D02*
X160852381Y-123757438D01*
X160852381Y-123757438D02*
X160900000Y-123805057D01*
X160900000Y-123805057D02*
X160947619Y-123900295D01*
X160947619Y-123900295D02*
X160947619Y-124043152D01*
X160947619Y-124043152D02*
X160900000Y-124138390D01*
X160900000Y-124138390D02*
X160852381Y-124186009D01*
X160852381Y-124186009D02*
X160757143Y-124233628D01*
X160757143Y-124233628D02*
X160376191Y-124233628D01*
X161376191Y-124709819D02*
X161376191Y-124043152D01*
X161376191Y-123709819D02*
X161328572Y-123757438D01*
X161328572Y-123757438D02*
X161376191Y-123805057D01*
X161376191Y-123805057D02*
X161423810Y-123757438D01*
X161423810Y-123757438D02*
X161376191Y-123709819D01*
X161376191Y-123709819D02*
X161376191Y-123805057D01*
X161852381Y-124043152D02*
X161852381Y-124709819D01*
X161852381Y-124138390D02*
X161900000Y-124090771D01*
X161900000Y-124090771D02*
X161995238Y-124043152D01*
X161995238Y-124043152D02*
X162138095Y-124043152D01*
X162138095Y-124043152D02*
X162233333Y-124090771D01*
X162233333Y-124090771D02*
X162280952Y-124186009D01*
X162280952Y-124186009D02*
X162280952Y-124709819D01*
X155854819Y-100668333D02*
X156569104Y-100668333D01*
X156569104Y-100668333D02*
X156711961Y-100715952D01*
X156711961Y-100715952D02*
X156807200Y-100811190D01*
X156807200Y-100811190D02*
X156854819Y-100954047D01*
X156854819Y-100954047D02*
X156854819Y-101049285D01*
X155950057Y-100239761D02*
X155902438Y-100192142D01*
X155902438Y-100192142D02*
X155854819Y-100096904D01*
X155854819Y-100096904D02*
X155854819Y-99858809D01*
X155854819Y-99858809D02*
X155902438Y-99763571D01*
X155902438Y-99763571D02*
X155950057Y-99715952D01*
X155950057Y-99715952D02*
X156045295Y-99668333D01*
X156045295Y-99668333D02*
X156140533Y-99668333D01*
X156140533Y-99668333D02*
X156283390Y-99715952D01*
X156283390Y-99715952D02*
X156854819Y-100287380D01*
X156854819Y-100287380D02*
X156854819Y-99668333D01*
X127030952Y-115079819D02*
X126459524Y-115079819D01*
X126745238Y-115079819D02*
X126745238Y-114079819D01*
X126745238Y-114079819D02*
X126650000Y-114222676D01*
X126650000Y-114222676D02*
X126554762Y-114317914D01*
X126554762Y-114317914D02*
X126459524Y-114365533D01*
X127650000Y-114079819D02*
X127745238Y-114079819D01*
X127745238Y-114079819D02*
X127840476Y-114127438D01*
X127840476Y-114127438D02*
X127888095Y-114175057D01*
X127888095Y-114175057D02*
X127935714Y-114270295D01*
X127935714Y-114270295D02*
X127983333Y-114460771D01*
X127983333Y-114460771D02*
X127983333Y-114698866D01*
X127983333Y-114698866D02*
X127935714Y-114889342D01*
X127935714Y-114889342D02*
X127888095Y-114984580D01*
X127888095Y-114984580D02*
X127840476Y-115032200D01*
X127840476Y-115032200D02*
X127745238Y-115079819D01*
X127745238Y-115079819D02*
X127650000Y-115079819D01*
X127650000Y-115079819D02*
X127554762Y-115032200D01*
X127554762Y-115032200D02*
X127507143Y-114984580D01*
X127507143Y-114984580D02*
X127459524Y-114889342D01*
X127459524Y-114889342D02*
X127411905Y-114698866D01*
X127411905Y-114698866D02*
X127411905Y-114460771D01*
X127411905Y-114460771D02*
X127459524Y-114270295D01*
X127459524Y-114270295D02*
X127507143Y-114175057D01*
X127507143Y-114175057D02*
X127554762Y-114127438D01*
X127554762Y-114127438D02*
X127650000Y-114079819D01*
X128602381Y-114079819D02*
X128697619Y-114079819D01*
X128697619Y-114079819D02*
X128792857Y-114127438D01*
X128792857Y-114127438D02*
X128840476Y-114175057D01*
X128840476Y-114175057D02*
X128888095Y-114270295D01*
X128888095Y-114270295D02*
X128935714Y-114460771D01*
X128935714Y-114460771D02*
X128935714Y-114698866D01*
X128935714Y-114698866D02*
X128888095Y-114889342D01*
X128888095Y-114889342D02*
X128840476Y-114984580D01*
X128840476Y-114984580D02*
X128792857Y-115032200D01*
X128792857Y-115032200D02*
X128697619Y-115079819D01*
X128697619Y-115079819D02*
X128602381Y-115079819D01*
X128602381Y-115079819D02*
X128507143Y-115032200D01*
X128507143Y-115032200D02*
X128459524Y-114984580D01*
X128459524Y-114984580D02*
X128411905Y-114889342D01*
X128411905Y-114889342D02*
X128364286Y-114698866D01*
X128364286Y-114698866D02*
X128364286Y-114460771D01*
X128364286Y-114460771D02*
X128411905Y-114270295D01*
X128411905Y-114270295D02*
X128459524Y-114175057D01*
X128459524Y-114175057D02*
X128507143Y-114127438D01*
X128507143Y-114127438D02*
X128602381Y-114079819D01*
X129364286Y-114413152D02*
X129364286Y-115079819D01*
X129364286Y-114508390D02*
X129411905Y-114460771D01*
X129411905Y-114460771D02*
X129507143Y-114413152D01*
X129507143Y-114413152D02*
X129650000Y-114413152D01*
X129650000Y-114413152D02*
X129745238Y-114460771D01*
X129745238Y-114460771D02*
X129792857Y-114556009D01*
X129792857Y-114556009D02*
X129792857Y-115079819D01*
D11*
X128006666Y-117134240D02*
X127965714Y-117175193D01*
X127965714Y-117175193D02*
X127842856Y-117216145D01*
X127842856Y-117216145D02*
X127760952Y-117216145D01*
X127760952Y-117216145D02*
X127638095Y-117175193D01*
X127638095Y-117175193D02*
X127556190Y-117093288D01*
X127556190Y-117093288D02*
X127515237Y-117011383D01*
X127515237Y-117011383D02*
X127474285Y-116847573D01*
X127474285Y-116847573D02*
X127474285Y-116724716D01*
X127474285Y-116724716D02*
X127515237Y-116560907D01*
X127515237Y-116560907D02*
X127556190Y-116479002D01*
X127556190Y-116479002D02*
X127638095Y-116397097D01*
X127638095Y-116397097D02*
X127760952Y-116356145D01*
X127760952Y-116356145D02*
X127842856Y-116356145D01*
X127842856Y-116356145D02*
X127965714Y-116397097D01*
X127965714Y-116397097D02*
X128006666Y-116438050D01*
X128784761Y-116356145D02*
X128375237Y-116356145D01*
X128375237Y-116356145D02*
X128334285Y-116765669D01*
X128334285Y-116765669D02*
X128375237Y-116724716D01*
X128375237Y-116724716D02*
X128457142Y-116683764D01*
X128457142Y-116683764D02*
X128661904Y-116683764D01*
X128661904Y-116683764D02*
X128743809Y-116724716D01*
X128743809Y-116724716D02*
X128784761Y-116765669D01*
X128784761Y-116765669D02*
X128825714Y-116847573D01*
X128825714Y-116847573D02*
X128825714Y-117052335D01*
X128825714Y-117052335D02*
X128784761Y-117134240D01*
X128784761Y-117134240D02*
X128743809Y-117175193D01*
X128743809Y-117175193D02*
X128661904Y-117216145D01*
X128661904Y-117216145D02*
X128457142Y-117216145D01*
X128457142Y-117216145D02*
X128375237Y-117175193D01*
X128375237Y-117175193D02*
X128334285Y-117134240D01*
D12*
%TO.C,C3*%
X126000000Y-100375000D02*
X126000000Y-102275000D01*
X126000000Y-102275000D02*
X130300000Y-102275000D01*
X130300000Y-100375000D02*
X126000000Y-100375000D01*
X130300000Y-102275000D02*
X130300000Y-100375000D01*
%TO.C,R1*%
X120470000Y-107225000D02*
X122400000Y-107225000D01*
X122400000Y-105975000D02*
X122400000Y-108475000D01*
X122400000Y-108475000D02*
X128700000Y-108475000D01*
X128700000Y-105975000D02*
X122400000Y-105975000D01*
X128700000Y-108475000D02*
X128700000Y-105975000D01*
X130630000Y-107225000D02*
X128700000Y-107225000D01*
%TO.C,C4*%
X126000000Y-118375000D02*
X126000000Y-120275000D01*
X126000000Y-120275000D02*
X130300000Y-120275000D01*
X130300000Y-118375000D02*
X126000000Y-118375000D01*
X130300000Y-120275000D02*
X130300000Y-118375000D01*
%TO.C,R2*%
X120490000Y-104125000D02*
X122420000Y-104125000D01*
X122420000Y-102875000D02*
X122420000Y-105375000D01*
X122420000Y-105375000D02*
X128720000Y-105375000D01*
X128720000Y-102875000D02*
X122420000Y-102875000D01*
X128720000Y-105375000D02*
X128720000Y-102875000D01*
X130650000Y-104125000D02*
X128720000Y-104125000D01*
%TO.C,SW1*%
X117575000Y-77575000D02*
X123575000Y-77575000D01*
X117575000Y-80575000D02*
X117575000Y-77575000D01*
X117575000Y-83575000D02*
X117575000Y-80575000D01*
X123575000Y-77575000D02*
X123575000Y-83575000D01*
X123575000Y-83575000D02*
X117575000Y-83575000D01*
X122590564Y-80575000D02*
G75*
G02*
X118559436Y-80575000I-2015564J0D01*
G01*
X118559436Y-80575000D02*
G75*
G02*
X122590564Y-80575000I2015564J0D01*
G01*
%TO.C,J4*%
X127880000Y-79035000D02*
X129785000Y-79035000D01*
X127880000Y-91735000D02*
X127880000Y-79035000D01*
X129785000Y-79035000D02*
X130420000Y-79670000D01*
X130420000Y-79670000D02*
X130420000Y-91735000D01*
X130420000Y-91735000D02*
X127880000Y-91735000D01*
%TO.C,C2*%
X126000000Y-94775000D02*
X126000000Y-96675000D01*
X126000000Y-96675000D02*
X130300000Y-96675000D01*
X130300000Y-94775000D02*
X126000000Y-94775000D01*
X130300000Y-96675000D02*
X130300000Y-94775000D01*
%TO.C,J1*%
X132330000Y-78110000D02*
X132965000Y-77475000D01*
X132330000Y-123195000D02*
X132330000Y-78110000D01*
X132965000Y-77475000D02*
X134870000Y-77475000D01*
X134870000Y-77475000D02*
X134870000Y-123195000D01*
X134870000Y-123195000D02*
X132330000Y-123195000D01*
%TO.C,R5*%
X123145000Y-74125000D02*
X125075000Y-74125000D01*
X125075000Y-72875000D02*
X125075000Y-75375000D01*
X125075000Y-75375000D02*
X131375000Y-75375000D01*
X131375000Y-72875000D02*
X125075000Y-72875000D01*
X131375000Y-75375000D02*
X131375000Y-72875000D01*
X133305000Y-74125000D02*
X131375000Y-74125000D01*
%TO.C,R4*%
X120490000Y-114025000D02*
X122420000Y-114025000D01*
X122420000Y-112775000D02*
X122420000Y-115275000D01*
X122420000Y-115275000D02*
X128720000Y-115275000D01*
X128720000Y-112775000D02*
X122420000Y-112775000D01*
X128720000Y-115275000D02*
X128720000Y-112775000D01*
X130650000Y-114025000D02*
X128720000Y-114025000D01*
%TO.C,R3*%
X120470000Y-98525000D02*
X122400000Y-98525000D01*
X122400000Y-97275000D02*
X122400000Y-99775000D01*
X122400000Y-99775000D02*
X128700000Y-99775000D01*
X128700000Y-97275000D02*
X122400000Y-97275000D01*
X128700000Y-99775000D02*
X128700000Y-97275000D01*
X130630000Y-98525000D02*
X128700000Y-98525000D01*
%TO.C,J3*%
X123355000Y-86590000D02*
X125895000Y-86590000D01*
X123355000Y-91670000D02*
X123355000Y-86590000D01*
X125260000Y-91670000D02*
X123355000Y-91670000D01*
X125895000Y-86590000D02*
X125895000Y-91035000D01*
X125895000Y-91035000D02*
X125260000Y-91670000D01*
%TO.C,C1*%
X126000000Y-110275000D02*
X126000000Y-112175000D01*
X126000000Y-112175000D02*
X130300000Y-112175000D01*
X130300000Y-110275000D02*
X126000000Y-110275000D01*
X130300000Y-112175000D02*
X130300000Y-110275000D01*
%TO.C,J2*%
X155130000Y-78110000D02*
X155765000Y-77475000D01*
X155130000Y-123195000D02*
X155130000Y-78110000D01*
X155765000Y-77475000D02*
X157670000Y-77475000D01*
X157670000Y-77475000D02*
X157670000Y-123195000D01*
X157670000Y-123195000D02*
X155130000Y-123195000D01*
%TO.C,C5*%
X126000000Y-115875000D02*
X126000000Y-117775000D01*
X126000000Y-117775000D02*
X130300000Y-117775000D01*
X130300000Y-115875000D02*
X126000000Y-115875000D01*
X130300000Y-117775000D02*
X130300000Y-115875000D01*
%TD*%
M02*
