%TF.GenerationSoftware,KiCad,Pcbnew,8.0.2*%
%TF.CreationDate,2025-02-13T09:09:47+01:00*%
%TF.ProjectId,Carte_main,43617274-655f-46d6-9169-6e2e6b696361,rev?*%
%TF.SameCoordinates,Original*%
%TF.FileFunction,Copper,L1,Top*%
%TF.FilePolarity,Positive*%
%FSLAX46Y46*%
G04 Gerber Fmt 4.6, Leading zero omitted, Abs format (unit mm)*
G04 Created by KiCad (PCBNEW 8.0.2) date 2025-02-13 09:09:47*
%MOMM*%
%LPD*%
G01*
G04 APERTURE LIST*
%TA.AperFunction,ComponentPad*%
%ADD10C,1.600000*%
%TD*%
%TA.AperFunction,ComponentPad*%
%ADD11O,1.600000X1.600000*%
%TD*%
%TA.AperFunction,ComponentPad*%
%ADD12C,2.000000*%
%TD*%
%TA.AperFunction,ComponentPad*%
%ADD13R,1.700000X1.700000*%
%TD*%
%TA.AperFunction,ComponentPad*%
%ADD14O,1.700000X1.700000*%
%TD*%
%TA.AperFunction,Conductor*%
%ADD15C,0.300000*%
%TD*%
G04 APERTURE END LIST*
D10*
%TO.P,C3,1*%
%TO.N,/34*%
X130650000Y-101325000D03*
%TO.P,C3,2*%
%TO.N,Net-(J4-Pin_1)*%
X125650000Y-101325000D03*
%TD*%
%TO.P,R1,1*%
%TO.N,/39*%
X130630000Y-107225000D03*
D11*
%TO.P,R1,2*%
%TO.N,GND*%
X120470000Y-107225000D03*
%TD*%
D10*
%TO.P,C4,1*%
%TO.N,/+5V*%
X130650000Y-119325000D03*
%TO.P,C4,2*%
%TO.N,GND*%
X125650000Y-119325000D03*
%TD*%
%TO.P,R2,1*%
%TO.N,Net-(J4-Pin_4)*%
X120490000Y-104125000D03*
D11*
%TO.P,R2,2*%
%TO.N,/34*%
X130650000Y-104125000D03*
%TD*%
D12*
%TO.P,SW1,1,1*%
%TO.N,/+3.3V*%
X118325000Y-83825000D03*
X118325000Y-77325000D03*
%TO.P,SW1,2,2*%
%TO.N,Net-(J2-Pin_12)*%
X122825000Y-83825000D03*
X122825000Y-77325000D03*
%TD*%
D13*
%TO.P,J4,1,Pin_1*%
%TO.N,Net-(J4-Pin_1)*%
X129150000Y-80305000D03*
D14*
%TO.P,J4,2,Pin_2*%
%TO.N,Net-(J4-Pin_2)*%
X129150000Y-82845000D03*
%TO.P,J4,3,Pin_3*%
%TO.N,Net-(J4-Pin_3)*%
X129150000Y-85385000D03*
%TO.P,J4,4,Pin_4*%
%TO.N,Net-(J4-Pin_4)*%
X129150000Y-87925000D03*
%TO.P,J4,5,Pin_5*%
%TO.N,/+3.3V*%
X129150000Y-90465000D03*
%TD*%
D10*
%TO.P,C2,1*%
%TO.N,/35*%
X130650000Y-95725000D03*
%TO.P,C2,2*%
%TO.N,Net-(J4-Pin_1)*%
X125650000Y-95725000D03*
%TD*%
D13*
%TO.P,J1,1,Pin_1*%
%TO.N,unconnected-(J1-Pin_1-Pad1)*%
X133600000Y-78745000D03*
D14*
%TO.P,J1,2,Pin_2*%
%TO.N,/13_S2*%
X133600000Y-81285000D03*
%TO.P,J1,3,Pin_3*%
%TO.N,unconnected-(J1-Pin_3-Pad3)*%
X133600000Y-83825000D03*
%TO.P,J1,4,Pin_4*%
%TO.N,/14_S3*%
X133600000Y-86365000D03*
%TO.P,J1,5,Pin_5*%
%TO.N,unconnected-(J1-Pin_5-Pad5)*%
X133600000Y-88905000D03*
%TO.P,J1,6,Pin_6*%
%TO.N,unconnected-(J1-Pin_6-Pad6)*%
X133600000Y-91445000D03*
%TO.P,J1,7,Pin_7*%
%TO.N,unconnected-(J1-Pin_7-Pad7)*%
X133600000Y-93985000D03*
%TO.P,J1,8,Pin_8*%
%TO.N,unconnected-(J1-Pin_8-Pad8)*%
X133600000Y-96525000D03*
%TO.P,J1,9,Pin_9*%
%TO.N,unconnected-(J1-Pin_9-Pad9)*%
X133600000Y-99065000D03*
%TO.P,J1,10,Pin_10*%
%TO.N,/35*%
X133600000Y-101605000D03*
%TO.P,J1,11,Pin_11*%
%TO.N,/34*%
X133600000Y-104145000D03*
%TO.P,J1,12,Pin_12*%
%TO.N,/39*%
X133600000Y-106685000D03*
%TO.P,J1,13,Pin_13*%
%TO.N,unconnected-(J1-Pin_13-Pad13)*%
X133600000Y-109225000D03*
%TO.P,J1,14,Pin_14*%
%TO.N,unconnected-(J1-Pin_14-Pad14)*%
X133600000Y-111765000D03*
%TO.P,J1,15,Pin_15*%
%TO.N,/36*%
X133600000Y-114305000D03*
%TO.P,J1,16,Pin_16*%
%TO.N,/+3.3V*%
X133600000Y-116845000D03*
%TO.P,J1,17,Pin_17*%
%TO.N,/+5V*%
X133600000Y-119385000D03*
%TO.P,J1,18,Pin_18*%
%TO.N,GND*%
X133600000Y-121925000D03*
%TD*%
D10*
%TO.P,R5,1*%
%TO.N,GND*%
X123145000Y-74125000D03*
D11*
%TO.P,R5,2*%
%TO.N,Net-(J2-Pin_12)*%
X133305000Y-74125000D03*
%TD*%
D10*
%TO.P,R4,1*%
%TO.N,Net-(J4-Pin_2)*%
X120490000Y-114025000D03*
D11*
%TO.P,R4,2*%
%TO.N,/36*%
X130650000Y-114025000D03*
%TD*%
D10*
%TO.P,R3,1*%
%TO.N,Net-(J4-Pin_3)*%
X120470000Y-98525000D03*
D11*
%TO.P,R3,2*%
%TO.N,/35*%
X130630000Y-98525000D03*
%TD*%
D13*
%TO.P,J3,1,Pin_1*%
%TO.N,/39*%
X124625000Y-90400000D03*
D14*
%TO.P,J3,2,Pin_2*%
%TO.N,/+3.3V*%
X124625000Y-87860000D03*
%TD*%
D10*
%TO.P,C1,1*%
%TO.N,/36*%
X130650000Y-111225000D03*
%TO.P,C1,2*%
%TO.N,Net-(J4-Pin_1)*%
X125650000Y-111225000D03*
%TD*%
D13*
%TO.P,J2,1,Pin_1*%
%TO.N,/16_S0*%
X156400000Y-78745000D03*
D14*
%TO.P,J2,2,Pin_2*%
%TO.N,unconnected-(J2-Pin_2-Pad2)*%
X156400000Y-81285000D03*
%TO.P,J2,3,Pin_3*%
%TO.N,/4_S5*%
X156400000Y-83825000D03*
%TO.P,J2,4,Pin_4*%
%TO.N,unconnected-(J2-Pin_4-Pad4)*%
X156400000Y-86365000D03*
%TO.P,J2,5,Pin_5*%
%TO.N,/15_S4*%
X156400000Y-88905000D03*
%TO.P,J2,6,Pin_6*%
%TO.N,unconnected-(J2-Pin_6-Pad6)*%
X156400000Y-91445000D03*
%TO.P,J2,7,Pin_7*%
%TO.N,unconnected-(J2-Pin_7-Pad7)*%
X156400000Y-93985000D03*
%TO.P,J2,8,Pin_8*%
%TO.N,unconnected-(J2-Pin_8-Pad8)*%
X156400000Y-96525000D03*
%TO.P,J2,9,Pin_9*%
%TO.N,unconnected-(J2-Pin_9-Pad9)*%
X156400000Y-99065000D03*
%TO.P,J2,10,Pin_10*%
%TO.N,unconnected-(J2-Pin_10-Pad10)*%
X156400000Y-101605000D03*
%TO.P,J2,11,Pin_11*%
%TO.N,unconnected-(J2-Pin_11-Pad11)*%
X156400000Y-104145000D03*
%TO.P,J2,12,Pin_12*%
%TO.N,Net-(J2-Pin_12)*%
X156400000Y-106685000D03*
%TO.P,J2,13,Pin_13*%
%TO.N,unconnected-(J2-Pin_13-Pad13)*%
X156400000Y-109225000D03*
%TO.P,J2,14,Pin_14*%
%TO.N,unconnected-(J2-Pin_14-Pad14)*%
X156400000Y-111765000D03*
%TO.P,J2,15,Pin_15*%
%TO.N,unconnected-(J2-Pin_15-Pad15)*%
X156400000Y-114305000D03*
%TO.P,J2,16,Pin_16*%
%TO.N,unconnected-(J2-Pin_16-Pad16)*%
X156400000Y-116845000D03*
%TO.P,J2,17,Pin_17*%
%TO.N,unconnected-(J2-Pin_17-Pad17)*%
X156400000Y-119385000D03*
%TO.P,J2,18,Pin_18*%
%TO.N,unconnected-(J2-Pin_18-Pad18)*%
X156400000Y-121925000D03*
%TD*%
D10*
%TO.P,C5,1*%
%TO.N,/+3.3V*%
X130650000Y-116825000D03*
%TO.P,C5,2*%
%TO.N,GND*%
X125650000Y-116825000D03*
%TD*%
D15*
%TO.N,Net-(J4-Pin_1)*%
X125650000Y-111225000D02*
X125650000Y-101325000D01*
X125650000Y-101325000D02*
X125650000Y-95725000D01*
%TO.N,/36*%
X132230000Y-114305000D02*
X131950000Y-114025000D01*
X130650000Y-111225000D02*
X130650000Y-114025000D01*
X131950000Y-114025000D02*
X130650000Y-114025000D01*
X133600000Y-114305000D02*
X132230000Y-114305000D01*
%TO.N,/35*%
X130630000Y-98525000D02*
X130630000Y-95745000D01*
X130630000Y-95745000D02*
X130650000Y-95725000D01*
X130630000Y-98635000D02*
X130630000Y-98525000D01*
X133600000Y-101605000D02*
X130630000Y-98635000D01*
%TO.N,/34*%
X133600000Y-104145000D02*
X130670000Y-104145000D01*
X130670000Y-104145000D02*
X130650000Y-104125000D01*
X130650000Y-104125000D02*
X130650000Y-101325000D01*
%TO.N,/+5V*%
X130710000Y-119385000D02*
X130650000Y-119325000D01*
X133600000Y-119385000D02*
X130710000Y-119385000D01*
%TO.N,/+3.3V*%
X129150000Y-114350000D02*
X129150000Y-115325000D01*
X129150000Y-115325000D02*
X130650000Y-116825000D01*
X118325000Y-83825000D02*
X118325000Y-77325000D01*
X133600000Y-116845000D02*
X130670000Y-116845000D01*
X130670000Y-116845000D02*
X130650000Y-116825000D01*
X129150000Y-90465000D02*
X129150000Y-114350000D01*
%TO.N,/39*%
X132390000Y-106685000D02*
X131850000Y-107225000D01*
X133600000Y-106685000D02*
X132390000Y-106685000D01*
X131850000Y-107225000D02*
X130630000Y-107225000D01*
%TO.N,Net-(J2-Pin_12)*%
X132173630Y-74125000D02*
X128973630Y-77325000D01*
X137700000Y-74125000D02*
X133305000Y-74125000D01*
X144950000Y-98475000D02*
X144950000Y-81375000D01*
X144950000Y-81375000D02*
X137700000Y-74125000D01*
X128973630Y-77325000D02*
X122825000Y-77325000D01*
X122825000Y-77325000D02*
X122825000Y-83825000D01*
X133305000Y-74125000D02*
X132173630Y-74125000D01*
X156400000Y-106685000D02*
X153160000Y-106685000D01*
X153160000Y-106685000D02*
X144950000Y-98475000D01*
%TO.N,Net-(J4-Pin_2)*%
X126630000Y-82845000D02*
X118850000Y-90625000D01*
X118850000Y-90625000D02*
X118850000Y-112385000D01*
X118850000Y-112385000D02*
X120490000Y-114025000D01*
X129150000Y-82845000D02*
X126630000Y-82845000D01*
%TO.N,Net-(J4-Pin_3)*%
X120470000Y-98525000D02*
X120470000Y-98005000D01*
X120470000Y-98005000D02*
X126850000Y-91625000D01*
X126850000Y-87685000D02*
X129150000Y-85385000D01*
X126850000Y-91625000D02*
X126850000Y-87685000D01*
%TO.N,Net-(J4-Pin_4)*%
X120490000Y-104125000D02*
X122350000Y-102265000D01*
X127350000Y-89725000D02*
X129150000Y-87925000D01*
X122350000Y-96832106D02*
X127350000Y-91832106D01*
X122350000Y-102265000D02*
X122350000Y-96832106D01*
X127350000Y-91832106D02*
X127350000Y-89725000D01*
%TD*%
M02*
