%TF.GenerationSoftware,KiCad,Pcbnew,8.0.2*%
%TF.CreationDate,2025-03-31T19:16:32+02:00*%
%TF.ProjectId,Carte_main,43617274-655f-46d6-9169-6e2e6b696361,rev?*%
%TF.SameCoordinates,Original*%
%TF.FileFunction,Copper,L1,Top*%
%TF.FilePolarity,Positive*%
%FSLAX46Y46*%
G04 Gerber Fmt 4.6, Leading zero omitted, Abs format (unit mm)*
G04 Created by KiCad (PCBNEW 8.0.2) date 2025-03-31 19:16:32*
%MOMM*%
%LPD*%
G01*
G04 APERTURE LIST*
%TA.AperFunction,ComponentPad*%
%ADD10C,2.400000*%
%TD*%
%TA.AperFunction,ComponentPad*%
%ADD11R,2.400000X2.400000*%
%TD*%
%TA.AperFunction,ComponentPad*%
%ADD12C,1.600000*%
%TD*%
%TA.AperFunction,ComponentPad*%
%ADD13O,1.600000X1.600000*%
%TD*%
%TA.AperFunction,ComponentPad*%
%ADD14C,2.000000*%
%TD*%
%TA.AperFunction,ComponentPad*%
%ADD15R,1.700000X1.700000*%
%TD*%
%TA.AperFunction,ComponentPad*%
%ADD16O,1.700000X1.700000*%
%TD*%
%TA.AperFunction,ComponentPad*%
%ADD17R,1.800000X1.800000*%
%TD*%
%TA.AperFunction,ComponentPad*%
%ADD18C,1.800000*%
%TD*%
%TA.AperFunction,Conductor*%
%ADD19C,0.300000*%
%TD*%
G04 APERTURE END LIST*
D10*
%TO.P,SW2,1*%
%TO.N,Net-(BT1-+)*%
X121625000Y-103050000D03*
%TO.P,SW2,2*%
%TO.N,/+3.3V*%
X121625000Y-98050000D03*
D11*
%TO.P,SW2,3*%
%TO.N,N/C*%
X121625000Y-93050000D03*
%TD*%
D12*
%TO.P,R1,1*%
%TO.N,/39*%
X130655000Y-107725000D03*
D13*
%TO.P,R1,2*%
%TO.N,GND*%
X120495000Y-107725000D03*
%TD*%
D12*
%TO.P,C4,1*%
%TO.N,/+5V*%
X130650000Y-119325000D03*
%TO.P,C4,2*%
%TO.N,GND*%
X125650000Y-119325000D03*
%TD*%
D14*
%TO.P,SW1,1,1*%
%TO.N,/+3.3V*%
X118325000Y-83825000D03*
X118325000Y-77325000D03*
%TO.P,SW1,2,2*%
%TO.N,Net-(J2-Pin_12)*%
X122825000Y-83825000D03*
X122825000Y-77325000D03*
%TD*%
D15*
%TO.P,BT1,1,+*%
%TO.N,Net-(BT1-+)*%
X129286000Y-122428000D03*
D16*
%TO.P,BT1,2,-*%
%TO.N,GND*%
X126746000Y-122428000D03*
%TD*%
D15*
%TO.P,J1,1,Pin_1*%
%TO.N,/SDA*%
X133600000Y-78745000D03*
D16*
%TO.P,J1,2,Pin_2*%
%TO.N,/13_S2*%
X133600000Y-81285000D03*
%TO.P,J1,3,Pin_3*%
%TO.N,unconnected-(J1-Pin_3-Pad3)*%
X133600000Y-83825000D03*
%TO.P,J1,4,Pin_4*%
%TO.N,/14_S3*%
X133600000Y-86365000D03*
%TO.P,J1,5,Pin_5*%
%TO.N,unconnected-(J1-Pin_5-Pad5)*%
X133600000Y-88905000D03*
%TO.P,J1,6,Pin_6*%
%TO.N,unconnected-(J1-Pin_6-Pad6)*%
X133600000Y-91445000D03*
%TO.P,J1,7,Pin_7*%
%TO.N,unconnected-(J1-Pin_7-Pad7)*%
X133600000Y-93985000D03*
%TO.P,J1,8,Pin_8*%
%TO.N,unconnected-(J1-Pin_8-Pad8)*%
X133600000Y-96525000D03*
%TO.P,J1,9,Pin_9*%
%TO.N,unconnected-(J1-Pin_9-Pad9)*%
X133600000Y-99065000D03*
%TO.P,J1,10,Pin_10*%
%TO.N,/35*%
X133600000Y-101605000D03*
%TO.P,J1,11,Pin_11*%
%TO.N,/34*%
X133600000Y-104145000D03*
%TO.P,J1,12,Pin_12*%
%TO.N,/39*%
X133600000Y-106685000D03*
%TO.P,J1,13,Pin_13*%
%TO.N,unconnected-(J1-Pin_13-Pad13)*%
X133600000Y-109225000D03*
%TO.P,J1,14,Pin_14*%
%TO.N,unconnected-(J1-Pin_14-Pad14)*%
X133600000Y-111765000D03*
%TO.P,J1,15,Pin_15*%
%TO.N,/36*%
X133600000Y-114305000D03*
%TO.P,J1,16,Pin_16*%
%TO.N,/+3.3V*%
X133600000Y-116845000D03*
%TO.P,J1,17,Pin_17*%
%TO.N,/+5V*%
X133600000Y-119385000D03*
%TO.P,J1,18,Pin_18*%
%TO.N,GND*%
X133600000Y-121925000D03*
%TD*%
D12*
%TO.P,R5,1*%
%TO.N,GND*%
X123145000Y-74125000D03*
D13*
%TO.P,R5,2*%
%TO.N,Net-(J2-Pin_12)*%
X133305000Y-74125000D03*
%TD*%
D12*
%TO.P,R2,1*%
%TO.N,/+3.3V*%
X130650000Y-113792000D03*
D13*
%TO.P,R2,2*%
%TO.N,Net-(D1-A)*%
X120490000Y-113792000D03*
%TD*%
D15*
%TO.P,J3,1,Pin_1*%
%TO.N,/39*%
X118613000Y-87376000D03*
D16*
%TO.P,J3,2,Pin_2*%
%TO.N,/+3.3V*%
X121153000Y-87376000D03*
%TD*%
D15*
%TO.P,J4,1,Pin_1*%
%TO.N,/SDA*%
X129032000Y-86614000D03*
D16*
%TO.P,J4,2,Pin_2*%
%TO.N,/SCL*%
X129032000Y-89154000D03*
%TO.P,J4,3,Pin_3*%
%TO.N,GND*%
X129032000Y-91694000D03*
%TO.P,J4,4,Pin_4*%
%TO.N,/+3.3V*%
X129032000Y-94234000D03*
%TO.P,J4,5,Pin_5*%
%TO.N,unconnected-(J4-Pin_5-Pad5)*%
X129032000Y-96774000D03*
%TO.P,J4,6,Pin_6*%
%TO.N,unconnected-(J4-Pin_6-Pad6)*%
X129032000Y-99314000D03*
%TO.P,J4,7,Pin_7*%
%TO.N,unconnected-(J4-Pin_7-Pad7)*%
X129032000Y-101854000D03*
%TO.P,J4,8,Pin_8*%
%TO.N,unconnected-(J4-Pin_8-Pad8)*%
X129032000Y-104394000D03*
%TD*%
D17*
%TO.P,D1,1,K*%
%TO.N,GND*%
X120510000Y-119740000D03*
D18*
%TO.P,D1,2,A*%
%TO.N,Net-(D1-A)*%
X120510000Y-117200000D03*
%TD*%
D15*
%TO.P,J2,1,Pin_1*%
%TO.N,/16_S0*%
X156400000Y-78745000D03*
D16*
%TO.P,J2,2,Pin_2*%
%TO.N,unconnected-(J2-Pin_2-Pad2)*%
X156400000Y-81285000D03*
%TO.P,J2,3,Pin_3*%
%TO.N,/4_S5*%
X156400000Y-83825000D03*
%TO.P,J2,4,Pin_4*%
%TO.N,unconnected-(J2-Pin_4-Pad4)*%
X156400000Y-86365000D03*
%TO.P,J2,5,Pin_5*%
%TO.N,/15_S4*%
X156400000Y-88905000D03*
%TO.P,J2,6,Pin_6*%
%TO.N,unconnected-(J2-Pin_6-Pad6)*%
X156400000Y-91445000D03*
%TO.P,J2,7,Pin_7*%
%TO.N,unconnected-(J2-Pin_7-Pad7)*%
X156400000Y-93985000D03*
%TO.P,J2,8,Pin_8*%
%TO.N,unconnected-(J2-Pin_8-Pad8)*%
X156400000Y-96525000D03*
%TO.P,J2,9,Pin_9*%
%TO.N,unconnected-(J2-Pin_9-Pad9)*%
X156400000Y-99065000D03*
%TO.P,J2,10,Pin_10*%
%TO.N,/SCL*%
X156400000Y-101605000D03*
%TO.P,J2,11,Pin_11*%
%TO.N,unconnected-(J2-Pin_11-Pad11)*%
X156400000Y-104145000D03*
%TO.P,J2,12,Pin_12*%
%TO.N,Net-(J2-Pin_12)*%
X156400000Y-106685000D03*
%TO.P,J2,13,Pin_13*%
%TO.N,unconnected-(J2-Pin_13-Pad13)*%
X156400000Y-109225000D03*
%TO.P,J2,14,Pin_14*%
%TO.N,unconnected-(J2-Pin_14-Pad14)*%
X156400000Y-111765000D03*
%TO.P,J2,15,Pin_15*%
%TO.N,unconnected-(J2-Pin_15-Pad15)*%
X156400000Y-114305000D03*
%TO.P,J2,16,Pin_16*%
%TO.N,unconnected-(J2-Pin_16-Pad16)*%
X156400000Y-116845000D03*
%TO.P,J2,17,Pin_17*%
%TO.N,unconnected-(J2-Pin_17-Pad17)*%
X156400000Y-119385000D03*
%TO.P,J2,18,Pin_18*%
%TO.N,unconnected-(J2-Pin_18-Pad18)*%
X156400000Y-121925000D03*
%TD*%
D12*
%TO.P,C5,1*%
%TO.N,/+3.3V*%
X130650000Y-116825000D03*
%TO.P,C5,2*%
%TO.N,GND*%
X125650000Y-116825000D03*
%TD*%
D19*
%TO.N,Net-(D1-A)*%
X120500000Y-117190000D02*
X120500000Y-113802000D01*
X120510000Y-117200000D02*
X120500000Y-117190000D01*
X120500000Y-113802000D02*
X120490000Y-113792000D01*
%TO.N,/+5V*%
X130710000Y-119385000D02*
X130650000Y-119325000D01*
X133600000Y-119385000D02*
X130710000Y-119385000D01*
%TO.N,/+3.3V*%
X121153000Y-86653000D02*
X121153000Y-87376000D01*
X121153000Y-87376000D02*
X128011000Y-94234000D01*
X118325000Y-83825000D02*
X118325000Y-77325000D01*
X130650000Y-116825000D02*
X133580000Y-116825000D01*
X128011000Y-94234000D02*
X129032000Y-94234000D01*
X118325000Y-83825000D02*
X121153000Y-86653000D01*
X130650000Y-116825000D02*
X130650000Y-113792000D01*
X133580000Y-116825000D02*
X133600000Y-116845000D01*
%TO.N,/39*%
X133590000Y-106685000D02*
X132550000Y-107725000D01*
X118613000Y-97488000D02*
X118613000Y-87376000D01*
X133600000Y-106685000D02*
X133590000Y-106685000D01*
X130655000Y-107725000D02*
X128850000Y-107725000D01*
X128850000Y-107725000D02*
X118613000Y-97488000D01*
X132550000Y-107725000D02*
X130655000Y-107725000D01*
%TO.N,/SDA*%
X129032000Y-86614000D02*
X129032000Y-83313000D01*
X129032000Y-83313000D02*
X133600000Y-78745000D01*
%TO.N,Net-(J2-Pin_12)*%
X137700000Y-74125000D02*
X133305000Y-74125000D01*
X144950000Y-98475000D02*
X144950000Y-81375000D01*
X144950000Y-81375000D02*
X137700000Y-74125000D01*
X126383000Y-77325000D02*
X122825000Y-77325000D01*
X122825000Y-77325000D02*
X122825000Y-83825000D01*
X133305000Y-74125000D02*
X129583000Y-74125000D01*
X129583000Y-74125000D02*
X126383000Y-77325000D01*
X156400000Y-106685000D02*
X153160000Y-106685000D01*
X153160000Y-106685000D02*
X144950000Y-98475000D01*
%TO.N,Net-(BT1-+)*%
X129286000Y-122428000D02*
X129286000Y-110711000D01*
X129286000Y-110711000D02*
X121625000Y-103050000D01*
%TD*%
M02*
