%TF.GenerationSoftware,KiCad,Pcbnew,8.0.2*%
%TF.CreationDate,2025-03-31T19:17:40+02:00*%
%TF.ProjectId,carte_robo_pince,63617274-655f-4726-9f62-6f5f70696e63,rev?*%
%TF.SameCoordinates,Original*%
%TF.FileFunction,AssemblyDrawing,Top*%
%FSLAX46Y46*%
G04 Gerber Fmt 4.6, Leading zero omitted, Abs format (unit mm)*
G04 Created by KiCad (PCBNEW 8.0.2) date 2025-03-31 19:17:40*
%MOMM*%
%LPD*%
G01*
G04 APERTURE LIST*
%ADD10C,0.150000*%
%ADD11C,0.090000*%
%ADD12C,0.129000*%
%ADD13C,0.125000*%
%ADD14C,0.060000*%
%ADD15C,0.100000*%
G04 APERTURE END LIST*
D10*
X106074580Y-82920239D02*
X106122200Y-82967858D01*
X106122200Y-82967858D02*
X106169819Y-83110715D01*
X106169819Y-83110715D02*
X106169819Y-83205953D01*
X106169819Y-83205953D02*
X106122200Y-83348810D01*
X106122200Y-83348810D02*
X106026961Y-83444048D01*
X106026961Y-83444048D02*
X105931723Y-83491667D01*
X105931723Y-83491667D02*
X105741247Y-83539286D01*
X105741247Y-83539286D02*
X105598390Y-83539286D01*
X105598390Y-83539286D02*
X105407914Y-83491667D01*
X105407914Y-83491667D02*
X105312676Y-83444048D01*
X105312676Y-83444048D02*
X105217438Y-83348810D01*
X105217438Y-83348810D02*
X105169819Y-83205953D01*
X105169819Y-83205953D02*
X105169819Y-83110715D01*
X105169819Y-83110715D02*
X105217438Y-82967858D01*
X105217438Y-82967858D02*
X105265057Y-82920239D01*
X106169819Y-82348810D02*
X106122200Y-82444048D01*
X106122200Y-82444048D02*
X106074580Y-82491667D01*
X106074580Y-82491667D02*
X105979342Y-82539286D01*
X105979342Y-82539286D02*
X105693628Y-82539286D01*
X105693628Y-82539286D02*
X105598390Y-82491667D01*
X105598390Y-82491667D02*
X105550771Y-82444048D01*
X105550771Y-82444048D02*
X105503152Y-82348810D01*
X105503152Y-82348810D02*
X105503152Y-82205953D01*
X105503152Y-82205953D02*
X105550771Y-82110715D01*
X105550771Y-82110715D02*
X105598390Y-82063096D01*
X105598390Y-82063096D02*
X105693628Y-82015477D01*
X105693628Y-82015477D02*
X105979342Y-82015477D01*
X105979342Y-82015477D02*
X106074580Y-82063096D01*
X106074580Y-82063096D02*
X106122200Y-82110715D01*
X106122200Y-82110715D02*
X106169819Y-82205953D01*
X106169819Y-82205953D02*
X106169819Y-82348810D01*
X105503152Y-81586905D02*
X106169819Y-81586905D01*
X105598390Y-81586905D02*
X105550771Y-81539286D01*
X105550771Y-81539286D02*
X105503152Y-81444048D01*
X105503152Y-81444048D02*
X105503152Y-81301191D01*
X105503152Y-81301191D02*
X105550771Y-81205953D01*
X105550771Y-81205953D02*
X105646009Y-81158334D01*
X105646009Y-81158334D02*
X106169819Y-81158334D01*
X105503152Y-80682143D02*
X106169819Y-80682143D01*
X105598390Y-80682143D02*
X105550771Y-80634524D01*
X105550771Y-80634524D02*
X105503152Y-80539286D01*
X105503152Y-80539286D02*
X105503152Y-80396429D01*
X105503152Y-80396429D02*
X105550771Y-80301191D01*
X105550771Y-80301191D02*
X105646009Y-80253572D01*
X105646009Y-80253572D02*
X106169819Y-80253572D01*
X106265057Y-80015477D02*
X106265057Y-79253572D01*
X105169819Y-78825000D02*
X105169819Y-78729762D01*
X105169819Y-78729762D02*
X105217438Y-78634524D01*
X105217438Y-78634524D02*
X105265057Y-78586905D01*
X105265057Y-78586905D02*
X105360295Y-78539286D01*
X105360295Y-78539286D02*
X105550771Y-78491667D01*
X105550771Y-78491667D02*
X105788866Y-78491667D01*
X105788866Y-78491667D02*
X105979342Y-78539286D01*
X105979342Y-78539286D02*
X106074580Y-78586905D01*
X106074580Y-78586905D02*
X106122200Y-78634524D01*
X106122200Y-78634524D02*
X106169819Y-78729762D01*
X106169819Y-78729762D02*
X106169819Y-78825000D01*
X106169819Y-78825000D02*
X106122200Y-78920238D01*
X106122200Y-78920238D02*
X106074580Y-78967857D01*
X106074580Y-78967857D02*
X105979342Y-79015476D01*
X105979342Y-79015476D02*
X105788866Y-79063095D01*
X105788866Y-79063095D02*
X105550771Y-79063095D01*
X105550771Y-79063095D02*
X105360295Y-79015476D01*
X105360295Y-79015476D02*
X105265057Y-78967857D01*
X105265057Y-78967857D02*
X105217438Y-78920238D01*
X105217438Y-78920238D02*
X105169819Y-78825000D01*
X106169819Y-77539286D02*
X106169819Y-78110714D01*
X106169819Y-77825000D02*
X105169819Y-77825000D01*
X105169819Y-77825000D02*
X105312676Y-77920238D01*
X105312676Y-77920238D02*
X105407914Y-78015476D01*
X105407914Y-78015476D02*
X105455533Y-78110714D01*
X106169819Y-77205952D02*
X105503152Y-76682143D01*
X105503152Y-77205952D02*
X106169819Y-76682143D01*
X105169819Y-76110714D02*
X105169819Y-76015476D01*
X105169819Y-76015476D02*
X105217438Y-75920238D01*
X105217438Y-75920238D02*
X105265057Y-75872619D01*
X105265057Y-75872619D02*
X105360295Y-75825000D01*
X105360295Y-75825000D02*
X105550771Y-75777381D01*
X105550771Y-75777381D02*
X105788866Y-75777381D01*
X105788866Y-75777381D02*
X105979342Y-75825000D01*
X105979342Y-75825000D02*
X106074580Y-75872619D01*
X106074580Y-75872619D02*
X106122200Y-75920238D01*
X106122200Y-75920238D02*
X106169819Y-76015476D01*
X106169819Y-76015476D02*
X106169819Y-76110714D01*
X106169819Y-76110714D02*
X106122200Y-76205952D01*
X106122200Y-76205952D02*
X106074580Y-76253571D01*
X106074580Y-76253571D02*
X105979342Y-76301190D01*
X105979342Y-76301190D02*
X105788866Y-76348809D01*
X105788866Y-76348809D02*
X105550771Y-76348809D01*
X105550771Y-76348809D02*
X105360295Y-76301190D01*
X105360295Y-76301190D02*
X105265057Y-76253571D01*
X105265057Y-76253571D02*
X105217438Y-76205952D01*
X105217438Y-76205952D02*
X105169819Y-76110714D01*
X105169819Y-75444047D02*
X105169819Y-74825000D01*
X105169819Y-74825000D02*
X105550771Y-75158333D01*
X105550771Y-75158333D02*
X105550771Y-75015476D01*
X105550771Y-75015476D02*
X105598390Y-74920238D01*
X105598390Y-74920238D02*
X105646009Y-74872619D01*
X105646009Y-74872619D02*
X105741247Y-74825000D01*
X105741247Y-74825000D02*
X105979342Y-74825000D01*
X105979342Y-74825000D02*
X106074580Y-74872619D01*
X106074580Y-74872619D02*
X106122200Y-74920238D01*
X106122200Y-74920238D02*
X106169819Y-75015476D01*
X106169819Y-75015476D02*
X106169819Y-75301190D01*
X106169819Y-75301190D02*
X106122200Y-75396428D01*
X106122200Y-75396428D02*
X106074580Y-75444047D01*
X106265057Y-74634524D02*
X106265057Y-73872619D01*
X106122200Y-73682142D02*
X106169819Y-73539285D01*
X106169819Y-73539285D02*
X106169819Y-73301190D01*
X106169819Y-73301190D02*
X106122200Y-73205952D01*
X106122200Y-73205952D02*
X106074580Y-73158333D01*
X106074580Y-73158333D02*
X105979342Y-73110714D01*
X105979342Y-73110714D02*
X105884104Y-73110714D01*
X105884104Y-73110714D02*
X105788866Y-73158333D01*
X105788866Y-73158333D02*
X105741247Y-73205952D01*
X105741247Y-73205952D02*
X105693628Y-73301190D01*
X105693628Y-73301190D02*
X105646009Y-73491666D01*
X105646009Y-73491666D02*
X105598390Y-73586904D01*
X105598390Y-73586904D02*
X105550771Y-73634523D01*
X105550771Y-73634523D02*
X105455533Y-73682142D01*
X105455533Y-73682142D02*
X105360295Y-73682142D01*
X105360295Y-73682142D02*
X105265057Y-73634523D01*
X105265057Y-73634523D02*
X105217438Y-73586904D01*
X105217438Y-73586904D02*
X105169819Y-73491666D01*
X105169819Y-73491666D02*
X105169819Y-73253571D01*
X105169819Y-73253571D02*
X105217438Y-73110714D01*
X106169819Y-72539285D02*
X106122200Y-72634523D01*
X106122200Y-72634523D02*
X106074580Y-72682142D01*
X106074580Y-72682142D02*
X105979342Y-72729761D01*
X105979342Y-72729761D02*
X105693628Y-72729761D01*
X105693628Y-72729761D02*
X105598390Y-72682142D01*
X105598390Y-72682142D02*
X105550771Y-72634523D01*
X105550771Y-72634523D02*
X105503152Y-72539285D01*
X105503152Y-72539285D02*
X105503152Y-72396428D01*
X105503152Y-72396428D02*
X105550771Y-72301190D01*
X105550771Y-72301190D02*
X105598390Y-72253571D01*
X105598390Y-72253571D02*
X105693628Y-72205952D01*
X105693628Y-72205952D02*
X105979342Y-72205952D01*
X105979342Y-72205952D02*
X106074580Y-72253571D01*
X106074580Y-72253571D02*
X106122200Y-72301190D01*
X106122200Y-72301190D02*
X106169819Y-72396428D01*
X106169819Y-72396428D02*
X106169819Y-72539285D01*
X106122200Y-71348809D02*
X106169819Y-71444047D01*
X106169819Y-71444047D02*
X106169819Y-71634523D01*
X106169819Y-71634523D02*
X106122200Y-71729761D01*
X106122200Y-71729761D02*
X106074580Y-71777380D01*
X106074580Y-71777380D02*
X105979342Y-71824999D01*
X105979342Y-71824999D02*
X105693628Y-71824999D01*
X105693628Y-71824999D02*
X105598390Y-71777380D01*
X105598390Y-71777380D02*
X105550771Y-71729761D01*
X105550771Y-71729761D02*
X105503152Y-71634523D01*
X105503152Y-71634523D02*
X105503152Y-71444047D01*
X105503152Y-71444047D02*
X105550771Y-71348809D01*
X106169819Y-70920237D02*
X105169819Y-70920237D01*
X105788866Y-70824999D02*
X106169819Y-70539285D01*
X105503152Y-70539285D02*
X105884104Y-70920237D01*
X106122200Y-69729761D02*
X106169819Y-69824999D01*
X106169819Y-69824999D02*
X106169819Y-70015475D01*
X106169819Y-70015475D02*
X106122200Y-70110713D01*
X106122200Y-70110713D02*
X106026961Y-70158332D01*
X106026961Y-70158332D02*
X105646009Y-70158332D01*
X105646009Y-70158332D02*
X105550771Y-70110713D01*
X105550771Y-70110713D02*
X105503152Y-70015475D01*
X105503152Y-70015475D02*
X105503152Y-69824999D01*
X105503152Y-69824999D02*
X105550771Y-69729761D01*
X105550771Y-69729761D02*
X105646009Y-69682142D01*
X105646009Y-69682142D02*
X105741247Y-69682142D01*
X105741247Y-69682142D02*
X105836485Y-70158332D01*
X105503152Y-69396427D02*
X105503152Y-69015475D01*
X105169819Y-69253570D02*
X106026961Y-69253570D01*
X106026961Y-69253570D02*
X106122200Y-69205951D01*
X106122200Y-69205951D02*
X106169819Y-69110713D01*
X106169819Y-69110713D02*
X106169819Y-69015475D01*
X110251666Y-75779819D02*
X110251666Y-76494104D01*
X110251666Y-76494104D02*
X110204047Y-76636961D01*
X110204047Y-76636961D02*
X110108809Y-76732200D01*
X110108809Y-76732200D02*
X109965952Y-76779819D01*
X109965952Y-76779819D02*
X109870714Y-76779819D01*
X110632619Y-75779819D02*
X111251666Y-75779819D01*
X111251666Y-75779819D02*
X110918333Y-76160771D01*
X110918333Y-76160771D02*
X111061190Y-76160771D01*
X111061190Y-76160771D02*
X111156428Y-76208390D01*
X111156428Y-76208390D02*
X111204047Y-76256009D01*
X111204047Y-76256009D02*
X111251666Y-76351247D01*
X111251666Y-76351247D02*
X111251666Y-76589342D01*
X111251666Y-76589342D02*
X111204047Y-76684580D01*
X111204047Y-76684580D02*
X111156428Y-76732200D01*
X111156428Y-76732200D02*
X111061190Y-76779819D01*
X111061190Y-76779819D02*
X110775476Y-76779819D01*
X110775476Y-76779819D02*
X110680238Y-76732200D01*
X110680238Y-76732200D02*
X110632619Y-76684580D01*
X106099580Y-102170239D02*
X106147200Y-102217858D01*
X106147200Y-102217858D02*
X106194819Y-102360715D01*
X106194819Y-102360715D02*
X106194819Y-102455953D01*
X106194819Y-102455953D02*
X106147200Y-102598810D01*
X106147200Y-102598810D02*
X106051961Y-102694048D01*
X106051961Y-102694048D02*
X105956723Y-102741667D01*
X105956723Y-102741667D02*
X105766247Y-102789286D01*
X105766247Y-102789286D02*
X105623390Y-102789286D01*
X105623390Y-102789286D02*
X105432914Y-102741667D01*
X105432914Y-102741667D02*
X105337676Y-102694048D01*
X105337676Y-102694048D02*
X105242438Y-102598810D01*
X105242438Y-102598810D02*
X105194819Y-102455953D01*
X105194819Y-102455953D02*
X105194819Y-102360715D01*
X105194819Y-102360715D02*
X105242438Y-102217858D01*
X105242438Y-102217858D02*
X105290057Y-102170239D01*
X106194819Y-101598810D02*
X106147200Y-101694048D01*
X106147200Y-101694048D02*
X106099580Y-101741667D01*
X106099580Y-101741667D02*
X106004342Y-101789286D01*
X106004342Y-101789286D02*
X105718628Y-101789286D01*
X105718628Y-101789286D02*
X105623390Y-101741667D01*
X105623390Y-101741667D02*
X105575771Y-101694048D01*
X105575771Y-101694048D02*
X105528152Y-101598810D01*
X105528152Y-101598810D02*
X105528152Y-101455953D01*
X105528152Y-101455953D02*
X105575771Y-101360715D01*
X105575771Y-101360715D02*
X105623390Y-101313096D01*
X105623390Y-101313096D02*
X105718628Y-101265477D01*
X105718628Y-101265477D02*
X106004342Y-101265477D01*
X106004342Y-101265477D02*
X106099580Y-101313096D01*
X106099580Y-101313096D02*
X106147200Y-101360715D01*
X106147200Y-101360715D02*
X106194819Y-101455953D01*
X106194819Y-101455953D02*
X106194819Y-101598810D01*
X105528152Y-100836905D02*
X106194819Y-100836905D01*
X105623390Y-100836905D02*
X105575771Y-100789286D01*
X105575771Y-100789286D02*
X105528152Y-100694048D01*
X105528152Y-100694048D02*
X105528152Y-100551191D01*
X105528152Y-100551191D02*
X105575771Y-100455953D01*
X105575771Y-100455953D02*
X105671009Y-100408334D01*
X105671009Y-100408334D02*
X106194819Y-100408334D01*
X105528152Y-99932143D02*
X106194819Y-99932143D01*
X105623390Y-99932143D02*
X105575771Y-99884524D01*
X105575771Y-99884524D02*
X105528152Y-99789286D01*
X105528152Y-99789286D02*
X105528152Y-99646429D01*
X105528152Y-99646429D02*
X105575771Y-99551191D01*
X105575771Y-99551191D02*
X105671009Y-99503572D01*
X105671009Y-99503572D02*
X106194819Y-99503572D01*
X106290057Y-99265477D02*
X106290057Y-98503572D01*
X105194819Y-98075000D02*
X105194819Y-97979762D01*
X105194819Y-97979762D02*
X105242438Y-97884524D01*
X105242438Y-97884524D02*
X105290057Y-97836905D01*
X105290057Y-97836905D02*
X105385295Y-97789286D01*
X105385295Y-97789286D02*
X105575771Y-97741667D01*
X105575771Y-97741667D02*
X105813866Y-97741667D01*
X105813866Y-97741667D02*
X106004342Y-97789286D01*
X106004342Y-97789286D02*
X106099580Y-97836905D01*
X106099580Y-97836905D02*
X106147200Y-97884524D01*
X106147200Y-97884524D02*
X106194819Y-97979762D01*
X106194819Y-97979762D02*
X106194819Y-98075000D01*
X106194819Y-98075000D02*
X106147200Y-98170238D01*
X106147200Y-98170238D02*
X106099580Y-98217857D01*
X106099580Y-98217857D02*
X106004342Y-98265476D01*
X106004342Y-98265476D02*
X105813866Y-98313095D01*
X105813866Y-98313095D02*
X105575771Y-98313095D01*
X105575771Y-98313095D02*
X105385295Y-98265476D01*
X105385295Y-98265476D02*
X105290057Y-98217857D01*
X105290057Y-98217857D02*
X105242438Y-98170238D01*
X105242438Y-98170238D02*
X105194819Y-98075000D01*
X106194819Y-96789286D02*
X106194819Y-97360714D01*
X106194819Y-97075000D02*
X105194819Y-97075000D01*
X105194819Y-97075000D02*
X105337676Y-97170238D01*
X105337676Y-97170238D02*
X105432914Y-97265476D01*
X105432914Y-97265476D02*
X105480533Y-97360714D01*
X106194819Y-96455952D02*
X105528152Y-95932143D01*
X105528152Y-96455952D02*
X106194819Y-95932143D01*
X105194819Y-95360714D02*
X105194819Y-95265476D01*
X105194819Y-95265476D02*
X105242438Y-95170238D01*
X105242438Y-95170238D02*
X105290057Y-95122619D01*
X105290057Y-95122619D02*
X105385295Y-95075000D01*
X105385295Y-95075000D02*
X105575771Y-95027381D01*
X105575771Y-95027381D02*
X105813866Y-95027381D01*
X105813866Y-95027381D02*
X106004342Y-95075000D01*
X106004342Y-95075000D02*
X106099580Y-95122619D01*
X106099580Y-95122619D02*
X106147200Y-95170238D01*
X106147200Y-95170238D02*
X106194819Y-95265476D01*
X106194819Y-95265476D02*
X106194819Y-95360714D01*
X106194819Y-95360714D02*
X106147200Y-95455952D01*
X106147200Y-95455952D02*
X106099580Y-95503571D01*
X106099580Y-95503571D02*
X106004342Y-95551190D01*
X106004342Y-95551190D02*
X105813866Y-95598809D01*
X105813866Y-95598809D02*
X105575771Y-95598809D01*
X105575771Y-95598809D02*
X105385295Y-95551190D01*
X105385295Y-95551190D02*
X105290057Y-95503571D01*
X105290057Y-95503571D02*
X105242438Y-95455952D01*
X105242438Y-95455952D02*
X105194819Y-95360714D01*
X105194819Y-94694047D02*
X105194819Y-94075000D01*
X105194819Y-94075000D02*
X105575771Y-94408333D01*
X105575771Y-94408333D02*
X105575771Y-94265476D01*
X105575771Y-94265476D02*
X105623390Y-94170238D01*
X105623390Y-94170238D02*
X105671009Y-94122619D01*
X105671009Y-94122619D02*
X105766247Y-94075000D01*
X105766247Y-94075000D02*
X106004342Y-94075000D01*
X106004342Y-94075000D02*
X106099580Y-94122619D01*
X106099580Y-94122619D02*
X106147200Y-94170238D01*
X106147200Y-94170238D02*
X106194819Y-94265476D01*
X106194819Y-94265476D02*
X106194819Y-94551190D01*
X106194819Y-94551190D02*
X106147200Y-94646428D01*
X106147200Y-94646428D02*
X106099580Y-94694047D01*
X106290057Y-93884524D02*
X106290057Y-93122619D01*
X106147200Y-92932142D02*
X106194819Y-92789285D01*
X106194819Y-92789285D02*
X106194819Y-92551190D01*
X106194819Y-92551190D02*
X106147200Y-92455952D01*
X106147200Y-92455952D02*
X106099580Y-92408333D01*
X106099580Y-92408333D02*
X106004342Y-92360714D01*
X106004342Y-92360714D02*
X105909104Y-92360714D01*
X105909104Y-92360714D02*
X105813866Y-92408333D01*
X105813866Y-92408333D02*
X105766247Y-92455952D01*
X105766247Y-92455952D02*
X105718628Y-92551190D01*
X105718628Y-92551190D02*
X105671009Y-92741666D01*
X105671009Y-92741666D02*
X105623390Y-92836904D01*
X105623390Y-92836904D02*
X105575771Y-92884523D01*
X105575771Y-92884523D02*
X105480533Y-92932142D01*
X105480533Y-92932142D02*
X105385295Y-92932142D01*
X105385295Y-92932142D02*
X105290057Y-92884523D01*
X105290057Y-92884523D02*
X105242438Y-92836904D01*
X105242438Y-92836904D02*
X105194819Y-92741666D01*
X105194819Y-92741666D02*
X105194819Y-92503571D01*
X105194819Y-92503571D02*
X105242438Y-92360714D01*
X106194819Y-91789285D02*
X106147200Y-91884523D01*
X106147200Y-91884523D02*
X106099580Y-91932142D01*
X106099580Y-91932142D02*
X106004342Y-91979761D01*
X106004342Y-91979761D02*
X105718628Y-91979761D01*
X105718628Y-91979761D02*
X105623390Y-91932142D01*
X105623390Y-91932142D02*
X105575771Y-91884523D01*
X105575771Y-91884523D02*
X105528152Y-91789285D01*
X105528152Y-91789285D02*
X105528152Y-91646428D01*
X105528152Y-91646428D02*
X105575771Y-91551190D01*
X105575771Y-91551190D02*
X105623390Y-91503571D01*
X105623390Y-91503571D02*
X105718628Y-91455952D01*
X105718628Y-91455952D02*
X106004342Y-91455952D01*
X106004342Y-91455952D02*
X106099580Y-91503571D01*
X106099580Y-91503571D02*
X106147200Y-91551190D01*
X106147200Y-91551190D02*
X106194819Y-91646428D01*
X106194819Y-91646428D02*
X106194819Y-91789285D01*
X106147200Y-90598809D02*
X106194819Y-90694047D01*
X106194819Y-90694047D02*
X106194819Y-90884523D01*
X106194819Y-90884523D02*
X106147200Y-90979761D01*
X106147200Y-90979761D02*
X106099580Y-91027380D01*
X106099580Y-91027380D02*
X106004342Y-91074999D01*
X106004342Y-91074999D02*
X105718628Y-91074999D01*
X105718628Y-91074999D02*
X105623390Y-91027380D01*
X105623390Y-91027380D02*
X105575771Y-90979761D01*
X105575771Y-90979761D02*
X105528152Y-90884523D01*
X105528152Y-90884523D02*
X105528152Y-90694047D01*
X105528152Y-90694047D02*
X105575771Y-90598809D01*
X106194819Y-90170237D02*
X105194819Y-90170237D01*
X105813866Y-90074999D02*
X106194819Y-89789285D01*
X105528152Y-89789285D02*
X105909104Y-90170237D01*
X106147200Y-88979761D02*
X106194819Y-89074999D01*
X106194819Y-89074999D02*
X106194819Y-89265475D01*
X106194819Y-89265475D02*
X106147200Y-89360713D01*
X106147200Y-89360713D02*
X106051961Y-89408332D01*
X106051961Y-89408332D02*
X105671009Y-89408332D01*
X105671009Y-89408332D02*
X105575771Y-89360713D01*
X105575771Y-89360713D02*
X105528152Y-89265475D01*
X105528152Y-89265475D02*
X105528152Y-89074999D01*
X105528152Y-89074999D02*
X105575771Y-88979761D01*
X105575771Y-88979761D02*
X105671009Y-88932142D01*
X105671009Y-88932142D02*
X105766247Y-88932142D01*
X105766247Y-88932142D02*
X105861485Y-89408332D01*
X105528152Y-88646427D02*
X105528152Y-88265475D01*
X105194819Y-88503570D02*
X106051961Y-88503570D01*
X106051961Y-88503570D02*
X106147200Y-88455951D01*
X106147200Y-88455951D02*
X106194819Y-88360713D01*
X106194819Y-88360713D02*
X106194819Y-88265475D01*
X110276666Y-95029819D02*
X110276666Y-95744104D01*
X110276666Y-95744104D02*
X110229047Y-95886961D01*
X110229047Y-95886961D02*
X110133809Y-95982200D01*
X110133809Y-95982200D02*
X109990952Y-96029819D01*
X109990952Y-96029819D02*
X109895714Y-96029819D01*
X110657619Y-95029819D02*
X111324285Y-95029819D01*
X111324285Y-95029819D02*
X110895714Y-96029819D01*
X112690475Y-119829580D02*
X112642856Y-119877200D01*
X112642856Y-119877200D02*
X112499999Y-119924819D01*
X112499999Y-119924819D02*
X112404761Y-119924819D01*
X112404761Y-119924819D02*
X112261904Y-119877200D01*
X112261904Y-119877200D02*
X112166666Y-119781961D01*
X112166666Y-119781961D02*
X112119047Y-119686723D01*
X112119047Y-119686723D02*
X112071428Y-119496247D01*
X112071428Y-119496247D02*
X112071428Y-119353390D01*
X112071428Y-119353390D02*
X112119047Y-119162914D01*
X112119047Y-119162914D02*
X112166666Y-119067676D01*
X112166666Y-119067676D02*
X112261904Y-118972438D01*
X112261904Y-118972438D02*
X112404761Y-118924819D01*
X112404761Y-118924819D02*
X112499999Y-118924819D01*
X112499999Y-118924819D02*
X112642856Y-118972438D01*
X112642856Y-118972438D02*
X112690475Y-119020057D01*
X113261904Y-119924819D02*
X113166666Y-119877200D01*
X113166666Y-119877200D02*
X113119047Y-119829580D01*
X113119047Y-119829580D02*
X113071428Y-119734342D01*
X113071428Y-119734342D02*
X113071428Y-119448628D01*
X113071428Y-119448628D02*
X113119047Y-119353390D01*
X113119047Y-119353390D02*
X113166666Y-119305771D01*
X113166666Y-119305771D02*
X113261904Y-119258152D01*
X113261904Y-119258152D02*
X113404761Y-119258152D01*
X113404761Y-119258152D02*
X113499999Y-119305771D01*
X113499999Y-119305771D02*
X113547618Y-119353390D01*
X113547618Y-119353390D02*
X113595237Y-119448628D01*
X113595237Y-119448628D02*
X113595237Y-119734342D01*
X113595237Y-119734342D02*
X113547618Y-119829580D01*
X113547618Y-119829580D02*
X113499999Y-119877200D01*
X113499999Y-119877200D02*
X113404761Y-119924819D01*
X113404761Y-119924819D02*
X113261904Y-119924819D01*
X114023809Y-119258152D02*
X114023809Y-119924819D01*
X114023809Y-119353390D02*
X114071428Y-119305771D01*
X114071428Y-119305771D02*
X114166666Y-119258152D01*
X114166666Y-119258152D02*
X114309523Y-119258152D01*
X114309523Y-119258152D02*
X114404761Y-119305771D01*
X114404761Y-119305771D02*
X114452380Y-119401009D01*
X114452380Y-119401009D02*
X114452380Y-119924819D01*
X114928571Y-119258152D02*
X114928571Y-119924819D01*
X114928571Y-119353390D02*
X114976190Y-119305771D01*
X114976190Y-119305771D02*
X115071428Y-119258152D01*
X115071428Y-119258152D02*
X115214285Y-119258152D01*
X115214285Y-119258152D02*
X115309523Y-119305771D01*
X115309523Y-119305771D02*
X115357142Y-119401009D01*
X115357142Y-119401009D02*
X115357142Y-119924819D01*
X115595238Y-120020057D02*
X116357142Y-120020057D01*
X116785714Y-118924819D02*
X116880952Y-118924819D01*
X116880952Y-118924819D02*
X116976190Y-118972438D01*
X116976190Y-118972438D02*
X117023809Y-119020057D01*
X117023809Y-119020057D02*
X117071428Y-119115295D01*
X117071428Y-119115295D02*
X117119047Y-119305771D01*
X117119047Y-119305771D02*
X117119047Y-119543866D01*
X117119047Y-119543866D02*
X117071428Y-119734342D01*
X117071428Y-119734342D02*
X117023809Y-119829580D01*
X117023809Y-119829580D02*
X116976190Y-119877200D01*
X116976190Y-119877200D02*
X116880952Y-119924819D01*
X116880952Y-119924819D02*
X116785714Y-119924819D01*
X116785714Y-119924819D02*
X116690476Y-119877200D01*
X116690476Y-119877200D02*
X116642857Y-119829580D01*
X116642857Y-119829580D02*
X116595238Y-119734342D01*
X116595238Y-119734342D02*
X116547619Y-119543866D01*
X116547619Y-119543866D02*
X116547619Y-119305771D01*
X116547619Y-119305771D02*
X116595238Y-119115295D01*
X116595238Y-119115295D02*
X116642857Y-119020057D01*
X116642857Y-119020057D02*
X116690476Y-118972438D01*
X116690476Y-118972438D02*
X116785714Y-118924819D01*
X118071428Y-119924819D02*
X117500000Y-119924819D01*
X117785714Y-119924819D02*
X117785714Y-118924819D01*
X117785714Y-118924819D02*
X117690476Y-119067676D01*
X117690476Y-119067676D02*
X117595238Y-119162914D01*
X117595238Y-119162914D02*
X117500000Y-119210533D01*
X118404762Y-119924819D02*
X118928571Y-119258152D01*
X118404762Y-119258152D02*
X118928571Y-119924819D01*
X119833333Y-119924819D02*
X119261905Y-119924819D01*
X119547619Y-119924819D02*
X119547619Y-118924819D01*
X119547619Y-118924819D02*
X119452381Y-119067676D01*
X119452381Y-119067676D02*
X119357143Y-119162914D01*
X119357143Y-119162914D02*
X119261905Y-119210533D01*
X120404762Y-119353390D02*
X120309524Y-119305771D01*
X120309524Y-119305771D02*
X120261905Y-119258152D01*
X120261905Y-119258152D02*
X120214286Y-119162914D01*
X120214286Y-119162914D02*
X120214286Y-119115295D01*
X120214286Y-119115295D02*
X120261905Y-119020057D01*
X120261905Y-119020057D02*
X120309524Y-118972438D01*
X120309524Y-118972438D02*
X120404762Y-118924819D01*
X120404762Y-118924819D02*
X120595238Y-118924819D01*
X120595238Y-118924819D02*
X120690476Y-118972438D01*
X120690476Y-118972438D02*
X120738095Y-119020057D01*
X120738095Y-119020057D02*
X120785714Y-119115295D01*
X120785714Y-119115295D02*
X120785714Y-119162914D01*
X120785714Y-119162914D02*
X120738095Y-119258152D01*
X120738095Y-119258152D02*
X120690476Y-119305771D01*
X120690476Y-119305771D02*
X120595238Y-119353390D01*
X120595238Y-119353390D02*
X120404762Y-119353390D01*
X120404762Y-119353390D02*
X120309524Y-119401009D01*
X120309524Y-119401009D02*
X120261905Y-119448628D01*
X120261905Y-119448628D02*
X120214286Y-119543866D01*
X120214286Y-119543866D02*
X120214286Y-119734342D01*
X120214286Y-119734342D02*
X120261905Y-119829580D01*
X120261905Y-119829580D02*
X120309524Y-119877200D01*
X120309524Y-119877200D02*
X120404762Y-119924819D01*
X120404762Y-119924819D02*
X120595238Y-119924819D01*
X120595238Y-119924819D02*
X120690476Y-119877200D01*
X120690476Y-119877200D02*
X120738095Y-119829580D01*
X120738095Y-119829580D02*
X120785714Y-119734342D01*
X120785714Y-119734342D02*
X120785714Y-119543866D01*
X120785714Y-119543866D02*
X120738095Y-119448628D01*
X120738095Y-119448628D02*
X120690476Y-119401009D01*
X120690476Y-119401009D02*
X120595238Y-119353390D01*
X120976191Y-120020057D02*
X121738095Y-120020057D01*
X121976191Y-119924819D02*
X121976191Y-118924819D01*
X121976191Y-118924819D02*
X122357143Y-118924819D01*
X122357143Y-118924819D02*
X122452381Y-118972438D01*
X122452381Y-118972438D02*
X122500000Y-119020057D01*
X122500000Y-119020057D02*
X122547619Y-119115295D01*
X122547619Y-119115295D02*
X122547619Y-119258152D01*
X122547619Y-119258152D02*
X122500000Y-119353390D01*
X122500000Y-119353390D02*
X122452381Y-119401009D01*
X122452381Y-119401009D02*
X122357143Y-119448628D01*
X122357143Y-119448628D02*
X121976191Y-119448628D01*
X122976191Y-119924819D02*
X122976191Y-119258152D01*
X122976191Y-118924819D02*
X122928572Y-118972438D01*
X122928572Y-118972438D02*
X122976191Y-119020057D01*
X122976191Y-119020057D02*
X123023810Y-118972438D01*
X123023810Y-118972438D02*
X122976191Y-118924819D01*
X122976191Y-118924819D02*
X122976191Y-119020057D01*
X123452381Y-119258152D02*
X123452381Y-119924819D01*
X123452381Y-119353390D02*
X123500000Y-119305771D01*
X123500000Y-119305771D02*
X123595238Y-119258152D01*
X123595238Y-119258152D02*
X123738095Y-119258152D01*
X123738095Y-119258152D02*
X123833333Y-119305771D01*
X123833333Y-119305771D02*
X123880952Y-119401009D01*
X123880952Y-119401009D02*
X123880952Y-119924819D01*
X117454819Y-95883333D02*
X118169104Y-95883333D01*
X118169104Y-95883333D02*
X118311961Y-95930952D01*
X118311961Y-95930952D02*
X118407200Y-96026190D01*
X118407200Y-96026190D02*
X118454819Y-96169047D01*
X118454819Y-96169047D02*
X118454819Y-96264285D01*
X118454819Y-94883333D02*
X118454819Y-95454761D01*
X118454819Y-95169047D02*
X117454819Y-95169047D01*
X117454819Y-95169047D02*
X117597676Y-95264285D01*
X117597676Y-95264285D02*
X117692914Y-95359523D01*
X117692914Y-95359523D02*
X117740533Y-95454761D01*
X104224286Y-74104819D02*
X104843333Y-74104819D01*
X104843333Y-74104819D02*
X104510000Y-74485771D01*
X104510000Y-74485771D02*
X104652857Y-74485771D01*
X104652857Y-74485771D02*
X104748095Y-74533390D01*
X104748095Y-74533390D02*
X104795714Y-74581009D01*
X104795714Y-74581009D02*
X104843333Y-74676247D01*
X104843333Y-74676247D02*
X104843333Y-74914342D01*
X104843333Y-74914342D02*
X104795714Y-75009580D01*
X104795714Y-75009580D02*
X104748095Y-75057200D01*
X104748095Y-75057200D02*
X104652857Y-75104819D01*
X104652857Y-75104819D02*
X104367143Y-75104819D01*
X104367143Y-75104819D02*
X104271905Y-75057200D01*
X104271905Y-75057200D02*
X104224286Y-75009580D01*
X105176667Y-74104819D02*
X105795714Y-74104819D01*
X105795714Y-74104819D02*
X105462381Y-74485771D01*
X105462381Y-74485771D02*
X105605238Y-74485771D01*
X105605238Y-74485771D02*
X105700476Y-74533390D01*
X105700476Y-74533390D02*
X105748095Y-74581009D01*
X105748095Y-74581009D02*
X105795714Y-74676247D01*
X105795714Y-74676247D02*
X105795714Y-74914342D01*
X105795714Y-74914342D02*
X105748095Y-75009580D01*
X105748095Y-75009580D02*
X105700476Y-75057200D01*
X105700476Y-75057200D02*
X105605238Y-75104819D01*
X105605238Y-75104819D02*
X105319524Y-75104819D01*
X105319524Y-75104819D02*
X105224286Y-75057200D01*
X105224286Y-75057200D02*
X105176667Y-75009580D01*
X106414762Y-74104819D02*
X106510000Y-74104819D01*
X106510000Y-74104819D02*
X106605238Y-74152438D01*
X106605238Y-74152438D02*
X106652857Y-74200057D01*
X106652857Y-74200057D02*
X106700476Y-74295295D01*
X106700476Y-74295295D02*
X106748095Y-74485771D01*
X106748095Y-74485771D02*
X106748095Y-74723866D01*
X106748095Y-74723866D02*
X106700476Y-74914342D01*
X106700476Y-74914342D02*
X106652857Y-75009580D01*
X106652857Y-75009580D02*
X106605238Y-75057200D01*
X106605238Y-75057200D02*
X106510000Y-75104819D01*
X106510000Y-75104819D02*
X106414762Y-75104819D01*
X106414762Y-75104819D02*
X106319524Y-75057200D01*
X106319524Y-75057200D02*
X106271905Y-75009580D01*
X106271905Y-75009580D02*
X106224286Y-74914342D01*
X106224286Y-74914342D02*
X106176667Y-74723866D01*
X106176667Y-74723866D02*
X106176667Y-74485771D01*
X106176667Y-74485771D02*
X106224286Y-74295295D01*
X106224286Y-74295295D02*
X106271905Y-74200057D01*
X106271905Y-74200057D02*
X106319524Y-74152438D01*
X106319524Y-74152438D02*
X106414762Y-74104819D01*
X105343333Y-72734819D02*
X105010000Y-72258628D01*
X104771905Y-72734819D02*
X104771905Y-71734819D01*
X104771905Y-71734819D02*
X105152857Y-71734819D01*
X105152857Y-71734819D02*
X105248095Y-71782438D01*
X105248095Y-71782438D02*
X105295714Y-71830057D01*
X105295714Y-71830057D02*
X105343333Y-71925295D01*
X105343333Y-71925295D02*
X105343333Y-72068152D01*
X105343333Y-72068152D02*
X105295714Y-72163390D01*
X105295714Y-72163390D02*
X105248095Y-72211009D01*
X105248095Y-72211009D02*
X105152857Y-72258628D01*
X105152857Y-72258628D02*
X104771905Y-72258628D01*
X106295714Y-72734819D02*
X105724286Y-72734819D01*
X106010000Y-72734819D02*
X106010000Y-71734819D01*
X106010000Y-71734819D02*
X105914762Y-71877676D01*
X105914762Y-71877676D02*
X105819524Y-71972914D01*
X105819524Y-71972914D02*
X105724286Y-72020533D01*
X94454819Y-106694047D02*
X94454819Y-106598809D01*
X94454819Y-106598809D02*
X94502438Y-106503571D01*
X94502438Y-106503571D02*
X94550057Y-106455952D01*
X94550057Y-106455952D02*
X94645295Y-106408333D01*
X94645295Y-106408333D02*
X94835771Y-106360714D01*
X94835771Y-106360714D02*
X95073866Y-106360714D01*
X95073866Y-106360714D02*
X95264342Y-106408333D01*
X95264342Y-106408333D02*
X95359580Y-106455952D01*
X95359580Y-106455952D02*
X95407200Y-106503571D01*
X95407200Y-106503571D02*
X95454819Y-106598809D01*
X95454819Y-106598809D02*
X95454819Y-106694047D01*
X95454819Y-106694047D02*
X95407200Y-106789285D01*
X95407200Y-106789285D02*
X95359580Y-106836904D01*
X95359580Y-106836904D02*
X95264342Y-106884523D01*
X95264342Y-106884523D02*
X95073866Y-106932142D01*
X95073866Y-106932142D02*
X94835771Y-106932142D01*
X94835771Y-106932142D02*
X94645295Y-106884523D01*
X94645295Y-106884523D02*
X94550057Y-106836904D01*
X94550057Y-106836904D02*
X94502438Y-106789285D01*
X94502438Y-106789285D02*
X94454819Y-106694047D01*
X95359580Y-105932142D02*
X95407200Y-105884523D01*
X95407200Y-105884523D02*
X95454819Y-105932142D01*
X95454819Y-105932142D02*
X95407200Y-105979761D01*
X95407200Y-105979761D02*
X95359580Y-105932142D01*
X95359580Y-105932142D02*
X95454819Y-105932142D01*
X94454819Y-105551190D02*
X94454819Y-104932143D01*
X94454819Y-104932143D02*
X94835771Y-105265476D01*
X94835771Y-105265476D02*
X94835771Y-105122619D01*
X94835771Y-105122619D02*
X94883390Y-105027381D01*
X94883390Y-105027381D02*
X94931009Y-104979762D01*
X94931009Y-104979762D02*
X95026247Y-104932143D01*
X95026247Y-104932143D02*
X95264342Y-104932143D01*
X95264342Y-104932143D02*
X95359580Y-104979762D01*
X95359580Y-104979762D02*
X95407200Y-105027381D01*
X95407200Y-105027381D02*
X95454819Y-105122619D01*
X95454819Y-105122619D02*
X95454819Y-105408333D01*
X95454819Y-105408333D02*
X95407200Y-105503571D01*
X95407200Y-105503571D02*
X95359580Y-105551190D01*
X94454819Y-104598809D02*
X94454819Y-103979762D01*
X94454819Y-103979762D02*
X94835771Y-104313095D01*
X94835771Y-104313095D02*
X94835771Y-104170238D01*
X94835771Y-104170238D02*
X94883390Y-104075000D01*
X94883390Y-104075000D02*
X94931009Y-104027381D01*
X94931009Y-104027381D02*
X95026247Y-103979762D01*
X95026247Y-103979762D02*
X95264342Y-103979762D01*
X95264342Y-103979762D02*
X95359580Y-104027381D01*
X95359580Y-104027381D02*
X95407200Y-104075000D01*
X95407200Y-104075000D02*
X95454819Y-104170238D01*
X95454819Y-104170238D02*
X95454819Y-104455952D01*
X95454819Y-104455952D02*
X95407200Y-104551190D01*
X95407200Y-104551190D02*
X95359580Y-104598809D01*
X94788152Y-103551190D02*
X95788152Y-103551190D01*
X94835771Y-103551190D02*
X94788152Y-103455952D01*
X94788152Y-103455952D02*
X94788152Y-103265476D01*
X94788152Y-103265476D02*
X94835771Y-103170238D01*
X94835771Y-103170238D02*
X94883390Y-103122619D01*
X94883390Y-103122619D02*
X94978628Y-103075000D01*
X94978628Y-103075000D02*
X95264342Y-103075000D01*
X95264342Y-103075000D02*
X95359580Y-103122619D01*
X95359580Y-103122619D02*
X95407200Y-103170238D01*
X95407200Y-103170238D02*
X95454819Y-103265476D01*
X95454819Y-103265476D02*
X95454819Y-103455952D01*
X95454819Y-103455952D02*
X95407200Y-103551190D01*
X94931009Y-102313095D02*
X94931009Y-102646428D01*
X95454819Y-102646428D02*
X94454819Y-102646428D01*
X94454819Y-102646428D02*
X94454819Y-102170238D01*
D11*
X97265748Y-104674999D02*
X97294320Y-104703571D01*
X97294320Y-104703571D02*
X97322891Y-104789285D01*
X97322891Y-104789285D02*
X97322891Y-104846428D01*
X97322891Y-104846428D02*
X97294320Y-104932142D01*
X97294320Y-104932142D02*
X97237177Y-104989285D01*
X97237177Y-104989285D02*
X97180034Y-105017856D01*
X97180034Y-105017856D02*
X97065748Y-105046428D01*
X97065748Y-105046428D02*
X96980034Y-105046428D01*
X96980034Y-105046428D02*
X96865748Y-105017856D01*
X96865748Y-105017856D02*
X96808605Y-104989285D01*
X96808605Y-104989285D02*
X96751462Y-104932142D01*
X96751462Y-104932142D02*
X96722891Y-104846428D01*
X96722891Y-104846428D02*
X96722891Y-104789285D01*
X96722891Y-104789285D02*
X96751462Y-104703571D01*
X96751462Y-104703571D02*
X96780034Y-104674999D01*
X96722891Y-104474999D02*
X96722891Y-104103571D01*
X96722891Y-104103571D02*
X96951462Y-104303571D01*
X96951462Y-104303571D02*
X96951462Y-104217856D01*
X96951462Y-104217856D02*
X96980034Y-104160714D01*
X96980034Y-104160714D02*
X97008605Y-104132142D01*
X97008605Y-104132142D02*
X97065748Y-104103571D01*
X97065748Y-104103571D02*
X97208605Y-104103571D01*
X97208605Y-104103571D02*
X97265748Y-104132142D01*
X97265748Y-104132142D02*
X97294320Y-104160714D01*
X97294320Y-104160714D02*
X97322891Y-104217856D01*
X97322891Y-104217856D02*
X97322891Y-104389285D01*
X97322891Y-104389285D02*
X97294320Y-104446428D01*
X97294320Y-104446428D02*
X97265748Y-104474999D01*
D10*
X86113866Y-119480713D02*
X86113866Y-118718809D01*
X86494819Y-119099761D02*
X85732914Y-119099761D01*
X85923390Y-118099761D02*
X85875771Y-118194999D01*
X85875771Y-118194999D02*
X85828152Y-118242618D01*
X85828152Y-118242618D02*
X85732914Y-118290237D01*
X85732914Y-118290237D02*
X85685295Y-118290237D01*
X85685295Y-118290237D02*
X85590057Y-118242618D01*
X85590057Y-118242618D02*
X85542438Y-118194999D01*
X85542438Y-118194999D02*
X85494819Y-118099761D01*
X85494819Y-118099761D02*
X85494819Y-117909285D01*
X85494819Y-117909285D02*
X85542438Y-117814047D01*
X85542438Y-117814047D02*
X85590057Y-117766428D01*
X85590057Y-117766428D02*
X85685295Y-117718809D01*
X85685295Y-117718809D02*
X85732914Y-117718809D01*
X85732914Y-117718809D02*
X85828152Y-117766428D01*
X85828152Y-117766428D02*
X85875771Y-117814047D01*
X85875771Y-117814047D02*
X85923390Y-117909285D01*
X85923390Y-117909285D02*
X85923390Y-118099761D01*
X85923390Y-118099761D02*
X85971009Y-118194999D01*
X85971009Y-118194999D02*
X86018628Y-118242618D01*
X86018628Y-118242618D02*
X86113866Y-118290237D01*
X86113866Y-118290237D02*
X86304342Y-118290237D01*
X86304342Y-118290237D02*
X86399580Y-118242618D01*
X86399580Y-118242618D02*
X86447200Y-118194999D01*
X86447200Y-118194999D02*
X86494819Y-118099761D01*
X86494819Y-118099761D02*
X86494819Y-117909285D01*
X86494819Y-117909285D02*
X86447200Y-117814047D01*
X86447200Y-117814047D02*
X86399580Y-117766428D01*
X86399580Y-117766428D02*
X86304342Y-117718809D01*
X86304342Y-117718809D02*
X86113866Y-117718809D01*
X86113866Y-117718809D02*
X86018628Y-117766428D01*
X86018628Y-117766428D02*
X85971009Y-117814047D01*
X85971009Y-117814047D02*
X85923390Y-117909285D01*
X85494819Y-117433094D02*
X86494819Y-117099761D01*
X86494819Y-117099761D02*
X85494819Y-116766428D01*
X88849285Y-118001009D02*
X88992142Y-118048628D01*
X88992142Y-118048628D02*
X89039761Y-118096247D01*
X89039761Y-118096247D02*
X89087380Y-118191485D01*
X89087380Y-118191485D02*
X89087380Y-118334342D01*
X89087380Y-118334342D02*
X89039761Y-118429580D01*
X89039761Y-118429580D02*
X88992142Y-118477200D01*
X88992142Y-118477200D02*
X88896904Y-118524819D01*
X88896904Y-118524819D02*
X88515952Y-118524819D01*
X88515952Y-118524819D02*
X88515952Y-117524819D01*
X88515952Y-117524819D02*
X88849285Y-117524819D01*
X88849285Y-117524819D02*
X88944523Y-117572438D01*
X88944523Y-117572438D02*
X88992142Y-117620057D01*
X88992142Y-117620057D02*
X89039761Y-117715295D01*
X89039761Y-117715295D02*
X89039761Y-117810533D01*
X89039761Y-117810533D02*
X88992142Y-117905771D01*
X88992142Y-117905771D02*
X88944523Y-117953390D01*
X88944523Y-117953390D02*
X88849285Y-118001009D01*
X88849285Y-118001009D02*
X88515952Y-118001009D01*
X89373095Y-117524819D02*
X89944523Y-117524819D01*
X89658809Y-118524819D02*
X89658809Y-117524819D01*
X90801666Y-118524819D02*
X90230238Y-118524819D01*
X90515952Y-118524819D02*
X90515952Y-117524819D01*
X90515952Y-117524819D02*
X90420714Y-117667676D01*
X90420714Y-117667676D02*
X90325476Y-117762914D01*
X90325476Y-117762914D02*
X90230238Y-117810533D01*
X108379819Y-119420238D02*
X108379819Y-119991666D01*
X108379819Y-119705952D02*
X107379819Y-119705952D01*
X107379819Y-119705952D02*
X107522676Y-119801190D01*
X107522676Y-119801190D02*
X107617914Y-119896428D01*
X107617914Y-119896428D02*
X107665533Y-119991666D01*
X107379819Y-118801190D02*
X107379819Y-118705952D01*
X107379819Y-118705952D02*
X107427438Y-118610714D01*
X107427438Y-118610714D02*
X107475057Y-118563095D01*
X107475057Y-118563095D02*
X107570295Y-118515476D01*
X107570295Y-118515476D02*
X107760771Y-118467857D01*
X107760771Y-118467857D02*
X107998866Y-118467857D01*
X107998866Y-118467857D02*
X108189342Y-118515476D01*
X108189342Y-118515476D02*
X108284580Y-118563095D01*
X108284580Y-118563095D02*
X108332200Y-118610714D01*
X108332200Y-118610714D02*
X108379819Y-118705952D01*
X108379819Y-118705952D02*
X108379819Y-118801190D01*
X108379819Y-118801190D02*
X108332200Y-118896428D01*
X108332200Y-118896428D02*
X108284580Y-118944047D01*
X108284580Y-118944047D02*
X108189342Y-118991666D01*
X108189342Y-118991666D02*
X107998866Y-119039285D01*
X107998866Y-119039285D02*
X107760771Y-119039285D01*
X107760771Y-119039285D02*
X107570295Y-118991666D01*
X107570295Y-118991666D02*
X107475057Y-118944047D01*
X107475057Y-118944047D02*
X107427438Y-118896428D01*
X107427438Y-118896428D02*
X107379819Y-118801190D01*
X107379819Y-117848809D02*
X107379819Y-117753571D01*
X107379819Y-117753571D02*
X107427438Y-117658333D01*
X107427438Y-117658333D02*
X107475057Y-117610714D01*
X107475057Y-117610714D02*
X107570295Y-117563095D01*
X107570295Y-117563095D02*
X107760771Y-117515476D01*
X107760771Y-117515476D02*
X107998866Y-117515476D01*
X107998866Y-117515476D02*
X108189342Y-117563095D01*
X108189342Y-117563095D02*
X108284580Y-117610714D01*
X108284580Y-117610714D02*
X108332200Y-117658333D01*
X108332200Y-117658333D02*
X108379819Y-117753571D01*
X108379819Y-117753571D02*
X108379819Y-117848809D01*
X108379819Y-117848809D02*
X108332200Y-117944047D01*
X108332200Y-117944047D02*
X108284580Y-117991666D01*
X108284580Y-117991666D02*
X108189342Y-118039285D01*
X108189342Y-118039285D02*
X107998866Y-118086904D01*
X107998866Y-118086904D02*
X107760771Y-118086904D01*
X107760771Y-118086904D02*
X107570295Y-118039285D01*
X107570295Y-118039285D02*
X107475057Y-117991666D01*
X107475057Y-117991666D02*
X107427438Y-117944047D01*
X107427438Y-117944047D02*
X107379819Y-117848809D01*
X107379819Y-116896428D02*
X107379819Y-116801190D01*
X107379819Y-116801190D02*
X107427438Y-116705952D01*
X107427438Y-116705952D02*
X107475057Y-116658333D01*
X107475057Y-116658333D02*
X107570295Y-116610714D01*
X107570295Y-116610714D02*
X107760771Y-116563095D01*
X107760771Y-116563095D02*
X107998866Y-116563095D01*
X107998866Y-116563095D02*
X108189342Y-116610714D01*
X108189342Y-116610714D02*
X108284580Y-116658333D01*
X108284580Y-116658333D02*
X108332200Y-116705952D01*
X108332200Y-116705952D02*
X108379819Y-116801190D01*
X108379819Y-116801190D02*
X108379819Y-116896428D01*
X108379819Y-116896428D02*
X108332200Y-116991666D01*
X108332200Y-116991666D02*
X108284580Y-117039285D01*
X108284580Y-117039285D02*
X108189342Y-117086904D01*
X108189342Y-117086904D02*
X107998866Y-117134523D01*
X107998866Y-117134523D02*
X107760771Y-117134523D01*
X107760771Y-117134523D02*
X107570295Y-117086904D01*
X107570295Y-117086904D02*
X107475057Y-117039285D01*
X107475057Y-117039285D02*
X107427438Y-116991666D01*
X107427438Y-116991666D02*
X107379819Y-116896428D01*
X107713152Y-115705952D02*
X108379819Y-115705952D01*
X107713152Y-116134523D02*
X108236961Y-116134523D01*
X108236961Y-116134523D02*
X108332200Y-116086904D01*
X108332200Y-116086904D02*
X108379819Y-115991666D01*
X108379819Y-115991666D02*
X108379819Y-115848809D01*
X108379819Y-115848809D02*
X108332200Y-115753571D01*
X108332200Y-115753571D02*
X108284580Y-115705952D01*
X101734580Y-113590625D02*
X101782200Y-113638244D01*
X101782200Y-113638244D02*
X101829819Y-113781101D01*
X101829819Y-113781101D02*
X101829819Y-113876339D01*
X101829819Y-113876339D02*
X101782200Y-114019196D01*
X101782200Y-114019196D02*
X101686961Y-114114434D01*
X101686961Y-114114434D02*
X101591723Y-114162053D01*
X101591723Y-114162053D02*
X101401247Y-114209672D01*
X101401247Y-114209672D02*
X101258390Y-114209672D01*
X101258390Y-114209672D02*
X101067914Y-114162053D01*
X101067914Y-114162053D02*
X100972676Y-114114434D01*
X100972676Y-114114434D02*
X100877438Y-114019196D01*
X100877438Y-114019196D02*
X100829819Y-113876339D01*
X100829819Y-113876339D02*
X100829819Y-113781101D01*
X100829819Y-113781101D02*
X100877438Y-113638244D01*
X100877438Y-113638244D02*
X100925057Y-113590625D01*
X101163152Y-112733482D02*
X101829819Y-112733482D01*
X100782200Y-112971577D02*
X101496485Y-113209672D01*
X101496485Y-113209672D02*
X101496485Y-112590625D01*
X106099580Y-97470239D02*
X106147200Y-97517858D01*
X106147200Y-97517858D02*
X106194819Y-97660715D01*
X106194819Y-97660715D02*
X106194819Y-97755953D01*
X106194819Y-97755953D02*
X106147200Y-97898810D01*
X106147200Y-97898810D02*
X106051961Y-97994048D01*
X106051961Y-97994048D02*
X105956723Y-98041667D01*
X105956723Y-98041667D02*
X105766247Y-98089286D01*
X105766247Y-98089286D02*
X105623390Y-98089286D01*
X105623390Y-98089286D02*
X105432914Y-98041667D01*
X105432914Y-98041667D02*
X105337676Y-97994048D01*
X105337676Y-97994048D02*
X105242438Y-97898810D01*
X105242438Y-97898810D02*
X105194819Y-97755953D01*
X105194819Y-97755953D02*
X105194819Y-97660715D01*
X105194819Y-97660715D02*
X105242438Y-97517858D01*
X105242438Y-97517858D02*
X105290057Y-97470239D01*
X106194819Y-96898810D02*
X106147200Y-96994048D01*
X106147200Y-96994048D02*
X106099580Y-97041667D01*
X106099580Y-97041667D02*
X106004342Y-97089286D01*
X106004342Y-97089286D02*
X105718628Y-97089286D01*
X105718628Y-97089286D02*
X105623390Y-97041667D01*
X105623390Y-97041667D02*
X105575771Y-96994048D01*
X105575771Y-96994048D02*
X105528152Y-96898810D01*
X105528152Y-96898810D02*
X105528152Y-96755953D01*
X105528152Y-96755953D02*
X105575771Y-96660715D01*
X105575771Y-96660715D02*
X105623390Y-96613096D01*
X105623390Y-96613096D02*
X105718628Y-96565477D01*
X105718628Y-96565477D02*
X106004342Y-96565477D01*
X106004342Y-96565477D02*
X106099580Y-96613096D01*
X106099580Y-96613096D02*
X106147200Y-96660715D01*
X106147200Y-96660715D02*
X106194819Y-96755953D01*
X106194819Y-96755953D02*
X106194819Y-96898810D01*
X105528152Y-96136905D02*
X106194819Y-96136905D01*
X105623390Y-96136905D02*
X105575771Y-96089286D01*
X105575771Y-96089286D02*
X105528152Y-95994048D01*
X105528152Y-95994048D02*
X105528152Y-95851191D01*
X105528152Y-95851191D02*
X105575771Y-95755953D01*
X105575771Y-95755953D02*
X105671009Y-95708334D01*
X105671009Y-95708334D02*
X106194819Y-95708334D01*
X105528152Y-95232143D02*
X106194819Y-95232143D01*
X105623390Y-95232143D02*
X105575771Y-95184524D01*
X105575771Y-95184524D02*
X105528152Y-95089286D01*
X105528152Y-95089286D02*
X105528152Y-94946429D01*
X105528152Y-94946429D02*
X105575771Y-94851191D01*
X105575771Y-94851191D02*
X105671009Y-94803572D01*
X105671009Y-94803572D02*
X106194819Y-94803572D01*
X106290057Y-94565477D02*
X106290057Y-93803572D01*
X105194819Y-93375000D02*
X105194819Y-93279762D01*
X105194819Y-93279762D02*
X105242438Y-93184524D01*
X105242438Y-93184524D02*
X105290057Y-93136905D01*
X105290057Y-93136905D02*
X105385295Y-93089286D01*
X105385295Y-93089286D02*
X105575771Y-93041667D01*
X105575771Y-93041667D02*
X105813866Y-93041667D01*
X105813866Y-93041667D02*
X106004342Y-93089286D01*
X106004342Y-93089286D02*
X106099580Y-93136905D01*
X106099580Y-93136905D02*
X106147200Y-93184524D01*
X106147200Y-93184524D02*
X106194819Y-93279762D01*
X106194819Y-93279762D02*
X106194819Y-93375000D01*
X106194819Y-93375000D02*
X106147200Y-93470238D01*
X106147200Y-93470238D02*
X106099580Y-93517857D01*
X106099580Y-93517857D02*
X106004342Y-93565476D01*
X106004342Y-93565476D02*
X105813866Y-93613095D01*
X105813866Y-93613095D02*
X105575771Y-93613095D01*
X105575771Y-93613095D02*
X105385295Y-93565476D01*
X105385295Y-93565476D02*
X105290057Y-93517857D01*
X105290057Y-93517857D02*
X105242438Y-93470238D01*
X105242438Y-93470238D02*
X105194819Y-93375000D01*
X106194819Y-92089286D02*
X106194819Y-92660714D01*
X106194819Y-92375000D02*
X105194819Y-92375000D01*
X105194819Y-92375000D02*
X105337676Y-92470238D01*
X105337676Y-92470238D02*
X105432914Y-92565476D01*
X105432914Y-92565476D02*
X105480533Y-92660714D01*
X106194819Y-91755952D02*
X105528152Y-91232143D01*
X105528152Y-91755952D02*
X106194819Y-91232143D01*
X105194819Y-90660714D02*
X105194819Y-90565476D01*
X105194819Y-90565476D02*
X105242438Y-90470238D01*
X105242438Y-90470238D02*
X105290057Y-90422619D01*
X105290057Y-90422619D02*
X105385295Y-90375000D01*
X105385295Y-90375000D02*
X105575771Y-90327381D01*
X105575771Y-90327381D02*
X105813866Y-90327381D01*
X105813866Y-90327381D02*
X106004342Y-90375000D01*
X106004342Y-90375000D02*
X106099580Y-90422619D01*
X106099580Y-90422619D02*
X106147200Y-90470238D01*
X106147200Y-90470238D02*
X106194819Y-90565476D01*
X106194819Y-90565476D02*
X106194819Y-90660714D01*
X106194819Y-90660714D02*
X106147200Y-90755952D01*
X106147200Y-90755952D02*
X106099580Y-90803571D01*
X106099580Y-90803571D02*
X106004342Y-90851190D01*
X106004342Y-90851190D02*
X105813866Y-90898809D01*
X105813866Y-90898809D02*
X105575771Y-90898809D01*
X105575771Y-90898809D02*
X105385295Y-90851190D01*
X105385295Y-90851190D02*
X105290057Y-90803571D01*
X105290057Y-90803571D02*
X105242438Y-90755952D01*
X105242438Y-90755952D02*
X105194819Y-90660714D01*
X105194819Y-89994047D02*
X105194819Y-89375000D01*
X105194819Y-89375000D02*
X105575771Y-89708333D01*
X105575771Y-89708333D02*
X105575771Y-89565476D01*
X105575771Y-89565476D02*
X105623390Y-89470238D01*
X105623390Y-89470238D02*
X105671009Y-89422619D01*
X105671009Y-89422619D02*
X105766247Y-89375000D01*
X105766247Y-89375000D02*
X106004342Y-89375000D01*
X106004342Y-89375000D02*
X106099580Y-89422619D01*
X106099580Y-89422619D02*
X106147200Y-89470238D01*
X106147200Y-89470238D02*
X106194819Y-89565476D01*
X106194819Y-89565476D02*
X106194819Y-89851190D01*
X106194819Y-89851190D02*
X106147200Y-89946428D01*
X106147200Y-89946428D02*
X106099580Y-89994047D01*
X106290057Y-89184524D02*
X106290057Y-88422619D01*
X106147200Y-88232142D02*
X106194819Y-88089285D01*
X106194819Y-88089285D02*
X106194819Y-87851190D01*
X106194819Y-87851190D02*
X106147200Y-87755952D01*
X106147200Y-87755952D02*
X106099580Y-87708333D01*
X106099580Y-87708333D02*
X106004342Y-87660714D01*
X106004342Y-87660714D02*
X105909104Y-87660714D01*
X105909104Y-87660714D02*
X105813866Y-87708333D01*
X105813866Y-87708333D02*
X105766247Y-87755952D01*
X105766247Y-87755952D02*
X105718628Y-87851190D01*
X105718628Y-87851190D02*
X105671009Y-88041666D01*
X105671009Y-88041666D02*
X105623390Y-88136904D01*
X105623390Y-88136904D02*
X105575771Y-88184523D01*
X105575771Y-88184523D02*
X105480533Y-88232142D01*
X105480533Y-88232142D02*
X105385295Y-88232142D01*
X105385295Y-88232142D02*
X105290057Y-88184523D01*
X105290057Y-88184523D02*
X105242438Y-88136904D01*
X105242438Y-88136904D02*
X105194819Y-88041666D01*
X105194819Y-88041666D02*
X105194819Y-87803571D01*
X105194819Y-87803571D02*
X105242438Y-87660714D01*
X106194819Y-87089285D02*
X106147200Y-87184523D01*
X106147200Y-87184523D02*
X106099580Y-87232142D01*
X106099580Y-87232142D02*
X106004342Y-87279761D01*
X106004342Y-87279761D02*
X105718628Y-87279761D01*
X105718628Y-87279761D02*
X105623390Y-87232142D01*
X105623390Y-87232142D02*
X105575771Y-87184523D01*
X105575771Y-87184523D02*
X105528152Y-87089285D01*
X105528152Y-87089285D02*
X105528152Y-86946428D01*
X105528152Y-86946428D02*
X105575771Y-86851190D01*
X105575771Y-86851190D02*
X105623390Y-86803571D01*
X105623390Y-86803571D02*
X105718628Y-86755952D01*
X105718628Y-86755952D02*
X106004342Y-86755952D01*
X106004342Y-86755952D02*
X106099580Y-86803571D01*
X106099580Y-86803571D02*
X106147200Y-86851190D01*
X106147200Y-86851190D02*
X106194819Y-86946428D01*
X106194819Y-86946428D02*
X106194819Y-87089285D01*
X106147200Y-85898809D02*
X106194819Y-85994047D01*
X106194819Y-85994047D02*
X106194819Y-86184523D01*
X106194819Y-86184523D02*
X106147200Y-86279761D01*
X106147200Y-86279761D02*
X106099580Y-86327380D01*
X106099580Y-86327380D02*
X106004342Y-86374999D01*
X106004342Y-86374999D02*
X105718628Y-86374999D01*
X105718628Y-86374999D02*
X105623390Y-86327380D01*
X105623390Y-86327380D02*
X105575771Y-86279761D01*
X105575771Y-86279761D02*
X105528152Y-86184523D01*
X105528152Y-86184523D02*
X105528152Y-85994047D01*
X105528152Y-85994047D02*
X105575771Y-85898809D01*
X106194819Y-85470237D02*
X105194819Y-85470237D01*
X105813866Y-85374999D02*
X106194819Y-85089285D01*
X105528152Y-85089285D02*
X105909104Y-85470237D01*
X106147200Y-84279761D02*
X106194819Y-84374999D01*
X106194819Y-84374999D02*
X106194819Y-84565475D01*
X106194819Y-84565475D02*
X106147200Y-84660713D01*
X106147200Y-84660713D02*
X106051961Y-84708332D01*
X106051961Y-84708332D02*
X105671009Y-84708332D01*
X105671009Y-84708332D02*
X105575771Y-84660713D01*
X105575771Y-84660713D02*
X105528152Y-84565475D01*
X105528152Y-84565475D02*
X105528152Y-84374999D01*
X105528152Y-84374999D02*
X105575771Y-84279761D01*
X105575771Y-84279761D02*
X105671009Y-84232142D01*
X105671009Y-84232142D02*
X105766247Y-84232142D01*
X105766247Y-84232142D02*
X105861485Y-84708332D01*
X105528152Y-83946427D02*
X105528152Y-83565475D01*
X105194819Y-83803570D02*
X106051961Y-83803570D01*
X106051961Y-83803570D02*
X106147200Y-83755951D01*
X106147200Y-83755951D02*
X106194819Y-83660713D01*
X106194819Y-83660713D02*
X106194819Y-83565475D01*
X110276666Y-90329819D02*
X110276666Y-91044104D01*
X110276666Y-91044104D02*
X110229047Y-91186961D01*
X110229047Y-91186961D02*
X110133809Y-91282200D01*
X110133809Y-91282200D02*
X109990952Y-91329819D01*
X109990952Y-91329819D02*
X109895714Y-91329819D01*
X111181428Y-90329819D02*
X110990952Y-90329819D01*
X110990952Y-90329819D02*
X110895714Y-90377438D01*
X110895714Y-90377438D02*
X110848095Y-90425057D01*
X110848095Y-90425057D02*
X110752857Y-90567914D01*
X110752857Y-90567914D02*
X110705238Y-90758390D01*
X110705238Y-90758390D02*
X110705238Y-91139342D01*
X110705238Y-91139342D02*
X110752857Y-91234580D01*
X110752857Y-91234580D02*
X110800476Y-91282200D01*
X110800476Y-91282200D02*
X110895714Y-91329819D01*
X110895714Y-91329819D02*
X111086190Y-91329819D01*
X111086190Y-91329819D02*
X111181428Y-91282200D01*
X111181428Y-91282200D02*
X111229047Y-91234580D01*
X111229047Y-91234580D02*
X111276666Y-91139342D01*
X111276666Y-91139342D02*
X111276666Y-90901247D01*
X111276666Y-90901247D02*
X111229047Y-90806009D01*
X111229047Y-90806009D02*
X111181428Y-90758390D01*
X111181428Y-90758390D02*
X111086190Y-90710771D01*
X111086190Y-90710771D02*
X110895714Y-90710771D01*
X110895714Y-90710771D02*
X110800476Y-90758390D01*
X110800476Y-90758390D02*
X110752857Y-90806009D01*
X110752857Y-90806009D02*
X110705238Y-90901247D01*
X111380952Y-110354819D02*
X110809524Y-110354819D01*
X111095238Y-110354819D02*
X111095238Y-109354819D01*
X111095238Y-109354819D02*
X111000000Y-109497676D01*
X111000000Y-109497676D02*
X110904762Y-109592914D01*
X110904762Y-109592914D02*
X110809524Y-109640533D01*
X112000000Y-109354819D02*
X112095238Y-109354819D01*
X112095238Y-109354819D02*
X112190476Y-109402438D01*
X112190476Y-109402438D02*
X112238095Y-109450057D01*
X112238095Y-109450057D02*
X112285714Y-109545295D01*
X112285714Y-109545295D02*
X112333333Y-109735771D01*
X112333333Y-109735771D02*
X112333333Y-109973866D01*
X112333333Y-109973866D02*
X112285714Y-110164342D01*
X112285714Y-110164342D02*
X112238095Y-110259580D01*
X112238095Y-110259580D02*
X112190476Y-110307200D01*
X112190476Y-110307200D02*
X112095238Y-110354819D01*
X112095238Y-110354819D02*
X112000000Y-110354819D01*
X112000000Y-110354819D02*
X111904762Y-110307200D01*
X111904762Y-110307200D02*
X111857143Y-110259580D01*
X111857143Y-110259580D02*
X111809524Y-110164342D01*
X111809524Y-110164342D02*
X111761905Y-109973866D01*
X111761905Y-109973866D02*
X111761905Y-109735771D01*
X111761905Y-109735771D02*
X111809524Y-109545295D01*
X111809524Y-109545295D02*
X111857143Y-109450057D01*
X111857143Y-109450057D02*
X111904762Y-109402438D01*
X111904762Y-109402438D02*
X112000000Y-109354819D01*
X112952381Y-109354819D02*
X113047619Y-109354819D01*
X113047619Y-109354819D02*
X113142857Y-109402438D01*
X113142857Y-109402438D02*
X113190476Y-109450057D01*
X113190476Y-109450057D02*
X113238095Y-109545295D01*
X113238095Y-109545295D02*
X113285714Y-109735771D01*
X113285714Y-109735771D02*
X113285714Y-109973866D01*
X113285714Y-109973866D02*
X113238095Y-110164342D01*
X113238095Y-110164342D02*
X113190476Y-110259580D01*
X113190476Y-110259580D02*
X113142857Y-110307200D01*
X113142857Y-110307200D02*
X113047619Y-110354819D01*
X113047619Y-110354819D02*
X112952381Y-110354819D01*
X112952381Y-110354819D02*
X112857143Y-110307200D01*
X112857143Y-110307200D02*
X112809524Y-110259580D01*
X112809524Y-110259580D02*
X112761905Y-110164342D01*
X112761905Y-110164342D02*
X112714286Y-109973866D01*
X112714286Y-109973866D02*
X112714286Y-109735771D01*
X112714286Y-109735771D02*
X112761905Y-109545295D01*
X112761905Y-109545295D02*
X112809524Y-109450057D01*
X112809524Y-109450057D02*
X112857143Y-109402438D01*
X112857143Y-109402438D02*
X112952381Y-109354819D01*
X113714286Y-109688152D02*
X113714286Y-110354819D01*
X113714286Y-109783390D02*
X113761905Y-109735771D01*
X113761905Y-109735771D02*
X113857143Y-109688152D01*
X113857143Y-109688152D02*
X114000000Y-109688152D01*
X114000000Y-109688152D02*
X114095238Y-109735771D01*
X114095238Y-109735771D02*
X114142857Y-109831009D01*
X114142857Y-109831009D02*
X114142857Y-110354819D01*
D12*
X112356666Y-112409240D02*
X112315714Y-112450193D01*
X112315714Y-112450193D02*
X112192856Y-112491145D01*
X112192856Y-112491145D02*
X112110952Y-112491145D01*
X112110952Y-112491145D02*
X111988095Y-112450193D01*
X111988095Y-112450193D02*
X111906190Y-112368288D01*
X111906190Y-112368288D02*
X111865237Y-112286383D01*
X111865237Y-112286383D02*
X111824285Y-112122573D01*
X111824285Y-112122573D02*
X111824285Y-111999716D01*
X111824285Y-111999716D02*
X111865237Y-111835907D01*
X111865237Y-111835907D02*
X111906190Y-111754002D01*
X111906190Y-111754002D02*
X111988095Y-111672097D01*
X111988095Y-111672097D02*
X112110952Y-111631145D01*
X112110952Y-111631145D02*
X112192856Y-111631145D01*
X112192856Y-111631145D02*
X112315714Y-111672097D01*
X112315714Y-111672097D02*
X112356666Y-111713050D01*
X113175714Y-112491145D02*
X112684285Y-112491145D01*
X112929999Y-112491145D02*
X112929999Y-111631145D01*
X112929999Y-111631145D02*
X112848095Y-111754002D01*
X112848095Y-111754002D02*
X112766190Y-111835907D01*
X112766190Y-111835907D02*
X112684285Y-111876859D01*
D10*
X87754819Y-78712380D02*
X87754819Y-78093333D01*
X87754819Y-78093333D02*
X88135771Y-78426666D01*
X88135771Y-78426666D02*
X88135771Y-78283809D01*
X88135771Y-78283809D02*
X88183390Y-78188571D01*
X88183390Y-78188571D02*
X88231009Y-78140952D01*
X88231009Y-78140952D02*
X88326247Y-78093333D01*
X88326247Y-78093333D02*
X88564342Y-78093333D01*
X88564342Y-78093333D02*
X88659580Y-78140952D01*
X88659580Y-78140952D02*
X88707200Y-78188571D01*
X88707200Y-78188571D02*
X88754819Y-78283809D01*
X88754819Y-78283809D02*
X88754819Y-78569523D01*
X88754819Y-78569523D02*
X88707200Y-78664761D01*
X88707200Y-78664761D02*
X88659580Y-78712380D01*
X88659580Y-77664761D02*
X88707200Y-77617142D01*
X88707200Y-77617142D02*
X88754819Y-77664761D01*
X88754819Y-77664761D02*
X88707200Y-77712380D01*
X88707200Y-77712380D02*
X88659580Y-77664761D01*
X88659580Y-77664761D02*
X88754819Y-77664761D01*
X87754819Y-77283809D02*
X87754819Y-76664762D01*
X87754819Y-76664762D02*
X88135771Y-76998095D01*
X88135771Y-76998095D02*
X88135771Y-76855238D01*
X88135771Y-76855238D02*
X88183390Y-76760000D01*
X88183390Y-76760000D02*
X88231009Y-76712381D01*
X88231009Y-76712381D02*
X88326247Y-76664762D01*
X88326247Y-76664762D02*
X88564342Y-76664762D01*
X88564342Y-76664762D02*
X88659580Y-76712381D01*
X88659580Y-76712381D02*
X88707200Y-76760000D01*
X88707200Y-76760000D02*
X88754819Y-76855238D01*
X88754819Y-76855238D02*
X88754819Y-77140952D01*
X88754819Y-77140952D02*
X88707200Y-77236190D01*
X88707200Y-77236190D02*
X88659580Y-77283809D01*
X88754819Y-76236190D02*
X87754819Y-76236190D01*
X88373866Y-76140952D02*
X88754819Y-75855238D01*
X88088152Y-75855238D02*
X88469104Y-76236190D01*
X91124819Y-77426666D02*
X90648628Y-77759999D01*
X91124819Y-77998094D02*
X90124819Y-77998094D01*
X90124819Y-77998094D02*
X90124819Y-77617142D01*
X90124819Y-77617142D02*
X90172438Y-77521904D01*
X90172438Y-77521904D02*
X90220057Y-77474285D01*
X90220057Y-77474285D02*
X90315295Y-77426666D01*
X90315295Y-77426666D02*
X90458152Y-77426666D01*
X90458152Y-77426666D02*
X90553390Y-77474285D01*
X90553390Y-77474285D02*
X90601009Y-77521904D01*
X90601009Y-77521904D02*
X90648628Y-77617142D01*
X90648628Y-77617142D02*
X90648628Y-77998094D01*
X90124819Y-77093332D02*
X90124819Y-76474285D01*
X90124819Y-76474285D02*
X90505771Y-76807618D01*
X90505771Y-76807618D02*
X90505771Y-76664761D01*
X90505771Y-76664761D02*
X90553390Y-76569523D01*
X90553390Y-76569523D02*
X90601009Y-76521904D01*
X90601009Y-76521904D02*
X90696247Y-76474285D01*
X90696247Y-76474285D02*
X90934342Y-76474285D01*
X90934342Y-76474285D02*
X91029580Y-76521904D01*
X91029580Y-76521904D02*
X91077200Y-76569523D01*
X91077200Y-76569523D02*
X91124819Y-76664761D01*
X91124819Y-76664761D02*
X91124819Y-76950475D01*
X91124819Y-76950475D02*
X91077200Y-77045713D01*
X91077200Y-77045713D02*
X91029580Y-77093332D01*
X106074580Y-87970239D02*
X106122200Y-88017858D01*
X106122200Y-88017858D02*
X106169819Y-88160715D01*
X106169819Y-88160715D02*
X106169819Y-88255953D01*
X106169819Y-88255953D02*
X106122200Y-88398810D01*
X106122200Y-88398810D02*
X106026961Y-88494048D01*
X106026961Y-88494048D02*
X105931723Y-88541667D01*
X105931723Y-88541667D02*
X105741247Y-88589286D01*
X105741247Y-88589286D02*
X105598390Y-88589286D01*
X105598390Y-88589286D02*
X105407914Y-88541667D01*
X105407914Y-88541667D02*
X105312676Y-88494048D01*
X105312676Y-88494048D02*
X105217438Y-88398810D01*
X105217438Y-88398810D02*
X105169819Y-88255953D01*
X105169819Y-88255953D02*
X105169819Y-88160715D01*
X105169819Y-88160715D02*
X105217438Y-88017858D01*
X105217438Y-88017858D02*
X105265057Y-87970239D01*
X106169819Y-87398810D02*
X106122200Y-87494048D01*
X106122200Y-87494048D02*
X106074580Y-87541667D01*
X106074580Y-87541667D02*
X105979342Y-87589286D01*
X105979342Y-87589286D02*
X105693628Y-87589286D01*
X105693628Y-87589286D02*
X105598390Y-87541667D01*
X105598390Y-87541667D02*
X105550771Y-87494048D01*
X105550771Y-87494048D02*
X105503152Y-87398810D01*
X105503152Y-87398810D02*
X105503152Y-87255953D01*
X105503152Y-87255953D02*
X105550771Y-87160715D01*
X105550771Y-87160715D02*
X105598390Y-87113096D01*
X105598390Y-87113096D02*
X105693628Y-87065477D01*
X105693628Y-87065477D02*
X105979342Y-87065477D01*
X105979342Y-87065477D02*
X106074580Y-87113096D01*
X106074580Y-87113096D02*
X106122200Y-87160715D01*
X106122200Y-87160715D02*
X106169819Y-87255953D01*
X106169819Y-87255953D02*
X106169819Y-87398810D01*
X105503152Y-86636905D02*
X106169819Y-86636905D01*
X105598390Y-86636905D02*
X105550771Y-86589286D01*
X105550771Y-86589286D02*
X105503152Y-86494048D01*
X105503152Y-86494048D02*
X105503152Y-86351191D01*
X105503152Y-86351191D02*
X105550771Y-86255953D01*
X105550771Y-86255953D02*
X105646009Y-86208334D01*
X105646009Y-86208334D02*
X106169819Y-86208334D01*
X105503152Y-85732143D02*
X106169819Y-85732143D01*
X105598390Y-85732143D02*
X105550771Y-85684524D01*
X105550771Y-85684524D02*
X105503152Y-85589286D01*
X105503152Y-85589286D02*
X105503152Y-85446429D01*
X105503152Y-85446429D02*
X105550771Y-85351191D01*
X105550771Y-85351191D02*
X105646009Y-85303572D01*
X105646009Y-85303572D02*
X106169819Y-85303572D01*
X106265057Y-85065477D02*
X106265057Y-84303572D01*
X105169819Y-83875000D02*
X105169819Y-83779762D01*
X105169819Y-83779762D02*
X105217438Y-83684524D01*
X105217438Y-83684524D02*
X105265057Y-83636905D01*
X105265057Y-83636905D02*
X105360295Y-83589286D01*
X105360295Y-83589286D02*
X105550771Y-83541667D01*
X105550771Y-83541667D02*
X105788866Y-83541667D01*
X105788866Y-83541667D02*
X105979342Y-83589286D01*
X105979342Y-83589286D02*
X106074580Y-83636905D01*
X106074580Y-83636905D02*
X106122200Y-83684524D01*
X106122200Y-83684524D02*
X106169819Y-83779762D01*
X106169819Y-83779762D02*
X106169819Y-83875000D01*
X106169819Y-83875000D02*
X106122200Y-83970238D01*
X106122200Y-83970238D02*
X106074580Y-84017857D01*
X106074580Y-84017857D02*
X105979342Y-84065476D01*
X105979342Y-84065476D02*
X105788866Y-84113095D01*
X105788866Y-84113095D02*
X105550771Y-84113095D01*
X105550771Y-84113095D02*
X105360295Y-84065476D01*
X105360295Y-84065476D02*
X105265057Y-84017857D01*
X105265057Y-84017857D02*
X105217438Y-83970238D01*
X105217438Y-83970238D02*
X105169819Y-83875000D01*
X106169819Y-82589286D02*
X106169819Y-83160714D01*
X106169819Y-82875000D02*
X105169819Y-82875000D01*
X105169819Y-82875000D02*
X105312676Y-82970238D01*
X105312676Y-82970238D02*
X105407914Y-83065476D01*
X105407914Y-83065476D02*
X105455533Y-83160714D01*
X106169819Y-82255952D02*
X105503152Y-81732143D01*
X105503152Y-82255952D02*
X106169819Y-81732143D01*
X105169819Y-81160714D02*
X105169819Y-81065476D01*
X105169819Y-81065476D02*
X105217438Y-80970238D01*
X105217438Y-80970238D02*
X105265057Y-80922619D01*
X105265057Y-80922619D02*
X105360295Y-80875000D01*
X105360295Y-80875000D02*
X105550771Y-80827381D01*
X105550771Y-80827381D02*
X105788866Y-80827381D01*
X105788866Y-80827381D02*
X105979342Y-80875000D01*
X105979342Y-80875000D02*
X106074580Y-80922619D01*
X106074580Y-80922619D02*
X106122200Y-80970238D01*
X106122200Y-80970238D02*
X106169819Y-81065476D01*
X106169819Y-81065476D02*
X106169819Y-81160714D01*
X106169819Y-81160714D02*
X106122200Y-81255952D01*
X106122200Y-81255952D02*
X106074580Y-81303571D01*
X106074580Y-81303571D02*
X105979342Y-81351190D01*
X105979342Y-81351190D02*
X105788866Y-81398809D01*
X105788866Y-81398809D02*
X105550771Y-81398809D01*
X105550771Y-81398809D02*
X105360295Y-81351190D01*
X105360295Y-81351190D02*
X105265057Y-81303571D01*
X105265057Y-81303571D02*
X105217438Y-81255952D01*
X105217438Y-81255952D02*
X105169819Y-81160714D01*
X105169819Y-80494047D02*
X105169819Y-79875000D01*
X105169819Y-79875000D02*
X105550771Y-80208333D01*
X105550771Y-80208333D02*
X105550771Y-80065476D01*
X105550771Y-80065476D02*
X105598390Y-79970238D01*
X105598390Y-79970238D02*
X105646009Y-79922619D01*
X105646009Y-79922619D02*
X105741247Y-79875000D01*
X105741247Y-79875000D02*
X105979342Y-79875000D01*
X105979342Y-79875000D02*
X106074580Y-79922619D01*
X106074580Y-79922619D02*
X106122200Y-79970238D01*
X106122200Y-79970238D02*
X106169819Y-80065476D01*
X106169819Y-80065476D02*
X106169819Y-80351190D01*
X106169819Y-80351190D02*
X106122200Y-80446428D01*
X106122200Y-80446428D02*
X106074580Y-80494047D01*
X106265057Y-79684524D02*
X106265057Y-78922619D01*
X106122200Y-78732142D02*
X106169819Y-78589285D01*
X106169819Y-78589285D02*
X106169819Y-78351190D01*
X106169819Y-78351190D02*
X106122200Y-78255952D01*
X106122200Y-78255952D02*
X106074580Y-78208333D01*
X106074580Y-78208333D02*
X105979342Y-78160714D01*
X105979342Y-78160714D02*
X105884104Y-78160714D01*
X105884104Y-78160714D02*
X105788866Y-78208333D01*
X105788866Y-78208333D02*
X105741247Y-78255952D01*
X105741247Y-78255952D02*
X105693628Y-78351190D01*
X105693628Y-78351190D02*
X105646009Y-78541666D01*
X105646009Y-78541666D02*
X105598390Y-78636904D01*
X105598390Y-78636904D02*
X105550771Y-78684523D01*
X105550771Y-78684523D02*
X105455533Y-78732142D01*
X105455533Y-78732142D02*
X105360295Y-78732142D01*
X105360295Y-78732142D02*
X105265057Y-78684523D01*
X105265057Y-78684523D02*
X105217438Y-78636904D01*
X105217438Y-78636904D02*
X105169819Y-78541666D01*
X105169819Y-78541666D02*
X105169819Y-78303571D01*
X105169819Y-78303571D02*
X105217438Y-78160714D01*
X106169819Y-77589285D02*
X106122200Y-77684523D01*
X106122200Y-77684523D02*
X106074580Y-77732142D01*
X106074580Y-77732142D02*
X105979342Y-77779761D01*
X105979342Y-77779761D02*
X105693628Y-77779761D01*
X105693628Y-77779761D02*
X105598390Y-77732142D01*
X105598390Y-77732142D02*
X105550771Y-77684523D01*
X105550771Y-77684523D02*
X105503152Y-77589285D01*
X105503152Y-77589285D02*
X105503152Y-77446428D01*
X105503152Y-77446428D02*
X105550771Y-77351190D01*
X105550771Y-77351190D02*
X105598390Y-77303571D01*
X105598390Y-77303571D02*
X105693628Y-77255952D01*
X105693628Y-77255952D02*
X105979342Y-77255952D01*
X105979342Y-77255952D02*
X106074580Y-77303571D01*
X106074580Y-77303571D02*
X106122200Y-77351190D01*
X106122200Y-77351190D02*
X106169819Y-77446428D01*
X106169819Y-77446428D02*
X106169819Y-77589285D01*
X106122200Y-76398809D02*
X106169819Y-76494047D01*
X106169819Y-76494047D02*
X106169819Y-76684523D01*
X106169819Y-76684523D02*
X106122200Y-76779761D01*
X106122200Y-76779761D02*
X106074580Y-76827380D01*
X106074580Y-76827380D02*
X105979342Y-76874999D01*
X105979342Y-76874999D02*
X105693628Y-76874999D01*
X105693628Y-76874999D02*
X105598390Y-76827380D01*
X105598390Y-76827380D02*
X105550771Y-76779761D01*
X105550771Y-76779761D02*
X105503152Y-76684523D01*
X105503152Y-76684523D02*
X105503152Y-76494047D01*
X105503152Y-76494047D02*
X105550771Y-76398809D01*
X106169819Y-75970237D02*
X105169819Y-75970237D01*
X105788866Y-75874999D02*
X106169819Y-75589285D01*
X105503152Y-75589285D02*
X105884104Y-75970237D01*
X106122200Y-74779761D02*
X106169819Y-74874999D01*
X106169819Y-74874999D02*
X106169819Y-75065475D01*
X106169819Y-75065475D02*
X106122200Y-75160713D01*
X106122200Y-75160713D02*
X106026961Y-75208332D01*
X106026961Y-75208332D02*
X105646009Y-75208332D01*
X105646009Y-75208332D02*
X105550771Y-75160713D01*
X105550771Y-75160713D02*
X105503152Y-75065475D01*
X105503152Y-75065475D02*
X105503152Y-74874999D01*
X105503152Y-74874999D02*
X105550771Y-74779761D01*
X105550771Y-74779761D02*
X105646009Y-74732142D01*
X105646009Y-74732142D02*
X105741247Y-74732142D01*
X105741247Y-74732142D02*
X105836485Y-75208332D01*
X105503152Y-74446427D02*
X105503152Y-74065475D01*
X105169819Y-74303570D02*
X106026961Y-74303570D01*
X106026961Y-74303570D02*
X106122200Y-74255951D01*
X106122200Y-74255951D02*
X106169819Y-74160713D01*
X106169819Y-74160713D02*
X106169819Y-74065475D01*
X110251666Y-80829819D02*
X110251666Y-81544104D01*
X110251666Y-81544104D02*
X110204047Y-81686961D01*
X110204047Y-81686961D02*
X110108809Y-81782200D01*
X110108809Y-81782200D02*
X109965952Y-81829819D01*
X109965952Y-81829819D02*
X109870714Y-81829819D01*
X111156428Y-81163152D02*
X111156428Y-81829819D01*
X110918333Y-80782200D02*
X110680238Y-81496485D01*
X110680238Y-81496485D02*
X111299285Y-81496485D01*
X111455952Y-117379819D02*
X110884524Y-117379819D01*
X111170238Y-117379819D02*
X111170238Y-116379819D01*
X111170238Y-116379819D02*
X111075000Y-116522676D01*
X111075000Y-116522676D02*
X110979762Y-116617914D01*
X110979762Y-116617914D02*
X110884524Y-116665533D01*
X112075000Y-116379819D02*
X112170238Y-116379819D01*
X112170238Y-116379819D02*
X112265476Y-116427438D01*
X112265476Y-116427438D02*
X112313095Y-116475057D01*
X112313095Y-116475057D02*
X112360714Y-116570295D01*
X112360714Y-116570295D02*
X112408333Y-116760771D01*
X112408333Y-116760771D02*
X112408333Y-116998866D01*
X112408333Y-116998866D02*
X112360714Y-117189342D01*
X112360714Y-117189342D02*
X112313095Y-117284580D01*
X112313095Y-117284580D02*
X112265476Y-117332200D01*
X112265476Y-117332200D02*
X112170238Y-117379819D01*
X112170238Y-117379819D02*
X112075000Y-117379819D01*
X112075000Y-117379819D02*
X111979762Y-117332200D01*
X111979762Y-117332200D02*
X111932143Y-117284580D01*
X111932143Y-117284580D02*
X111884524Y-117189342D01*
X111884524Y-117189342D02*
X111836905Y-116998866D01*
X111836905Y-116998866D02*
X111836905Y-116760771D01*
X111836905Y-116760771D02*
X111884524Y-116570295D01*
X111884524Y-116570295D02*
X111932143Y-116475057D01*
X111932143Y-116475057D02*
X111979762Y-116427438D01*
X111979762Y-116427438D02*
X112075000Y-116379819D01*
X113027381Y-116379819D02*
X113122619Y-116379819D01*
X113122619Y-116379819D02*
X113217857Y-116427438D01*
X113217857Y-116427438D02*
X113265476Y-116475057D01*
X113265476Y-116475057D02*
X113313095Y-116570295D01*
X113313095Y-116570295D02*
X113360714Y-116760771D01*
X113360714Y-116760771D02*
X113360714Y-116998866D01*
X113360714Y-116998866D02*
X113313095Y-117189342D01*
X113313095Y-117189342D02*
X113265476Y-117284580D01*
X113265476Y-117284580D02*
X113217857Y-117332200D01*
X113217857Y-117332200D02*
X113122619Y-117379819D01*
X113122619Y-117379819D02*
X113027381Y-117379819D01*
X113027381Y-117379819D02*
X112932143Y-117332200D01*
X112932143Y-117332200D02*
X112884524Y-117284580D01*
X112884524Y-117284580D02*
X112836905Y-117189342D01*
X112836905Y-117189342D02*
X112789286Y-116998866D01*
X112789286Y-116998866D02*
X112789286Y-116760771D01*
X112789286Y-116760771D02*
X112836905Y-116570295D01*
X112836905Y-116570295D02*
X112884524Y-116475057D01*
X112884524Y-116475057D02*
X112932143Y-116427438D01*
X112932143Y-116427438D02*
X113027381Y-116379819D01*
X113789286Y-116713152D02*
X113789286Y-117379819D01*
X113789286Y-116808390D02*
X113836905Y-116760771D01*
X113836905Y-116760771D02*
X113932143Y-116713152D01*
X113932143Y-116713152D02*
X114075000Y-116713152D01*
X114075000Y-116713152D02*
X114170238Y-116760771D01*
X114170238Y-116760771D02*
X114217857Y-116856009D01*
X114217857Y-116856009D02*
X114217857Y-117379819D01*
D12*
X112356666Y-115059240D02*
X112315714Y-115100193D01*
X112315714Y-115100193D02*
X112192856Y-115141145D01*
X112192856Y-115141145D02*
X112110952Y-115141145D01*
X112110952Y-115141145D02*
X111988095Y-115100193D01*
X111988095Y-115100193D02*
X111906190Y-115018288D01*
X111906190Y-115018288D02*
X111865237Y-114936383D01*
X111865237Y-114936383D02*
X111824285Y-114772573D01*
X111824285Y-114772573D02*
X111824285Y-114649716D01*
X111824285Y-114649716D02*
X111865237Y-114485907D01*
X111865237Y-114485907D02*
X111906190Y-114404002D01*
X111906190Y-114404002D02*
X111988095Y-114322097D01*
X111988095Y-114322097D02*
X112110952Y-114281145D01*
X112110952Y-114281145D02*
X112192856Y-114281145D01*
X112192856Y-114281145D02*
X112315714Y-114322097D01*
X112315714Y-114322097D02*
X112356666Y-114363050D01*
X112684285Y-114363050D02*
X112725237Y-114322097D01*
X112725237Y-114322097D02*
X112807142Y-114281145D01*
X112807142Y-114281145D02*
X113011904Y-114281145D01*
X113011904Y-114281145D02*
X113093809Y-114322097D01*
X113093809Y-114322097D02*
X113134761Y-114363050D01*
X113134761Y-114363050D02*
X113175714Y-114444954D01*
X113175714Y-114444954D02*
X113175714Y-114526859D01*
X113175714Y-114526859D02*
X113134761Y-114649716D01*
X113134761Y-114649716D02*
X112643333Y-115141145D01*
X112643333Y-115141145D02*
X113175714Y-115141145D01*
D10*
X98137142Y-79689819D02*
X97660952Y-79689819D01*
X97660952Y-79689819D02*
X97660952Y-78689819D01*
X98470476Y-79166009D02*
X98803809Y-79166009D01*
X98946666Y-79689819D02*
X98470476Y-79689819D01*
X98470476Y-79689819D02*
X98470476Y-78689819D01*
X98470476Y-78689819D02*
X98946666Y-78689819D01*
X99375238Y-79689819D02*
X99375238Y-78689819D01*
X99375238Y-78689819D02*
X99613333Y-78689819D01*
X99613333Y-78689819D02*
X99756190Y-78737438D01*
X99756190Y-78737438D02*
X99851428Y-78832676D01*
X99851428Y-78832676D02*
X99899047Y-78927914D01*
X99899047Y-78927914D02*
X99946666Y-79118390D01*
X99946666Y-79118390D02*
X99946666Y-79261247D01*
X99946666Y-79261247D02*
X99899047Y-79451723D01*
X99899047Y-79451723D02*
X99851428Y-79546961D01*
X99851428Y-79546961D02*
X99756190Y-79642200D01*
X99756190Y-79642200D02*
X99613333Y-79689819D01*
X99613333Y-79689819D02*
X99375238Y-79689819D01*
X135490475Y-119869580D02*
X135442856Y-119917200D01*
X135442856Y-119917200D02*
X135299999Y-119964819D01*
X135299999Y-119964819D02*
X135204761Y-119964819D01*
X135204761Y-119964819D02*
X135061904Y-119917200D01*
X135061904Y-119917200D02*
X134966666Y-119821961D01*
X134966666Y-119821961D02*
X134919047Y-119726723D01*
X134919047Y-119726723D02*
X134871428Y-119536247D01*
X134871428Y-119536247D02*
X134871428Y-119393390D01*
X134871428Y-119393390D02*
X134919047Y-119202914D01*
X134919047Y-119202914D02*
X134966666Y-119107676D01*
X134966666Y-119107676D02*
X135061904Y-119012438D01*
X135061904Y-119012438D02*
X135204761Y-118964819D01*
X135204761Y-118964819D02*
X135299999Y-118964819D01*
X135299999Y-118964819D02*
X135442856Y-119012438D01*
X135442856Y-119012438D02*
X135490475Y-119060057D01*
X136061904Y-119964819D02*
X135966666Y-119917200D01*
X135966666Y-119917200D02*
X135919047Y-119869580D01*
X135919047Y-119869580D02*
X135871428Y-119774342D01*
X135871428Y-119774342D02*
X135871428Y-119488628D01*
X135871428Y-119488628D02*
X135919047Y-119393390D01*
X135919047Y-119393390D02*
X135966666Y-119345771D01*
X135966666Y-119345771D02*
X136061904Y-119298152D01*
X136061904Y-119298152D02*
X136204761Y-119298152D01*
X136204761Y-119298152D02*
X136299999Y-119345771D01*
X136299999Y-119345771D02*
X136347618Y-119393390D01*
X136347618Y-119393390D02*
X136395237Y-119488628D01*
X136395237Y-119488628D02*
X136395237Y-119774342D01*
X136395237Y-119774342D02*
X136347618Y-119869580D01*
X136347618Y-119869580D02*
X136299999Y-119917200D01*
X136299999Y-119917200D02*
X136204761Y-119964819D01*
X136204761Y-119964819D02*
X136061904Y-119964819D01*
X136823809Y-119298152D02*
X136823809Y-119964819D01*
X136823809Y-119393390D02*
X136871428Y-119345771D01*
X136871428Y-119345771D02*
X136966666Y-119298152D01*
X136966666Y-119298152D02*
X137109523Y-119298152D01*
X137109523Y-119298152D02*
X137204761Y-119345771D01*
X137204761Y-119345771D02*
X137252380Y-119441009D01*
X137252380Y-119441009D02*
X137252380Y-119964819D01*
X137728571Y-119298152D02*
X137728571Y-119964819D01*
X137728571Y-119393390D02*
X137776190Y-119345771D01*
X137776190Y-119345771D02*
X137871428Y-119298152D01*
X137871428Y-119298152D02*
X138014285Y-119298152D01*
X138014285Y-119298152D02*
X138109523Y-119345771D01*
X138109523Y-119345771D02*
X138157142Y-119441009D01*
X138157142Y-119441009D02*
X138157142Y-119964819D01*
X138395238Y-120060057D02*
X139157142Y-120060057D01*
X139585714Y-118964819D02*
X139680952Y-118964819D01*
X139680952Y-118964819D02*
X139776190Y-119012438D01*
X139776190Y-119012438D02*
X139823809Y-119060057D01*
X139823809Y-119060057D02*
X139871428Y-119155295D01*
X139871428Y-119155295D02*
X139919047Y-119345771D01*
X139919047Y-119345771D02*
X139919047Y-119583866D01*
X139919047Y-119583866D02*
X139871428Y-119774342D01*
X139871428Y-119774342D02*
X139823809Y-119869580D01*
X139823809Y-119869580D02*
X139776190Y-119917200D01*
X139776190Y-119917200D02*
X139680952Y-119964819D01*
X139680952Y-119964819D02*
X139585714Y-119964819D01*
X139585714Y-119964819D02*
X139490476Y-119917200D01*
X139490476Y-119917200D02*
X139442857Y-119869580D01*
X139442857Y-119869580D02*
X139395238Y-119774342D01*
X139395238Y-119774342D02*
X139347619Y-119583866D01*
X139347619Y-119583866D02*
X139347619Y-119345771D01*
X139347619Y-119345771D02*
X139395238Y-119155295D01*
X139395238Y-119155295D02*
X139442857Y-119060057D01*
X139442857Y-119060057D02*
X139490476Y-119012438D01*
X139490476Y-119012438D02*
X139585714Y-118964819D01*
X140871428Y-119964819D02*
X140300000Y-119964819D01*
X140585714Y-119964819D02*
X140585714Y-118964819D01*
X140585714Y-118964819D02*
X140490476Y-119107676D01*
X140490476Y-119107676D02*
X140395238Y-119202914D01*
X140395238Y-119202914D02*
X140300000Y-119250533D01*
X141204762Y-119964819D02*
X141728571Y-119298152D01*
X141204762Y-119298152D02*
X141728571Y-119964819D01*
X142633333Y-119964819D02*
X142061905Y-119964819D01*
X142347619Y-119964819D02*
X142347619Y-118964819D01*
X142347619Y-118964819D02*
X142252381Y-119107676D01*
X142252381Y-119107676D02*
X142157143Y-119202914D01*
X142157143Y-119202914D02*
X142061905Y-119250533D01*
X143204762Y-119393390D02*
X143109524Y-119345771D01*
X143109524Y-119345771D02*
X143061905Y-119298152D01*
X143061905Y-119298152D02*
X143014286Y-119202914D01*
X143014286Y-119202914D02*
X143014286Y-119155295D01*
X143014286Y-119155295D02*
X143061905Y-119060057D01*
X143061905Y-119060057D02*
X143109524Y-119012438D01*
X143109524Y-119012438D02*
X143204762Y-118964819D01*
X143204762Y-118964819D02*
X143395238Y-118964819D01*
X143395238Y-118964819D02*
X143490476Y-119012438D01*
X143490476Y-119012438D02*
X143538095Y-119060057D01*
X143538095Y-119060057D02*
X143585714Y-119155295D01*
X143585714Y-119155295D02*
X143585714Y-119202914D01*
X143585714Y-119202914D02*
X143538095Y-119298152D01*
X143538095Y-119298152D02*
X143490476Y-119345771D01*
X143490476Y-119345771D02*
X143395238Y-119393390D01*
X143395238Y-119393390D02*
X143204762Y-119393390D01*
X143204762Y-119393390D02*
X143109524Y-119441009D01*
X143109524Y-119441009D02*
X143061905Y-119488628D01*
X143061905Y-119488628D02*
X143014286Y-119583866D01*
X143014286Y-119583866D02*
X143014286Y-119774342D01*
X143014286Y-119774342D02*
X143061905Y-119869580D01*
X143061905Y-119869580D02*
X143109524Y-119917200D01*
X143109524Y-119917200D02*
X143204762Y-119964819D01*
X143204762Y-119964819D02*
X143395238Y-119964819D01*
X143395238Y-119964819D02*
X143490476Y-119917200D01*
X143490476Y-119917200D02*
X143538095Y-119869580D01*
X143538095Y-119869580D02*
X143585714Y-119774342D01*
X143585714Y-119774342D02*
X143585714Y-119583866D01*
X143585714Y-119583866D02*
X143538095Y-119488628D01*
X143538095Y-119488628D02*
X143490476Y-119441009D01*
X143490476Y-119441009D02*
X143395238Y-119393390D01*
X143776191Y-120060057D02*
X144538095Y-120060057D01*
X144776191Y-119964819D02*
X144776191Y-118964819D01*
X144776191Y-118964819D02*
X145157143Y-118964819D01*
X145157143Y-118964819D02*
X145252381Y-119012438D01*
X145252381Y-119012438D02*
X145300000Y-119060057D01*
X145300000Y-119060057D02*
X145347619Y-119155295D01*
X145347619Y-119155295D02*
X145347619Y-119298152D01*
X145347619Y-119298152D02*
X145300000Y-119393390D01*
X145300000Y-119393390D02*
X145252381Y-119441009D01*
X145252381Y-119441009D02*
X145157143Y-119488628D01*
X145157143Y-119488628D02*
X144776191Y-119488628D01*
X145776191Y-119964819D02*
X145776191Y-119298152D01*
X145776191Y-118964819D02*
X145728572Y-119012438D01*
X145728572Y-119012438D02*
X145776191Y-119060057D01*
X145776191Y-119060057D02*
X145823810Y-119012438D01*
X145823810Y-119012438D02*
X145776191Y-118964819D01*
X145776191Y-118964819D02*
X145776191Y-119060057D01*
X146252381Y-119298152D02*
X146252381Y-119964819D01*
X146252381Y-119393390D02*
X146300000Y-119345771D01*
X146300000Y-119345771D02*
X146395238Y-119298152D01*
X146395238Y-119298152D02*
X146538095Y-119298152D01*
X146538095Y-119298152D02*
X146633333Y-119345771D01*
X146633333Y-119345771D02*
X146680952Y-119441009D01*
X146680952Y-119441009D02*
X146680952Y-119964819D01*
X140254819Y-95923333D02*
X140969104Y-95923333D01*
X140969104Y-95923333D02*
X141111961Y-95970952D01*
X141111961Y-95970952D02*
X141207200Y-96066190D01*
X141207200Y-96066190D02*
X141254819Y-96209047D01*
X141254819Y-96209047D02*
X141254819Y-96304285D01*
X140350057Y-95494761D02*
X140302438Y-95447142D01*
X140302438Y-95447142D02*
X140254819Y-95351904D01*
X140254819Y-95351904D02*
X140254819Y-95113809D01*
X140254819Y-95113809D02*
X140302438Y-95018571D01*
X140302438Y-95018571D02*
X140350057Y-94970952D01*
X140350057Y-94970952D02*
X140445295Y-94923333D01*
X140445295Y-94923333D02*
X140540533Y-94923333D01*
X140540533Y-94923333D02*
X140683390Y-94970952D01*
X140683390Y-94970952D02*
X141254819Y-95542380D01*
X141254819Y-95542380D02*
X141254819Y-94923333D01*
X93744047Y-103164819D02*
X93744047Y-102164819D01*
X94315475Y-103164819D02*
X93886904Y-102593390D01*
X94315475Y-102164819D02*
X93744047Y-102736247D01*
X94696428Y-102879104D02*
X95172618Y-102879104D01*
X94601190Y-103164819D02*
X94934523Y-102164819D01*
X94934523Y-102164819D02*
X95267856Y-103164819D01*
X95505952Y-102164819D02*
X96172618Y-102164819D01*
X96172618Y-102164819D02*
X95744047Y-103164819D01*
X96696428Y-102593390D02*
X96601190Y-102545771D01*
X96601190Y-102545771D02*
X96553571Y-102498152D01*
X96553571Y-102498152D02*
X96505952Y-102402914D01*
X96505952Y-102402914D02*
X96505952Y-102355295D01*
X96505952Y-102355295D02*
X96553571Y-102260057D01*
X96553571Y-102260057D02*
X96601190Y-102212438D01*
X96601190Y-102212438D02*
X96696428Y-102164819D01*
X96696428Y-102164819D02*
X96886904Y-102164819D01*
X96886904Y-102164819D02*
X96982142Y-102212438D01*
X96982142Y-102212438D02*
X97029761Y-102260057D01*
X97029761Y-102260057D02*
X97077380Y-102355295D01*
X97077380Y-102355295D02*
X97077380Y-102402914D01*
X97077380Y-102402914D02*
X97029761Y-102498152D01*
X97029761Y-102498152D02*
X96982142Y-102545771D01*
X96982142Y-102545771D02*
X96886904Y-102593390D01*
X96886904Y-102593390D02*
X96696428Y-102593390D01*
X96696428Y-102593390D02*
X96601190Y-102641009D01*
X96601190Y-102641009D02*
X96553571Y-102688628D01*
X96553571Y-102688628D02*
X96505952Y-102783866D01*
X96505952Y-102783866D02*
X96505952Y-102974342D01*
X96505952Y-102974342D02*
X96553571Y-103069580D01*
X96553571Y-103069580D02*
X96601190Y-103117200D01*
X96601190Y-103117200D02*
X96696428Y-103164819D01*
X96696428Y-103164819D02*
X96886904Y-103164819D01*
X96886904Y-103164819D02*
X96982142Y-103117200D01*
X96982142Y-103117200D02*
X97029761Y-103069580D01*
X97029761Y-103069580D02*
X97077380Y-102974342D01*
X97077380Y-102974342D02*
X97077380Y-102783866D01*
X97077380Y-102783866D02*
X97029761Y-102688628D01*
X97029761Y-102688628D02*
X96982142Y-102641009D01*
X96982142Y-102641009D02*
X96886904Y-102593390D01*
X97505952Y-103164819D02*
X97505952Y-102164819D01*
X97505952Y-102164819D02*
X97839285Y-102879104D01*
X97839285Y-102879104D02*
X98172618Y-102164819D01*
X98172618Y-102164819D02*
X98172618Y-103164819D01*
X98839285Y-102164819D02*
X98934523Y-102164819D01*
X98934523Y-102164819D02*
X99029761Y-102212438D01*
X99029761Y-102212438D02*
X99077380Y-102260057D01*
X99077380Y-102260057D02*
X99124999Y-102355295D01*
X99124999Y-102355295D02*
X99172618Y-102545771D01*
X99172618Y-102545771D02*
X99172618Y-102783866D01*
X99172618Y-102783866D02*
X99124999Y-102974342D01*
X99124999Y-102974342D02*
X99077380Y-103069580D01*
X99077380Y-103069580D02*
X99029761Y-103117200D01*
X99029761Y-103117200D02*
X98934523Y-103164819D01*
X98934523Y-103164819D02*
X98839285Y-103164819D01*
X98839285Y-103164819D02*
X98744047Y-103117200D01*
X98744047Y-103117200D02*
X98696428Y-103069580D01*
X98696428Y-103069580D02*
X98648809Y-102974342D01*
X98648809Y-102974342D02*
X98601190Y-102783866D01*
X98601190Y-102783866D02*
X98601190Y-102545771D01*
X98601190Y-102545771D02*
X98648809Y-102355295D01*
X98648809Y-102355295D02*
X98696428Y-102260057D01*
X98696428Y-102260057D02*
X98744047Y-102212438D01*
X98744047Y-102212438D02*
X98839285Y-102164819D01*
X100077380Y-102164819D02*
X99601190Y-102164819D01*
X99601190Y-102164819D02*
X99553571Y-102641009D01*
X99553571Y-102641009D02*
X99601190Y-102593390D01*
X99601190Y-102593390D02*
X99696428Y-102545771D01*
X99696428Y-102545771D02*
X99934523Y-102545771D01*
X99934523Y-102545771D02*
X100029761Y-102593390D01*
X100029761Y-102593390D02*
X100077380Y-102641009D01*
X100077380Y-102641009D02*
X100124999Y-102736247D01*
X100124999Y-102736247D02*
X100124999Y-102974342D01*
X100124999Y-102974342D02*
X100077380Y-103069580D01*
X100077380Y-103069580D02*
X100029761Y-103117200D01*
X100029761Y-103117200D02*
X99934523Y-103164819D01*
X99934523Y-103164819D02*
X99696428Y-103164819D01*
X99696428Y-103164819D02*
X99601190Y-103117200D01*
X99601190Y-103117200D02*
X99553571Y-103069580D01*
X100315476Y-103260057D02*
X101077380Y-103260057D01*
X101172619Y-102164819D02*
X101744047Y-102164819D01*
X101458333Y-103164819D02*
X101458333Y-102164819D01*
X102267857Y-102164819D02*
X102458333Y-102164819D01*
X102458333Y-102164819D02*
X102553571Y-102212438D01*
X102553571Y-102212438D02*
X102648809Y-102307676D01*
X102648809Y-102307676D02*
X102696428Y-102498152D01*
X102696428Y-102498152D02*
X102696428Y-102831485D01*
X102696428Y-102831485D02*
X102648809Y-103021961D01*
X102648809Y-103021961D02*
X102553571Y-103117200D01*
X102553571Y-103117200D02*
X102458333Y-103164819D01*
X102458333Y-103164819D02*
X102267857Y-103164819D01*
X102267857Y-103164819D02*
X102172619Y-103117200D01*
X102172619Y-103117200D02*
X102077381Y-103021961D01*
X102077381Y-103021961D02*
X102029762Y-102831485D01*
X102029762Y-102831485D02*
X102029762Y-102498152D01*
X102029762Y-102498152D02*
X102077381Y-102307676D01*
X102077381Y-102307676D02*
X102172619Y-102212438D01*
X102172619Y-102212438D02*
X102267857Y-102164819D01*
X103077381Y-102260057D02*
X103125000Y-102212438D01*
X103125000Y-102212438D02*
X103220238Y-102164819D01*
X103220238Y-102164819D02*
X103458333Y-102164819D01*
X103458333Y-102164819D02*
X103553571Y-102212438D01*
X103553571Y-102212438D02*
X103601190Y-102260057D01*
X103601190Y-102260057D02*
X103648809Y-102355295D01*
X103648809Y-102355295D02*
X103648809Y-102450533D01*
X103648809Y-102450533D02*
X103601190Y-102593390D01*
X103601190Y-102593390D02*
X103029762Y-103164819D01*
X103029762Y-103164819D02*
X103648809Y-103164819D01*
X104553571Y-102164819D02*
X104077381Y-102164819D01*
X104077381Y-102164819D02*
X104029762Y-102641009D01*
X104029762Y-102641009D02*
X104077381Y-102593390D01*
X104077381Y-102593390D02*
X104172619Y-102545771D01*
X104172619Y-102545771D02*
X104410714Y-102545771D01*
X104410714Y-102545771D02*
X104505952Y-102593390D01*
X104505952Y-102593390D02*
X104553571Y-102641009D01*
X104553571Y-102641009D02*
X104601190Y-102736247D01*
X104601190Y-102736247D02*
X104601190Y-102974342D01*
X104601190Y-102974342D02*
X104553571Y-103069580D01*
X104553571Y-103069580D02*
X104505952Y-103117200D01*
X104505952Y-103117200D02*
X104410714Y-103164819D01*
X104410714Y-103164819D02*
X104172619Y-103164819D01*
X104172619Y-103164819D02*
X104077381Y-103117200D01*
X104077381Y-103117200D02*
X104029762Y-103069580D01*
X104982143Y-102260057D02*
X105029762Y-102212438D01*
X105029762Y-102212438D02*
X105125000Y-102164819D01*
X105125000Y-102164819D02*
X105363095Y-102164819D01*
X105363095Y-102164819D02*
X105458333Y-102212438D01*
X105458333Y-102212438D02*
X105505952Y-102260057D01*
X105505952Y-102260057D02*
X105553571Y-102355295D01*
X105553571Y-102355295D02*
X105553571Y-102450533D01*
X105553571Y-102450533D02*
X105505952Y-102593390D01*
X105505952Y-102593390D02*
X104934524Y-103164819D01*
X104934524Y-103164819D02*
X105553571Y-103164819D01*
X98863095Y-79584819D02*
X98863095Y-80394342D01*
X98863095Y-80394342D02*
X98910714Y-80489580D01*
X98910714Y-80489580D02*
X98958333Y-80537200D01*
X98958333Y-80537200D02*
X99053571Y-80584819D01*
X99053571Y-80584819D02*
X99244047Y-80584819D01*
X99244047Y-80584819D02*
X99339285Y-80537200D01*
X99339285Y-80537200D02*
X99386904Y-80489580D01*
X99386904Y-80489580D02*
X99434523Y-80394342D01*
X99434523Y-80394342D02*
X99434523Y-79584819D01*
X100434523Y-80584819D02*
X99863095Y-80584819D01*
X100148809Y-80584819D02*
X100148809Y-79584819D01*
X100148809Y-79584819D02*
X100053571Y-79727676D01*
X100053571Y-79727676D02*
X99958333Y-79822914D01*
X99958333Y-79822914D02*
X99863095Y-79870533D01*
X84584819Y-78712380D02*
X84584819Y-78093333D01*
X84584819Y-78093333D02*
X84965771Y-78426666D01*
X84965771Y-78426666D02*
X84965771Y-78283809D01*
X84965771Y-78283809D02*
X85013390Y-78188571D01*
X85013390Y-78188571D02*
X85061009Y-78140952D01*
X85061009Y-78140952D02*
X85156247Y-78093333D01*
X85156247Y-78093333D02*
X85394342Y-78093333D01*
X85394342Y-78093333D02*
X85489580Y-78140952D01*
X85489580Y-78140952D02*
X85537200Y-78188571D01*
X85537200Y-78188571D02*
X85584819Y-78283809D01*
X85584819Y-78283809D02*
X85584819Y-78569523D01*
X85584819Y-78569523D02*
X85537200Y-78664761D01*
X85537200Y-78664761D02*
X85489580Y-78712380D01*
X85489580Y-77664761D02*
X85537200Y-77617142D01*
X85537200Y-77617142D02*
X85584819Y-77664761D01*
X85584819Y-77664761D02*
X85537200Y-77712380D01*
X85537200Y-77712380D02*
X85489580Y-77664761D01*
X85489580Y-77664761D02*
X85584819Y-77664761D01*
X84584819Y-77283809D02*
X84584819Y-76664762D01*
X84584819Y-76664762D02*
X84965771Y-76998095D01*
X84965771Y-76998095D02*
X84965771Y-76855238D01*
X84965771Y-76855238D02*
X85013390Y-76760000D01*
X85013390Y-76760000D02*
X85061009Y-76712381D01*
X85061009Y-76712381D02*
X85156247Y-76664762D01*
X85156247Y-76664762D02*
X85394342Y-76664762D01*
X85394342Y-76664762D02*
X85489580Y-76712381D01*
X85489580Y-76712381D02*
X85537200Y-76760000D01*
X85537200Y-76760000D02*
X85584819Y-76855238D01*
X85584819Y-76855238D02*
X85584819Y-77140952D01*
X85584819Y-77140952D02*
X85537200Y-77236190D01*
X85537200Y-77236190D02*
X85489580Y-77283809D01*
X85584819Y-76236190D02*
X84584819Y-76236190D01*
X85203866Y-76140952D02*
X85584819Y-75855238D01*
X84918152Y-75855238D02*
X85299104Y-76236190D01*
X87954819Y-77426666D02*
X87478628Y-77759999D01*
X87954819Y-77998094D02*
X86954819Y-77998094D01*
X86954819Y-77998094D02*
X86954819Y-77617142D01*
X86954819Y-77617142D02*
X87002438Y-77521904D01*
X87002438Y-77521904D02*
X87050057Y-77474285D01*
X87050057Y-77474285D02*
X87145295Y-77426666D01*
X87145295Y-77426666D02*
X87288152Y-77426666D01*
X87288152Y-77426666D02*
X87383390Y-77474285D01*
X87383390Y-77474285D02*
X87431009Y-77521904D01*
X87431009Y-77521904D02*
X87478628Y-77617142D01*
X87478628Y-77617142D02*
X87478628Y-77998094D01*
X87288152Y-76569523D02*
X87954819Y-76569523D01*
X86907200Y-76807618D02*
X87621485Y-77045713D01*
X87621485Y-77045713D02*
X87621485Y-76426666D01*
D13*
X91651000Y-109077141D02*
X91674809Y-109005713D01*
X91674809Y-109005713D02*
X91674809Y-108886665D01*
X91674809Y-108886665D02*
X91651000Y-108839046D01*
X91651000Y-108839046D02*
X91627190Y-108815237D01*
X91627190Y-108815237D02*
X91579571Y-108791427D01*
X91579571Y-108791427D02*
X91531952Y-108791427D01*
X91531952Y-108791427D02*
X91484333Y-108815237D01*
X91484333Y-108815237D02*
X91460523Y-108839046D01*
X91460523Y-108839046D02*
X91436714Y-108886665D01*
X91436714Y-108886665D02*
X91412904Y-108981903D01*
X91412904Y-108981903D02*
X91389095Y-109029522D01*
X91389095Y-109029522D02*
X91365285Y-109053332D01*
X91365285Y-109053332D02*
X91317666Y-109077141D01*
X91317666Y-109077141D02*
X91270047Y-109077141D01*
X91270047Y-109077141D02*
X91222428Y-109053332D01*
X91222428Y-109053332D02*
X91198619Y-109029522D01*
X91198619Y-109029522D02*
X91174809Y-108981903D01*
X91174809Y-108981903D02*
X91174809Y-108862856D01*
X91174809Y-108862856D02*
X91198619Y-108791427D01*
X91174809Y-108624761D02*
X91674809Y-108505713D01*
X91674809Y-108505713D02*
X91317666Y-108410475D01*
X91317666Y-108410475D02*
X91674809Y-108315237D01*
X91674809Y-108315237D02*
X91174809Y-108196190D01*
X91722428Y-108124761D02*
X91722428Y-107743808D01*
X91674809Y-107624761D02*
X91174809Y-107624761D01*
X91174809Y-107624761D02*
X91174809Y-107505713D01*
X91174809Y-107505713D02*
X91198619Y-107434285D01*
X91198619Y-107434285D02*
X91246238Y-107386666D01*
X91246238Y-107386666D02*
X91293857Y-107362856D01*
X91293857Y-107362856D02*
X91389095Y-107339047D01*
X91389095Y-107339047D02*
X91460523Y-107339047D01*
X91460523Y-107339047D02*
X91555761Y-107362856D01*
X91555761Y-107362856D02*
X91603380Y-107386666D01*
X91603380Y-107386666D02*
X91651000Y-107434285D01*
X91651000Y-107434285D02*
X91674809Y-107505713D01*
X91674809Y-107505713D02*
X91674809Y-107624761D01*
X91674809Y-107124761D02*
X91174809Y-107124761D01*
X91674809Y-106886666D02*
X91174809Y-106886666D01*
X91174809Y-106886666D02*
X91174809Y-106696190D01*
X91174809Y-106696190D02*
X91198619Y-106648571D01*
X91198619Y-106648571D02*
X91222428Y-106624761D01*
X91222428Y-106624761D02*
X91270047Y-106600952D01*
X91270047Y-106600952D02*
X91341476Y-106600952D01*
X91341476Y-106600952D02*
X91389095Y-106624761D01*
X91389095Y-106624761D02*
X91412904Y-106648571D01*
X91412904Y-106648571D02*
X91436714Y-106696190D01*
X91436714Y-106696190D02*
X91436714Y-106886666D01*
X91722428Y-106505714D02*
X91722428Y-106124761D01*
X91674809Y-106053333D02*
X91341476Y-105791428D01*
X91341476Y-106053333D02*
X91674809Y-105791428D01*
X91174809Y-105505714D02*
X91174809Y-105458095D01*
X91174809Y-105458095D02*
X91198619Y-105410476D01*
X91198619Y-105410476D02*
X91222428Y-105386666D01*
X91222428Y-105386666D02*
X91270047Y-105362857D01*
X91270047Y-105362857D02*
X91365285Y-105339047D01*
X91365285Y-105339047D02*
X91484333Y-105339047D01*
X91484333Y-105339047D02*
X91579571Y-105362857D01*
X91579571Y-105362857D02*
X91627190Y-105386666D01*
X91627190Y-105386666D02*
X91651000Y-105410476D01*
X91651000Y-105410476D02*
X91674809Y-105458095D01*
X91674809Y-105458095D02*
X91674809Y-105505714D01*
X91674809Y-105505714D02*
X91651000Y-105553333D01*
X91651000Y-105553333D02*
X91627190Y-105577142D01*
X91627190Y-105577142D02*
X91579571Y-105600952D01*
X91579571Y-105600952D02*
X91484333Y-105624761D01*
X91484333Y-105624761D02*
X91365285Y-105624761D01*
X91365285Y-105624761D02*
X91270047Y-105600952D01*
X91270047Y-105600952D02*
X91222428Y-105577142D01*
X91222428Y-105577142D02*
X91198619Y-105553333D01*
X91198619Y-105553333D02*
X91174809Y-105505714D01*
X91674809Y-104862857D02*
X91674809Y-105148571D01*
X91674809Y-105005714D02*
X91174809Y-105005714D01*
X91174809Y-105005714D02*
X91246238Y-105053333D01*
X91246238Y-105053333D02*
X91293857Y-105100952D01*
X91293857Y-105100952D02*
X91317666Y-105148571D01*
X88651000Y-107636665D02*
X88674809Y-107565237D01*
X88674809Y-107565237D02*
X88674809Y-107446189D01*
X88674809Y-107446189D02*
X88651000Y-107398570D01*
X88651000Y-107398570D02*
X88627190Y-107374761D01*
X88627190Y-107374761D02*
X88579571Y-107350951D01*
X88579571Y-107350951D02*
X88531952Y-107350951D01*
X88531952Y-107350951D02*
X88484333Y-107374761D01*
X88484333Y-107374761D02*
X88460523Y-107398570D01*
X88460523Y-107398570D02*
X88436714Y-107446189D01*
X88436714Y-107446189D02*
X88412904Y-107541427D01*
X88412904Y-107541427D02*
X88389095Y-107589046D01*
X88389095Y-107589046D02*
X88365285Y-107612856D01*
X88365285Y-107612856D02*
X88317666Y-107636665D01*
X88317666Y-107636665D02*
X88270047Y-107636665D01*
X88270047Y-107636665D02*
X88222428Y-107612856D01*
X88222428Y-107612856D02*
X88198619Y-107589046D01*
X88198619Y-107589046D02*
X88174809Y-107541427D01*
X88174809Y-107541427D02*
X88174809Y-107422380D01*
X88174809Y-107422380D02*
X88198619Y-107350951D01*
X88174809Y-107184285D02*
X88674809Y-107065237D01*
X88674809Y-107065237D02*
X88317666Y-106969999D01*
X88317666Y-106969999D02*
X88674809Y-106874761D01*
X88674809Y-106874761D02*
X88174809Y-106755714D01*
X88674809Y-106303332D02*
X88674809Y-106589046D01*
X88674809Y-106446189D02*
X88174809Y-106446189D01*
X88174809Y-106446189D02*
X88246238Y-106493808D01*
X88246238Y-106493808D02*
X88293857Y-106541427D01*
X88293857Y-106541427D02*
X88317666Y-106589046D01*
D10*
X91147142Y-89584819D02*
X90575714Y-89584819D01*
X90861428Y-89584819D02*
X90861428Y-88584819D01*
X90861428Y-88584819D02*
X90766190Y-88727676D01*
X90766190Y-88727676D02*
X90670952Y-88822914D01*
X90670952Y-88822914D02*
X90575714Y-88870533D01*
X91766190Y-88584819D02*
X91861428Y-88584819D01*
X91861428Y-88584819D02*
X91956666Y-88632438D01*
X91956666Y-88632438D02*
X92004285Y-88680057D01*
X92004285Y-88680057D02*
X92051904Y-88775295D01*
X92051904Y-88775295D02*
X92099523Y-88965771D01*
X92099523Y-88965771D02*
X92099523Y-89203866D01*
X92099523Y-89203866D02*
X92051904Y-89394342D01*
X92051904Y-89394342D02*
X92004285Y-89489580D01*
X92004285Y-89489580D02*
X91956666Y-89537200D01*
X91956666Y-89537200D02*
X91861428Y-89584819D01*
X91861428Y-89584819D02*
X91766190Y-89584819D01*
X91766190Y-89584819D02*
X91670952Y-89537200D01*
X91670952Y-89537200D02*
X91623333Y-89489580D01*
X91623333Y-89489580D02*
X91575714Y-89394342D01*
X91575714Y-89394342D02*
X91528095Y-89203866D01*
X91528095Y-89203866D02*
X91528095Y-88965771D01*
X91528095Y-88965771D02*
X91575714Y-88775295D01*
X91575714Y-88775295D02*
X91623333Y-88680057D01*
X91623333Y-88680057D02*
X91670952Y-88632438D01*
X91670952Y-88632438D02*
X91766190Y-88584819D01*
X92956666Y-88918152D02*
X92956666Y-89584819D01*
X92528095Y-88918152D02*
X92528095Y-89441961D01*
X92528095Y-89441961D02*
X92575714Y-89537200D01*
X92575714Y-89537200D02*
X92670952Y-89584819D01*
X92670952Y-89584819D02*
X92813809Y-89584819D01*
X92813809Y-89584819D02*
X92909047Y-89537200D01*
X92909047Y-89537200D02*
X92956666Y-89489580D01*
D11*
X91690000Y-87295748D02*
X91661428Y-87324320D01*
X91661428Y-87324320D02*
X91575714Y-87352891D01*
X91575714Y-87352891D02*
X91518571Y-87352891D01*
X91518571Y-87352891D02*
X91432857Y-87324320D01*
X91432857Y-87324320D02*
X91375714Y-87267177D01*
X91375714Y-87267177D02*
X91347143Y-87210034D01*
X91347143Y-87210034D02*
X91318571Y-87095748D01*
X91318571Y-87095748D02*
X91318571Y-87010034D01*
X91318571Y-87010034D02*
X91347143Y-86895748D01*
X91347143Y-86895748D02*
X91375714Y-86838605D01*
X91375714Y-86838605D02*
X91432857Y-86781462D01*
X91432857Y-86781462D02*
X91518571Y-86752891D01*
X91518571Y-86752891D02*
X91575714Y-86752891D01*
X91575714Y-86752891D02*
X91661428Y-86781462D01*
X91661428Y-86781462D02*
X91690000Y-86810034D01*
X92204286Y-86752891D02*
X92090000Y-86752891D01*
X92090000Y-86752891D02*
X92032857Y-86781462D01*
X92032857Y-86781462D02*
X92004286Y-86810034D01*
X92004286Y-86810034D02*
X91947143Y-86895748D01*
X91947143Y-86895748D02*
X91918571Y-87010034D01*
X91918571Y-87010034D02*
X91918571Y-87238605D01*
X91918571Y-87238605D02*
X91947143Y-87295748D01*
X91947143Y-87295748D02*
X91975714Y-87324320D01*
X91975714Y-87324320D02*
X92032857Y-87352891D01*
X92032857Y-87352891D02*
X92147143Y-87352891D01*
X92147143Y-87352891D02*
X92204286Y-87324320D01*
X92204286Y-87324320D02*
X92232857Y-87295748D01*
X92232857Y-87295748D02*
X92261428Y-87238605D01*
X92261428Y-87238605D02*
X92261428Y-87095748D01*
X92261428Y-87095748D02*
X92232857Y-87038605D01*
X92232857Y-87038605D02*
X92204286Y-87010034D01*
X92204286Y-87010034D02*
X92147143Y-86981462D01*
X92147143Y-86981462D02*
X92032857Y-86981462D01*
X92032857Y-86981462D02*
X91975714Y-87010034D01*
X91975714Y-87010034D02*
X91947143Y-87038605D01*
X91947143Y-87038605D02*
X91918571Y-87095748D01*
D10*
X106099580Y-92845239D02*
X106147200Y-92892858D01*
X106147200Y-92892858D02*
X106194819Y-93035715D01*
X106194819Y-93035715D02*
X106194819Y-93130953D01*
X106194819Y-93130953D02*
X106147200Y-93273810D01*
X106147200Y-93273810D02*
X106051961Y-93369048D01*
X106051961Y-93369048D02*
X105956723Y-93416667D01*
X105956723Y-93416667D02*
X105766247Y-93464286D01*
X105766247Y-93464286D02*
X105623390Y-93464286D01*
X105623390Y-93464286D02*
X105432914Y-93416667D01*
X105432914Y-93416667D02*
X105337676Y-93369048D01*
X105337676Y-93369048D02*
X105242438Y-93273810D01*
X105242438Y-93273810D02*
X105194819Y-93130953D01*
X105194819Y-93130953D02*
X105194819Y-93035715D01*
X105194819Y-93035715D02*
X105242438Y-92892858D01*
X105242438Y-92892858D02*
X105290057Y-92845239D01*
X106194819Y-92273810D02*
X106147200Y-92369048D01*
X106147200Y-92369048D02*
X106099580Y-92416667D01*
X106099580Y-92416667D02*
X106004342Y-92464286D01*
X106004342Y-92464286D02*
X105718628Y-92464286D01*
X105718628Y-92464286D02*
X105623390Y-92416667D01*
X105623390Y-92416667D02*
X105575771Y-92369048D01*
X105575771Y-92369048D02*
X105528152Y-92273810D01*
X105528152Y-92273810D02*
X105528152Y-92130953D01*
X105528152Y-92130953D02*
X105575771Y-92035715D01*
X105575771Y-92035715D02*
X105623390Y-91988096D01*
X105623390Y-91988096D02*
X105718628Y-91940477D01*
X105718628Y-91940477D02*
X106004342Y-91940477D01*
X106004342Y-91940477D02*
X106099580Y-91988096D01*
X106099580Y-91988096D02*
X106147200Y-92035715D01*
X106147200Y-92035715D02*
X106194819Y-92130953D01*
X106194819Y-92130953D02*
X106194819Y-92273810D01*
X105528152Y-91511905D02*
X106194819Y-91511905D01*
X105623390Y-91511905D02*
X105575771Y-91464286D01*
X105575771Y-91464286D02*
X105528152Y-91369048D01*
X105528152Y-91369048D02*
X105528152Y-91226191D01*
X105528152Y-91226191D02*
X105575771Y-91130953D01*
X105575771Y-91130953D02*
X105671009Y-91083334D01*
X105671009Y-91083334D02*
X106194819Y-91083334D01*
X105528152Y-90607143D02*
X106194819Y-90607143D01*
X105623390Y-90607143D02*
X105575771Y-90559524D01*
X105575771Y-90559524D02*
X105528152Y-90464286D01*
X105528152Y-90464286D02*
X105528152Y-90321429D01*
X105528152Y-90321429D02*
X105575771Y-90226191D01*
X105575771Y-90226191D02*
X105671009Y-90178572D01*
X105671009Y-90178572D02*
X106194819Y-90178572D01*
X106290057Y-89940477D02*
X106290057Y-89178572D01*
X105194819Y-88750000D02*
X105194819Y-88654762D01*
X105194819Y-88654762D02*
X105242438Y-88559524D01*
X105242438Y-88559524D02*
X105290057Y-88511905D01*
X105290057Y-88511905D02*
X105385295Y-88464286D01*
X105385295Y-88464286D02*
X105575771Y-88416667D01*
X105575771Y-88416667D02*
X105813866Y-88416667D01*
X105813866Y-88416667D02*
X106004342Y-88464286D01*
X106004342Y-88464286D02*
X106099580Y-88511905D01*
X106099580Y-88511905D02*
X106147200Y-88559524D01*
X106147200Y-88559524D02*
X106194819Y-88654762D01*
X106194819Y-88654762D02*
X106194819Y-88750000D01*
X106194819Y-88750000D02*
X106147200Y-88845238D01*
X106147200Y-88845238D02*
X106099580Y-88892857D01*
X106099580Y-88892857D02*
X106004342Y-88940476D01*
X106004342Y-88940476D02*
X105813866Y-88988095D01*
X105813866Y-88988095D02*
X105575771Y-88988095D01*
X105575771Y-88988095D02*
X105385295Y-88940476D01*
X105385295Y-88940476D02*
X105290057Y-88892857D01*
X105290057Y-88892857D02*
X105242438Y-88845238D01*
X105242438Y-88845238D02*
X105194819Y-88750000D01*
X106194819Y-87464286D02*
X106194819Y-88035714D01*
X106194819Y-87750000D02*
X105194819Y-87750000D01*
X105194819Y-87750000D02*
X105337676Y-87845238D01*
X105337676Y-87845238D02*
X105432914Y-87940476D01*
X105432914Y-87940476D02*
X105480533Y-88035714D01*
X106194819Y-87130952D02*
X105528152Y-86607143D01*
X105528152Y-87130952D02*
X106194819Y-86607143D01*
X105194819Y-86035714D02*
X105194819Y-85940476D01*
X105194819Y-85940476D02*
X105242438Y-85845238D01*
X105242438Y-85845238D02*
X105290057Y-85797619D01*
X105290057Y-85797619D02*
X105385295Y-85750000D01*
X105385295Y-85750000D02*
X105575771Y-85702381D01*
X105575771Y-85702381D02*
X105813866Y-85702381D01*
X105813866Y-85702381D02*
X106004342Y-85750000D01*
X106004342Y-85750000D02*
X106099580Y-85797619D01*
X106099580Y-85797619D02*
X106147200Y-85845238D01*
X106147200Y-85845238D02*
X106194819Y-85940476D01*
X106194819Y-85940476D02*
X106194819Y-86035714D01*
X106194819Y-86035714D02*
X106147200Y-86130952D01*
X106147200Y-86130952D02*
X106099580Y-86178571D01*
X106099580Y-86178571D02*
X106004342Y-86226190D01*
X106004342Y-86226190D02*
X105813866Y-86273809D01*
X105813866Y-86273809D02*
X105575771Y-86273809D01*
X105575771Y-86273809D02*
X105385295Y-86226190D01*
X105385295Y-86226190D02*
X105290057Y-86178571D01*
X105290057Y-86178571D02*
X105242438Y-86130952D01*
X105242438Y-86130952D02*
X105194819Y-86035714D01*
X105194819Y-85369047D02*
X105194819Y-84750000D01*
X105194819Y-84750000D02*
X105575771Y-85083333D01*
X105575771Y-85083333D02*
X105575771Y-84940476D01*
X105575771Y-84940476D02*
X105623390Y-84845238D01*
X105623390Y-84845238D02*
X105671009Y-84797619D01*
X105671009Y-84797619D02*
X105766247Y-84750000D01*
X105766247Y-84750000D02*
X106004342Y-84750000D01*
X106004342Y-84750000D02*
X106099580Y-84797619D01*
X106099580Y-84797619D02*
X106147200Y-84845238D01*
X106147200Y-84845238D02*
X106194819Y-84940476D01*
X106194819Y-84940476D02*
X106194819Y-85226190D01*
X106194819Y-85226190D02*
X106147200Y-85321428D01*
X106147200Y-85321428D02*
X106099580Y-85369047D01*
X106290057Y-84559524D02*
X106290057Y-83797619D01*
X106147200Y-83607142D02*
X106194819Y-83464285D01*
X106194819Y-83464285D02*
X106194819Y-83226190D01*
X106194819Y-83226190D02*
X106147200Y-83130952D01*
X106147200Y-83130952D02*
X106099580Y-83083333D01*
X106099580Y-83083333D02*
X106004342Y-83035714D01*
X106004342Y-83035714D02*
X105909104Y-83035714D01*
X105909104Y-83035714D02*
X105813866Y-83083333D01*
X105813866Y-83083333D02*
X105766247Y-83130952D01*
X105766247Y-83130952D02*
X105718628Y-83226190D01*
X105718628Y-83226190D02*
X105671009Y-83416666D01*
X105671009Y-83416666D02*
X105623390Y-83511904D01*
X105623390Y-83511904D02*
X105575771Y-83559523D01*
X105575771Y-83559523D02*
X105480533Y-83607142D01*
X105480533Y-83607142D02*
X105385295Y-83607142D01*
X105385295Y-83607142D02*
X105290057Y-83559523D01*
X105290057Y-83559523D02*
X105242438Y-83511904D01*
X105242438Y-83511904D02*
X105194819Y-83416666D01*
X105194819Y-83416666D02*
X105194819Y-83178571D01*
X105194819Y-83178571D02*
X105242438Y-83035714D01*
X106194819Y-82464285D02*
X106147200Y-82559523D01*
X106147200Y-82559523D02*
X106099580Y-82607142D01*
X106099580Y-82607142D02*
X106004342Y-82654761D01*
X106004342Y-82654761D02*
X105718628Y-82654761D01*
X105718628Y-82654761D02*
X105623390Y-82607142D01*
X105623390Y-82607142D02*
X105575771Y-82559523D01*
X105575771Y-82559523D02*
X105528152Y-82464285D01*
X105528152Y-82464285D02*
X105528152Y-82321428D01*
X105528152Y-82321428D02*
X105575771Y-82226190D01*
X105575771Y-82226190D02*
X105623390Y-82178571D01*
X105623390Y-82178571D02*
X105718628Y-82130952D01*
X105718628Y-82130952D02*
X106004342Y-82130952D01*
X106004342Y-82130952D02*
X106099580Y-82178571D01*
X106099580Y-82178571D02*
X106147200Y-82226190D01*
X106147200Y-82226190D02*
X106194819Y-82321428D01*
X106194819Y-82321428D02*
X106194819Y-82464285D01*
X106147200Y-81273809D02*
X106194819Y-81369047D01*
X106194819Y-81369047D02*
X106194819Y-81559523D01*
X106194819Y-81559523D02*
X106147200Y-81654761D01*
X106147200Y-81654761D02*
X106099580Y-81702380D01*
X106099580Y-81702380D02*
X106004342Y-81749999D01*
X106004342Y-81749999D02*
X105718628Y-81749999D01*
X105718628Y-81749999D02*
X105623390Y-81702380D01*
X105623390Y-81702380D02*
X105575771Y-81654761D01*
X105575771Y-81654761D02*
X105528152Y-81559523D01*
X105528152Y-81559523D02*
X105528152Y-81369047D01*
X105528152Y-81369047D02*
X105575771Y-81273809D01*
X106194819Y-80845237D02*
X105194819Y-80845237D01*
X105813866Y-80749999D02*
X106194819Y-80464285D01*
X105528152Y-80464285D02*
X105909104Y-80845237D01*
X106147200Y-79654761D02*
X106194819Y-79749999D01*
X106194819Y-79749999D02*
X106194819Y-79940475D01*
X106194819Y-79940475D02*
X106147200Y-80035713D01*
X106147200Y-80035713D02*
X106051961Y-80083332D01*
X106051961Y-80083332D02*
X105671009Y-80083332D01*
X105671009Y-80083332D02*
X105575771Y-80035713D01*
X105575771Y-80035713D02*
X105528152Y-79940475D01*
X105528152Y-79940475D02*
X105528152Y-79749999D01*
X105528152Y-79749999D02*
X105575771Y-79654761D01*
X105575771Y-79654761D02*
X105671009Y-79607142D01*
X105671009Y-79607142D02*
X105766247Y-79607142D01*
X105766247Y-79607142D02*
X105861485Y-80083332D01*
X105528152Y-79321427D02*
X105528152Y-78940475D01*
X105194819Y-79178570D02*
X106051961Y-79178570D01*
X106051961Y-79178570D02*
X106147200Y-79130951D01*
X106147200Y-79130951D02*
X106194819Y-79035713D01*
X106194819Y-79035713D02*
X106194819Y-78940475D01*
X110276666Y-85704819D02*
X110276666Y-86419104D01*
X110276666Y-86419104D02*
X110229047Y-86561961D01*
X110229047Y-86561961D02*
X110133809Y-86657200D01*
X110133809Y-86657200D02*
X109990952Y-86704819D01*
X109990952Y-86704819D02*
X109895714Y-86704819D01*
X111229047Y-85704819D02*
X110752857Y-85704819D01*
X110752857Y-85704819D02*
X110705238Y-86181009D01*
X110705238Y-86181009D02*
X110752857Y-86133390D01*
X110752857Y-86133390D02*
X110848095Y-86085771D01*
X110848095Y-86085771D02*
X111086190Y-86085771D01*
X111086190Y-86085771D02*
X111181428Y-86133390D01*
X111181428Y-86133390D02*
X111229047Y-86181009D01*
X111229047Y-86181009D02*
X111276666Y-86276247D01*
X111276666Y-86276247D02*
X111276666Y-86514342D01*
X111276666Y-86514342D02*
X111229047Y-86609580D01*
X111229047Y-86609580D02*
X111181428Y-86657200D01*
X111181428Y-86657200D02*
X111086190Y-86704819D01*
X111086190Y-86704819D02*
X110848095Y-86704819D01*
X110848095Y-86704819D02*
X110752857Y-86657200D01*
X110752857Y-86657200D02*
X110705238Y-86609580D01*
X90585714Y-86294819D02*
X90680952Y-86294819D01*
X90680952Y-86294819D02*
X90776190Y-86342438D01*
X90776190Y-86342438D02*
X90823809Y-86390057D01*
X90823809Y-86390057D02*
X90871428Y-86485295D01*
X90871428Y-86485295D02*
X90919047Y-86675771D01*
X90919047Y-86675771D02*
X90919047Y-86913866D01*
X90919047Y-86913866D02*
X90871428Y-87104342D01*
X90871428Y-87104342D02*
X90823809Y-87199580D01*
X90823809Y-87199580D02*
X90776190Y-87247200D01*
X90776190Y-87247200D02*
X90680952Y-87294819D01*
X90680952Y-87294819D02*
X90585714Y-87294819D01*
X90585714Y-87294819D02*
X90490476Y-87247200D01*
X90490476Y-87247200D02*
X90442857Y-87199580D01*
X90442857Y-87199580D02*
X90395238Y-87104342D01*
X90395238Y-87104342D02*
X90347619Y-86913866D01*
X90347619Y-86913866D02*
X90347619Y-86675771D01*
X90347619Y-86675771D02*
X90395238Y-86485295D01*
X90395238Y-86485295D02*
X90442857Y-86390057D01*
X90442857Y-86390057D02*
X90490476Y-86342438D01*
X90490476Y-86342438D02*
X90585714Y-86294819D01*
X91347619Y-87199580D02*
X91395238Y-87247200D01*
X91395238Y-87247200D02*
X91347619Y-87294819D01*
X91347619Y-87294819D02*
X91300000Y-87247200D01*
X91300000Y-87247200D02*
X91347619Y-87199580D01*
X91347619Y-87199580D02*
X91347619Y-87294819D01*
X92347618Y-87294819D02*
X91776190Y-87294819D01*
X92061904Y-87294819D02*
X92061904Y-86294819D01*
X92061904Y-86294819D02*
X91966666Y-86437676D01*
X91966666Y-86437676D02*
X91871428Y-86532914D01*
X91871428Y-86532914D02*
X91776190Y-86580533D01*
X93204761Y-86628152D02*
X93204761Y-87294819D01*
X92776190Y-86628152D02*
X92776190Y-87151961D01*
X92776190Y-87151961D02*
X92823809Y-87247200D01*
X92823809Y-87247200D02*
X92919047Y-87294819D01*
X92919047Y-87294819D02*
X93061904Y-87294819D01*
X93061904Y-87294819D02*
X93157142Y-87247200D01*
X93157142Y-87247200D02*
X93204761Y-87199580D01*
D11*
X91700000Y-85005748D02*
X91671428Y-85034320D01*
X91671428Y-85034320D02*
X91585714Y-85062891D01*
X91585714Y-85062891D02*
X91528571Y-85062891D01*
X91528571Y-85062891D02*
X91442857Y-85034320D01*
X91442857Y-85034320D02*
X91385714Y-84977177D01*
X91385714Y-84977177D02*
X91357143Y-84920034D01*
X91357143Y-84920034D02*
X91328571Y-84805748D01*
X91328571Y-84805748D02*
X91328571Y-84720034D01*
X91328571Y-84720034D02*
X91357143Y-84605748D01*
X91357143Y-84605748D02*
X91385714Y-84548605D01*
X91385714Y-84548605D02*
X91442857Y-84491462D01*
X91442857Y-84491462D02*
X91528571Y-84462891D01*
X91528571Y-84462891D02*
X91585714Y-84462891D01*
X91585714Y-84462891D02*
X91671428Y-84491462D01*
X91671428Y-84491462D02*
X91700000Y-84520034D01*
X91900000Y-84462891D02*
X92300000Y-84462891D01*
X92300000Y-84462891D02*
X92042857Y-85062891D01*
D10*
X90419819Y-90570594D02*
X89419819Y-90570594D01*
X90419819Y-90094404D02*
X89419819Y-90094404D01*
X89419819Y-90094404D02*
X90419819Y-89522976D01*
X90419819Y-89522976D02*
X89419819Y-89522976D01*
X90134104Y-89094404D02*
X90134104Y-88618214D01*
X90419819Y-89189642D02*
X89419819Y-88856309D01*
X89419819Y-88856309D02*
X90419819Y-88522976D01*
X89515057Y-88237261D02*
X89467438Y-88189642D01*
X89467438Y-88189642D02*
X89419819Y-88094404D01*
X89419819Y-88094404D02*
X89419819Y-87856309D01*
X89419819Y-87856309D02*
X89467438Y-87761071D01*
X89467438Y-87761071D02*
X89515057Y-87713452D01*
X89515057Y-87713452D02*
X89610295Y-87665833D01*
X89610295Y-87665833D02*
X89705533Y-87665833D01*
X89705533Y-87665833D02*
X89848390Y-87713452D01*
X89848390Y-87713452D02*
X90419819Y-88284880D01*
X90419819Y-88284880D02*
X90419819Y-87665833D01*
X90419819Y-86713452D02*
X90419819Y-87284880D01*
X90419819Y-86999166D02*
X89419819Y-86999166D01*
X89419819Y-86999166D02*
X89562676Y-87094404D01*
X89562676Y-87094404D02*
X89657914Y-87189642D01*
X89657914Y-87189642D02*
X89705533Y-87284880D01*
X90419819Y-86237261D02*
X90419819Y-86046785D01*
X90419819Y-86046785D02*
X90372200Y-85951547D01*
X90372200Y-85951547D02*
X90324580Y-85903928D01*
X90324580Y-85903928D02*
X90181723Y-85808690D01*
X90181723Y-85808690D02*
X89991247Y-85761071D01*
X89991247Y-85761071D02*
X89610295Y-85761071D01*
X89610295Y-85761071D02*
X89515057Y-85808690D01*
X89515057Y-85808690D02*
X89467438Y-85856309D01*
X89467438Y-85856309D02*
X89419819Y-85951547D01*
X89419819Y-85951547D02*
X89419819Y-86142023D01*
X89419819Y-86142023D02*
X89467438Y-86237261D01*
X89467438Y-86237261D02*
X89515057Y-86284880D01*
X89515057Y-86284880D02*
X89610295Y-86332499D01*
X89610295Y-86332499D02*
X89848390Y-86332499D01*
X89848390Y-86332499D02*
X89943628Y-86284880D01*
X89943628Y-86284880D02*
X89991247Y-86237261D01*
X89991247Y-86237261D02*
X90038866Y-86142023D01*
X90038866Y-86142023D02*
X90038866Y-85951547D01*
X90038866Y-85951547D02*
X89991247Y-85856309D01*
X89991247Y-85856309D02*
X89943628Y-85808690D01*
X89943628Y-85808690D02*
X89848390Y-85761071D01*
X90134104Y-85380118D02*
X90134104Y-84903928D01*
X90419819Y-85475356D02*
X89419819Y-85142023D01*
X89419819Y-85142023D02*
X90419819Y-84808690D01*
X90419819Y-84570594D02*
X89753152Y-84046785D01*
X89753152Y-84570594D02*
X90419819Y-84046785D01*
X90419819Y-83665832D02*
X89419819Y-83665832D01*
X89419819Y-83665832D02*
X89419819Y-83427737D01*
X89419819Y-83427737D02*
X89467438Y-83284880D01*
X89467438Y-83284880D02*
X89562676Y-83189642D01*
X89562676Y-83189642D02*
X89657914Y-83142023D01*
X89657914Y-83142023D02*
X89848390Y-83094404D01*
X89848390Y-83094404D02*
X89991247Y-83094404D01*
X89991247Y-83094404D02*
X90181723Y-83142023D01*
X90181723Y-83142023D02*
X90276961Y-83189642D01*
X90276961Y-83189642D02*
X90372200Y-83284880D01*
X90372200Y-83284880D02*
X90419819Y-83427737D01*
X90419819Y-83427737D02*
X90419819Y-83665832D01*
X90324580Y-82094404D02*
X90372200Y-82142023D01*
X90372200Y-82142023D02*
X90419819Y-82284880D01*
X90419819Y-82284880D02*
X90419819Y-82380118D01*
X90419819Y-82380118D02*
X90372200Y-82522975D01*
X90372200Y-82522975D02*
X90276961Y-82618213D01*
X90276961Y-82618213D02*
X90181723Y-82665832D01*
X90181723Y-82665832D02*
X89991247Y-82713451D01*
X89991247Y-82713451D02*
X89848390Y-82713451D01*
X89848390Y-82713451D02*
X89657914Y-82665832D01*
X89657914Y-82665832D02*
X89562676Y-82618213D01*
X89562676Y-82618213D02*
X89467438Y-82522975D01*
X89467438Y-82522975D02*
X89419819Y-82380118D01*
X89419819Y-82380118D02*
X89419819Y-82284880D01*
X89419819Y-82284880D02*
X89467438Y-82142023D01*
X89467438Y-82142023D02*
X89515057Y-82094404D01*
X90419819Y-81665832D02*
X89419819Y-81665832D01*
X89419819Y-81665832D02*
X90419819Y-81094404D01*
X90419819Y-81094404D02*
X89419819Y-81094404D01*
D14*
X87346927Y-86137261D02*
X87670737Y-86137261D01*
X87670737Y-86137261D02*
X87708832Y-86118214D01*
X87708832Y-86118214D02*
X87727880Y-86099166D01*
X87727880Y-86099166D02*
X87746927Y-86061071D01*
X87746927Y-86061071D02*
X87746927Y-85984880D01*
X87746927Y-85984880D02*
X87727880Y-85946785D01*
X87727880Y-85946785D02*
X87708832Y-85927738D01*
X87708832Y-85927738D02*
X87670737Y-85908690D01*
X87670737Y-85908690D02*
X87346927Y-85908690D01*
X87385022Y-85737261D02*
X87365975Y-85718213D01*
X87365975Y-85718213D02*
X87346927Y-85680118D01*
X87346927Y-85680118D02*
X87346927Y-85584880D01*
X87346927Y-85584880D02*
X87365975Y-85546785D01*
X87365975Y-85546785D02*
X87385022Y-85527737D01*
X87385022Y-85527737D02*
X87423118Y-85508690D01*
X87423118Y-85508690D02*
X87461213Y-85508690D01*
X87461213Y-85508690D02*
X87518356Y-85527737D01*
X87518356Y-85527737D02*
X87746927Y-85756309D01*
X87746927Y-85756309D02*
X87746927Y-85508690D01*
D10*
X99232143Y-100754819D02*
X99327381Y-100754819D01*
X99327381Y-100754819D02*
X99422619Y-100802438D01*
X99422619Y-100802438D02*
X99470238Y-100850057D01*
X99470238Y-100850057D02*
X99517857Y-100945295D01*
X99517857Y-100945295D02*
X99565476Y-101135771D01*
X99565476Y-101135771D02*
X99565476Y-101373866D01*
X99565476Y-101373866D02*
X99517857Y-101564342D01*
X99517857Y-101564342D02*
X99470238Y-101659580D01*
X99470238Y-101659580D02*
X99422619Y-101707200D01*
X99422619Y-101707200D02*
X99327381Y-101754819D01*
X99327381Y-101754819D02*
X99232143Y-101754819D01*
X99232143Y-101754819D02*
X99136905Y-101707200D01*
X99136905Y-101707200D02*
X99089286Y-101659580D01*
X99089286Y-101659580D02*
X99041667Y-101564342D01*
X99041667Y-101564342D02*
X98994048Y-101373866D01*
X98994048Y-101373866D02*
X98994048Y-101135771D01*
X98994048Y-101135771D02*
X99041667Y-100945295D01*
X99041667Y-100945295D02*
X99089286Y-100850057D01*
X99089286Y-100850057D02*
X99136905Y-100802438D01*
X99136905Y-100802438D02*
X99232143Y-100754819D01*
X99994048Y-101659580D02*
X100041667Y-101707200D01*
X100041667Y-101707200D02*
X99994048Y-101754819D01*
X99994048Y-101754819D02*
X99946429Y-101707200D01*
X99946429Y-101707200D02*
X99994048Y-101659580D01*
X99994048Y-101659580D02*
X99994048Y-101754819D01*
X100994047Y-101754819D02*
X100422619Y-101754819D01*
X100708333Y-101754819D02*
X100708333Y-100754819D01*
X100708333Y-100754819D02*
X100613095Y-100897676D01*
X100613095Y-100897676D02*
X100517857Y-100992914D01*
X100517857Y-100992914D02*
X100422619Y-101040533D01*
X101851190Y-101088152D02*
X101851190Y-101754819D01*
X101422619Y-101088152D02*
X101422619Y-101611961D01*
X101422619Y-101611961D02*
X101470238Y-101707200D01*
X101470238Y-101707200D02*
X101565476Y-101754819D01*
X101565476Y-101754819D02*
X101708333Y-101754819D01*
X101708333Y-101754819D02*
X101803571Y-101707200D01*
X101803571Y-101707200D02*
X101851190Y-101659580D01*
X102660714Y-101231009D02*
X102327381Y-101231009D01*
X102327381Y-101754819D02*
X102327381Y-100754819D01*
X102327381Y-100754819D02*
X102803571Y-100754819D01*
D11*
X100775000Y-103565748D02*
X100746428Y-103594320D01*
X100746428Y-103594320D02*
X100660714Y-103622891D01*
X100660714Y-103622891D02*
X100603571Y-103622891D01*
X100603571Y-103622891D02*
X100517857Y-103594320D01*
X100517857Y-103594320D02*
X100460714Y-103537177D01*
X100460714Y-103537177D02*
X100432143Y-103480034D01*
X100432143Y-103480034D02*
X100403571Y-103365748D01*
X100403571Y-103365748D02*
X100403571Y-103280034D01*
X100403571Y-103280034D02*
X100432143Y-103165748D01*
X100432143Y-103165748D02*
X100460714Y-103108605D01*
X100460714Y-103108605D02*
X100517857Y-103051462D01*
X100517857Y-103051462D02*
X100603571Y-103022891D01*
X100603571Y-103022891D02*
X100660714Y-103022891D01*
X100660714Y-103022891D02*
X100746428Y-103051462D01*
X100746428Y-103051462D02*
X100775000Y-103080034D01*
X101317857Y-103022891D02*
X101032143Y-103022891D01*
X101032143Y-103022891D02*
X101003571Y-103308605D01*
X101003571Y-103308605D02*
X101032143Y-103280034D01*
X101032143Y-103280034D02*
X101089286Y-103251462D01*
X101089286Y-103251462D02*
X101232143Y-103251462D01*
X101232143Y-103251462D02*
X101289286Y-103280034D01*
X101289286Y-103280034D02*
X101317857Y-103308605D01*
X101317857Y-103308605D02*
X101346428Y-103365748D01*
X101346428Y-103365748D02*
X101346428Y-103508605D01*
X101346428Y-103508605D02*
X101317857Y-103565748D01*
X101317857Y-103565748D02*
X101289286Y-103594320D01*
X101289286Y-103594320D02*
X101232143Y-103622891D01*
X101232143Y-103622891D02*
X101089286Y-103622891D01*
X101089286Y-103622891D02*
X101032143Y-103594320D01*
X101032143Y-103594320D02*
X101003571Y-103565748D01*
D10*
X85641905Y-87064819D02*
X85737143Y-87064819D01*
X85737143Y-87064819D02*
X85832381Y-87112438D01*
X85832381Y-87112438D02*
X85880000Y-87160057D01*
X85880000Y-87160057D02*
X85927619Y-87255295D01*
X85927619Y-87255295D02*
X85975238Y-87445771D01*
X85975238Y-87445771D02*
X85975238Y-87683866D01*
X85975238Y-87683866D02*
X85927619Y-87874342D01*
X85927619Y-87874342D02*
X85880000Y-87969580D01*
X85880000Y-87969580D02*
X85832381Y-88017200D01*
X85832381Y-88017200D02*
X85737143Y-88064819D01*
X85737143Y-88064819D02*
X85641905Y-88064819D01*
X85641905Y-88064819D02*
X85546667Y-88017200D01*
X85546667Y-88017200D02*
X85499048Y-87969580D01*
X85499048Y-87969580D02*
X85451429Y-87874342D01*
X85451429Y-87874342D02*
X85403810Y-87683866D01*
X85403810Y-87683866D02*
X85403810Y-87445771D01*
X85403810Y-87445771D02*
X85451429Y-87255295D01*
X85451429Y-87255295D02*
X85499048Y-87160057D01*
X85499048Y-87160057D02*
X85546667Y-87112438D01*
X85546667Y-87112438D02*
X85641905Y-87064819D01*
X86403810Y-87969580D02*
X86451429Y-88017200D01*
X86451429Y-88017200D02*
X86403810Y-88064819D01*
X86403810Y-88064819D02*
X86356191Y-88017200D01*
X86356191Y-88017200D02*
X86403810Y-87969580D01*
X86403810Y-87969580D02*
X86403810Y-88064819D01*
X87070476Y-87064819D02*
X87165714Y-87064819D01*
X87165714Y-87064819D02*
X87260952Y-87112438D01*
X87260952Y-87112438D02*
X87308571Y-87160057D01*
X87308571Y-87160057D02*
X87356190Y-87255295D01*
X87356190Y-87255295D02*
X87403809Y-87445771D01*
X87403809Y-87445771D02*
X87403809Y-87683866D01*
X87403809Y-87683866D02*
X87356190Y-87874342D01*
X87356190Y-87874342D02*
X87308571Y-87969580D01*
X87308571Y-87969580D02*
X87260952Y-88017200D01*
X87260952Y-88017200D02*
X87165714Y-88064819D01*
X87165714Y-88064819D02*
X87070476Y-88064819D01*
X87070476Y-88064819D02*
X86975238Y-88017200D01*
X86975238Y-88017200D02*
X86927619Y-87969580D01*
X86927619Y-87969580D02*
X86880000Y-87874342D01*
X86880000Y-87874342D02*
X86832381Y-87683866D01*
X86832381Y-87683866D02*
X86832381Y-87445771D01*
X86832381Y-87445771D02*
X86880000Y-87255295D01*
X86880000Y-87255295D02*
X86927619Y-87160057D01*
X86927619Y-87160057D02*
X86975238Y-87112438D01*
X86975238Y-87112438D02*
X87070476Y-87064819D01*
X88356190Y-88064819D02*
X87784762Y-88064819D01*
X88070476Y-88064819D02*
X88070476Y-87064819D01*
X88070476Y-87064819D02*
X87975238Y-87207676D01*
X87975238Y-87207676D02*
X87880000Y-87302914D01*
X87880000Y-87302914D02*
X87784762Y-87350533D01*
X86713333Y-90684819D02*
X86380000Y-90208628D01*
X86141905Y-90684819D02*
X86141905Y-89684819D01*
X86141905Y-89684819D02*
X86522857Y-89684819D01*
X86522857Y-89684819D02*
X86618095Y-89732438D01*
X86618095Y-89732438D02*
X86665714Y-89780057D01*
X86665714Y-89780057D02*
X86713333Y-89875295D01*
X86713333Y-89875295D02*
X86713333Y-90018152D01*
X86713333Y-90018152D02*
X86665714Y-90113390D01*
X86665714Y-90113390D02*
X86618095Y-90161009D01*
X86618095Y-90161009D02*
X86522857Y-90208628D01*
X86522857Y-90208628D02*
X86141905Y-90208628D01*
X87094286Y-89780057D02*
X87141905Y-89732438D01*
X87141905Y-89732438D02*
X87237143Y-89684819D01*
X87237143Y-89684819D02*
X87475238Y-89684819D01*
X87475238Y-89684819D02*
X87570476Y-89732438D01*
X87570476Y-89732438D02*
X87618095Y-89780057D01*
X87618095Y-89780057D02*
X87665714Y-89875295D01*
X87665714Y-89875295D02*
X87665714Y-89970533D01*
X87665714Y-89970533D02*
X87618095Y-90113390D01*
X87618095Y-90113390D02*
X87046667Y-90684819D01*
X87046667Y-90684819D02*
X87665714Y-90684819D01*
D15*
%TO.C,J3*%
X106775000Y-75055000D02*
X113760000Y-75055000D01*
X106775000Y-77595000D02*
X106775000Y-75055000D01*
X113760000Y-75055000D02*
X114395000Y-75690000D01*
X114395000Y-75690000D02*
X114395000Y-77595000D01*
X114395000Y-77595000D02*
X106775000Y-77595000D01*
%TO.C,J7*%
X106800000Y-94305000D02*
X113785000Y-94305000D01*
X106800000Y-96845000D02*
X106800000Y-94305000D01*
X113785000Y-94305000D02*
X114420000Y-94940000D01*
X114420000Y-94940000D02*
X114420000Y-96845000D01*
X114420000Y-96845000D02*
X106800000Y-96845000D01*
%TO.C,J1*%
X116730000Y-73325000D02*
X117365000Y-72690000D01*
X116730000Y-118410000D02*
X116730000Y-73325000D01*
X117365000Y-72690000D02*
X119270000Y-72690000D01*
X119270000Y-72690000D02*
X119270000Y-118410000D01*
X119270000Y-118410000D02*
X116730000Y-118410000D01*
%TO.C,R1*%
X100430000Y-72280000D02*
X102360000Y-72280000D01*
X102360000Y-71030000D02*
X102360000Y-73530000D01*
X102360000Y-73530000D02*
X108660000Y-73530000D01*
X108660000Y-71030000D02*
X102360000Y-71030000D01*
X108660000Y-73530000D02*
X108660000Y-71030000D01*
X110590000Y-72280000D02*
X108660000Y-72280000D01*
%TO.C,C3*%
X96250000Y-103075000D02*
X96250000Y-106075000D01*
X96250000Y-106075000D02*
X97850000Y-106075000D01*
X97850000Y-103075000D02*
X96250000Y-103075000D01*
X97850000Y-106075000D02*
X97850000Y-103075000D01*
%TO.C,BT1*%
X87095000Y-116800000D02*
X92175000Y-116800000D01*
X87095000Y-118705000D02*
X87095000Y-116800000D01*
X87730000Y-119340000D02*
X87095000Y-118705000D01*
X92175000Y-116800000D02*
X92175000Y-119340000D01*
X92175000Y-119340000D02*
X87730000Y-119340000D01*
%TO.C,C4*%
X98012500Y-118165448D02*
X99262500Y-118165448D01*
X98637500Y-118790448D02*
X98637500Y-117540448D01*
X107625000Y-113423959D02*
G75*
G02*
X95125000Y-113423959I-6250000J0D01*
G01*
X95125000Y-113423959D02*
G75*
G02*
X107625000Y-113423959I6250000J0D01*
G01*
%TO.C,J6*%
X106800000Y-89605000D02*
X113785000Y-89605000D01*
X106800000Y-92145000D02*
X106800000Y-89605000D01*
X113785000Y-89605000D02*
X114420000Y-90240000D01*
X114420000Y-90240000D02*
X114420000Y-92145000D01*
X114420000Y-92145000D02*
X106800000Y-92145000D01*
%TO.C,C1*%
X110350000Y-111150000D02*
X110350000Y-113050000D01*
X110350000Y-113050000D02*
X114650000Y-113050000D01*
X114650000Y-111150000D02*
X110350000Y-111150000D01*
X114650000Y-113050000D02*
X114650000Y-111150000D01*
%TO.C,R3*%
X89420000Y-74110000D02*
X89420000Y-80410000D01*
X89420000Y-80410000D02*
X91920000Y-80410000D01*
X90670000Y-72180000D02*
X90670000Y-74110000D01*
X90670000Y-82340000D02*
X90670000Y-80410000D01*
X91920000Y-74110000D02*
X89420000Y-74110000D01*
X91920000Y-80410000D02*
X91920000Y-74110000D01*
%TO.C,J4*%
X106775000Y-80105000D02*
X113760000Y-80105000D01*
X106775000Y-82645000D02*
X106775000Y-80105000D01*
X113760000Y-80105000D02*
X114395000Y-80740000D01*
X114395000Y-80740000D02*
X114395000Y-82645000D01*
X114395000Y-82645000D02*
X106775000Y-82645000D01*
%TO.C,C2*%
X110350000Y-113800000D02*
X110350000Y-115700000D01*
X110350000Y-115700000D02*
X114650000Y-115700000D01*
X114650000Y-113800000D02*
X110350000Y-113800000D01*
X114650000Y-115700000D02*
X114650000Y-113800000D01*
%TO.C,D1*%
X97280000Y-75108810D02*
X97280000Y-77441190D01*
X97280000Y-75108810D02*
G75*
G02*
X97279445Y-77440476I1500000J-1166190D01*
G01*
X100280000Y-76275000D02*
G75*
G02*
X97280000Y-76275000I-1500000J0D01*
G01*
X97280000Y-76275000D02*
G75*
G02*
X100280000Y-76275000I1500000J0D01*
G01*
%TO.C,J2*%
X139530000Y-73365000D02*
X140165000Y-72730000D01*
X139530000Y-118450000D02*
X139530000Y-73365000D01*
X140165000Y-72730000D02*
X142070000Y-72730000D01*
X142070000Y-72730000D02*
X142070000Y-118450000D01*
X142070000Y-118450000D02*
X139530000Y-118450000D01*
%TO.C,U1*%
X94625000Y-81250000D02*
X104625000Y-81250000D01*
X94625000Y-87650000D02*
X94625000Y-81250000D01*
X94625000Y-87650000D02*
X104625000Y-87650000D01*
X94625000Y-96900000D02*
X94625000Y-87650000D01*
X97085000Y-96900000D02*
X97085000Y-100710000D01*
X99625000Y-96900000D02*
X99625000Y-100710000D01*
X102165000Y-96900000D02*
X102165000Y-100710000D01*
X104625000Y-81250000D02*
X104625000Y-87650000D01*
X104625000Y-87650000D02*
X94625000Y-87650000D01*
X104625000Y-87650000D02*
X104625000Y-96900000D01*
X104625000Y-96900000D02*
X94625000Y-96900000D01*
X101475000Y-84050000D02*
G75*
G02*
X97775000Y-84050000I-1850000J0D01*
G01*
X97775000Y-84050000D02*
G75*
G02*
X101475000Y-84050000I1850000J0D01*
G01*
%TO.C,R4*%
X86250000Y-74110000D02*
X86250000Y-80410000D01*
X86250000Y-80410000D02*
X88750000Y-80410000D01*
X87500000Y-72180000D02*
X87500000Y-74110000D01*
X87500000Y-82340000D02*
X87500000Y-80410000D01*
X88750000Y-74110000D02*
X86250000Y-74110000D01*
X88750000Y-80410000D02*
X88750000Y-74110000D01*
%TO.C,SW1*%
X84450000Y-100470000D02*
X84450000Y-112470000D01*
X84450000Y-112470000D02*
X85450000Y-113470000D01*
X85450000Y-113470000D02*
X92450000Y-113470000D01*
X92450000Y-100470000D02*
X84450000Y-100470000D01*
X92450000Y-113470000D02*
X92450000Y-100470000D01*
%TO.C,C6*%
X90290000Y-86280000D02*
X90290000Y-87880000D01*
X90290000Y-87880000D02*
X93290000Y-87880000D01*
X93290000Y-86280000D02*
X90290000Y-86280000D01*
X93290000Y-87880000D02*
X93290000Y-86280000D01*
%TO.C,J5*%
X106800000Y-84980000D02*
X113785000Y-84980000D01*
X106800000Y-87520000D02*
X106800000Y-84980000D01*
X113785000Y-84980000D02*
X114420000Y-85615000D01*
X114420000Y-85615000D02*
X114420000Y-87520000D01*
X114420000Y-87520000D02*
X106800000Y-87520000D01*
%TO.C,C7*%
X90300000Y-83990000D02*
X90300000Y-85590000D01*
X90300000Y-85590000D02*
X93300000Y-85590000D01*
X93300000Y-83990000D02*
X90300000Y-83990000D01*
X93300000Y-85590000D02*
X93300000Y-83990000D01*
%TO.C,U2*%
X86115000Y-85032500D02*
X89015000Y-85032500D01*
X86115000Y-86232500D02*
X86115000Y-85032500D01*
X86515000Y-86632500D02*
X86115000Y-86232500D01*
X89015000Y-85032500D02*
X89015000Y-86632500D01*
X89015000Y-86632500D02*
X86515000Y-86632500D01*
%TO.C,C5*%
X99375000Y-102550000D02*
X99375000Y-104150000D01*
X99375000Y-104150000D02*
X102375000Y-104150000D01*
X102375000Y-102550000D02*
X99375000Y-102550000D01*
X102375000Y-104150000D02*
X102375000Y-102550000D01*
%TO.C,R2*%
X83730000Y-88630000D02*
X90030000Y-88630000D01*
X83730000Y-91830000D02*
X83730000Y-88630000D01*
X90030000Y-88630000D02*
X90030000Y-91830000D01*
X90030000Y-91830000D02*
X83730000Y-91830000D01*
%TD*%
M02*
