%TF.GenerationSoftware,KiCad,Pcbnew,8.0.2*%
%TF.CreationDate,2025-03-31T19:17:40+02:00*%
%TF.ProjectId,carte_robo_pince,63617274-655f-4726-9f62-6f5f70696e63,rev?*%
%TF.SameCoordinates,Original*%
%TF.FileFunction,Copper,L1,Top*%
%TF.FilePolarity,Positive*%
%FSLAX46Y46*%
G04 Gerber Fmt 4.6, Leading zero omitted, Abs format (unit mm)*
G04 Created by KiCad (PCBNEW 8.0.2) date 2025-03-31 19:17:40*
%MOMM*%
%LPD*%
G01*
G04 APERTURE LIST*
G04 Aperture macros list*
%AMRoundRect*
0 Rectangle with rounded corners*
0 $1 Rounding radius*
0 $2 $3 $4 $5 $6 $7 $8 $9 X,Y pos of 4 corners*
0 Add a 4 corners polygon primitive as box body*
4,1,4,$2,$3,$4,$5,$6,$7,$8,$9,$2,$3,0*
0 Add four circle primitives for the rounded corners*
1,1,$1+$1,$2,$3*
1,1,$1+$1,$4,$5*
1,1,$1+$1,$6,$7*
1,1,$1+$1,$8,$9*
0 Add four rect primitives between the rounded corners*
20,1,$1+$1,$2,$3,$4,$5,0*
20,1,$1+$1,$4,$5,$6,$7,0*
20,1,$1+$1,$6,$7,$8,$9,0*
20,1,$1+$1,$8,$9,$2,$3,0*%
G04 Aperture macros list end*
%TA.AperFunction,ComponentPad*%
%ADD10R,1.700000X1.700000*%
%TD*%
%TA.AperFunction,ComponentPad*%
%ADD11O,1.700000X1.700000*%
%TD*%
%TA.AperFunction,ComponentPad*%
%ADD12C,1.600000*%
%TD*%
%TA.AperFunction,ComponentPad*%
%ADD13O,1.600000X1.600000*%
%TD*%
%TA.AperFunction,ComponentPad*%
%ADD14R,2.400000X2.400000*%
%TD*%
%TA.AperFunction,ComponentPad*%
%ADD15C,2.400000*%
%TD*%
%TA.AperFunction,ComponentPad*%
%ADD16R,1.800000X1.800000*%
%TD*%
%TA.AperFunction,ComponentPad*%
%ADD17C,1.800000*%
%TD*%
%TA.AperFunction,ComponentPad*%
%ADD18R,1.905000X2.000000*%
%TD*%
%TA.AperFunction,ComponentPad*%
%ADD19O,1.905000X2.000000*%
%TD*%
%TA.AperFunction,SMDPad,CuDef*%
%ADD20RoundRect,0.125000X0.125000X-0.537500X0.125000X0.537500X-0.125000X0.537500X-0.125000X-0.537500X0*%
%TD*%
%TA.AperFunction,SMDPad,CuDef*%
%ADD21RoundRect,0.250000X0.362500X1.425000X-0.362500X1.425000X-0.362500X-1.425000X0.362500X-1.425000X0*%
%TD*%
%TA.AperFunction,ViaPad*%
%ADD22C,0.600000*%
%TD*%
%TA.AperFunction,Conductor*%
%ADD23C,0.400000*%
%TD*%
%TA.AperFunction,Conductor*%
%ADD24C,0.200000*%
%TD*%
G04 APERTURE END LIST*
D10*
%TO.P,J3,1,Pin_1*%
%TO.N,GND*%
X113125000Y-76325000D03*
D11*
%TO.P,J3,2,Pin_2*%
%TO.N,/+5V*%
X110585000Y-76325000D03*
%TO.P,J3,3,Pin_3*%
%TO.N,/16_S0*%
X108045000Y-76325000D03*
%TD*%
D10*
%TO.P,J7,1,Pin_1*%
%TO.N,GND*%
X113150000Y-95575000D03*
D11*
%TO.P,J7,2,Pin_2*%
%TO.N,Net-(J7-Pin_2)*%
X110610000Y-95575000D03*
%TO.P,J7,3,Pin_3*%
%TO.N,/4_S5*%
X108070000Y-95575000D03*
%TD*%
D10*
%TO.P,J1,1,Pin_1*%
%TO.N,/SDA*%
X118000000Y-73960000D03*
D11*
%TO.P,J1,2,Pin_2*%
%TO.N,/13_S2*%
X118000000Y-76500000D03*
%TO.P,J1,3,Pin_3*%
%TO.N,unconnected-(J1-Pin_3-Pad3)*%
X118000000Y-79040000D03*
%TO.P,J1,4,Pin_4*%
%TO.N,/14_S3*%
X118000000Y-81580000D03*
%TO.P,J1,5,Pin_5*%
%TO.N,unconnected-(J1-Pin_5-Pad5)*%
X118000000Y-84120000D03*
%TO.P,J1,6,Pin_6*%
%TO.N,unconnected-(J1-Pin_6-Pad6)*%
X118000000Y-86660000D03*
%TO.P,J1,7,Pin_7*%
%TO.N,unconnected-(J1-Pin_7-Pad7)*%
X118000000Y-89200000D03*
%TO.P,J1,8,Pin_8*%
%TO.N,unconnected-(J1-Pin_8-Pad8)*%
X118000000Y-91740000D03*
%TO.P,J1,9,Pin_9*%
%TO.N,unconnected-(J1-Pin_9-Pad9)*%
X118000000Y-94280000D03*
%TO.P,J1,10,Pin_10*%
%TO.N,/35*%
X118000000Y-96820000D03*
%TO.P,J1,11,Pin_11*%
%TO.N,/34*%
X118000000Y-99360000D03*
%TO.P,J1,12,Pin_12*%
%TO.N,/39*%
X118000000Y-101900000D03*
%TO.P,J1,13,Pin_13*%
%TO.N,unconnected-(J1-Pin_13-Pad13)*%
X118000000Y-104440000D03*
%TO.P,J1,14,Pin_14*%
%TO.N,unconnected-(J1-Pin_14-Pad14)*%
X118000000Y-106980000D03*
%TO.P,J1,15,Pin_15*%
%TO.N,/36*%
X118000000Y-109520000D03*
%TO.P,J1,16,Pin_16*%
%TO.N,/+3.3V*%
X118000000Y-112060000D03*
%TO.P,J1,17,Pin_17*%
%TO.N,/+5V*%
X118000000Y-114600000D03*
%TO.P,J1,18,Pin_18*%
%TO.N,GND*%
X118000000Y-117140000D03*
%TD*%
D12*
%TO.P,R1,1*%
%TO.N,Net-(D1-A)*%
X100430000Y-72280000D03*
D13*
%TO.P,R1,2*%
%TO.N,/+5V*%
X110590000Y-72280000D03*
%TD*%
D12*
%TO.P,C3,1*%
%TO.N,Net-(U1-VI)*%
X97050000Y-103325000D03*
%TO.P,C3,2*%
%TO.N,GND*%
X97050000Y-105825000D03*
%TD*%
D10*
%TO.P,BT1,1,+*%
%TO.N,/+8V*%
X88365000Y-118070000D03*
D11*
%TO.P,BT1,2,-*%
%TO.N,GND*%
X90905000Y-118070000D03*
%TD*%
D14*
%TO.P,C4,1*%
%TO.N,GND*%
X101375000Y-115923959D03*
D15*
%TO.P,C4,2*%
%TO.N,/+5V*%
X101375000Y-110923959D03*
%TD*%
D10*
%TO.P,J6,1,Pin_1*%
%TO.N,GND*%
X113150000Y-90875000D03*
D11*
%TO.P,J6,2,Pin_2*%
%TO.N,/+5V*%
X110610000Y-90875000D03*
%TO.P,J6,3,Pin_3*%
%TO.N,/15_S4*%
X108070000Y-90875000D03*
%TD*%
D12*
%TO.P,C1,1*%
%TO.N,/+3.3V*%
X115000000Y-112100000D03*
%TO.P,C1,2*%
%TO.N,GND*%
X110000000Y-112100000D03*
%TD*%
%TO.P,R3,1*%
%TO.N,/+5V*%
X90670000Y-72180000D03*
D13*
%TO.P,R3,2*%
%TO.N,/SCL*%
X90670000Y-82340000D03*
%TD*%
D10*
%TO.P,J4,1,Pin_1*%
%TO.N,GND*%
X113125000Y-81375000D03*
D11*
%TO.P,J4,2,Pin_2*%
%TO.N,/+5V*%
X110585000Y-81375000D03*
%TO.P,J4,3,Pin_3*%
%TO.N,/13_S2*%
X108045000Y-81375000D03*
%TD*%
D12*
%TO.P,C2,1*%
%TO.N,/+5V*%
X115000000Y-114750000D03*
%TO.P,C2,2*%
%TO.N,GND*%
X110000000Y-114750000D03*
%TD*%
D16*
%TO.P,D1,1,K*%
%TO.N,GND*%
X97510000Y-76275000D03*
D17*
%TO.P,D1,2,A*%
%TO.N,Net-(D1-A)*%
X100050000Y-76275000D03*
%TD*%
D10*
%TO.P,J2,1,Pin_1*%
%TO.N,/16_S0*%
X140800000Y-74000000D03*
D11*
%TO.P,J2,2,Pin_2*%
%TO.N,unconnected-(J2-Pin_2-Pad2)*%
X140800000Y-76540000D03*
%TO.P,J2,3,Pin_3*%
%TO.N,/4_S5*%
X140800000Y-79080000D03*
%TO.P,J2,4,Pin_4*%
%TO.N,unconnected-(J2-Pin_4-Pad4)*%
X140800000Y-81620000D03*
%TO.P,J2,5,Pin_5*%
%TO.N,/15_S4*%
X140800000Y-84160000D03*
%TO.P,J2,6,Pin_6*%
%TO.N,unconnected-(J2-Pin_6-Pad6)*%
X140800000Y-86700000D03*
%TO.P,J2,7,Pin_7*%
%TO.N,unconnected-(J2-Pin_7-Pad7)*%
X140800000Y-89240000D03*
%TO.P,J2,8,Pin_8*%
%TO.N,unconnected-(J2-Pin_8-Pad8)*%
X140800000Y-91780000D03*
%TO.P,J2,9,Pin_9*%
%TO.N,unconnected-(J2-Pin_9-Pad9)*%
X140800000Y-94320000D03*
%TO.P,J2,10,Pin_10*%
%TO.N,/SCL*%
X140800000Y-96860000D03*
%TO.P,J2,11,Pin_11*%
%TO.N,unconnected-(J2-Pin_11-Pad11)*%
X140800000Y-99400000D03*
%TO.P,J2,12,Pin_12*%
%TO.N,unconnected-(J2-Pin_12-Pad12)*%
X140800000Y-101940000D03*
%TO.P,J2,13,Pin_13*%
%TO.N,unconnected-(J2-Pin_13-Pad13)*%
X140800000Y-104480000D03*
%TO.P,J2,14,Pin_14*%
%TO.N,unconnected-(J2-Pin_14-Pad14)*%
X140800000Y-107020000D03*
%TO.P,J2,15,Pin_15*%
%TO.N,unconnected-(J2-Pin_15-Pad15)*%
X140800000Y-109560000D03*
%TO.P,J2,16,Pin_16*%
%TO.N,unconnected-(J2-Pin_16-Pad16)*%
X140800000Y-112100000D03*
%TO.P,J2,17,Pin_17*%
%TO.N,unconnected-(J2-Pin_17-Pad17)*%
X140800000Y-114640000D03*
%TO.P,J2,18,Pin_18*%
%TO.N,unconnected-(J2-Pin_18-Pad18)*%
X140800000Y-117180000D03*
%TD*%
D18*
%TO.P,U1,1,VI*%
%TO.N,Net-(U1-VI)*%
X97085000Y-100710000D03*
D19*
%TO.P,U1,2,GND*%
%TO.N,GND*%
X99625000Y-100710000D03*
%TO.P,U1,3,VO*%
%TO.N,/+5V*%
X102165000Y-100710000D03*
%TD*%
D12*
%TO.P,R4,1*%
%TO.N,/+5V*%
X87500000Y-72180000D03*
D13*
%TO.P,R4,2*%
%TO.N,/SDA*%
X87500000Y-82340000D03*
%TD*%
D15*
%TO.P,SW1,1*%
%TO.N,/+8V*%
X88450000Y-111970000D03*
%TO.P,SW1,2*%
%TO.N,Net-(U1-VI)*%
X88450000Y-106970000D03*
D14*
%TO.P,SW1,3*%
%TO.N,N/C*%
X88450000Y-101970000D03*
%TD*%
D12*
%TO.P,C6,1*%
%TO.N,/+5V*%
X90540000Y-87080000D03*
%TO.P,C6,2*%
%TO.N,GND*%
X93040000Y-87080000D03*
%TD*%
D10*
%TO.P,J5,1,Pin_1*%
%TO.N,GND*%
X113150000Y-86250000D03*
D11*
%TO.P,J5,2,Pin_2*%
%TO.N,/+5V*%
X110610000Y-86250000D03*
%TO.P,J5,3,Pin_3*%
%TO.N,/14_S3*%
X108070000Y-86250000D03*
%TD*%
D12*
%TO.P,C7,1*%
%TO.N,/+5V*%
X90550000Y-84790000D03*
%TO.P,C7,2*%
%TO.N,GND*%
X93050000Y-84790000D03*
%TD*%
D20*
%TO.P,U2,1,IN+*%
%TO.N,Net-(J7-Pin_2)*%
X86590000Y-86970000D03*
%TO.P,U2,2,IN-*%
%TO.N,/+5V*%
X87240000Y-86970000D03*
%TO.P,U2,3,GND*%
%TO.N,GND*%
X87890000Y-86970000D03*
%TO.P,U2,4,VS*%
%TO.N,/+5V*%
X88540000Y-86970000D03*
%TO.P,U2,5,SCL*%
%TO.N,/SCL*%
X88540000Y-84695000D03*
%TO.P,U2,6,SDA*%
%TO.N,/SDA*%
X87890000Y-84695000D03*
%TO.P,U2,7,A0*%
%TO.N,GND*%
X87240000Y-84695000D03*
%TO.P,U2,8,A1*%
X86590000Y-84695000D03*
%TD*%
D12*
%TO.P,C5,1*%
%TO.N,/+5V*%
X102125000Y-103350000D03*
%TO.P,C5,2*%
%TO.N,GND*%
X99625000Y-103350000D03*
%TD*%
D21*
%TO.P,R2,1*%
%TO.N,/+5V*%
X89842500Y-90230000D03*
%TO.P,R2,2*%
%TO.N,Net-(J7-Pin_2)*%
X83917500Y-90230000D03*
%TD*%
D22*
%TO.N,GND*%
X113120000Y-73730000D03*
X87568682Y-85839354D03*
%TO.N,/SCL*%
X128820000Y-88720000D03*
X111330000Y-78050000D03*
%TD*%
D23*
%TO.N,GND*%
X87240000Y-84695000D02*
X86590000Y-84695000D01*
X87568682Y-85861318D02*
X87568682Y-85839354D01*
X87554213Y-85875787D02*
X87240000Y-85561574D01*
D24*
X113125000Y-73735000D02*
X113120000Y-73730000D01*
D23*
X87890000Y-86970000D02*
X87890000Y-86211574D01*
X87890000Y-86211574D02*
X87554213Y-85875787D01*
X87240000Y-85561574D02*
X87240000Y-84695000D01*
D24*
X113125000Y-76325000D02*
X113125000Y-73735000D01*
D23*
X87554213Y-85875787D02*
X87568682Y-85861318D01*
%TO.N,/+3.3V*%
X118000000Y-112060000D02*
X115040000Y-112060000D01*
X115040000Y-112060000D02*
X115000000Y-112100000D01*
%TO.N,/+5V*%
X88540000Y-86970000D02*
X90430000Y-86970000D01*
X89842500Y-87777500D02*
X90540000Y-87080000D01*
X110610000Y-90875000D02*
X110610000Y-86250000D01*
X89842500Y-90230000D02*
X89842500Y-87777500D01*
X104001041Y-113550000D02*
X104001041Y-113551041D01*
X113800000Y-115950000D02*
X115000000Y-114750000D01*
X92940000Y-80220000D02*
X92940000Y-74450000D01*
X92940000Y-74450000D02*
X90670000Y-72180000D01*
X89230000Y-90230000D02*
X89842500Y-90230000D01*
X90550000Y-84790000D02*
X92940000Y-82400000D01*
X117850000Y-114750000D02*
X118000000Y-114600000D01*
X90540000Y-87080000D02*
X90540000Y-84800000D01*
X106400000Y-115950000D02*
X113800000Y-115950000D01*
X101375000Y-104395000D02*
X101375000Y-110923959D01*
X110585000Y-76325000D02*
X110585000Y-81375000D01*
X110585000Y-75995000D02*
X110585000Y-76325000D01*
X115000000Y-114750000D02*
X117850000Y-114750000D01*
X102125000Y-100750000D02*
X102165000Y-100710000D01*
X110590000Y-72280000D02*
X110590000Y-75990000D01*
X109335000Y-80125000D02*
X110585000Y-81375000D01*
X102125000Y-103645000D02*
X101375000Y-104395000D01*
X92940000Y-82400000D02*
X92940000Y-80220000D01*
X90540000Y-84800000D02*
X90550000Y-84790000D01*
X104001041Y-113551041D02*
X106400000Y-115950000D01*
X90430000Y-86970000D02*
X90540000Y-87080000D01*
X110590000Y-75990000D02*
X110585000Y-75995000D01*
X102125000Y-103350000D02*
X102125000Y-100750000D01*
X87240000Y-86970000D02*
X87240000Y-88240000D01*
X101375000Y-110923959D02*
X104001041Y-113550000D01*
X102125000Y-103350000D02*
X102125000Y-103645000D01*
X87240000Y-88240000D02*
X89230000Y-90230000D01*
X110610000Y-86250000D02*
X110610000Y-81400000D01*
X110610000Y-81400000D02*
X110585000Y-81375000D01*
X93035000Y-80125000D02*
X109335000Y-80125000D01*
X92940000Y-80220000D02*
X93035000Y-80125000D01*
X87500000Y-72180000D02*
X90670000Y-72180000D01*
D24*
%TO.N,/4_S5*%
X108070000Y-95575000D02*
X110625000Y-93020000D01*
X126860000Y-93020000D02*
X140800000Y-79080000D01*
X110625000Y-93020000D02*
X126860000Y-93020000D01*
D23*
%TO.N,/+8V*%
X88450000Y-111970000D02*
X88450000Y-117985000D01*
X88450000Y-117985000D02*
X88365000Y-118070000D01*
%TO.N,Net-(U1-VI)*%
X97050000Y-103325000D02*
X97050000Y-100745000D01*
X94455000Y-103325000D02*
X97050000Y-103325000D01*
X90810000Y-106970000D02*
X94455000Y-103325000D01*
X88450000Y-106970000D02*
X90810000Y-106970000D01*
X97050000Y-100745000D02*
X97085000Y-100710000D01*
%TO.N,Net-(D1-A)*%
X100145000Y-76275000D02*
X100050000Y-76275000D01*
X100430000Y-72280000D02*
X100430000Y-75990000D01*
X100430000Y-75990000D02*
X100145000Y-76275000D01*
%TO.N,Net-(J7-Pin_2)*%
X83917500Y-93267500D02*
X88980000Y-98330000D01*
X86590000Y-88310000D02*
X84670000Y-90230000D01*
X107855000Y-98330000D02*
X110610000Y-95575000D01*
X84670000Y-90230000D02*
X83917500Y-90230000D01*
X86590000Y-86970000D02*
X86590000Y-88310000D01*
X88980000Y-98330000D02*
X107855000Y-98330000D01*
X83917500Y-90230000D02*
X83917500Y-93267500D01*
D24*
%TO.N,/SCL*%
X128820000Y-88720000D02*
X128820000Y-88710000D01*
X120400000Y-80290000D02*
X116730000Y-80290000D01*
X128820000Y-88710000D02*
X127130000Y-87020000D01*
X127130000Y-87020000D02*
X120400000Y-80290000D01*
X114490000Y-78050000D02*
X111330000Y-78050000D01*
X116730000Y-80290000D02*
X114490000Y-78050000D01*
D23*
X88540000Y-83000000D02*
X88540000Y-84695000D01*
X89200000Y-82340000D02*
X88540000Y-83000000D01*
X90670000Y-82340000D02*
X89200000Y-82340000D01*
%TO.N,/SDA*%
X87890000Y-84695000D02*
X87890000Y-82730000D01*
X87890000Y-82730000D02*
X87500000Y-82340000D01*
%TD*%
M02*
