%TF.GenerationSoftware,KiCad,Pcbnew,8.0.2*%
%TF.CreationDate,2025-03-31T19:17:40+02:00*%
%TF.ProjectId,carte_robo_pince,63617274-655f-4726-9f62-6f5f70696e63,rev?*%
%TF.SameCoordinates,Original*%
%TF.FileFunction,Legend,Top*%
%TF.FilePolarity,Positive*%
%FSLAX46Y46*%
G04 Gerber Fmt 4.6, Leading zero omitted, Abs format (unit mm)*
G04 Created by KiCad (PCBNEW 8.0.2) date 2025-03-31 19:17:40*
%MOMM*%
%LPD*%
G01*
G04 APERTURE LIST*
%ADD10C,0.100000*%
%ADD11C,0.150000*%
%ADD12C,0.120000*%
G04 APERTURE END LIST*
D10*
X142652580Y-83303884D02*
X143652580Y-83303884D01*
X143652580Y-83303884D02*
X142938295Y-83637217D01*
X142938295Y-83637217D02*
X143652580Y-83970550D01*
X143652580Y-83970550D02*
X142652580Y-83970550D01*
X143319247Y-84875312D02*
X142652580Y-84875312D01*
X143700200Y-84637217D02*
X142985914Y-84399122D01*
X142985914Y-84399122D02*
X142985914Y-85018169D01*
X120947419Y-82296115D02*
X119947419Y-82296115D01*
X119947419Y-82296115D02*
X120661704Y-81962782D01*
X120661704Y-81962782D02*
X119947419Y-81629449D01*
X119947419Y-81629449D02*
X120947419Y-81629449D01*
X119947419Y-81248496D02*
X119947419Y-80629449D01*
X119947419Y-80629449D02*
X120328371Y-80962782D01*
X120328371Y-80962782D02*
X120328371Y-80819925D01*
X120328371Y-80819925D02*
X120375990Y-80724687D01*
X120375990Y-80724687D02*
X120423609Y-80677068D01*
X120423609Y-80677068D02*
X120518847Y-80629449D01*
X120518847Y-80629449D02*
X120756942Y-80629449D01*
X120756942Y-80629449D02*
X120852180Y-80677068D01*
X120852180Y-80677068D02*
X120899800Y-80724687D01*
X120899800Y-80724687D02*
X120947419Y-80819925D01*
X120947419Y-80819925D02*
X120947419Y-81105639D01*
X120947419Y-81105639D02*
X120899800Y-81200877D01*
X120899800Y-81200877D02*
X120852180Y-81248496D01*
X105947419Y-76946115D02*
X104947419Y-76946115D01*
X104947419Y-76946115D02*
X105661704Y-76612782D01*
X105661704Y-76612782D02*
X104947419Y-76279449D01*
X104947419Y-76279449D02*
X105947419Y-76279449D01*
X105947419Y-75279449D02*
X105947419Y-75850877D01*
X105947419Y-75565163D02*
X104947419Y-75565163D01*
X104947419Y-75565163D02*
X105090276Y-75660401D01*
X105090276Y-75660401D02*
X105185514Y-75755639D01*
X105185514Y-75755639D02*
X105233133Y-75850877D01*
X92980038Y-118862306D02*
X92932419Y-118957544D01*
X92932419Y-118957544D02*
X92932419Y-119100401D01*
X92932419Y-119100401D02*
X92980038Y-119243258D01*
X92980038Y-119243258D02*
X93075276Y-119338496D01*
X93075276Y-119338496D02*
X93170514Y-119386115D01*
X93170514Y-119386115D02*
X93360990Y-119433734D01*
X93360990Y-119433734D02*
X93503847Y-119433734D01*
X93503847Y-119433734D02*
X93694323Y-119386115D01*
X93694323Y-119386115D02*
X93789561Y-119338496D01*
X93789561Y-119338496D02*
X93884800Y-119243258D01*
X93884800Y-119243258D02*
X93932419Y-119100401D01*
X93932419Y-119100401D02*
X93932419Y-119005163D01*
X93932419Y-119005163D02*
X93884800Y-118862306D01*
X93884800Y-118862306D02*
X93837180Y-118814687D01*
X93837180Y-118814687D02*
X93503847Y-118814687D01*
X93503847Y-118814687D02*
X93503847Y-119005163D01*
X93932419Y-118386115D02*
X92932419Y-118386115D01*
X92932419Y-118386115D02*
X93932419Y-117814687D01*
X93932419Y-117814687D02*
X92932419Y-117814687D01*
X93932419Y-117338496D02*
X92932419Y-117338496D01*
X92932419Y-117338496D02*
X92932419Y-117100401D01*
X92932419Y-117100401D02*
X92980038Y-116957544D01*
X92980038Y-116957544D02*
X93075276Y-116862306D01*
X93075276Y-116862306D02*
X93170514Y-116814687D01*
X93170514Y-116814687D02*
X93360990Y-116767068D01*
X93360990Y-116767068D02*
X93503847Y-116767068D01*
X93503847Y-116767068D02*
X93694323Y-116814687D01*
X93694323Y-116814687D02*
X93789561Y-116862306D01*
X93789561Y-116862306D02*
X93884800Y-116957544D01*
X93884800Y-116957544D02*
X93932419Y-117100401D01*
X93932419Y-117100401D02*
X93932419Y-117338496D01*
X105997419Y-82096115D02*
X104997419Y-82096115D01*
X104997419Y-82096115D02*
X105711704Y-81762782D01*
X105711704Y-81762782D02*
X104997419Y-81429449D01*
X104997419Y-81429449D02*
X105997419Y-81429449D01*
X105092657Y-81000877D02*
X105045038Y-80953258D01*
X105045038Y-80953258D02*
X104997419Y-80858020D01*
X104997419Y-80858020D02*
X104997419Y-80619925D01*
X104997419Y-80619925D02*
X105045038Y-80524687D01*
X105045038Y-80524687D02*
X105092657Y-80477068D01*
X105092657Y-80477068D02*
X105187895Y-80429449D01*
X105187895Y-80429449D02*
X105283133Y-80429449D01*
X105283133Y-80429449D02*
X105425990Y-80477068D01*
X105425990Y-80477068D02*
X105997419Y-81048496D01*
X105997419Y-81048496D02*
X105997419Y-80429449D01*
X106097419Y-96371115D02*
X105097419Y-96371115D01*
X105097419Y-96371115D02*
X105811704Y-96037782D01*
X105811704Y-96037782D02*
X105097419Y-95704449D01*
X105097419Y-95704449D02*
X106097419Y-95704449D01*
X105097419Y-94752068D02*
X105097419Y-95228258D01*
X105097419Y-95228258D02*
X105573609Y-95275877D01*
X105573609Y-95275877D02*
X105525990Y-95228258D01*
X105525990Y-95228258D02*
X105478371Y-95133020D01*
X105478371Y-95133020D02*
X105478371Y-94894925D01*
X105478371Y-94894925D02*
X105525990Y-94799687D01*
X105525990Y-94799687D02*
X105573609Y-94752068D01*
X105573609Y-94752068D02*
X105668847Y-94704449D01*
X105668847Y-94704449D02*
X105906942Y-94704449D01*
X105906942Y-94704449D02*
X106002180Y-94752068D01*
X106002180Y-94752068D02*
X106049800Y-94799687D01*
X106049800Y-94799687D02*
X106097419Y-94894925D01*
X106097419Y-94894925D02*
X106097419Y-95133020D01*
X106097419Y-95133020D02*
X106049800Y-95228258D01*
X106049800Y-95228258D02*
X106002180Y-95275877D01*
X142652580Y-78453884D02*
X143652580Y-78453884D01*
X143652580Y-78453884D02*
X142938295Y-78787217D01*
X142938295Y-78787217D02*
X143652580Y-79120550D01*
X143652580Y-79120550D02*
X142652580Y-79120550D01*
X143652580Y-80072931D02*
X143652580Y-79596741D01*
X143652580Y-79596741D02*
X143176390Y-79549122D01*
X143176390Y-79549122D02*
X143224009Y-79596741D01*
X143224009Y-79596741D02*
X143271628Y-79691979D01*
X143271628Y-79691979D02*
X143271628Y-79930074D01*
X143271628Y-79930074D02*
X143224009Y-80025312D01*
X143224009Y-80025312D02*
X143176390Y-80072931D01*
X143176390Y-80072931D02*
X143081152Y-80120550D01*
X143081152Y-80120550D02*
X142843057Y-80120550D01*
X142843057Y-80120550D02*
X142747819Y-80072931D01*
X142747819Y-80072931D02*
X142700200Y-80025312D01*
X142700200Y-80025312D02*
X142652580Y-79930074D01*
X142652580Y-79930074D02*
X142652580Y-79691979D01*
X142652580Y-79691979D02*
X142700200Y-79596741D01*
X142700200Y-79596741D02*
X142747819Y-79549122D01*
X120947419Y-77121115D02*
X119947419Y-77121115D01*
X119947419Y-77121115D02*
X120661704Y-76787782D01*
X120661704Y-76787782D02*
X119947419Y-76454449D01*
X119947419Y-76454449D02*
X120947419Y-76454449D01*
X120042657Y-76025877D02*
X119995038Y-75978258D01*
X119995038Y-75978258D02*
X119947419Y-75883020D01*
X119947419Y-75883020D02*
X119947419Y-75644925D01*
X119947419Y-75644925D02*
X119995038Y-75549687D01*
X119995038Y-75549687D02*
X120042657Y-75502068D01*
X120042657Y-75502068D02*
X120137895Y-75454449D01*
X120137895Y-75454449D02*
X120233133Y-75454449D01*
X120233133Y-75454449D02*
X120375990Y-75502068D01*
X120375990Y-75502068D02*
X120947419Y-76073496D01*
X120947419Y-76073496D02*
X120947419Y-75454449D01*
X85643884Y-118071466D02*
X86405789Y-118071466D01*
X86024836Y-118452419D02*
X86024836Y-117690514D01*
X106072419Y-86746115D02*
X105072419Y-86746115D01*
X105072419Y-86746115D02*
X105786704Y-86412782D01*
X105786704Y-86412782D02*
X105072419Y-86079449D01*
X105072419Y-86079449D02*
X106072419Y-86079449D01*
X105072419Y-85698496D02*
X105072419Y-85079449D01*
X105072419Y-85079449D02*
X105453371Y-85412782D01*
X105453371Y-85412782D02*
X105453371Y-85269925D01*
X105453371Y-85269925D02*
X105500990Y-85174687D01*
X105500990Y-85174687D02*
X105548609Y-85127068D01*
X105548609Y-85127068D02*
X105643847Y-85079449D01*
X105643847Y-85079449D02*
X105881942Y-85079449D01*
X105881942Y-85079449D02*
X105977180Y-85127068D01*
X105977180Y-85127068D02*
X106024800Y-85174687D01*
X106024800Y-85174687D02*
X106072419Y-85269925D01*
X106072419Y-85269925D02*
X106072419Y-85555639D01*
X106072419Y-85555639D02*
X106024800Y-85650877D01*
X106024800Y-85650877D02*
X105977180Y-85698496D01*
X106022419Y-91521115D02*
X105022419Y-91521115D01*
X105022419Y-91521115D02*
X105736704Y-91187782D01*
X105736704Y-91187782D02*
X105022419Y-90854449D01*
X105022419Y-90854449D02*
X106022419Y-90854449D01*
X105355752Y-89949687D02*
X106022419Y-89949687D01*
X104974800Y-90187782D02*
X105689085Y-90425877D01*
X105689085Y-90425877D02*
X105689085Y-89806830D01*
X142652580Y-73328884D02*
X143652580Y-73328884D01*
X143652580Y-73328884D02*
X142938295Y-73662217D01*
X142938295Y-73662217D02*
X143652580Y-73995550D01*
X143652580Y-73995550D02*
X142652580Y-73995550D01*
X142652580Y-74995550D02*
X142652580Y-74424122D01*
X142652580Y-74709836D02*
X143652580Y-74709836D01*
X143652580Y-74709836D02*
X143509723Y-74614598D01*
X143509723Y-74614598D02*
X143414485Y-74519360D01*
X143414485Y-74519360D02*
X143366866Y-74424122D01*
D11*
X115004819Y-76758333D02*
X115719104Y-76758333D01*
X115719104Y-76758333D02*
X115861961Y-76805952D01*
X115861961Y-76805952D02*
X115957200Y-76901190D01*
X115957200Y-76901190D02*
X116004819Y-77044047D01*
X116004819Y-77044047D02*
X116004819Y-77139285D01*
X115004819Y-76377380D02*
X115004819Y-75758333D01*
X115004819Y-75758333D02*
X115385771Y-76091666D01*
X115385771Y-76091666D02*
X115385771Y-75948809D01*
X115385771Y-75948809D02*
X115433390Y-75853571D01*
X115433390Y-75853571D02*
X115481009Y-75805952D01*
X115481009Y-75805952D02*
X115576247Y-75758333D01*
X115576247Y-75758333D02*
X115814342Y-75758333D01*
X115814342Y-75758333D02*
X115909580Y-75805952D01*
X115909580Y-75805952D02*
X115957200Y-75853571D01*
X115957200Y-75853571D02*
X116004819Y-75948809D01*
X116004819Y-75948809D02*
X116004819Y-76234523D01*
X116004819Y-76234523D02*
X115957200Y-76329761D01*
X115957200Y-76329761D02*
X115909580Y-76377380D01*
X114934819Y-95908333D02*
X115649104Y-95908333D01*
X115649104Y-95908333D02*
X115791961Y-95955952D01*
X115791961Y-95955952D02*
X115887200Y-96051190D01*
X115887200Y-96051190D02*
X115934819Y-96194047D01*
X115934819Y-96194047D02*
X115934819Y-96289285D01*
X114934819Y-95527380D02*
X114934819Y-94860714D01*
X114934819Y-94860714D02*
X115934819Y-95289285D01*
X117666666Y-71084819D02*
X117666666Y-71799104D01*
X117666666Y-71799104D02*
X117619047Y-71941961D01*
X117619047Y-71941961D02*
X117523809Y-72037200D01*
X117523809Y-72037200D02*
X117380952Y-72084819D01*
X117380952Y-72084819D02*
X117285714Y-72084819D01*
X118666666Y-72084819D02*
X118095238Y-72084819D01*
X118380952Y-72084819D02*
X118380952Y-71084819D01*
X118380952Y-71084819D02*
X118285714Y-71227676D01*
X118285714Y-71227676D02*
X118190476Y-71322914D01*
X118190476Y-71322914D02*
X118095238Y-71370533D01*
X103653333Y-74994819D02*
X103320000Y-74518628D01*
X103081905Y-74994819D02*
X103081905Y-73994819D01*
X103081905Y-73994819D02*
X103462857Y-73994819D01*
X103462857Y-73994819D02*
X103558095Y-74042438D01*
X103558095Y-74042438D02*
X103605714Y-74090057D01*
X103605714Y-74090057D02*
X103653333Y-74185295D01*
X103653333Y-74185295D02*
X103653333Y-74328152D01*
X103653333Y-74328152D02*
X103605714Y-74423390D01*
X103605714Y-74423390D02*
X103558095Y-74471009D01*
X103558095Y-74471009D02*
X103462857Y-74518628D01*
X103462857Y-74518628D02*
X103081905Y-74518628D01*
X104605714Y-74994819D02*
X104034286Y-74994819D01*
X104320000Y-74994819D02*
X104320000Y-73994819D01*
X104320000Y-73994819D02*
X104224762Y-74137676D01*
X104224762Y-74137676D02*
X104129524Y-74232914D01*
X104129524Y-74232914D02*
X104034286Y-74280533D01*
X95659580Y-104766666D02*
X95707200Y-104814285D01*
X95707200Y-104814285D02*
X95754819Y-104957142D01*
X95754819Y-104957142D02*
X95754819Y-105052380D01*
X95754819Y-105052380D02*
X95707200Y-105195237D01*
X95707200Y-105195237D02*
X95611961Y-105290475D01*
X95611961Y-105290475D02*
X95516723Y-105338094D01*
X95516723Y-105338094D02*
X95326247Y-105385713D01*
X95326247Y-105385713D02*
X95183390Y-105385713D01*
X95183390Y-105385713D02*
X94992914Y-105338094D01*
X94992914Y-105338094D02*
X94897676Y-105290475D01*
X94897676Y-105290475D02*
X94802438Y-105195237D01*
X94802438Y-105195237D02*
X94754819Y-105052380D01*
X94754819Y-105052380D02*
X94754819Y-104957142D01*
X94754819Y-104957142D02*
X94802438Y-104814285D01*
X94802438Y-104814285D02*
X94850057Y-104766666D01*
X94754819Y-104433332D02*
X94754819Y-103814285D01*
X94754819Y-103814285D02*
X95135771Y-104147618D01*
X95135771Y-104147618D02*
X95135771Y-104004761D01*
X95135771Y-104004761D02*
X95183390Y-103909523D01*
X95183390Y-103909523D02*
X95231009Y-103861904D01*
X95231009Y-103861904D02*
X95326247Y-103814285D01*
X95326247Y-103814285D02*
X95564342Y-103814285D01*
X95564342Y-103814285D02*
X95659580Y-103861904D01*
X95659580Y-103861904D02*
X95707200Y-103909523D01*
X95707200Y-103909523D02*
X95754819Y-104004761D01*
X95754819Y-104004761D02*
X95754819Y-104290475D01*
X95754819Y-104290475D02*
X95707200Y-104385713D01*
X95707200Y-104385713D02*
X95659580Y-104433332D01*
X95884580Y-118516666D02*
X95932200Y-118564285D01*
X95932200Y-118564285D02*
X95979819Y-118707142D01*
X95979819Y-118707142D02*
X95979819Y-118802380D01*
X95979819Y-118802380D02*
X95932200Y-118945237D01*
X95932200Y-118945237D02*
X95836961Y-119040475D01*
X95836961Y-119040475D02*
X95741723Y-119088094D01*
X95741723Y-119088094D02*
X95551247Y-119135713D01*
X95551247Y-119135713D02*
X95408390Y-119135713D01*
X95408390Y-119135713D02*
X95217914Y-119088094D01*
X95217914Y-119088094D02*
X95122676Y-119040475D01*
X95122676Y-119040475D02*
X95027438Y-118945237D01*
X95027438Y-118945237D02*
X94979819Y-118802380D01*
X94979819Y-118802380D02*
X94979819Y-118707142D01*
X94979819Y-118707142D02*
X95027438Y-118564285D01*
X95027438Y-118564285D02*
X95075057Y-118516666D01*
X95313152Y-117659523D02*
X95979819Y-117659523D01*
X94932200Y-117897618D02*
X95646485Y-118135713D01*
X95646485Y-118135713D02*
X95646485Y-117516666D01*
X114934819Y-91208333D02*
X115649104Y-91208333D01*
X115649104Y-91208333D02*
X115791961Y-91255952D01*
X115791961Y-91255952D02*
X115887200Y-91351190D01*
X115887200Y-91351190D02*
X115934819Y-91494047D01*
X115934819Y-91494047D02*
X115934819Y-91589285D01*
X114934819Y-90303571D02*
X114934819Y-90494047D01*
X114934819Y-90494047D02*
X114982438Y-90589285D01*
X114982438Y-90589285D02*
X115030057Y-90636904D01*
X115030057Y-90636904D02*
X115172914Y-90732142D01*
X115172914Y-90732142D02*
X115363390Y-90779761D01*
X115363390Y-90779761D02*
X115744342Y-90779761D01*
X115744342Y-90779761D02*
X115839580Y-90732142D01*
X115839580Y-90732142D02*
X115887200Y-90684523D01*
X115887200Y-90684523D02*
X115934819Y-90589285D01*
X115934819Y-90589285D02*
X115934819Y-90398809D01*
X115934819Y-90398809D02*
X115887200Y-90303571D01*
X115887200Y-90303571D02*
X115839580Y-90255952D01*
X115839580Y-90255952D02*
X115744342Y-90208333D01*
X115744342Y-90208333D02*
X115506247Y-90208333D01*
X115506247Y-90208333D02*
X115411009Y-90255952D01*
X115411009Y-90255952D02*
X115363390Y-90303571D01*
X115363390Y-90303571D02*
X115315771Y-90398809D01*
X115315771Y-90398809D02*
X115315771Y-90589285D01*
X115315771Y-90589285D02*
X115363390Y-90684523D01*
X115363390Y-90684523D02*
X115411009Y-90732142D01*
X115411009Y-90732142D02*
X115506247Y-90779761D01*
X112183333Y-110609580D02*
X112135714Y-110657200D01*
X112135714Y-110657200D02*
X111992857Y-110704819D01*
X111992857Y-110704819D02*
X111897619Y-110704819D01*
X111897619Y-110704819D02*
X111754762Y-110657200D01*
X111754762Y-110657200D02*
X111659524Y-110561961D01*
X111659524Y-110561961D02*
X111611905Y-110466723D01*
X111611905Y-110466723D02*
X111564286Y-110276247D01*
X111564286Y-110276247D02*
X111564286Y-110133390D01*
X111564286Y-110133390D02*
X111611905Y-109942914D01*
X111611905Y-109942914D02*
X111659524Y-109847676D01*
X111659524Y-109847676D02*
X111754762Y-109752438D01*
X111754762Y-109752438D02*
X111897619Y-109704819D01*
X111897619Y-109704819D02*
X111992857Y-109704819D01*
X111992857Y-109704819D02*
X112135714Y-109752438D01*
X112135714Y-109752438D02*
X112183333Y-109800057D01*
X113135714Y-110704819D02*
X112564286Y-110704819D01*
X112850000Y-110704819D02*
X112850000Y-109704819D01*
X112850000Y-109704819D02*
X112754762Y-109847676D01*
X112754762Y-109847676D02*
X112659524Y-109942914D01*
X112659524Y-109942914D02*
X112564286Y-109990533D01*
X93494819Y-77426666D02*
X93018628Y-77759999D01*
X93494819Y-77998094D02*
X92494819Y-77998094D01*
X92494819Y-77998094D02*
X92494819Y-77617142D01*
X92494819Y-77617142D02*
X92542438Y-77521904D01*
X92542438Y-77521904D02*
X92590057Y-77474285D01*
X92590057Y-77474285D02*
X92685295Y-77426666D01*
X92685295Y-77426666D02*
X92828152Y-77426666D01*
X92828152Y-77426666D02*
X92923390Y-77474285D01*
X92923390Y-77474285D02*
X92971009Y-77521904D01*
X92971009Y-77521904D02*
X93018628Y-77617142D01*
X93018628Y-77617142D02*
X93018628Y-77998094D01*
X92494819Y-77093332D02*
X92494819Y-76474285D01*
X92494819Y-76474285D02*
X92875771Y-76807618D01*
X92875771Y-76807618D02*
X92875771Y-76664761D01*
X92875771Y-76664761D02*
X92923390Y-76569523D01*
X92923390Y-76569523D02*
X92971009Y-76521904D01*
X92971009Y-76521904D02*
X93066247Y-76474285D01*
X93066247Y-76474285D02*
X93304342Y-76474285D01*
X93304342Y-76474285D02*
X93399580Y-76521904D01*
X93399580Y-76521904D02*
X93447200Y-76569523D01*
X93447200Y-76569523D02*
X93494819Y-76664761D01*
X93494819Y-76664761D02*
X93494819Y-76950475D01*
X93494819Y-76950475D02*
X93447200Y-77045713D01*
X93447200Y-77045713D02*
X93399580Y-77093332D01*
X114909819Y-81708333D02*
X115624104Y-81708333D01*
X115624104Y-81708333D02*
X115766961Y-81755952D01*
X115766961Y-81755952D02*
X115862200Y-81851190D01*
X115862200Y-81851190D02*
X115909819Y-81994047D01*
X115909819Y-81994047D02*
X115909819Y-82089285D01*
X115243152Y-80803571D02*
X115909819Y-80803571D01*
X114862200Y-81041666D02*
X115576485Y-81279761D01*
X115576485Y-81279761D02*
X115576485Y-80660714D01*
X112058333Y-117134580D02*
X112010714Y-117182200D01*
X112010714Y-117182200D02*
X111867857Y-117229819D01*
X111867857Y-117229819D02*
X111772619Y-117229819D01*
X111772619Y-117229819D02*
X111629762Y-117182200D01*
X111629762Y-117182200D02*
X111534524Y-117086961D01*
X111534524Y-117086961D02*
X111486905Y-116991723D01*
X111486905Y-116991723D02*
X111439286Y-116801247D01*
X111439286Y-116801247D02*
X111439286Y-116658390D01*
X111439286Y-116658390D02*
X111486905Y-116467914D01*
X111486905Y-116467914D02*
X111534524Y-116372676D01*
X111534524Y-116372676D02*
X111629762Y-116277438D01*
X111629762Y-116277438D02*
X111772619Y-116229819D01*
X111772619Y-116229819D02*
X111867857Y-116229819D01*
X111867857Y-116229819D02*
X112010714Y-116277438D01*
X112010714Y-116277438D02*
X112058333Y-116325057D01*
X112439286Y-116325057D02*
X112486905Y-116277438D01*
X112486905Y-116277438D02*
X112582143Y-116229819D01*
X112582143Y-116229819D02*
X112820238Y-116229819D01*
X112820238Y-116229819D02*
X112915476Y-116277438D01*
X112915476Y-116277438D02*
X112963095Y-116325057D01*
X112963095Y-116325057D02*
X113010714Y-116420295D01*
X113010714Y-116420295D02*
X113010714Y-116515533D01*
X113010714Y-116515533D02*
X112963095Y-116658390D01*
X112963095Y-116658390D02*
X112391667Y-117229819D01*
X112391667Y-117229819D02*
X113010714Y-117229819D01*
X98041905Y-73769819D02*
X98041905Y-72769819D01*
X98041905Y-72769819D02*
X98280000Y-72769819D01*
X98280000Y-72769819D02*
X98422857Y-72817438D01*
X98422857Y-72817438D02*
X98518095Y-72912676D01*
X98518095Y-72912676D02*
X98565714Y-73007914D01*
X98565714Y-73007914D02*
X98613333Y-73198390D01*
X98613333Y-73198390D02*
X98613333Y-73341247D01*
X98613333Y-73341247D02*
X98565714Y-73531723D01*
X98565714Y-73531723D02*
X98518095Y-73626961D01*
X98518095Y-73626961D02*
X98422857Y-73722200D01*
X98422857Y-73722200D02*
X98280000Y-73769819D01*
X98280000Y-73769819D02*
X98041905Y-73769819D01*
X99565714Y-73769819D02*
X98994286Y-73769819D01*
X99280000Y-73769819D02*
X99280000Y-72769819D01*
X99280000Y-72769819D02*
X99184762Y-72912676D01*
X99184762Y-72912676D02*
X99089524Y-73007914D01*
X99089524Y-73007914D02*
X98994286Y-73055533D01*
X140466666Y-71124819D02*
X140466666Y-71839104D01*
X140466666Y-71839104D02*
X140419047Y-71981961D01*
X140419047Y-71981961D02*
X140323809Y-72077200D01*
X140323809Y-72077200D02*
X140180952Y-72124819D01*
X140180952Y-72124819D02*
X140085714Y-72124819D01*
X140895238Y-71220057D02*
X140942857Y-71172438D01*
X140942857Y-71172438D02*
X141038095Y-71124819D01*
X141038095Y-71124819D02*
X141276190Y-71124819D01*
X141276190Y-71124819D02*
X141371428Y-71172438D01*
X141371428Y-71172438D02*
X141419047Y-71220057D01*
X141419047Y-71220057D02*
X141466666Y-71315295D01*
X141466666Y-71315295D02*
X141466666Y-71410533D01*
X141466666Y-71410533D02*
X141419047Y-71553390D01*
X141419047Y-71553390D02*
X140847619Y-72124819D01*
X140847619Y-72124819D02*
X141466666Y-72124819D01*
X98863095Y-79584819D02*
X98863095Y-80394342D01*
X98863095Y-80394342D02*
X98910714Y-80489580D01*
X98910714Y-80489580D02*
X98958333Y-80537200D01*
X98958333Y-80537200D02*
X99053571Y-80584819D01*
X99053571Y-80584819D02*
X99244047Y-80584819D01*
X99244047Y-80584819D02*
X99339285Y-80537200D01*
X99339285Y-80537200D02*
X99386904Y-80489580D01*
X99386904Y-80489580D02*
X99434523Y-80394342D01*
X99434523Y-80394342D02*
X99434523Y-79584819D01*
X100434523Y-80584819D02*
X99863095Y-80584819D01*
X100148809Y-80584819D02*
X100148809Y-79584819D01*
X100148809Y-79584819D02*
X100053571Y-79727676D01*
X100053571Y-79727676D02*
X99958333Y-79822914D01*
X99958333Y-79822914D02*
X99863095Y-79870533D01*
X90324819Y-77426666D02*
X89848628Y-77759999D01*
X90324819Y-77998094D02*
X89324819Y-77998094D01*
X89324819Y-77998094D02*
X89324819Y-77617142D01*
X89324819Y-77617142D02*
X89372438Y-77521904D01*
X89372438Y-77521904D02*
X89420057Y-77474285D01*
X89420057Y-77474285D02*
X89515295Y-77426666D01*
X89515295Y-77426666D02*
X89658152Y-77426666D01*
X89658152Y-77426666D02*
X89753390Y-77474285D01*
X89753390Y-77474285D02*
X89801009Y-77521904D01*
X89801009Y-77521904D02*
X89848628Y-77617142D01*
X89848628Y-77617142D02*
X89848628Y-77998094D01*
X89658152Y-76569523D02*
X90324819Y-76569523D01*
X89277200Y-76807618D02*
X89991485Y-77045713D01*
X89991485Y-77045713D02*
X89991485Y-76426666D01*
D10*
X83852300Y-107636665D02*
X83876109Y-107565237D01*
X83876109Y-107565237D02*
X83876109Y-107446189D01*
X83876109Y-107446189D02*
X83852300Y-107398570D01*
X83852300Y-107398570D02*
X83828490Y-107374761D01*
X83828490Y-107374761D02*
X83780871Y-107350951D01*
X83780871Y-107350951D02*
X83733252Y-107350951D01*
X83733252Y-107350951D02*
X83685633Y-107374761D01*
X83685633Y-107374761D02*
X83661823Y-107398570D01*
X83661823Y-107398570D02*
X83638014Y-107446189D01*
X83638014Y-107446189D02*
X83614204Y-107541427D01*
X83614204Y-107541427D02*
X83590395Y-107589046D01*
X83590395Y-107589046D02*
X83566585Y-107612856D01*
X83566585Y-107612856D02*
X83518966Y-107636665D01*
X83518966Y-107636665D02*
X83471347Y-107636665D01*
X83471347Y-107636665D02*
X83423728Y-107612856D01*
X83423728Y-107612856D02*
X83399919Y-107589046D01*
X83399919Y-107589046D02*
X83376109Y-107541427D01*
X83376109Y-107541427D02*
X83376109Y-107422380D01*
X83376109Y-107422380D02*
X83399919Y-107350951D01*
X83376109Y-107184285D02*
X83876109Y-107065237D01*
X83876109Y-107065237D02*
X83518966Y-106969999D01*
X83518966Y-106969999D02*
X83876109Y-106874761D01*
X83876109Y-106874761D02*
X83376109Y-106755714D01*
X83876109Y-106303332D02*
X83876109Y-106589046D01*
X83876109Y-106446189D02*
X83376109Y-106446189D01*
X83376109Y-106446189D02*
X83447538Y-106493808D01*
X83447538Y-106493808D02*
X83495157Y-106541427D01*
X83495157Y-106541427D02*
X83518966Y-106589046D01*
D11*
X91623333Y-85389580D02*
X91575714Y-85437200D01*
X91575714Y-85437200D02*
X91432857Y-85484819D01*
X91432857Y-85484819D02*
X91337619Y-85484819D01*
X91337619Y-85484819D02*
X91194762Y-85437200D01*
X91194762Y-85437200D02*
X91099524Y-85341961D01*
X91099524Y-85341961D02*
X91051905Y-85246723D01*
X91051905Y-85246723D02*
X91004286Y-85056247D01*
X91004286Y-85056247D02*
X91004286Y-84913390D01*
X91004286Y-84913390D02*
X91051905Y-84722914D01*
X91051905Y-84722914D02*
X91099524Y-84627676D01*
X91099524Y-84627676D02*
X91194762Y-84532438D01*
X91194762Y-84532438D02*
X91337619Y-84484819D01*
X91337619Y-84484819D02*
X91432857Y-84484819D01*
X91432857Y-84484819D02*
X91575714Y-84532438D01*
X91575714Y-84532438D02*
X91623333Y-84580057D01*
X92480476Y-84484819D02*
X92290000Y-84484819D01*
X92290000Y-84484819D02*
X92194762Y-84532438D01*
X92194762Y-84532438D02*
X92147143Y-84580057D01*
X92147143Y-84580057D02*
X92051905Y-84722914D01*
X92051905Y-84722914D02*
X92004286Y-84913390D01*
X92004286Y-84913390D02*
X92004286Y-85294342D01*
X92004286Y-85294342D02*
X92051905Y-85389580D01*
X92051905Y-85389580D02*
X92099524Y-85437200D01*
X92099524Y-85437200D02*
X92194762Y-85484819D01*
X92194762Y-85484819D02*
X92385238Y-85484819D01*
X92385238Y-85484819D02*
X92480476Y-85437200D01*
X92480476Y-85437200D02*
X92528095Y-85389580D01*
X92528095Y-85389580D02*
X92575714Y-85294342D01*
X92575714Y-85294342D02*
X92575714Y-85056247D01*
X92575714Y-85056247D02*
X92528095Y-84961009D01*
X92528095Y-84961009D02*
X92480476Y-84913390D01*
X92480476Y-84913390D02*
X92385238Y-84865771D01*
X92385238Y-84865771D02*
X92194762Y-84865771D01*
X92194762Y-84865771D02*
X92099524Y-84913390D01*
X92099524Y-84913390D02*
X92051905Y-84961009D01*
X92051905Y-84961009D02*
X92004286Y-85056247D01*
X114934819Y-86583333D02*
X115649104Y-86583333D01*
X115649104Y-86583333D02*
X115791961Y-86630952D01*
X115791961Y-86630952D02*
X115887200Y-86726190D01*
X115887200Y-86726190D02*
X115934819Y-86869047D01*
X115934819Y-86869047D02*
X115934819Y-86964285D01*
X114934819Y-85630952D02*
X114934819Y-86107142D01*
X114934819Y-86107142D02*
X115411009Y-86154761D01*
X115411009Y-86154761D02*
X115363390Y-86107142D01*
X115363390Y-86107142D02*
X115315771Y-86011904D01*
X115315771Y-86011904D02*
X115315771Y-85773809D01*
X115315771Y-85773809D02*
X115363390Y-85678571D01*
X115363390Y-85678571D02*
X115411009Y-85630952D01*
X115411009Y-85630952D02*
X115506247Y-85583333D01*
X115506247Y-85583333D02*
X115744342Y-85583333D01*
X115744342Y-85583333D02*
X115839580Y-85630952D01*
X115839580Y-85630952D02*
X115887200Y-85678571D01*
X115887200Y-85678571D02*
X115934819Y-85773809D01*
X115934819Y-85773809D02*
X115934819Y-86011904D01*
X115934819Y-86011904D02*
X115887200Y-86107142D01*
X115887200Y-86107142D02*
X115839580Y-86154761D01*
X92553333Y-82929580D02*
X92505714Y-82977200D01*
X92505714Y-82977200D02*
X92362857Y-83024819D01*
X92362857Y-83024819D02*
X92267619Y-83024819D01*
X92267619Y-83024819D02*
X92124762Y-82977200D01*
X92124762Y-82977200D02*
X92029524Y-82881961D01*
X92029524Y-82881961D02*
X91981905Y-82786723D01*
X91981905Y-82786723D02*
X91934286Y-82596247D01*
X91934286Y-82596247D02*
X91934286Y-82453390D01*
X91934286Y-82453390D02*
X91981905Y-82262914D01*
X91981905Y-82262914D02*
X92029524Y-82167676D01*
X92029524Y-82167676D02*
X92124762Y-82072438D01*
X92124762Y-82072438D02*
X92267619Y-82024819D01*
X92267619Y-82024819D02*
X92362857Y-82024819D01*
X92362857Y-82024819D02*
X92505714Y-82072438D01*
X92505714Y-82072438D02*
X92553333Y-82120057D01*
X92886667Y-82024819D02*
X93553333Y-82024819D01*
X93553333Y-82024819D02*
X93124762Y-83024819D01*
X84619819Y-86594404D02*
X85429342Y-86594404D01*
X85429342Y-86594404D02*
X85524580Y-86546785D01*
X85524580Y-86546785D02*
X85572200Y-86499166D01*
X85572200Y-86499166D02*
X85619819Y-86403928D01*
X85619819Y-86403928D02*
X85619819Y-86213452D01*
X85619819Y-86213452D02*
X85572200Y-86118214D01*
X85572200Y-86118214D02*
X85524580Y-86070595D01*
X85524580Y-86070595D02*
X85429342Y-86022976D01*
X85429342Y-86022976D02*
X84619819Y-86022976D01*
X84715057Y-85594404D02*
X84667438Y-85546785D01*
X84667438Y-85546785D02*
X84619819Y-85451547D01*
X84619819Y-85451547D02*
X84619819Y-85213452D01*
X84619819Y-85213452D02*
X84667438Y-85118214D01*
X84667438Y-85118214D02*
X84715057Y-85070595D01*
X84715057Y-85070595D02*
X84810295Y-85022976D01*
X84810295Y-85022976D02*
X84905533Y-85022976D01*
X84905533Y-85022976D02*
X85048390Y-85070595D01*
X85048390Y-85070595D02*
X85619819Y-85642023D01*
X85619819Y-85642023D02*
X85619819Y-85022976D01*
X100708333Y-105584580D02*
X100660714Y-105632200D01*
X100660714Y-105632200D02*
X100517857Y-105679819D01*
X100517857Y-105679819D02*
X100422619Y-105679819D01*
X100422619Y-105679819D02*
X100279762Y-105632200D01*
X100279762Y-105632200D02*
X100184524Y-105536961D01*
X100184524Y-105536961D02*
X100136905Y-105441723D01*
X100136905Y-105441723D02*
X100089286Y-105251247D01*
X100089286Y-105251247D02*
X100089286Y-105108390D01*
X100089286Y-105108390D02*
X100136905Y-104917914D01*
X100136905Y-104917914D02*
X100184524Y-104822676D01*
X100184524Y-104822676D02*
X100279762Y-104727438D01*
X100279762Y-104727438D02*
X100422619Y-104679819D01*
X100422619Y-104679819D02*
X100517857Y-104679819D01*
X100517857Y-104679819D02*
X100660714Y-104727438D01*
X100660714Y-104727438D02*
X100708333Y-104775057D01*
X101613095Y-104679819D02*
X101136905Y-104679819D01*
X101136905Y-104679819D02*
X101089286Y-105156009D01*
X101089286Y-105156009D02*
X101136905Y-105108390D01*
X101136905Y-105108390D02*
X101232143Y-105060771D01*
X101232143Y-105060771D02*
X101470238Y-105060771D01*
X101470238Y-105060771D02*
X101565476Y-105108390D01*
X101565476Y-105108390D02*
X101613095Y-105156009D01*
X101613095Y-105156009D02*
X101660714Y-105251247D01*
X101660714Y-105251247D02*
X101660714Y-105489342D01*
X101660714Y-105489342D02*
X101613095Y-105584580D01*
X101613095Y-105584580D02*
X101565476Y-105632200D01*
X101565476Y-105632200D02*
X101470238Y-105679819D01*
X101470238Y-105679819D02*
X101232143Y-105679819D01*
X101232143Y-105679819D02*
X101136905Y-105632200D01*
X101136905Y-105632200D02*
X101089286Y-105584580D01*
X86713333Y-93304819D02*
X86380000Y-92828628D01*
X86141905Y-93304819D02*
X86141905Y-92304819D01*
X86141905Y-92304819D02*
X86522857Y-92304819D01*
X86522857Y-92304819D02*
X86618095Y-92352438D01*
X86618095Y-92352438D02*
X86665714Y-92400057D01*
X86665714Y-92400057D02*
X86713333Y-92495295D01*
X86713333Y-92495295D02*
X86713333Y-92638152D01*
X86713333Y-92638152D02*
X86665714Y-92733390D01*
X86665714Y-92733390D02*
X86618095Y-92781009D01*
X86618095Y-92781009D02*
X86522857Y-92828628D01*
X86522857Y-92828628D02*
X86141905Y-92828628D01*
X87094286Y-92400057D02*
X87141905Y-92352438D01*
X87141905Y-92352438D02*
X87237143Y-92304819D01*
X87237143Y-92304819D02*
X87475238Y-92304819D01*
X87475238Y-92304819D02*
X87570476Y-92352438D01*
X87570476Y-92352438D02*
X87618095Y-92400057D01*
X87618095Y-92400057D02*
X87665714Y-92495295D01*
X87665714Y-92495295D02*
X87665714Y-92590533D01*
X87665714Y-92590533D02*
X87618095Y-92733390D01*
X87618095Y-92733390D02*
X87046667Y-93304819D01*
X87046667Y-93304819D02*
X87665714Y-93304819D01*
D12*
%TO.C,J3*%
X106715000Y-74995000D02*
X106715000Y-77655000D01*
X111855000Y-74995000D02*
X106715000Y-74995000D01*
X111855000Y-74995000D02*
X111855000Y-77655000D01*
X111855000Y-77655000D02*
X106715000Y-77655000D01*
X113125000Y-74995000D02*
X114455000Y-74995000D01*
X114455000Y-74995000D02*
X114455000Y-76325000D01*
%TO.C,J7*%
X106740000Y-94245000D02*
X106740000Y-96905000D01*
X111880000Y-94245000D02*
X106740000Y-94245000D01*
X111880000Y-94245000D02*
X111880000Y-96905000D01*
X111880000Y-96905000D02*
X106740000Y-96905000D01*
X113150000Y-94245000D02*
X114480000Y-94245000D01*
X114480000Y-94245000D02*
X114480000Y-95575000D01*
%TO.C,J1*%
X116670000Y-72630000D02*
X118000000Y-72630000D01*
X116670000Y-73960000D02*
X116670000Y-72630000D01*
X116670000Y-75230000D02*
X116670000Y-118470000D01*
X116670000Y-75230000D02*
X119330000Y-75230000D01*
X116670000Y-118470000D02*
X119330000Y-118470000D01*
X119330000Y-75230000D02*
X119330000Y-118470000D01*
%TO.C,R1*%
X101470000Y-72280000D02*
X102240000Y-72280000D01*
X102240000Y-70910000D02*
X102240000Y-73650000D01*
X102240000Y-73650000D02*
X108780000Y-73650000D01*
X108780000Y-70910000D02*
X102240000Y-70910000D01*
X108780000Y-73650000D02*
X108780000Y-70910000D01*
X109550000Y-72280000D02*
X108780000Y-72280000D01*
%TO.C,C3*%
X96130000Y-103946000D02*
X96130000Y-105204000D01*
X97970000Y-103946000D02*
X97970000Y-105204000D01*
%TO.C,BT1*%
X87035000Y-119400000D02*
X87035000Y-118070000D01*
X88365000Y-119400000D02*
X87035000Y-119400000D01*
X89635000Y-116740000D02*
X92235000Y-116740000D01*
X89635000Y-119400000D02*
X89635000Y-116740000D01*
X89635000Y-119400000D02*
X92235000Y-119400000D01*
X92235000Y-119400000D02*
X92235000Y-116740000D01*
%TO.C,C4*%
X95045000Y-113343959D02*
X107705000Y-113343959D01*
X95045000Y-113383959D02*
X107705000Y-113383959D01*
X95045000Y-113423959D02*
X107705000Y-113423959D01*
X95046000Y-113303959D02*
X107704000Y-113303959D01*
X95047000Y-113263959D02*
X107703000Y-113263959D01*
X95048000Y-113223959D02*
X107702000Y-113223959D01*
X95049000Y-113183959D02*
X107701000Y-113183959D01*
X95051000Y-113143959D02*
X107699000Y-113143959D01*
X95053000Y-113103959D02*
X107697000Y-113103959D01*
X95055000Y-113063959D02*
X107695000Y-113063959D01*
X95057000Y-113023959D02*
X107693000Y-113023959D01*
X95060000Y-112983959D02*
X107690000Y-112983959D01*
X95063000Y-112943959D02*
X107687000Y-112943959D01*
X95066000Y-112903959D02*
X107684000Y-112903959D01*
X95069000Y-112863959D02*
X107681000Y-112863959D01*
X95073000Y-112823959D02*
X107677000Y-112823959D01*
X95077000Y-112783959D02*
X107673000Y-112783959D01*
X95081000Y-112743959D02*
X107669000Y-112743959D01*
X95085000Y-112702959D02*
X107665000Y-112702959D01*
X95090000Y-112662959D02*
X107660000Y-112662959D01*
X95095000Y-112622959D02*
X107655000Y-112622959D01*
X95100000Y-112582959D02*
X107650000Y-112582959D01*
X95106000Y-112542959D02*
X107644000Y-112542959D01*
X95111000Y-112502959D02*
X107639000Y-112502959D01*
X95117000Y-112462959D02*
X107633000Y-112462959D01*
X95123000Y-112422959D02*
X107627000Y-112422959D01*
X95130000Y-112382959D02*
X107620000Y-112382959D01*
X95137000Y-112342959D02*
X99935000Y-112342959D01*
X95144000Y-112302959D02*
X99935000Y-112302959D01*
X95151000Y-112262959D02*
X99935000Y-112262959D01*
X95159000Y-112222959D02*
X99935000Y-112222959D01*
X95166000Y-112182959D02*
X99935000Y-112182959D01*
X95174000Y-112142959D02*
X99935000Y-112142959D01*
X95183000Y-112102959D02*
X99935000Y-112102959D01*
X95191000Y-112062959D02*
X99935000Y-112062959D01*
X95200000Y-112022959D02*
X99935000Y-112022959D01*
X95209000Y-111982959D02*
X99935000Y-111982959D01*
X95219000Y-111942959D02*
X99935000Y-111942959D01*
X95229000Y-111902959D02*
X99935000Y-111902959D01*
X95238000Y-111862959D02*
X99935000Y-111862959D01*
X95249000Y-111822959D02*
X99935000Y-111822959D01*
X95259000Y-111782959D02*
X99935000Y-111782959D01*
X95270000Y-111742959D02*
X99935000Y-111742959D01*
X95281000Y-111702959D02*
X99935000Y-111702959D01*
X95292000Y-111662959D02*
X99935000Y-111662959D01*
X95304000Y-111622959D02*
X99935000Y-111622959D01*
X95316000Y-111582959D02*
X99935000Y-111582959D01*
X95328000Y-111542959D02*
X99935000Y-111542959D01*
X95341000Y-111502959D02*
X99935000Y-111502959D01*
X95354000Y-111462959D02*
X99935000Y-111462959D01*
X95367000Y-111422959D02*
X99935000Y-111422959D01*
X95380000Y-111382959D02*
X99935000Y-111382959D01*
X95394000Y-111342959D02*
X99935000Y-111342959D01*
X95408000Y-111302959D02*
X99935000Y-111302959D01*
X95422000Y-111262959D02*
X99935000Y-111262959D01*
X95436000Y-111222959D02*
X99935000Y-111222959D01*
X95451000Y-111182959D02*
X99935000Y-111182959D01*
X95467000Y-111142959D02*
X99935000Y-111142959D01*
X95482000Y-111102959D02*
X99935000Y-111102959D01*
X95498000Y-111062959D02*
X99935000Y-111062959D01*
X95514000Y-111022959D02*
X99935000Y-111022959D01*
X95530000Y-110982959D02*
X99935000Y-110982959D01*
X95547000Y-110942959D02*
X99935000Y-110942959D01*
X95564000Y-110902959D02*
X99935000Y-110902959D01*
X95582000Y-110862959D02*
X99935000Y-110862959D01*
X95599000Y-110822959D02*
X99935000Y-110822959D01*
X95617000Y-110782959D02*
X99935000Y-110782959D01*
X95636000Y-110742959D02*
X99935000Y-110742959D01*
X95654000Y-110702959D02*
X99935000Y-110702959D01*
X95673000Y-110662959D02*
X99935000Y-110662959D01*
X95693000Y-110622959D02*
X99935000Y-110622959D01*
X95713000Y-110582959D02*
X99935000Y-110582959D01*
X95733000Y-110542959D02*
X99935000Y-110542959D01*
X95753000Y-110502959D02*
X99935000Y-110502959D01*
X95774000Y-110462959D02*
X99935000Y-110462959D01*
X95795000Y-110422959D02*
X99935000Y-110422959D01*
X95817000Y-110382959D02*
X99935000Y-110382959D01*
X95839000Y-110342959D02*
X99935000Y-110342959D01*
X95861000Y-110302959D02*
X99935000Y-110302959D01*
X95884000Y-110262959D02*
X99935000Y-110262959D01*
X95907000Y-110222959D02*
X99935000Y-110222959D01*
X95930000Y-110182959D02*
X99935000Y-110182959D01*
X95954000Y-110142959D02*
X99935000Y-110142959D01*
X95978000Y-110102959D02*
X99935000Y-110102959D01*
X96003000Y-110062959D02*
X99935000Y-110062959D01*
X96028000Y-110022959D02*
X99935000Y-110022959D01*
X96053000Y-109982959D02*
X99935000Y-109982959D01*
X96079000Y-109942959D02*
X99935000Y-109942959D01*
X96105000Y-109902959D02*
X99935000Y-109902959D01*
X96132000Y-109862959D02*
X99935000Y-109862959D01*
X96159000Y-109822959D02*
X99935000Y-109822959D01*
X96187000Y-109782959D02*
X99935000Y-109782959D01*
X96215000Y-109742959D02*
X99935000Y-109742959D01*
X96244000Y-109702959D02*
X99935000Y-109702959D01*
X96273000Y-109662959D02*
X99935000Y-109662959D01*
X96302000Y-109622959D02*
X99935000Y-109622959D01*
X96332000Y-109582959D02*
X99935000Y-109582959D01*
X96363000Y-109542959D02*
X99935000Y-109542959D01*
X96393000Y-109502959D02*
X99935000Y-109502959D01*
X96425000Y-109462959D02*
X106325000Y-109462959D01*
X96457000Y-109422959D02*
X106293000Y-109422959D01*
X96490000Y-109382959D02*
X106260000Y-109382959D01*
X96523000Y-109342959D02*
X106227000Y-109342959D01*
X96556000Y-109302959D02*
X106194000Y-109302959D01*
X96590000Y-109262959D02*
X106160000Y-109262959D01*
X96625000Y-109222959D02*
X106125000Y-109222959D01*
X96661000Y-109182959D02*
X106089000Y-109182959D01*
X96697000Y-109142959D02*
X106053000Y-109142959D01*
X96733000Y-109102959D02*
X106017000Y-109102959D01*
X96770000Y-109062959D02*
X105980000Y-109062959D01*
X96808000Y-109022959D02*
X105942000Y-109022959D01*
X96847000Y-108982959D02*
X105903000Y-108982959D01*
X96886000Y-108942959D02*
X105864000Y-108942959D01*
X96926000Y-108902959D02*
X105824000Y-108902959D01*
X96967000Y-108862959D02*
X105783000Y-108862959D01*
X97008000Y-108822959D02*
X105742000Y-108822959D01*
X97050000Y-108782959D02*
X105700000Y-108782959D01*
X97093000Y-108742959D02*
X105657000Y-108742959D01*
X97137000Y-108702959D02*
X105613000Y-108702959D01*
X97175000Y-119616041D02*
X98425000Y-119616041D01*
X97181000Y-108662959D02*
X105569000Y-108662959D01*
X97227000Y-108622959D02*
X105523000Y-108622959D01*
X97273000Y-108582959D02*
X105477000Y-108582959D01*
X97320000Y-108542959D02*
X105430000Y-108542959D01*
X97368000Y-108502959D02*
X105382000Y-108502959D01*
X97418000Y-108462959D02*
X105332000Y-108462959D01*
X97468000Y-108422959D02*
X105282000Y-108422959D01*
X97519000Y-108382959D02*
X105231000Y-108382959D01*
X97571000Y-108342959D02*
X105179000Y-108342959D01*
X97625000Y-108302959D02*
X105125000Y-108302959D01*
X97679000Y-108262959D02*
X105071000Y-108262959D01*
X97735000Y-108222959D02*
X105015000Y-108222959D01*
X97792000Y-108182959D02*
X104958000Y-108182959D01*
X97800000Y-120241041D02*
X97800000Y-118991041D01*
X97851000Y-108142959D02*
X104899000Y-108142959D01*
X97911000Y-108102959D02*
X104839000Y-108102959D01*
X97973000Y-108062959D02*
X104777000Y-108062959D01*
X98036000Y-108022959D02*
X104714000Y-108022959D01*
X98100000Y-107982959D02*
X104650000Y-107982959D01*
X98167000Y-107942959D02*
X104583000Y-107942959D01*
X98235000Y-107902959D02*
X104515000Y-107902959D01*
X98306000Y-107862959D02*
X104444000Y-107862959D01*
X98379000Y-107822959D02*
X104371000Y-107822959D01*
X98454000Y-107782959D02*
X104296000Y-107782959D01*
X98531000Y-107742959D02*
X104219000Y-107742959D01*
X98611000Y-107702959D02*
X104139000Y-107702959D01*
X98694000Y-107662959D02*
X104056000Y-107662959D01*
X98781000Y-107622959D02*
X103969000Y-107622959D01*
X98871000Y-107582959D02*
X103879000Y-107582959D01*
X98965000Y-107542959D02*
X103785000Y-107542959D01*
X99063000Y-107502959D02*
X103687000Y-107502959D01*
X99166000Y-107462959D02*
X103584000Y-107462959D01*
X99275000Y-107422959D02*
X103475000Y-107422959D01*
X99391000Y-107382959D02*
X103359000Y-107382959D01*
X99514000Y-107342959D02*
X103236000Y-107342959D01*
X99647000Y-107302959D02*
X103103000Y-107302959D01*
X99792000Y-107262959D02*
X102958000Y-107262959D01*
X99953000Y-107222959D02*
X102797000Y-107222959D01*
X100134000Y-107182959D02*
X102616000Y-107182959D01*
X100347000Y-107142959D02*
X102403000Y-107142959D01*
X100618000Y-107102959D02*
X102132000Y-107102959D01*
X101058000Y-107062959D02*
X101692000Y-107062959D01*
X102815000Y-109502959D02*
X106357000Y-109502959D01*
X102815000Y-109542959D02*
X106387000Y-109542959D01*
X102815000Y-109582959D02*
X106418000Y-109582959D01*
X102815000Y-109622959D02*
X106448000Y-109622959D01*
X102815000Y-109662959D02*
X106477000Y-109662959D01*
X102815000Y-109702959D02*
X106506000Y-109702959D01*
X102815000Y-109742959D02*
X106535000Y-109742959D01*
X102815000Y-109782959D02*
X106563000Y-109782959D01*
X102815000Y-109822959D02*
X106591000Y-109822959D01*
X102815000Y-109862959D02*
X106618000Y-109862959D01*
X102815000Y-109902959D02*
X106645000Y-109902959D01*
X102815000Y-109942959D02*
X106671000Y-109942959D01*
X102815000Y-109982959D02*
X106697000Y-109982959D01*
X102815000Y-110022959D02*
X106722000Y-110022959D01*
X102815000Y-110062959D02*
X106747000Y-110062959D01*
X102815000Y-110102959D02*
X106772000Y-110102959D01*
X102815000Y-110142959D02*
X106796000Y-110142959D01*
X102815000Y-110182959D02*
X106820000Y-110182959D01*
X102815000Y-110222959D02*
X106843000Y-110222959D01*
X102815000Y-110262959D02*
X106866000Y-110262959D01*
X102815000Y-110302959D02*
X106889000Y-110302959D01*
X102815000Y-110342959D02*
X106911000Y-110342959D01*
X102815000Y-110382959D02*
X106933000Y-110382959D01*
X102815000Y-110422959D02*
X106955000Y-110422959D01*
X102815000Y-110462959D02*
X106976000Y-110462959D01*
X102815000Y-110502959D02*
X106997000Y-110502959D01*
X102815000Y-110542959D02*
X107017000Y-110542959D01*
X102815000Y-110582959D02*
X107037000Y-110582959D01*
X102815000Y-110622959D02*
X107057000Y-110622959D01*
X102815000Y-110662959D02*
X107077000Y-110662959D01*
X102815000Y-110702959D02*
X107096000Y-110702959D01*
X102815000Y-110742959D02*
X107114000Y-110742959D01*
X102815000Y-110782959D02*
X107133000Y-110782959D01*
X102815000Y-110822959D02*
X107151000Y-110822959D01*
X102815000Y-110862959D02*
X107168000Y-110862959D01*
X102815000Y-110902959D02*
X107186000Y-110902959D01*
X102815000Y-110942959D02*
X107203000Y-110942959D01*
X102815000Y-110982959D02*
X107220000Y-110982959D01*
X102815000Y-111022959D02*
X107236000Y-111022959D01*
X102815000Y-111062959D02*
X107252000Y-111062959D01*
X102815000Y-111102959D02*
X107268000Y-111102959D01*
X102815000Y-111142959D02*
X107283000Y-111142959D01*
X102815000Y-111182959D02*
X107299000Y-111182959D01*
X102815000Y-111222959D02*
X107314000Y-111222959D01*
X102815000Y-111262959D02*
X107328000Y-111262959D01*
X102815000Y-111302959D02*
X107342000Y-111302959D01*
X102815000Y-111342959D02*
X107356000Y-111342959D01*
X102815000Y-111382959D02*
X107370000Y-111382959D01*
X102815000Y-111422959D02*
X107383000Y-111422959D01*
X102815000Y-111462959D02*
X107396000Y-111462959D01*
X102815000Y-111502959D02*
X107409000Y-111502959D01*
X102815000Y-111542959D02*
X107422000Y-111542959D01*
X102815000Y-111582959D02*
X107434000Y-111582959D01*
X102815000Y-111622959D02*
X107446000Y-111622959D01*
X102815000Y-111662959D02*
X107458000Y-111662959D01*
X102815000Y-111702959D02*
X107469000Y-111702959D01*
X102815000Y-111742959D02*
X107480000Y-111742959D01*
X102815000Y-111782959D02*
X107491000Y-111782959D01*
X102815000Y-111822959D02*
X107501000Y-111822959D01*
X102815000Y-111862959D02*
X107512000Y-111862959D01*
X102815000Y-111902959D02*
X107521000Y-111902959D01*
X102815000Y-111942959D02*
X107531000Y-111942959D01*
X102815000Y-111982959D02*
X107541000Y-111982959D01*
X102815000Y-112022959D02*
X107550000Y-112022959D01*
X102815000Y-112062959D02*
X107559000Y-112062959D01*
X102815000Y-112102959D02*
X107567000Y-112102959D01*
X102815000Y-112142959D02*
X107576000Y-112142959D01*
X102815000Y-112182959D02*
X107584000Y-112182959D01*
X102815000Y-112222959D02*
X107591000Y-112222959D01*
X102815000Y-112262959D02*
X107599000Y-112262959D01*
X102815000Y-112302959D02*
X107606000Y-112302959D01*
X102815000Y-112342959D02*
X107613000Y-112342959D01*
X107745000Y-113423959D02*
G75*
G02*
X95005000Y-113423959I-6370000J0D01*
G01*
X95005000Y-113423959D02*
G75*
G02*
X107745000Y-113423959I6370000J0D01*
G01*
%TO.C,J6*%
X106740000Y-89545000D02*
X106740000Y-92205000D01*
X111880000Y-89545000D02*
X106740000Y-89545000D01*
X111880000Y-89545000D02*
X111880000Y-92205000D01*
X111880000Y-92205000D02*
X106740000Y-92205000D01*
X113150000Y-89545000D02*
X114480000Y-89545000D01*
X114480000Y-89545000D02*
X114480000Y-90875000D01*
%TO.C,C1*%
X110230000Y-111045000D02*
X110230000Y-111030000D01*
X110230000Y-113170000D02*
X110230000Y-113155000D01*
X114770000Y-111030000D02*
X110230000Y-111030000D01*
X114770000Y-111045000D02*
X114770000Y-111030000D01*
X114770000Y-113170000D02*
X110230000Y-113170000D01*
X114770000Y-113170000D02*
X114770000Y-113155000D01*
%TO.C,R3*%
X89300000Y-73990000D02*
X89300000Y-80530000D01*
X89300000Y-80530000D02*
X92040000Y-80530000D01*
X90670000Y-73220000D02*
X90670000Y-73990000D01*
X90670000Y-81300000D02*
X90670000Y-80530000D01*
X92040000Y-73990000D02*
X89300000Y-73990000D01*
X92040000Y-80530000D02*
X92040000Y-73990000D01*
%TO.C,J4*%
X106715000Y-80045000D02*
X106715000Y-82705000D01*
X111855000Y-80045000D02*
X106715000Y-80045000D01*
X111855000Y-80045000D02*
X111855000Y-82705000D01*
X111855000Y-82705000D02*
X106715000Y-82705000D01*
X113125000Y-80045000D02*
X114455000Y-80045000D01*
X114455000Y-80045000D02*
X114455000Y-81375000D01*
%TO.C,C2*%
X110230000Y-113695000D02*
X110230000Y-113680000D01*
X110230000Y-115820000D02*
X110230000Y-115805000D01*
X114770000Y-113680000D02*
X110230000Y-113680000D01*
X114770000Y-113695000D02*
X114770000Y-113680000D01*
X114770000Y-115820000D02*
X110230000Y-115820000D01*
X114770000Y-115820000D02*
X114770000Y-115805000D01*
%TO.C,D1*%
X97220000Y-75039000D02*
X97220000Y-75195000D01*
X97220000Y-77355000D02*
X97220000Y-77511000D01*
X97220000Y-75039484D02*
G75*
G02*
X100452335Y-75196392I1560000J-1235516D01*
G01*
X97739039Y-75195000D02*
G75*
G02*
X99821130Y-75195163I1040961J-1080000D01*
G01*
X99821130Y-77354837D02*
G75*
G02*
X97739039Y-77355000I-1041130J1079837D01*
G01*
X100452335Y-77353608D02*
G75*
G02*
X97220000Y-77510516I-1672335J1078608D01*
G01*
%TO.C,J2*%
X139470000Y-72670000D02*
X140800000Y-72670000D01*
X139470000Y-74000000D02*
X139470000Y-72670000D01*
X139470000Y-75270000D02*
X139470000Y-118510000D01*
X139470000Y-75270000D02*
X142130000Y-75270000D01*
X139470000Y-118510000D02*
X142130000Y-118510000D01*
X142130000Y-75270000D02*
X142130000Y-118510000D01*
%TO.C,U1*%
X94505000Y-81130000D02*
X94505000Y-97020000D01*
X94505000Y-81130000D02*
X104745000Y-81130000D01*
X94505000Y-97020000D02*
X104745000Y-97020000D01*
X97085000Y-97020000D02*
X97085000Y-99560000D01*
X99625000Y-97020000D02*
X99625000Y-99560000D01*
X102165000Y-97020000D02*
X102165000Y-99560000D01*
X104745000Y-81130000D02*
X104745000Y-97020000D01*
%TO.C,R4*%
X86130000Y-73990000D02*
X86130000Y-80530000D01*
X86130000Y-80530000D02*
X88870000Y-80530000D01*
X87500000Y-73220000D02*
X87500000Y-73990000D01*
X87500000Y-81300000D02*
X87500000Y-80530000D01*
X88870000Y-73990000D02*
X86130000Y-73990000D01*
X88870000Y-80530000D02*
X88870000Y-73990000D01*
D10*
%TO.C,SW1*%
X84250000Y-100270000D02*
X84250000Y-101470000D01*
X85450000Y-100270000D02*
X84250000Y-100270000D01*
X91450000Y-113670000D02*
X92650000Y-113670000D01*
X92650000Y-113670000D02*
X92650000Y-112470000D01*
D12*
%TO.C,C6*%
X91161000Y-86160000D02*
X92419000Y-86160000D01*
X91161000Y-88000000D02*
X92419000Y-88000000D01*
%TO.C,J5*%
X106740000Y-84920000D02*
X106740000Y-87580000D01*
X111880000Y-84920000D02*
X106740000Y-84920000D01*
X111880000Y-84920000D02*
X111880000Y-87580000D01*
X111880000Y-87580000D02*
X106740000Y-87580000D01*
X113150000Y-84920000D02*
X114480000Y-84920000D01*
X114480000Y-84920000D02*
X114480000Y-86250000D01*
%TO.C,C7*%
X91171000Y-83870000D02*
X92429000Y-83870000D01*
X91171000Y-85710000D02*
X92429000Y-85710000D01*
%TO.C,U2*%
X86005000Y-85832500D02*
X86005000Y-85032500D01*
X86005000Y-85832500D02*
X86005000Y-86632500D01*
X89125000Y-85832500D02*
X89125000Y-85032500D01*
X89125000Y-85832500D02*
X89125000Y-86632500D01*
X86080000Y-87132500D02*
X85750000Y-87372500D01*
X85750000Y-86892500D01*
X86080000Y-87132500D01*
G36*
X86080000Y-87132500D02*
G01*
X85750000Y-87372500D01*
X85750000Y-86892500D01*
X86080000Y-87132500D01*
G37*
%TO.C,C5*%
X101504000Y-102430000D02*
X100246000Y-102430000D01*
X101504000Y-104270000D02*
X100246000Y-104270000D01*
%TO.C,R2*%
X89057064Y-88520000D02*
X84702936Y-88520000D01*
X89057064Y-91940000D02*
X84702936Y-91940000D01*
%TD*%
M02*
