%TF.GenerationSoftware,KiCad,Pcbnew,8.0.2*%
%TF.CreationDate,2025-03-31T19:17:40+02:00*%
%TF.ProjectId,carte_robo_pince,63617274-655f-4726-9f62-6f5f70696e63,rev?*%
%TF.SameCoordinates,Original*%
%TF.FileFunction,Soldermask,Bot*%
%TF.FilePolarity,Negative*%
%FSLAX46Y46*%
G04 Gerber Fmt 4.6, Leading zero omitted, Abs format (unit mm)*
G04 Created by KiCad (PCBNEW 8.0.2) date 2025-03-31 19:17:40*
%MOMM*%
%LPD*%
G01*
G04 APERTURE LIST*
%ADD10R,1.700000X1.700000*%
%ADD11O,1.700000X1.700000*%
%ADD12C,1.600000*%
%ADD13O,1.600000X1.600000*%
%ADD14R,2.400000X2.400000*%
%ADD15C,2.400000*%
%ADD16R,1.800000X1.800000*%
%ADD17C,1.800000*%
%ADD18O,3.500000X3.500000*%
%ADD19R,1.905000X2.000000*%
%ADD20O,1.905000X2.000000*%
G04 APERTURE END LIST*
D10*
%TO.C,J3*%
X113125000Y-76325000D03*
D11*
X110585000Y-76325000D03*
X108045000Y-76325000D03*
%TD*%
D10*
%TO.C,J7*%
X113150000Y-95575000D03*
D11*
X110610000Y-95575000D03*
X108070000Y-95575000D03*
%TD*%
D10*
%TO.C,J1*%
X118000000Y-73960000D03*
D11*
X118000000Y-76500000D03*
X118000000Y-79040000D03*
X118000000Y-81580000D03*
X118000000Y-84120000D03*
X118000000Y-86660000D03*
X118000000Y-89200000D03*
X118000000Y-91740000D03*
X118000000Y-94280000D03*
X118000000Y-96820000D03*
X118000000Y-99360000D03*
X118000000Y-101900000D03*
X118000000Y-104440000D03*
X118000000Y-106980000D03*
X118000000Y-109520000D03*
X118000000Y-112060000D03*
X118000000Y-114600000D03*
X118000000Y-117140000D03*
%TD*%
D12*
%TO.C,R1*%
X100430000Y-72280000D03*
D13*
X110590000Y-72280000D03*
%TD*%
D12*
%TO.C,C3*%
X97050000Y-103325000D03*
X97050000Y-105825000D03*
%TD*%
D10*
%TO.C,BT1*%
X88365000Y-118070000D03*
D11*
X90905000Y-118070000D03*
%TD*%
D14*
%TO.C,C4*%
X101375000Y-115923959D03*
D15*
X101375000Y-110923959D03*
%TD*%
D10*
%TO.C,J6*%
X113150000Y-90875000D03*
D11*
X110610000Y-90875000D03*
X108070000Y-90875000D03*
%TD*%
D12*
%TO.C,C1*%
X115000000Y-112100000D03*
X110000000Y-112100000D03*
%TD*%
%TO.C,R3*%
X90670000Y-72180000D03*
D13*
X90670000Y-82340000D03*
%TD*%
D10*
%TO.C,J4*%
X113125000Y-81375000D03*
D11*
X110585000Y-81375000D03*
X108045000Y-81375000D03*
%TD*%
D12*
%TO.C,C2*%
X115000000Y-114750000D03*
X110000000Y-114750000D03*
%TD*%
D16*
%TO.C,D1*%
X97510000Y-76275000D03*
D17*
X100050000Y-76275000D03*
%TD*%
D10*
%TO.C,J2*%
X140800000Y-74000000D03*
D11*
X140800000Y-76540000D03*
X140800000Y-79080000D03*
X140800000Y-81620000D03*
X140800000Y-84160000D03*
X140800000Y-86700000D03*
X140800000Y-89240000D03*
X140800000Y-91780000D03*
X140800000Y-94320000D03*
X140800000Y-96860000D03*
X140800000Y-99400000D03*
X140800000Y-101940000D03*
X140800000Y-104480000D03*
X140800000Y-107020000D03*
X140800000Y-109560000D03*
X140800000Y-112100000D03*
X140800000Y-114640000D03*
X140800000Y-117180000D03*
%TD*%
D18*
%TO.C,U1*%
X99625000Y-84050000D03*
D19*
X97085000Y-100710000D03*
D20*
X99625000Y-100710000D03*
X102165000Y-100710000D03*
%TD*%
D12*
%TO.C,R4*%
X87500000Y-72180000D03*
D13*
X87500000Y-82340000D03*
%TD*%
D15*
%TO.C,SW1*%
X88450000Y-111970000D03*
X88450000Y-106970000D03*
D14*
X88450000Y-101970000D03*
%TD*%
D12*
%TO.C,C6*%
X90540000Y-87080000D03*
X93040000Y-87080000D03*
%TD*%
D10*
%TO.C,J5*%
X113150000Y-86250000D03*
D11*
X110610000Y-86250000D03*
X108070000Y-86250000D03*
%TD*%
D12*
%TO.C,C7*%
X90550000Y-84790000D03*
X93050000Y-84790000D03*
%TD*%
%TO.C,C5*%
X102125000Y-103350000D03*
X99625000Y-103350000D03*
%TD*%
M02*
