%TF.GenerationSoftware,KiCad,Pcbnew,8.0.2*%
%TF.CreationDate,2025-02-13T09:36:27+01:00*%
%TF.ProjectId,carte_robo_pince,63617274-655f-4726-9f62-6f5f70696e63,rev?*%
%TF.SameCoordinates,Original*%
%TF.FileFunction,Soldermask,Bot*%
%TF.FilePolarity,Negative*%
%FSLAX46Y46*%
G04 Gerber Fmt 4.6, Leading zero omitted, Abs format (unit mm)*
G04 Created by KiCad (PCBNEW 8.0.2) date 2025-02-13 09:36:27*
%MOMM*%
%LPD*%
G01*
G04 APERTURE LIST*
%ADD10R,1.700000X1.700000*%
%ADD11O,1.700000X1.700000*%
%ADD12C,1.600000*%
G04 APERTURE END LIST*
D10*
%TO.C,J3*%
X111275000Y-77000000D03*
D11*
X108735000Y-77000000D03*
X106195000Y-77000000D03*
%TD*%
D10*
%TO.C,J7*%
X111275000Y-90900000D03*
D11*
X108735000Y-90900000D03*
X106195000Y-90900000D03*
%TD*%
D10*
%TO.C,J1*%
X118000000Y-73960000D03*
D11*
X118000000Y-76500000D03*
X118000000Y-79040000D03*
X118000000Y-81580000D03*
X118000000Y-84120000D03*
X118000000Y-86660000D03*
X118000000Y-89200000D03*
X118000000Y-91740000D03*
X118000000Y-94280000D03*
X118000000Y-96820000D03*
X118000000Y-99360000D03*
X118000000Y-101900000D03*
X118000000Y-104440000D03*
X118000000Y-106980000D03*
X118000000Y-109520000D03*
X118000000Y-112060000D03*
X118000000Y-114600000D03*
X118000000Y-117140000D03*
%TD*%
D10*
%TO.C,BT1*%
X108725000Y-100000000D03*
D11*
X111265000Y-100000000D03*
%TD*%
D10*
%TO.C,J6*%
X111275000Y-95400000D03*
D11*
X108735000Y-95400000D03*
X106195000Y-95400000D03*
%TD*%
D12*
%TO.C,C1*%
X115000000Y-112100000D03*
X110000000Y-112100000D03*
%TD*%
D10*
%TO.C,J4*%
X111275000Y-81650000D03*
D11*
X108735000Y-81650000D03*
X106195000Y-81650000D03*
%TD*%
D12*
%TO.C,C2*%
X115000000Y-114750000D03*
X110000000Y-114750000D03*
%TD*%
D10*
%TO.C,J2*%
X140800000Y-74000000D03*
D11*
X140800000Y-76540000D03*
X140800000Y-79080000D03*
X140800000Y-81620000D03*
X140800000Y-84160000D03*
X140800000Y-86700000D03*
X140800000Y-89240000D03*
X140800000Y-91780000D03*
X140800000Y-94320000D03*
X140800000Y-96860000D03*
X140800000Y-99400000D03*
X140800000Y-101940000D03*
X140800000Y-104480000D03*
X140800000Y-107020000D03*
X140800000Y-109560000D03*
X140800000Y-112100000D03*
X140800000Y-114640000D03*
X140800000Y-117180000D03*
%TD*%
D10*
%TO.C,J5*%
X111275000Y-86300000D03*
D11*
X108735000Y-86300000D03*
X106195000Y-86300000D03*
%TD*%
M02*
