%TF.GenerationSoftware,KiCad,Pcbnew,8.0.2*%
%TF.CreationDate,2025-02-13T09:36:27+01:00*%
%TF.ProjectId,carte_robo_pince,63617274-655f-4726-9f62-6f5f70696e63,rev?*%
%TF.SameCoordinates,Original*%
%TF.FileFunction,Copper,L2,Bot*%
%TF.FilePolarity,Positive*%
%FSLAX46Y46*%
G04 Gerber Fmt 4.6, Leading zero omitted, Abs format (unit mm)*
G04 Created by KiCad (PCBNEW 8.0.2) date 2025-02-13 09:36:27*
%MOMM*%
%LPD*%
G01*
G04 APERTURE LIST*
%TA.AperFunction,ComponentPad*%
%ADD10R,1.700000X1.700000*%
%TD*%
%TA.AperFunction,ComponentPad*%
%ADD11O,1.700000X1.700000*%
%TD*%
%TA.AperFunction,ComponentPad*%
%ADD12C,1.600000*%
%TD*%
%TA.AperFunction,Conductor*%
%ADD13C,0.200000*%
%TD*%
G04 APERTURE END LIST*
D10*
%TO.P,J3,1,Pin_1*%
%TO.N,Net-(J3-Pin_1)*%
X111275000Y-77000000D03*
D11*
%TO.P,J3,2,Pin_2*%
%TO.N,/+5V*%
X108735000Y-77000000D03*
%TO.P,J3,3,Pin_3*%
%TO.N,/16_S0*%
X106195000Y-77000000D03*
%TD*%
D10*
%TO.P,J7,1,Pin_1*%
%TO.N,Net-(J3-Pin_1)*%
X111275000Y-90900000D03*
D11*
%TO.P,J7,2,Pin_2*%
%TO.N,/+5V*%
X108735000Y-90900000D03*
%TO.P,J7,3,Pin_3*%
%TO.N,/4_S5*%
X106195000Y-90900000D03*
%TD*%
D10*
%TO.P,J1,1,Pin_1*%
%TO.N,unconnected-(J1-Pin_1-Pad1)*%
X118000000Y-73960000D03*
D11*
%TO.P,J1,2,Pin_2*%
%TO.N,/13_S2*%
X118000000Y-76500000D03*
%TO.P,J1,3,Pin_3*%
%TO.N,unconnected-(J1-Pin_3-Pad3)*%
X118000000Y-79040000D03*
%TO.P,J1,4,Pin_4*%
%TO.N,/14_S3*%
X118000000Y-81580000D03*
%TO.P,J1,5,Pin_5*%
%TO.N,unconnected-(J1-Pin_5-Pad5)*%
X118000000Y-84120000D03*
%TO.P,J1,6,Pin_6*%
%TO.N,unconnected-(J1-Pin_6-Pad6)*%
X118000000Y-86660000D03*
%TO.P,J1,7,Pin_7*%
%TO.N,unconnected-(J1-Pin_7-Pad7)*%
X118000000Y-89200000D03*
%TO.P,J1,8,Pin_8*%
%TO.N,unconnected-(J1-Pin_8-Pad8)*%
X118000000Y-91740000D03*
%TO.P,J1,9,Pin_9*%
%TO.N,unconnected-(J1-Pin_9-Pad9)*%
X118000000Y-94280000D03*
%TO.P,J1,10,Pin_10*%
%TO.N,/35*%
X118000000Y-96820000D03*
%TO.P,J1,11,Pin_11*%
%TO.N,/34*%
X118000000Y-99360000D03*
%TO.P,J1,12,Pin_12*%
%TO.N,/39*%
X118000000Y-101900000D03*
%TO.P,J1,13,Pin_13*%
%TO.N,unconnected-(J1-Pin_13-Pad13)*%
X118000000Y-104440000D03*
%TO.P,J1,14,Pin_14*%
%TO.N,unconnected-(J1-Pin_14-Pad14)*%
X118000000Y-106980000D03*
%TO.P,J1,15,Pin_15*%
%TO.N,/36*%
X118000000Y-109520000D03*
%TO.P,J1,16,Pin_16*%
%TO.N,/+3.3V*%
X118000000Y-112060000D03*
%TO.P,J1,17,Pin_17*%
%TO.N,/+5V*%
X118000000Y-114600000D03*
%TO.P,J1,18,Pin_18*%
%TO.N,GND*%
X118000000Y-117140000D03*
%TD*%
D10*
%TO.P,BT1,1,+*%
%TO.N,/+5V*%
X108725000Y-100000000D03*
D11*
%TO.P,BT1,2,-*%
%TO.N,GND*%
X111265000Y-100000000D03*
%TD*%
D10*
%TO.P,J6,1,Pin_1*%
%TO.N,Net-(J3-Pin_1)*%
X111275000Y-95400000D03*
D11*
%TO.P,J6,2,Pin_2*%
%TO.N,/+5V*%
X108735000Y-95400000D03*
%TO.P,J6,3,Pin_3*%
%TO.N,/15_S4*%
X106195000Y-95400000D03*
%TD*%
D12*
%TO.P,C1,1*%
%TO.N,/+3.3V*%
X115000000Y-112100000D03*
%TO.P,C1,2*%
%TO.N,GND*%
X110000000Y-112100000D03*
%TD*%
D10*
%TO.P,J4,1,Pin_1*%
%TO.N,Net-(J3-Pin_1)*%
X111275000Y-81650000D03*
D11*
%TO.P,J4,2,Pin_2*%
%TO.N,/+5V*%
X108735000Y-81650000D03*
%TO.P,J4,3,Pin_3*%
%TO.N,/13_S2*%
X106195000Y-81650000D03*
%TD*%
D12*
%TO.P,C2,1*%
%TO.N,/+5V*%
X115000000Y-114750000D03*
%TO.P,C2,2*%
%TO.N,GND*%
X110000000Y-114750000D03*
%TD*%
D10*
%TO.P,J2,1,Pin_1*%
%TO.N,/16_S0*%
X140800000Y-74000000D03*
D11*
%TO.P,J2,2,Pin_2*%
%TO.N,unconnected-(J2-Pin_2-Pad2)*%
X140800000Y-76540000D03*
%TO.P,J2,3,Pin_3*%
%TO.N,/4_S5*%
X140800000Y-79080000D03*
%TO.P,J2,4,Pin_4*%
%TO.N,unconnected-(J2-Pin_4-Pad4)*%
X140800000Y-81620000D03*
%TO.P,J2,5,Pin_5*%
%TO.N,/15_S4*%
X140800000Y-84160000D03*
%TO.P,J2,6,Pin_6*%
%TO.N,unconnected-(J2-Pin_6-Pad6)*%
X140800000Y-86700000D03*
%TO.P,J2,7,Pin_7*%
%TO.N,unconnected-(J2-Pin_7-Pad7)*%
X140800000Y-89240000D03*
%TO.P,J2,8,Pin_8*%
%TO.N,unconnected-(J2-Pin_8-Pad8)*%
X140800000Y-91780000D03*
%TO.P,J2,9,Pin_9*%
%TO.N,unconnected-(J2-Pin_9-Pad9)*%
X140800000Y-94320000D03*
%TO.P,J2,10,Pin_10*%
%TO.N,unconnected-(J2-Pin_10-Pad10)*%
X140800000Y-96860000D03*
%TO.P,J2,11,Pin_11*%
%TO.N,unconnected-(J2-Pin_11-Pad11)*%
X140800000Y-99400000D03*
%TO.P,J2,12,Pin_12*%
%TO.N,unconnected-(J2-Pin_12-Pad12)*%
X140800000Y-101940000D03*
%TO.P,J2,13,Pin_13*%
%TO.N,unconnected-(J2-Pin_13-Pad13)*%
X140800000Y-104480000D03*
%TO.P,J2,14,Pin_14*%
%TO.N,unconnected-(J2-Pin_14-Pad14)*%
X140800000Y-107020000D03*
%TO.P,J2,15,Pin_15*%
%TO.N,unconnected-(J2-Pin_15-Pad15)*%
X140800000Y-109560000D03*
%TO.P,J2,16,Pin_16*%
%TO.N,unconnected-(J2-Pin_16-Pad16)*%
X140800000Y-112100000D03*
%TO.P,J2,17,Pin_17*%
%TO.N,unconnected-(J2-Pin_17-Pad17)*%
X140800000Y-114640000D03*
%TO.P,J2,18,Pin_18*%
%TO.N,unconnected-(J2-Pin_18-Pad18)*%
X140800000Y-117180000D03*
%TD*%
D10*
%TO.P,J5,1,Pin_1*%
%TO.N,Net-(J3-Pin_1)*%
X111275000Y-86300000D03*
D11*
%TO.P,J5,2,Pin_2*%
%TO.N,/+5V*%
X108735000Y-86300000D03*
%TO.P,J5,3,Pin_3*%
%TO.N,/14_S3*%
X106195000Y-86300000D03*
%TD*%
D13*
%TO.N,/+5V*%
X108725000Y-107925000D02*
X108725000Y-100000000D01*
X113425000Y-114750000D02*
X112725000Y-114050000D01*
X112725000Y-114050000D02*
X112725000Y-111925000D01*
X112725000Y-111925000D02*
X108725000Y-107925000D01*
X115000000Y-114750000D02*
X113425000Y-114750000D01*
%TO.N,/13_S2*%
X115200000Y-79300000D02*
X118000000Y-76500000D01*
X106195000Y-80305000D02*
X107200000Y-79300000D01*
X106195000Y-81650000D02*
X106195000Y-80305000D01*
X107200000Y-79300000D02*
X115200000Y-79300000D01*
%TO.N,/14_S3*%
X115630000Y-83950000D02*
X118000000Y-81580000D01*
X107150000Y-83950000D02*
X115630000Y-83950000D01*
X106195000Y-84905000D02*
X107150000Y-83950000D01*
X106195000Y-86300000D02*
X106195000Y-84905000D01*
%TO.N,/4_S5*%
X106195000Y-90900000D02*
X106195000Y-89305000D01*
X122550000Y-87950000D02*
X131420000Y-79080000D01*
X131420000Y-79080000D02*
X140800000Y-79080000D01*
X116250000Y-88500000D02*
X116800000Y-87950000D01*
X106195000Y-89305000D02*
X107000000Y-88500000D01*
X116800000Y-87950000D02*
X122550000Y-87950000D01*
X107000000Y-88500000D02*
X116250000Y-88500000D01*
%TD*%
%TA.AperFunction,Conductor*%
%TO.N,GND*%
G36*
X143254418Y-70880816D02*
G01*
X143261016Y-70881287D01*
X143454561Y-70895130D01*
X143472063Y-70897647D01*
X143663797Y-70939355D01*
X143680755Y-70944334D01*
X143863424Y-71012467D01*
X143864609Y-71012909D01*
X143880701Y-71020259D01*
X144052904Y-71114288D01*
X144067784Y-71123849D01*
X144136571Y-71175343D01*
X144224867Y-71241441D01*
X144238237Y-71253027D01*
X144376972Y-71391762D01*
X144388558Y-71405132D01*
X144506146Y-71562210D01*
X144515711Y-71577095D01*
X144609740Y-71749298D01*
X144617090Y-71765390D01*
X144685662Y-71949236D01*
X144690646Y-71966212D01*
X144732351Y-72157931D01*
X144734869Y-72175443D01*
X144749181Y-72375562D01*
X144749497Y-72384437D01*
X144735302Y-133412064D01*
X144735285Y-133412350D01*
X144735285Y-133481364D01*
X144734969Y-133490209D01*
X144720657Y-133690345D01*
X144718139Y-133707858D01*
X144676433Y-133899580D01*
X144671449Y-133916555D01*
X144602881Y-134100396D01*
X144595531Y-134116490D01*
X144501498Y-134288699D01*
X144491933Y-134303582D01*
X144374351Y-134460654D01*
X144362765Y-134474025D01*
X144224025Y-134612765D01*
X144210654Y-134624351D01*
X144053582Y-134741933D01*
X144038699Y-134751498D01*
X143866490Y-134845531D01*
X143850396Y-134852881D01*
X143666555Y-134921449D01*
X143649580Y-134926433D01*
X143457858Y-134968139D01*
X143440345Y-134970657D01*
X143240216Y-134984969D01*
X143231371Y-134985285D01*
X143162089Y-134985285D01*
X143161658Y-134985313D01*
X95318521Y-135003134D01*
X95308114Y-135002506D01*
X95244561Y-135003141D01*
X95235659Y-135002910D01*
X95034095Y-134990427D01*
X95016449Y-134988053D01*
X94823145Y-134947747D01*
X94806021Y-134942871D01*
X94736890Y-134917693D01*
X94620468Y-134875291D01*
X94604226Y-134868016D01*
X94430272Y-134774562D01*
X94415245Y-134765040D01*
X94256452Y-134647625D01*
X94242940Y-134636044D01*
X94102616Y-134497114D01*
X94090895Y-134483711D01*
X93971911Y-134326111D01*
X93962240Y-134311182D01*
X93867045Y-134138152D01*
X93859611Y-134121989D01*
X93790184Y-133937124D01*
X93785137Y-133920049D01*
X93742901Y-133727146D01*
X93740352Y-133709525D01*
X93725820Y-133507571D01*
X93725500Y-133498669D01*
X93725500Y-133481364D01*
X93725501Y-133437779D01*
X93725500Y-133437775D01*
X93725500Y-99102135D01*
X107374500Y-99102135D01*
X107374500Y-100897870D01*
X107374501Y-100897876D01*
X107380908Y-100957483D01*
X107431202Y-101092328D01*
X107431206Y-101092335D01*
X107517452Y-101207544D01*
X107517455Y-101207547D01*
X107632664Y-101293793D01*
X107632671Y-101293797D01*
X107677618Y-101310561D01*
X107767517Y-101344091D01*
X107827127Y-101350500D01*
X108000500Y-101350499D01*
X108067539Y-101370183D01*
X108113294Y-101422987D01*
X108124500Y-101474499D01*
X108124500Y-107838330D01*
X108124499Y-107838348D01*
X108124499Y-108004054D01*
X108124498Y-108004054D01*
X108165423Y-108156785D01*
X108165424Y-108156788D01*
X108169786Y-108164342D01*
X108169789Y-108164347D01*
X108244477Y-108293712D01*
X108244481Y-108293717D01*
X108363349Y-108412585D01*
X108363355Y-108412590D01*
X110657658Y-110706893D01*
X110691143Y-110768216D01*
X110686159Y-110837908D01*
X110644287Y-110893841D01*
X110578823Y-110918258D01*
X110517573Y-110906956D01*
X110446331Y-110873735D01*
X110446317Y-110873730D01*
X110226610Y-110814860D01*
X110226599Y-110814858D01*
X110000002Y-110795034D01*
X109999998Y-110795034D01*
X109773400Y-110814858D01*
X109773389Y-110814860D01*
X109553682Y-110873730D01*
X109553673Y-110873734D01*
X109347516Y-110969866D01*
X109347512Y-110969868D01*
X109274526Y-111020973D01*
X109274526Y-111020974D01*
X109953553Y-111700000D01*
X109947339Y-111700000D01*
X109845606Y-111727259D01*
X109754394Y-111779920D01*
X109679920Y-111854394D01*
X109627259Y-111945606D01*
X109600000Y-112047339D01*
X109600000Y-112053552D01*
X108920974Y-111374526D01*
X108920973Y-111374526D01*
X108869868Y-111447512D01*
X108869866Y-111447516D01*
X108773734Y-111653673D01*
X108773730Y-111653682D01*
X108714860Y-111873389D01*
X108714858Y-111873400D01*
X108695034Y-112099997D01*
X108695034Y-112100002D01*
X108714858Y-112326599D01*
X108714860Y-112326610D01*
X108773730Y-112546317D01*
X108773735Y-112546331D01*
X108869863Y-112752478D01*
X108920974Y-112825472D01*
X109600000Y-112146446D01*
X109600000Y-112152661D01*
X109627259Y-112254394D01*
X109679920Y-112345606D01*
X109754394Y-112420080D01*
X109845606Y-112472741D01*
X109947339Y-112500000D01*
X109953553Y-112500000D01*
X109274526Y-113179025D01*
X109347513Y-113230132D01*
X109347517Y-113230134D01*
X109524404Y-113312618D01*
X109576843Y-113358790D01*
X109595995Y-113425984D01*
X109575779Y-113492865D01*
X109524404Y-113537382D01*
X109347516Y-113619866D01*
X109347512Y-113619868D01*
X109274526Y-113670973D01*
X109274526Y-113670974D01*
X109953553Y-114350000D01*
X109947339Y-114350000D01*
X109845606Y-114377259D01*
X109754394Y-114429920D01*
X109679920Y-114504394D01*
X109627259Y-114595606D01*
X109600000Y-114697339D01*
X109600000Y-114703552D01*
X108920974Y-114024526D01*
X108920973Y-114024526D01*
X108869868Y-114097512D01*
X108869866Y-114097516D01*
X108773734Y-114303673D01*
X108773730Y-114303682D01*
X108714860Y-114523389D01*
X108714858Y-114523400D01*
X108695034Y-114749997D01*
X108695034Y-114750002D01*
X108714858Y-114976599D01*
X108714860Y-114976610D01*
X108773730Y-115196317D01*
X108773735Y-115196331D01*
X108869863Y-115402478D01*
X108920974Y-115475472D01*
X109600000Y-114796446D01*
X109600000Y-114802661D01*
X109627259Y-114904394D01*
X109679920Y-114995606D01*
X109754394Y-115070080D01*
X109845606Y-115122741D01*
X109947339Y-115150000D01*
X109953553Y-115150000D01*
X109274526Y-115829025D01*
X109347513Y-115880132D01*
X109347521Y-115880136D01*
X109553668Y-115976264D01*
X109553682Y-115976269D01*
X109773389Y-116035139D01*
X109773400Y-116035141D01*
X109999998Y-116054966D01*
X110000002Y-116054966D01*
X110226599Y-116035141D01*
X110226610Y-116035139D01*
X110446317Y-115976269D01*
X110446331Y-115976264D01*
X110652478Y-115880136D01*
X110725471Y-115829024D01*
X110046447Y-115150000D01*
X110052661Y-115150000D01*
X110154394Y-115122741D01*
X110245606Y-115070080D01*
X110320080Y-114995606D01*
X110372741Y-114904394D01*
X110400000Y-114802661D01*
X110400000Y-114796447D01*
X111079024Y-115475471D01*
X111130136Y-115402478D01*
X111226264Y-115196331D01*
X111226269Y-115196317D01*
X111285139Y-114976610D01*
X111285141Y-114976599D01*
X111304966Y-114750002D01*
X111304966Y-114749997D01*
X111285141Y-114523400D01*
X111285139Y-114523389D01*
X111226269Y-114303682D01*
X111226264Y-114303668D01*
X111130136Y-114097521D01*
X111130132Y-114097513D01*
X111079025Y-114024526D01*
X110400000Y-114703551D01*
X110400000Y-114697339D01*
X110372741Y-114595606D01*
X110320080Y-114504394D01*
X110245606Y-114429920D01*
X110154394Y-114377259D01*
X110052661Y-114350000D01*
X110046448Y-114350000D01*
X110725472Y-113670974D01*
X110652478Y-113619863D01*
X110475596Y-113537382D01*
X110423156Y-113491210D01*
X110404004Y-113424017D01*
X110424220Y-113357135D01*
X110475596Y-113312618D01*
X110652478Y-113230136D01*
X110725471Y-113179024D01*
X110046447Y-112500000D01*
X110052661Y-112500000D01*
X110154394Y-112472741D01*
X110245606Y-112420080D01*
X110320080Y-112345606D01*
X110372741Y-112254394D01*
X110400000Y-112152661D01*
X110400000Y-112146447D01*
X111079024Y-112825471D01*
X111130136Y-112752478D01*
X111226264Y-112546331D01*
X111226269Y-112546317D01*
X111285139Y-112326610D01*
X111285141Y-112326599D01*
X111304966Y-112100002D01*
X111304966Y-112099997D01*
X111285141Y-111873400D01*
X111285139Y-111873389D01*
X111226269Y-111653682D01*
X111226266Y-111653673D01*
X111193043Y-111582427D01*
X111182551Y-111513350D01*
X111211071Y-111449566D01*
X111269547Y-111411326D01*
X111339414Y-111410771D01*
X111393106Y-111442341D01*
X112088181Y-112137416D01*
X112121666Y-112198739D01*
X112124500Y-112225097D01*
X112124500Y-113963330D01*
X112124499Y-113963348D01*
X112124499Y-114129054D01*
X112124498Y-114129054D01*
X112165423Y-114281785D01*
X112177963Y-114303504D01*
X112177964Y-114303507D01*
X112244475Y-114418709D01*
X112244481Y-114418717D01*
X112363349Y-114537585D01*
X112363355Y-114537590D01*
X112940139Y-115114374D01*
X112940149Y-115114385D01*
X112944479Y-115118715D01*
X112944480Y-115118716D01*
X113056284Y-115230520D01*
X113056286Y-115230521D01*
X113056290Y-115230524D01*
X113138228Y-115277830D01*
X113193216Y-115309577D01*
X113305019Y-115339534D01*
X113345942Y-115350500D01*
X113345943Y-115350500D01*
X113768308Y-115350500D01*
X113835347Y-115370185D01*
X113869880Y-115403374D01*
X113955480Y-115525624D01*
X113999954Y-115589141D01*
X114160858Y-115750045D01*
X114160861Y-115750047D01*
X114347266Y-115880568D01*
X114553504Y-115976739D01*
X114773308Y-116035635D01*
X114935230Y-116049801D01*
X114999998Y-116055468D01*
X115000000Y-116055468D01*
X115000002Y-116055468D01*
X115056673Y-116050509D01*
X115226692Y-116035635D01*
X115446496Y-115976739D01*
X115652734Y-115880568D01*
X115839139Y-115750047D01*
X116000047Y-115589139D01*
X116130568Y-115402734D01*
X116226739Y-115196496D01*
X116285635Y-114976692D01*
X116305468Y-114750000D01*
X116285635Y-114523308D01*
X116226739Y-114303504D01*
X116130568Y-114097266D01*
X116000047Y-113910861D01*
X116000045Y-113910858D01*
X115839141Y-113749954D01*
X115652734Y-113619432D01*
X115652732Y-113619431D01*
X115614292Y-113601506D01*
X115476775Y-113537380D01*
X115424338Y-113491210D01*
X115405186Y-113424016D01*
X115425402Y-113357135D01*
X115476775Y-113312619D01*
X115652734Y-113230568D01*
X115839139Y-113100047D01*
X116000047Y-112939139D01*
X116130568Y-112752734D01*
X116226739Y-112546496D01*
X116285635Y-112326692D01*
X116305468Y-112100000D01*
X116301968Y-112060000D01*
X116285635Y-111873313D01*
X116285635Y-111873308D01*
X116239198Y-111700000D01*
X116226741Y-111653511D01*
X116226738Y-111653502D01*
X116218733Y-111636335D01*
X116130568Y-111447266D01*
X116000047Y-111260861D01*
X116000045Y-111260858D01*
X115839141Y-111099954D01*
X115652734Y-110969432D01*
X115652732Y-110969431D01*
X115446497Y-110873261D01*
X115446488Y-110873258D01*
X115226697Y-110814366D01*
X115226693Y-110814365D01*
X115226692Y-110814365D01*
X115226691Y-110814364D01*
X115226686Y-110814364D01*
X115000002Y-110794532D01*
X114999998Y-110794532D01*
X114773313Y-110814364D01*
X114773302Y-110814366D01*
X114553511Y-110873258D01*
X114553502Y-110873261D01*
X114347267Y-110969431D01*
X114347265Y-110969432D01*
X114160858Y-111099954D01*
X113999954Y-111260858D01*
X113869432Y-111447265D01*
X113869431Y-111447267D01*
X113773261Y-111653502D01*
X113773258Y-111653511D01*
X113714366Y-111873302D01*
X113714364Y-111873313D01*
X113694532Y-112099998D01*
X113694532Y-112100001D01*
X113714364Y-112326686D01*
X113714366Y-112326697D01*
X113773258Y-112546488D01*
X113773261Y-112546497D01*
X113869431Y-112752732D01*
X113869432Y-112752734D01*
X113999954Y-112939141D01*
X114160858Y-113100045D01*
X114160861Y-113100047D01*
X114347266Y-113230568D01*
X114523222Y-113312618D01*
X114575661Y-113358791D01*
X114594813Y-113425984D01*
X114574597Y-113492865D01*
X114523222Y-113537382D01*
X114347267Y-113619431D01*
X114347265Y-113619432D01*
X114160858Y-113749954D01*
X113999954Y-113910858D01*
X113923450Y-114020118D01*
X113869881Y-114096624D01*
X113815307Y-114140248D01*
X113768308Y-114149500D01*
X113725097Y-114149500D01*
X113658058Y-114129815D01*
X113637416Y-114113181D01*
X113361819Y-113837584D01*
X113328334Y-113776261D01*
X113325500Y-113749903D01*
X113325500Y-111845943D01*
X113325499Y-111845939D01*
X113315378Y-111808166D01*
X113315378Y-111808165D01*
X113284577Y-111693215D01*
X113228644Y-111596337D01*
X113205520Y-111556284D01*
X113093716Y-111444480D01*
X113093715Y-111444479D01*
X113089385Y-111440149D01*
X113089374Y-111440139D01*
X109361819Y-107712584D01*
X109328334Y-107651261D01*
X109325500Y-107624903D01*
X109325500Y-101474499D01*
X109345185Y-101407460D01*
X109397989Y-101361705D01*
X109449500Y-101350499D01*
X109622871Y-101350499D01*
X109622872Y-101350499D01*
X109682483Y-101344091D01*
X109817331Y-101293796D01*
X109932546Y-101207546D01*
X110018796Y-101092331D01*
X110027648Y-101068599D01*
X110068002Y-100960402D01*
X110109872Y-100904468D01*
X110175337Y-100880050D01*
X110243610Y-100894901D01*
X110271865Y-100916053D01*
X110393917Y-101038105D01*
X110587421Y-101173600D01*
X110801507Y-101273429D01*
X110801516Y-101273433D01*
X111015000Y-101330634D01*
X111015000Y-100433012D01*
X111072007Y-100465925D01*
X111199174Y-100500000D01*
X111330826Y-100500000D01*
X111457993Y-100465925D01*
X111515000Y-100433012D01*
X111515000Y-101330633D01*
X111728483Y-101273433D01*
X111728492Y-101273429D01*
X111942578Y-101173600D01*
X112136082Y-101038105D01*
X112303105Y-100871082D01*
X112438600Y-100677578D01*
X112538429Y-100463492D01*
X112538432Y-100463486D01*
X112595636Y-100250000D01*
X111698012Y-100250000D01*
X111730925Y-100192993D01*
X111765000Y-100065826D01*
X111765000Y-99934174D01*
X111730925Y-99807007D01*
X111698012Y-99750000D01*
X112595636Y-99750000D01*
X112595635Y-99749999D01*
X112538432Y-99536513D01*
X112538429Y-99536507D01*
X112438600Y-99322422D01*
X112438599Y-99322420D01*
X112303113Y-99128926D01*
X112303108Y-99128920D01*
X112136082Y-98961894D01*
X111942578Y-98826399D01*
X111728492Y-98726570D01*
X111728486Y-98726567D01*
X111515000Y-98669364D01*
X111515000Y-99566988D01*
X111457993Y-99534075D01*
X111330826Y-99500000D01*
X111199174Y-99500000D01*
X111072007Y-99534075D01*
X111015000Y-99566988D01*
X111015000Y-98669364D01*
X111014999Y-98669364D01*
X110801513Y-98726567D01*
X110801507Y-98726570D01*
X110587422Y-98826399D01*
X110587420Y-98826400D01*
X110393926Y-98961886D01*
X110271865Y-99083947D01*
X110210542Y-99117431D01*
X110140850Y-99112447D01*
X110084917Y-99070575D01*
X110068002Y-99039598D01*
X110018797Y-98907671D01*
X110018793Y-98907664D01*
X109932547Y-98792455D01*
X109932544Y-98792452D01*
X109817335Y-98706206D01*
X109817328Y-98706202D01*
X109682482Y-98655908D01*
X109682483Y-98655908D01*
X109622883Y-98649501D01*
X109622881Y-98649500D01*
X109622873Y-98649500D01*
X109622864Y-98649500D01*
X107827129Y-98649500D01*
X107827123Y-98649501D01*
X107767516Y-98655908D01*
X107632671Y-98706202D01*
X107632664Y-98706206D01*
X107517455Y-98792452D01*
X107517452Y-98792455D01*
X107431206Y-98907664D01*
X107431202Y-98907671D01*
X107380908Y-99042517D01*
X107374501Y-99102116D01*
X107374500Y-99102135D01*
X93725500Y-99102135D01*
X93725500Y-95399999D01*
X104839341Y-95399999D01*
X104839341Y-95400000D01*
X104859936Y-95635403D01*
X104859938Y-95635413D01*
X104921094Y-95863655D01*
X104921096Y-95863659D01*
X104921097Y-95863663D01*
X104979355Y-95988597D01*
X105020965Y-96077830D01*
X105020967Y-96077834D01*
X105066017Y-96142171D01*
X105156505Y-96271401D01*
X105323599Y-96438495D01*
X105420384Y-96506265D01*
X105517165Y-96574032D01*
X105517167Y-96574033D01*
X105517170Y-96574035D01*
X105731337Y-96673903D01*
X105959592Y-96735063D01*
X106136034Y-96750500D01*
X106194999Y-96755659D01*
X106195000Y-96755659D01*
X106195001Y-96755659D01*
X106253966Y-96750500D01*
X106430408Y-96735063D01*
X106658663Y-96673903D01*
X106872830Y-96574035D01*
X107066401Y-96438495D01*
X107233495Y-96271401D01*
X107363425Y-96085842D01*
X107418002Y-96042217D01*
X107487500Y-96035023D01*
X107549855Y-96066546D01*
X107566575Y-96085842D01*
X107696500Y-96271395D01*
X107696505Y-96271401D01*
X107863599Y-96438495D01*
X107960384Y-96506265D01*
X108057165Y-96574032D01*
X108057167Y-96574033D01*
X108057170Y-96574035D01*
X108271337Y-96673903D01*
X108499592Y-96735063D01*
X108676034Y-96750500D01*
X108734999Y-96755659D01*
X108735000Y-96755659D01*
X108735001Y-96755659D01*
X108793966Y-96750500D01*
X108970408Y-96735063D01*
X109198663Y-96673903D01*
X109412830Y-96574035D01*
X109606401Y-96438495D01*
X109728329Y-96316566D01*
X109789648Y-96283084D01*
X109859340Y-96288068D01*
X109915274Y-96329939D01*
X109932189Y-96360917D01*
X109981202Y-96492328D01*
X109981206Y-96492335D01*
X110067452Y-96607544D01*
X110067455Y-96607547D01*
X110182664Y-96693793D01*
X110182671Y-96693797D01*
X110317517Y-96744091D01*
X110317516Y-96744091D01*
X110324444Y-96744835D01*
X110377127Y-96750500D01*
X112172872Y-96750499D01*
X112232483Y-96744091D01*
X112367331Y-96693796D01*
X112482546Y-96607546D01*
X112568796Y-96492331D01*
X112619091Y-96357483D01*
X112625500Y-96297873D01*
X112625499Y-94502128D01*
X112619091Y-94442517D01*
X112617810Y-94439083D01*
X112568797Y-94307671D01*
X112568793Y-94307664D01*
X112482547Y-94192455D01*
X112482544Y-94192452D01*
X112367335Y-94106206D01*
X112367328Y-94106202D01*
X112232482Y-94055908D01*
X112232483Y-94055908D01*
X112172883Y-94049501D01*
X112172881Y-94049500D01*
X112172873Y-94049500D01*
X112172864Y-94049500D01*
X110377129Y-94049500D01*
X110377123Y-94049501D01*
X110317516Y-94055908D01*
X110182671Y-94106202D01*
X110182664Y-94106206D01*
X110067455Y-94192452D01*
X110067452Y-94192455D01*
X109981206Y-94307664D01*
X109981203Y-94307669D01*
X109932189Y-94439083D01*
X109890317Y-94495016D01*
X109824853Y-94519433D01*
X109756580Y-94504581D01*
X109728326Y-94483430D01*
X109606402Y-94361506D01*
X109606395Y-94361501D01*
X109412834Y-94225967D01*
X109412830Y-94225965D01*
X109412828Y-94225964D01*
X109198663Y-94126097D01*
X109198659Y-94126096D01*
X109198655Y-94126094D01*
X108970413Y-94064938D01*
X108970403Y-94064936D01*
X108735001Y-94044341D01*
X108734999Y-94044341D01*
X108499596Y-94064936D01*
X108499586Y-94064938D01*
X108271344Y-94126094D01*
X108271335Y-94126098D01*
X108057171Y-94225964D01*
X108057169Y-94225965D01*
X107863597Y-94361505D01*
X107696505Y-94528597D01*
X107566575Y-94714158D01*
X107511998Y-94757783D01*
X107442500Y-94764977D01*
X107380145Y-94733454D01*
X107363425Y-94714158D01*
X107233494Y-94528597D01*
X107066402Y-94361506D01*
X107066395Y-94361501D01*
X106872834Y-94225967D01*
X106872830Y-94225965D01*
X106872828Y-94225964D01*
X106658663Y-94126097D01*
X106658659Y-94126096D01*
X106658655Y-94126094D01*
X106430413Y-94064938D01*
X106430403Y-94064936D01*
X106195001Y-94044341D01*
X106194999Y-94044341D01*
X105959596Y-94064936D01*
X105959586Y-94064938D01*
X105731344Y-94126094D01*
X105731335Y-94126098D01*
X105517171Y-94225964D01*
X105517169Y-94225965D01*
X105323597Y-94361505D01*
X105156505Y-94528597D01*
X105020965Y-94722169D01*
X105020964Y-94722171D01*
X104921098Y-94936335D01*
X104921094Y-94936344D01*
X104859938Y-95164586D01*
X104859936Y-95164596D01*
X104839341Y-95399999D01*
X93725500Y-95399999D01*
X93725500Y-81649999D01*
X104839341Y-81649999D01*
X104839341Y-81650000D01*
X104859936Y-81885403D01*
X104859938Y-81885413D01*
X104921094Y-82113655D01*
X104921096Y-82113659D01*
X104921097Y-82113663D01*
X104988325Y-82257834D01*
X105020965Y-82327830D01*
X105020967Y-82327834D01*
X105107486Y-82451395D01*
X105156505Y-82521401D01*
X105323599Y-82688495D01*
X105409188Y-82748425D01*
X105517165Y-82824032D01*
X105517167Y-82824033D01*
X105517170Y-82824035D01*
X105731337Y-82923903D01*
X105959592Y-82985063D01*
X106136034Y-83000500D01*
X106194999Y-83005659D01*
X106195000Y-83005659D01*
X106195001Y-83005659D01*
X106253966Y-83000500D01*
X106430408Y-82985063D01*
X106658663Y-82923903D01*
X106872830Y-82824035D01*
X107066401Y-82688495D01*
X107233495Y-82521401D01*
X107363425Y-82335842D01*
X107418002Y-82292217D01*
X107487500Y-82285023D01*
X107549855Y-82316546D01*
X107566575Y-82335842D01*
X107696500Y-82521395D01*
X107696505Y-82521401D01*
X107863599Y-82688495D01*
X107949188Y-82748425D01*
X108057165Y-82824032D01*
X108057167Y-82824033D01*
X108057170Y-82824035D01*
X108271337Y-82923903D01*
X108499592Y-82985063D01*
X108676034Y-83000500D01*
X108734999Y-83005659D01*
X108735000Y-83005659D01*
X108735001Y-83005659D01*
X108793966Y-83000500D01*
X108970408Y-82985063D01*
X109198663Y-82923903D01*
X109412830Y-82824035D01*
X109606401Y-82688495D01*
X109728329Y-82566566D01*
X109789648Y-82533084D01*
X109859340Y-82538068D01*
X109915274Y-82579939D01*
X109932189Y-82610917D01*
X109981202Y-82742328D01*
X109981206Y-82742335D01*
X110067452Y-82857544D01*
X110067455Y-82857547D01*
X110182664Y-82943793D01*
X110182671Y-82943797D01*
X110317517Y-82994091D01*
X110317516Y-82994091D01*
X110324444Y-82994835D01*
X110377127Y-83000500D01*
X112172872Y-83000499D01*
X112232483Y-82994091D01*
X112367331Y-82943796D01*
X112482546Y-82857546D01*
X112568796Y-82742331D01*
X112619091Y-82607483D01*
X112625500Y-82547873D01*
X112625499Y-80752128D01*
X112619091Y-80692517D01*
X112617810Y-80689083D01*
X112568797Y-80557671D01*
X112568793Y-80557664D01*
X112482547Y-80442455D01*
X112482544Y-80442452D01*
X112367335Y-80356206D01*
X112367328Y-80356202D01*
X112232482Y-80305908D01*
X112232483Y-80305908D01*
X112172883Y-80299501D01*
X112172881Y-80299500D01*
X112172873Y-80299500D01*
X112172864Y-80299500D01*
X110377129Y-80299500D01*
X110377123Y-80299501D01*
X110317516Y-80305908D01*
X110182671Y-80356202D01*
X110182664Y-80356206D01*
X110067455Y-80442452D01*
X110067452Y-80442455D01*
X109981206Y-80557664D01*
X109981203Y-80557669D01*
X109932189Y-80689083D01*
X109890317Y-80745016D01*
X109824853Y-80769433D01*
X109756580Y-80754581D01*
X109728326Y-80733430D01*
X109606402Y-80611506D01*
X109606395Y-80611501D01*
X109412834Y-80475967D01*
X109412830Y-80475965D01*
X109407091Y-80473289D01*
X109198663Y-80376097D01*
X109198659Y-80376096D01*
X109198655Y-80376094D01*
X108970413Y-80314938D01*
X108970403Y-80314936D01*
X108735001Y-80294341D01*
X108734999Y-80294341D01*
X108499596Y-80314936D01*
X108499586Y-80314938D01*
X108271344Y-80376094D01*
X108271335Y-80376098D01*
X108057171Y-80475964D01*
X108057169Y-80475965D01*
X107863597Y-80611505D01*
X107696505Y-80778597D01*
X107566575Y-80964158D01*
X107511998Y-81007783D01*
X107442500Y-81014977D01*
X107380145Y-80983454D01*
X107363425Y-80964158D01*
X107233494Y-80778597D01*
X107066402Y-80611505D01*
X106994140Y-80560907D01*
X106950515Y-80506330D01*
X106943321Y-80436832D01*
X106974844Y-80374477D01*
X106977509Y-80371725D01*
X107412418Y-79936816D01*
X107473740Y-79903334D01*
X107500098Y-79900500D01*
X115113331Y-79900500D01*
X115113347Y-79900501D01*
X115120943Y-79900501D01*
X115279054Y-79900501D01*
X115279057Y-79900501D01*
X115431785Y-79859577D01*
X115505289Y-79817139D01*
X115568716Y-79780520D01*
X115680520Y-79668716D01*
X115680520Y-79668714D01*
X115690724Y-79658511D01*
X115690728Y-79658506D01*
X116435570Y-78913663D01*
X116496891Y-78880180D01*
X116566583Y-78885164D01*
X116622516Y-78927036D01*
X116646933Y-78992500D01*
X116646777Y-79012153D01*
X116644341Y-79039997D01*
X116644341Y-79040000D01*
X116664936Y-79275403D01*
X116664938Y-79275413D01*
X116726094Y-79503655D01*
X116726096Y-79503659D01*
X116726097Y-79503663D01*
X116798304Y-79658511D01*
X116825965Y-79717830D01*
X116825967Y-79717834D01*
X116900641Y-79824478D01*
X116955856Y-79903334D01*
X116961501Y-79911395D01*
X116961506Y-79911402D01*
X117128597Y-80078493D01*
X117128603Y-80078498D01*
X117314158Y-80208425D01*
X117357783Y-80263002D01*
X117364977Y-80332500D01*
X117333454Y-80394855D01*
X117314158Y-80411575D01*
X117128597Y-80541505D01*
X116961505Y-80708597D01*
X116825965Y-80902169D01*
X116825964Y-80902171D01*
X116726098Y-81116335D01*
X116726094Y-81116344D01*
X116664938Y-81344586D01*
X116664936Y-81344596D01*
X116644341Y-81579999D01*
X116644341Y-81580000D01*
X116664936Y-81815403D01*
X116664938Y-81815413D01*
X116699327Y-81943756D01*
X116697664Y-82013606D01*
X116667233Y-82063530D01*
X115417584Y-83313181D01*
X115356261Y-83346666D01*
X115329903Y-83349500D01*
X107236669Y-83349500D01*
X107236653Y-83349499D01*
X107229057Y-83349499D01*
X107070943Y-83349499D01*
X106963587Y-83378265D01*
X106918210Y-83390424D01*
X106918209Y-83390425D01*
X106868096Y-83419359D01*
X106868095Y-83419360D01*
X106828588Y-83442169D01*
X106781285Y-83469479D01*
X106781282Y-83469481D01*
X105714479Y-84536284D01*
X105704636Y-84553334D01*
X105687126Y-84583663D01*
X105635423Y-84673215D01*
X105594499Y-84825943D01*
X105594499Y-84825945D01*
X105594499Y-84994046D01*
X105594500Y-84994059D01*
X105594500Y-85010908D01*
X105574815Y-85077947D01*
X105522914Y-85123286D01*
X105517173Y-85125963D01*
X105517169Y-85125965D01*
X105323597Y-85261505D01*
X105156505Y-85428597D01*
X105020965Y-85622169D01*
X105020964Y-85622171D01*
X104921098Y-85836335D01*
X104921094Y-85836344D01*
X104859938Y-86064586D01*
X104859936Y-86064596D01*
X104839341Y-86299999D01*
X104839341Y-86300000D01*
X104859936Y-86535403D01*
X104859938Y-86535413D01*
X104921094Y-86763655D01*
X104921096Y-86763659D01*
X104921097Y-86763663D01*
X104925000Y-86772032D01*
X105020965Y-86977830D01*
X105020967Y-86977834D01*
X105123073Y-87123655D01*
X105156505Y-87171401D01*
X105323599Y-87338495D01*
X105420384Y-87406265D01*
X105517165Y-87474032D01*
X105517167Y-87474033D01*
X105517170Y-87474035D01*
X105731337Y-87573903D01*
X105731343Y-87573904D01*
X105731344Y-87573905D01*
X105758891Y-87581286D01*
X105959592Y-87635063D01*
X106136034Y-87650500D01*
X106194999Y-87655659D01*
X106195000Y-87655659D01*
X106195001Y-87655659D01*
X106253966Y-87650500D01*
X106430408Y-87635063D01*
X106658663Y-87573903D01*
X106872830Y-87474035D01*
X107066401Y-87338495D01*
X107233495Y-87171401D01*
X107363425Y-86985842D01*
X107418002Y-86942217D01*
X107487500Y-86935023D01*
X107549855Y-86966546D01*
X107566575Y-86985842D01*
X107696500Y-87171395D01*
X107696505Y-87171401D01*
X107863599Y-87338495D01*
X107960384Y-87406265D01*
X108057165Y-87474032D01*
X108057167Y-87474033D01*
X108057170Y-87474035D01*
X108271337Y-87573903D01*
X108271343Y-87573904D01*
X108271344Y-87573905D01*
X108298891Y-87581286D01*
X108499592Y-87635063D01*
X108676011Y-87650498D01*
X108692858Y-87651972D01*
X108734655Y-87668322D01*
X108753015Y-87656523D01*
X108777142Y-87651972D01*
X108793989Y-87650498D01*
X108970408Y-87635063D01*
X109198663Y-87573903D01*
X109412830Y-87474035D01*
X109606401Y-87338495D01*
X109728329Y-87216566D01*
X109789648Y-87183084D01*
X109859340Y-87188068D01*
X109915274Y-87229939D01*
X109932189Y-87260917D01*
X109981202Y-87392328D01*
X109981206Y-87392335D01*
X110067452Y-87507544D01*
X110067455Y-87507547D01*
X110182664Y-87593793D01*
X110182671Y-87593797D01*
X110317517Y-87644091D01*
X110317516Y-87644091D01*
X110324444Y-87644835D01*
X110377127Y-87650500D01*
X112172872Y-87650499D01*
X112232483Y-87644091D01*
X112367331Y-87593796D01*
X112482546Y-87507546D01*
X112568796Y-87392331D01*
X112619091Y-87257483D01*
X112625500Y-87197873D01*
X112625499Y-85402128D01*
X112619091Y-85342517D01*
X112617810Y-85339083D01*
X112568797Y-85207671D01*
X112568793Y-85207664D01*
X112482547Y-85092455D01*
X112482544Y-85092452D01*
X112367335Y-85006206D01*
X112367328Y-85006202D01*
X112232482Y-84955908D01*
X112232483Y-84955908D01*
X112172883Y-84949501D01*
X112172881Y-84949500D01*
X112172873Y-84949500D01*
X112172864Y-84949500D01*
X110377129Y-84949500D01*
X110377123Y-84949501D01*
X110317516Y-84955908D01*
X110182671Y-85006202D01*
X110182664Y-85006206D01*
X110067455Y-85092452D01*
X110067452Y-85092455D01*
X109981206Y-85207664D01*
X109981203Y-85207669D01*
X109932189Y-85339083D01*
X109890317Y-85395016D01*
X109824853Y-85419433D01*
X109756580Y-85404581D01*
X109728326Y-85383430D01*
X109606402Y-85261506D01*
X109606395Y-85261501D01*
X109412834Y-85125967D01*
X109412830Y-85125965D01*
X109407085Y-85123286D01*
X109198663Y-85026097D01*
X109198659Y-85026096D01*
X109198655Y-85026094D01*
X108970413Y-84964938D01*
X108970403Y-84964936D01*
X108735001Y-84944341D01*
X108734999Y-84944341D01*
X108499596Y-84964936D01*
X108499586Y-84964938D01*
X108271344Y-85026094D01*
X108271337Y-85026096D01*
X108271337Y-85026097D01*
X108259963Y-85031401D01*
X108057171Y-85125964D01*
X108057169Y-85125965D01*
X107863597Y-85261505D01*
X107696505Y-85428597D01*
X107566575Y-85614158D01*
X107511998Y-85657783D01*
X107442500Y-85664977D01*
X107380145Y-85633454D01*
X107363425Y-85614158D01*
X107233494Y-85428597D01*
X107066402Y-85261506D01*
X107066401Y-85261505D01*
X106964730Y-85190314D01*
X106921107Y-85135738D01*
X106913914Y-85066239D01*
X106945436Y-85003885D01*
X106948136Y-85001097D01*
X107362416Y-84586819D01*
X107423739Y-84553334D01*
X107450097Y-84550500D01*
X115543331Y-84550500D01*
X115543347Y-84550501D01*
X115550943Y-84550501D01*
X115709054Y-84550501D01*
X115709057Y-84550501D01*
X115861785Y-84509577D01*
X115911904Y-84480639D01*
X115998716Y-84430520D01*
X116110520Y-84318716D01*
X116110520Y-84318714D01*
X116120728Y-84308507D01*
X116120730Y-84308504D01*
X116435570Y-83993663D01*
X116496891Y-83960180D01*
X116566583Y-83965164D01*
X116622516Y-84007036D01*
X116646933Y-84072500D01*
X116646777Y-84092153D01*
X116644341Y-84119997D01*
X116644341Y-84120000D01*
X116664936Y-84355403D01*
X116664938Y-84355413D01*
X116726094Y-84583655D01*
X116726096Y-84583660D01*
X116726097Y-84583663D01*
X116744750Y-84623664D01*
X116825965Y-84797830D01*
X116825967Y-84797834D01*
X116961501Y-84991395D01*
X116961506Y-84991402D01*
X117128597Y-85158493D01*
X117128603Y-85158498D01*
X117314158Y-85288425D01*
X117357783Y-85343002D01*
X117364977Y-85412500D01*
X117333454Y-85474855D01*
X117314158Y-85491575D01*
X117128597Y-85621505D01*
X116961505Y-85788597D01*
X116825965Y-85982169D01*
X116825964Y-85982171D01*
X116726098Y-86196335D01*
X116726094Y-86196344D01*
X116664938Y-86424586D01*
X116664936Y-86424596D01*
X116644341Y-86659999D01*
X116644341Y-86660000D01*
X116664936Y-86895403D01*
X116664938Y-86895413D01*
X116726094Y-87123655D01*
X116726096Y-87123660D01*
X116726097Y-87123663D01*
X116744746Y-87163655D01*
X116756684Y-87189257D01*
X116767175Y-87258335D01*
X116738655Y-87322118D01*
X116680178Y-87360358D01*
X116676407Y-87361432D01*
X116568216Y-87390423D01*
X116568215Y-87390423D01*
X116568213Y-87390424D01*
X116568209Y-87390426D01*
X116431290Y-87469475D01*
X116431282Y-87469481D01*
X116329369Y-87571395D01*
X116319480Y-87581284D01*
X116319478Y-87581286D01*
X116162267Y-87738498D01*
X116037584Y-87863181D01*
X115976261Y-87896666D01*
X115949903Y-87899500D01*
X108787950Y-87899500D01*
X108732714Y-87883280D01*
X108706482Y-87897069D01*
X108682050Y-87899500D01*
X107086669Y-87899500D01*
X107086653Y-87899499D01*
X107079057Y-87899499D01*
X106920943Y-87899499D01*
X106806397Y-87930192D01*
X106768214Y-87940423D01*
X106723747Y-87966097D01*
X106723746Y-87966097D01*
X106631287Y-88019477D01*
X106631282Y-88019481D01*
X105714481Y-88936282D01*
X105714477Y-88936287D01*
X105698134Y-88964596D01*
X105688941Y-88980520D01*
X105635423Y-89073215D01*
X105594499Y-89225943D01*
X105594499Y-89225945D01*
X105594499Y-89394046D01*
X105594500Y-89394059D01*
X105594500Y-89610908D01*
X105574815Y-89677947D01*
X105522914Y-89723286D01*
X105517173Y-89725963D01*
X105517169Y-89725965D01*
X105323597Y-89861505D01*
X105156505Y-90028597D01*
X105020965Y-90222169D01*
X105020964Y-90222171D01*
X104921098Y-90436335D01*
X104921094Y-90436344D01*
X104859938Y-90664586D01*
X104859936Y-90664596D01*
X104839341Y-90899999D01*
X104839341Y-90900000D01*
X104859936Y-91135403D01*
X104859938Y-91135413D01*
X104921094Y-91363655D01*
X104921096Y-91363659D01*
X104921097Y-91363663D01*
X105001004Y-91535023D01*
X105020965Y-91577830D01*
X105020967Y-91577834D01*
X105129281Y-91732521D01*
X105156505Y-91771401D01*
X105323599Y-91938495D01*
X105420384Y-92006265D01*
X105517165Y-92074032D01*
X105517167Y-92074033D01*
X105517170Y-92074035D01*
X105731337Y-92173903D01*
X105959592Y-92235063D01*
X106136034Y-92250500D01*
X106194999Y-92255659D01*
X106195000Y-92255659D01*
X106195001Y-92255659D01*
X106253966Y-92250500D01*
X106430408Y-92235063D01*
X106658663Y-92173903D01*
X106872830Y-92074035D01*
X107066401Y-91938495D01*
X107233495Y-91771401D01*
X107363425Y-91585842D01*
X107418002Y-91542217D01*
X107487500Y-91535023D01*
X107549855Y-91566546D01*
X107566575Y-91585842D01*
X107696500Y-91771395D01*
X107696505Y-91771401D01*
X107863599Y-91938495D01*
X107960384Y-92006265D01*
X108057165Y-92074032D01*
X108057167Y-92074033D01*
X108057170Y-92074035D01*
X108271337Y-92173903D01*
X108499592Y-92235063D01*
X108676034Y-92250500D01*
X108734999Y-92255659D01*
X108735000Y-92255659D01*
X108735001Y-92255659D01*
X108793966Y-92250500D01*
X108970408Y-92235063D01*
X109198663Y-92173903D01*
X109412830Y-92074035D01*
X109606401Y-91938495D01*
X109728329Y-91816566D01*
X109789648Y-91783084D01*
X109859340Y-91788068D01*
X109915274Y-91829939D01*
X109932189Y-91860917D01*
X109981202Y-91992328D01*
X109981206Y-91992335D01*
X110067452Y-92107544D01*
X110067455Y-92107547D01*
X110182664Y-92193793D01*
X110182671Y-92193797D01*
X110317517Y-92244091D01*
X110317516Y-92244091D01*
X110324444Y-92244835D01*
X110377127Y-92250500D01*
X112172872Y-92250499D01*
X112232483Y-92244091D01*
X112367331Y-92193796D01*
X112482546Y-92107546D01*
X112568796Y-91992331D01*
X112619091Y-91857483D01*
X112625500Y-91797873D01*
X112625499Y-90002128D01*
X112619091Y-89942517D01*
X112617810Y-89939083D01*
X112568797Y-89807671D01*
X112568793Y-89807664D01*
X112482547Y-89692455D01*
X112482544Y-89692452D01*
X112367335Y-89606206D01*
X112367328Y-89606202D01*
X112232482Y-89555908D01*
X112232483Y-89555908D01*
X112172883Y-89549501D01*
X112172881Y-89549500D01*
X112172873Y-89549500D01*
X112172864Y-89549500D01*
X110377129Y-89549500D01*
X110377123Y-89549501D01*
X110317516Y-89555908D01*
X110182671Y-89606202D01*
X110182664Y-89606206D01*
X110067455Y-89692452D01*
X110067452Y-89692455D01*
X109981206Y-89807664D01*
X109981203Y-89807669D01*
X109932189Y-89939083D01*
X109890317Y-89995016D01*
X109824853Y-90019433D01*
X109756580Y-90004581D01*
X109728326Y-89983430D01*
X109606402Y-89861506D01*
X109606395Y-89861501D01*
X109412834Y-89725967D01*
X109412830Y-89725965D01*
X109364986Y-89703655D01*
X109198663Y-89626097D01*
X109198659Y-89626096D01*
X109198655Y-89626094D01*
X108970413Y-89564938D01*
X108970403Y-89564936D01*
X108735001Y-89544341D01*
X108734999Y-89544341D01*
X108499596Y-89564936D01*
X108499586Y-89564938D01*
X108271344Y-89626094D01*
X108271335Y-89626098D01*
X108057171Y-89725964D01*
X108057169Y-89725965D01*
X107863597Y-89861505D01*
X107696505Y-90028597D01*
X107566575Y-90214158D01*
X107511998Y-90257783D01*
X107442500Y-90264977D01*
X107380145Y-90233454D01*
X107363425Y-90214158D01*
X107233494Y-90028597D01*
X107066402Y-89861506D01*
X107066395Y-89861501D01*
X106872831Y-89725965D01*
X106872826Y-89725962D01*
X106867091Y-89723288D01*
X106814653Y-89677113D01*
X106795500Y-89610908D01*
X106795500Y-89605097D01*
X106815185Y-89538058D01*
X106831819Y-89517416D01*
X107212416Y-89136819D01*
X107273739Y-89103334D01*
X107300097Y-89100500D01*
X116163331Y-89100500D01*
X116163347Y-89100501D01*
X116170943Y-89100501D01*
X116329054Y-89100501D01*
X116329057Y-89100501D01*
X116481785Y-89059577D01*
X116481786Y-89059576D01*
X116489636Y-89057473D01*
X116490563Y-89060933D01*
X116543623Y-89055117D01*
X116606168Y-89086262D01*
X116641946Y-89146276D01*
X116645391Y-89187995D01*
X116644341Y-89200001D01*
X116664936Y-89435403D01*
X116664938Y-89435413D01*
X116726094Y-89663655D01*
X116726096Y-89663659D01*
X116726097Y-89663663D01*
X116744750Y-89703664D01*
X116825965Y-89877830D01*
X116825967Y-89877834D01*
X116961501Y-90071395D01*
X116961506Y-90071402D01*
X117128597Y-90238493D01*
X117128603Y-90238498D01*
X117314158Y-90368425D01*
X117357783Y-90423002D01*
X117364977Y-90492500D01*
X117333454Y-90554855D01*
X117314158Y-90571575D01*
X117128597Y-90701505D01*
X116961505Y-90868597D01*
X116825965Y-91062169D01*
X116825964Y-91062171D01*
X116726098Y-91276335D01*
X116726094Y-91276344D01*
X116664938Y-91504586D01*
X116664936Y-91504596D01*
X116644341Y-91739999D01*
X116644341Y-91740000D01*
X116664936Y-91975403D01*
X116664938Y-91975413D01*
X116726094Y-92203655D01*
X116726096Y-92203659D01*
X116726097Y-92203663D01*
X116825965Y-92417830D01*
X116825967Y-92417834D01*
X116961501Y-92611395D01*
X116961506Y-92611402D01*
X117128597Y-92778493D01*
X117128603Y-92778498D01*
X117314158Y-92908425D01*
X117357783Y-92963002D01*
X117364977Y-93032500D01*
X117333454Y-93094855D01*
X117314158Y-93111575D01*
X117128597Y-93241505D01*
X116961505Y-93408597D01*
X116825965Y-93602169D01*
X116825964Y-93602171D01*
X116726098Y-93816335D01*
X116726094Y-93816344D01*
X116664938Y-94044586D01*
X116664936Y-94044596D01*
X116644341Y-94279999D01*
X116644341Y-94280000D01*
X116664936Y-94515403D01*
X116664938Y-94515413D01*
X116726094Y-94743655D01*
X116726096Y-94743659D01*
X116726097Y-94743663D01*
X116744750Y-94783664D01*
X116825965Y-94957830D01*
X116825967Y-94957834D01*
X116961501Y-95151395D01*
X116961506Y-95151402D01*
X117128597Y-95318493D01*
X117128603Y-95318498D01*
X117314158Y-95448425D01*
X117357783Y-95503002D01*
X117364977Y-95572500D01*
X117333454Y-95634855D01*
X117314158Y-95651575D01*
X117128597Y-95781505D01*
X116961505Y-95948597D01*
X116825965Y-96142169D01*
X116825964Y-96142171D01*
X116726098Y-96356335D01*
X116726094Y-96356344D01*
X116664938Y-96584586D01*
X116664936Y-96584596D01*
X116644341Y-96819999D01*
X116644341Y-96820000D01*
X116664936Y-97055403D01*
X116664938Y-97055413D01*
X116726094Y-97283655D01*
X116726096Y-97283659D01*
X116726097Y-97283663D01*
X116744750Y-97323664D01*
X116825965Y-97497830D01*
X116825967Y-97497834D01*
X116961501Y-97691395D01*
X116961506Y-97691402D01*
X117128597Y-97858493D01*
X117128603Y-97858498D01*
X117314158Y-97988425D01*
X117357783Y-98043002D01*
X117364977Y-98112500D01*
X117333454Y-98174855D01*
X117314158Y-98191575D01*
X117128597Y-98321505D01*
X116961505Y-98488597D01*
X116825965Y-98682169D01*
X116825964Y-98682171D01*
X116726098Y-98896335D01*
X116726094Y-98896344D01*
X116664938Y-99124586D01*
X116664936Y-99124596D01*
X116644341Y-99359999D01*
X116644341Y-99360000D01*
X116664936Y-99595403D01*
X116664938Y-99595413D01*
X116726094Y-99823655D01*
X116726096Y-99823659D01*
X116726097Y-99823663D01*
X116825965Y-100037830D01*
X116825967Y-100037834D01*
X116961501Y-100231395D01*
X116961506Y-100231402D01*
X117128597Y-100398493D01*
X117128603Y-100398498D01*
X117314158Y-100528425D01*
X117357783Y-100583002D01*
X117364977Y-100652500D01*
X117333454Y-100714855D01*
X117314158Y-100731575D01*
X117128597Y-100861505D01*
X116961505Y-101028597D01*
X116825965Y-101222169D01*
X116825964Y-101222171D01*
X116726098Y-101436335D01*
X116726094Y-101436344D01*
X116664938Y-101664586D01*
X116664936Y-101664596D01*
X116644341Y-101899999D01*
X116644341Y-101900000D01*
X116664936Y-102135403D01*
X116664938Y-102135413D01*
X116726094Y-102363655D01*
X116726096Y-102363659D01*
X116726097Y-102363663D01*
X116744750Y-102403664D01*
X116825965Y-102577830D01*
X116825967Y-102577834D01*
X116961501Y-102771395D01*
X116961506Y-102771402D01*
X117128597Y-102938493D01*
X117128603Y-102938498D01*
X117314158Y-103068425D01*
X117357783Y-103123002D01*
X117364977Y-103192500D01*
X117333454Y-103254855D01*
X117314158Y-103271575D01*
X117128597Y-103401505D01*
X116961505Y-103568597D01*
X116825965Y-103762169D01*
X116825964Y-103762171D01*
X116726098Y-103976335D01*
X116726094Y-103976344D01*
X116664938Y-104204586D01*
X116664936Y-104204596D01*
X116644341Y-104439999D01*
X116644341Y-104440000D01*
X116664936Y-104675403D01*
X116664938Y-104675413D01*
X116726094Y-104903655D01*
X116726096Y-104903659D01*
X116726097Y-104903663D01*
X116744750Y-104943664D01*
X116825965Y-105117830D01*
X116825967Y-105117834D01*
X116961501Y-105311395D01*
X116961506Y-105311402D01*
X117128597Y-105478493D01*
X117128603Y-105478498D01*
X117314158Y-105608425D01*
X117357783Y-105663002D01*
X117364977Y-105732500D01*
X117333454Y-105794855D01*
X117314158Y-105811575D01*
X117128597Y-105941505D01*
X116961505Y-106108597D01*
X116825965Y-106302169D01*
X116825964Y-106302171D01*
X116726098Y-106516335D01*
X116726094Y-106516344D01*
X116664938Y-106744586D01*
X116664936Y-106744596D01*
X116644341Y-106979999D01*
X116644341Y-106980000D01*
X116664936Y-107215403D01*
X116664938Y-107215413D01*
X116726094Y-107443655D01*
X116726096Y-107443659D01*
X116726097Y-107443663D01*
X116744750Y-107483664D01*
X116825965Y-107657830D01*
X116825967Y-107657834D01*
X116838873Y-107676265D01*
X116957680Y-107845939D01*
X116961501Y-107851395D01*
X116961506Y-107851402D01*
X117128597Y-108018493D01*
X117128603Y-108018498D01*
X117314158Y-108148425D01*
X117357783Y-108203002D01*
X117364977Y-108272500D01*
X117333454Y-108334855D01*
X117314158Y-108351575D01*
X117128597Y-108481505D01*
X116961505Y-108648597D01*
X116825965Y-108842169D01*
X116825964Y-108842171D01*
X116726098Y-109056335D01*
X116726094Y-109056344D01*
X116664938Y-109284586D01*
X116664936Y-109284596D01*
X116644341Y-109519999D01*
X116644341Y-109520000D01*
X116664936Y-109755403D01*
X116664938Y-109755413D01*
X116726094Y-109983655D01*
X116726096Y-109983659D01*
X116726097Y-109983663D01*
X116744750Y-110023664D01*
X116825965Y-110197830D01*
X116825967Y-110197834D01*
X116961501Y-110391395D01*
X116961506Y-110391402D01*
X117128597Y-110558493D01*
X117128603Y-110558498D01*
X117314158Y-110688425D01*
X117357783Y-110743002D01*
X117364977Y-110812500D01*
X117333454Y-110874855D01*
X117314158Y-110891575D01*
X117128597Y-111021505D01*
X116961505Y-111188597D01*
X116825965Y-111382169D01*
X116825964Y-111382171D01*
X116726098Y-111596335D01*
X116726094Y-111596344D01*
X116664938Y-111824586D01*
X116664936Y-111824596D01*
X116644341Y-112059999D01*
X116644341Y-112060000D01*
X116664936Y-112295403D01*
X116664938Y-112295413D01*
X116726094Y-112523655D01*
X116726096Y-112523659D01*
X116726097Y-112523663D01*
X116744750Y-112563664D01*
X116825965Y-112737830D01*
X116825967Y-112737834D01*
X116961501Y-112931395D01*
X116961506Y-112931402D01*
X117128597Y-113098493D01*
X117128603Y-113098498D01*
X117314158Y-113228425D01*
X117357783Y-113283002D01*
X117364977Y-113352500D01*
X117333454Y-113414855D01*
X117314158Y-113431575D01*
X117128597Y-113561505D01*
X116961505Y-113728597D01*
X116825965Y-113922169D01*
X116825964Y-113922171D01*
X116726098Y-114136335D01*
X116726094Y-114136344D01*
X116664938Y-114364586D01*
X116664936Y-114364596D01*
X116644341Y-114599999D01*
X116644341Y-114600000D01*
X116664936Y-114835403D01*
X116664938Y-114835413D01*
X116726094Y-115063655D01*
X116726096Y-115063659D01*
X116726097Y-115063663D01*
X116803906Y-115230524D01*
X116825965Y-115277830D01*
X116825967Y-115277834D01*
X116961501Y-115471395D01*
X116961506Y-115471402D01*
X117128597Y-115638493D01*
X117128603Y-115638498D01*
X117314594Y-115768730D01*
X117358219Y-115823307D01*
X117365413Y-115892805D01*
X117333890Y-115955160D01*
X117314595Y-115971880D01*
X117128922Y-116101890D01*
X117128920Y-116101891D01*
X116961891Y-116268920D01*
X116961886Y-116268926D01*
X116826400Y-116462420D01*
X116826399Y-116462422D01*
X116726570Y-116676507D01*
X116726567Y-116676513D01*
X116669364Y-116889999D01*
X116669364Y-116890000D01*
X117566988Y-116890000D01*
X117534075Y-116947007D01*
X117500000Y-117074174D01*
X117500000Y-117205826D01*
X117534075Y-117332993D01*
X117566988Y-117390000D01*
X116669364Y-117390000D01*
X116726567Y-117603486D01*
X116726570Y-117603492D01*
X116826399Y-117817578D01*
X116961894Y-118011082D01*
X117128917Y-118178105D01*
X117322421Y-118313600D01*
X117536507Y-118413429D01*
X117536516Y-118413433D01*
X117750000Y-118470634D01*
X117750000Y-117573012D01*
X117807007Y-117605925D01*
X117934174Y-117640000D01*
X118065826Y-117640000D01*
X118192993Y-117605925D01*
X118250000Y-117573012D01*
X118250000Y-118470633D01*
X118463483Y-118413433D01*
X118463492Y-118413429D01*
X118677578Y-118313600D01*
X118871082Y-118178105D01*
X119038105Y-118011082D01*
X119173600Y-117817578D01*
X119273429Y-117603492D01*
X119273432Y-117603486D01*
X119330636Y-117390000D01*
X118433012Y-117390000D01*
X118465925Y-117332993D01*
X118500000Y-117205826D01*
X118500000Y-117074174D01*
X118465925Y-116947007D01*
X118433012Y-116890000D01*
X119330636Y-116890000D01*
X119330635Y-116889999D01*
X119273432Y-116676513D01*
X119273429Y-116676507D01*
X119173600Y-116462422D01*
X119173599Y-116462420D01*
X119038113Y-116268926D01*
X119038108Y-116268920D01*
X118871078Y-116101890D01*
X118685405Y-115971879D01*
X118641780Y-115917302D01*
X118634588Y-115847804D01*
X118666110Y-115785449D01*
X118685406Y-115768730D01*
X118712091Y-115750045D01*
X118871401Y-115638495D01*
X119038495Y-115471401D01*
X119174035Y-115277830D01*
X119273903Y-115063663D01*
X119335063Y-114835408D01*
X119355659Y-114600000D01*
X119335063Y-114364592D01*
X119273903Y-114136337D01*
X119174035Y-113922171D01*
X119071869Y-113776261D01*
X119038494Y-113728597D01*
X118871402Y-113561506D01*
X118871396Y-113561501D01*
X118685842Y-113431575D01*
X118642217Y-113376998D01*
X118635023Y-113307500D01*
X118666546Y-113245145D01*
X118685842Y-113228425D01*
X118756394Y-113179024D01*
X118871401Y-113098495D01*
X119038495Y-112931401D01*
X119174035Y-112737830D01*
X119273903Y-112523663D01*
X119335063Y-112295408D01*
X119355659Y-112060000D01*
X119335063Y-111824592D01*
X119273903Y-111596337D01*
X119174035Y-111382171D01*
X119089094Y-111260861D01*
X119038494Y-111188597D01*
X118871402Y-111021506D01*
X118871396Y-111021501D01*
X118685842Y-110891575D01*
X118642217Y-110836998D01*
X118635023Y-110767500D01*
X118666546Y-110705145D01*
X118685842Y-110688425D01*
X118708026Y-110672891D01*
X118871401Y-110558495D01*
X119038495Y-110391401D01*
X119174035Y-110197830D01*
X119273903Y-109983663D01*
X119335063Y-109755408D01*
X119355659Y-109520000D01*
X119335063Y-109284592D01*
X119273903Y-109056337D01*
X119174035Y-108842171D01*
X119066504Y-108688599D01*
X119038494Y-108648597D01*
X118871402Y-108481506D01*
X118871396Y-108481501D01*
X118685842Y-108351575D01*
X118642217Y-108296998D01*
X118635023Y-108227500D01*
X118666546Y-108165145D01*
X118685842Y-108148425D01*
X118708026Y-108132891D01*
X118871401Y-108018495D01*
X119038495Y-107851401D01*
X119174035Y-107657830D01*
X119273903Y-107443663D01*
X119335063Y-107215408D01*
X119355659Y-106980000D01*
X119335063Y-106744592D01*
X119273903Y-106516337D01*
X119174035Y-106302171D01*
X119066504Y-106148599D01*
X119038494Y-106108597D01*
X118871402Y-105941506D01*
X118871396Y-105941501D01*
X118685842Y-105811575D01*
X118642217Y-105756998D01*
X118635023Y-105687500D01*
X118666546Y-105625145D01*
X118685842Y-105608425D01*
X118708026Y-105592891D01*
X118871401Y-105478495D01*
X119038495Y-105311401D01*
X119174035Y-105117830D01*
X119273903Y-104903663D01*
X119335063Y-104675408D01*
X119355659Y-104440000D01*
X119335063Y-104204592D01*
X119273903Y-103976337D01*
X119174035Y-103762171D01*
X119066504Y-103608599D01*
X119038494Y-103568597D01*
X118871402Y-103401506D01*
X118871396Y-103401501D01*
X118685842Y-103271575D01*
X118642217Y-103216998D01*
X118635023Y-103147500D01*
X118666546Y-103085145D01*
X118685842Y-103068425D01*
X118708026Y-103052891D01*
X118871401Y-102938495D01*
X119038495Y-102771401D01*
X119174035Y-102577830D01*
X119273903Y-102363663D01*
X119335063Y-102135408D01*
X119355659Y-101900000D01*
X119335063Y-101664592D01*
X119273903Y-101436337D01*
X119174035Y-101222171D01*
X119163796Y-101207547D01*
X119038494Y-101028597D01*
X118871402Y-100861506D01*
X118871396Y-100861501D01*
X118685842Y-100731575D01*
X118642217Y-100676998D01*
X118635023Y-100607500D01*
X118666546Y-100545145D01*
X118685842Y-100528425D01*
X118775101Y-100465925D01*
X118871401Y-100398495D01*
X119038495Y-100231401D01*
X119174035Y-100037830D01*
X119273903Y-99823663D01*
X119335063Y-99595408D01*
X119355659Y-99360000D01*
X119335063Y-99124592D01*
X119273903Y-98896337D01*
X119174035Y-98682171D01*
X119165068Y-98669364D01*
X119038494Y-98488597D01*
X118871402Y-98321506D01*
X118871396Y-98321501D01*
X118685842Y-98191575D01*
X118642217Y-98136998D01*
X118635023Y-98067500D01*
X118666546Y-98005145D01*
X118685842Y-97988425D01*
X118708026Y-97972891D01*
X118871401Y-97858495D01*
X119038495Y-97691401D01*
X119174035Y-97497830D01*
X119273903Y-97283663D01*
X119335063Y-97055408D01*
X119355659Y-96820000D01*
X119335063Y-96584592D01*
X119273903Y-96356337D01*
X119174035Y-96142171D01*
X119134594Y-96085842D01*
X119038494Y-95948597D01*
X118871402Y-95781506D01*
X118871396Y-95781501D01*
X118685842Y-95651575D01*
X118642217Y-95596998D01*
X118635023Y-95527500D01*
X118666546Y-95465145D01*
X118685842Y-95448425D01*
X118755001Y-95399999D01*
X118871401Y-95318495D01*
X119038495Y-95151401D01*
X119174035Y-94957830D01*
X119273903Y-94743663D01*
X119335063Y-94515408D01*
X119355659Y-94280000D01*
X119335063Y-94044592D01*
X119273903Y-93816337D01*
X119174035Y-93602171D01*
X119066504Y-93448599D01*
X119038494Y-93408597D01*
X118871402Y-93241506D01*
X118871396Y-93241501D01*
X118685842Y-93111575D01*
X118642217Y-93056998D01*
X118635023Y-92987500D01*
X118666546Y-92925145D01*
X118685842Y-92908425D01*
X118708026Y-92892891D01*
X118871401Y-92778495D01*
X119038495Y-92611401D01*
X119174035Y-92417830D01*
X119273903Y-92203663D01*
X119335063Y-91975408D01*
X119355659Y-91740000D01*
X119335063Y-91504592D01*
X119273903Y-91276337D01*
X119174035Y-91062171D01*
X119066504Y-90908599D01*
X119038494Y-90868597D01*
X118871402Y-90701506D01*
X118871396Y-90701501D01*
X118685842Y-90571575D01*
X118642217Y-90516998D01*
X118635023Y-90447500D01*
X118666546Y-90385145D01*
X118685842Y-90368425D01*
X118708026Y-90352891D01*
X118871401Y-90238495D01*
X119038495Y-90071401D01*
X119174035Y-89877830D01*
X119273903Y-89663663D01*
X119335063Y-89435408D01*
X119355659Y-89200000D01*
X119335063Y-88964592D01*
X119273903Y-88736337D01*
X119273901Y-88736334D01*
X119273900Y-88736329D01*
X119269504Y-88726902D01*
X119259013Y-88657825D01*
X119287535Y-88594041D01*
X119346012Y-88555803D01*
X119381887Y-88550500D01*
X122463331Y-88550500D01*
X122463347Y-88550501D01*
X122470943Y-88550501D01*
X122629054Y-88550501D01*
X122629057Y-88550501D01*
X122781785Y-88509577D01*
X122862699Y-88462861D01*
X122918716Y-88430520D01*
X123030520Y-88318716D01*
X123030520Y-88318714D01*
X123040724Y-88308511D01*
X123040727Y-88308506D01*
X131632416Y-79716819D01*
X131693739Y-79683334D01*
X131720097Y-79680500D01*
X139510909Y-79680500D01*
X139577948Y-79700185D01*
X139623292Y-79752097D01*
X139625965Y-79757830D01*
X139750919Y-79936282D01*
X139761501Y-79951395D01*
X139761506Y-79951402D01*
X139928597Y-80118493D01*
X139928603Y-80118498D01*
X140114158Y-80248425D01*
X140157783Y-80303002D01*
X140164977Y-80372500D01*
X140133454Y-80434855D01*
X140114158Y-80451575D01*
X139928597Y-80581505D01*
X139761505Y-80748597D01*
X139625965Y-80942169D01*
X139625964Y-80942171D01*
X139526098Y-81156335D01*
X139526094Y-81156344D01*
X139464938Y-81384586D01*
X139464936Y-81384596D01*
X139444341Y-81619999D01*
X139444341Y-81620000D01*
X139464936Y-81855403D01*
X139464938Y-81855413D01*
X139526094Y-82083655D01*
X139526096Y-82083659D01*
X139526097Y-82083663D01*
X139540087Y-82113664D01*
X139625965Y-82297830D01*
X139625967Y-82297834D01*
X139761501Y-82491395D01*
X139761506Y-82491402D01*
X139928597Y-82658493D01*
X139928603Y-82658498D01*
X140114158Y-82788425D01*
X140157783Y-82843002D01*
X140164977Y-82912500D01*
X140133454Y-82974855D01*
X140114158Y-82991575D01*
X139928597Y-83121505D01*
X139761505Y-83288597D01*
X139625965Y-83482169D01*
X139625964Y-83482171D01*
X139526098Y-83696335D01*
X139526094Y-83696344D01*
X139464938Y-83924586D01*
X139464936Y-83924596D01*
X139444341Y-84159999D01*
X139444341Y-84160000D01*
X139464936Y-84395403D01*
X139464938Y-84395413D01*
X139526094Y-84623655D01*
X139526096Y-84623659D01*
X139526097Y-84623663D01*
X139549203Y-84673213D01*
X139625965Y-84837830D01*
X139625967Y-84837834D01*
X139700545Y-84944341D01*
X139743860Y-85006202D01*
X139761501Y-85031395D01*
X139761506Y-85031402D01*
X139928597Y-85198493D01*
X139928603Y-85198498D01*
X140114158Y-85328425D01*
X140157783Y-85383002D01*
X140164977Y-85452500D01*
X140133454Y-85514855D01*
X140114158Y-85531575D01*
X139928597Y-85661505D01*
X139761505Y-85828597D01*
X139625965Y-86022169D01*
X139625964Y-86022171D01*
X139526098Y-86236335D01*
X139526094Y-86236344D01*
X139464938Y-86464586D01*
X139464936Y-86464596D01*
X139444341Y-86699999D01*
X139444341Y-86700000D01*
X139464936Y-86935403D01*
X139464938Y-86935413D01*
X139526094Y-87163655D01*
X139526096Y-87163659D01*
X139526097Y-87163663D01*
X139617818Y-87360358D01*
X139625965Y-87377830D01*
X139625967Y-87377834D01*
X139761501Y-87571395D01*
X139761506Y-87571402D01*
X139928597Y-87738493D01*
X139928603Y-87738498D01*
X140114158Y-87868425D01*
X140157783Y-87923002D01*
X140164977Y-87992500D01*
X140133454Y-88054855D01*
X140114158Y-88071575D01*
X139928597Y-88201505D01*
X139761505Y-88368597D01*
X139625965Y-88562169D01*
X139625964Y-88562171D01*
X139526098Y-88776335D01*
X139526094Y-88776344D01*
X139464938Y-89004586D01*
X139464936Y-89004596D01*
X139444341Y-89239999D01*
X139444341Y-89240000D01*
X139464936Y-89475403D01*
X139464938Y-89475413D01*
X139526094Y-89703655D01*
X139526096Y-89703659D01*
X139526097Y-89703663D01*
X139536497Y-89725965D01*
X139625965Y-89917830D01*
X139625967Y-89917834D01*
X139761501Y-90111395D01*
X139761506Y-90111402D01*
X139928597Y-90278493D01*
X139928603Y-90278498D01*
X140114158Y-90408425D01*
X140157783Y-90463002D01*
X140164977Y-90532500D01*
X140133454Y-90594855D01*
X140114158Y-90611575D01*
X139928597Y-90741505D01*
X139761505Y-90908597D01*
X139625965Y-91102169D01*
X139625964Y-91102171D01*
X139526098Y-91316335D01*
X139526094Y-91316344D01*
X139464938Y-91544586D01*
X139464936Y-91544596D01*
X139444341Y-91779999D01*
X139444341Y-91780000D01*
X139464936Y-92015403D01*
X139464938Y-92015413D01*
X139526094Y-92243655D01*
X139526096Y-92243659D01*
X139526097Y-92243663D01*
X139531691Y-92255659D01*
X139625965Y-92457830D01*
X139625967Y-92457834D01*
X139761501Y-92651395D01*
X139761506Y-92651402D01*
X139928597Y-92818493D01*
X139928603Y-92818498D01*
X140114158Y-92948425D01*
X140157783Y-93003002D01*
X140164977Y-93072500D01*
X140133454Y-93134855D01*
X140114158Y-93151575D01*
X139928597Y-93281505D01*
X139761505Y-93448597D01*
X139625965Y-93642169D01*
X139625964Y-93642171D01*
X139526098Y-93856335D01*
X139526094Y-93856344D01*
X139464938Y-94084586D01*
X139464936Y-94084596D01*
X139444341Y-94319999D01*
X139444341Y-94320000D01*
X139464936Y-94555403D01*
X139464938Y-94555413D01*
X139526094Y-94783655D01*
X139526096Y-94783659D01*
X139526097Y-94783663D01*
X139593387Y-94927967D01*
X139625965Y-94997830D01*
X139625967Y-94997834D01*
X139761501Y-95191395D01*
X139761506Y-95191402D01*
X139928597Y-95358493D01*
X139928603Y-95358498D01*
X140114158Y-95488425D01*
X140157783Y-95543002D01*
X140164977Y-95612500D01*
X140133454Y-95674855D01*
X140114158Y-95691575D01*
X139928597Y-95821505D01*
X139761505Y-95988597D01*
X139625965Y-96182169D01*
X139625964Y-96182171D01*
X139526098Y-96396335D01*
X139526094Y-96396344D01*
X139464938Y-96624586D01*
X139464936Y-96624596D01*
X139444341Y-96859999D01*
X139444341Y-96860000D01*
X139464936Y-97095403D01*
X139464938Y-97095413D01*
X139526094Y-97323655D01*
X139526096Y-97323659D01*
X139526097Y-97323663D01*
X139607313Y-97497830D01*
X139625965Y-97537830D01*
X139625967Y-97537834D01*
X139761501Y-97731395D01*
X139761506Y-97731402D01*
X139928597Y-97898493D01*
X139928603Y-97898498D01*
X140114158Y-98028425D01*
X140157783Y-98083002D01*
X140164977Y-98152500D01*
X140133454Y-98214855D01*
X140114158Y-98231575D01*
X139928597Y-98361505D01*
X139761505Y-98528597D01*
X139625965Y-98722169D01*
X139625964Y-98722171D01*
X139526098Y-98936335D01*
X139526094Y-98936344D01*
X139464938Y-99164586D01*
X139464936Y-99164596D01*
X139444341Y-99399999D01*
X139444341Y-99400000D01*
X139464936Y-99635403D01*
X139464938Y-99635413D01*
X139526094Y-99863655D01*
X139526096Y-99863659D01*
X139526097Y-99863663D01*
X139558977Y-99934174D01*
X139625965Y-100077830D01*
X139625967Y-100077834D01*
X139761501Y-100271395D01*
X139761506Y-100271402D01*
X139928597Y-100438493D01*
X139928603Y-100438498D01*
X140114158Y-100568425D01*
X140157783Y-100623002D01*
X140164977Y-100692500D01*
X140133454Y-100754855D01*
X140114158Y-100771575D01*
X139928597Y-100901505D01*
X139761505Y-101068597D01*
X139625965Y-101262169D01*
X139625964Y-101262171D01*
X139526098Y-101476335D01*
X139526094Y-101476344D01*
X139464938Y-101704586D01*
X139464936Y-101704596D01*
X139444341Y-101939999D01*
X139444341Y-101940000D01*
X139464936Y-102175403D01*
X139464938Y-102175413D01*
X139526094Y-102403655D01*
X139526096Y-102403659D01*
X139526097Y-102403663D01*
X139607313Y-102577830D01*
X139625965Y-102617830D01*
X139625967Y-102617834D01*
X139761501Y-102811395D01*
X139761506Y-102811402D01*
X139928597Y-102978493D01*
X139928603Y-102978498D01*
X140114158Y-103108425D01*
X140157783Y-103163002D01*
X140164977Y-103232500D01*
X140133454Y-103294855D01*
X140114158Y-103311575D01*
X139928597Y-103441505D01*
X139761505Y-103608597D01*
X139625965Y-103802169D01*
X139625964Y-103802171D01*
X139526098Y-104016335D01*
X139526094Y-104016344D01*
X139464938Y-104244586D01*
X139464936Y-104244596D01*
X139444341Y-104479999D01*
X139444341Y-104480000D01*
X139464936Y-104715403D01*
X139464938Y-104715413D01*
X139526094Y-104943655D01*
X139526096Y-104943659D01*
X139526097Y-104943663D01*
X139607313Y-105117830D01*
X139625965Y-105157830D01*
X139625967Y-105157834D01*
X139761501Y-105351395D01*
X139761506Y-105351402D01*
X139928597Y-105518493D01*
X139928603Y-105518498D01*
X140114158Y-105648425D01*
X140157783Y-105703002D01*
X140164977Y-105772500D01*
X140133454Y-105834855D01*
X140114158Y-105851575D01*
X139928597Y-105981505D01*
X139761505Y-106148597D01*
X139625965Y-106342169D01*
X139625964Y-106342171D01*
X139526098Y-106556335D01*
X139526094Y-106556344D01*
X139464938Y-106784586D01*
X139464936Y-106784596D01*
X139444341Y-107019999D01*
X139444341Y-107020000D01*
X139464936Y-107255403D01*
X139464938Y-107255413D01*
X139526094Y-107483655D01*
X139526096Y-107483659D01*
X139526097Y-107483663D01*
X139607313Y-107657830D01*
X139625965Y-107697830D01*
X139625967Y-107697834D01*
X139761501Y-107891395D01*
X139761506Y-107891402D01*
X139928597Y-108058493D01*
X139928603Y-108058498D01*
X140114158Y-108188425D01*
X140157783Y-108243002D01*
X140164977Y-108312500D01*
X140133454Y-108374855D01*
X140114158Y-108391575D01*
X139928597Y-108521505D01*
X139761505Y-108688597D01*
X139625965Y-108882169D01*
X139625964Y-108882171D01*
X139526098Y-109096335D01*
X139526094Y-109096344D01*
X139464938Y-109324586D01*
X139464936Y-109324596D01*
X139444341Y-109559999D01*
X139444341Y-109560000D01*
X139464936Y-109795403D01*
X139464938Y-109795413D01*
X139526094Y-110023655D01*
X139526096Y-110023659D01*
X139526097Y-110023663D01*
X139607313Y-110197830D01*
X139625965Y-110237830D01*
X139625967Y-110237834D01*
X139761501Y-110431395D01*
X139761506Y-110431402D01*
X139928597Y-110598493D01*
X139928603Y-110598498D01*
X140114158Y-110728425D01*
X140157783Y-110783002D01*
X140164977Y-110852500D01*
X140133454Y-110914855D01*
X140114158Y-110931575D01*
X139928597Y-111061505D01*
X139761505Y-111228597D01*
X139625965Y-111422169D01*
X139625964Y-111422171D01*
X139526098Y-111636335D01*
X139526094Y-111636344D01*
X139464938Y-111864586D01*
X139464936Y-111864596D01*
X139444341Y-112099999D01*
X139444341Y-112100000D01*
X139464936Y-112335403D01*
X139464938Y-112335413D01*
X139526094Y-112563655D01*
X139526096Y-112563659D01*
X139526097Y-112563663D01*
X139607313Y-112737830D01*
X139625965Y-112777830D01*
X139625967Y-112777834D01*
X139761501Y-112971395D01*
X139761506Y-112971402D01*
X139928597Y-113138493D01*
X139928603Y-113138498D01*
X140114158Y-113268425D01*
X140157783Y-113323002D01*
X140164977Y-113392500D01*
X140133454Y-113454855D01*
X140114158Y-113471575D01*
X139928597Y-113601505D01*
X139761505Y-113768597D01*
X139625965Y-113962169D01*
X139625964Y-113962171D01*
X139526098Y-114176335D01*
X139526094Y-114176344D01*
X139464938Y-114404586D01*
X139464936Y-114404596D01*
X139444341Y-114639999D01*
X139444341Y-114640000D01*
X139464936Y-114875403D01*
X139464938Y-114875413D01*
X139526094Y-115103655D01*
X139526096Y-115103659D01*
X139526097Y-115103663D01*
X139607313Y-115277830D01*
X139625965Y-115317830D01*
X139625967Y-115317834D01*
X139761501Y-115511395D01*
X139761506Y-115511402D01*
X139928597Y-115678493D01*
X139928603Y-115678498D01*
X140114158Y-115808425D01*
X140157783Y-115863002D01*
X140164977Y-115932500D01*
X140133454Y-115994855D01*
X140114158Y-116011575D01*
X139928597Y-116141505D01*
X139761505Y-116308597D01*
X139625965Y-116502169D01*
X139625964Y-116502171D01*
X139526098Y-116716335D01*
X139526094Y-116716344D01*
X139464938Y-116944586D01*
X139464936Y-116944596D01*
X139444341Y-117179999D01*
X139444341Y-117180000D01*
X139464936Y-117415403D01*
X139464938Y-117415413D01*
X139526094Y-117643655D01*
X139526096Y-117643659D01*
X139526097Y-117643663D01*
X139607195Y-117817578D01*
X139625965Y-117857830D01*
X139625967Y-117857834D01*
X139733273Y-118011082D01*
X139761505Y-118051401D01*
X139928599Y-118218495D01*
X140025384Y-118286265D01*
X140122165Y-118354032D01*
X140122167Y-118354033D01*
X140122170Y-118354035D01*
X140336337Y-118453903D01*
X140564592Y-118515063D01*
X140752918Y-118531539D01*
X140799999Y-118535659D01*
X140800000Y-118535659D01*
X140800001Y-118535659D01*
X140839234Y-118532226D01*
X141035408Y-118515063D01*
X141263663Y-118453903D01*
X141477830Y-118354035D01*
X141671401Y-118218495D01*
X141838495Y-118051401D01*
X141974035Y-117857830D01*
X142073903Y-117643663D01*
X142135063Y-117415408D01*
X142155659Y-117180000D01*
X142135063Y-116944592D01*
X142073903Y-116716337D01*
X141974035Y-116502171D01*
X141946202Y-116462420D01*
X141838494Y-116308597D01*
X141671402Y-116141506D01*
X141671396Y-116141501D01*
X141485842Y-116011575D01*
X141442217Y-115956998D01*
X141435023Y-115887500D01*
X141466546Y-115825145D01*
X141485842Y-115808425D01*
X141569217Y-115750045D01*
X141671401Y-115678495D01*
X141838495Y-115511401D01*
X141974035Y-115317830D01*
X142073903Y-115103663D01*
X142135063Y-114875408D01*
X142155659Y-114640000D01*
X142135063Y-114404592D01*
X142073903Y-114176337D01*
X141974035Y-113962171D01*
X141946026Y-113922169D01*
X141838494Y-113768597D01*
X141671402Y-113601506D01*
X141671396Y-113601501D01*
X141485842Y-113471575D01*
X141442217Y-113416998D01*
X141435023Y-113347500D01*
X141466546Y-113285145D01*
X141485842Y-113268425D01*
X141613518Y-113179025D01*
X141671401Y-113138495D01*
X141838495Y-112971401D01*
X141974035Y-112777830D01*
X142073903Y-112563663D01*
X142135063Y-112335408D01*
X142155659Y-112100000D01*
X142135063Y-111864592D01*
X142073903Y-111636337D01*
X141974035Y-111422171D01*
X141966442Y-111411326D01*
X141838494Y-111228597D01*
X141671402Y-111061506D01*
X141671396Y-111061501D01*
X141485842Y-110931575D01*
X141442217Y-110876998D01*
X141435023Y-110807500D01*
X141466546Y-110745145D01*
X141485842Y-110728425D01*
X141542968Y-110688425D01*
X141671401Y-110598495D01*
X141838495Y-110431401D01*
X141974035Y-110237830D01*
X142073903Y-110023663D01*
X142135063Y-109795408D01*
X142155659Y-109560000D01*
X142135063Y-109324592D01*
X142073903Y-109096337D01*
X141974035Y-108882171D01*
X141946026Y-108842169D01*
X141838494Y-108688597D01*
X141671402Y-108521506D01*
X141671396Y-108521501D01*
X141485842Y-108391575D01*
X141442217Y-108336998D01*
X141435023Y-108267500D01*
X141466546Y-108205145D01*
X141485842Y-108188425D01*
X141542968Y-108148425D01*
X141671401Y-108058495D01*
X141838495Y-107891401D01*
X141974035Y-107697830D01*
X142073903Y-107483663D01*
X142135063Y-107255408D01*
X142155659Y-107020000D01*
X142135063Y-106784592D01*
X142073903Y-106556337D01*
X141974035Y-106342171D01*
X141946026Y-106302169D01*
X141838494Y-106148597D01*
X141671402Y-105981506D01*
X141671396Y-105981501D01*
X141485842Y-105851575D01*
X141442217Y-105796998D01*
X141435023Y-105727500D01*
X141466546Y-105665145D01*
X141485842Y-105648425D01*
X141542968Y-105608425D01*
X141671401Y-105518495D01*
X141838495Y-105351401D01*
X141974035Y-105157830D01*
X142073903Y-104943663D01*
X142135063Y-104715408D01*
X142155659Y-104480000D01*
X142135063Y-104244592D01*
X142073903Y-104016337D01*
X141974035Y-103802171D01*
X141946026Y-103762169D01*
X141838494Y-103608597D01*
X141671402Y-103441506D01*
X141671396Y-103441501D01*
X141485842Y-103311575D01*
X141442217Y-103256998D01*
X141435023Y-103187500D01*
X141466546Y-103125145D01*
X141485842Y-103108425D01*
X141542968Y-103068425D01*
X141671401Y-102978495D01*
X141838495Y-102811401D01*
X141974035Y-102617830D01*
X142073903Y-102403663D01*
X142135063Y-102175408D01*
X142155659Y-101940000D01*
X142135063Y-101704592D01*
X142073903Y-101476337D01*
X141974035Y-101262171D01*
X141946026Y-101222169D01*
X141838494Y-101068597D01*
X141671402Y-100901506D01*
X141671396Y-100901501D01*
X141485842Y-100771575D01*
X141442217Y-100716998D01*
X141435023Y-100647500D01*
X141466546Y-100585145D01*
X141485842Y-100568425D01*
X141583563Y-100500000D01*
X141671401Y-100438495D01*
X141838495Y-100271401D01*
X141974035Y-100077830D01*
X142073903Y-99863663D01*
X142135063Y-99635408D01*
X142155659Y-99400000D01*
X142135063Y-99164592D01*
X142073903Y-98936337D01*
X141974035Y-98722171D01*
X141962857Y-98706206D01*
X141838494Y-98528597D01*
X141671402Y-98361506D01*
X141671396Y-98361501D01*
X141485842Y-98231575D01*
X141442217Y-98176998D01*
X141435023Y-98107500D01*
X141466546Y-98045145D01*
X141485842Y-98028425D01*
X141542968Y-97988425D01*
X141671401Y-97898495D01*
X141838495Y-97731401D01*
X141974035Y-97537830D01*
X142073903Y-97323663D01*
X142135063Y-97095408D01*
X142155659Y-96860000D01*
X142135063Y-96624592D01*
X142073903Y-96396337D01*
X141974035Y-96182171D01*
X141946026Y-96142169D01*
X141838494Y-95988597D01*
X141671402Y-95821506D01*
X141671396Y-95821501D01*
X141485842Y-95691575D01*
X141442217Y-95636998D01*
X141435023Y-95567500D01*
X141466546Y-95505145D01*
X141485842Y-95488425D01*
X141542968Y-95448425D01*
X141671401Y-95358495D01*
X141838495Y-95191401D01*
X141974035Y-94997830D01*
X142073903Y-94783663D01*
X142135063Y-94555408D01*
X142155659Y-94320000D01*
X142135063Y-94084592D01*
X142073903Y-93856337D01*
X141974035Y-93642171D01*
X141946026Y-93602169D01*
X141838494Y-93448597D01*
X141671402Y-93281506D01*
X141671396Y-93281501D01*
X141485842Y-93151575D01*
X141442217Y-93096998D01*
X141435023Y-93027500D01*
X141466546Y-92965145D01*
X141485842Y-92948425D01*
X141542968Y-92908425D01*
X141671401Y-92818495D01*
X141838495Y-92651401D01*
X141974035Y-92457830D01*
X142073903Y-92243663D01*
X142135063Y-92015408D01*
X142155659Y-91780000D01*
X142135063Y-91544592D01*
X142073903Y-91316337D01*
X141974035Y-91102171D01*
X141946026Y-91062169D01*
X141838494Y-90908597D01*
X141671402Y-90741506D01*
X141671396Y-90741501D01*
X141485842Y-90611575D01*
X141442217Y-90556998D01*
X141435023Y-90487500D01*
X141466546Y-90425145D01*
X141485842Y-90408425D01*
X141542968Y-90368425D01*
X141671401Y-90278495D01*
X141838495Y-90111401D01*
X141974035Y-89917830D01*
X142073903Y-89703663D01*
X142135063Y-89475408D01*
X142155659Y-89240000D01*
X142135063Y-89004592D01*
X142073903Y-88776337D01*
X141974035Y-88562171D01*
X141937209Y-88509577D01*
X141838494Y-88368597D01*
X141671402Y-88201506D01*
X141671396Y-88201501D01*
X141485842Y-88071575D01*
X141442217Y-88016998D01*
X141435023Y-87947500D01*
X141466546Y-87885145D01*
X141485842Y-87868425D01*
X141508026Y-87852891D01*
X141671401Y-87738495D01*
X141838495Y-87571401D01*
X141974035Y-87377830D01*
X142073903Y-87163663D01*
X142135063Y-86935408D01*
X142155659Y-86700000D01*
X142135063Y-86464592D01*
X142073903Y-86236337D01*
X141974035Y-86022171D01*
X141946026Y-85982169D01*
X141838494Y-85828597D01*
X141671402Y-85661506D01*
X141671396Y-85661501D01*
X141485842Y-85531575D01*
X141442217Y-85476998D01*
X141435023Y-85407500D01*
X141466546Y-85345145D01*
X141485842Y-85328425D01*
X141658306Y-85207664D01*
X141671401Y-85198495D01*
X141838495Y-85031401D01*
X141974035Y-84837830D01*
X142073903Y-84623663D01*
X142135063Y-84395408D01*
X142155659Y-84160000D01*
X142135063Y-83924592D01*
X142073903Y-83696337D01*
X141974035Y-83482171D01*
X141965150Y-83469481D01*
X141838494Y-83288597D01*
X141671402Y-83121506D01*
X141671396Y-83121501D01*
X141485842Y-82991575D01*
X141442217Y-82936998D01*
X141435023Y-82867500D01*
X141466546Y-82805145D01*
X141485842Y-82788425D01*
X141628552Y-82688498D01*
X141671401Y-82658495D01*
X141838495Y-82491401D01*
X141974035Y-82297830D01*
X142073903Y-82083663D01*
X142135063Y-81855408D01*
X142155659Y-81620000D01*
X142135063Y-81384592D01*
X142073903Y-81156337D01*
X141974035Y-80942171D01*
X141946026Y-80902169D01*
X141838494Y-80748597D01*
X141671402Y-80581506D01*
X141671396Y-80581501D01*
X141485842Y-80451575D01*
X141442217Y-80396998D01*
X141435023Y-80327500D01*
X141466546Y-80265145D01*
X141485842Y-80248425D01*
X141542968Y-80208425D01*
X141671401Y-80118495D01*
X141838495Y-79951401D01*
X141974035Y-79757830D01*
X142073903Y-79543663D01*
X142135063Y-79315408D01*
X142155659Y-79080000D01*
X142135063Y-78844592D01*
X142073903Y-78616337D01*
X141974035Y-78402171D01*
X141974034Y-78402169D01*
X141838494Y-78208597D01*
X141671402Y-78041506D01*
X141671396Y-78041501D01*
X141485842Y-77911575D01*
X141442217Y-77856998D01*
X141435023Y-77787500D01*
X141466546Y-77725145D01*
X141485842Y-77708425D01*
X141576903Y-77644663D01*
X141671401Y-77578495D01*
X141838495Y-77411401D01*
X141974035Y-77217830D01*
X142073903Y-77003663D01*
X142135063Y-76775408D01*
X142155659Y-76540000D01*
X142135063Y-76304592D01*
X142073903Y-76076337D01*
X141974035Y-75862171D01*
X141948683Y-75825965D01*
X141838496Y-75668600D01*
X141798495Y-75628599D01*
X141716567Y-75546671D01*
X141683084Y-75485351D01*
X141688068Y-75415659D01*
X141729939Y-75359725D01*
X141760915Y-75342810D01*
X141892331Y-75293796D01*
X142007546Y-75207546D01*
X142093796Y-75092331D01*
X142144091Y-74957483D01*
X142150500Y-74897873D01*
X142150499Y-73102128D01*
X142144091Y-73042517D01*
X142093796Y-72907669D01*
X142093795Y-72907668D01*
X142093793Y-72907664D01*
X142007547Y-72792455D01*
X142007544Y-72792452D01*
X141892335Y-72706206D01*
X141892328Y-72706202D01*
X141757482Y-72655908D01*
X141757483Y-72655908D01*
X141697883Y-72649501D01*
X141697881Y-72649500D01*
X141697873Y-72649500D01*
X141697864Y-72649500D01*
X139902129Y-72649500D01*
X139902123Y-72649501D01*
X139842516Y-72655908D01*
X139707671Y-72706202D01*
X139707664Y-72706206D01*
X139592455Y-72792452D01*
X139592452Y-72792455D01*
X139506206Y-72907664D01*
X139506202Y-72907671D01*
X139455908Y-73042517D01*
X139449501Y-73102116D01*
X139449501Y-73102123D01*
X139449500Y-73102135D01*
X139449500Y-74897870D01*
X139449501Y-74897876D01*
X139455908Y-74957483D01*
X139506202Y-75092328D01*
X139506206Y-75092335D01*
X139592452Y-75207544D01*
X139592455Y-75207547D01*
X139707664Y-75293793D01*
X139707671Y-75293797D01*
X139839081Y-75342810D01*
X139895015Y-75384681D01*
X139919432Y-75450145D01*
X139904580Y-75518418D01*
X139883430Y-75546673D01*
X139761503Y-75668600D01*
X139625965Y-75862169D01*
X139625964Y-75862171D01*
X139526098Y-76076335D01*
X139526094Y-76076344D01*
X139464938Y-76304586D01*
X139464936Y-76304596D01*
X139444341Y-76539999D01*
X139444341Y-76540000D01*
X139464936Y-76775403D01*
X139464938Y-76775413D01*
X139526094Y-77003655D01*
X139526096Y-77003659D01*
X139526097Y-77003663D01*
X139607313Y-77177830D01*
X139625965Y-77217830D01*
X139625967Y-77217834D01*
X139761501Y-77411395D01*
X139761506Y-77411402D01*
X139928597Y-77578493D01*
X139928603Y-77578498D01*
X140114158Y-77708425D01*
X140157783Y-77763002D01*
X140164977Y-77832500D01*
X140133454Y-77894855D01*
X140114158Y-77911575D01*
X139928597Y-78041505D01*
X139761506Y-78208596D01*
X139625965Y-78402170D01*
X139625962Y-78402175D01*
X139623289Y-78407909D01*
X139577115Y-78460346D01*
X139510909Y-78479500D01*
X131499057Y-78479500D01*
X131340942Y-78479500D01*
X131188215Y-78520423D01*
X131188214Y-78520423D01*
X131188212Y-78520424D01*
X131188209Y-78520425D01*
X131138096Y-78549359D01*
X131138095Y-78549360D01*
X131094689Y-78574420D01*
X131051285Y-78599479D01*
X131051282Y-78599481D01*
X130939478Y-78711286D01*
X122337584Y-87313181D01*
X122276261Y-87346666D01*
X122249903Y-87349500D01*
X119363234Y-87349500D01*
X119296195Y-87329815D01*
X119250440Y-87277011D01*
X119240496Y-87207853D01*
X119250852Y-87173095D01*
X119273903Y-87123663D01*
X119335063Y-86895408D01*
X119355659Y-86660000D01*
X119335063Y-86424592D01*
X119273903Y-86196337D01*
X119174035Y-85982171D01*
X119071927Y-85836344D01*
X119038494Y-85788597D01*
X118871402Y-85621506D01*
X118871396Y-85621501D01*
X118685842Y-85491575D01*
X118642217Y-85436998D01*
X118635023Y-85367500D01*
X118666546Y-85305145D01*
X118685842Y-85288425D01*
X118801180Y-85207664D01*
X118871401Y-85158495D01*
X119038495Y-84991401D01*
X119174035Y-84797830D01*
X119273903Y-84583663D01*
X119335063Y-84355408D01*
X119355659Y-84120000D01*
X119335063Y-83884592D01*
X119273903Y-83656337D01*
X119174035Y-83442171D01*
X119158064Y-83419361D01*
X119038494Y-83248597D01*
X118871402Y-83081506D01*
X118871396Y-83081501D01*
X118685842Y-82951575D01*
X118642217Y-82896998D01*
X118635023Y-82827500D01*
X118666546Y-82765145D01*
X118685842Y-82748425D01*
X118771426Y-82688498D01*
X118871401Y-82618495D01*
X119038495Y-82451401D01*
X119174035Y-82257830D01*
X119273903Y-82043663D01*
X119335063Y-81815408D01*
X119355659Y-81580000D01*
X119335063Y-81344592D01*
X119273903Y-81116337D01*
X119174035Y-80902171D01*
X119087510Y-80778599D01*
X119038494Y-80708597D01*
X118871402Y-80541506D01*
X118871396Y-80541501D01*
X118685842Y-80411575D01*
X118642217Y-80356998D01*
X118635023Y-80287500D01*
X118666546Y-80225145D01*
X118685842Y-80208425D01*
X118708026Y-80192891D01*
X118871401Y-80078495D01*
X119038495Y-79911401D01*
X119174035Y-79717830D01*
X119273903Y-79503663D01*
X119335063Y-79275408D01*
X119355659Y-79040000D01*
X119335063Y-78804592D01*
X119273903Y-78576337D01*
X119174035Y-78362171D01*
X119169476Y-78355659D01*
X119038494Y-78168597D01*
X118871402Y-78001506D01*
X118871396Y-78001501D01*
X118685842Y-77871575D01*
X118642217Y-77816998D01*
X118635023Y-77747500D01*
X118666546Y-77685145D01*
X118685842Y-77668425D01*
X118708026Y-77652891D01*
X118871401Y-77538495D01*
X119038495Y-77371401D01*
X119174035Y-77177830D01*
X119273903Y-76963663D01*
X119335063Y-76735408D01*
X119355659Y-76500000D01*
X119335063Y-76264592D01*
X119273903Y-76036337D01*
X119174035Y-75822171D01*
X119106764Y-75726098D01*
X119038496Y-75628600D01*
X119038495Y-75628599D01*
X118916567Y-75506671D01*
X118883084Y-75445351D01*
X118888068Y-75375659D01*
X118929939Y-75319725D01*
X118960915Y-75302810D01*
X119092331Y-75253796D01*
X119207546Y-75167546D01*
X119293796Y-75052331D01*
X119344091Y-74917483D01*
X119350500Y-74857873D01*
X119350499Y-73062128D01*
X119344091Y-73002517D01*
X119293796Y-72867669D01*
X119293795Y-72867668D01*
X119293793Y-72867664D01*
X119207547Y-72752455D01*
X119207544Y-72752452D01*
X119092335Y-72666206D01*
X119092328Y-72666202D01*
X118957482Y-72615908D01*
X118957483Y-72615908D01*
X118897883Y-72609501D01*
X118897881Y-72609500D01*
X118897873Y-72609500D01*
X118897864Y-72609500D01*
X117102129Y-72609500D01*
X117102123Y-72609501D01*
X117042516Y-72615908D01*
X116907671Y-72666202D01*
X116907664Y-72666206D01*
X116792455Y-72752452D01*
X116792452Y-72752455D01*
X116706206Y-72867664D01*
X116706202Y-72867671D01*
X116655908Y-73002517D01*
X116651608Y-73042516D01*
X116649501Y-73062123D01*
X116649500Y-73062135D01*
X116649500Y-74857870D01*
X116649501Y-74857876D01*
X116655908Y-74917483D01*
X116706202Y-75052328D01*
X116706206Y-75052335D01*
X116792452Y-75167544D01*
X116792455Y-75167547D01*
X116907664Y-75253793D01*
X116907671Y-75253797D01*
X117039081Y-75302810D01*
X117095015Y-75344681D01*
X117119432Y-75410145D01*
X117104580Y-75478418D01*
X117083430Y-75506673D01*
X116961503Y-75628600D01*
X116825965Y-75822169D01*
X116825964Y-75822171D01*
X116726098Y-76036335D01*
X116726094Y-76036344D01*
X116664938Y-76264586D01*
X116664936Y-76264596D01*
X116644341Y-76499999D01*
X116644341Y-76500000D01*
X116664936Y-76735403D01*
X116664938Y-76735413D01*
X116699327Y-76863756D01*
X116697664Y-76933606D01*
X116667233Y-76983530D01*
X114987584Y-78663181D01*
X114926261Y-78696666D01*
X114899903Y-78699500D01*
X107286670Y-78699500D01*
X107286654Y-78699499D01*
X107279058Y-78699499D01*
X107120943Y-78699499D01*
X107044579Y-78719961D01*
X106968214Y-78740423D01*
X106968209Y-78740426D01*
X106831290Y-78819475D01*
X106831282Y-78819481D01*
X105714481Y-79936282D01*
X105714477Y-79936287D01*
X105696960Y-79966630D01*
X105696959Y-79966632D01*
X105635423Y-80073215D01*
X105594499Y-80225943D01*
X105594499Y-80225945D01*
X105594499Y-80360909D01*
X105574814Y-80427948D01*
X105522908Y-80473289D01*
X105517174Y-80475962D01*
X105517169Y-80475965D01*
X105323597Y-80611505D01*
X105156505Y-80778597D01*
X105020965Y-80972169D01*
X105020964Y-80972171D01*
X104921098Y-81186335D01*
X104921094Y-81186344D01*
X104859938Y-81414586D01*
X104859936Y-81414596D01*
X104839341Y-81649999D01*
X93725500Y-81649999D01*
X93725500Y-76999999D01*
X104839341Y-76999999D01*
X104839341Y-77000000D01*
X104859936Y-77235403D01*
X104859938Y-77235413D01*
X104921094Y-77463655D01*
X104921096Y-77463659D01*
X104921097Y-77463663D01*
X104974644Y-77578495D01*
X105020965Y-77677830D01*
X105020967Y-77677834D01*
X105129266Y-77832500D01*
X105156505Y-77871401D01*
X105323599Y-78038495D01*
X105420384Y-78106265D01*
X105517165Y-78174032D01*
X105517167Y-78174033D01*
X105517170Y-78174035D01*
X105731337Y-78273903D01*
X105959592Y-78335063D01*
X106136034Y-78350500D01*
X106194999Y-78355659D01*
X106195000Y-78355659D01*
X106195001Y-78355659D01*
X106253966Y-78350500D01*
X106430408Y-78335063D01*
X106658663Y-78273903D01*
X106872830Y-78174035D01*
X107066401Y-78038495D01*
X107233495Y-77871401D01*
X107363425Y-77685842D01*
X107418002Y-77642217D01*
X107487500Y-77635023D01*
X107549855Y-77666546D01*
X107566575Y-77685842D01*
X107696500Y-77871395D01*
X107696505Y-77871401D01*
X107863599Y-78038495D01*
X107960384Y-78106265D01*
X108057165Y-78174032D01*
X108057167Y-78174033D01*
X108057170Y-78174035D01*
X108271337Y-78273903D01*
X108499592Y-78335063D01*
X108676034Y-78350500D01*
X108734999Y-78355659D01*
X108735000Y-78355659D01*
X108735001Y-78355659D01*
X108793966Y-78350500D01*
X108970408Y-78335063D01*
X109198663Y-78273903D01*
X109412830Y-78174035D01*
X109606401Y-78038495D01*
X109728329Y-77916566D01*
X109789648Y-77883084D01*
X109859340Y-77888068D01*
X109915274Y-77929939D01*
X109932189Y-77960917D01*
X109981202Y-78092328D01*
X109981206Y-78092335D01*
X110067452Y-78207544D01*
X110067455Y-78207547D01*
X110182664Y-78293793D01*
X110182671Y-78293797D01*
X110317517Y-78344091D01*
X110317516Y-78344091D01*
X110324444Y-78344835D01*
X110377127Y-78350500D01*
X112172872Y-78350499D01*
X112232483Y-78344091D01*
X112367331Y-78293796D01*
X112482546Y-78207546D01*
X112568796Y-78092331D01*
X112619091Y-77957483D01*
X112625500Y-77897873D01*
X112625499Y-76102128D01*
X112619091Y-76042517D01*
X112617810Y-76039083D01*
X112568797Y-75907671D01*
X112568793Y-75907664D01*
X112482547Y-75792455D01*
X112482544Y-75792452D01*
X112367335Y-75706206D01*
X112367328Y-75706202D01*
X112232482Y-75655908D01*
X112232483Y-75655908D01*
X112172883Y-75649501D01*
X112172881Y-75649500D01*
X112172873Y-75649500D01*
X112172864Y-75649500D01*
X110377129Y-75649500D01*
X110377123Y-75649501D01*
X110317516Y-75655908D01*
X110182671Y-75706202D01*
X110182664Y-75706206D01*
X110067455Y-75792452D01*
X110067452Y-75792455D01*
X109981206Y-75907664D01*
X109981203Y-75907669D01*
X109932189Y-76039083D01*
X109890317Y-76095016D01*
X109824853Y-76119433D01*
X109756580Y-76104581D01*
X109728326Y-76083430D01*
X109606402Y-75961506D01*
X109606395Y-75961501D01*
X109412834Y-75825967D01*
X109412830Y-75825965D01*
X109404689Y-75822169D01*
X109198663Y-75726097D01*
X109198659Y-75726096D01*
X109198655Y-75726094D01*
X108970413Y-75664938D01*
X108970403Y-75664936D01*
X108735001Y-75644341D01*
X108734999Y-75644341D01*
X108499596Y-75664936D01*
X108499586Y-75664938D01*
X108271344Y-75726094D01*
X108271335Y-75726098D01*
X108057171Y-75825964D01*
X108057169Y-75825965D01*
X107863597Y-75961505D01*
X107696505Y-76128597D01*
X107566575Y-76314158D01*
X107511998Y-76357783D01*
X107442500Y-76364977D01*
X107380145Y-76333454D01*
X107363425Y-76314158D01*
X107233494Y-76128597D01*
X107066402Y-75961506D01*
X107066395Y-75961501D01*
X106872834Y-75825967D01*
X106872830Y-75825965D01*
X106864689Y-75822169D01*
X106658663Y-75726097D01*
X106658659Y-75726096D01*
X106658655Y-75726094D01*
X106430413Y-75664938D01*
X106430403Y-75664936D01*
X106195001Y-75644341D01*
X106194999Y-75644341D01*
X105959596Y-75664936D01*
X105959586Y-75664938D01*
X105731344Y-75726094D01*
X105731335Y-75726098D01*
X105517171Y-75825964D01*
X105517169Y-75825965D01*
X105323597Y-75961505D01*
X105156505Y-76128597D01*
X105020965Y-76322169D01*
X105020964Y-76322171D01*
X104921098Y-76536335D01*
X104921094Y-76536344D01*
X104859938Y-76764586D01*
X104859936Y-76764596D01*
X104839341Y-76999999D01*
X93725500Y-76999999D01*
X93725500Y-72404441D01*
X93725818Y-72395567D01*
X93727253Y-72375562D01*
X93740428Y-72191937D01*
X93742959Y-72174387D01*
X93785542Y-71979272D01*
X93790548Y-71962279D01*
X93860555Y-71775227D01*
X93867947Y-71759103D01*
X93900896Y-71698987D01*
X93963928Y-71583984D01*
X93973535Y-71569093D01*
X94093550Y-71409448D01*
X94105181Y-71396086D01*
X94246752Y-71255216D01*
X94260177Y-71243646D01*
X94420401Y-71124436D01*
X94435360Y-71114890D01*
X94523153Y-71067336D01*
X94610950Y-71019780D01*
X94627107Y-71012471D01*
X94814493Y-70943396D01*
X94831522Y-70938472D01*
X95026845Y-70896858D01*
X95044402Y-70894414D01*
X95248500Y-70880788D01*
X95257312Y-70880517D01*
X95318432Y-70880822D01*
X95318433Y-70880821D01*
X95323329Y-70880846D01*
X95328811Y-70880500D01*
X143245572Y-70880500D01*
X143254418Y-70880816D01*
G37*
%TD.AperFunction*%
%TD*%
M02*
