M48
; DRILL file {KiCad 8.0.2} date 2025-02-13T09:36:50+0100
; FORMAT={-:-/ absolute / inch / decimal}
; #@! TF.CreationDate,2025-02-13T09:36:50+01:00
; #@! TF.GenerationSoftware,Kicad,Pcbnew,8.0.2
; #@! TF.FileFunction,Plated,1,2,PTH
FMAT,2
INCH
; #@! TA.AperFunction,Plated,PTH,ComponentDrill
T1C0.0315
; #@! TA.AperFunction,Plated,PTH,ComponentDrill
T2C0.0394
%
G90
G05
T1
X4.3307Y-4.4134
X4.3307Y-4.5177
X4.5276Y-4.4134
X4.5276Y-4.5177
T2
X4.1809Y-3.0315
X4.1809Y-3.2146
X4.1809Y-3.3976
X4.1809Y-3.5787
X4.1809Y-3.7559
X4.2805Y-3.937
X4.2809Y-3.0315
X4.2809Y-3.2146
X4.2809Y-3.3976
X4.2809Y-3.5787
X4.2809Y-3.7559
X4.3805Y-3.937
X4.3809Y-3.0315
X4.3809Y-3.2146
X4.3809Y-3.3976
X4.3809Y-3.5787
X4.3809Y-3.7559
X4.6457Y-2.9118
X4.6457Y-3.0118
X4.6457Y-3.1118
X4.6457Y-3.2118
X4.6457Y-3.3118
X4.6457Y-3.4118
X4.6457Y-3.5118
X4.6457Y-3.6118
X4.6457Y-3.7118
X4.6457Y-3.8118
X4.6457Y-3.9118
X4.6457Y-4.0118
X4.6457Y-4.1118
X4.6457Y-4.2118
X4.6457Y-4.3118
X4.6457Y-4.4118
X4.6457Y-4.5118
X4.6457Y-4.6118
X5.5433Y-2.9134
X5.5433Y-3.0134
X5.5433Y-3.1134
X5.5433Y-3.2134
X5.5433Y-3.3134
X5.5433Y-3.4134
X5.5433Y-3.5134
X5.5433Y-3.6134
X5.5433Y-3.7134
X5.5433Y-3.8134
X5.5433Y-3.9134
X5.5433Y-4.0134
X5.5433Y-4.1134
X5.5433Y-4.2134
X5.5433Y-4.3134
X5.5433Y-4.4134
X5.5433Y-4.5134
X5.5433Y-4.6134
M30
