%TF.GenerationSoftware,KiCad,Pcbnew,8.0.2*%
%TF.CreationDate,2025-02-13T09:36:27+01:00*%
%TF.ProjectId,carte_robo_pince,63617274-655f-4726-9f62-6f5f70696e63,rev?*%
%TF.SameCoordinates,Original*%
%TF.FileFunction,Copper,L1,Top*%
%TF.FilePolarity,Positive*%
%FSLAX46Y46*%
G04 Gerber Fmt 4.6, Leading zero omitted, Abs format (unit mm)*
G04 Created by KiCad (PCBNEW 8.0.2) date 2025-02-13 09:36:27*
%MOMM*%
%LPD*%
G01*
G04 APERTURE LIST*
G04 Aperture macros list*
%AMRoundRect*
0 Rectangle with rounded corners*
0 $1 Rounding radius*
0 $2 $3 $4 $5 $6 $7 $8 $9 X,Y pos of 4 corners*
0 Add a 4 corners polygon primitive as box body*
4,1,4,$2,$3,$4,$5,$6,$7,$8,$9,$2,$3,0*
0 Add four circle primitives for the rounded corners*
1,1,$1+$1,$2,$3*
1,1,$1+$1,$4,$5*
1,1,$1+$1,$6,$7*
1,1,$1+$1,$8,$9*
0 Add four rect primitives between the rounded corners*
20,1,$1+$1,$2,$3,$4,$5,0*
20,1,$1+$1,$4,$5,$6,$7,0*
20,1,$1+$1,$6,$7,$8,$9,0*
20,1,$1+$1,$8,$9,$2,$3,0*%
G04 Aperture macros list end*
%TA.AperFunction,SMDPad,CuDef*%
%ADD10RoundRect,0.112179X-3.137821X-1.637821X3.137821X-1.637821X3.137821X1.637821X-3.137821X1.637821X0*%
%TD*%
%TA.AperFunction,ComponentPad*%
%ADD11R,1.700000X1.700000*%
%TD*%
%TA.AperFunction,ComponentPad*%
%ADD12O,1.700000X1.700000*%
%TD*%
%TA.AperFunction,ComponentPad*%
%ADD13C,1.600000*%
%TD*%
%TA.AperFunction,Conductor*%
%ADD14C,0.200000*%
%TD*%
G04 APERTURE END LIST*
D10*
%TO.P,C4,1*%
%TO.N,GND*%
X99867500Y-126050000D03*
%TO.P,C4,2*%
%TO.N,/+5V*%
X112367500Y-126050000D03*
%TD*%
D11*
%TO.P,J3,1,Pin_1*%
%TO.N,Net-(J3-Pin_1)*%
X111275000Y-77000000D03*
D12*
%TO.P,J3,2,Pin_2*%
%TO.N,/+5V*%
X108735000Y-77000000D03*
%TO.P,J3,3,Pin_3*%
%TO.N,/16_S0*%
X106195000Y-77000000D03*
%TD*%
D11*
%TO.P,J7,1,Pin_1*%
%TO.N,Net-(J3-Pin_1)*%
X111275000Y-90900000D03*
D12*
%TO.P,J7,2,Pin_2*%
%TO.N,/+5V*%
X108735000Y-90900000D03*
%TO.P,J7,3,Pin_3*%
%TO.N,/4_S5*%
X106195000Y-90900000D03*
%TD*%
D11*
%TO.P,J1,1,Pin_1*%
%TO.N,unconnected-(J1-Pin_1-Pad1)*%
X118000000Y-73960000D03*
D12*
%TO.P,J1,2,Pin_2*%
%TO.N,/13_S2*%
X118000000Y-76500000D03*
%TO.P,J1,3,Pin_3*%
%TO.N,unconnected-(J1-Pin_3-Pad3)*%
X118000000Y-79040000D03*
%TO.P,J1,4,Pin_4*%
%TO.N,/14_S3*%
X118000000Y-81580000D03*
%TO.P,J1,5,Pin_5*%
%TO.N,unconnected-(J1-Pin_5-Pad5)*%
X118000000Y-84120000D03*
%TO.P,J1,6,Pin_6*%
%TO.N,unconnected-(J1-Pin_6-Pad6)*%
X118000000Y-86660000D03*
%TO.P,J1,7,Pin_7*%
%TO.N,unconnected-(J1-Pin_7-Pad7)*%
X118000000Y-89200000D03*
%TO.P,J1,8,Pin_8*%
%TO.N,unconnected-(J1-Pin_8-Pad8)*%
X118000000Y-91740000D03*
%TO.P,J1,9,Pin_9*%
%TO.N,unconnected-(J1-Pin_9-Pad9)*%
X118000000Y-94280000D03*
%TO.P,J1,10,Pin_10*%
%TO.N,/35*%
X118000000Y-96820000D03*
%TO.P,J1,11,Pin_11*%
%TO.N,/34*%
X118000000Y-99360000D03*
%TO.P,J1,12,Pin_12*%
%TO.N,/39*%
X118000000Y-101900000D03*
%TO.P,J1,13,Pin_13*%
%TO.N,unconnected-(J1-Pin_13-Pad13)*%
X118000000Y-104440000D03*
%TO.P,J1,14,Pin_14*%
%TO.N,unconnected-(J1-Pin_14-Pad14)*%
X118000000Y-106980000D03*
%TO.P,J1,15,Pin_15*%
%TO.N,/36*%
X118000000Y-109520000D03*
%TO.P,J1,16,Pin_16*%
%TO.N,/+3.3V*%
X118000000Y-112060000D03*
%TO.P,J1,17,Pin_17*%
%TO.N,/+5V*%
X118000000Y-114600000D03*
%TO.P,J1,18,Pin_18*%
%TO.N,GND*%
X118000000Y-117140000D03*
%TD*%
D11*
%TO.P,BT1,1,+*%
%TO.N,/+5V*%
X108725000Y-100000000D03*
D12*
%TO.P,BT1,2,-*%
%TO.N,GND*%
X111265000Y-100000000D03*
%TD*%
D11*
%TO.P,J6,1,Pin_1*%
%TO.N,Net-(J3-Pin_1)*%
X111275000Y-95400000D03*
D12*
%TO.P,J6,2,Pin_2*%
%TO.N,/+5V*%
X108735000Y-95400000D03*
%TO.P,J6,3,Pin_3*%
%TO.N,/15_S4*%
X106195000Y-95400000D03*
%TD*%
D13*
%TO.P,C1,1*%
%TO.N,/+3.3V*%
X115000000Y-112100000D03*
%TO.P,C1,2*%
%TO.N,GND*%
X110000000Y-112100000D03*
%TD*%
D11*
%TO.P,J4,1,Pin_1*%
%TO.N,Net-(J3-Pin_1)*%
X111275000Y-81650000D03*
D12*
%TO.P,J4,2,Pin_2*%
%TO.N,/+5V*%
X108735000Y-81650000D03*
%TO.P,J4,3,Pin_3*%
%TO.N,/13_S2*%
X106195000Y-81650000D03*
%TD*%
D13*
%TO.P,C2,1*%
%TO.N,/+5V*%
X115000000Y-114750000D03*
%TO.P,C2,2*%
%TO.N,GND*%
X110000000Y-114750000D03*
%TD*%
D11*
%TO.P,J2,1,Pin_1*%
%TO.N,/16_S0*%
X140800000Y-74000000D03*
D12*
%TO.P,J2,2,Pin_2*%
%TO.N,unconnected-(J2-Pin_2-Pad2)*%
X140800000Y-76540000D03*
%TO.P,J2,3,Pin_3*%
%TO.N,/4_S5*%
X140800000Y-79080000D03*
%TO.P,J2,4,Pin_4*%
%TO.N,unconnected-(J2-Pin_4-Pad4)*%
X140800000Y-81620000D03*
%TO.P,J2,5,Pin_5*%
%TO.N,/15_S4*%
X140800000Y-84160000D03*
%TO.P,J2,6,Pin_6*%
%TO.N,unconnected-(J2-Pin_6-Pad6)*%
X140800000Y-86700000D03*
%TO.P,J2,7,Pin_7*%
%TO.N,unconnected-(J2-Pin_7-Pad7)*%
X140800000Y-89240000D03*
%TO.P,J2,8,Pin_8*%
%TO.N,unconnected-(J2-Pin_8-Pad8)*%
X140800000Y-91780000D03*
%TO.P,J2,9,Pin_9*%
%TO.N,unconnected-(J2-Pin_9-Pad9)*%
X140800000Y-94320000D03*
%TO.P,J2,10,Pin_10*%
%TO.N,unconnected-(J2-Pin_10-Pad10)*%
X140800000Y-96860000D03*
%TO.P,J2,11,Pin_11*%
%TO.N,unconnected-(J2-Pin_11-Pad11)*%
X140800000Y-99400000D03*
%TO.P,J2,12,Pin_12*%
%TO.N,unconnected-(J2-Pin_12-Pad12)*%
X140800000Y-101940000D03*
%TO.P,J2,13,Pin_13*%
%TO.N,unconnected-(J2-Pin_13-Pad13)*%
X140800000Y-104480000D03*
%TO.P,J2,14,Pin_14*%
%TO.N,unconnected-(J2-Pin_14-Pad14)*%
X140800000Y-107020000D03*
%TO.P,J2,15,Pin_15*%
%TO.N,unconnected-(J2-Pin_15-Pad15)*%
X140800000Y-109560000D03*
%TO.P,J2,16,Pin_16*%
%TO.N,unconnected-(J2-Pin_16-Pad16)*%
X140800000Y-112100000D03*
%TO.P,J2,17,Pin_17*%
%TO.N,unconnected-(J2-Pin_17-Pad17)*%
X140800000Y-114640000D03*
%TO.P,J2,18,Pin_18*%
%TO.N,unconnected-(J2-Pin_18-Pad18)*%
X140800000Y-117180000D03*
%TD*%
D11*
%TO.P,J5,1,Pin_1*%
%TO.N,Net-(J3-Pin_1)*%
X111275000Y-86300000D03*
D12*
%TO.P,J5,2,Pin_2*%
%TO.N,/+5V*%
X108735000Y-86300000D03*
%TO.P,J5,3,Pin_3*%
%TO.N,/14_S3*%
X106195000Y-86300000D03*
%TD*%
D14*
%TO.N,GND*%
X105800000Y-114750000D02*
X110000000Y-114750000D01*
X99867500Y-126050000D02*
X99867500Y-120682500D01*
X99867500Y-120682500D02*
X105800000Y-114750000D01*
%TO.N,/+5V*%
X112367500Y-121732500D02*
X115000000Y-119100000D01*
X112367500Y-126050000D02*
X112367500Y-121732500D01*
X115000000Y-119100000D02*
X115000000Y-114750000D01*
%TO.N,/+3.3V*%
X115000000Y-112100000D02*
X117960000Y-112100000D01*
X117960000Y-112100000D02*
X118000000Y-112060000D01*
%TO.N,/+5V*%
X108735000Y-99990000D02*
X108725000Y-100000000D01*
X118000000Y-114600000D02*
X116550000Y-114600000D01*
X108735000Y-81650000D02*
X108735000Y-86300000D01*
X108735000Y-90900000D02*
X108735000Y-86300000D01*
X108735000Y-95400000D02*
X108735000Y-99990000D01*
X108735000Y-90900000D02*
X108735000Y-95400000D01*
X116400000Y-114750000D02*
X115000000Y-114750000D01*
X116550000Y-114600000D02*
X116400000Y-114750000D01*
X108735000Y-77000000D02*
X108735000Y-81650000D01*
%TO.N,/16_S0*%
X130500000Y-74000000D02*
X140800000Y-74000000D01*
X109000000Y-71750000D02*
X128250000Y-71750000D01*
X106195000Y-77000000D02*
X106195000Y-74555000D01*
X128250000Y-71750000D02*
X130500000Y-74000000D01*
X106195000Y-74555000D02*
X109000000Y-71750000D01*
%TO.N,/15_S4*%
X107900000Y-103150000D02*
X121810000Y-103150000D01*
X106195000Y-101445000D02*
X107900000Y-103150000D01*
X106195000Y-95400000D02*
X106195000Y-101445000D01*
X121810000Y-103150000D02*
X140800000Y-84160000D01*
%TD*%
M02*
