M48
; DRILL file {KiCad 8.0.2} date 2025-03-31T19:17:44+0200
; FORMAT={-:-/ absolute / inch / decimal}
; #@! TF.CreationDate,2025-03-31T19:17:44+02:00
; #@! TF.GenerationSoftware,Kicad,Pcbnew,8.0.2
; #@! TF.FileFunction,Plated,1,2,PTH
FMAT,2
INCH
; #@! TA.AperFunction,Plated,PTH,ViaDrill
T1C0.0118
; #@! TA.AperFunction,Plated,PTH,ComponentDrill
T2C0.0315
; #@! TA.AperFunction,Plated,PTH,ComponentDrill
T3C0.0354
; #@! TA.AperFunction,Plated,PTH,ComponentDrill
T4C0.0394
; #@! TA.AperFunction,Plated,PTH,ComponentDrill
T5C0.0433
; #@! TA.AperFunction,Plated,PTH,ComponentDrill
T6C0.0472
%
G90
G05
T1
X3.4476Y-3.3795
X4.3831Y-3.0728
X4.4535Y-2.9028
X5.0717Y-3.4929
T2
X3.4449Y-2.8417
X3.4449Y-3.2417
X3.5646Y-3.4283
X3.565Y-3.3382
X3.5697Y-2.8417
X3.5697Y-3.2417
X3.663Y-3.4283
X3.6634Y-3.3382
X3.8209Y-4.0679
X3.8209Y-4.1663
X3.9222Y-4.0689
X3.9539Y-2.8457
X4.0207Y-4.0689
X4.3307Y-4.4134
X4.3307Y-4.5177
X4.3539Y-2.8457
X4.5276Y-4.4134
X4.5276Y-4.5177
T3
X3.839Y-3.003
X3.939Y-3.003
T4
X3.4789Y-4.6484
X3.5789Y-4.6484
X4.2537Y-3.0049
X4.2537Y-3.2037
X4.2547Y-3.3957
X4.2547Y-3.5778
X4.2547Y-3.7628
X4.3537Y-3.0049
X4.3537Y-3.2037
X4.3547Y-3.3957
X4.3547Y-3.5778
X4.3547Y-3.7628
X4.4537Y-3.0049
X4.4537Y-3.2037
X4.4547Y-3.3957
X4.4547Y-3.5778
X4.4547Y-3.7628
X4.6457Y-2.9118
X4.6457Y-3.0118
X4.6457Y-3.1118
X4.6457Y-3.2118
X4.6457Y-3.3118
X4.6457Y-3.4118
X4.6457Y-3.5118
X4.6457Y-3.6118
X4.6457Y-3.7118
X4.6457Y-3.8118
X4.6457Y-3.9118
X4.6457Y-4.0118
X4.6457Y-4.1118
X4.6457Y-4.2118
X4.6457Y-4.3118
X4.6457Y-4.4118
X4.6457Y-4.5118
X4.6457Y-4.6118
X5.5433Y-2.9134
X5.5433Y-3.0134
X5.5433Y-3.1134
X5.5433Y-3.2134
X5.5433Y-3.3134
X5.5433Y-3.4134
X5.5433Y-3.5134
X5.5433Y-3.6134
X5.5433Y-3.7134
X5.5433Y-3.8134
X5.5433Y-3.9134
X5.5433Y-4.0134
X5.5433Y-4.1134
X5.5433Y-4.2134
X5.5433Y-4.3134
X5.5433Y-4.4134
X5.5433Y-4.5134
X5.5433Y-4.6134
T5
X3.8222Y-3.965
X3.9222Y-3.965
X4.0222Y-3.965
T6
X3.4823Y-4.0146
X3.4823Y-4.2114
X3.4823Y-4.4083
X3.9911Y-4.3671
X3.9911Y-4.5639
M30
